<svg id="Group_3" data-name="Group 3" xmlns="http://www.w3.org/2000/svg" xmlns:xlink="http://www.w3.org/1999/xlink" width="136.849" height="49.647" viewBox="0 0 136.849 49.647">
  <defs>
    <clipPath id="clip-path">
      <rect id="Rectangle_3" data-name="Rectangle 3" width="136.849" height="49.647" fill="none"/>
    </clipPath>
  </defs>
  <path id="Path_1" data-name="Path 1" d="M75.722,110.846h0Z" transform="translate(-53.29 -78.009)" fill="#161615"/>
  <g id="Group_2" data-name="Group 2">
    <g id="Group_1" data-name="Group 1" clip-path="url(#clip-path)">
      <path id="Path_2" data-name="Path 2" d="M75.723,110.143c3.914-.067,7.828-.1,11.741-.144l11.742-.083c7.828-.049,15.655-.044,23.483-.069l23.483.068,11.741.083c3.914.049,7.828.078,11.741.145-3.914.067-7.827.1-11.741.145l-11.741.083-23.483.068c-7.828-.025-15.655-.02-23.483-.069l-11.742-.083c-3.914-.049-7.828-.078-11.741-.144" transform="translate(-53.291 -77.306)" fill="#161615"/>
      <path id="Path_3" data-name="Path 3" d="M29.755,13.295l-9.8,20.522h9.37v3.99H13.9v-.5l9.9-20.451H14.043v-3.99H29.755Z" transform="translate(-9.783 -9.055)" fill="#161615"/>
      <rect id="Rectangle_1" data-name="Rectangle 1" width="4.098" height="17.813" transform="translate(23.784 10.938)" fill="#161615"/>
      <path id="Path_4" data-name="Path 4" d="M117.964,36.406a5.209,5.209,0,0,1,2.974-.926V40.4a5.675,5.675,0,0,0-1.354-.143,3.838,3.838,0,0,0-2.726,1.015,4.227,4.227,0,0,0-1.086,3.224V53.72h-4.1V35.907h4.1v2.849a7.032,7.032,0,0,1,2.191-2.35" transform="translate(-78.592 -24.969)" fill="#161615"/>
      <path id="Path_5" data-name="Path 5" d="M162.2,36.923l-7.7,17.885h-2.708l-7.767-17.885h4.454l4.667,12.006,4.667-12.006Z" transform="translate(-101.359 -25.985)" fill="#161615"/>
      <path id="Path_6" data-name="Path 6" d="M219.25,37.363a8.369,8.369,0,0,1,2.957,3.473A11.258,11.258,0,0,1,223.24,45.7q0,.392-.072,1.247h-12.9a4.47,4.47,0,0,0,1.835,2.636,5.748,5.748,0,0,0,3.3.926,10.023,10.023,0,0,0,2.921-.41,14.074,14.074,0,0,0,2.815-1.23v3.992a8.634,8.634,0,0,1-2.672,1.158,13.12,13.12,0,0,1-3.314.408A9.388,9.388,0,0,1,210.29,53.2a8.4,8.4,0,0,1-3.207-3.332,10.083,10.083,0,0,1-.017-9.209,8.525,8.525,0,0,1,7.7-4.578,7.9,7.9,0,0,1,4.489,1.282m-7.392,3.74a4.573,4.573,0,0,0-1.586,2.53h8.551a4.726,4.726,0,0,0-1.5-2.547,3.926,3.926,0,0,0-2.637-.944,4.379,4.379,0,0,0-2.832.961" transform="translate(-144.947 -25.392)" fill="#161615"/>
      <path id="Path_7" data-name="Path 7" d="M364.386,1.925a1.824,1.824,0,0,0-.5,1.354V9.868a1.071,1.071,0,0,0,1.071,1.071h2.635v1.388h-2.635a1.071,1.071,0,0,0-1.071,1.071V28.752h-1.425V12.328h-2.244V10.939h2.244V3.1a2.956,2.956,0,0,1,.89-2.263A3.009,3.009,0,0,1,365.491,0a3.462,3.462,0,0,1,2.1.712V2.244a10.151,10.151,0,0,0-.981-.606,2.192,2.192,0,0,0-1.015-.213,1.644,1.644,0,0,0-1.211.5" transform="translate(-253.507 -0.001)" fill="#161615"/>
      <rect id="Rectangle_2" data-name="Rectangle 2" width="1.425" height="17.813" transform="translate(117.791 10.938)" fill="#161615"/>
      <path id="Path_8" data-name="Path 8" d="M420.739,53.591a6.319,6.319,0,0,1-2.316-2.011l1.068-1a6.436,6.436,0,0,0,1.96,1.764,4.758,4.758,0,0,0,2.422.658,4.3,4.3,0,0,0,2.8-.907,2.942,2.942,0,0,0,1.122-2.405,3.1,3.1,0,0,0-.569-1.905,4.577,4.577,0,0,0-1.408-1.247,20.8,20.8,0,0,0-2.3-1.087,22.251,22.251,0,0,1-2.495-1.23,5.285,5.285,0,0,1-1.585-1.46,3.809,3.809,0,0,1-.659-2.3,4,4,0,0,1,1.408-3.154,5.189,5.189,0,0,1,3.545-1.228,5.888,5.888,0,0,1,2.868.729,8.12,8.12,0,0,1,2.263,1.8l-.926.961a5.61,5.61,0,0,0-4.24-2.1,3.755,3.755,0,0,0-2.53.855,2.666,2.666,0,0,0-1,2.1,2.614,2.614,0,0,0,.98,2.191,12.851,12.851,0,0,0,3.011,1.586,26.615,26.615,0,0,1,2.618,1.282,5.185,5.185,0,0,1,1.675,1.585,4.822,4.822,0,0,1-.784,5.968,5.5,5.5,0,0,1-3.866,1.354,6.4,6.4,0,0,1-3.063-.8" transform="translate(-294.469 -25.392)" fill="#161615"/>
      <path id="Path_9" data-name="Path 9" d="M393.274,18.221v2.2a.094.094,0,0,0,.047.081l1.906,1.1a.1.1,0,0,0,.094,0l1.905-1.1a.094.094,0,0,0,.047-.081v-2.2a.093.093,0,0,0-.047-.081l-1.905-1.1a.093.093,0,0,0-.094,0l-1.906,1.1a.093.093,0,0,0-.047.081" transform="translate(-276.77 -11.983)" fill="#161615"/>
      <path id="Path_10" data-name="Path 10" d="M78.43,12.7V15.61a.093.093,0,0,0,.047.081L81,17.148a.093.093,0,0,0,.094,0l2.522-1.456a.094.094,0,0,0,.047-.081V12.7a.094.094,0,0,0-.047-.081L81.093,11.16a.093.093,0,0,0-.094,0l-2.522,1.456a.093.093,0,0,0-.047.081" transform="translate(-55.196 -7.845)" fill="#161615"/>
      <path id="Path_11" data-name="Path 11" d="M183.45,24.509a12.9,12.9,0,0,1-1.626,6.4,12.146,12.146,0,0,1-4.537,4.68,13.557,13.557,0,0,1-13.326,0,12.149,12.149,0,0,1-4.538-4.68,13.394,13.394,0,0,1,0-12.791,11.882,11.882,0,0,1,2.09-2.769.3.3,0,0,1,.143-.125.64.64,0,0,1,.429-.161.721.721,0,0,1,.715.733.8.8,0,0,1-.214.518,11.76,11.76,0,0,0-1.911,13.88,11.61,11.61,0,0,0,15.827,4.2,11.151,11.151,0,0,0,4.055-4.2,11.747,11.747,0,0,0,0-11.361,10.976,10.976,0,0,0-4.055-4.18,11.1,11.1,0,0,0-5.877-1.572H112.371a.686.686,0,0,1-.7-.7.7.7,0,0,1,.7-.7h57.949a.065.065,0,0,1,.053.018,1.168,1.168,0,0,1,.25-.018,12.792,12.792,0,0,1,6.663,1.751,12.267,12.267,0,0,1,4.537,4.68,12.946,12.946,0,0,1,1.626,6.4" transform="translate(-78.592 -8.222)" fill="#161615"/>
      <text id="Büro_ve_Ofis_Mobilyaları" data-name="Büro ve Ofis Mobilyaları" transform="translate(4 46.903)" fill="#161615" font-size="12" font-family="Acre-Medium" font-weight="500"><tspan x="0" y="0">Bü</tspan><tspan y="0" letter-spacing="-0.019em">r</tspan><tspan y="0">o</tspan><tspan y="0" letter-spacing="-0.022em"> </tspan><tspan y="0" letter-spacing="-0.024em">v</tspan><tspan y="0">e Ofis </tspan><tspan y="0" letter-spacing="-0.007em">M</tspan><tspan y="0">obi</tspan><tspan y="0" letter-spacing="-0.014em">l</tspan><tspan y="0" letter-spacing="-0.024em">y</tspan><tspan y="0">aları</tspan></text>
    </g>
  </g>
</svg>
