<svg xmlns="http://www.w3.org/2000/svg" xmlns:xlink="http://www.w3.org/1999/xlink" width="290.345" height="63.475" viewBox="0 0 290.345 63.475">
  <defs>
    <filter id="Path_945" x="0" y="0" width="290.345" height="63.475" filterUnits="userSpaceOnUse">
      <feOffset dy="2" input="SourceAlpha"/>
      <feGaussianBlur stdDeviation="2" result="blur"/>
      <feFlood flood-color="#041230" flood-opacity="0.557"/>
      <feComposite operator="in" in2="blur"/>
      <feComposite in="SourceGraphic"/>
    </filter>
  </defs>
  <g id="Group_709" data-name="Group 709" transform="translate(-1464.548 -1952.7)">
    <g transform="matrix(1, 0, 0, 1, 1464.55, 1952.7)" filter="url(#Path_945)">
      <path id="Path_945-2" data-name="Path 945" d="M25.737,0h226.87a25.737,25.737,0,0,1,0,51.475H25.737A25.737,25.737,0,0,1,25.737,0Z" transform="translate(6 4)" fill="#2e384d"/>
    </g>
    <path id="Path_944" data-name="Path 944" d="M19.3-9.76a10.556,10.556,0,0,1-.715,3.942,9.055,9.055,0,0,1-2.011,3.092A9,9,0,0,1,13.459-.715,10.958,10.958,0,0,1,9.423,0H1.971V-19.521H9.423a10.867,10.867,0,0,1,4.036.722,9.13,9.13,0,0,1,3.119,2.011A8.983,8.983,0,0,1,18.59-13.7,10.556,10.556,0,0,1,19.3-9.76Zm-3.712,0a8.959,8.959,0,0,0-.432-2.882,6.107,6.107,0,0,0-1.229-2.16,5.3,5.3,0,0,0-1.937-1.357,6.665,6.665,0,0,0-2.572-.472H5.629V-2.889H9.423a6.665,6.665,0,0,0,2.572-.473,5.3,5.3,0,0,0,1.937-1.357,6.107,6.107,0,0,0,1.229-2.16A8.959,8.959,0,0,0,15.592-9.76Zm18.873-9.76v2.889H25.812v5.414H32.63v2.794H25.812V-2.9h8.653V0H22.154V-19.521Zm16.9,0v2.983H45.495V0H41.863V-16.538h-5.9v-2.983ZM68.85,0H66.042a1.227,1.227,0,0,1-.776-.236,1.343,1.343,0,0,1-.439-.587L63.369-4.806H55.283L53.825-.824a1.278,1.278,0,0,1-.425.567A1.2,1.2,0,0,1,52.623,0H49.8L57.47-19.521h3.712ZM56.214-7.371h6.223l-2.376-6.493Q59.9-14.3,59.7-14.884t-.385-1.276q-.189.688-.371,1.283t-.358,1.04Zm20.871-.216V0H73.453V-7.587L66.339-19.521h3.2a1.138,1.138,0,0,1,.749.229,1.934,1.934,0,0,1,.466.58l3.577,6.521q.311.581.54,1.1t.419,1.019q.175-.513.4-1.033t.533-1.087l3.55-6.521a1.8,1.8,0,0,1,.446-.553,1.115,1.115,0,0,1,.756-.257h3.213ZM89.708-3h7.816V0H86.076V-19.521h3.632Zm14.418,3H100.48V-19.521h3.645ZM119.8,0V-19.1h5.494a10.891,10.891,0,0,1,2.828.324,5.367,5.367,0,0,1,1.978.952,3.891,3.891,0,0,1,1.168,1.532,5.2,5.2,0,0,1,.385,2.052,4.119,4.119,0,0,1-.263,1.458,4.408,4.408,0,0,1-.763,1.3,4.908,4.908,0,0,1-1.222,1.033,5.868,5.868,0,0,1-1.654.668,6.219,6.219,0,0,1,3.47,1.5,4.043,4.043,0,0,1,1.215,3.065A5.329,5.329,0,0,1,132-3.037a4.425,4.425,0,0,1-1.255,1.647,5.733,5.733,0,0,1-2.025,1.033A9.557,9.557,0,0,1,126,0Zm1.377-9.153v8.046h4.793a5.76,5.76,0,0,0,3.807-1.087,3.789,3.789,0,0,0,1.283-3.058,3.734,3.734,0,0,0-.344-1.627,3.4,3.4,0,0,0-.992-1.228,4.618,4.618,0,0,0-1.593-.776,7.821,7.821,0,0,0-2.146-.27Zm0-1.013h4.145a6.706,6.706,0,0,0,2.261-.337,4.474,4.474,0,0,0,1.539-.891,3.461,3.461,0,0,0,.884-1.255,3.824,3.824,0,0,0,.283-1.445,3.544,3.544,0,0,0-1.222-2.923,5.929,5.929,0,0,0-3.773-.992h-4.118ZM137.106,0V-19.44h1.836V0Zm.081-23.544h1.755v2.754h-1.755Zm8.8,22.369h9.058V0H144.612V-19.1h1.377Zm19.562.27a14.553,14.553,0,0,0,1.8-.1,9.675,9.675,0,0,0,1.505-.3,9.432,9.432,0,0,0,1.323-.493q.628-.29,1.262-.655V-7.6h-3.672a.352.352,0,0,1-.25-.094.288.288,0,0,1-.1-.216v-.756h5.278v6.79a12.471,12.471,0,0,1-1.485.891,9.892,9.892,0,0,1-1.647.655,12.709,12.709,0,0,1-1.89.4,16.022,16.022,0,0,1-2.214.142,9.918,9.918,0,0,1-3.773-.7,8.372,8.372,0,0,1-2.93-1.971,8.889,8.889,0,0,1-1.9-3.085,11.433,11.433,0,0,1-.675-4.023,11.377,11.377,0,0,1,.675-4.016,8.746,8.746,0,0,1,1.917-3.078,8.446,8.446,0,0,1,3.017-1.971,10.824,10.824,0,0,1,3.976-.7,12.76,12.76,0,0,1,2.018.149,9.349,9.349,0,0,1,1.721.439,8.083,8.083,0,0,1,1.485.716,10.03,10.03,0,0,1,1.323.979l-.365.594a.376.376,0,0,1-.338.2.506.506,0,0,1-.229-.054,2.84,2.84,0,0,1-.587-.378,6.308,6.308,0,0,0-1.04-.621,8.662,8.662,0,0,0-1.64-.58,9.61,9.61,0,0,0-2.389-.257,9.055,9.055,0,0,0-3.362.594,7.125,7.125,0,0,0-2.558,1.7,7.539,7.539,0,0,0-1.633,2.7,10.505,10.505,0,0,0-.574,3.578,10.638,10.638,0,0,0,.58,3.631,7.772,7.772,0,0,0,1.627,2.72A7.015,7.015,0,0,0,162.317-1.5,8.527,8.527,0,0,0,165.551-.9Zm12,.9V-19.44h1.836V0Zm.081-23.544h1.755v2.754h-1.755Z" transform="translate(1501.894 1993.475)" fill="#eee"/>
    <path id="Path_943" data-name="Path 943" d="M7.255,3.219a2,2,0,0,1,3.512,0l5.641,10.343a2,2,0,0,1-1.756,2.958H3.369a2,2,0,0,1-1.756-2.958Z" transform="translate(1691.891 1979.304) rotate(-51)" fill="#eee"/>
    <path id="Path_942" data-name="Path 942" d="M0,0,10.675,7.693" transform="translate(1707.718 1980.282)" fill="none" stroke="#eee" stroke-linecap="round" stroke-width="4"/>
  </g>
</svg>
