<?xml version="1.0" encoding="utf-8"?>
<!-- Generator: Adobe Illustrator 25.3.1, SVG Export Plug-In . SVG Version: 6.00 Build 0)  -->
<svg version="1.1" id="katman_1" xmlns="http://www.w3.org/2000/svg" xmlns:xlink="http://www.w3.org/1999/xlink" x="0px" y="0px"
	 viewBox="0 0 200 50" style="enable-background:new 0 0 200 50;" xml:space="preserve">
<style type="text/css">
	.st0{fill:#EA5B0C;}
	.st1{fill:#FFFFFD;}
	.st2{fill:#E95C0C;}
</style>
<circle class="st0" cx="36.1" cy="24.8" r="24.8"/>
<g>
	<path class="st1" d="M32.6,5.9l-6.9,33.3l-6.9-1.4l4.9-23.4l-4.1,1.2l-1.3-6.5l11.7-3.8L32.6,5.9z"/>
	<path class="st1" d="M49.6,22.8c1.5,1.4,2.6,3,3.2,4.9c0.6,1.9,0.7,3.9,0.3,6c-0.4,2.1-1.3,3.9-2.6,5.4c-1.3,1.5-2.9,2.6-4.9,3.3
		c-2,0.7-4.1,0.7-6.4,0.3c-2.2-0.5-4.1-1.4-5.6-2.7s-2.6-3-3.2-5c-0.6-1.9-0.7-4-0.2-6.1l0,0c0.4-1.7,1.1-3.4,2.1-4.9
		c1-1.5,2.3-3.3,3.9-5.3c0.2-0.2,0.4-0.4,0.6-0.7l3.2-4l4-5.1l7.5,1.6l-8,9.7l0.4,0.1C46.2,20.5,48.1,21.5,49.6,22.8z M44.2,35.1
		c1.1-0.7,1.8-1.7,2-3.1c0.3-1.3,0.1-2.5-0.6-3.6c-0.7-1.1-1.7-1.8-3.1-2.1c-1.3-0.3-2.6-0.1-3.6,0.7c-1.1,0.7-1.7,1.7-2,3.1
		c-0.3,1.3-0.1,2.5,0.6,3.6c0.7,1.1,1.7,1.8,3.1,2.1C41.9,36,43.2,35.8,44.2,35.1z"/>
</g>
<g>
	<path class="st2" d="M73.3,4.4l4,12.2l4-12.2h4.2l-5.7,16.3h-5.1L69.1,4.4H73.3z"/>
	<path class="st2" d="M86.3,2.7c0.4-0.4,1-0.6,1.7-0.6c0.7,0,1.3,0.2,1.7,0.6c0.4,0.4,0.6,0.9,0.6,1.5c0,0.6-0.2,1.1-0.6,1.5
		c-0.4,0.4-1,0.6-1.7,0.6c-0.7,0-1.3-0.2-1.7-0.6s-0.6-0.9-0.6-1.5C85.6,3.6,85.8,3.1,86.3,2.7z M89.9,7.8v12.8H86V7.8H89.9z"/>
	<path class="st2" d="M95.1,17.3h5.9v3.3H90.8v-3.1l5.5-6.5h-5.4V7.8h9.9v3.1L95.1,17.3z"/>
	<path class="st2" d="M104.9,7.8l3.1,7.9l2.9-7.9h4.3l-8,19h-4.3l3-6.6l-5.4-12.4H104.9z"/>
	<path class="st2" d="M125,8.4c1,0.5,1.8,1.3,2.4,2.3c0.6,1,0.9,2.2,0.9,3.5s-0.3,2.5-0.9,3.5c-0.6,1-1.4,1.8-2.4,2.3
		c-1,0.5-2.1,0.8-3.4,0.8s-2.4-0.3-3.4-0.8c-1-0.5-1.8-1.3-2.4-2.3s-0.9-2.2-0.9-3.5s0.3-2.5,0.9-3.5c0.6-1,1.4-1.8,2.4-2.3
		c1-0.5,2.2-0.8,3.4-0.8S124,7.9,125,8.4z M119.7,11.9c-0.5,0.5-0.8,1.3-0.8,2.4s0.3,1.8,0.8,2.3s1.1,0.8,1.9,0.8s1.4-0.3,1.9-0.8
		s0.8-1.3,0.8-2.3s-0.3-1.8-0.8-2.4c-0.5-0.5-1.1-0.8-1.9-0.8S120.2,11.3,119.7,11.9z"/>
	<path class="st2" d="M141,9.1c0.9,1,1.3,2.3,1.3,4v7.5h-3.9v-7c0-0.9-0.2-1.5-0.7-2c-0.5-0.5-1.1-0.7-1.8-0.7
		c-0.8,0-1.4,0.3-1.9,0.8c-0.5,0.5-0.7,1.2-0.7,2.2v6.8h-3.9V7.8h3.9v2.3c0.4-0.8,0.9-1.4,1.6-1.8c0.7-0.4,1.6-0.7,2.6-0.7
		C138.9,7.7,140.1,8.2,141,9.1z"/>
	<path class="st2" d="M90.8,26.3c0.9,0.5,1.5,1.2,2,2c0.5,0.8,0.7,1.7,0.7,2.7c0,1-0.2,1.9-0.7,2.7s-1.1,1.5-1.9,1.9
		c-0.9,0.5-1.9,0.7-3,0.7h-1.6v5.2h-3.4V25.5h5C88.9,25.5,89.9,25.8,90.8,26.3z M89.3,32.6c0.4-0.4,0.6-0.9,0.6-1.6
		c0-0.6-0.2-1.1-0.7-1.6c-0.4-0.4-1-0.6-1.7-0.6h-1.4v4.3h1.4C88.3,33.2,88.9,33,89.3,32.6z"/>
	<path class="st2" d="M98.9,30.4c0.5-0.4,1.1-0.5,1.8-0.5v3.8c-0.3-0.1-0.6-0.1-0.9-0.1c-0.7,0-1.2,0.2-1.6,0.6
		c-0.4,0.4-0.6,1-0.6,1.9v5.6h-3.3V30.1h3.3v1.7C97.9,31.3,98.4,30.8,98.9,30.4z"/>
	<path class="st2" d="M103.4,41.1c-0.9-0.5-1.6-1.3-2.1-2.2s-0.8-1.9-0.8-3s0.3-2.1,0.8-3s1.2-1.6,2.1-2.2c0.9-0.5,1.9-0.8,3.1-0.8
		c1.2,0,2.2,0.3,3.1,0.8c0.9,0.5,1.6,1.3,2.1,2.2s0.8,1.9,0.8,3s-0.3,2.1-0.8,3s-1.2,1.6-2.1,2.2c-0.9,0.5-1.9,0.8-3.1,0.8
		S104.3,41.6,103.4,41.1z M108.3,37.8c0.5-0.5,0.7-1.2,0.7-1.9c0-0.7-0.2-1.4-0.7-1.9c-0.5-0.5-1.1-0.8-1.9-0.8
		c-0.7,0-1.3,0.3-1.8,0.8s-0.7,1.1-0.7,1.9c0,0.7,0.2,1.4,0.7,1.9c0.5,0.5,1.1,0.8,1.8,0.8C107.2,38.6,107.9,38.3,108.3,37.8z"/>
	<path class="st2" d="M114.3,27.8c-0.4-0.4-0.6-0.9-0.6-1.5c0-0.6,0.2-1.1,0.6-1.5c0.4-0.4,0.9-0.6,1.5-0.6c0.6,0,1.1,0.2,1.5,0.6
		c0.4,0.4,0.6,0.9,0.6,1.5c0,0.6-0.2,1.1-0.6,1.5s-0.9,0.6-1.5,0.6C115.2,28.4,114.7,28.2,114.3,27.8z M114.1,30.1h3.3v16.1h-3.3
		V30.1z"/>
	<path class="st2" d="M127.8,30.8c0.8,0.6,1.5,1.3,1.9,2.2s0.7,2,0.7,3.1c0,0.4,0,0.6,0,0.8h-7.9c0.2,0.6,0.6,1.1,1.1,1.4
		s1.1,0.5,1.9,0.5c1.2,0,2.4-0.3,3.6-0.9l0,3c-1.1,0.6-2.4,0.9-3.9,0.9c-1.2,0-2.3-0.3-3.2-0.8s-1.6-1.2-2.1-2.2s-0.7-1.9-0.7-3
		c0-1.1,0.2-2.1,0.7-3c0.5-0.9,1.1-1.6,2-2.2c0.9-0.5,1.9-0.8,3-0.8C126,30,127,30.2,127.8,30.8z M123.4,33.5
		c-0.4,0.3-0.7,0.8-0.9,1.4h4.7c-0.2-0.6-0.5-1-0.9-1.4c-0.4-0.3-0.9-0.5-1.4-0.5C124.3,33,123.8,33.2,123.4,33.5z"/>
</g>
</svg>
