<?xml version="1.0" encoding="UTF-8" standalone="no"?><!DOCTYPE svg PUBLIC "-//W3C//DTD SVG 1.1//EN" "http://www.w3.org/Graphics/SVG/1.1/DTD/svg11.dtd"><svg width="100%" height="100%" viewBox="0 0 1003 251" version="1.1" xmlns="http://www.w3.org/2000/svg" xmlns:xlink="http://www.w3.org/1999/xlink" xml:space="preserve" xmlns:serif="http://www.serif.com/" style="fill-rule:evenodd;clip-rule:evenodd;stroke-linejoin:round;stroke-miterlimit:2;"><rect id="Artboard1" x="0" y="0" width="1002.75" height="250.426" style="fill:none;"/><g><path d="M226.901,20.651c0.559,-0.022 1.342,-0.053 2.348,-0.093c0.935,0.97 1.257,2.022 0.966,3.153c-0.269,1.691 -0.754,3.558 -1.457,5.602c-0.51,1.253 -0.936,2.502 -1.279,3.747c-0.342,1.246 -0.768,2.495 -1.278,3.748c-0.399,1.247 -0.825,2.497 -1.279,3.747c-0.454,1.25 -0.878,2.555 -1.272,3.914c-0.506,1.365 -0.984,2.728 -1.433,4.09c-0.45,1.362 -0.872,2.723 -1.266,4.082l-3,9.024c-0.296,1.02 -0.642,2.154 -1.041,3.402c-0.702,2.044 -1.295,4.028 -1.779,5.951l-3.578,11.399c-0.389,1.471 -0.806,2.944 -1.252,4.418c-0.445,1.474 -0.918,2.949 -1.419,4.425c-0.291,1.131 -0.609,2.292 -0.954,3.482c-0.344,1.189 -0.718,2.352 -1.121,3.488c-0.201,0.569 -0.297,0.964 -0.288,1.188c0.219,-0.121 0.329,-0.181 0.329,-0.181c1.767,-3.431 3.646,-6.866 5.637,-10.305c0.832,-1.601 1.694,-3.176 2.584,-4.723c0.89,-1.548 1.754,-3.066 2.591,-4.556c2.416,-4.016 4.99,-8.263 7.724,-12.74c0.734,-1.261 1.498,-2.468 2.292,-3.619c0.794,-1.152 1.614,-2.361 2.46,-3.626c2.434,-3.57 4.867,-7.139 7.301,-10.708c0.631,-1.033 1.32,-2.012 2.067,-2.938c0.747,-0.926 1.436,-1.906 2.067,-2.939c0.743,-1.037 1.486,-2.075 2.228,-3.113c0.743,-1.037 1.488,-2.019 2.235,-2.945c0.64,-0.809 1.254,-1.562 1.842,-2.257c0.588,-0.696 1.147,-1.446 1.674,-2.251c0.533,-0.693 1.121,-1.389 1.765,-2.086c0.645,-0.698 1.291,-1.34 1.94,-1.926c1.073,-1.163 2.216,-1.992 3.429,-2.488c0.68,0.196 1.312,0.619 1.898,1.268c0.819,0.863 1.36,1.794 1.624,2.791c0.013,0.336 0.14,0.723 0.382,1.161c0.013,0.336 0.029,0.727 0.047,1.174c-0.435,3.154 -1.202,6.376 -2.303,9.668c-0.609,1.593 -1.16,3.211 -1.655,4.855c-0.494,1.643 -0.99,3.259 -1.487,4.847c-0.501,1.476 -1.003,2.924 -1.507,4.344c-0.503,1.42 -1.008,2.812 -1.513,4.177l-1.632,5.441l-2.987,9.359l-1.201,3.576c-0.296,1.02 -0.591,2.04 -0.886,3.06c-0.296,1.019 -0.647,2.041 -1.054,3.066c-0,-0 0.06,0.109 0.181,0.328c0.215,-0.232 0.373,-0.462 0.476,-0.691c0.103,-0.228 0.264,-0.402 0.483,-0.523l4.457,-6.226l2.55,-3.461l3.194,-4.16l2.557,-3.294l2.094,-2.267c0.644,-0.698 1.23,-1.449 1.758,-2.254c2.997,-3.48 6.027,-6.849 9.089,-10.107c3.063,-3.258 6.151,-6.573 9.265,-9.945c1.61,-1.745 3.118,-3.261 4.522,-4.549l2.584,-2.623l3.241,-2.985c0.434,-0.353 0.84,-0.706 1.218,-1.057c0.378,-0.351 0.726,-0.757 1.044,-1.217c1.082,-0.94 2.166,-1.851 3.251,-2.734c1.085,-0.883 2.227,-1.741 3.425,-2.573c0.546,-0.357 1.204,-0.72 1.973,-1.086c0.881,-0.371 1.617,-0.177 2.208,0.584c0.702,0.756 1.075,1.693 1.12,2.811c0.058,1.454 -0.157,3.087 -0.645,4.898c-0.676,2.715 -1.475,5.155 -2.397,7.32l-3.054,7.682l-2.604,6.32l-1.826,4.777l-1.658,4.77c-0.411,0.912 -0.794,1.852 -1.147,2.818c-0.354,0.966 -0.734,1.961 -1.141,2.985l-2.269,6.307c-0.613,1.481 -1.17,2.959 -1.672,4.435c-0.501,1.476 -1.002,2.952 -1.503,4.428c-0.609,1.592 -1.161,3.182 -1.658,4.77c-0.497,1.588 -1.05,3.178 -1.658,4.77l-3.605,10.728c-0.394,1.36 -0.815,2.721 -1.265,4.083c-0.45,1.362 -0.928,2.725 -1.433,4.089c-1.392,4.424 -2.829,9.129 -4.31,14.116l-2.504,8.837c-0.286,1.243 -0.601,2.488 -0.943,3.733c-0.343,1.246 -0.601,2.488 -0.776,3.727c0.009,0.224 0.018,0.448 0.027,0.671c0.009,0.224 -0.038,0.45 -0.141,0.678c0,-0 0.011,0.279 0.033,0.839c-0.339,-0.099 -0.565,-0.146 -0.677,-0.141c-0.005,-0.112 -0.064,-0.194 -0.178,-0.245c-0.114,-0.052 -0.227,-0.075 -0.339,-0.071c-0.568,-0.201 -1.053,-0.434 -1.456,-0.698c-0.402,-0.264 -0.834,-0.555 -1.294,-0.872c-0,-0 -0.117,-0.108 -0.349,-0.322c-0.362,-0.658 -0.508,-1.492 -0.436,-2.503l1.088,-6.428c0.192,-0.791 0.385,-1.583 0.577,-2.375c0.193,-0.792 0.387,-1.527 0.584,-2.207c0.685,-2.492 1.344,-4.926 1.977,-7.303c0.634,-2.378 1.295,-4.756 1.984,-7.136c0.591,-2.039 1.21,-4.08 1.856,-6.122c0.647,-2.042 1.266,-4.082 1.856,-6.122c1.191,-3.855 2.437,-7.713 3.739,-11.573l3.598,-10.896c0.3,-0.908 0.627,-1.845 0.98,-2.811c0.354,-0.966 0.678,-1.959 0.974,-2.979c0.304,-0.796 0.608,-1.592 0.913,-2.389c0.304,-0.796 0.606,-1.648 0.906,-2.556c0.608,-1.592 1.273,-3.187 1.993,-4.783c0.721,-1.597 1.441,-3.194 2.161,-4.791c0.613,-1.48 1.282,-2.963 2.007,-4.448c0.725,-1.485 1.394,-2.967 2.007,-4.448l3.255,-6.85c0.618,-1.368 1.236,-2.709 1.856,-4.022c0.62,-1.313 1.241,-2.597 1.862,-3.854c0.403,-1.136 0.835,-2.246 1.296,-3.328c0.461,-1.082 0.949,-2.194 1.463,-3.334c0,-0 0.049,-0.17 0.148,-0.51c-0.121,-0.219 -0.345,-0.211 -0.671,0.026c-0.546,0.358 -1.063,0.743 -1.55,1.154c-0.488,0.412 -1.002,0.852 -1.544,1.322c-0.653,0.474 -1.277,0.975 -1.872,1.502c-0.595,0.528 -1.217,1.085 -1.865,1.671c-0.756,0.702 -1.566,1.462 -2.43,2.281c-0.644,0.697 -1.261,1.366 -1.852,2.006c-0.59,0.639 -1.266,1.254 -2.026,1.844c-0.864,0.819 -1.67,1.663 -2.419,2.533c-0.75,0.87 -1.556,1.714 -2.42,2.532c-2.049,1.986 -3.985,3.995 -5.808,6.028c-1.823,2.033 -3.701,4.096 -5.633,6.189c-0.859,0.93 -1.69,1.859 -2.493,2.787c-0.803,0.928 -1.578,1.855 -2.326,2.781c-0.536,0.581 -1.046,1.134 -1.53,1.657c-0.483,0.523 -0.937,1.073 -1.362,1.65c-0.425,0.577 -0.851,1.126 -1.278,1.647c-0.427,0.521 -0.91,1.073 -1.446,1.654c-0.211,0.344 -0.449,0.69 -0.715,1.036c-0.266,0.347 -0.56,0.695 -0.883,1.044l-5.093,7.091c-0.743,1.038 -1.486,2.075 -2.228,3.113l-3,4.823l-5.074,7.595c-0.42,0.689 -1.116,1.5 -2.087,2.435c-0.796,-0.304 -1.51,-0.668 -2.143,-1.09c-0.633,-0.423 -1.296,-0.901 -1.989,-1.433c-0.349,-0.322 -0.477,-0.709 -0.383,-1.161c-0.013,-0.336 0,-0.7 0.041,-1.094c0.04,-0.393 0.107,-0.816 0.201,-1.268c0.385,-1.583 0.741,-3.193 1.068,-4.83c0.327,-1.638 0.682,-3.248 1.067,-4.831c0.493,-1.7 0.987,-3.344 1.484,-4.931c0.286,-1.244 0.657,-2.491 1.111,-3.741l2.708,-7.92c0.448,-1.418 0.922,-2.865 1.423,-4.341c0.605,-1.704 1.21,-3.38 1.816,-5.028c0.606,-1.649 1.214,-3.269 1.822,-4.861c0.506,-1.364 0.985,-2.7 1.437,-4.006c0.452,-1.306 0.875,-2.639 1.269,-3.998c0.711,-1.821 1.465,-3.979 2.262,-6.475c0.103,-0.228 0.202,-0.54 0.298,-0.936c0.097,-0.395 0.192,-0.819 0.286,-1.271c-0.322,0.349 -0.483,0.523 -0.483,0.523c-0.542,0.47 -1.054,0.966 -1.537,1.49c-0.483,0.523 -0.937,1.073 -1.362,1.65c-0.425,0.577 -0.852,1.126 -1.279,1.647c-0.427,0.521 -0.855,1.014 -1.285,1.479c-0.318,0.461 -0.609,0.864 -0.876,1.211c-0.266,0.347 -0.56,0.694 -0.882,1.043l-3.194,4.16c-0.636,0.921 -1.244,1.813 -1.826,2.677c-0.582,0.863 -1.192,1.699 -1.832,2.509c-0.953,1.382 -1.907,2.736 -2.862,4.062c-0.955,1.326 -1.854,2.678 -2.695,4.055c-0.953,1.382 -1.877,2.791 -2.771,4.227c-0.895,1.436 -1.819,2.844 -2.772,4.227c-0.846,1.265 -1.662,2.558 -2.45,3.877c-0.787,1.32 -1.601,2.668 -2.443,4.046l-7.382,12.894c-1.669,3.091 -3.235,5.953 -4.698,8.588c-0.515,1.14 -1.058,2.254 -1.631,3.341l-4.758,9.178l-3.252,6.934c-1.032,2.225 -2.008,4.42 -2.93,6.585c-0.617,1.368 -1.207,2.736 -1.768,4.102c-0.562,1.367 -1.096,2.732 -1.601,4.096c-0.202,0.568 -0.468,0.915 -0.799,1.04c-0.796,-0.304 -1.591,-0.581 -2.385,-0.829c-0.794,-0.248 -1.488,-0.809 -2.083,-1.681c0.103,-0.228 0.178,-0.455 0.225,-0.681c0.047,-0.226 0.122,-0.453 0.225,-0.681c0.698,-2.156 1.366,-4.367 2.004,-6.632c0.637,-2.265 1.303,-4.532 1.997,-6.8c0.989,-3.287 1.951,-6.546 2.886,-9.775c0.936,-3.23 1.896,-6.544 2.88,-9.943c0.488,-1.812 1.004,-3.624 1.547,-5.438c0.544,-1.814 1.116,-3.629 1.716,-5.445c1.092,-3.515 2.081,-6.803 2.967,-9.862c0.707,-1.932 1.357,-3.89 1.95,-5.874c0.593,-1.984 1.243,-3.942 1.95,-5.874c0.59,-2.04 1.238,-4.054 1.943,-6.042c0.705,-1.988 1.409,-4.004 2.111,-6.048c0.394,-1.36 0.817,-2.693 1.269,-3.999c0.452,-1.306 0.933,-2.585 1.443,-3.837c0.398,-1.248 0.852,-2.498 1.363,-3.751c0.51,-1.252 0.964,-2.502 1.362,-3.75c0.613,-1.481 1.173,-2.903 1.678,-4.267c0.506,-1.364 1.009,-2.785 1.51,-4.261l1.82,-4.944c0.411,-0.913 0.55,-1.646 0.416,-2.201Z" style="fill-rule:nonzero;"/><path d="M414.723,54.16c1.257,0.622 2.032,1.823 2.327,3.603c0,0 -0.051,0.115 -0.154,0.343c-0.228,-0.103 -0.342,-0.155 -0.342,-0.155c-1.024,-0.407 -2.431,-0.575 -4.22,-0.504c-0.229,-0.102 -0.454,-0.149 -0.678,-0.141c-0.224,0.009 -0.503,0.02 -0.839,0.034c-0.563,-0.09 -0.901,-0.132 -1.013,-0.128l-2.684,0.107c-0.894,0.036 -1.512,0.004 -1.852,-0.094c-0.111,0.004 -0.447,0.018 -1.006,0.04c-1.905,-0.036 -3.865,-0.014 -5.878,0.066c-2.012,0.08 -4.025,0.161 -6.038,0.241c-0,-0 -0.278,0.067 -0.832,0.201c-0.215,0.233 -0.421,0.689 -0.618,1.369l-1.792,5.615l-2.531,8.165l-0.604,1.705c-0.488,1.811 -1.003,3.624 -1.547,5.437c-0.544,1.814 -1.116,3.629 -1.715,5.445c-0.305,0.796 -0.581,1.591 -0.829,2.385c-0.249,0.794 -0.469,1.587 -0.662,2.379c-1.472,5.21 -2.975,10.366 -4.507,15.468c-1.533,5.101 -3.038,10.201 -4.515,15.3l-2.927,10.869c-0.295,1.02 -0.536,2.01 -0.722,2.969c-0.185,0.959 -0.372,1.891 -0.56,2.794c-0.103,0.229 -0.15,0.454 -0.141,0.678c0.009,0.224 -0.041,0.394 -0.148,0.51c-0.219,0.121 -0.329,0.181 -0.329,0.181c-0.456,-0.206 -0.913,-0.44 -1.372,-0.701c-0.458,-0.262 -0.92,-0.608 -1.385,-1.037c-0.237,-0.327 -0.467,-0.486 -0.691,-0.477c-0.684,-0.308 -1.044,-0.91 -1.08,-1.805c-0.013,-0.335 -0.02,-0.503 -0.02,-0.503c0.063,-1.234 0.209,-2.472 0.44,-3.714c0.231,-1.241 0.491,-2.427 0.782,-3.559c0.39,-1.471 0.725,-2.885 1.007,-4.24c0.282,-1.355 0.62,-2.713 1.014,-4.073c0.085,-0.675 0.228,-1.297 0.43,-1.865c0.201,-0.568 0.4,-1.192 0.597,-1.872c0.389,-1.471 0.777,-2.999 1.162,-4.582c0.384,-1.584 0.769,-3.167 1.154,-4.75c0.69,-2.38 1.424,-5.041 2.202,-7.984l6.498,-22.436l2.538,-7.997l2.423,-6.649c0.099,-0.34 0.251,-0.738 0.456,-1.194c0.206,-0.457 0.356,-0.911 0.45,-1.362c-0.228,-0.103 -0.342,-0.155 -0.342,-0.155c-1.123,-0.067 -2.27,-0.049 -3.442,0.053c-1.172,0.103 -2.319,0.121 -3.442,0.054c-0.546,0.357 -1.138,0.941 -1.778,1.75c-0.425,0.577 -0.823,1.125 -1.195,1.644c-0.371,0.519 -0.772,1.011 -1.201,1.476c-0.318,0.461 -0.608,0.892 -0.872,1.295c-0.264,0.402 -0.557,0.778 -0.88,1.127l-3.979,5.535c-0.747,0.925 -1.44,1.821 -2.077,2.687c-0.638,0.865 -1.274,1.758 -1.909,2.68c-0.846,1.265 -1.693,2.503 -2.541,3.713c-0.847,1.21 -1.75,2.45 -2.707,3.72c-0.743,1.038 -1.486,2.075 -2.228,3.113c-0.743,1.038 -1.484,2.131 -2.222,3.281l-4.771,6.742c-0.108,0.116 -0.186,0.259 -0.235,0.429c-0.049,0.17 -0.181,0.372 -0.396,0.604c0.246,0.55 0.427,0.879 0.543,0.987c0.13,0.442 0.342,0.854 0.637,1.234c0.296,0.38 0.508,0.792 0.638,1.235c0.491,1.1 0.82,2.319 0.985,3.657c0.116,2.907 -0.49,5.955 -1.819,9.145c-0.707,1.932 -1.591,3.647 -2.651,5.145c-0.524,0.917 -1.135,1.754 -1.832,2.509c-0.698,0.756 -1.483,1.432 -2.356,2.026c-0.657,0.363 -1.425,0.785 -2.301,1.268c-0.439,0.242 -0.938,0.373 -1.497,0.396c-0.559,0.022 -1.062,0.042 -1.509,0.06c-0.224,0.009 -0.394,-0.04 -0.51,-0.148c-0.796,-0.304 -1.539,-0.667 -2.228,-1.087c-0.688,-0.421 -1.27,-0.958 -1.744,-1.611c-0.939,-1.082 -1.324,-2.299 -1.153,-3.65c0.179,-1.127 0.626,-2.545 1.342,-4.253c0.398,-1.248 0.856,-2.415 1.373,-3.499c0.517,-1.085 1.09,-2.144 1.721,-3.177c0.519,-1.029 1.066,-2.059 1.641,-3.089c0.575,-1.031 1.178,-2.063 1.809,-3.097l2.523,-4.132c0.108,-0.117 0.186,-0.26 0.235,-0.43c0.049,-0.17 0.184,-0.315 0.403,-0.436c-0.456,-0.206 -0.684,-0.309 -0.684,-0.309c-1.137,-0.402 -2.156,-0.698 -3.06,-0.886c-1.36,-0.393 -2.728,-1.011 -4.106,-1.852l-1.892,-1.101c-0.429,0.465 -0.859,0.931 -1.288,1.396c-0.43,0.465 -0.803,0.928 -1.121,1.388c-0.434,0.354 -0.81,0.761 -1.127,1.221c-0.318,0.461 -0.636,0.922 -0.953,1.382c-0.537,0.582 -1.018,1.161 -1.443,1.738c-0.425,0.577 -0.848,1.21 -1.268,1.898l-3.832,5.025l-2.705,3.804l-2.577,2.791c-0.541,0.47 -1.145,0.774 -1.811,0.912l-0.685,-0.308c-0.116,-0.108 -0.232,-0.215 -0.349,-0.323c-0.116,-0.107 -0.288,-0.212 -0.516,-0.315c-0.456,-0.206 -0.887,-0.469 -1.292,-0.789c-0.404,-0.319 -0.781,-0.64 -1.13,-0.963l-1.396,-1.288c-0.156,-1.114 -0.138,-2.067 0.055,-2.858c0.17,-1.351 0.399,-2.62 0.688,-3.808c0.289,-1.187 0.632,-2.405 1.03,-3.653l0.289,-1.188c-0.228,-0.102 -0.394,-0.04 -0.496,0.188c-0.528,0.805 -1.084,1.611 -1.668,2.419c-0.584,0.807 -1.198,1.56 -1.842,2.257c-1.172,1.503 -2.302,2.668 -3.389,3.495c-0.322,0.349 -0.705,0.588 -1.148,0.718c-0.55,0.246 -1.111,0.212 -1.684,-0.101c-1.373,-0.729 -2.638,-1.575 -3.797,-2.537c-1.037,-0.742 -1.42,-1.903 -1.147,-3.482c0.153,-1.798 0.418,-3.573 0.796,-5.324c0.378,-1.751 0.814,-3.476 1.306,-5.176c0.492,-1.7 1.013,-3.401 1.561,-5.102c0.548,-1.702 1.124,-3.405 1.728,-5.109c0.099,-0.34 0.226,-0.654 0.383,-0.94c0.156,-0.286 0.284,-0.599 0.382,-0.939c0.206,-0.456 0.584,-0.807 1.134,-1.053c0.34,0.098 0.655,0.254 0.943,0.466c0.289,0.213 0.551,0.482 0.788,0.809c0.117,0.107 0.234,0.242 0.353,0.406c0.118,0.163 0.235,0.298 0.352,0.406c0.465,0.429 0.601,1.04 0.409,1.832l-3.088,11.043c-0.399,1.248 -0.741,2.494 -1.027,3.737c-0.287,1.243 -0.573,2.487 -0.86,3.73c0,0 0.011,0.28 0.034,0.839c0.331,-0.125 0.496,-0.188 0.496,-0.188c0.649,-0.586 1.268,-1.198 1.859,-1.838c0.59,-0.639 1.096,-1.304 1.517,-1.992c0.21,-0.345 0.476,-0.691 0.798,-1.04c0.322,-0.349 0.588,-0.696 0.799,-1.04c0.859,-0.93 1.632,-1.913 2.318,-2.949c0.687,-1.035 1.402,-2.071 2.145,-3.109c1.167,-1.615 2.25,-3.254 3.248,-4.918c0.997,-1.664 1.968,-3.298 2.912,-4.904c0.528,-0.805 1.056,-1.61 1.584,-2.415c0.21,-0.345 0.481,-0.579 0.812,-0.705c0.327,-0.237 0.606,-0.248 0.839,-0.033c0.577,0.425 0.984,0.801 1.221,1.127l1.402,1.457c0.698,0.644 0.899,1.476 0.603,2.496c-0.205,0.456 -0.384,0.883 -0.537,1.281c-0.152,0.398 -0.275,0.823 -0.369,1.275c-0.505,1.364 -1.009,2.784 -1.51,4.26c-0.501,1.476 -1.061,2.899 -1.678,4.267c-0.497,1.588 -1.047,3.234 -1.651,4.938c-0.188,0.904 -0.433,1.782 -0.735,2.634c-0.303,0.852 -0.603,1.732 -0.903,2.64c0.004,0.111 -0.041,0.393 -0.135,0.845l0.175,0.161c0.215,-0.232 0.322,-0.349 0.322,-0.349l5.436,-6.937c0.639,-0.809 1.278,-1.647 1.916,-2.512c0.637,-0.865 1.332,-1.705 2.083,-2.519c0.103,-0.228 0.236,-0.402 0.4,-0.52c0.163,-0.119 0.296,-0.292 0.399,-0.52l1.449,-1.57l-0.06,-1.509c-0.049,-1.231 0.238,-2.474 0.86,-3.731c1.047,-1.834 2.487,-3.627 4.321,-5.38c2.264,-2.219 4.49,-3.987 6.677,-5.306c0.658,-0.363 1.32,-0.613 1.986,-0.752c0.671,-0.026 1.239,0.175 1.704,0.604l0.343,0.155c0.353,0.434 0.734,0.867 1.143,1.298c0.41,0.432 0.735,0.867 0.976,1.305c0.117,0.108 0.235,0.271 0.356,0.49c0.004,0.112 0.127,0.387 0.369,0.826c-0.43,0.465 -0.644,0.697 -0.644,0.697c-0.533,0.694 -1.094,1.36 -1.685,2c-0.59,0.639 -1.21,1.252 -1.859,1.838c-1.19,1.055 -2.267,2.134 -3.231,3.237c-0.964,1.102 -1.983,2.235 -3.056,3.397l-2.087,2.436c0.344,0.21 0.516,0.315 0.516,0.315c0.568,0.201 1.136,0.403 1.704,0.604c0.568,0.202 1.134,0.347 1.698,0.437c1.816,0.599 3.412,1.32 4.79,2.161c0,-0 0.226,0.047 0.678,0.141c0.322,-0.349 0.539,-0.526 0.651,-0.53c1.467,-2.523 3.022,-4.965 4.664,-7.326c1.642,-2.362 3.257,-4.694 4.845,-6.998c0.631,-1.033 1.292,-2.011 1.983,-2.935c0.691,-0.923 1.411,-1.848 2.158,-2.774l4.295,-6.051c0.854,-1.042 1.681,-2.083 2.479,-3.123c0.799,-1.04 1.57,-2.079 2.312,-3.116c0.211,-0.345 0.422,-0.661 0.635,-0.95c0.212,-0.288 0.426,-0.549 0.64,-0.781c-0.12,-0.219 -0.348,-0.322 -0.684,-0.309c-0.559,0.022 -1.119,0.017 -1.681,-0.017c-0.561,-0.034 -1.117,0.073 -1.667,0.319l-2.097,0.083c-0.391,0.016 -0.808,0.088 -1.251,0.218c0.004,0.112 -0.217,0.177 -0.664,0.194c-0.448,0.018 -0.867,0.035 -1.258,0.051c-0.392,0.015 -0.753,0.086 -1.084,0.211l-1.845,0.073c-0.336,0.014 -0.669,0.083 -1,0.208c-0.107,0.116 -0.273,0.179 -0.496,0.188c-0.671,0.027 -1.368,0.11 -2.091,0.251c-0.722,0.141 -1.472,0.283 -2.251,0.426l-3.012,0.288l-3.503,0.644c-0.554,0.134 -1.172,0.102 -1.852,-0.095c-0.55,0.246 -1.106,0.352 -1.667,0.319c-0.561,-0.034 -1.122,-0.04 -1.681,-0.017c-1.359,-0.394 -2.292,-1.309 -2.797,-2.745c0.089,-0.563 0.465,-0.97 1.127,-1.221l3.322,-0.972c1.887,-0.411 3.943,-0.829 6.166,-1.254c0.555,-0.134 1.084,-0.211 1.587,-0.231c0.503,-0.02 1.032,-0.097 1.587,-0.231l2.999,-0.624l2.177,-0.171c0.669,-0.082 1.336,-0.193 2.003,-0.332l1.006,-0.04c0.224,-0.009 0.447,-0.045 0.668,-0.11c0.221,-0.065 0.444,-0.102 0.668,-0.111c0.447,-0.018 0.894,-0.036 1.342,-0.053c0.447,-0.018 0.892,-0.092 1.335,-0.222c-0,0 0.333,-0.069 1,-0.207c0.782,-0.032 1.622,-0.037 2.519,-0.017c0.897,0.02 1.732,-0.097 2.506,-0.352l3.69,-0.147c0.671,-0.026 1.145,-0.073 1.423,-0.14c0.277,-0.067 0.626,-0.445 1.047,-1.134c0.317,-0.461 0.663,-0.923 1.036,-1.386c0.374,-0.462 0.776,-0.926 1.205,-1.392c0.429,-0.465 0.83,-0.957 1.201,-1.475c0.372,-0.519 0.77,-1.067 1.195,-1.644l1.768,-2.003c0.535,-0.637 1.068,-1.302 1.601,-1.996l4.496,-5.219l3.066,-3.146c0.215,-0.233 0.487,-0.44 0.816,-0.621c0.329,-0.181 0.656,-0.39 0.983,-0.627c0.546,-0.358 1.107,-0.324 1.684,0.101c0.577,0.425 1.098,0.852 1.563,1.282c0.827,1.087 1.44,2.406 1.838,3.959c0.009,0.223 0.02,0.503 0.033,0.838c-0.264,1.803 -0.644,3.498 -1.141,5.086c-0.282,1.355 -0.595,2.628 -0.94,3.818c-0.345,1.189 -0.716,2.408 -1.114,3.656c-0.09,0.564 -0.074,0.955 0.046,1.174c0.452,0.094 0.678,0.141 0.678,0.141l1.845,-0.073c0.228,0.103 0.482,0.149 0.762,0.137c0.279,-0.011 0.587,-0.023 0.922,-0.036c0.452,0.094 0.79,0.136 1.013,0.127l4.026,-0.16c0.336,-0.013 0.673,0.029 1.013,0.128c0.112,-0.005 0.28,-0.012 0.504,-0.02l4.542,0.155c1.234,0.062 2.753,0.226 4.556,0.49c0.563,0.09 1.131,0.291 1.704,0.604Zm-69.606,49.311l-0.04,-1.006l-0.168,0.007l-1.815,2.928c-0.472,0.803 -0.916,1.605 -1.332,2.405c-2.108,3.332 -3.873,6.819 -5.296,10.46c-0.206,0.456 -0.411,0.912 -0.617,1.368c-0.206,0.457 -0.356,0.911 -0.45,1.362c0.224,-0.009 0.336,-0.013 0.336,-0.013c0.331,-0.125 0.605,-0.276 0.822,-0.453c0.217,-0.177 0.488,-0.383 0.815,-0.62c0.21,-0.345 0.422,-0.661 0.634,-0.95c0.213,-0.288 0.426,-0.549 0.641,-0.781c2.129,-2.773 3.758,-5.47 4.886,-8.091c0.823,-1.825 1.351,-4.03 1.584,-6.616Zm40.822,-50.684c0.215,-0.233 0.526,-0.861 0.933,-1.885c0.407,-1.024 0.811,-2.133 1.211,-3.325c0.401,-1.192 0.778,-2.271 1.131,-3.237c0.354,-0.966 0.582,-1.563 0.685,-1.791c0,-0 -0.06,-0.11 -0.181,-0.329c-0.327,0.237 -0.49,0.356 -0.49,0.356l-4.335,5.045c-0.644,0.697 -1.259,1.422 -1.845,2.173c-0.586,0.752 -1.199,1.532 -1.839,2.341c-0,0 -0.213,0.289 -0.638,0.866c0.452,0.094 0.818,0.135 1.097,0.124l3.523,-0.14c0.279,-0.011 0.529,-0.077 0.748,-0.198Z" style="fill-rule:nonzero;"/><path d="M401.013,110.652c-1.61,1.745 -3.241,2.986 -4.892,3.723c-1.556,0.286 -2.929,0.257 -4.119,-0.087c-1.19,-0.345 -2.355,-0.775 -3.496,-1.289c-0.688,-0.421 -1.159,-0.99 -1.412,-1.708c-0.252,-0.718 -0.504,-1.408 -0.754,-2.07c-0.005,-0.112 0.033,-0.561 0.114,-1.349c-0.013,-0.335 0.003,-0.616 0.05,-0.842c0.047,-0.225 0.066,-0.45 0.058,-0.674c0.067,-1.123 0.246,-2.25 0.537,-3.381c0.291,-1.132 0.579,-2.32 0.866,-3.563c0.707,-1.932 1.579,-3.927 2.618,-5.985c0.724,-1.485 1.477,-2.971 2.258,-4.458c0.781,-1.487 1.645,-2.977 2.594,-4.471c0.425,-0.577 0.85,-1.154 1.275,-1.731c0.425,-0.577 0.794,-1.152 1.107,-1.724c1.584,-2.416 3.295,-4.444 5.134,-6.085c0.635,-0.921 1.358,-1.762 2.168,-2.523c0.809,-0.76 1.648,-1.493 2.516,-2.2c0.756,-0.702 1.74,-1.301 2.952,-1.798c1.767,-0.63 3.561,-0.59 5.381,0.122c1.137,0.403 2.053,0.926 2.751,1.57c0.005,0.112 0.295,0.381 0.872,0.806c0.34,0.098 0.615,-0.025 0.826,-0.369c0.098,-0.34 0.251,-0.71 0.459,-1.111c0.208,-0.4 0.418,-0.772 0.628,-1.117c0.42,-0.688 0.968,-0.99 1.644,-0.905c0.34,0.098 0.65,0.142 0.929,0.131c0.28,-0.011 0.589,0.032 0.929,0.131c0.676,0.085 1.246,0.342 1.711,0.772c0.582,0.537 0.961,0.913 1.137,1.13c0.177,0.217 0.449,0.711 0.815,1.48c0.009,0.224 -0.141,0.678 -0.449,1.362c-0.622,1.257 -1.161,2.51 -1.615,3.76c-0.454,1.251 -0.938,2.446 -1.453,3.586c-0.407,1.025 -0.786,2.048 -1.138,3.07l-3.205,10.208c-0.403,1.136 -0.694,2.268 -0.873,3.395c-0.179,1.127 -0.358,2.254 -0.537,3.381l-0.343,4.046c0.014,0.336 0.026,0.643 0.037,0.923c0.011,0.279 0.079,0.585 0.204,0.916c0.032,0.782 0.486,0.932 1.362,0.449c0.761,-0.59 1.494,-1.179 2.198,-1.767c0.705,-0.588 1.381,-1.175 2.03,-1.761c0.434,-0.354 0.839,-0.734 1.215,-1.141c0.375,-0.407 0.724,-0.785 1.046,-1.133c0.43,-0.466 0.858,-0.959 1.286,-1.48c0.427,-0.521 0.799,-1.012 1.117,-1.472c2.134,-2.661 4.27,-5.267 6.409,-7.816c2.138,-2.549 4.219,-5.152 6.241,-7.809c0.751,-0.814 1.452,-1.514 2.1,-2.1c0.318,-0.46 0.703,-0.644 1.154,-0.55c0.564,0.09 1.073,0.21 1.527,0.36c0.454,0.149 0.909,0.327 1.365,0.533c-0,0 0.233,0.215 0.698,0.644l-1.255,2.235c-0.962,1.158 -1.866,2.37 -2.712,3.636c-0.845,1.265 -1.749,2.477 -2.711,3.636c-1.816,2.2 -3.606,4.372 -5.368,6.514c-1.763,2.142 -3.497,4.311 -5.201,6.507l-3.879,3.851c-0.971,0.935 -2.391,1.831 -4.261,2.69c-0.326,0.237 -0.658,0.362 -0.993,0.376c-2.013,0.08 -3.643,-0.079 -4.891,-0.478c-0.684,-0.308 -1.083,-0.46 -1.194,-0.456c-1.016,-0.183 -1.823,-0.767 -2.422,-1.751c-0.948,-1.307 -1.449,-2.631 -1.503,-3.973c-0.026,-0.671 -0.053,-1.342 -0.08,-2.013c-0.027,-0.671 0.056,-1.402 0.249,-2.194c0.107,-0.116 0.1,-0.284 -0.02,-0.503c-0.031,-0.783 0.094,-1.852 0.376,-3.207c-0.005,-0.112 -0.065,-0.221 -0.181,-0.329c-0.112,0.005 -0.222,0.065 -0.329,0.181l-0.161,0.175l-1.913,2.596l-1.745,2.59l-1.912,2.596c-0.43,0.465 -0.83,0.957 -1.201,1.476c-0.372,0.519 -0.714,1.064 -1.027,1.637c-0.421,0.689 -1.011,1.328 -1.772,1.919c-0.537,0.581 -1.179,1.335 -1.926,2.26Zm13.377,-31.11c0.076,-0.899 0.208,-1.8 0.396,-2.704c0.188,-0.903 0.211,-1.744 0.068,-2.522c-0.009,-0.224 -0.047,-0.475 -0.114,-0.752c-0.067,-0.277 -0.105,-0.528 -0.114,-0.751c-0,-0 -0.007,-0.168 -0.02,-0.504c-0.125,-0.331 -0.461,-0.317 -1.007,0.041c-1.203,0.719 -2.286,1.659 -3.247,2.817c-1.07,1.275 -2.111,2.548 -3.124,3.821c-1.014,1.272 -1.941,2.597 -2.782,3.975c-1.056,1.61 -2.082,3.275 -3.077,4.994c-0.996,1.72 -1.905,3.492 -2.728,5.317c-0.725,1.485 -1.395,2.94 -2.01,4.365c-0.616,1.424 -1.174,2.874 -1.675,4.35c-0.3,0.908 -0.545,1.786 -0.735,2.634c-0.19,0.847 -0.382,1.667 -0.574,2.459c0.004,0.112 0.076,0.501 0.214,1.167c0.018,0.448 0.244,0.495 0.678,0.141c0.429,-0.465 0.915,-0.932 1.456,-1.402c0.541,-0.469 1.025,-0.993 1.45,-1.57c0.859,-0.93 1.688,-1.887 2.489,-2.871c0.801,-0.984 1.573,-1.995 2.315,-3.032c0.43,-0.465 0.698,-0.756 0.806,-0.872c0.201,-0.568 0.489,-1.084 0.862,-1.547c0.374,-0.463 0.719,-0.924 1.037,-1.385c0.215,-0.233 0.429,-0.465 0.644,-0.698c0.215,-0.232 0.374,-0.463 0.477,-0.691c0.416,-0.8 0.917,-1.576 1.503,-2.328c0.586,-0.751 1.141,-1.585 1.664,-2.502c0.631,-1.033 1.289,-2.096 1.973,-3.187c0.685,-1.091 1.34,-2.209 1.967,-3.354c0.42,-0.689 0.731,-1.318 0.933,-1.886c-0.014,-0.335 0.003,-0.616 0.05,-0.842c0.047,-0.226 0.122,-0.453 0.225,-0.681Z" style="fill-rule:nonzero;"/><path d="M485.212,18.59c0.845,1.534 1.292,2.917 1.341,4.147c0.013,0.335 0.038,0.95 0.074,1.845c0.022,0.559 -0.063,1.234 -0.256,2.026c-0.787,2.72 -1.694,5.276 -2.718,7.669l-3.732,7.541l-0.161,0.174c-0.734,1.261 -1.441,2.494 -2.121,3.697c-0.68,1.203 -1.389,2.379 -2.127,3.529c-0.627,1.145 -1.31,2.264 -2.05,3.357c-0.741,1.094 -1.482,2.16 -2.225,3.197c-0.64,0.81 -1.224,1.617 -1.752,2.422c-0.528,0.805 -1.17,1.559 -1.926,2.261c-0.322,0.349 -0.534,0.637 -0.637,0.865c-0.425,0.577 -0.851,1.126 -1.279,1.647c-0.427,0.521 -0.911,1.017 -1.452,1.486c-0.64,0.81 -1.309,1.593 -2.007,2.348c-0.698,0.756 -1.369,1.483 -2.013,2.181c-0.434,0.353 -0.839,0.733 -1.215,1.14c-0.376,0.407 -0.836,0.789 -1.382,1.147c-0.653,0.474 -1.237,1.282 -1.752,2.422c-0.93,1.941 -1.695,3.82 -2.295,5.636l-1.96,5.622c0.349,0.322 0.745,0.418 1.187,0.289l9.307,-2.555c1.99,-0.64 3.954,-1.25 5.891,-1.831c1.937,-0.581 3.845,-1.189 5.724,-1.824c1.216,-0.385 2.405,-0.768 3.566,-1.15c1.161,-0.383 2.294,-0.764 3.399,-1.144c0.778,-0.143 1.497,-0.367 2.157,-0.674c0.66,-0.306 1.376,-0.587 2.15,-0.841l1.194,0.456c0.242,0.438 0.482,0.849 0.722,1.231c0.239,0.383 0.421,0.74 0.546,1.071c0.358,0.545 0.266,1.053 -0.275,1.523c-0.438,0.241 -0.711,0.42 -0.819,0.536c-0.993,0.376 -1.957,0.778 -2.892,1.208c-0.935,0.429 -1.901,0.775 -2.898,1.039c-1.217,0.385 -2.349,0.794 -3.396,1.227c-1.046,0.434 -2.122,0.841 -3.227,1.221c-0.55,0.246 -1.075,0.435 -1.574,0.567c-0.498,0.132 -0.969,0.262 -1.412,0.392c-0.443,0.13 -0.83,0.257 -1.161,0.382c-0.331,0.126 -0.716,0.309 -1.154,0.55c-1.87,0.859 -3.743,1.634 -5.619,2.324c-1.877,0.691 -3.813,1.3 -5.808,1.828c-0.224,0.009 -0.669,0.082 -1.335,0.221c-0.331,0.125 -0.636,0.193 -0.916,0.205c-0.28,0.011 -0.585,0.079 -0.916,0.204c-0.224,0.009 -0.474,0.047 -0.751,0.114c-0.278,0.067 -0.528,0.105 -0.752,0.114c-1.118,0.044 -2.225,0.369 -3.321,0.972c-0.747,0.926 -0.924,2.109 -0.531,3.55l1.328,3.811c0.13,0.443 0.259,0.885 0.389,1.328c0.13,0.443 0.262,0.942 0.396,1.497c0.138,0.666 0.333,1.33 0.583,1.992c0.251,0.662 0.333,1.331 0.248,2.007c0.009,0.223 0.016,0.391 0.02,0.503c0.376,0.993 0.584,1.993 0.624,2.999c0.04,1.007 0.08,2.013 0.12,3.019c0.018,0.448 -0.025,0.785 -0.128,1.014c-0.197,0.679 -0.271,1.634 -0.222,2.864c0.014,0.336 -0.033,0.562 -0.141,0.678c-0.384,1.584 -0.716,3.109 -0.993,4.576c-0.278,1.467 -0.723,2.941 -1.336,4.421c-0.304,0.796 -0.636,1.622 -0.993,2.476c-0.358,0.854 -0.745,1.682 -1.162,2.482c-0.322,0.349 -0.633,0.978 -0.933,1.886c-0.411,0.912 -0.932,1.885 -1.563,2.918c-0.528,0.805 -1.057,1.582 -1.587,2.331c-0.531,0.749 -1.12,1.417 -1.769,2.003c-0.751,0.814 -1.729,1.581 -2.932,2.301c-0.765,0.478 -1.604,0.512 -2.516,0.1l-4.267,-1.678c-2.389,-0.913 -3.636,-2.711 -3.743,-5.395c-0.045,-1.118 0.013,-2.465 0.175,-4.039c0.264,-1.803 0.584,-3.608 0.96,-5.415c0.376,-1.807 0.81,-3.56 1.302,-5.26c0.605,-1.704 1.18,-3.435 1.726,-5.193c0.546,-1.757 1.121,-3.488 1.725,-5.193l2.866,-8.178c0.192,-0.792 0.441,-1.586 0.745,-2.382l2.128,-5.629c0.403,-1.136 0.808,-2.216 1.215,-3.24l1.805,-5.28l1.376,-3.415c0.605,-1.705 1.238,-3.382 1.9,-5.032c0.662,-1.651 1.298,-3.272 1.906,-4.864c0.922,-2.165 1.819,-4.245 2.692,-6.24c0.872,-1.995 1.772,-4.019 2.698,-6.072l2.644,-5.313c0.524,-0.917 0.991,-1.832 1.403,-2.744c0.412,-0.913 0.823,-1.825 1.235,-2.737l2.973,-5.495c0.618,-1.369 1.19,-2.456 1.718,-3.261c0.519,-1.028 1.04,-2.001 1.564,-2.918c0.523,-0.917 1.103,-1.836 1.738,-2.758l1.718,-3.26c0.949,-1.494 1.924,-3.017 2.926,-4.569c1.002,-1.552 2.034,-3.077 3.094,-4.575c0.421,-0.689 0.873,-1.295 1.356,-1.818c0.483,-0.524 0.935,-1.13 1.355,-1.818c0.761,-0.591 1.52,-1.209 2.278,-1.855c0.759,-0.647 1.578,-1.155 2.46,-1.526c0.443,-0.13 0.892,-0.092 1.348,0.114c1.034,0.631 1.736,1.387 2.107,2.268Zm-37.695,91.217l-0.167,-4.193c-0.013,-0.336 -0.084,-0.697 -0.211,-1.084c-0.128,-0.387 -0.256,-0.802 -0.386,-1.244l-0.248,-2.007c-0.331,0.126 -0.496,0.188 -0.496,0.188c-0.108,0.116 -0.21,0.345 -0.309,0.684l-5.075,15.995c-0.805,2.272 -1.525,4.597 -2.158,6.974c-0.633,2.378 -1.239,4.754 -1.816,7.129c-0.197,0.68 -0.286,1.244 -0.269,1.691c0.117,0.107 0.235,0.27 0.356,0.49c0.112,-0.005 0.168,-0.007 0.168,-0.007c0.322,-0.349 0.644,-0.698 0.966,-1.047c0.322,-0.348 0.588,-0.695 0.799,-1.039c1.378,-1.959 2.644,-3.914 3.798,-5.864c0.524,-0.917 1.019,-1.833 1.487,-2.747c0.467,-0.915 0.905,-1.884 1.312,-2.909c0.394,-1.359 0.789,-2.691 1.185,-3.995c0.396,-1.304 0.621,-2.685 0.675,-4.143c-0.005,-0.112 0.019,-0.225 0.07,-0.339c0.052,-0.114 0.073,-0.283 0.064,-0.506c0.098,-0.34 0.141,-0.678 0.128,-1.014c-0.014,-0.335 0.029,-0.673 0.127,-1.013Zm34.252,-84.864c0.206,-0.456 0.134,-0.845 -0.215,-1.167c-0.438,0.241 -0.657,0.362 -0.657,0.362c-0.542,0.47 -0.97,0.963 -1.285,1.479l-2.541,3.714c-0.532,0.693 -0.95,1.438 -1.255,2.234c-0.102,0.228 -0.208,0.4 -0.315,0.516c-0.107,0.117 -0.215,0.233 -0.322,0.349c-0.412,0.913 -0.854,1.77 -1.326,2.573c-0.472,0.803 -0.969,1.663 -1.493,2.58c-0.318,0.461 -0.607,0.92 -0.869,1.379c-0.262,0.458 -0.493,0.971 -0.695,1.539c-0.622,1.257 -1.246,2.458 -1.872,3.603c-0.627,1.145 -1.195,2.344 -1.705,3.596c-0.098,0.34 -0.253,0.682 -0.463,1.027c-0.635,0.921 -1.157,1.894 -1.564,2.918c-0.407,1.024 -0.868,2.107 -1.382,3.247c-0.108,0.116 -0.047,0.226 0.181,0.329c0.112,-0.004 0.223,-0.009 0.335,-0.013c0.21,-0.345 0.477,-0.691 0.799,-1.04c0.322,-0.349 0.588,-0.696 0.798,-1.04c0.846,-1.266 1.722,-2.477 2.628,-3.633c0.906,-1.156 1.726,-2.365 2.459,-3.626c0.846,-1.266 1.636,-2.529 2.369,-3.791c0.734,-1.261 1.468,-2.522 2.202,-3.783l2.194,-3.952c0.412,-0.912 0.825,-1.797 1.239,-2.653c0.413,-0.857 0.824,-1.797 1.231,-2.822c0.313,-0.572 0.596,-1.199 0.849,-1.882c0.253,-0.682 0.478,-1.363 0.675,-2.043Z" style="fill-rule:nonzero;"/><path d="M489.077,107.143c-1.611,1.744 -3.242,2.985 -4.892,3.723c-1.557,0.286 -2.93,0.257 -4.12,-0.088c-1.19,-0.344 -2.355,-0.774 -3.495,-1.288c-0.689,-0.421 -1.16,-0.99 -1.413,-1.708c-0.252,-0.718 -0.504,-1.408 -0.754,-2.07c-0.004,-0.112 0.034,-0.562 0.114,-1.349c-0.013,-0.335 0.004,-0.616 0.051,-0.842c0.047,-0.226 0.066,-0.45 0.057,-0.674c0.067,-1.123 0.246,-2.25 0.537,-3.382c0.291,-1.131 0.58,-2.319 0.866,-3.562c0.707,-1.933 1.58,-3.927 2.618,-5.985c0.725,-1.485 1.477,-2.971 2.258,-4.458c0.781,-1.487 1.646,-2.978 2.594,-4.471c0.425,-0.577 0.85,-1.154 1.275,-1.731c0.425,-0.577 0.794,-1.152 1.108,-1.724c1.583,-2.416 3.295,-4.444 5.133,-6.085c0.636,-0.922 1.358,-1.762 2.168,-2.523c0.81,-0.76 1.648,-1.493 2.516,-2.2c0.756,-0.702 1.74,-1.301 2.953,-1.798c1.767,-0.63 3.56,-0.59 5.381,0.122c1.136,0.403 2.053,0.926 2.75,1.57c0.005,0.112 0.296,0.38 0.873,0.806c0.339,0.098 0.615,-0.025 0.825,-0.369c0.098,-0.34 0.252,-0.71 0.46,-1.111c0.208,-0.4 0.417,-0.772 0.627,-1.117c0.421,-0.689 0.969,-0.99 1.644,-0.905c0.34,0.098 0.65,0.142 0.929,0.131c0.28,-0.011 0.59,0.032 0.93,0.131c0.675,0.085 1.245,0.342 1.71,0.771c0.582,0.537 0.961,0.914 1.138,1.131c0.176,0.217 0.448,0.71 0.815,1.48c0.008,0.223 -0.141,0.677 -0.45,1.362c-0.622,1.257 -1.16,2.51 -1.614,3.76c-0.455,1.25 -0.939,2.446 -1.454,3.586c-0.407,1.025 -0.786,2.048 -1.137,3.07l-3.206,10.208c-0.402,1.136 -0.693,2.267 -0.872,3.395c-0.18,1.127 -0.359,2.254 -0.538,3.381l-0.343,4.046c0.014,0.335 0.026,0.643 0.037,0.923c0.011,0.279 0.08,0.584 0.205,0.915c0.031,0.783 0.485,0.933 1.362,0.45c0.76,-0.59 1.493,-1.179 2.197,-1.767c0.705,-0.589 1.382,-1.176 2.03,-1.761c0.434,-0.354 0.839,-0.734 1.215,-1.141c0.376,-0.407 0.725,-0.785 1.047,-1.134c0.429,-0.465 0.858,-0.958 1.285,-1.479c0.427,-0.521 0.8,-1.012 1.117,-1.472c2.134,-2.662 4.27,-5.267 6.409,-7.816c2.138,-2.549 4.219,-5.152 6.241,-7.809c0.752,-0.814 1.452,-1.514 2.1,-2.1c0.318,-0.46 0.703,-0.644 1.155,-0.55c0.563,0.09 1.072,0.209 1.526,0.359c0.454,0.15 0.909,0.328 1.365,0.534c0,0 0.233,0.215 0.698,0.644l-1.255,2.234c-0.962,1.159 -1.866,2.371 -2.711,3.636c-0.846,1.266 -1.75,2.478 -2.711,3.637c-1.817,2.2 -3.606,4.371 -5.369,6.514c-1.763,2.142 -3.496,4.311 -5.201,6.507l-3.879,3.851c-0.97,0.935 -2.391,1.831 -4.261,2.69c-0.326,0.237 -0.657,0.362 -0.993,0.375c-2.013,0.081 -3.643,-0.078 -4.891,-0.477c-0.684,-0.308 -1.082,-0.461 -1.194,-0.456c-1.015,-0.184 -1.823,-0.768 -2.422,-1.752c-0.948,-1.306 -1.449,-2.63 -1.502,-3.972c-0.027,-0.671 -0.054,-1.342 -0.081,-2.013c-0.026,-0.671 0.057,-1.402 0.249,-2.194c0.107,-0.116 0.101,-0.284 -0.02,-0.503c-0.031,-0.783 0.094,-1.852 0.376,-3.207c-0.004,-0.112 -0.065,-0.222 -0.181,-0.329c-0.112,0.005 -0.221,0.065 -0.329,0.181l-0.161,0.175l-1.912,2.596l-1.745,2.59l-1.913,2.596c-0.429,0.465 -0.83,0.957 -1.201,1.476c-0.371,0.519 -0.714,1.064 -1.027,1.637c-0.42,0.688 -1.011,1.328 -1.772,1.918c-0.536,0.582 -1.178,1.335 -1.925,2.261Zm13.376,-31.11c0.077,-0.899 0.209,-1.8 0.397,-2.704c0.188,-0.903 0.21,-1.744 0.067,-2.523c-0.009,-0.223 -0.047,-0.474 -0.114,-0.751c-0.067,-0.277 -0.105,-0.528 -0.114,-0.752c0,0 -0.006,-0.167 -0.02,-0.503c-0.125,-0.331 -0.461,-0.317 -1.006,0.04c-1.204,0.72 -2.286,1.659 -3.248,2.818c-1.069,1.274 -2.111,2.548 -3.124,3.82c-1.013,1.273 -1.941,2.598 -2.782,3.975c-1.056,1.611 -2.081,3.275 -3.077,4.995c-0.995,1.72 -1.905,3.492 -2.728,5.317c-0.725,1.485 -1.395,2.94 -2.01,4.364c-0.615,1.425 -1.174,2.875 -1.675,4.351c-0.3,0.908 -0.545,1.786 -0.735,2.634c-0.19,0.847 -0.382,1.667 -0.574,2.459c0.004,0.111 0.076,0.501 0.215,1.167c0.017,0.447 0.243,0.494 0.677,0.141c0.43,-0.465 0.915,-0.932 1.456,-1.402c0.542,-0.47 1.025,-0.993 1.45,-1.57c0.859,-0.93 1.689,-1.887 2.49,-2.871c0.8,-0.984 1.572,-1.995 2.315,-3.032c0.429,-0.466 0.698,-0.756 0.805,-0.873c0.201,-0.568 0.489,-1.083 0.862,-1.546c0.374,-0.463 0.72,-0.925 1.037,-1.385c0.215,-0.233 0.43,-0.465 0.644,-0.698c0.215,-0.233 0.374,-0.463 0.477,-0.691c0.416,-0.801 0.917,-1.577 1.503,-2.328c0.586,-0.751 1.141,-1.586 1.665,-2.502c0.63,-1.034 1.288,-2.096 1.973,-3.187c0.684,-1.092 1.34,-2.21 1.966,-3.355c0.421,-0.688 0.732,-1.317 0.933,-1.885c-0.013,-0.335 0.003,-0.616 0.05,-0.842c0.047,-0.226 0.122,-0.453 0.225,-0.681Z" style="fill-rule:nonzero;"/></g><g><g><path d="M594.502,137.496c0.013,0.335 0.053,0.642 0.12,0.919c0.067,0.278 0.107,0.584 0.121,0.919c-0.779,0.143 -1.456,0.002 -2.033,-0.423c-0.577,-0.425 -1.15,-0.738 -1.718,-0.939c-0.357,-0.546 -0.549,-1.126 -0.573,-1.741c-0.025,-0.615 0.008,-1.205 0.098,-1.768c0.076,-0.899 0.21,-1.745 0.402,-2.536c0.193,-0.792 0.329,-1.582 0.41,-2.369c0.112,-0.004 0.159,-0.23 0.141,-0.678c-0.228,-0.102 -0.505,-0.035 -0.832,0.202c-1.525,1.068 -3.05,2.165 -4.573,3.29c-1.523,1.125 -3.101,2.28 -4.734,3.465c-1.964,1.31 -3.898,2.675 -5.801,4.095c-1.904,1.42 -3.835,2.841 -5.794,4.263l-1.799,1.248c-1.033,-0.631 -1.675,-1.278 -1.925,-1.94c-0.121,-0.219 -0.416,-0.599 -0.886,-1.14c-0.125,-0.331 -0.187,-0.497 -0.187,-0.497c-0.005,-0.112 0.042,-0.338 0.141,-0.678c1.946,-1.757 3.791,-3.231 5.536,-4.42c1.301,-1.06 2.632,-2.093 3.992,-3.099c1.36,-1.007 2.747,-2.042 4.161,-3.106c1.199,-0.832 2.396,-1.692 3.593,-2.58c1.197,-0.887 2.392,-1.803 3.587,-2.747c1.199,-0.831 2.368,-1.69 3.509,-2.576c1.141,-0.885 2.311,-1.744 3.51,-2.576c0.219,-0.12 0.382,-0.239 0.49,-0.355c0.107,-0.116 0.214,-0.233 0.322,-0.349c0.326,-0.237 0.536,-0.581 0.63,-1.033c0.403,-1.136 0.75,-2.27 1.041,-3.402c0.604,-1.704 1.181,-3.379 1.732,-5.025c0.55,-1.646 1.069,-3.375 1.557,-5.186c0.412,-0.913 0.765,-1.879 1.061,-2.898c0.295,-1.02 0.59,-2.04 0.886,-3.06l1.806,-5.28l2.872,-8.011c0.502,-1.476 1.004,-2.924 1.507,-4.344c0.504,-1.42 1.008,-2.812 1.514,-4.176l3.021,-8.521c0.398,-1.248 0.851,-2.526 1.359,-3.834c0.508,-1.309 1.017,-2.589 1.527,-3.841c0.192,-0.792 0.441,-1.586 0.745,-2.382l1.993,-4.784c0.305,-0.796 0.583,-1.535 0.836,-2.217c0.253,-0.682 0.534,-1.365 0.842,-2.05c0.305,-0.796 0.61,-1.564 0.917,-2.304c0.306,-0.741 0.67,-1.455 1.09,-2.144c0.51,-1.252 1.05,-2.478 1.618,-3.676c0.568,-1.199 1.163,-2.427 1.785,-3.684c0,0 -0.004,-0.112 -0.013,-0.335c-0.117,-0.108 -0.175,-0.161 -0.175,-0.161c-0.559,0.022 -1.09,0.043 -1.593,0.063c-0.503,0.02 -1.032,0.097 -1.587,0.231c-0.778,0.144 -1.724,0.293 -2.838,0.45c-1.338,0.165 -2.645,0.385 -3.922,0.66c-1.277,0.275 -2.58,0.607 -3.909,0.996c-0.773,0.255 -1.603,0.512 -2.489,0.771c-0.886,0.259 -1.771,0.519 -2.657,0.778c-1.217,0.384 -2.59,1.055 -4.12,2.012c-0.219,0.121 -0.411,0.212 -0.577,0.275c-0.166,0.063 -0.302,0.152 -0.409,0.268c-1.481,-0.613 -2.538,-1.859 -3.173,-3.737l0.295,-1.02c0.327,-0.237 0.49,-0.356 0.49,-0.356c1.771,-0.518 3.539,-1.121 5.304,-1.807c1.765,-0.686 3.535,-1.233 5.311,-1.64c0.997,-0.264 1.94,-0.497 2.828,-0.7c0.888,-0.204 1.777,-0.379 2.667,-0.527c0.667,-0.138 1.305,-0.276 1.916,-0.412c0.61,-0.136 1.251,-0.218 1.922,-0.245l5.173,-0.878c0.667,-0.138 1.056,-0.21 1.168,-0.214c1.234,0.062 2.404,-0.096 3.509,-0.476c0.098,-0.34 0.253,-0.682 0.463,-1.027c0.21,-0.344 0.421,-0.689 0.631,-1.033c0.519,-1.029 1.038,-2.057 1.557,-3.086c0.309,-0.684 0.456,-1.194 0.443,-1.53c0.09,-0.563 0.351,-1.022 0.785,-1.375c1.007,-0.04 1.812,0.488 2.416,1.584c0.599,0.984 0.748,1.93 0.449,2.838c-0.412,0.912 -0.77,1.767 -1.074,2.563c0.004,0.112 -0.043,0.337 -0.141,0.677c0.344,0.211 0.572,0.314 0.684,0.309l10.064,-0.401c0.448,-0.018 0.897,0.02 1.349,0.114l2.684,-0.107c0.447,-0.017 0.843,0.079 1.187,0.289c0.112,-0.004 0.28,-0.011 0.504,-0.02c1.006,-0.04 2.016,0.004 3.029,0.131c1.013,0.128 2.025,0.228 3.036,0.299c1.463,0.166 3.156,0.491 5.079,0.974c1.579,0.273 3.107,0.688 4.586,1.245c1.478,0.557 2.906,1.257 4.283,2.098c1.834,1.047 3.369,2.33 4.606,3.848c1.237,1.519 2.121,3.332 2.653,5.439c0.42,2.111 0.552,4.01 0.395,5.696c-0.327,3.037 -1.274,5.987 -2.84,8.85c-0.626,1.145 -1.31,2.264 -2.05,3.358c-0.74,1.093 -1.538,2.161 -2.392,3.203l-2.886,3.475c-0.219,0.121 -0.381,0.267 -0.487,0.44c-0.105,0.172 -0.211,0.316 -0.318,0.432c-0.322,0.349 -0.535,0.638 -0.638,0.866l-1.785,1.583l-4.684,4.723c-1.731,1.525 -3.518,3.052 -5.361,4.581c-1.844,1.53 -3.689,3.004 -5.536,4.421c-3.038,2.473 -5.919,4.66 -8.643,6.561c-1.414,1.064 -2.801,2.1 -4.161,3.106c-1.36,1.006 -2.749,1.985 -4.167,2.938c-2.608,2.008 -5.19,3.959 -7.747,5.853c-2.556,1.894 -5.141,3.789 -7.754,5.685c-2.831,2.017 -5.662,4.062 -8.491,6.135c-2.83,2.072 -5.661,4.117 -8.492,6.134c-0.542,0.47 -0.913,0.989 -1.114,1.557c-0.493,1.699 -0.959,3.342 -1.4,4.928c-0.441,1.585 -0.796,3.223 -1.064,4.914c-0.179,1.127 -0.311,2.029 -0.396,2.704Zm7.176,-26.495c-0.094,0.452 -0.215,0.933 -0.363,1.443c-0.147,0.509 -0.266,1.046 -0.355,1.61c0.545,-0.358 0.818,-0.537 0.818,-0.537c1.414,-1.064 2.773,-2.098 4.077,-3.102c1.304,-1.004 2.665,-1.983 4.083,-2.935l14.843,-11.176c1.633,-1.185 3.237,-2.397 4.811,-3.636c1.575,-1.239 3.179,-2.451 4.812,-3.636l4.892,-3.723l8.461,-6.889l4.563,-3.542c0.756,-0.702 1.486,-1.375 2.188,-2.019c0.702,-0.644 1.434,-1.262 2.194,-1.852l4.537,-4.213c0.966,-1.046 1.933,-2.065 2.902,-3.056c0.968,-0.99 1.878,-2.062 2.728,-3.216c0.313,-0.573 0.655,-1.119 1.027,-1.637c0.371,-0.519 0.771,-1.011 1.201,-1.476l1.879,-3.435c1.253,-2.29 2.058,-4.562 2.417,-6.817c0.08,-0.787 0.051,-1.514 -0.087,-2.18c-0.139,-0.667 -0.664,-1.206 -1.577,-1.618l-0.174,-0.161c-1.275,-1.069 -2.711,-1.964 -4.307,-2.684c-1.597,-0.721 -3.248,-1.383 -4.952,-1.987c-2.379,-0.689 -4.752,-1.211 -7.118,-1.564l-8.099,-0.854c-0.787,-0.08 -1.572,-0.105 -2.355,-0.074c-0.787,-0.08 -1.545,-0.134 -2.274,-0.161c-0.729,-0.027 -1.429,-0.027 -2.1,-0.001l-9.561,0.381c-0.211,0.345 -0.37,0.575 -0.477,0.691c-0.094,0.452 -0.244,0.906 -0.45,1.362c-0.205,0.457 -0.411,0.913 -0.617,1.369c-1.128,2.621 -2.283,5.243 -3.467,7.867c-1.183,2.623 -2.339,5.245 -3.466,7.866c-1.334,3.077 -2.824,6.441 -4.471,10.09c-0.304,0.797 -0.657,1.763 -1.06,2.899l-2.289,5.803l-3.47,9.883l-3.484,9.547c-0.492,1.7 -1.042,3.374 -1.648,5.022c-0.606,1.648 -1.156,3.322 -1.648,5.022c-0.51,1.252 -0.965,2.474 -1.366,3.666c-0.4,1.192 -0.8,2.412 -1.198,3.66Z" style="fill:#a50100;fill-rule:nonzero;"/><path d="M747.02,69.256c0.492,1.101 0.648,2.214 0.469,3.342l-1.323,4.756c-0.702,2.045 -1.406,4.061 -2.111,6.049c-0.704,1.988 -1.352,4.002 -1.943,6.041l-5.189,17.344c-0.385,1.583 -0.799,3.14 -1.242,4.669c-0.443,1.53 -0.857,3.087 -1.242,4.67c-0.774,3.055 -1.39,5.88 -1.846,8.474c-0.094,0.452 -0.128,1.013 -0.101,1.684c0.009,0.224 0.045,0.446 0.11,0.668c0.065,0.221 0.102,0.444 0.111,0.667c-0.099,0.34 -0.264,0.403 -0.497,0.188l-2.757,-1.738c-1.507,-1.284 -2.082,-3.053 -1.724,-5.308c0.26,-1.914 0.577,-3.803 0.951,-5.666c0.373,-1.863 0.746,-3.754 1.118,-5.672c0.286,-1.244 0.574,-2.459 0.862,-3.647c0.289,-1.187 0.579,-2.347 0.87,-3.479c0.689,-2.379 1.325,-4.701 1.906,-6.964c0.582,-2.263 1.162,-4.582 1.739,-6.957c0.497,-1.588 1.021,-3.205 1.571,-4.851c0.55,-1.646 1.13,-3.265 1.738,-4.858c-0.004,-0.111 0.02,-0.224 0.071,-0.338c0.051,-0.115 0.075,-0.227 0.07,-0.339c-0.12,-0.219 -0.288,-0.213 -0.503,0.02c-0.966,1.046 -1.959,2.122 -2.979,3.227c-1.02,1.104 -2.011,2.236 -2.973,3.394l-3.047,3.65l-3.603,4.427c-0.372,0.519 -0.77,1.067 -1.195,1.644c-0.322,0.349 -0.616,0.697 -0.882,1.043c-0.267,0.347 -0.505,0.692 -0.715,1.037l-2.711,3.636l-1.443,1.738c-0.425,0.577 -0.877,1.183 -1.356,1.818c-0.479,0.635 -0.989,1.187 -1.53,1.657c0.005,0.112 -0.266,0.346 -0.812,0.704c-0.577,-0.425 -1.21,-0.848 -1.898,-1.268c-0.689,-0.421 -1.327,-0.956 -1.912,-1.604c-0.931,-0.859 -1.25,-1.854 -0.959,-2.986c0.295,-1.02 0.536,-2.01 0.721,-2.969c0.186,-0.959 0.485,-1.895 0.896,-2.808c0.3,-0.908 0.441,-1.585 0.423,-2.033c-0.116,-0.107 -0.281,-0.044 -0.496,0.188c-0.421,0.689 -0.871,1.323 -1.352,1.902l-2.956,3.814c-0.318,0.461 -0.665,0.894 -1.041,1.301c-0.375,0.407 -0.72,0.897 -1.033,1.47c-0.747,0.926 -1.498,1.767 -2.252,2.526c-0.753,0.758 -1.506,1.544 -2.258,2.358c-1.073,1.162 -2.268,2.106 -3.583,2.83c-0.662,0.251 -1.223,0.217 -1.684,-0.1c-0.921,-0.636 -1.787,-1.273 -2.596,-1.913c-0.81,-0.64 -1.566,-1.338 -2.268,-2.094c-0.465,-0.429 -0.711,-0.979 -0.738,-1.65c-0.152,-1.002 -0.087,-2.181 0.195,-3.536l0.591,-2.04c-0.962,1.158 -1.897,2.288 -2.805,3.388c-0.908,1.1 -1.848,2.118 -2.818,3.052c-0.967,1.047 -1.891,1.756 -2.772,2.127c-1.096,0.604 -2.107,0.532 -3.032,-0.215c-0.573,-0.313 -1.119,-0.656 -1.637,-1.027c-0.519,-0.371 -1.011,-0.772 -1.476,-1.201c-1.4,-1.401 -1.975,-3.17 -1.724,-5.308c0.152,-1.798 0.526,-3.661 1.121,-5.589c0.891,-2.947 2.01,-5.792 3.357,-8.534c0.411,-0.912 1.035,-2.113 1.872,-3.602c0.734,-1.262 1.248,-2.402 1.544,-3.422c0.094,-0.452 0.192,-0.792 0.295,-1.02c-0.004,-0.112 0.206,-0.456 0.631,-1.033l1.154,-0.55c0.228,0.103 0.428,0.207 0.601,0.312c0.172,0.105 0.37,0.153 0.593,0.144c0.573,0.314 1.094,0.741 1.563,1.282c0.591,0.761 1.018,1.64 1.282,2.637c0.138,0.667 -0.063,1.235 -0.605,1.704c-0.102,0.228 -0.261,0.459 -0.476,0.691c-0.215,0.233 -0.432,0.409 -0.651,0.53c-0.653,0.474 -1.183,1.223 -1.59,2.248c-0.519,1.028 -0.983,2.055 -1.39,3.079c-0.407,1.024 -0.87,2.051 -1.389,3.08c-0.51,1.252 -0.964,2.502 -1.363,3.75c-0.398,1.248 -0.796,2.496 -1.195,3.744c-0.089,0.563 -0.23,1.241 -0.423,2.033c0,-0 0.009,0.223 0.027,0.671c0.331,-0.126 0.497,-0.188 0.497,-0.188c0.434,-0.353 0.841,-0.678 1.221,-0.973c0.38,-0.295 0.731,-0.617 1.053,-0.966c0.864,-0.818 1.669,-1.69 2.416,-2.616c1.07,-1.275 2.083,-2.547 3.04,-3.817c1.065,-1.387 1.967,-2.655 2.705,-3.804c0.841,-1.378 1.656,-2.698 2.446,-3.962c0.79,-1.263 1.607,-2.528 2.453,-3.794c0.953,-1.382 1.82,-2.816 2.601,-4.304c0.78,-1.487 1.535,-2.917 2.265,-4.29c0.103,-0.228 0.208,-0.4 0.315,-0.517c0.107,-0.116 0.213,-0.288 0.316,-0.516c0.205,-0.456 0.586,-0.752 1.14,-0.886c0.568,0.202 1.082,0.433 1.54,0.695c0.458,0.262 0.864,0.61 1.218,1.043c0.478,0.765 0.843,1.479 1.093,2.141c0.25,0.662 0.221,1.335 -0.088,2.02c-0.304,0.796 -0.607,1.62 -0.909,2.472c-0.302,0.852 -0.603,1.732 -0.903,2.64c-0.711,1.82 -1.425,3.585 -2.141,5.293c-0.304,0.797 -0.61,1.565 -0.916,2.305c-0.307,0.74 -0.556,1.506 -0.749,2.298c-0.913,2.388 -1.87,5.059 -2.873,8.011c-0.201,0.568 -0.241,0.961 -0.121,1.181c0.323,-0.349 0.54,-0.526 0.651,-0.53c0.533,-0.694 1.122,-1.361 1.769,-2.003c0.646,-0.642 1.291,-1.311 1.936,-2.009c0.536,-0.582 1.044,-1.19 1.523,-1.825c0.479,-0.635 0.984,-1.299 1.517,-1.992l1.919,-2.429c0.429,-0.465 0.803,-0.928 1.121,-1.389c0.317,-0.46 0.635,-0.921 0.953,-1.382c0.536,-0.581 1.017,-1.16 1.442,-1.737c0.425,-0.577 0.85,-1.154 1.275,-1.731c0.64,-0.81 1.252,-1.618 1.836,-2.425c0.584,-0.808 1.14,-1.614 1.668,-2.419c0.532,-0.693 1.091,-1.415 1.677,-2.167c0.586,-0.751 1.143,-1.529 1.671,-2.334c0.64,-0.81 1.117,-1.501 1.43,-2.074c0.532,-0.693 1.183,-1.223 1.953,-1.589c1.476,0.501 2.574,1.353 3.294,2.556c0.004,0.112 0.006,0.168 0.006,0.168c0.828,1.087 0.937,2.427 0.328,4.019c-0.201,0.568 -0.376,1.107 -0.523,1.617c-0.148,0.51 -0.325,0.993 -0.531,1.449l-1.691,3.932l-2.584,6.823c0.116,0.107 0.228,0.103 0.335,-0.013l1.443,-1.738l1.846,-2.173c0.478,-0.636 0.986,-1.244 1.523,-1.825l3.523,-4.341l2.896,-3.223c0.749,-0.87 1.556,-1.714 2.419,-2.533c0.644,-0.697 1.317,-1.368 2.02,-2.012c0.702,-0.644 1.378,-1.259 2.026,-1.845l0.806,-0.872c0.537,-0.582 1.048,-1.106 1.533,-1.573c0.485,-0.468 0.999,-0.936 1.54,-1.406c1.078,-1.051 2.138,-1.149 3.18,-0.295c1.038,0.743 1.682,1.446 1.933,2.108c-0,-0 0.12,0.219 0.362,0.657Z" style="fill:#a50100;fill-rule:nonzero;"/><path d="M800.152,28.162c0.246,0.55 0.52,1.099 0.822,1.647c0.302,0.548 0.468,1.213 0.499,1.996c0.005,0.112 -0.044,0.282 -0.147,0.51c-0.103,0.228 -0.262,0.458 -0.477,0.691l-2.349,4.294c-0.935,1.829 -1.814,3.656 -2.638,5.481c-0.823,1.825 -1.646,3.65 -2.469,5.475c-0.314,0.572 -0.598,1.171 -0.853,1.798c-0.255,0.626 -0.483,1.223 -0.684,1.791c0.013,0.335 -0.139,0.734 -0.457,1.194c-0.617,1.369 -1.18,2.707 -1.688,4.016c-0.508,1.308 -1.015,2.644 -1.52,4.008c-0.913,2.389 -1.827,4.749 -2.742,7.082c-0.915,2.332 -1.773,4.691 -2.574,7.075c-0.497,1.588 -1.022,3.176 -1.575,4.767c-0.552,1.59 -1.135,3.125 -1.748,4.605l-1.497,4.596c-0.403,1.136 -0.777,2.271 -1.124,3.405c-0.347,1.134 -0.72,2.325 -1.118,3.573c-1.101,3.292 -2.144,6.637 -3.128,10.037c-0.985,3.399 -1.913,6.796 -2.786,10.191c-0.39,1.472 -0.78,2.915 -1.172,4.331c-0.391,1.416 -0.726,2.857 -1.003,4.324c-0.296,1.02 -0.589,2.096 -0.88,3.227c-0.291,1.132 -0.555,2.234 -0.792,3.308c-0.237,1.073 -0.445,2.174 -0.625,3.301c-0.089,0.564 -0.416,0.801 -0.979,0.711c-0.452,-0.094 -0.792,-0.192 -1.02,-0.295c-1.369,-0.618 -2.17,-1.062 -2.405,-1.333c-0.235,-0.27 -0.381,-1.132 -0.439,-2.586c-0.049,-1.23 0.074,-2.355 0.369,-3.375c0.358,-2.254 0.802,-4.484 1.33,-6.689c0.528,-2.205 1.083,-4.439 1.665,-6.703c0.855,-3.842 1.849,-7.69 2.984,-11.543c1.134,-3.853 2.241,-7.706 3.319,-11.557c0.296,-1.02 0.587,-2.151 0.873,-3.395c0.197,-0.68 0.421,-1.388 0.672,-2.126c0.25,-0.738 0.472,-1.503 0.664,-2.295c0.403,-1.136 0.797,-2.496 1.182,-4.079c-0,-0 -0.059,-0.054 -0.175,-0.161c-0.112,0.004 -0.165,0.062 -0.161,0.174l-3.329,5.005c-1.888,3.211 -3.948,6.317 -6.18,9.319c-0.314,0.572 -0.629,1.089 -0.947,1.549l-1.443,1.738c-0.416,0.8 -0.92,1.493 -1.513,2.076c-0.593,0.584 -1.155,1.222 -1.688,1.916c-0.536,0.581 -1.103,1.108 -1.701,1.579c-0.597,0.472 -1.222,0.945 -1.875,1.419c-0.434,0.353 -0.925,0.681 -1.473,0.983c-0.548,0.302 -1.041,0.573 -1.48,0.815c-1.122,-0.067 -2.141,-0.335 -3.056,-0.802c-0.914,-0.468 -1.774,-0.966 -2.579,-1.494c-1.387,-1.064 -1.95,-2.554 -1.691,-4.468c0.072,-1.011 0.207,-1.857 0.403,-2.537c0.408,-1.024 0.786,-2.075 1.135,-3.153c0.349,-1.078 0.783,-2.131 1.302,-3.16l2.517,-4.3c0.85,-1.154 1.673,-2.279 2.469,-3.375c0.797,-1.096 1.736,-2.113 2.819,-3.052c1.941,-1.87 3.894,-3.46 5.858,-4.77c1.973,-1.087 4.196,-1.511 6.669,-1.274c0.224,-0.009 0.564,0.09 1.02,0.296c0.228,0.103 0.486,0.232 0.772,0.389c0.286,0.157 0.599,0.284 0.939,0.383c0.219,-0.121 0.329,-0.182 0.329,-0.182l1.745,-2.589c1.373,-2.071 2.719,-4.141 4.036,-6.209c1.318,-2.069 2.605,-4.192 3.863,-6.37c0.626,-1.145 1.282,-2.264 1.966,-3.355c0.685,-1.091 1.338,-2.265 1.96,-3.522c0.734,-1.261 1.438,-2.549 2.114,-3.864c0.676,-1.315 1.266,-2.655 1.772,-4.019c1.342,-2.854 2.744,-5.626 4.205,-8.316c1.461,-2.69 3.034,-5.357 4.721,-8l0.161,-0.175c0.425,-0.577 0.946,-0.85 1.564,-0.818c0.617,0.031 1.104,0.32 1.462,0.866Zm-32.421,50.685c0.317,-0.46 0.467,-0.914 0.449,-1.362c-0.451,-0.094 -0.677,-0.141 -0.677,-0.141c-1.548,0.51 -2.754,1.174 -3.617,1.992c-0.649,0.586 -1.326,1.145 -2.033,1.678c-0.707,0.532 -1.327,1.144 -1.859,1.838c-0.644,0.697 -1.261,1.394 -1.849,2.089c-0.588,0.696 -1.146,1.446 -1.674,2.251c-0.846,1.266 -1.663,2.531 -2.453,3.794c-0.79,1.264 -1.493,2.58 -2.111,3.948c-0.201,0.568 -0.405,1.081 -0.611,1.537c-0.206,0.456 -0.411,0.912 -0.617,1.368c-0.103,0.228 -0.148,0.51 -0.135,0.846c0,-0 0.061,0.109 0.182,0.329c0.559,-0.023 1.16,-0.383 1.805,-1.08c0.859,-0.931 1.719,-1.833 2.58,-2.707c0.861,-0.875 1.661,-1.887 2.399,-3.036c0.107,-0.116 0.322,-0.349 0.644,-0.698c0.864,-0.818 1.612,-1.716 2.245,-2.693c0.633,-0.978 1.323,-1.929 2.07,-2.855c0.962,-1.158 1.867,-2.342 2.715,-3.552c0.848,-1.21 1.697,-2.392 2.547,-3.546Z" style="fill:#a50100;fill-rule:nonzero;"/><path d="M868.743,75.662l0.181,0.329c-0.416,0.8 -1.174,1.447 -2.274,1.939c-1.432,0.617 -2.984,1.015 -4.657,1.193c-0.219,0.121 -0.469,0.187 -0.748,0.198c-0.28,0.011 -0.531,0.021 -0.755,0.03c-0.778,0.143 -1.624,0.009 -2.536,-0.403c-0.685,-0.309 -1.313,-0.62 -1.885,-0.933c-0.573,-0.313 -1.145,-0.626 -1.718,-0.939c-1.838,-1.159 -3.236,-2.504 -4.193,-4.033c-0.948,-1.307 -1.625,-2.848 -2.032,-4.624l-0.013,-0.335l-0.195,-0.664c-0.322,0.348 -0.483,0.523 -0.483,0.523c-0.631,1.033 -1.319,2.04 -2.064,3.022c-0.745,0.982 -1.43,2.045 -2.057,3.19c-0.845,1.266 -1.663,2.531 -2.453,3.794c-0.789,1.264 -1.549,2.582 -2.278,3.955l-5.664,9.634c-0.314,0.573 -0.628,1.117 -0.943,1.634c-0.316,0.516 -0.632,1.005 -0.95,1.466c-0.21,0.344 -0.479,0.635 -0.805,0.872l-1.543,-0.779c-0.568,-0.201 -1.085,-0.517 -1.55,-0.946c-0.121,-0.219 -0.267,-0.381 -0.439,-0.487c-0.173,-0.105 -0.373,-0.209 -0.601,-0.312c-0.349,-0.322 -0.476,-0.709 -0.382,-1.16l1.329,-4.59l1.658,-4.77c-0.004,-0.112 -0.009,-0.223 -0.013,-0.335c-0.215,0.232 -0.429,0.493 -0.641,0.781c-0.213,0.289 -0.371,0.547 -0.473,0.775c-0.636,0.922 -1.272,1.815 -1.91,2.68c-0.637,0.866 -1.218,1.757 -1.741,2.674c-0.747,0.926 -1.439,1.849 -2.074,2.771c-0.635,0.921 -1.271,1.842 -1.906,2.764c-0.747,0.925 -1.522,1.852 -2.325,2.78c-0.803,0.928 -1.636,1.802 -2.5,2.62c-1.073,1.163 -2.214,2.048 -3.422,2.657c-0.327,0.237 -0.658,0.362 -0.993,0.375c-0.555,0.134 -1.062,0.042 -1.523,-0.275c-0.116,-0.108 -0.289,-0.213 -0.517,-0.316c-0.228,-0.103 -0.398,-0.152 -0.51,-0.147c-0.688,-0.421 -1.147,-0.683 -1.375,-0.786c-0.465,-0.429 -0.986,-0.856 -1.563,-1.281c-0.693,-0.533 -1.06,-1.302 -1.1,-2.309c-0.157,-1.113 -0.172,-2.205 -0.047,-3.274c0.126,-1.069 0.28,-2.111 0.464,-3.126c0.465,-2.371 1.09,-4.972 1.873,-7.803l0.597,-1.872c0.099,-0.34 0.146,-0.566 0.141,-0.678l-2.17,2.439c-0.589,0.695 -1.147,1.445 -1.675,2.251l-0.168,0.006l-3.207,3.824c-0.537,0.582 -1.103,1.136 -1.698,1.664c-0.595,0.528 -1.277,0.975 -2.047,1.341c-0.765,0.479 -1.478,0.843 -2.14,1.094c-0.439,0.241 -0.996,0.319 -1.671,0.234c-0.112,0.005 -0.396,-0.096 -0.852,-0.302c-0.228,-0.103 -0.456,-0.205 -0.684,-0.308c-0.228,-0.103 -0.459,-0.262 -0.691,-0.477c-0.685,-0.309 -1.257,-0.622 -1.718,-0.939c-0.232,-0.215 -0.493,-0.429 -0.781,-0.641c-0.289,-0.213 -0.493,-0.429 -0.614,-0.648c-0.698,-0.644 -1.009,-1.416 -0.933,-2.315c0.072,-1.011 0.287,-1.943 0.645,-2.798c0.358,-0.854 0.689,-1.679 0.993,-2.475c0.524,-0.917 1.021,-1.805 1.49,-2.664c0.47,-0.859 0.969,-1.69 1.497,-2.495c1.159,-1.839 2.376,-3.623 3.651,-5.354c1.704,-2.196 3.31,-4.052 4.818,-5.568c0.863,-0.819 1.755,-1.638 2.674,-2.459c0.919,-0.821 1.871,-1.531 2.855,-2.13c1.861,-1.082 3.633,-1.601 5.315,-1.556c0.894,-0.035 1.856,0.206 2.885,0.725l1.717,0.94c0.327,-0.237 0.647,-0.642 0.96,-1.214c0.317,-0.461 0.7,-0.7 1.147,-0.718c0.336,-0.013 0.617,0.031 0.846,0.134c0.8,0.416 1.379,0.897 1.737,1.443c0.233,0.215 0.467,0.486 0.704,0.812c0.349,0.322 0.593,0.817 0.732,1.483c0.12,0.219 0.076,0.501 -0.135,0.845c-0.3,0.908 -0.76,1.991 -1.382,3.248c-0.099,0.34 -0.252,0.71 -0.46,1.11c-0.208,0.4 -0.417,0.773 -0.628,1.117c-0.617,1.369 -1.235,2.737 -1.852,4.106c-0.618,1.369 -1.233,2.793 -1.846,4.274c-1.23,2.849 -2.345,5.805 -3.343,8.869c-0.393,1.36 -0.759,2.719 -1.097,4.076c-0.338,1.358 -0.648,2.714 -0.93,4.069c0.009,0.224 -0.011,0.421 -0.061,0.591c-0.049,0.17 -0.069,0.366 -0.06,0.59l0.168,-0.007c0.434,-0.353 0.651,-0.53 0.651,-0.53c1.293,-1.283 2.476,-2.506 3.55,-3.669c0.317,-0.461 0.742,-1.038 1.275,-1.731l3.442,-4.253c0.372,-0.519 0.77,-1.067 1.195,-1.644c0.957,-1.27 1.913,-2.568 2.869,-3.894c0.955,-1.327 1.909,-2.681 2.862,-4.063c0.635,-0.921 1.271,-1.842 1.906,-2.764c0.635,-0.921 1.326,-1.845 2.074,-2.77c0.639,-0.81 1.278,-1.647 1.915,-2.513c0.638,-0.865 1.274,-1.759 1.91,-2.68c0.631,-1.033 1.318,-2.041 2.063,-3.022c0.745,-0.982 1.433,-1.989 2.064,-3.023l2.382,-3.455c0.318,-0.46 0.635,-0.949 0.95,-1.466c0.315,-0.516 0.688,-1.007 1.117,-1.472c0.314,-0.573 0.692,-0.924 1.134,-1.053c0.336,-0.014 0.674,0.029 1.014,0.127c0.46,0.318 0.805,0.528 1.033,0.631c0.59,0.761 1.178,1.465 1.764,2.114c0.233,0.215 0.416,0.599 0.55,1.154c0.116,0.107 0.123,0.275 0.02,0.503c-0.412,0.913 -0.769,1.767 -1.074,2.563c-0.206,0.456 -0.386,0.855 -0.54,1.198c-0.154,0.342 -0.337,0.685 -0.547,1.029l0.007,0.168c0.434,-0.353 0.704,-0.588 0.812,-0.704c0.97,-0.935 1.975,-1.031 3.012,-0.288c1.494,0.948 2.664,2.19 3.509,3.724c0.357,0.546 0.605,1.124 0.741,1.735l0.928,4.331c0.202,0.832 0.43,1.635 0.685,2.409c0.259,0.885 0.782,1.368 1.569,1.449c0.564,0.09 1.072,0.181 1.523,0.275c0.895,-0.035 1.566,-0.062 2.013,-0.08c0.89,-0.147 1.751,-0.322 2.583,-0.523c0.832,-0.201 1.689,-0.487 2.57,-0.858c0.108,-0.116 0.271,-0.235 0.49,-0.356c0,0 0.108,-0.116 0.322,-0.349l1.356,0.282l1.408,1.624l0.51,0.148Zm-64.002,0.198c0.957,-1.27 1.863,-2.426 2.718,-3.468c0.532,-0.693 1.223,-1.617 2.073,-2.771c0.743,-1.037 1.486,-2.075 2.229,-3.113c0.219,-0.12 0.38,-0.295 0.483,-0.523c0.103,-0.228 0.261,-0.458 0.476,-0.691c-0.671,0.027 -1.004,0.096 -1,0.208c-1.002,0.152 -2.158,0.646 -3.469,1.482c-0.984,0.599 -1.853,1.278 -2.607,2.036c-0.753,0.758 -1.508,1.488 -2.264,2.19c-0.756,0.703 -1.56,1.631 -2.41,2.785c-0.536,0.581 -1.071,1.218 -1.603,1.912c-0.533,0.693 -1.065,1.386 -1.598,2.079c-0.85,1.154 -1.616,2.305 -2.298,3.452c-0.682,1.147 -1.391,2.351 -2.124,3.613c-0.313,0.572 -0.6,1.116 -0.859,1.63c-0.26,0.514 -0.49,1.056 -0.692,1.624l0.168,-0.007c0.107,-0.116 0.271,-0.235 0.49,-0.356c0.219,-0.12 0.438,-0.241 0.657,-0.362c1.848,-1.417 3.689,-3.003 5.523,-4.756l4.986,-5.575c0.21,-0.344 0.584,-0.807 1.121,-1.389Z" style="fill:#a50100;fill-rule:nonzero;"/></g><path d="M688.183,65.01c-0.237,-0.237 -0.444,-0.503 -0.621,-0.799c-0.178,-0.295 -0.385,-0.621 -0.621,-0.976c-0.119,-1.892 0.414,-3.666 1.596,-5.322c0.119,-0.119 0.355,-0.296 0.71,-0.533c0.355,-0.355 0.769,-0.414 1.242,-0.177c1.301,0.828 2.129,1.892 2.484,3.194c0.118,0.473 0.118,0.828 0,1.064c-0.355,0.828 -0.739,1.597 -1.153,2.307c-0.414,0.709 -0.799,1.419 -1.153,2.129c-0.119,0.355 -0.414,0.473 -0.888,0.355c-0.828,-0.355 -1.36,-0.769 -1.596,-1.242Z" style="fill:#a50100;fill-rule:nonzero;"/><path d="M702.013,61.029c-0.237,-0.237 -0.444,-0.503 -0.621,-0.798c-0.177,-0.296 -0.384,-0.621 -0.621,-0.976c-0.118,-1.893 0.414,-3.667 1.597,-5.323c0.118,-0.118 0.355,-0.296 0.71,-0.532c0.354,-0.355 0.768,-0.414 1.242,-0.178c1.301,0.828 2.129,1.893 2.484,3.194c0.118,0.473 0.118,0.828 -0,1.064c-0.355,0.828 -0.74,1.597 -1.154,2.307c-0.414,0.71 -0.798,1.419 -1.153,2.129c-0.118,0.355 -0.414,0.473 -0.887,0.355c-0.828,-0.355 -1.36,-0.769 -1.597,-1.242Z" style="fill:#a50100;fill-rule:nonzero;"/></g><g><path d="M394.506,197.77l0,20.483l-6.563,0l0,-50.847l16.156,-0c5.818,-0 10.169,1.358 13.054,4.075c2.885,2.716 4.328,6.431 4.328,11.143c-0,4.76 -1.491,8.474 -4.472,11.143c-2.981,2.669 -7.284,4.003 -12.91,4.003l-9.593,-0Zm9.016,-5.482c3.991,0 6.864,-0.841 8.619,-2.524c1.755,-1.683 2.632,-4.063 2.632,-7.14c0,-3.174 -0.877,-5.59 -2.632,-7.249c-1.755,-1.659 -4.628,-2.488 -8.619,-2.488l-9.016,-0l0,19.401l9.016,0Z" style="fill:#003;fill-rule:nonzero;"/><path d="M456.1,218.253l-13.27,-20.772l-7.141,0l0,20.772l-6.563,0l0,-50.847l16.733,-0c5.77,-0 10.097,1.382 12.982,4.147c2.885,2.764 4.328,6.431 4.328,10.999c-0,4.135 -1.154,7.464 -3.462,9.989c-2.308,2.524 -5.65,4.099 -10.026,4.724l13.848,20.988l-7.429,0Zm-20.411,-25.532l9.593,0c7.453,0 11.179,-3.27 11.179,-9.809c0,-6.539 -3.726,-9.809 -11.179,-9.809l-9.593,0l0,19.618Z" style="fill:#003;fill-rule:nonzero;"/><path d="M494.47,166.756c4.713,0 8.956,1.106 12.73,3.318c3.775,2.212 6.744,5.301 8.908,9.268c2.163,3.967 3.245,8.451 3.245,13.451c0,5.001 -1.082,9.485 -3.245,13.451c-2.164,3.967 -5.133,7.057 -8.908,9.268c-3.774,2.212 -8.017,3.318 -12.73,3.318c-4.712,0 -8.979,-1.106 -12.802,-3.318c-3.822,-2.211 -6.815,-5.301 -8.979,-9.268c-2.164,-3.966 -3.246,-8.45 -3.246,-13.451c0,-5 1.082,-9.484 3.246,-13.451c2.164,-3.967 5.157,-7.056 8.979,-9.268c3.823,-2.212 8.09,-3.318 12.802,-3.318Zm0,6.131c-3.51,-0 -6.647,0.805 -9.412,2.416c-2.764,1.611 -4.928,3.919 -6.491,6.924c-1.563,3.005 -2.344,6.527 -2.344,10.566c0,3.991 0.781,7.501 2.344,10.53c1.563,3.03 3.727,5.35 6.491,6.96c2.765,1.611 5.902,2.416 9.412,2.416c3.462,0 6.576,-0.817 9.341,-2.452c2.764,-1.635 4.928,-3.955 6.491,-6.96c1.562,-3.005 2.344,-6.503 2.344,-10.494c-0,-4.039 -0.782,-7.561 -2.344,-10.566c-1.563,-3.005 -3.727,-5.313 -6.491,-6.924c-2.765,-1.611 -5.879,-2.416 -9.341,-2.416Z" style="fill:#003;fill-rule:nonzero;"/><path d="M552.963,167.406l0,37.793c0,4.183 -1.19,7.488 -3.57,9.917c-2.38,2.428 -5.71,3.642 -9.989,3.642c-4.616,-0 -8.234,-1.358 -10.855,-4.075c-2.62,-2.717 -3.931,-6.527 -3.931,-11.432l6.564,0c-0,2.933 0.649,5.253 1.947,6.96c1.298,1.707 3.294,2.561 5.986,2.561c2.549,-0 4.4,-0.722 5.554,-2.164c1.154,-1.443 1.731,-3.246 1.731,-5.409l-0,-37.793l6.563,-0Z" style="fill:#003;fill-rule:nonzero;"/><path d="M569.696,172.743l-0,17.382l19.329,-0l0,5.048l-19.329,0l-0,17.743l21.493,-0l-0,5.337l-28.056,0l-0,-50.847l28.056,-0l-0,5.337l-21.493,-0Z" style="fill:#003;fill-rule:nonzero;"/><path d="M606.191,213.132l18.031,0l-0,5.121l-24.595,0l0,-50.847l6.564,-0l-0,45.726Z" style="fill:#003;fill-rule:nonzero;"/><path d="M637.493,172.743l-0,17.382l19.329,-0l-0,5.048l-19.329,0l-0,17.743l21.493,-0l-0,5.337l-28.057,0l0,-50.847l28.057,-0l-0,5.337l-21.493,-0Z" style="fill:#003;fill-rule:nonzero;"/><path d="M694.398,218.253l-13.27,-20.772l-7.141,0l0,20.772l-6.563,0l0,-50.847l16.733,-0c5.77,-0 10.097,1.382 12.982,4.147c2.885,2.764 4.328,6.431 4.328,10.999c-0,4.135 -1.154,7.464 -3.462,9.989c-2.308,2.524 -5.65,4.099 -10.026,4.724l13.848,20.988l-7.429,0Zm-20.411,-25.532l9.593,0c7.453,0 11.179,-3.27 11.179,-9.809c0,-6.539 -3.726,-9.809 -11.179,-9.809l-9.593,0l0,19.618Z" style="fill:#003;fill-rule:nonzero;"/></g><path d="M27.933,81.893l-0,-11.588l2.7,0l9.467,-23.024l-0,-5.553l32.432,0l0,4.745l66.009,23.832l23.92,0l-0,11.588l-22.57,0l0,22.006c2.701,0.716 4.7,3.112 4.7,5.98c-0,2.868 -2.003,5.264 -4.7,5.976l0,5.983l-1.631,0c-1.315,0 -2.385,1.038 -2.385,2.318c0,1.279 1.07,2.321 2.385,2.321c1.28,-0 2.364,-1.063 2.364,-2.321l3.262,-0c-0,1.946 -1.038,3.648 -2.592,4.631l8.119,7.96l5.384,0l0,23.722l-33.085,0l0,-23.722l5.388,0l8.116,-7.956c-1.565,-0.984 -2.61,-2.689 -2.61,-4.635c0,-2.49 1.698,-4.598 4.02,-5.282l-0,-3.016c-2.708,-0.708 -4.718,-3.108 -4.718,-5.982c0,-2.875 2.01,-5.275 4.718,-5.983l-0,-22.003l-64.09,-0l-0,82.53l5.969,0l5.717,13.318l-55.798,-0l5.717,-13.318l5.969,0l0,-82.527l-12.177,0Zm97.045,75.382l26.557,0l0,-17.33l-26.557,0l-0,17.33Zm19.82,-20.528l-6.541,-6.412l-6.542,6.412l13.083,0Zm-9.628,-26.868c0,1.664 1.382,3.019 3.08,3.019c1.697,-0 3.076,-1.355 3.076,-3.019c-0,-1.664 -1.379,-3.019 -3.076,-3.019c-1.698,-0 -3.08,1.355 -3.08,3.019Zm-76.548,-15.298l10.648,10.429l0,-20.861l-10.648,10.432Zm8.341,-12.688l-21.294,0l10.649,10.429l10.645,-10.429Zm-10.645,14.947l-12.279,12.028l12.279,12.028l12.279,-12.028l-12.279,-12.028Zm12.952,15.886l-10.648,10.429l10.648,10.429l0,-20.858Zm-12.952,12.691l-12.279,12.028l12.279,12.028l12.279,-12.028l-12.279,-12.028Zm2.304,26.315l10.648,10.429l0,-20.858l-10.648,10.429Zm-2.304,2.259l-10.649,10.429l21.294,0l-10.645,-10.429Zm-2.308,-2.259l-10.648,-10.429l-0,20.858l10.648,-10.429Zm-10.645,-18.145l10.648,-10.429l-10.648,-10.429l0,20.858Zm10.645,-39.006l-10.648,-10.429l-0,20.861l10.648,-10.432Zm-19.862,-24.276l5.952,0l-0,-14.476l-5.952,14.476Zm35.122,-23.12l-10.648,10.429l10.648,10.429l0,-20.858Zm-25.905,20.861l10.648,-10.429l-10.648,-10.429l0,20.858Zm12.953,-12.688l10.645,-10.432l-21.294,-0l10.649,10.432Zm-0,4.518l-10.649,10.429l21.294,0l-10.645,-10.429Zm16.214,-9.995l0,20.424l56.57,0l-56.57,-20.424Zm86.663,23.622l-128,0l-0,5.192l128,0l0,-5.192Zm-122.897,94.115l-2.971,6.922l45.982,-0l-2.971,-6.922l-40.04,0Z" style="fill-rule:nonzero;"/><rect x="729.465" y="194.628" width="157.872" height="3.083" style="fill:#003;"/><rect x="195.306" y="194.628" width="157.872" height="3.083" style="fill:#003;"/></svg>