<?xml version="1.0" encoding="utf-8"?>
<!-- Generator: Adobe Illustrator 25.3.1, SVG Export Plug-In . SVG Version: 6.00 Build 0)  -->
<svg version="1.1" id="katman_1" xmlns="http://www.w3.org/2000/svg" xmlns:xlink="http://www.w3.org/1999/xlink" x="0px" y="0px"
	 viewBox="0 0 500 400" style="enable-background:new 0 0 500 400;" xml:space="preserve">
<style type="text/css">
	.st0{fill:#FFFFFF;}
	.st1{enable-background:new    ;}
</style>
<g>
	<path class="st0" d="M354.6,207.8c-1.7,0-3.4-0.7-4.6-1.9L244.2,100c-1.4-1.4-2.1-3.3-1.9-5.3c2.4-23.6,12.9-45.8,29.7-62.5
		C312.1-8,377.6-8,417.8,32.2s40.2,105.6,0,145.9c-16.8,16.8-39,27.3-62.5,29.7C355.1,207.7,354.8,207.8,354.6,207.8z M255.7,93
		L357,194.3c19.4-2.6,37.6-11.6,51.5-25.5c35.1-35.1,35.1-92.2,0-127.3s-92.2-35.1-127.3,0C267.3,55.4,258.3,73.6,255.7,93z"/>
	<path class="st0" d="M111.9,398c-14.5,0-29.8-6.1-41.7-18.1c-21.7-21.7-24.2-54.6-5.6-73.2L191.2,180c1.2-1.2,2.9-1.9,4.6-1.9
		c1.7,0,3.4,0.7,4.6,1.9l69.5,69.5c2.6,2.6,2.6,6.7,0,9.3L143.3,385.5C135,393.8,123.7,398,111.9,398z M195.8,193.9l-122,122
		c-13.5,13.5-11,38.1,5.6,54.7s41.2,19.1,54.7,5.6l122-122L195.8,193.9z"/>
	<path class="st0" d="M138.7,387.4c-1.7,0-3.3-0.6-4.6-1.9L64.6,316c-2.6-2.6-2.6-6.7,0-9.3c2.6-2.6,6.7-2.6,9.3,0l69.5,69.5
		c2.6,2.6,2.6,6.7,0,9.3C142.1,386.7,140.4,387.4,138.7,387.4z"/>
	<path class="st0" d="M245.2,280.9c-1.7,0-3.4-0.6-4.6-1.9l-34.8-34.8c-2.6-2.6-2.6-6.7,0-9.3s6.7-2.6,9.3,0l34.8,34.8
		c2.6,2.6,2.6,6.7,0,9.3C248.6,280.2,246.9,280.9,245.2,280.9z"/>
	<path class="st0" d="M223.8,302.3c-1.7,0-3.3-0.6-4.6-1.9l-44.7-44.7c-2.6-2.6-2.6-6.7,0-9.3s6.7-2.6,9.3,0l44.7,44.7
		c2.6,2.6,2.6,6.7,0,9.3C227.1,301.7,225.5,302.3,223.8,302.3z"/>
	<path class="st0" d="M202.4,323.7c-1.7,0-3.4-0.6-4.6-1.9L163,287c-2.6-2.6-2.6-6.7,0-9.3c2.6-2.6,6.7-2.6,9.3,0l34.8,34.8
		c2.6,2.6,2.6,6.7,0,9.3C205.7,323.1,204,323.7,202.4,323.7z"/>
	<path class="st0" d="M180.9,345.1c-1.7,0-3.3-0.6-4.6-1.9l-44.7-44.7c-2.6-2.6-2.6-6.7,0-9.3c2.6-2.6,6.7-2.6,9.3,0l44.7,44.7
		c2.6,2.6,2.6,6.7,0,9.3C184.3,344.5,182.6,345.1,180.9,345.1z"/>
	<path class="st0" d="M159.5,366.6c-1.7,0-3.4-0.6-4.6-1.9l-34.8-34.8c-2.6-2.6-2.6-6.7,0-9.3c2.6-2.6,6.7-2.6,9.3,0l34.8,34.8
		c2.6,2.6,2.6,6.7,0,9.3C162.9,365.9,161.2,366.6,159.5,366.6z"/>
	<path class="st0" d="M314,303.9c-5.5-0.1-10.3-2.2-13.9-5.8L151.9,149.9c-3.6-3.6-5.7-8.4-5.8-13.5c-0.1-5.2,1.8-10,5.5-13.6
		l53.5-53.5c7.4-7.4,19.6-7.2,27.2,0.3l148.2,148.2c3.6,3.6,5.7,8.4,5.8,13.5c0.1,5.2-1.8,10-5.5,13.6l-53.5,53.5
		C323.7,302,319,303.9,314,303.9z M218.4,76.9c-1.5,0-2.9,0.5-4,1.6L160.8,132c-1.1,1.1-1.7,2.5-1.6,4.1c0,1.7,0.7,3.3,2,4.5
		l148.2,148.2c1.2,1.2,2.8,1.9,4.5,2c1.5,0,3.1-0.5,4.1-1.6l53.5-53.5c1.1-1.1,1.7-2.5,1.6-4.1c0-1.7-0.7-3.3-2-4.5L222.9,78.9
		C221.7,77.5,220,76.9,218.4,76.9z"/>
	<g class="st1">
		<path class="st0" d="M215.1,139.9c-0.3,3-1.5,5.6-3.7,7.8c-3.2,3.3-6.7,4.7-10.7,4.4c-3.9-0.3-7.9-2.4-12-6.4l-17.6-17.3
			l37.1-37.9l17.2,16.8c3.9,3.8,6,7.5,6.5,11.3c0.5,3.7-0.8,7.2-3.9,10.3c-2.2,2.3-4.7,3.6-7.4,3.9c-2.7,0.3-5.3-0.2-7.7-1.7
			C214.7,134,215.5,136.9,215.1,139.9z M203.3,137.3c1.3-1.4,1.9-2.9,1.8-4.5c-0.1-1.6-1-3.3-2.7-4.9l-6.5-6.3l-8.3,8.5l6.5,6.4
			C197.5,139.8,200.6,140,203.3,137.3z M202.2,115.1l6,5.9c3.2,3.1,6.1,3.3,8.8,0.6c2.7-2.7,2.4-5.7-0.9-8.8l-5.9-5.8L202.2,115.1z"
			/>
		<path class="st0" d="M251.5,151c0.6,2.6,0.5,5.2-0.5,7.8l5.3-5.4l9.1,8.9l-29.3,29.9l-9.1-8.9l5.3-5.4c-2.5,1-5.1,1.2-7.8,0.7
			c-2.7-0.6-5.1-2-7.4-4.2c-2.5-2.4-4.1-5.2-4.8-8.3c-0.7-3.1-0.5-6.4,0.6-9.8c1.1-3.4,3.2-6.7,6.3-9.8c3.1-3.1,6.3-5.3,9.7-6.5
			c3.4-1.2,6.6-1.5,9.8-0.8c3.2,0.7,6,2.2,8.4,4.6C249.4,145.9,250.9,148.3,251.5,151z M235.6,151.8c-2.5,0.1-4.8,1.3-7,3.6
			c-2.2,2.3-3.4,4.7-3.5,7.1s0.9,4.6,2.9,6.6c1.9,1.9,4.2,2.8,6.7,2.7c2.5-0.1,4.9-1.3,7-3.5c2.2-2.3,3.3-4.6,3.4-7.1
			c0-2.5-0.9-4.7-2.8-6.6C240.3,152.6,238,151.7,235.6,151.8z"/>
		<path class="st0" d="M289.3,190.5c0.4,4.1-0.6,8-3.1,11.7l-8.6-8.4c0.9-1.5,1.3-3,1.1-4.5c-0.2-1.6-1-3-2.3-4.3c-1-1-2-1.6-3-1.6
			c-1-0.1-1.9,0.3-2.7,1.1c-0.9,0.9-1.1,2.1-0.6,3.5c0.5,1.4,1.6,3.4,3.3,5.9c1.8,2.8,3.1,5.2,4,7.1c0.9,2,1.3,4.1,1.2,6.4
			c-0.2,2.3-1.3,4.5-3.3,6.6c-1.7,1.7-3.6,2.8-5.9,3.2c-2.2,0.4-4.6,0.1-7.1-0.8c-2.5-1-4.9-2.6-7.3-5c-4-4-6.4-8-7.1-12.2
			c-0.7-4.2,0.3-8.2,3.1-12l8.8,8.7c-1.1,1.4-1.5,2.9-1.3,4.5c0.3,1.6,1.2,3.1,2.7,4.6c1,1,2.1,1.5,3.1,1.6c1,0,1.9-0.3,2.7-1.1
			c1-1,1.2-2.3,0.7-3.7s-1.7-3.4-3.4-6.1c-1.8-2.6-3.1-4.9-4-6.9c-0.9-1.9-1.3-4-1.2-6.2c0.1-2.2,1.2-4.4,3.2-6.4
			c2.6-2.7,5.8-3.9,9.4-3.5c3.7,0.3,7.4,2.3,11.1,6C286.8,182.5,288.9,186.4,289.3,190.5z"/>
		<path class="st0" d="M311.7,207.6l-29.3,29.9l-9.2-9l29.3-29.9L311.7,207.6z"/>
		<path class="st0" d="M343.1,244.4c-0.2,4.3-2.3,8.4-6.2,12.4l-17,17.4l-9.2-9l16-16.3c2-2,3-4.1,3-6.2c0-2.2-0.8-4.1-2.6-5.8
			c-1.9-1.8-3.9-2.7-6.2-2.6s-4.4,1.3-6.6,3.4l-15.5,15.9l-9.2-9l29.3-29.9l9.2,9l-5.4,5.5c2.6-0.9,5.3-1.1,8-0.5
			c2.7,0.6,5.2,2.1,7.5,4.3C341.7,236.4,343.3,240.2,343.1,244.4z"/>
	</g>
</g>
</svg>
