<?xml version="1.0" encoding="utf-8"?>
<!-- Generator: Adobe Illustrator 25.3.1, SVG Export Plug-In . SVG Version: 6.00 Build 0)  -->
<svg version="1.1" id="katman_1" xmlns="http://www.w3.org/2000/svg" xmlns:xlink="http://www.w3.org/1999/xlink" x="0px" y="0px"
	 viewBox="0 0 100 100" style="enable-background:new 0 0 100 100;" xml:space="preserve">
<style type="text/css">
	.st0{fill:#AF2020;}
	.st1{fill:#FFFFFF;}
	.st2{fill:#E51F2A;}
</style>
<g>
	<path class="st0" d="M85.9,37C85.9,17.2,69.8,1.1,50,1.1C30.2,1.1,14.1,17.2,14.1,37S50,100,50,100S85.9,56.8,85.9,37z M23,34
		C23,19.1,35.1,7,50,7c14.9,0,27,12.1,27,27c0,14.9-12.1,27-27,27C35.1,61,23,48.9,23,34z"/>
	<path class="st1" d="M77,34C77,19.1,64.9,7,50,7C35.1,7,23,19.1,23,34c0,14.9,12.1,27,27,27C64.9,61,77,48.9,77,34z M27.2,34
		c0-12.7,10.3-23,23-23c12.7,0,23,10.3,23,23c0,12.7-10.3,23-23,23C37.5,57,27.2,46.7,27.2,34z"/>
	<path class="st2" d="M73.2,34c0-12.7-10.3-23-23-23c-12.7,0-23,10.3-23,23c0,12.7,10.3,23,23,23C62.9,57,73.2,46.7,73.2,34z
		 M59.2,29.4l1.5,3l3.3,0.5l-2.4,2.4l0.6,3.3l-3-1.6l-3,1.6l0.6-3.3l-2.4-2.4l3.3-0.5L59.2,29.4z M34.4,34c0-6.9,5.6-12.5,12.5-12.5
		c3.2,0,6,1.2,8.2,3.1c-1.3-0.6-2.8-1-4.3-1c-5.7,0-10.4,4.6-10.4,10.4c0,5.7,4.6,10.4,10.4,10.4c1.6,0,3-0.3,4.3-1
		c-2.2,1.9-5.1,3.1-8.2,3.1C40,46.5,34.4,40.9,34.4,34z"/>
	<polygon class="st1" points="56.8,35.3 56.2,38.6 59.2,37 62.2,38.6 61.6,35.3 64.1,32.9 60.7,32.4 59.2,29.4 57.7,32.4 54.4,32.9 
			"/>
	<path class="st1" d="M50.8,44.3c-5.7,0-10.4-4.6-10.4-10.4c0-5.7,4.6-10.4,10.4-10.4c1.5,0,3,0.3,4.3,1c-2.2-1.9-5.1-3.1-8.2-3.1
		c-6.9,0-12.5,5.6-12.5,12.5c0,6.9,5.6,12.5,12.5,12.5c3.2,0,6-1.2,8.2-3.1C53.8,44,52.3,44.3,50.8,44.3z"/>
</g>
</svg>
