<?xml version="1.0" encoding="utf-8"?>
<!-- Generator: Adobe Illustrator 25.3.1, SVG Export Plug-In . SVG Version: 6.00 Build 0)  -->
<svg version="1.0" id="katman_1" xmlns="http://www.w3.org/2000/svg" xmlns:xlink="http://www.w3.org/1999/xlink" x="0px" y="0px"
	 viewBox="0 0 500 400" style="enable-background:new 0 0 500 400;" xml:space="preserve">
<style type="text/css">
	.st0{fill:#FFFFFF;}
</style>
<g>
	<polygon class="st0" points="116.34,255.98 109.67,249.31 88.19,270.78 82.68,265.28 76.01,271.95 88.19,284.14 	"/>
	<rect x="134.13" y="256.29" class="st0" width="39.63" height="9.44"/>
	<rect x="109.02" y="286.06" class="st0" width="64.74" height="9.44"/>
	<rect x="75.32" y="315.83" class="st0" width="98.44" height="9.44"/>
	<rect x="75.32" y="345.61" class="st0" width="98.44" height="9.44"/>
	<path class="st0" d="M314.5,76.81c-0.56-2.54-3.06-4.16-5.62-3.59c-16.27,3.58-32.26,5.39-47.5,5.39
		c-15.24,0-31.22-1.81-47.49-5.39c-2.58-0.57-5.06,1.05-5.62,3.59c-0.56,2.55,1.05,5.06,3.6,5.62c16.94,3.73,33.6,5.61,49.52,5.61
		c15.92,0,32.58-1.89,49.53-5.61C313.45,81.87,315.06,79.36,314.5,76.81z"/>
	<path class="st0" d="M402.73,259.7l-77.63-41.79c-7.28-3.95-11.8-11.52-11.8-19.76v-24.9c7.99-11.66,12.87-24.07,14.3-32.47
		c8.27-0.3,14.91-7.8,14.91-16.98v-6.76c0-6.86-3.81-12.94-9.32-15.58c-0.1-2.82-0.36-5.65-0.7-8.46c9.03-2.91,14.5-5.3,15.07-5.56
		l3.79-1.69l-7.41-24.72l-8.66,2.79c-9.02-22.65-25.12-40.21-44.83-49.15c-1.05-7.98-7.26-14.16-14.82-14.16h-28.45
		c-7.56,0-13.77,6.17-14.82,14.14c-19.69,8.92-35.77,26.49-44.79,49.17l-8.69-2.79l-7.4,24.72l3.79,1.69
		c0.58,0.26,6.08,2.67,15.19,5.6c-0.32,2.82-0.7,5.65-0.8,8.42c-5.55,2.63-9.38,8.71-9.38,15.59v6.76c0,9.18,6.64,16.68,14.91,16.98
		c1.44,8.42,6.32,20.86,14.33,32.54v24.81c0,6.47-2.87,12.38-7.63,16.59l-38.75-38.75H53.52c-5.38,0-9.76,4.37-9.76,9.76v204.04
		c0,5.38,4.37,9.76,9.76,9.76h144.93c5.38,0,9.76-4.37,9.76-9.76v-18.84l13.35,19.97l7.85-5.25l-21.2-31.7v-71.29l46.79,107.5h12.82
		l67.79-155.86l10.86,5.85l3.12,41.42l-35.5,17.54l19.82,25.99l-40.48,60.56l7.85,5.25l44.22-66.17l-16.96-22.24l30.94-15.28
		l-3.15-41.75l41.93,22.57c23.16,12.47,37.55,36.55,37.55,62.85v57.4h9.44v-57.4C445.24,301.08,428.95,273.81,402.73,259.7z
		 M185.15,72.95l8.19,2.63l1.52-4.35c7.21-20.65,20.6-37.04,37.28-46.03v18.9c0,2.61,2.11,4.72,4.72,4.72s4.72-2.11,4.72-4.72V17
		c0-3.83,2.57-7.06,5.6-7.06h28.45c3.09,0,5.6,3.17,5.6,7.06v27.1c0,2.61,2.11,4.72,4.72,4.72c2.61,0,4.72-2.11,4.72-4.72V25.21
		c16.7,9.01,30.11,25.4,37.31,46.02l1.52,4.35l8.16-2.63l2.22,7.4c-10.52,4.05-41.5,14.6-78.47,14.6c-36.9,0-67.93-10.56-78.47-14.6
		L185.15,72.95z M195.69,131.34c-3.3,0-5.98-3.39-5.98-7.55v-6.76c0-3.73,2.34-7.02,5.32-7.48l4-0.75v-4.04
		c0-2.96,0.21-5.97,0.51-9.03c15.52,4.3,37.27,8.66,61.86,8.66c24.6,0,46.35-4.36,61.87-8.67c0.31,3.03,0.52,6.08,0.52,9.16v4.04
		l3.99,0.62c2.96,0.46,5.28,3.75,5.28,7.48v6.76c0,4.16-2.69,7.55-5.99,7.55h-8.47v4.72c0,12.66-20.84,59.13-57.25,59.13
		c-36.37,0-57.19-46.47-57.19-59.13v-4.72H195.69z M261.35,204.62c17.45,0,31.71-8.48,42.5-19.68v13.21
		c0,5.89,1.63,11.54,4.57,16.41l-47.01,42.19l-47.08-42.21c2.95-4.87,4.62-10.5,4.62-16.42v-13.12
		C229.72,196.17,243.94,204.62,261.35,204.62z M270.44,296h-9.38h-9.31l-8.38-12.64l18.02-14.23l17.63,13.91L270.44,296z
		 M165.89,192.06l26.1,26.1l-26.1-0.22V192.06z M53.2,389.74l0.32-204.36h102.94v32.55c0,5.38,4.37,9.76,9.75,9.76h32.55
		l-0.31,162.37L53.2,389.74z M208.2,221.87c0.03-0.02,0.05-0.05,0.08-0.08l45.81,41.07l-32.9,25.98l-12.99-29.86V221.87z
		 M235.93,289.23l8.31,12.53l-4.96,28.59l-14.17-32.57L235.93,289.23z M261.4,381.21l-15.27-35.12l7.06-40.66h7.87h7.88l7.27,41.73
		L261.4,381.21z M283.05,331.44l-5.16-29.6l8.56-12.93l11.24,8.87L283.05,331.44z M301.58,288.83l-32.88-25.95l45.76-41.07
		c1.85,1.67,3.88,3.17,6.14,4.4l6.66,3.58L301.58,288.83z"/>
</g>
</svg>
