<?xml version="1.0" encoding="utf-8"?>
<!-- Generator: Adobe Illustrator 25.3.1, SVG Export Plug-In . SVG Version: 6.00 Build 0)  -->
<svg version="1.1" id="katman_1" xmlns="http://www.w3.org/2000/svg" xmlns:xlink="http://www.w3.org/1999/xlink" x="0px" y="0px"
	 viewBox="0 0 100 79.8" style="enable-background:new 0 0 100 79.8;" xml:space="preserve">
<style type="text/css">
	.st0{fill:#FFFFFF;}
</style>
<g>
	<g>
		<rect x="48.5" y="10.6" class="st0" width="2.4" height="67"/>
	</g>
	<g>
		<path class="st0" d="M76.4,78.8H23l5.1-7.8V24l6.4-4.4v5.8l1.7-1.2v-5.8l6.4-4.4v5.8l1.7-1.2v-5.8l5.3-3.6l5.3,3.6v5.8l1.7,1.2V14
			l6.4,4.4v5.8l1.7,1.2v-5.8l6.4,4.4v47L76.4,78.8z M27.4,76.4H72l-3.1-4.7V25.3l-1.7-1.2v5.8l-6.4-4.4v-5.8l-1.7-1.2v5.8l-6.4-4.4
			V14l-2.9-2l-2.9,2v5.8l-6.4,4.4v-5.8l-1.7,1.2v5.8l-6.4,4.4v-5.8l-1.7,1.2v46.5L27.4,76.4z"/>
	</g>
	<g>
		<path class="st0" d="M36.2,48.3v-10c0-1.7,1.4-3.2,3.1-3.2c1.7,0,3.2,1.4,3.2,3.2v8.1L36.2,48.3z M39.4,37.5
			c-0.4,0-0.8,0.4-0.8,0.8v6.8l1.6-0.5v-6.4C40.2,37.9,39.8,37.5,39.4,37.5z"/>
	</g>
	<g>
		<path class="st0" d="M62.8,48.3l-6.3-1.9v-8.1c0-1.7,1.4-3.2,3.1-3.2c1.7,0,3.2,1.4,3.2,3.2V48.3z M58.9,44.7l1.6,0.5v-6.8
			c0-0.4-0.4-0.8-0.8-0.8c-0.4,0-0.8,0.4-0.8,0.8V44.7z"/>
	</g>
	<g>
		<g>
			<rect x="10.5" y="54.3" class="st0" width="2.4" height="3.2"/>
		</g>
		<g>
			<g>
				<rect x="8.4" y="41.4" class="st0" width="2.4" height="6.6"/>
			</g>
			<g>
				<rect x="12.3" y="38.6" class="st0" width="2.4" height="6.7"/>
			</g>
			<g>
				<path class="st0" d="M14.6,78.8H0L4.4,71V43.5l14.2-9.8v38L14.6,78.8z M4.1,76.4h9.2l3.1-5.4V38.2l-9.5,6.6v26.9L4.1,76.4z"/>
			</g>
		</g>
		<g>
			
				<rect x="16.2" y="39.1" transform="matrix(0.8234 -0.5675 0.5675 0.8234 -18.745 20.4006)" class="st0" width="14.4" height="2.4"/>
		</g>
		<g>
			<rect x="13.9" y="76.4" class="st0" width="7" height="2.4"/>
		</g>
	</g>
	<g>
		<g>
			<rect x="86.5" y="54.3" class="st0" width="2.4" height="3.2"/>
		</g>
		<g>
			<g>
				<rect x="88.7" y="41.4" class="st0" width="2.4" height="6.6"/>
			</g>
			<g>
				<rect x="84.8" y="38.6" class="st0" width="2.4" height="6.7"/>
			</g>
			<g>
				<path class="st0" d="M99.4,78.8H84.8l-4-7.1v-38l14.2,9.8V71L99.4,78.8z M86.2,76.4h9.2l-2.7-4.8V44.7l-9.5-6.6V71L86.2,76.4z"
					/>
			</g>
		</g>
		<g>
			
				<rect x="74.9" y="33.1" transform="matrix(0.5672 -0.8236 0.8236 0.5672 -0.2871 80.0799)" class="st0" width="2.4" height="14.4"/>
		</g>
		<g>
			<rect x="78.6" y="76.4" class="st0" width="7" height="2.4"/>
		</g>
	</g>
</g>
</svg>
