<?xml version="1.0" encoding="utf-8"?>
<!-- Generator: Adobe Illustrator 25.3.1, SVG Export Plug-In . SVG Version: 6.00 Build 0)  -->
<svg version="1.1" id="katman_1" xmlns="http://www.w3.org/2000/svg" xmlns:xlink="http://www.w3.org/1999/xlink" x="0px" y="0px"
	 viewBox="0 0 100 100" style="enable-background:new 0 0 100 100;" xml:space="preserve">
<style type="text/css">
	.st0{fill:#FFFFFF;}
</style>
<path class="st0" d="M32,15c0-9.1-6-14.8-13.5-14.8S4.9,5.9,4.9,14.9c0,11.8,9.5,17.1,12.6,18.5c-0.7,5.3,0.9,10.5,2.2,15.6
	c1.4,5.5,2.3,12.1-1.9,16.7C17,66.6,18.2,67.9,19,67c8.9-9.8-1.4-22.5,0.3-33.6C22.3,32,32,26.7,32,15z"/>
<g>
	
		<ellipse transform="matrix(3.839846e-03 -1 1 3.839846e-03 26.8585 122.1726)" class="st0" cx="74.8" cy="47.6" rx="7.1" ry="7.1"/>
	
		<ellipse transform="matrix(3.839819e-03 -1 1 3.839819e-03 -11.2985 87.8809)" class="st0" cx="38.5" cy="49.6" rx="7.1" ry="7.1"/>
	<path class="st0" d="M54.9,72.9L54.9,72.9c-0.8-1-0.7-2.4,0.2-3.2l11.2-10.6c0.7-0.7,1.6-1,2.6-1l5.9,0l5.9,0c1,0,1.9,0.4,2.6,1
		l11.2,10.6c0.9,0.9,1,2.2,0.2,3.2v0c-0.8,1-2.2,1.2-3.3,0.5l-8.4-6l-1.4,10l2.6,21.3l-6.9,0l-2.6-14.2l-2.6,14.2l-6.9,0l2.6-21.3
		l-1.4-10l-8.4,6C57.1,74.1,55.7,73.9,54.9,72.9z"/>
</g>
<g>
	<path class="st0" d="M55.5,73.4l-10.2-5.2l4.5,16.9L45,85.2l-0.2,11c0,1.4-1.2,2.5-2.6,2.6l0,0c-1.4,0-2.5-1-2.6-2.3l-1.1-11
		l-1.1,11.1c-0.1,1.3-1.3,2.4-2.6,2.4h0c-1.4,0-2.6-1.1-2.6-2.6l-0.3-11l-4.9,0l4.4-16.9L18.2,58.1c-0.9-0.7-1.1-1.9-0.5-2.8l0,0
		c0.6-1,1.8-1.3,2.8-0.8l11.4,5.6l12.8,0l11.5,8.9c0.9,0.7,1.1,1.9,0.5,2.9L55.5,73.4z"/>
</g>
</svg>
