<?xml version="1.0" encoding="utf-8"?>
<!-- Generator: Adobe Illustrator 25.3.1, SVG Export Plug-In . SVG Version: 6.00 Build 0)  -->
<svg version="1.1" id="katman_1" xmlns="http://www.w3.org/2000/svg" xmlns:xlink="http://www.w3.org/1999/xlink" x="0px" y="0px"
	 viewBox="0 0 100 100" style="enable-background:new 0 0 100 100;" xml:space="preserve">
<style type="text/css">
	.st0{fill-rule:evenodd;clip-rule:evenodd;fill:#FFFFFF;}
</style>
<path class="st0" d="M49.1,99.4c0,0-0.6-1.5-0.9-7C47.9,87,48,83.7,48,83.7s0.7,0.3,0.6,0.5c-0.1,0.3-0.3,0.4-0.3,0.7
	c0.1,0.3,0.5,0.1,0.4,0.5c-0.1,0.3-0.2,0.7-0.1,0.9c0.2,0.1,0.4,0.2,0.4,0.1c0-0.2,0,0.1,0.3,0.2c0.3,0.1,0.4-0.1,0.3-0.3
	c-0.1-0.2-0.3-0.6-0.2-0.9c0.1-0.2,0.2-0.6,0.3-0.3c0.1,0.3,0,0.3,0,0.6c0,0.3,0.3,0.3,0.2,0.6c-0.1,0.3-0.2,0.4,0,0.5
	c0.2,0.1,0.3-0.1,0.4-0.1c0.2,0.1-0.1,0.4,0.2,0.5c0.2,0,0.3,0.1,0.3-0.2c0-0.3,0.3-0.4,0.4-0.1c0.1,0.2,0.7,0.1,0.5-0.1
	C51.6,86.4,51,86,51.5,86c0.4,0,0.4,0.2,0.6,0.4c0.1,0.2,0.2,0.3,0.3,0.1c0.1-0.3,0.3-0.5,0.5-0.3c0.2,0.2,0.1,0.4-0.1,0.6
	c-0.1,0.3,0.1,0.4-0.2,0.6c-0.3,0.2,0,0.7,0.2,0.5c0.2-0.1,0.3-0.4,0.3-0.2c0.1,0.3,0.2,0.4,0.3,0.2c0.1-0.1,0.1-0.1,0-0.2
	c0.1,0,0.2-0.1,0.3-0.1c0.3,0,0.2,0.2,0.3,0.5l0,0c0,0-0.1,0-0.1,0c-0.1,0.1-0.3,0.4-0.6,0.4c-0.3-0.1-0.4,0.1-0.4,0.3
	c0,0.2,0.3,0,0.5,0.2c0.2,0.1,0.2,0.1,0.5,0c0.3,0,0.6-0.1,0.4,0.1c-0.2,0.2-0.4,0.2-0.6,0.3c-0.2,0.1-0.3,0-0.3,0.3
	c0,0.3,0.2,0.2,0.2,0.4c-0.1,0.1-0.2,0.1-0.1,0.4c0.1,0.3,0.4,0,0.4,0.2c0,0.2,0.3,0.2,0.3-0.1c0.1-0.3,0.5-0.7,0.6-0.5
	c0.1,0.2,0.2,0.4,0.3,0.2c0.1-0.2,0-0.1,0.4-0.7c0.4-0.5,0.5-0.2,0.7-0.1c0.2,0.1,0-0.1,0.3-0.2c0.3-0.1,0.2,0.3,0,0.4
	c-0.2,0.1-0.2,0.1-0.3,0.4c-0.1,0.3,0.2,0.4,0.3,0.3c0.1-0.2,0-0.3,0.2-0.4c0.2-0.1,0.1-0.1,0.2-0.4c0.1-0.3,0.4-0.3,0.7-0.4
	c0.3-0.1-0.1-0.3,0.2-0.4c0.1-0.1,0.2-0.1,0.3,0c-0.3,0.3-0.4,0.6-0.2,0.7c0.1,0.1,0.3,0,0.4-0.1c0,0,0,0.1-0.1,0.2
	c-0.2,0.4-0.1,0.7,0.1,0.6c0.1,0,0.1,0,0.1-0.1c0,0,0.1,0,0.1,0.1c0.4,0.2,0.7-0.2,1-0.7c0.3-0.3,0.4-0.5,0.6-0.7
	c0,0.1,0,0.3,0.1,0.3c0.1-0.1,0.1-0.2,0.2-0.4l0.1-0.1c0.4-0.2,0.6-0.4,0.6-0.9l0-0.1v0c0.1,0.2,0.2,0.3,0.4,0.2
	c0,0.1,0,0.1,0.1,0.2c0.3,0.3,0.6,0.3,0,0.7c-0.6,0.4-0.8,1.3-1.4,1.8c-0.7,0.4-1.6,0.3-2.4,0.8c-0.8,0.6-0.3,1.1,0,0.9
	c0.4-0.2-0.3,0.3-0.2,0.6c0.1,0.3,0.8,0.3,1.3-0.4c0.5-0.7,0.9-1.2,1.1-1.1c0.2,0.1,0,0.5,0.4,0.7c0.5,0.1,0.5,0,0.3-0.6
	c-0.2-0.6-0.5-0.5,0.1-0.9c0.3-0.2,0.7-0.3,0.9-0.3c-0.2,0.1-0.3,0.1-0.3,0.3c0,0.1,0.2,0,0.3,0.1c0,0.1-0.1,0.1-0.1,0.1
	c-0.5,0.6-0.8,0.8-0.5,1.1c0.3,0.3,0.5,0,0.7-0.4v0c0.1,0.1,0.2,0.1,0.3-0.1c0-0.1,0-0.3,0-0.5c0.2-0.3,0.3-0.4,0.4,0.2
	c0.1,0.9,0.3,1.7,0.6,1.1c0.2-0.6,0.1-0.5,0-1.1c0-0.7,0.2-1.1,0.5-1.1c0.3,0.1-0.1,0.5,0.1,0.8c0.2,0.3,0.6,0.3,0.6-0.1
	c0.1-0.4,0.5-1.2,0.8-1.2c0.2,0,0.3,0.1,0.2,0.2c0,0.1,0,0.3-0.1,0.4c-0.2,0.3-0.1,0.6,0.2,0.6c0.3,0.1,0.4-0.3,0.5-0.8
	c0.1-0.3,0.2-0.4,0.4-0.6c0.1,0.1,0.1,0.1,0.1,0.1c0.1,0.5-0.6,10.2-0.6,10.3h3.3c-0.9-1.8-0.3-7.3-0.5-9.9c0.1,0.1,0,0.2,0.1,0.6
	c0,0.4,0.6,0.2,0.4-0.1c-0.2-0.3,0.3-0.3,0.5-0.2c0.2,0.1,0.6,0.1,0.6,0.5c0,0.4,0.2,0.4,0.4,0.4c0.2,0,0.6,0.6,0.8,1
	c0.2,0.4,0.7,0.6,0.6,0.2c-0.2-0.3-0.6-0.5-0.6-0.8c0-0.3,0.2-0.1,0.4-0.2c0.1-0.1,0-0.3-0.3-0.3c-0.3,0-0.6-0.4-0.7-0.6
	c-0.1-0.2-0.2-0.3-0.5-0.3c-0.3,0-0.6-0.3-0.6-0.4c0.1-0.1,0.5-0.4,0.6-0.4c0.1,0,0.1,0.1,0.1,0.2c0,0,0,0.2,0.1,0.2
	s0.2-0.1,0.3-0.4c0.1,0,0.1-0.1,0.3,0.1c0.3,0.3,0.4,0,0.9,0.2s0.4,0.1,0.6,0.4s0,0.4-0.3,0.7c-0.3,0.3-0.3,0.6,0.2,0.7l0,0
	c0,0.1-0.1,0.1-0.1,0.1c-0.2,0.2-0.1,0.4,0.2,0.4c0.3,0,0.1,0.2,0.1,0.6s0.3,0.4,0.5,0.2c0.2-0.1,0-0.5,0.1-0.5c0.1,0,0.3,0,0.3-0.2
	c0-0.2-0.4-0.2-0.2-0.6c0.2-0.4,0.2-0.7,0.4-0.6c0.3,0.1-0.1,0.6,0.1,0.8c0.2,0.2,0.3,0.4,0.3,0.7c0.1,0.3,0.1,0.3,0.3,0.3
	c0.1,0,0.1-0.2,0.1-0.7c-0.1-0.4-0.4-0.8-0.2-0.9c0.2-0.2,0.6,0.4,0.9,0.8c0.3,0.3,0.4,0.1,0.3-0.1c-0.2-0.2-0.9-0.8-1.1-1.4
	c0-0.1-0.1-0.2-0.1-0.2c0.1,0.1,0.1,0.1,0.2,0.4c0.2,0.4,0.5,0,0.6-0.3c0.1-0.2,0-0.3-0.4-0.6C75,89,75,88.9,74.9,88.9
	c0.1-0.2,0.4-0.1,0.6,0.3c0.1,0.3,0.3,0.2,0.4,0.2c-0.1,0.4,0.2,0.2,0.2,0.6c0,0.4,0.3,0.5,0.6,0.4c0.1,0,0.2-0.2,0.2-0.4l0,0
	c0.2,0.3,0.3,0.1,0.3,0.3c0,0.3,0,0.2,0.2,0.3c0.2,0.1,0.4,0.2,0.4,0.5c0.1,0.3,0.2,0.5,0.4,0.4c0.1-0.1-0.2-0.7,0-0.6
	c0.2,0.1,0.4,0.3,0.5,0.5c0.1,0.3,0.3,0.3,0.3,0.1c-0.1-0.3-0.2-0.7-0.3-0.9c-0.2-0.2,0.1-0.3,0.3-0.4c0.1-0.2-0.1-0.3-0.2-0.2
	c-0.1,0.2-0.6,0-0.9-0.1c-0.3-0.1,0-0.2,0.1-0.3c0.1-0.1-0.2-0.4,0.1-0.3c0.3,0,0.3,0.3,0.5,0.2c0.1,0,0.2-0.1,0.2-0.1v0
	c0.1,0.1,0.1,0.1,0.2,0.2c0.2,0.3,0.4,0.2,0.5,0.1h0c0.1,0,0.1,0,0.2-0.1c0,0,0,0,0-0.1c-0.8-0.5,0.6-0.1-0.3-0.9
	c-0.4-0.4,0.2-0.3,1.3,0.1c0.1-0.1,0.3-0.5,0.3-0.5c0-0.1-0.1,0-0.3,0.1c-0.1-0.1-0.2-0.1-0.3-0.2c-0.3-0.3,0.3,0.1,0.6-0.2
	c0.4-0.2-0.3-1-0.4-1.2c0-0.1,0-0.2,0.1-0.3l0.1,0c0.3,0.2,0.6,0.2,0.6,0c0-0.2-0.3-0.1-0.3-0.3c0-0.2,0.4,0.2,0.4-0.1
	c0.1-0.3-0.3-0.1-0.4-0.3c-0.1-0.3,0.3-0.1,0.2-0.3c-0.1-0.2,0.3-0.1,0.3-0.3c0-0.2-0.2-0.3-0.4-0.3c-0.2,0-0.4-0.1-0.4-0.3
	c0-0.2-0.3-0.1-0.4-0.1c-0.2-0.1,0-0.4,0.3-0.4c0.1,0,0.1,0,0.2,0c0.1,0.1,0.3,0.3,0.7,0.5c0.8,0.6,0.7,0.4,0.9,0.1
	c0.2-0.3-0.8-0.7-0.4-0.7c0.4,0,0.4,0.3,0.9,0.3c0.6,0.1,0-0.5,0.5-0.8c0.5-0.3,0.1-0.4-0.4-0.8c-0.4-0.5-0.1-0.6,0.2-0.6
	c0.3-0.1,0.3-0.3,0.1-0.6c-0.1-0.3-0.5-0.1-0.9,0c-0.4,0.1-0.4-0.3,0.1-0.5c0.5-0.1,0.3-0.3,0.4-0.7c0.1-0.4-0.4-0.2-0.4-0.4
	c0.1-0.3-0.2-0.6-0.5-0.5c-0.4,0.1-0.4,0.4-1.1,0.7l0,0c-0.1,0-0.1,0-0.2-0.1c-0.3-0.1-0.6-0.1-0.7-0.2c0.1-0.2,0.3-0.3,0.3-0.6
	c-0.1-0.4,0.1-0.6,0.8-0.2c0.7,0.5,0.9,0.1,0.8-0.2c-0.2-0.3-0.9-0.4-0.5-0.4c0.4,0,0.7,0,0.7-0.3c-0.1-0.3,0.1-0.3,0.5-0.5
	c0.4-0.1,0.5-0.4,0.4-0.6c0-0.2-0.3-0.3-0.3-0.5c0-0.2,0.9-0.3,0.7-0.7c-0.2-0.4-0.3-0.4-0.7-0.4c-0.4,0.1-0.4,0.3-0.7,0.5
	c-0.3,0.2-0.1-0.1-0.5-0.2c-0.4-0.1-0.4,0.4-0.6,0.5c-0.2,0.1-0.3-0.1-0.5-0.3c0.2,0,0.3-0.2,0.1-0.3c-0.3-0.3-0.8-0.3-0.5-0.3
	c0.3,0,0.6-0.2,0.5-0.4c-0.1-0.2,0.1-0.4,0.3-0.5c0.2-0.2,0.1-0.6-0.5-0.2c-0.6,0.4-1.2,0.4-1.1,0.2c0.1-0.2,0-0.3-0.4-0.3
	c-0.3,0.1-0.9,0.4-1.2,0.3c0.3-0.1,0.5-0.1,0.6-0.2c0.2-0.2,0.4-0.4,0.2-0.6c-0.2-0.2-1.4,0-1.6-0.3l-0.1-0.1c0-0.2-0.1-0.3-0.4-0.3
	c-0.1,0-0.1-0.1-0.2-0.1c-0.3-0.1-0.1-0.2,0.3-0.3c0.1,0.2,0.3,0.3,0.6,0.2c0.2,0,0.3-0.1,0.4-0.1c0.2,0,0.4,0,0.5,0l0.1,0
	c0.4,0.1,0.8,0,0.6-0.4c0.4,0.1,0.5-0.1,0.4-0.2c0-0.2-0.4-0.4-0.1-0.5c0.3-0.1,0.7,0,1,0c0.3,0,0.7-0.1,0.9,0.3
	c0.3,0.4,0.8,0.3,1,0.1c0.2-0.2,0-0.3-0.1-0.5c-0.2-0.2,0-0.5,0.1-0.8c0.1-0.3,0.4-0.2,0.8-0.3c0.3-0.1,0.4,0,0.4-0.6
	c0-0.7,0.6-0.3,0.8-0.6c0.2-0.3-0.3-0.6-0.7-0.6c-0.3,0-0.5,0.3-0.8,0.3c-0.4,0-0.3,0.4-0.6,0.5c-0.4,0.1-0.3-0.2-0.5-0.1
	c-0.2,0.1-0.8,0.5-1.3,0.4c-0.4-0.1,0.1-0.4,0.6-0.6c0.5-0.2,0.6-0.4,0.5-0.7c-0.1-0.3-0.4,0.1-0.6-0.1c-0.3-0.2,0.4-0.4,0.3-0.9
	c-0.1-0.5-0.4,0.3-0.8,0.4c-0.1-0.1-0.2-0.1-0.3-0.1c-0.1-0.1-0.1-0.2-0.3-0.1c-0.1-0.1-0.1-0.1-0.3-0.1c-0.3,0-0.4,0.2-0.6,0.4
	c-0.4-0.1-0.5-0.2-0.8-0.3c-0.3-0.1-0.6,0.3-0.9,0.4c-0.3,0.1-0.6,0.3-0.9,0.1l-0.1-0.1c0-0.1,0-0.1-0.1-0.2h0
	c0-0.1,0.1-0.2,0.3-0.3c0.3-0.4,0.3-0.1,0.5,0.1c0.2,0.2,0.9,0.1,1-0.2c0.1-0.3,0.6-0.3,0.9-0.3c0.4,0,0.5-0.4,0.1-0.5
	c-0.3-0.1-0.3-0.1-0.6-0.3h0c0.3,0,0.4-0.1,0.3-0.5c-0.1-0.3,0.2-0.3,0.1-0.5c0.1-0.1,0.3-0.1,0.4-0.2c0.5-0.2,0.2-0.3,0.5-0.4
	c0.4-0.1,0.3-0.5,0-0.7c-0.3-0.1-0.5,0.2-0.9,0c-0.4-0.2-0.5-0.1-1.2-0.1c-0.6,0-0.3-0.1-0.5-0.1c0.1-0.1,0-0.2-0.2-0.3
	c-0.1-0.1-0.2-0.1-0.3,0c0.3-0.3,0.7-0.3,1.3,0c0.6,0.3,0.5,0.3,0.9,0.4c0.4,0.1,0.7-0.1,0.8-0.4c0.1-0.3-0.6-0.1-0.4-0.6
	c0.2-0.4,0.4-0.2,0.4-0.6c0-0.4,0.2-0.4-0.1-0.7c-0.3-0.3-0.1-0.3,0-0.5c0.1-0.2-0.4-0.7-1.1-0.5c-0.7,0.1-1,0.1-0.8-0.3
	c0.1-0.3-0.1-0.6-0.4-0.5c-0.2,0.1-0.4,0.1-0.5,0.1c0-0.1,0.1-0.3,0.3-0.4c0.2-0.1,0.2-0.3,0-0.5c0.3-0.1,0.4-0.2,0.5-0.5
	c0.2-0.4,0.3-0.3,0.7-0.5c0.4-0.1,0.4-0.5,0.3-0.7c-0.1-0.2-0.5,0.2-0.8,0.1c-0.3-0.1-0.6,0.1-1.2,0.5c-0.1,0.1-0.2,0.1-0.3,0.1
	c-0.1,0-0.2,0.1-0.3,0.1c-0.2,0-0.2-0.1-0.2-0.2c0.2-0.2,0.3-0.4,0.4-0.6c0.2-0.4,0.6,0,1.1-0.3c0.4-0.3,0.1-0.5-0.2-0.6
	c-0.3-0.1,0-0.6-0.2-0.9c-0.2-0.3-0.1-0.2-0.1-0.6c0.1-0.3,0.1-0.6-0.6-0.5c-0.6,0.2-0.4,0.8-0.8,0.8c-0.4,0-0.9-0.2-1-0.4
	c-0.1-0.3,0.1-0.3,0.7-0.5c0.5-0.2,0.7,0,1.2-0.4c0.5-0.3,0.5-0.4,0.7-0.6c0.3-0.2,0.3-0.5-0.1-0.7c-0.4-0.3-0.8,0.3-1.2,0.3
	c-0.5,0,0.1-0.3,0.3-0.5c0.2-0.2,0.1-0.6-0.1-0.6c-0.2,0-0.8-0.2-0.5-0.2c0.3,0,0.2-0.2,0.8-0.6c0.5-0.4,0.5,0.1,0.8-0.2
	c0.3-0.3,0.2-0.6,0-0.7c-0.1-0.1-0.5-0.5-0.3-0.8c0.2-0.3,0.4-0.4,0.3-0.6c-0.1-0.1-0.3-0.2-0.4-0.4v0c0,0,0,0,0,0
	c-0.1-0.2,0-0.6,0.1-0.8c0.1-0.2-0.1-0.3-0.4-0.3c-0.3,0-0.4-0.3-0.3-0.4c0.1-0.1,0.1-0.3,0.1-0.6c-0.1-0.3-0.2,0.1-0.5,0
	c-0.3,0-0.1-0.3-0.3-0.2c-0.2,0.1-0.6,0.4-0.7,0.3c-0.1,0-0.3-0.1-0.1-0.4c0.1-0.3-0.1-0.4-0.4-0.4c-0.3-0.1-0.1,0.4-0.4,0.6
	c-0.4,0.1,0,0.3-0.3,0.6c0,0-0.1,0.1-0.1,0.1c-0.1-0.1-0.2-0.2-0.4-0.2c-0.1,0-0.1,0-0.1,0c0.1-0.2,0.4-0.4,0.3-0.6l0,0
	c0.1-0.1,0-0.3,0.2-0.3c0.1-0.1,0.1-0.1,0.1-0.2c0.1,0,0.2,0,0.3,0.1c0.4,0.1,0.7-0.3,0.4-0.7c-0.3-0.4-0.5-0.1-0.4-0.4
	c0.1-0.3,0-0.3-0.3-0.4c-0.3-0.1-0.8,0.5-1,0.6c-0.1,0-0.1,0.1-0.1,0.1c0,0,0.2-0.1,0.3-0.3c0.2-0.2,0-0.2-0.1-0.3
	c0.1-0.1,0.1-0.1,0.2-0.2c0,0,0,0,0-0.1c0.1-0.2,0.3-0.4,0.2-0.5c-0.1-0.2,0.1-0.2,0.5-0.4c0.4-0.3,0.2-0.6-0.2-0.6
	c-0.3,0-0.6,0.1-0.9,0.2c-0.3,0.1,0.4-0.3,0.9-0.6c0.4-0.3,0.2-0.4,0.1-0.6c-0.1-0.3,0.2-0.3,0.4-0.5c0.2-0.2-0.1-0.4-0.3-0.6
	c-0.2-0.2-0.4,0.3-0.7,0.4c-0.3,0.1-0.4,0.3-0.6,0.1c-0.2-0.1-0.1-1-0.5-0.8c-0.4,0.2,0,0.6-0.2,1c-0.1,0.3-0.1,0.4-0.1,0.6
	c-0.2,0.1-0.4,0.3-0.4,0.3l0,0l0,0c0,0,0-0.1,0.1-0.1c0.3-0.4-0.1-0.3-0.2-0.6c-0.1-0.3,0.1-0.3-0.1-0.3c-0.1,0-0.1,0-0.1,0v0
	c0.1-0.4,0.6-0.5,0.8-0.8c0.1-0.2,0-0.3-0.1-0.4c0.1-0.1,0.1-0.2,0-0.3c-0.1-0.1-0.2-0.1-0.3,0c-0.1-0.2,0.8-0.8,0.8-1.1
	c0-0.3-0.2-0.4-0.6-0.1c-0.4,0.3-0.6,0.8-0.7,0.8h0c0-0.1,0.1-0.1,0.1-0.1c0-0.1,0.2-0.4,0.4-0.5c0.2-0.1,0.2-0.4,0-0.4
	c-0.2-0.1-0.3,0.3-0.5,0.3c-0.1,0-0.2,0-0.3,0.1c-0.1-0.1-0.3-0.3-0.3-0.4c0.1-0.3,0.7-0.9,0.8-0.9c0.1-0.1,0.9-0.5,0.7-0.9
	c-0.2-0.4,0.1-0.3,0.3-0.8c0.3-0.4-0.3-0.8-0.3-1.1c0-0.3-0.1-0.3-0.3-0.3c-0.3,0-0.4-0.2-0.2-0.4l0,0l0,0c0,0,0.1-0.1,0.1-0.1
	c0.2-0.1,0.4-0.5,0.5-0.8c0.1-0.4,0.4-0.3,0.4-0.7c0.1-0.4-0.6-0.4-0.7-0.1c-0.1,0.3-0.6,0.4-0.7,0.3c-0.1,0-0.5-0.5-0.1-0.8
	c0.4-0.3,0.4-0.8,0-0.5c-0.4,0.3-0.6,0.5-0.7,0.3c-0.1-0.3,0.1-0.1,0.3-0.6c0.2-0.5-0.4-0.3-0.1-0.7c0.3-0.4,0.2-0.7-0.2-0.7
	c-0.4-0.1-0.3,0.5-0.5,0c-0.2-0.5,0.1-0.5,0.2-1.4c0-0.7-0.4-0.5-0.6-0.3c0-0.2-0.2-0.2-0.3-0.2c-0.2,0-0.1,0.8-0.2,1
	c-0.1,0.3-0.2,0.8-0.1,0.9s0,0.3-0.2,0.4c-0.1-0.1-0.1-0.2-0.2-0.3c-0.2-0.3-0.4,0.3-0.1,0.7c0.1,0.1,0.1,0.1,0.1,0.2
	c-0.1,0.2-0.1,0.3,0,0.4c0.1,0.1,0.1,0.4,0,0.4c-0.1,0-0.3-0.1-0.3,0.1c-0.1,0.2-0.2,0.1-0.4,0c-0.1-0.2-0.3-0.3-0.4,0
	c-0.1,0.3,0.3,0.3,0.3,0.6c0,0.4,0.3,0.1,0.5,0.4c0.2,0.3,0.1,0.3-0.2,0.3c-0.3-0.1-0.6-0.2-0.6,0c0,0.1,0,0.2,0.1,0.3
	c-0.1,0.2,0,0.7-0.1,0.7c-0.1-0.1-0.4-0.3-0.5,0.1c-0.1,0.4,0.3,0.4,0.6,0.8c0.4,0.4,0.4,0.4,0.6,0.7c0.1,0.1,0.1,0.2,0.2,0.4l0-0.1
	c-0.2-0.3-0.3,0.1-0.4-0.3c-0.1-0.4-0.1-0.5-0.3-0.6c-0.3-0.1-0.3,0.1-0.1,0.4c0.2,0.2,0.2,0.3,0.1,0.4c-0.1,0.1,0.2,0.3,0.3,0.5
	c0.1,0.2-0.2,0.3-0.2-0.1c-0.1-0.3-0.2-0.3-0.5-0.6c-0.3-0.3-0.2-0.1-0.3-0.4c-0.1-0.3-0.3-0.3-0.4-0.1c-0.1,0.2,0.3,0.2,0.2,0.4
	c-0.1,0.2,0.1,0.3,0.2,0.4c0.1,0.2,0.3,0.3,0.2,0.5c-0.1,0.3,0.4,0.3,0.5,0.4c0.1,0.1,0.2,0.2,0.3,0.3v0.1c0.1,0.4-0.1,0.5-0.2,0.2
	c-0.1-0.3-0.2-0.4-0.4-0.5c-0.1-0.1-0.2-0.1-0.2,0c-0.3,0-0.4,0-0.6-0.1c-0.2-0.1-0.4-0.1-0.4,0.2c0,0.2,0.2,0.2,0.5,0.4l0,0
	c-0.2,0.2,0,0.4,0.3,0.5c0.3,0.2,0.4,0.3,0.4,0.6c0,0.3,0.2,0.2,0.4,0.5c0.3,0.3,0.1,0.8,0,0.6c-0.1-0.1-0.1-0.5-0.2-0.5
	c-0.1,0-0.2-0.1-0.3-0.4c-0.1-0.3-0.4,0-0.2,0.3c0.2,0.3-0.1,0-0.3,0.3c-0.2,0.3,0.6,0.2,0.4,0.5c-0.2,0.3,0.5,0.3,0.4,0.6
	c-0.3-0.1-0.5-0.1-0.7-0.2c-0.3-0.2-0.3-0.4-0.5-0.4c-0.3-0.1-0.5,0.4-0.1,0.6c0.4,0.2,0.4,0.6,0.3,0.5c-0.1-0.1-0.6,0-0.7-0.2
	c-0.2-0.1-0.4-0.1-0.2,0.3c0.1,0.3-0.1,0.4-0.2,0.5c-0.1,0.1-0.1,0.3,0.1,0.4c0.3,0.1,0.3,0.6,0.1,0.6c-0.2,0-0.5-0.7-0.7-0.6
	c-0.1,0-0.1,0.3-0.4,0.2c-0.3-0.1-0.4,0-0.3,0.4c0.1,0.4-0.2,0.3-0.4,0.5c-0.2,0.2,0.1,0.3,0.4,0.5c0.4,0.2-0.1,0.3,0,0.5
	c0.1,0.1,0.3,0.1,0.5,0.2l0,0c-0.2,0.1-0.5-0.3-0.6,0.1c-0.1,0.4,0.3,0.3,0.3,0.4c0.1,0.1,0.3,0.4,0.5,0.4h0c0,0.2,0.2,0.2,0.7,0.3
	c0.1,0,0.2,0,0.2,0c0,0.1,0.1,0.1,0.1,0.1c0,0.1,0.1,0.1,0.2,0.1c0.1,0.1,0.1,0.1,0.2,0.2c-0.1,0.1-0.1,0.2-0.2,0.2l0,0l0,0l0,0
	c-0.1,0-0.1,0-0.2-0.1c-0.4-0.4-0.6-0.4-0.8-0.4c-0.1-0.1,0,0.3,0,0.4c0,0-0.1,0-0.1,0c-0.3,0-0.5,0.4-0.6,0.6
	c-0.1,0.1-0.2,0.1-0.4,0.1c-0.2-0.1-0.4,0.2-0.3,0.3c0,0.1,0.4,0,0.5,0.2c0.1,0.2,0.2,0.2,0.4,0.3c0.1,0,0.1,0.1,0.1,0.1
	c-0.1,0.1-0.1,0.1-0.1,0.2c-0.1,0-0.3,0.1-0.5,0.1c-0.3-0.1-0.1-0.4-0.4-0.5c-0.3-0.1-0.7,0.3-0.7,0.2c0-0.2-0.3-0.3-0.4-0.2
	c-0.1,0.1-0.3,0.1-0.4,0.2c-0.1,0.1,0,0.2-0.3,0.3c-0.3,0.1-0.4,0.3-0.4,0.4c0,0.2,0.3,0.2,0.5,0.3c0.2,0.1,0.1,0.3-0.1,0.3
	c-0.2,0.1-0.3,0.2,0,0.3c0.2,0.1,0.7-0.1,1.2-0.1c-0.4,0.3-0.9,0.3-1.3,0.5c-0.4,0.3-0.6,0.8-0.7,0.4c-0.1-0.4-0.6-0.1-1-0.1
	c-0.2,0-0.3-0.1-0.2-0.1c0,0,0.1,0,0.1,0c0.9,0.2,0.6,0,0.7-0.4c0.1-0.4,0.5-0.3,0.4-0.6c-0.1-0.2-0.1-0.4-0.2-0.4
	c0.2-0.2,0.4-0.2,0.4-0.5c0.1-0.4-0.1-0.4-0.4,0c-0.3,0.3-0.6,0.3-0.5-0.2c0.1-0.4-0.3-0.4-0.3-0.1c0.1,0.2-0.1,0.4-0.4,0.7
	c0-0.2-0.1-0.4-0.1-0.4c-0.1,0,0,0.1-0.6,0.4c-0.5,0.3-0.4-0.6-0.8-0.5c-0.1,0-0.2,0-0.3-0.1c0.1-0.1,0.3-0.1,0.5-0.1
	c0.6-0.1,0.7-0.3,0.7-0.4s-0.7-0.1-0.6-0.3c0.1-0.2,0.8-0.2,1.3-0.3c0.5-0.1,0.4-0.1,0.2-0.3c-0.2-0.2-0.1-0.4,0.1-0.4
	c0.2,0.1,0.2-0.1,0.1-0.2c-0.1-0.1-0.2-0.2-0.4-0.2c-0.1,0-0.1-0.1,0-0.2c0,0,0.1,0,0.1-0.1c0.3-0.2,0.3-0.5,0.1-0.6
	c-0.2-0.1-0.3-0.3,0.1-0.5c0.4-0.3,0.4-0.3,0.3-0.6c-0.1-0.3,0.3-0.4,0.8-0.8c0.5-0.4,0.3-0.9,0.1-0.8c-0.2,0.1,0-0.7-0.4-0.4
	c-0.4,0.2-0.4,0.5-0.8,0.8c-0.4,0.3-0.7,0.1-0.8,0.4c-0.1,0.3-0.1,0.3-0.2,0.7c-0.2,0.4-0.5-0.6-0.6-0.7c-0.1-0.1-0.6-0.1-0.5,0.4
	c0.1,0.5,0.3,1,0,1.3c-0.1,0.1-0.2,0.1-0.4,0.1c0.1-0.1,0.1-0.2,0.1-0.3c0-0.3-0.2-0.3,0.1-0.6c0.3-0.3,0.2-0.2,0.1-0.4
	c0-0.2-0.5,0.2-0.5,0c0-0.2,0.1-0.4-0.1-0.4c-0.1,0,0.1-0.1-0.4,0.4c-0.1,0.1-0.1,0.1-0.2,0.2c-0.1,0-0.1,0-0.2,0.1
	c-0.3,0.4-0.6,0.1-0.5,0.6l0,0c-0.3,0.1,0-0.6-0.5-0.6c-0.4,0-0.6,0.6-0.9,0.9c0-0.1-0.1-0.1-0.1-0.1c-0.1,0-0.2,0-0.4,0
	c0-0.1,0-0.2-0.1-0.3c-0.2-0.3-0.4,0.3-0.8,0.8c-0.4,0.5-0.9,0.3-0.8,0c0.5-0.3,0.7-0.4,0.4-0.6c-0.3-0.2-0.4-0.5-0.1-0.7
	c0.3,0.1,0.5,0.1,0.8-0.1c0.2-0.1,0.1-0.2-0.1-0.2c0.1-0.1,0.2-0.2,0.3-0.3l0.1,0.1c0.8,0.3,0.4,0.4,0.9,0.4c0.4,0,0.3-0.1,0.3-0.6
	c0-0.1,0-0.1,0-0.2c0,0,0,0,0-0.1c0.1,0,0.3,0.1,0.8,0.1c0.2,0,0.3,0,0.4,0c0.4,0.1,0.6,0,0.6-0.3c0-0.2-0.1-0.2-0.1-0.2
	c0-0.2-0.4-0.3,0-0.5c0.4-0.2,0.5,0.3,1,0.3c0.5,0,1-0.3,0.6-0.3c-0.4,0-0.7-0.4-0.3-0.4c0.5,0,0.7,0,0.7-0.2c0,0,0-0.1,0-0.1
	c0.4,0.1,1,0.2,1.3,0c0.3-0.2,0.1-0.4-0.1-0.5C58.6,40.1,59,40,59.3,40c0.3,0,0.1-0.4,0.3-0.6c0.2-0.2,0.5-0.2,0.8-0.3
	c0.3-0.2,0.4-0.6,0.2-0.7c-0.2-0.2-0.2,0.2-0.6,0c-0.3-0.2,0.3-0.4,0.8-0.9c0.5-0.5,0.3-0.9,0.2-0.8c-0.2,0.1-0.5-0.1-0.5-0.3
	c0-0.3-0.3-0.2-0.3,0.1c-0.1,0.4-0.1,0.7-0.3,0.5c-0.1-0.3,0.1-0.9-0.2-0.7c-0.4,0.2-0.4,0.3-0.4,0.6s0.1,0.6-0.1,0.7
	c-0.2,0-0.4,0.1-0.4,0.3c0,0.1-0.2,0.1-0.3,0.1c0,0-0.1-0.1-0.1-0.1C58,37.5,58.1,37.6,58,37c-0.1-0.6-0.4-0.1-0.5,0.4
	c0,0.2-0.1,0.3-0.1,0.4c0-0.1,0-0.2-0.1-0.3c-0.2-0.2-0.2-0.8-0.6-0.4c-0.4,0.4-0.7,0.9-1,1.2c-0.4,0.3-0.5-0.1-0.2-0.3
	c0.3-0.2,0.5-0.3,0.7-0.6c0.1-0.4-0.1-0.3-0.3-0.3c-0.1,0.1-0.2-0.2,0-0.5c0.2-0.4-0.2-0.6,0-0.7c0.3-0.1,0.9-0.1,1.2-0.4
	c0.3-0.3,0.2-0.2,0.1-0.4C57,35,57.4,35,57.3,34.8c-0.1-0.2,0.4-0.3,0.6-0.5c0.3-0.2,0.1-0.3-0.2-0.3c-0.3,0-0.8,0.1-0.7-0.1
	c0.2-0.3,0.5-0.2,0.7-0.2c0.3,0,0.2-0.2,0-0.3c-0.2-0.1-0.3-0.2-0.1-0.3c0.2-0.2,0.6-0.4,0.6-0.6c0-0.2-0.3-0.3-0.5,0
	c-0.2,0.3-0.3,0.3-0.4,0.3c-0.1-0.1-0.1-0.3-0.1-0.5c0-0.2-0.1-0.3-0.3,0c-0.1,0.3,0.1,0.6-0.2,0.8c-0.3,0.2-0.4,0-0.6,0.3
	c-0.2,0.3-0.6,0.2-0.9,0.5c-0.1,0.1-0.3,0.2-0.4,0.2C54.8,34,54.8,34,55,33.9c0.5-0.2,0.7-0.3,0.6-0.4c-0.1-0.1-0.1-0.2-0.1-0.3
	c0.1,0,0.1,0,0.1-0.1c0,0,0-0.1-0.1-0.1c0.1-0.1,0.1-0.1,0.2-0.1c0.3-0.1,0.5-0.2,0.5-0.6c0-0.4-0.3-0.4-0.2-0.8
	c0.1-0.4-0.6-0.1-0.7,0c-0.1,0.2-0.4,0.1-0.6,0.5c-0.3,0.4-0.4,0.5-0.4,0l0,0c0.1-0.1,0.1-0.1,0.2-0.2c0.4-0.3,0.5-0.3,0.4-0.5
	c-0.1-0.2-0.2-0.4,0.1-0.5c0.3-0.2,0.6-0.1,0.4-0.4c-0.1-0.3-0.4,0-0.6-0.1l0,0c0-0.1-0.1-0.1-0.1-0.1c-0.1-0.1-0.1-0.2,0-0.3h0.1
	c0.6-0.1,0.3-0.4,0.3-0.4c0,0-0.1,0-0.1,0c0.2-0.1,0.6,0,0.8-0.1c0.3-0.1,0.8-0.4,0.4-0.5c-0.5-0.1-0.5-0.2-0.1-0.3
	c0.4-0.2,0.4-0.2,0.7-0.6c0.4-0.4,0.4-0.5,0.1-0.6s-0.4-0.4,0.1-0.6c0.5-0.2,0.8-0.5,0.6-0.7c-0.2-0.2-0.2,0.1-0.4,0
	c-0.2-0.1,0.1-0.7-0.2-0.5c-0.3,0.2-0.3,0.5-0.4,0.6c-0.1,0.1-0.4-0.3-0.5,0c-0.2,0.3-0.1,0.4-0.1,0.8c-0.1,0.4-0.3,0.2-0.4,0.4
	c-0.1,0.2-0.5-0.1-0.7,0.3c-0.1,0.4-0.7,0.4-1,0.7c-0.1,0-0.2,0-0.2,0.2c0,0.1,0,0.1,0,0.2c-0.1,0.1-0.1,0.2-0.2,0.3l-0.1,0
	c-0.1,0-0.2,0.1-0.3,0.1c-0.3,0-0.7-0.1-0.4-0.4c0.3-0.4,0.6-0.3,0.2-0.6c-0.4-0.3-0.1-0.5,0.1-0.9c0.2-0.4,0.6-0.5,0.4-0.7
	c0.1,0,0.1,0,0.3-0.1c0.6-0.2,0.4-0.8,1-0.8c0.6-0.1,0.6,0,0.6-0.3s-0.5-0.2-0.2-0.4c0.3-0.2,0.4-0.1,0.7-0.4
	c0.3-0.3-0.2-0.1-0.5-0.2c-0.3-0.1,0.1-0.1,0.5-0.3c0.4-0.1,0.4-0.2,0.3-0.5c-0.1-0.3-0.1-0.3,0.4-0.6c0.4-0.3,0-0.3-0.2-0.3
	c-0.2-0.1-0.2,0-0.2-0.3c-0.1-0.3-0.2-0.3-0.4,0C55,23,54.9,23,54.7,23.1c-0.1,0.2-0.2-0.1-0.4,0.3c-0.2,0.4-0.4,0.9-0.4,0.7
	c-0.1-0.2,0-0.4-0.1-0.5c0.2-0.1,0.3,0,0.3-0.3c0-0.3-0.3,0-0.4-0.4c-0.1-0.3,0.2-0.3,0.5-0.6c0.3-0.3-0.3-0.5,0-0.7
	c0.3-0.2,0.4-0.1,0.3-0.4c-0.1-0.3,0.3-0.4,0.1-0.6c-0.1-0.2-0.3-0.4-0.4-0.1c-0.2,0.4-0.6,0.6-0.8,0.9c-0.2,0.3-0.1,0.4-0.3,0.7
	c-0.2,0.3-0.4,0.3-0.5,0.8c-0.1,0.5-0.5,0-0.4-0.3c0-0.1,0-0.1,0-0.2c0.4,0,0.5-0.2,0-0.4c-0.5-0.2,0-0.1,0.3-0.5
	c0.3-0.4-0.5-0.4,0-0.7c0.5-0.3,0.8-1.1,0.6-1.3c-0.2-0.2,0.3-0.4,0.6-0.7c0.4-0.3-0.1-0.4,0-0.6c0.1-0.2,0.5-0.4,0.2-0.8
	c-0.3-0.4-0.4,0.1-0.8,0.2c-0.4,0.1-0.4,0.3-0.6,0.7l0-0.1c-0.1-0.3,0.1-0.3,0.3-0.5c0.2-0.2-0.2-0.2,0-0.4c0.2-0.2,0.4,0,0.4-0.3
	c0.1-0.3-0.1-0.2-0.3-0.3c-0.2-0.1,0.1-0.5-0.2-0.4c-0.3,0.1,0,0.4-0.4,0.3c-0.4-0.2,0-0.5-0.3-0.6c-0.3-0.1-0.3-0.5-0.4-0.2
	c-0.1,0.2-0.3,0.3-0.3,0.3c0,0-0.1-0.1-0.1-0.1c-0.1-0.3-0.4-0.1-0.5,0.2c-0.1,0.3-0.5,0.6-0.6,0.4c-0.1-0.2-0.3,0.1-0.4,0.4
	c0,0.1,0,0.2-0.1,0.3c-0.1,0-0.1-0.1-0.2,0c0-0.3-0.1-0.3-0.3-0.2c0-0.2-0.2-0.3,0.1-0.4c0.2-0.1,0.6-0.1,0.5-0.3
	c-0.1-0.1-0.1-0.2-0.2-0.2c0.2-0.1,0.1-0.4,0.5-0.4c0.5,0,0.7-0.2,0.5-0.3c-0.2-0.1-0.4-0.2,0.1-0.5c0.5-0.2,0.2,0.1,0.4,0.2
	c0.3,0.1,0.3-0.1,0.2-0.4c-0.2-0.2-0.2-0.4,0.2-0.5c0.4-0.1,0.2,0.2,0.4,0.1c0.3-0.1,0-0.3-0.1-0.6c-0.1-0.3,0.1-0.1,0.3-0.3
	c0.2-0.2,0.3-0.3,0.1-0.4c-0.2-0.2-0.3,0.1-0.4-0.2c-0.1-0.3-0.3-0.4-0.3-0.3c0,0.1,0.3,0.1,0,0.6c-0.3,0.5-0.6,0.5-0.9,0.7
	c-0.3,0.2-0.2,0.3-0.3,0.6c-0.1,0.1-0.2,0.2-0.3,0.2c0.1-0.1,0.2-0.2,0.2-0.4c0-0.3-0.3-0.4,0-0.6c0.2-0.1,0.5-0.1,0.6-0.5
	c0-0.4,0.4-0.2,0.5-0.6c0.1-0.4-0.4-0.2-0.5-0.3c-0.1-0.1,0.2-0.1,0.4-0.5c0.2-0.4-0.1-0.4-0.2-0.6c-0.1-0.2,0.4-0.8,0.1-0.9
	c-0.3-0.1-0.3,0.4-0.4,0.3c-0.2-0.2-0.3-0.7-0.4-0.3c-0.1,0.4,0.4,0.8,0,0.7c-0.3-0.1-0.5-0.2-0.4,0.1c0.1,0.3,0.3,0.4,0.1,0.5
	c-0.2,0.2-0.4,0.1-0.5,0.4c0,0.2,0,0.4,0,0.6c-0.1,0.1-0.2,0.2-0.3,0.3c-0.2-0.1-0.5-0.5-0.3-0.5c0.3,0,0.4-0.1,0.4-0.3
	c0-0.2-0.1,0-0.4-0.2l0,0c0.1-0.2,0-0.3,0.1-0.5c0.3-0.2,0.5-0.2,0.3-0.4c-0.2-0.3-0.3-0.5-0.1-0.9c0.2-0.4,0.3-0.5,0-0.5
	c-0.3-0.1-0.1-0.2-0.2-0.4c-0.1-0.2-0.3-0.1-0.4-0.1c-0.2,0,0.1-0.4,0.3-0.4c0.3,0.1,0.4-0.1,0.3-0.3C49,8.5,49,8.5,48.7,8.5
	c-0.3,0-0.3-0.3-0.4-0.5c-0.1-0.2-0.2-0.3-0.3-0.2c-0.1-0.4-0.4-0.4-0.4,0.1c-0.1,0.5-0.1,0.2-0.4,0.6c-0.3,0.4,0,0.3,0.1,0.7
	c0,0.1-0.1,0.2-0.1,0.3v0c-0.2,0.3-0.6,0.4-0.5,0.1c0.1-0.4-0.1-0.4-0.2-0.8c0-0.1,0-0.1,0-0.2C46.6,8.4,47,8.1,47,7.7
	c0-0.5-0.1-0.4-0.4-0.6c-0.3-0.3-0.4-0.4-0.3-1.1c0.2-0.7,0.1-0.6-0.1-0.9C46,4.8,46,4.4,45.8,4c-0.2-0.4-0.6,0.2-0.5,0.5
	c0.1,0.3,0.2,0.8-0.1,1.1c-0.3,0.3-0.1,0.4-0.1,0.9s-0.4,0.4-0.7,0.8c-0.3,0.4-0.6,0.5-0.6,0.2c0-0.4,0.5-0.4,0.5-0.8
	c0-0.4-0.2-0.6-0.1-0.9c0.2-0.3-0.3-0.3-0.6-0.3c-0.3,0.1-0.1-0.1-0.1-0.4c-0.1-0.3-0.3-0.1-0.4,0.1c-0.1,0.2-0.1,0.5-0.4,0.5
	c-0.3,0-0.3,0.1-0.4,0.2c-0.1,0.1,0.1,0.3,0.3,0.3C43,6,43.3,6.4,43.1,6.4c-0.2,0-0.3-0.1-0.4,0.1c-0.1,0.2,0.1,0.4-0.2,0.4
	c-0.3,0.1-0.1,0.1,0,0.5c0.2,0.4,0.1,0.6-0.1,0.9c-0.2,0.3-0.1,0.3,0.3,0.5c0.3,0.2,0.3,0.3,0,0.5c-0.3,0.2-0.3,0-0.3,0.2
	c0,0.1,0.1,0.3,0.4,0.3c0.3,0-0.3,0.7-0.4,0.5c-0.1-0.2-0.1-0.6-0.2-0.9c0-0.3-0.3-0.3-0.5-0.4c-0.2-0.2-0.1-0.2,0.1-0.5
	c0.1-0.3-0.1-0.2-0.4-0.1c-0.3,0.1,0.1-0.3,0-0.7c-0.1-0.4-0.3,0.1-0.4,0.3c-0.2,0.2-0.2-0.4-0.4-0.3c-0.3,0.1,0.2,0.7,0.1,0.9
	c-0.1,0.2-0.4,0.1-0.2,0.6c0.2,0.4,0.5,0.4,0.4,0.5c-0.1,0.1-0.6,0-0.5,0.3c0.1,0.3,0.4,0.1,0.5,0.6s0.3,0.4,0.6,0.5
	c0.2,0.1-0.1,0.3,0,0.5c0,0.3,0.1,0.4,0.4,0.6c0.4,0.3,0.3,0.1,0.4,0.5c0.1,0.4,0.4,0.5,1,0.5c0.4,0,0.5,0.3,0.7,0.5
	c0,0.2,0.1,0.3,0.1,0.5c-0.1-0.1-0.2-0.1-0.2-0.2c-0.2-0.3-0.5-0.4-0.7-0.3c-0.1-0.1-0.1-0.1-0.2,0c-0.1,0.1-0.3,0.1-0.3,0.3
	c0,0-0.1,0-0.1-0.1c-0.2-0.1-0.3,0-0.5-0.2c-0.2-0.1-0.3,0-0.3,0.1c-0.1,0.1,0.3,0.2,0.5,0.3s0.1,0.2,0.1,0.4c0,0.3,0.3,0.2,0.3,0.4
	c0,0.1-0.3,0.1-0.5-0.1c-0.2-0.2-0.3,0-0.4-0.1c-0.2,0-0.2-0.2-0.3-0.5c-0.1-0.3-0.6,0.1-0.7,0.1c-0.1,0-0.4-0.3-0.2-0.3
	c0.1-0.1,0-0.2-0.1-0.3c-0.1-0.1-0.3-0.1-0.4-0.4c-0.1-0.3-0.1,0.1-0.4,0.3c-0.3,0.1,0.1,0.4-0.3,0.6c-0.4,0.2-0.2-0.1-0.4-0.3
	c-0.3-0.1-0.1,0.3-0.2,0.4c-0.1,0.1-0.3,0.1-0.3,0.3c0.1,0.3,0.2,0.1,0.4,0.3c0.2,0.2-0.1,0.2,0,0.4c0.2,0.2,0.4,0.2,0.3,0.5
	c-0.1,0.3-0.1,0.3,0.2,0.5c0,0.1,0.1,0.2,0.2,0.3c0.1,0.1,0.2,0.1,0.2,0.1c0,0.1,0,0.2,0,0.3v0c-0.1,0.3-0.3,0.4,0,0.5
	c0.3,0.1,0.1-0.2,0.4-0.1c0.1,0,0.2,0.1,0.2,0.1v0.1c0,0.1,0,0.2,0,0.3l0,0.1c-0.2,0.3-0.1,0.4,0.2,0.4c0.1,0,0.1-0.1,0.1-0.2
	c0.1,0,0.1,0.1,0.1,0.1c0.2,0.2,0.2,0.3,0.2,0.4v0c0,0.1,0,0.1,0,0.2c0,0.4,0.1,0.1,0.3,0.5c0.1,0.2,0,0.3-0.1,0.3
	c-0.1-0.1-0.3-0.2-0.3-0.4c-0.1-0.3-0.3-0.4-0.4-0.4c-0.2-0.2-0.2-0.1-0.4-0.3c-0.2-0.3-0.4,0.2-0.3,0.6c0.1,0.4-0.4,0.5-0.3,0.8
	c0.1,0.3-0.3,0.8-0.4,0.3c-0.1-0.5-0.3-0.6-0.5-0.8c-0.2-0.3-0.1-0.4-0.3-0.6c-0.2-0.3-0.6-0.5-0.8-0.9c-0.2-0.4-0.3-0.1-0.4,0.1
	c-0.1,0.2,0.2,0.3,0.1,0.6c-0.1,0.3,0.1,0.2,0.3,0.4c0.3,0.2-0.3,0.4,0,0.7c0.3,0.3,0.6,0.3,0.5,0.6c0,0,0,0,0,0.1
	c-0.1,0-0.2,0-0.3,0.1c-0.3,0.4,0.1,0.6,0.2,0.8c0.1,0.2-0.4,0.3,0,0.6c0.4,0.3,0.8,0.5,0.6,0.7c-0.2,0.2,0,0.8,0.4,1.1
	c0,0.1-0.1,0.2-0.2,0.3c-0.4,0.3,0.1,0.4,0.3,0.8c0.1,0.1,0.1,0.2,0.2,0.3c-0.2,0.1-0.1,0.3,0.1,0.3c0,0.1-0.1,0.2-0.2,0.3
	c-0.4,0.3-0.2,0.2,0.2,0.6c0.1,0.1,0.1,0.2,0.1,0.3c0-0.2-0.1-0.4-0.2-0.3c-0.1,0.2,0,0.3-0.2,0.3c-0.2,0-0.3-0.1-0.3,0
	c-0.2-0.1-0.2-0.3-0.5-0.7c-0.3-0.4-0.9-0.4-1.1-0.8c-0.1-0.4-0.5-0.1-0.7-0.3c-0.1-0.2-0.3,0-0.4-0.4c-0.1-0.4,0-0.6-0.1-0.8
	c-0.1-0.3-0.4,0.1-0.5,0c-0.1-0.2-0.1-0.5-0.4-0.6c-0.3-0.2,0,0.4-0.2,0.5c-0.2,0.1-0.3-0.2-0.4,0c-0.2,0.2,0.1,0.5,0.6,0.7
	c0.5,0.2,0.4,0.4,0.1,0.6c-0.3,0.1-0.3,0.2,0.1,0.6c0.3,0.4,0.3,0.4,0.6,0.5c-0.2,0-0.4,0.1-0.1,0.3l0.2,0.1
	c-0.3,0.1-0.1,0.2,0.2,0.4l-0.1,0.1c-0.1,0.3-0.1,0.4,0.3,0.5c0.4,0.1,0.8,0.1,0.5,0.3c-0.3,0.1-0.8,0-0.5,0.3
	c0.1,0.1,0.1,0.1,0.2,0.1c0,0.1,0.3,0.1,0.5,0.2c0.1,0,0.1,0.1,0.1,0.1c0,0.1-0.3,0.1-0.3,0.3c0,0.2,0,0.2,0.1,0.2
	c-0.1,0.1,0.1,0.2,0.4,0.4c0.4,0.3,0.4,0.9,0.1,0.6c-0.4-0.3-0.3,0.1-0.3,0.4c0.1,0.3-0.1,0.4-0.4,0.1c-0.3-0.3-0.5-0.1-0.6,0.1
	c-0.1,0.1,0.2,0,0.5,0.3c0.1,0.1,0.2,0.1,0.2,0.2c-0.2,0-0.3,0.3-0.2,0.4v0c-0.1,0-0.2-0.1-0.3-0.2c-0.3-0.3-0.7-0.2-0.9-0.5
	c-0.2-0.3-0.3,0-0.6-0.3c-0.3-0.3-0.1-0.5-0.2-0.8c-0.1-0.4-0.3-0.3-0.3,0c0,0.2,0,0.4-0.1,0.5c-0.1,0.1-0.2,0-0.4-0.3
	c-0.2-0.3-0.5-0.2-0.5,0c0,0.2,0.4,0.4,0.6,0.6c0.2,0.2,0,0.3-0.1,0.4c-0.1,0.1-0.2,0.3,0,0.3c0.3,0,0.6-0.1,0.7,0.2
	c0.2,0.3-0.4,0.1-0.7,0.1c-0.3,0-0.4,0.1-0.1,0.3c0.3,0.2,0.7,0.3,0.6,0.5c-0.1,0.2,0.3,0.2,0.1,0.4c-0.2,0.2-0.2,0.1,0.1,0.4
	c0.3,0.3,0.9,0.3,1.2,0.4c0.2,0.1-0.2,0.3,0,0.7c0.1,0.2,0.1,0.3,0.1,0.4c-0.1,0-0.1,0-0.1,0.1l0,0c-0.1-0.1-0.4-0.2-0.3,0.2
	c0,0.1,0.1,0.2,0.1,0.3c0,0.1-0.1,0.1-0.1,0.2c-0.2-0.3-0.4-0.5-0.6-0.8c-0.3-0.4-0.3,0.2-0.6,0.4c-0.2,0.2,0,0.5-0.1,0.9
	c-0.1,0.3-0.3,0-0.5-0.3c-0.2-0.4-0.8-0.1-0.9-0.3c-0.1-0.2-0.2-0.3-0.4-0.3c-0.2-0.1-0.1-0.4-0.1-0.7c0-0.3-0.1-0.4-0.4-0.6
	c-0.4-0.2-0.1,0.4-0.3,0.7c-0.1,0.2-0.2-0.1-0.3-0.5c-0.1-0.3-0.4-0.4-0.4-0.1c0,0.3-0.3,0.4-0.4,0.3c-0.2-0.1-0.3,0.3,0.2,0.8
	c0.5,0.5,1.1,0.7,0.8,0.9c-0.3,0.2-0.4-0.1-0.6,0c-0.2,0.2-0.1,0.5,0.2,0.7c0.3,0.2,0.5,0.1,0.8,0.3c0.2,0.2,0,0.6,0.3,0.6
	c0.3,0,0.7,0.1,0.4,0.2c-0.3,0.1-0.4,0.3-0.1,0.5c0.3,0.2,1,0.1,1.5,0c0.4-0.1,1,0.1,0.9,0.5c-0.2,0.4-0.4,0.1-0.4,0.3
	c0.1,0.3,0.5,0.1,0.8-0.1c0.3-0.3,0.9,0.1,0.8,0.4c-0.2,0.2-0.4,0-0.4,0.3c0,0.3,0.4,0.4,1,0.1c0.6-0.3,1.1-0.3,0.9-0.1
	c-0.2,0.2,0,0.5,0.2,0.5c0.2,0,0.7-0.1,1,0.1c0.1,0.1,0.1,0.1,0.2,0.1c-0.1,0.1-0.2,0.1-0.3,0.2c-0.2,0.1,0.2,0.2,0.7,0.1
	c0.1,0,0.2,0.1,0.3,0.1c0.1,0,0.1,0,0.2,0.1c-0.1,0.1-0.1,0.3,0.1,0.6c0,0.1-0.1,0.1-0.1,0.1c-0.3,0.3,0,0.3,0.5,0.7
	c0.6,0.4-0.4,1.2-0.4,0.9s0.1-0.5-0.2-0.5c-0.3,0-0.4-0.2-0.5-0.6c-0.1-0.4-0.6-0.3-0.9-0.4c-0.4-0.1,0.1,0.7-0.3,0.8
	c-0.4,0.1-0.1-0.3-0.5-0.5c-0.5-0.2-0.8,0.1-0.8-0.4c0.1-0.6-0.3-0.3-0.5-0.6c-0.3-0.4-0.3,0.1-0.2,0.5c0.1,0.3-0.3,0.4-0.6,0.4
	c-0.2-0.3-0.4-0.5-0.6-0.4c-0.1,0-0.1,0-0.1,0c-0.1-0.3,0.1-0.6,0.2-1c0.2-0.5-0.4-0.6-0.5-0.4c-0.1,0.1-0.2,0.4-0.3,0.6
	c-0.1-0.3-0.3-0.4-0.4-0.1c-0.1-0.2,0-0.3-0.1-0.4c-0.1-0.3-0.4-0.1-0.8-0.4c-0.4-0.3-0.4-0.6-0.8-0.8c-0.4-0.2-0.2,0.6-0.4,0.4
	c-0.2-0.1-0.4,0.4,0.1,0.8c0.5,0.4,0.9,0.4,0.8,0.8c-0.1,0.3-0.1,0.4,0.3,0.6c0.4,0.3,0.3,0.4,0.1,0.5c-0.2,0.1-0.2,0.4,0.1,0.6
	c0.1,0.1,0.3,0.1,0.5,0.1c0.1,0,0.1,0.1,0.1,0.2c-0.1,0.3-0.5,0.2-0.3,0.5c-0.1,0.2,0,0.2,0.2,0.2c0.2,0.1,0.3,0.1,0.6,0.3
	c0.3,0.3-0.1,0.3-0.1,0.5c0,0.2,0.1,0.2,0.4,0.2c0,0.2,0.1,0.2,0.5,0.1c0,0.1-0.3,0.3-0.5,0.3c-0.3,0-0.1,0.2,0.2,0.2
	c-0.3,0-0.3,0.8-0.7,0.5c-0.5-0.3-0.4-0.4-0.6-0.4c-0.1,0-0.1,1.1-0.2,0.7c-0.1-0.4-0.4-0.5-0.4-0.3c0,0.2-0.1,0.6-0.3,0.3
	c-0.3-0.3-0.4,0-0.5,0.4c-0.1,0.4,0.3,0.2,0.4,0.6c0.1,0.4-0.2,0.6,0.7,0.4c0.7-0.1,0.7,0.4,0.5,0.6c-0.1-0.3-0.2-0.2-0.3,0.1
	c0,0,0,0.1-0.1,0.1c-0.3,0-0.6,0-0.4,0.2c0.1,0.1,0.2,0.1,0.3,0.1c-0.1,0-0.2,0.1-0.3,0.2c-0.1,0.1-0.1,0.3,0.1,0.2
	c0.2-0.1,0.3,0.2,0.1,0.4l-0.1,0.1c-0.3-0.3-0.6-0.6-0.8-0.9c-0.3-0.4-0.2-0.1-0.5,0.1c-0.1,0-0.2,0-0.2,0c-0.1-0.1,0.1-0.1,0.2-0.3
	c0.1-0.1,0-0.2-0.2-0.2c-0.2,0-0.1-0.2-0.3-0.3c0.3,0,0.6-0.1,0.6-0.3c0-0.3-0.3,0-0.6-0.1c-0.3,0-0.1-0.1,0.1-0.3
	c0.2-0.2,0.3-0.4,0.3-0.6c0-0.2,0.5-0.3,0.4-0.4c0-0.2-0.3,0-0.3-0.2c-0.1-0.2-0.5,0-0.3-0.3c0.1-0.3,0.3-0.1,0.4-0.4
	c0.1-0.2-0.1-0.4-0.2-0.3c-0.1,0.1-0.3,0.1-0.4,0.2c0,0,0,0,0.1,0c0.4-0.3,0.3-0.5-0.1-0.5c-0.5,0-0.5,0.2-0.8,0
	c-0.3-0.2-0.4,0-0.7,0.2c-0.1,0-0.1,0.1-0.2,0.1c0.1-0.1,0.1-0.3,0.3-0.5c0.2-0.2,0.2-0.3,0.2-0.3c0.4-0.3,1-0.2,1.1-0.4
	c0.1-0.2-0.4-0.3-0.4-0.5c0,0,0,0,0,0c0-0.3-0.3-0.4-0.5,0c-0.1,0.1-0.1,0.2-0.2,0.3c0,0,0,0,0,0c-0.1,0-0.2,0.1-0.3,0.1h0
	c-0.2-0.1-0.6,0.1-0.7,0.4c-0.1,0.1-0.2,0.2-0.3,0.3c0.3-0.4,0.5-0.5,0.4-0.7c0-0.1-0.1-0.1-0.1-0.1c0.2-0.2,0.3-0.4,0.4-0.4
	c0.2-0.2,0.1-0.4,0.3-0.6c0.2-0.2,0.6-0.3,0.4-0.6c-0.1-0.4,0.1-0.4,0.4-0.8c0.3-0.3-0.2-0.5-0.5-0.3C29.3,40,29.2,40,29.1,40
	c0-0.1,0-0.1,0-0.1c-0.1,0-0.1-0.3-0.3-0.2c-0.1,0.1,0,0.2,0,0.3c-0.1,0.1-0.2,0.1-0.3,0.2c-0.3,0.3-0.4,0.2-0.5,0.1
	c0.1-0.1,0.1-0.1,0.2-0.2c0-0.1,0.1-0.2,0.1-0.3c0.3-0.1,0.7-0.2,0.7-0.6c0-0.1-0.1-0.2-0.1-0.2c0.1-0.1,0.1-0.2,0-0.2
	c-0.1-0.1,0-0.1,0.2-0.3c0.2-0.2,0.1-0.4,0-0.3c-0.2,0.1-0.2,0.2-0.4,0.2s-0.2,0.2-0.2,0.4c0,0.1-0.1,0.1-0.1,0.2c0,0,0,0-0.1-0.1
	c-0.1-0.3-0.1-0.2-0.1-0.4c0.1-0.2,0.3-0.2,0.4-0.7c0-0.2-0.1-0.2-0.3-0.2c0-0.1,0-0.1,0-0.2c0.1-0.3,0.4-0.5,0.6-0.8
	c0.2-0.3,0.3-0.5,0.1-0.6c-0.2-0.1-0.3,0.3-0.4,0.1c-0.1-0.2,0.3-0.4,0.2-0.6c-0.1-0.1-0.1-0.1-0.1-0.1c0.1-0.2-0.2-0.4-0.3-0.3
	c-0.2,0.1-0.2,0.3-0.5,0.4c-0.1,0.1-0.1-0.1-0.1-0.2l0,0c0.1-0.2,0.1-0.4,0.2-0.4c0.1-0.1,0.1-0.4,0.1-0.4s0,0,0-0.2
	c0-0.2,0.3-0.2,0.3-0.5c0.1-0.3-0.4-0.3-0.6-0.1c-0.1,0.1-0.1,0.4-0.1,0.6c0-0.1,0-0.2,0-0.3c0-0.3,0-0.8-0.1-0.9
	c0-0.2,0-0.3-0.3-0.3c-0.3-0.1,0.1-0.5-0.2-0.8c-0.2-0.3-0.2,0.5-0.2,0.9c0,0.5-0.2,0.9,0,1.4c0.2,0.5,0,0.9,0,0.6
	c-0.1-0.3-0.3-0.3-0.4-0.3c-0.1,0-0.3-0.1-0.3-0.3c0-0.2-0.3-0.2-0.4,0c-0.1,0.2,0.3,0.4,0.2,0.6c-0.1,0.2-0.2-0.2-0.4-0.1
	c-0.2,0.1-0.1,0.3,0.1,0.6c0.1,0.3,0.5,0.5,0.6,0.8l0,0.1v0c-0.2-0.1-0.4,0.1-0.3,0.3c0.1,0.3,0.4,0.3,0.5,0.6
	c0,0.3-0.1,0.4,0.1,0.5c0.2,0,0.4,0.1,0.4,0.2c-0.1,0-0.1,0-0.1,0.1c0,0.3-0.3,0.2-0.4,0.1c-0.1-0.2-0.4-0.3-0.4-0.4
	c0-0.2,0.1-0.4-0.2-0.4c-0.3,0-0.3-0.1-0.4-0.2c-0.2-0.1-0.2,0.1,0,0.3c0.2,0.2,0.3,0.3,0.2,0.3c-0.1,0.1-0.1,0.3,0.3,0.5
	c0.3,0.1,0.3,0.4,0.3,0.6c-0.2,0-0.3,0-0.3,0.2c0,0.1,0,0.1,0,0.1c-0.1-0.1-0.1-0.1-0.2-0.2c-0.1-0.1,0.1-0.3-0.1-0.4
	c-0.1-0.1-0.2,0.1-0.3,0.2c-0.1,0,0,0.2,0.1,0.4c0.1,0.3-0.1,0.3-0.1,0.4c0,0.1,0.1,0.2,0.3,0.4c0.1,0.1,0.1,0.1,0.1,0.2
	c-0.1,0-0.2,0.1-0.3,0.3c0,0.3,0.3,0.5,0.5,0.6c0,0,0.1,0.1,0.1,0.1c0.1,0.3-0.1,0.2-0.2,0.3c-0.4-0.4-0.7-0.1-0.9-0.3
	c-0.2-0.1-0.4-0.1-0.6,0c0,0-0.1,0-0.1,0c-0.2,0.1,0,0.3,0.4,0.6c0.1,0.1,0.2,0.2,0.1,0.5c-0.1,0.4,0.3,0.4,0.5,0.6
	c0.2,0.2,0.1,0.4,0.3,0.6c0.1,0.1,0.4,0.5,0.7,0.8c-0.1,0.1-0.1,0.1-0.2,0.1c0,0-0.1,0-0.1,0c-0.1,0-0.1-0.1-0.2-0.1
	c-0.1-0.1-0.1-0.3-0.2-0.3c-0.2-0.1-0.3-0.1-0.4-0.5c-0.1-0.4-0.4-0.1-0.4-0.1c0,0.1,0.1,0,0.3,0.4c0.1,0.2,0.1,0.3,0.1,0.4
	c-0.1,0-0.2-0.2-0.3-0.4c-0.2-0.4-0.5-0.2-0.5,0c0,0.1-0.1,0.2-0.2,0.3c-0.1-0.2-0.1-0.4-0.2-0.5c-0.2-0.1-0.4-0.1-0.6-0.2
	c-0.1-0.2-0.3,0-0.2,0.2c0.1,0.2,0.3,0.1,0.4,0.4c0.2,0.3-0.3,0.1-0.3,0.3c-0.1,0.2-0.3,0-0.3,0.2s0.4,0.2,0.4,0.4
	c0.1,0.2,0.1,0.4,0.3,0.6c-0.2,0.1-0.2,0.2,0.1,0.4c-0.3,0-0.5-0.2-0.5,0.1c0,0.2,0.4,0.3,0.8,0.3c0,0.2,0,0.4,0.2,0.6
	c0.3,0.4,0.4,0.2,0.7,0.3c0.3,0.1,0.1,0.3,0.4,0.5c0.2,0.2,0.5,0.4,0.6,0.9c0,0.1,0.1,0.3,0.2,0.4c0,0-0.1,0-0.1,0.1
	c-0.1,0.1-0.1,0.4-0.2,0.2c-0.1-0.3-0.1-0.5-0.3-0.6l0-0.1c-0.2-0.3-0.4-0.2-0.4,0c0,0-0.1-0.1-0.2-0.3c-0.3-0.5-0.4-0.6-0.6-0.6
	s-0.2,0.3,0.1,0.6h0C24,48,24,48.2,23.9,48.1c-0.1-0.1-0.3,0-0.5-0.2c-0.3-0.2-0.3,0-0.3,0.2c0,0.2,0.1,0.2,0.1,0.3h0
	c-0.3,0-0.4,0.1-0.3,0.2c0.1,0.2,0.3,0.2,0.2,0.3c-0.1,0.1-0.2-0.1-0.3,0.2c-0.1,0.2,0,0.3-0.3,0.3c-0.3,0.1-0.5,0.4-0.2,0.6
	c0.4,0.2,0.7,0.1,0.8,0.4c0.1,0.3,0.2,0.2,0.8,0.4c0.6,0.3,0.9,0.4,1.1,0.7c0.1,0.1,0.1,0.2,0.2,0.3c-0.1,0-0.1,0-0.2-0.1
	c-0.2-0.2-0.4-0.2-0.4-0.3c0,0-0.2,0-0.3-0.2c-0.1-0.1-0.2-0.2-0.3-0.1c-0.1,0.1,0,0.1,0.1,0.2c0,0.1,0.2,0.1,0.2,0.2
	c0,0.1,0.1,0.2,0.4,0.3c0.2,0.1,0.2,0.3,0,0.2c-0.2-0.1-0.3,0-0.5,0c-0.2-0.1-0.1-0.1-0.2-0.2c-0.1,0-0.1,0.2,0.2,0.3
	c0.2,0.1,0.5,0.2,0.5,0.4c0.1,0.2,0.3,0.2,0.5,0.4c0.2,0.1,0.2,0.2,0.1,0.3c-0.1-0.1-0.1-0.1-0.3-0.1c-0.4-0.1-0.2-0.2-0.4-0.4
	c-0.1-0.1-0.2-0.1-0.3-0.1c0-0.1-0.1-0.2-0.1-0.2s0-0.1-0.1-0.1c-0.1,0-0.1,0.1-0.2,0.1c0,0,0,0-0.1-0.1c-0.1-0.1,0-0.2,0-0.3
	c0-0.2-0.1-0.2-0.1,0c0,0.1-0.2,0.2-0.2,0.1c-0.1-0.1,0.1-0.2,0-0.4c-0.1-0.1-0.1-0.1-0.3,0.1c-0.1,0.2-0.3-0.1-0.3-0.2
	c0-0.2-0.3-0.1-0.3,0c0,0.2,0.1,0.1,0.1,0.3l0,0c-0.1,0-0.1,0-0.2,0c-0.1,0-0.3,0.2-0.1,0.3c0.2,0.1,0.2,0.2,0.1,0.3v0.1
	c-0.1-0.1-0.1-0.1-0.2-0.2c-0.2-0.1-0.3-0.2-0.4-0.5c-0.1-0.3-0.4-0.2-0.3,0c0.1,0.3-0.3,0.2-0.2,0.4c0.1,0.2,0.1,0.3-0.1,0.3
	c-0.2,0-0.2,0,0,0.4c0.2,0.3-0.2,0.2-0.4-0.2c-0.2-0.3-0.6-0.5-0.7-0.5c-0.1,0-0.3,0.2-0.3,0.4c0,0.3,0,0.6-0.3,0.6
	c-0.3,0-0.2,0.3-0.4,0.5c-0.2,0.1-0.1,0.6,0.2,0.5c0.3,0,0.3,0.3,0.3,0.4c0,0.1,0.1,0.4,0.5,0.3c0.1,0,0.2,0.1,0.3,0.2
	c-0.1,0.1-0.1,0.2,0,0.2c0,0.1-0.1,0.2-0.2,0.2c-0.1,0-0.2,0.1,0,0.3c0.1,0,0.1,0,0.1,0c-0.2,0.1-0.3,0.4-0.1,0.4
	c0.3,0.1-0.1,0.4,0.3,0.4c0.4,0,0,0.2-0.2,0.1c-0.2-0.1-0.5-0.5-0.8-0.3c-0.3,0.2-0.3,0.1-0.6,0c-0.3-0.1-0.4,0.2-0.4,0.3
	c0.1,0.1,0.1,0.1,0.1,0.3c-0.1,0.2,0.2,0.2,0.3,0.3c0.1,0.1,0.1,0.2-0.1,0.3c-0.2,0.1-0.3,0.2-0.2,0.3c0.1,0.1,0.2,0.1,0.3,0.2
	c0.1,0.2,0.4,0.2,0.5,0c0.1-0.2,0.1-0.5,0.3-0.3c0.2,0.2,0.5,0.2,0.9,0l0.1-0.1c0,0.1,0.1,0.1,0.2,0.1c0.2,0.1,0.2,0.2,0.1,0.3
	c-0.1,0.1,0,0.2-0.1,0.5c0,0,0,0,0,0c-0.1,0-0.1,0-0.2,0c-0.1-0.1-0.3-0.2-0.4-0.3c-0.3-0.1-0.4,0.1-0.3,0.3c-0.1,0.1,0,0.3,0.1,0.4
	c0,0.1-0.1,0.3-0.1,0.4c-0.1,0.1,0,0.3,0.3,0.4c0.1,0,0.2,0.1,0.4,0.1c0.1,0.1,0.2,0.3,0.5,0.3c0.2,0,0.3,0.1,0.4,0.1
	c0.2,0.1,0.3,0.1,0.4,0.2c0.2,0.1-0.3,0-0.6-0.1c-0.3-0.1-0.6-0.5-1.1-0.5c-0.5,0-0.5-0.1-0.8-0.2c-0.3-0.1-0.3,0.3-0.6,0
	c-0.4-0.3-0.4,0.1-0.4,0.4c-0.1,0.3-0.1,0.3-0.3,0.3c-0.2,0-0.1,0.4,0.1,0.4c0.3,0.1,0,0.1,0.1,0.3c0.1,0.2,0.4,0.1,0.6,0.1
	c0.2,0,0.1,0.3,0.6,0.4c0.4,0.1,0.7,0,0.8,0.1c0,0,0,0,0,0.1h0c-0.3,0.1-0.5,0.1-0.5,0.3c0,0.2-0.3,0.2-0.5,0.1
	c-0.3-0.2-0.8-0.6-1.1-0.2c-0.3,0.4-0.5,0.3-0.8,0.3c-0.2,0-0.3,0.2-0.2,0.4c-0.1-0.1-0.6,0.1-0.3,0.2c0.2,0.2,0.2,0.2,0.2,0.3
	c0,0.1,0,0.2,0.2,0.3c0.3,0.1,0.7,0.2,0.4,0.3c-0.3,0.1-0.1,0.3,0,0.3c0.1,0,0.3-0.1,0.4-0.3c0.3,0.2,0.6,0.1,0.9,0.3
	c0.4,0.2,0.6,0.3,0.6,0.3s0.1,0,0.1,0.1c-0.1,0.1,0,0.1,0.1,0.1c0,0.1,0,0.1-0.1,0.1c-0.2,0-0.5-0.3-0.8-0.4
	c-0.3-0.1-0.6-0.3-0.9,0.2c-0.3,0.4-0.1,0.1-0.5,0.2c-0.4,0.1-0.5,0.2-0.4,0.4c0.1,0.2,0,0.2-0.1,0.4c-0.1,0.2-0.5,0.1,0.1,0.5
	c0.6,0.4,0.8,0.6,0.6,0.7c-0.2,0.1-0.5,0-0.6,0.1c-0.1,0-0.2,0-0.2,0.1c-0.1,0.1,0.1,0.4,0.3,0.4c0,0,0.1,0,0.1,0
	c0,0.1,0.1,0.1,0.1,0.1c0,0,0,0-0.1,0c-0.2,0-0.1,0.2-0.3,0.3s-0.1,0.3-0.3,0.3c-0.3,0-0.2,0.4,0.3,0.4c0.4,0,0.4,0.2,0.5,0.4
	c0.1,0.3,0.3-0.1,0.4,0.2c0,0.3,0.1,0.2,0.4,0.3c0.3,0,0.4,0.2,0.2,0.2c-0.3,0-0.3,0.2-0.5,0.4c-0.3,0.2-0.4-0.1-0.8-0.1
	C17,70.7,17.2,71,17,71c-0.1,0-0.6-0.1-0.7,0.2c-0.2,0.3-0.2,0.2-0.5,0.2c-0.3,0-0.3,0.6,0.1,0.6c0.4,0,0.1,0.2,0.3,0.4
	c0.2,0.2,0.6,0,0.7-0.2c0.1-0.1,0.2-0.1,0.4,0.1c-0.1,0-0.2,0-0.2,0.1c0,0.2,0.1,0.2,0.3,0.3c-0.1,0.2-0.3,0.4,0,0.5
	c0.3,0.1,0.6,0,0.8-0.1c0.3,0,0.5-0.1,0.5,0.2c-0.1,0.3-0.4,0-1,0.4c-0.6,0.5-1,0.4-0.9,0.9c0.1,0.5-0.9-0.3-1.1,0.4
	c0,0.1,0,0.1,0,0.2c-0.2-0.1-0.4-0.1-0.4,0.1c0,0.1,0,0.2,0,0.3c-0.1,0-0.2-0.1-0.4-0.2c-0.4-0.3-0.8,0.1-0.6,0.4
	c0.2,0.2-0.1,0.5-0.4,0.7c-0.3,0.2-0.4,0.6-0.1,0.8c0.3,0.3,0.5,0.3,0.3,0.5c-0.3,0.2-0.4,0.3-0.3,0.6c0.1,0.3,0.2,0.2,0.8,0.4
	c0.7,0.2,0.7,0.3,0.5,0.5c-0.3,0.2-0.8,0.5-0.9,0.8c-0.1,0.3-0.1,0.9-0.4,1c-0.3,0.1-0.2,0.4,0.1,0.4c0.3,0-0.1,0.3,0.2,0.4
	c0.2,0.1,0.4-0.1,0.5-0.2c0.1,0.1,0.1,0.3,0.2,0.4c0.2,0.2,0.4-0.1,0.6,0.3c0.2,0.3-0.3,0.4-0.4,0.2c0.1-0.1,0.1-0.2-0.1-0.3
	c-0.1,0-0.2,0-0.3,0h0c-0.1-0.2-0.3-0.3-0.5-0.1c-0.1,0.1-0.1,0.2,0,0.3c-0.1,0-0.1,0-0.2-0.1c-0.3-0.3-0.8-0.2-0.6,0.2
	c0.1,0.3,0,0.4-0.1,0.6c0,0,0,0-0.1,0c-0.3,0-0.5,0.1-0.3,0.3c0.2,0.2,0.3,0,0.5,0.2c0.1,0.1,0.1,0.1,0.1,0.2
	c-0.1,0-0.2,0.1-0.2,0.1c-0.1,0.3,0,0.4,0.1,0.5l-0.1,0.1C13,84.8,13,84.8,13,84.9c-0.1,0-0.2,0-0.3,0.1c-0.2,0.1-0.5,0.3-0.3,0.6
	c0.3,0.3,0.3,0.5,0.2,0.7c-0.1,0.2,0,0.3,0.2,0.5c0.3,0.2-0.3,0.4,0,0.8c0,0.1,0.1,0.1,0.1,0.1c0,0,0,0.1,0,0.1
	c0.1,0.2,0.7,0.1,0.4,0.2c-0.4,0.1-0.4,0.2-0.4,0.3c0.1,0.2-0.2,0.1-0.4,0.1c-0.3,0-0.1,0.4,0.1,0.4c0.2,0,0.4,0.3,0.2,0.3
	c-0.3,0-0.3,0-0.4,0.2c-0.1,0.2,0.1,0,0.3,0.1c0.2,0.1,0.2,0.3,0.5,0.3c0.3,0,0.1,0.2,0.2,0.3c0.2,0.1,0.3,0,0.4-0.2
	c0.2-0.1,0,0.3,0.3,0c0.3-0.3,0.3-0.6,0.8-1c0.5-0.4,1.3-0.5,1.6-0.6c0.3-0.1,0.4,0.1,0.3,0.1c-0.1,0-0.1,0.2,0.1,0.2
	c0,0,0.1,0,0.1,0c-0.1,0.1-0.2,0.1-0.4,0.1c-0.6,0-1.5-0.1-1.5,0.1c0,0.2-0.1,0.4,0.3,0.4c0.3,0,0.5,0.3,0.3,0.4
	c-0.2,0.1-0.4,0.2-0.8,0.3c-0.4,0.1-0.5,0.2-0.5,0.4c0,0.2,0.2,0.1,0.3,0.3c0,0.2-0.1,0.5,0.2,0.5c0.3,0.1,0.1,0.4,0.4,0.4
	c0.3,0,0.5-0.2,0.5-0.5c0-0.3,0-0.3,0.3-0.5c0.3-0.2,0.2-0.6,0.5-0.5c0.3,0.1,0.1,0.4,0.1,0.7c0,0.3,0.3,0.5,0.4,0.3
	c0.1-0.2,0-0.2,0-0.4c0-0.2,0.2-0.2,0.4,0.1c0.2,0.2,0.5,0.2,0.6-0.1c0-0.3,0.3-0.4,0.3-0.1c-0.1,0.3-0.2,0.4-0.5,0.7
	c-0.3,0.2-0.6,0.6-0.5,0.9c0.1,0.3,0.5,0.4,0.6-0.2c0.1-0.6,0.5-0.9,0.5-0.6c0,0.3,0.1,0.4,0.4,0.1c0.3-0.2,0.3-0.3,0.3-0.9
	c0-0.6,0.1-0.1,0.4-0.3c0.3-0.1,0-0.5,0.2-0.9c0-0.1,0.1-0.1,0.1-0.2c-0.1,0.1,0,0.2,0.1,0.2c0.1,0,0.1-0.1,0.4,0
	c0.3,0.1-0.1,0.3-0.4,0.5c-0.3,0.2-0.1,0.5,0.1,0.3c0.1-0.1,0.3-0.2,0.4-0.2c-0.3,0.3-0.7,0.7-0.7,1c-0.1,0.4,0.3,0.2,0.4-0.2
	c0.1-0.1,0.2-0.3,0.3-0.4c0,0,0.1,0,0.1,0c0,0,0.1-0.1,0.1-0.2c0.2-0.1,0.3-0.2,0.4-0.3c0.2-0.1,0.1,0.3,0,0.8
	c0.1-0.1,0.2-0.1,0.4-0.2c0-0.2,0.2-0.5,0.4-0.6c0.1-0.1,0.3-0.2,0.4-0.2c0,0.1,0,0.2,0.1,0.1c0.2-0.1,0.1-0.1,0.1,0.1
	c0,0.3-0.1,0.3,0.1,0.4c0.1,0.1,0.1-0.3,0.1-0.6v0c0.1,0,0.2-0.1,0.1-0.2c0,0,0.1,0,0.1,0.1c0.1,0.1,0.2-0.1,0-0.2
	c-0.2-0.1-0.1-0.2-0.1-0.4c-0.1-0.3,0.1-0.2,0.3-0.2c0.2,0.1,0.4,0.2,0.4,0c0.1-0.1,0.1-0.2,0.2-0.1c0.1,0,0.3-0.1,0.2-0.1
	c0.1-0.1,0.3-0.1,0.4-0.2c0.2-0.1,0.4,0,0.4,0.1c-0.1,0-0.2,0.1-0.3,0.1c-0.3,0-0.3,0.3-0.1,0.3c0.2-0.1,0.5-0.1,0.3,0.1
	c-0.2,0.2-0.1,0.3,0.1,0.2c0,0,0.1-0.1,0.1-0.1c0.1,0,0.3,0,0.6,0c0.5,0,0.5-0.2,0.6-0.1c-0.1,0.1-0.1,0.2-0.2,0.3
	c-0.2,0.4-0.6,0.1-0.8,0.2c-0.2,0-0.4,0.3-0.1,0.2c0.3-0.1,0.4,0,0.3,0.2c-0.4,0-0.8,0.2-1,0.3C24,90,23.8,90,23.7,90
	c-0.2,0.1-0.2,0.2-0.2,0.5c0.1-0.1,0.3-0.2,0.5-0.2c-0.1,0.1-0.2,0.1-0.2,0.2c-0.4,0.5-0.4,0.9-0.4,0.9c0.1,0,0.2-0.1,0.6-0.6
	c0.3-0.4,0.8-0.6,0.9-0.7c0,0,0.1,0,0.1,0c0,0.1-0.1,0.3-0.3,0.6c-0.2,0.5-0.3,0.6-0.1,0.6c0.2,0,0.2-0.1,0.6-1.1l0.1-0.1
	c0.2,0.2,0.4,0.4,0.4,0.8c0,0.3-0.5,0.4-0.5,0.8c0,0.4,0.1,0.3,0.3,0c0.2-0.4,0.6-0.6,0.5-1.1c-0.1-0.2,0.1-0.4,0.3-0.5
	c0,0.7-0.1,0.7-0.1,3.1c0,2.4-0.6,6.5-0.8,6.3h3.5c0,0-0.7-1.5-0.8-5.2c-0.1-3.7,0-4.7,0-4.7s0.6,0.8,1.1,1.7c0.5,0.9,0.5,1.1,0.7,1
	c0.2,0,0.1-0.1-0.1-0.6c-0.2-0.5-0.3-0.7-0.3-0.7s0.7,0.3,1.1,0.8c0.3,0.5,0.5,0.6,0.6,0.6c0.1,0,0-0.4-0.4-0.9
	c-0.4-0.5-1-0.6-1.3-0.8c-0.3-0.2-0.1-0.4,0.3-0.3c0.4,0.1,0.1-0.2-0.1-0.3c-0.1,0-0.3,0.1-0.4,0.1c-0.1-0.3-0.5-0.4-0.5-0.7
	c0-0.1,0-0.2,0.1-0.3c0.2,0,0.4,0.1,0.6,0.2c0.2,0.2,0.5,0.3,0.6,0.4c0.1,0.1,0.3-0.1,0.1-0.2c-0.2-0.2,0.1-0.1,0.3-0.1
	c0.2,0.1,0.3-0.3-0.1-0.3c-0.3,0-0.5-0.2-1-0.3c-0.2,0-0.3-0.1-0.4-0.1c0.1-0.1,0.1-0.1,0.2-0.2c0.2-0.2,0.8,0.2,1.1,0.2
	c0.3,0,0.7,0.1,0.9,0.3c0,0-0.1,0-0.1,0.1c-0.3,0.1,0,0.2,0.1,0.2c0.1,0,0.1,0,0.2,0.1c0,0.1,0.1,0.1,0.1,0.1
	c0.1,0.1,0.1,0.1,0.2,0.2c-0.1,0.1-0.1,0.1-0.1,0.2c0.1,0.2,0.2,0,0.3,0.1c0,0.1,0,0.1,0,0.1c-0.1,0.1,0,0.2,0.1,0.1l0.1,0
	c0,0.1,0.1,0.1,0.1,0.2v0c0,0.3,0,0.7,0.1,0.6c0.1-0.1,0.1-0.1,0.1-0.4c0-0.3-0.1-0.2,0.1-0.1c0.1,0.1,0.2,0,0.1-0.2
	c-0.1-0.2-0.1-0.3-0.1-0.5c0,0,0.1,0,0.1,0c0.1-0.1,0.1-0.1,0.2-0.3c0,0,0.1,0.1,0.1,0.1c0.2,0.1,0.3,0.2,0.4,0.3c0,0,0,0.1,0.1,0.1
	c0.1,0.1,0.1,0.1,0.1,0.3l0,0c-0.1,0.1-0.1,0.2-0.2,0.3c-0.2,0.3-0.5,0.7-0.3,0.6c0.1,0,0.3-0.2,0.4-0.4c0.1,0.1,0.2-0.1,0.2-0.3v0
	l0.1-0.1c0.1,0,0.1,0.1,0.2,0.2c0.1,0.2,0.3,0.7,0.4,0.8c0.1,0.1,0.2-0.1,0.1-0.3c-0.1-0.2,0.3,0,0.4,0.1c0.1,0.1,0.3-0.1,0.1-0.3
	c0.1-0.1,0.1-0.2-0.1-0.3c-0.1-0.1-0.3-0.1-0.4-0.2c0,0,0,0,0.1,0c0.3-0.1,0.3,0.1,0.4,0c0.1,0,0.2-0.3-0.1-0.3
	c-0.2,0-0.4,0.1-0.5-0.1c0,0,0-0.1,0-0.1c0,0,0,0,0.1,0c0.1-0.1,0.1-0.2,0.2-0.3c0.1-0.1,0.1,0.1,0.2,0.1c0.1,0.2,0.3,0.3,0.4,0.2
	c0,0,0-0.2,0-0.4c0-0.2,0-0.3,0-0.4c0.1,0,0.1-0.1,0.2-0.1c0.1,0,0.1,0.1,0.1,0.2c0,0,0,0.1,0.1,0.1c0.1,0.1,0.2,0.3,0.3,0.4
	c0,0.2,0.1,0.3,0.2,0.4c0.2,0.2,0.3,0.2,0.3,0c0.1,0,0.1,0,0.1,0c0.1,0-0.1,0.2-0.2,0.4c-0.1,0.1,0,0.2,0.1,0.1
	c0.1-0.1,0.2-0.4,0.2-0.2c0,0.2,0.1,0.2,0.2,0.1c0-0.1,0-0.2,0.1-0.4c0.1,0.1,0.1,0.3,0.1,0.5c0.1,0.6,0.5,0.4,0.6,0.1
	c0.1-0.2-0.1-0.4-0.3-0.7c0.1-0.1,0-0.2,0-0.3c0-0.1,0.1-0.1,0.2-0.2c0.1,0,0.2,0,0.3,0c0,0,0,0.1,0,0.1c0,0,0.1,0.1,0.1,0.1
	c0,0.1,0,0.1,0,0.2c0,0.1,0.2,0.2,0.4,0.4c0.3,0.3,0.6,0.4,0.6,1.8c0,1.3-0.1,6.6-0.4,7.3h3c0,0-0.6-2.5-0.6-5.6c0-1.1,0-2.1,0-3
	c0.1,0.1,0.2,0.3,0.4,0.2c0.2-0.1,0-0.3,0.3-0.3c0.2,0,0.3-0.1,0.4-0.2c0.1,0.1,0.2,0.2,0.2,0.4c0.1,0.2,0.4,0.3,0.3,0.1
	c-0.1-0.2-0.3-0.3-0.3-0.5c0-0.2,0.1-0.1,0.2-0.1c0.1,0,0.1,0,0.1-0.1c-0.1-0.2-0.2-0.2-0.4-0.2c-0.1,0-0.1,0-0.1,0h0
	c0-0.1,0.2-0.3,0.3-0.3c0.2,0,0.3-0.4,0.1-0.4c-0.3,0-0.5,0.1-0.4-0.1c0-0.1,0-0.1,0-0.2c0-0.2-0.1-0.3,0-0.4c0.1-0.1,0.3,0,0.3,0.1
	c0,0.2,0.1,0,0.2,0.3c0.1,0.2,0.3,0.3,0.4,0.1c0.1-0.2,0.4,0,0.5,0.2c0.1,0.3-0.1,0.3-0.2,0.4c-0.1,0.2-0.3,0.6-0.4,0.7
	c-0.1,0.1-0.1,0.2,0.1,0.2c0.2,0,0.1,0.1,0.1,0.3c0,0.2,0.2,0.2,0.3,0.1c0.1-0.1,0-0.3,0.1-0.3c0.1,0,0.2,0,0.2-0.1
	c0-0.1-0.2-0.1-0.1-0.4c0.1-0.2,0.1-0.4,0.3-0.3c0.1,0.1-0.1,0.3,0.1,0.4c0.1,0.1,0.2,0.3,0.2,0.4c0,0.1,0.1,0.1,0.1,0.1
	c0.1,0,0.1-0.1,0-0.4c-0.1-0.3-0.2-0.4-0.1-0.6c0.1-0.1,0.4,0.3,0.5,0.4c0.1,0.2,0.3,0.1,0.1-0.1c-0.1-0.1-0.5-0.5-0.6-0.8
	c-0.1-0.3,0.1-0.1,0.2-0.2c0.1-0.2-0.2-0.1-0.1-0.3c0.1-0.1,0.2-0.1,0.3,0.1c0.1,0.3,0.3,0,0.4,0.2c0.1,0.2,0.1,0.1,0.3,0.1
	c0,0,0.1,0,0.1,0c0,1.3-0.1,2.6-0.1,3.5c-0.2,2.7-0.6,6.2-0.6,6.2L49.1,99.4z M30.4,47.1c-0.1-0.1-0.3-0.1-0.3,0c0,0,0,0.1,0,0.1
	c-0.1,0.1-0.3,0.1-0.3,0.1c-0.1-0.1,0-0.1,0-0.2C30,47,30.2,47,30.4,47.1c0-0.1,0.1-0.1,0.1-0.1C30.5,47.1,30.5,47.1,30.4,47.1
	L30.4,47.1z M31,49.8c0.4,0.1,0.6,0.3,0.1,0.4c-0.2,0-0.4,0-0.5,0.1C30.9,50.2,31,50.1,31,49.8L31,49.8z M30.4,50.4L30.4,50.4
	c0.3,0.2,0.5,0.3,1.2,0.6c0.7,0.3,0.7,0.2,0.5,0.5c-0.2,0.3-0.4,0.3-0.1,0.4c0.1,0.1,0.3,0.1,0.4,0.1c0.1,0.1,0.2,0.2,0.3,0.2
	c0,0.1,0.1,0.2,0.2,0.2c0.1,0.1,0,0.1-0.2,0.1c-0.4,0-0.9-0.3-1,0.1c-0.1,0.2-0.1,0.1-0.3,0c0-0.1,0.1-0.1,0.2-0.2
	c0.2-0.1,0.2-0.2,0.1-0.3c-0.1-0.1-0.4-0.1-0.2-0.2c0.2-0.1,0.1-0.3,0-0.4c-0.1-0.1,0-0.2,0.1-0.3s0-0.3-0.1-0.3
	c-0.1,0-0.4,0.1-0.5,0.3c-0.1,0.2-0.4,0.1-0.7,0.1c-0.3,0-0.1,0.2-0.2,0.3c-0.1,0.1-0.3-0.1-0.5,0c0,0-0.1-0.1-0.1-0.1l-0.1-0.1
	c0.2-0.1,0.4-0.2,0.6-0.5C30.4,50.6,30.2,50.6,30.4,50.4L30.4,50.4z M29.4,54.3C29.4,54.3,29.4,54.3,29.4,54.3
	c-0.1,0.1-0.1,0.2-0.1,0.3c-0.1,0-0.3,0.1-0.2-0.1c0.1-0.1,0.2-0.3,0.4-0.4c0,0,0,0,0,0C29.5,54.2,29.4,54.2,29.4,54.3L29.4,54.3z
	 M30.1,54.8L30.1,54.8c0,0.1-0.1,0.1-0.2,0.1C30,54.8,30,54.8,30.1,54.8L30.1,54.8z M32.2,57.9c0,0.1,0.1,0.2,0.1,0.3
	c0,0.1-0.1,0.2-0.2,0.3c-0.1,0.2-0.3,0.1-0.5,0.1c-0.1-0.2-0.2-0.3-0.4-0.3c0,0-0.1,0-0.1-0.1c0.1,0,0.2,0,0.3,0
	C32,58.2,32,57.8,32.2,57.9L32.2,57.9z M25.9,67.4L25.9,67.4L25.9,67.4c0.1,0.1,0.1,0.2,0.1,0.2c0.1,0.1,0,0,0.3,0.4
	c0,0,0.1,0.1,0.1,0.2c0,0,0,0.1,0,0.1c-0.4,0.1-1-0.3-1,0c-0.1,0.3,0.1,0.2,0.5,0.4c0,0,0,0.1,0,0.1c0,0.1,0.1,0.2,0.1,0.2
	c-0.3-0.1-0.7-0.2-1-0.3c-0.4-0.2-0.2-0.1-0.4-0.5c0-0.1-0.1-0.2-0.1-0.3c0.2,0,0.3-0.1,0.2-0.3c-0.1-0.2-0.3-0.2-0.4-0.4
	c0,0,0-0.1,0-0.1c0,0,0.1,0,0.1,0c0.1,0,0.1,0,0.1,0l0,0c0.2,0.2,0.5,0,0.8,0.4c0.3,0.4,0.5,0.1,0.3-0.2c-0.1-0.1-0.1-0.2-0.3-0.3
	C25.6,67.1,25.8,67.3,25.9,67.4L25.9,67.4z M28.2,78.2L28.2,78.2c0.2,0,0.3-0.1,0.4-0.2c0.1,0,0.1,0.1,0.2,0.1c0.1,0,0.1,0,0.2-0.1
	h0.1c0.4,0.1,0.3,0.3,0.2,0.4c-0.3,0.1-0.5,0.1-0.6,0.3c-0.1,0-0.2,0.1-0.1,0.2h0c0,0,0,0.1,0,0.1c-0.1,0.7-0.8,0.6-0.8,0.6
	s0-0.2,0-0.4c0-0.2,0.1-0.3,0.1-0.5l0.1-0.3h0C28.3,78.5,28.2,78.4,28.2,78.2L28.2,78.2z M32.3,80.6c0,0.1,0.2,0.2,0.4,0
	c0.1,0,0.2,0,0.3,0l0.1,0.1c-0.2,0.1-0.4,0.2-0.4,0.4l0,0c-0.1,0-0.1,0-0.1,0.1c-0.1,0.1,0,0.1,0.1,0.2l-0.1,0
	c-0.4-0.1-0.3,0-0.5-0.3c-0.1-0.1-0.2-0.1-0.2-0.2C31.9,80.7,32,80.6,32.3,80.6L32.3,80.6z M44.6,88.8v0.4h0
	c-0.1-0.1-0.1-0.1-0.2-0.3c-0.1-0.1-0.3-0.1-0.4-0.1c-0.1,0-0.3-0.1-0.4-0.1c0,0,0.1-0.1,0.1-0.1c0.1-0.1,0.2,0,0.3,0.1
	c0.1,0.1,0.3,0,0.4-0.2l0,0C44.4,88.8,44.4,88.8,44.6,88.8C44.5,88.8,44.6,88.8,44.6,88.8L44.6,88.8z M41.5,57.3L41.5,57.3
	c-0.2-0.1-0.3-0.1-0.4-0.2c0-0.1,0.1-0.3,0.2-0.4c0.2,0,0.1,0,0.3,0c0.2,0,0.5,0.1,0.7,0.1c-0.2,0.2-0.4,0.3-0.6,0.4
	C41.7,57.3,41.6,57.3,41.5,57.3L41.5,57.3z M43,56.3C43,56.3,43,56.3,43,56.3c-0.1,0-0.1,0-0.1-0.1c0.1-0.1,0.2-0.3,0.2-0.4
	c0-0.3,0.5-0.2,0.6-0.5c0.1-0.1,0-0.2-0.2-0.3v0c0-0.2,0.2-0.3,0.3-0.3c0,0.1,0,0.1,0,0.2c0,0.1,0.1,0.2,0.2,0.3
	c0,0.3,0,0.4-0.6,0.9L43,56.3z M40.2,46L40.2,46l0.1,0c0.1,0,0.2,0,0.3,0c0,0.2-0.1,0.4-0.3,0.1C40.2,46,40.2,46,40.2,46L40.2,46z
	 M39.4,45.6C39.4,45.6,39.4,45.6,39.4,45.6c-0.4,0.2-0.7,0.2-0.3,0.4c0.2,0.1,0.4,0.1,0.6,0.1c0,0,0,0.1-0.1,0.1
	c-0.1,0.1-0.3,0.2-0.3,0.3c0,0,0.1,0.1,0.1,0.1c-0.2,0.2-0.2,0.3-0.4,0.1l-0.1,0c-0.1-0.2-0.2-0.3-0.3-0.2c0-0.1,0-0.2,0-0.5
	c0.1-0.5-0.3-0.2-0.6-0.2c0.1-0.1,0.2-0.1,0.5-0.3c0.8-0.3,1.3-0.4,0.9,0C39.5,45.5,39.4,45.6,39.4,45.6L39.4,45.6z M31.6,86
	c0,0.1,0.1,0.2,0.1,0.2c0,0,0,0.1,0.1,0.1c-0.1,0-0.3,0-0.4-0.1c-0.1,0-0.1,0-0.1,0C31.4,86.1,31.5,86,31.6,86L31.6,86z M33.7,89.5
	C33.8,89.4,33.8,89.4,33.7,89.5c0.2-0.1,0-0.2,0.2-0.3c0,0,0.1,0,0.1,0c0,0,0.1,0.1,0.1,0.1c0,0.1,0,0.1,0,0.1c0,0.1,0.2,0,0.1,0.3
	v0c0,0,0,0-0.1,0C34,89.5,33.9,89.5,33.7,89.5L33.7,89.5z M35.5,89.1c0-0.1,0-0.1,0.1-0.2l0,0c0,0,0.1,0.1,0.1,0.3v0.1
	C35.5,89.2,35.5,89.1,35.5,89.1L35.5,89.1z M36.4,89.9L36.4,89.9C36.3,90,36.2,90,36.2,90l0,0C36.2,89.8,36.3,89.8,36.4,89.9
	L36.4,89.9z M36.7,89.8c0.1-0.1,0.1,0,0.1,0.1L36.7,89.8L36.7,89.8z M38.7,89.9c0,0.3-0.1,0.5-0.1,0.5s-0.7-0.4-0.9-0.6
	c0,0,0,0-0.1,0c0.1-0.1,0.2-0.2,0.2-0.4v-0.1c0.1,0,0.5,0.1,0.8,0.2c0,0.1,0,0.1,0,0.2C38.6,89.8,38.6,89.8,38.7,89.9L38.7,89.9z
	 M41.1,89C40.9,89,40.8,89,41.1,89L41.1,89C41.1,89.1,41.1,89,41.1,89L41.1,89z M26.3,89.3c0-0.2,0-0.3,0-0.4
	c-0.1-0.1-0.1-0.1-0.2-0.1c-0.1,0.2-0.4,0.5-0.6,0.9C25.8,89.7,26.1,89.5,26.3,89.3L26.3,89.3z M24.7,87.4c-0.1-0.1-0.3,0-0.4,0.1
	c-0.2,0.1-0.1,0-0.3-0.1c-0.1,0-0.2,0-0.3,0c0.1,0.1,0.2,0.1,0.3,0.1C24.2,87.7,24.5,87.6,24.7,87.4L24.7,87.4z M22.1,89.1
	c0-0.1,0-0.2,0-0.3c0-0.1,0-0.1,0-0.1c-0.1,0.1-0.3,0.1-0.3,0.3C21.5,89.2,21.8,89,22.1,89.1L22.1,89.1z M20.8,89.3
	c-0.1,0-0.1,0.1-0.2,0.2l0,0C20.7,89.4,20.8,89.3,20.8,89.3L20.8,89.3z M19.6,89C19.6,89,19.6,89,19.6,89c0.3,0,0.4,0,0.6-0.1
	C20,88.8,19.8,88.9,19.6,89L19.6,89z M14.7,81.5c0,0.1,0.1,0.2,0.2,0.3c0.1,0.1,0.2,0.1,0.3,0.1c0.2-0.2,0.3-0.4,0.1-0.5
	C15.1,81.2,14.9,81.3,14.7,81.5L14.7,81.5z M15.9,81.7c0.1,0,0.1-0.1,0.2-0.1C15.9,81.6,15.9,81.6,15.9,81.7L15.9,81.7z M23.5,74.9
	c0-0.1,0.1-0.1,0.1-0.2c0-0.1-0.1-0.1-0.6-0.3c0,0.1,0.1,0.2,0.2,0.3C23.3,74.8,23.4,74.8,23.5,74.9L23.5,74.9z M23.7,68
	c0.1,0,0.1,0.1,0.2,0.1c0.1,0,0-0.1,0-0.3C23.8,67.8,23.7,67.9,23.7,68L23.7,68z M24.7,66.4L24.7,66.4c-0.1-0.1-0.2-0.2-0.3-0.3
	l0.1,0C24.5,66.3,24.6,66.3,24.7,66.4L24.7,66.4z M25.9,39.3c0,0.2,0.1,0.3,0.3,0.3C26,39.5,25.9,39.5,25.9,39.3L25.9,39.3z
	 M26.2,39.8c0,0.1,0,0.1,0,0.2C26.3,39.9,26.3,39.9,26.2,39.8L26.2,39.8z M28.8,47.8c0-0.1,0.1-0.1,0.1-0.2
	C28.8,47.7,28.7,47.8,28.8,47.8L28.8,47.8z M29.9,53.9c-0.1,0-0.2,0.1-0.3,0.1c0.1,0,0.1,0.1,0.2,0.1C29.8,54.1,29.8,54,29.9,53.9
	L29.9,53.9z M29,55.6c0.1,0,0.3,0,0.4-0.2c0.1-0.1,0.1-0.1,0.1-0.1c-0.1,0-0.3,0-0.4,0.1C29,55.4,29,55.5,29,55.6L29,55.6z
	 M29.3,59.5C29.3,59.5,29.3,59.5,29.3,59.5L29.3,59.5z M30.2,82.3L30.2,82.3c0.3-0.7,0.5-1,0.8-0.9c0-0.1,0-0.1-0.3-0.1
	c-0.4,0.1-1.4,0.7-1.4,1.2C29.4,82.8,29.8,82.5,30.2,82.3L30.2,82.3z M28.3,89.5c0-0.1,0-0.1,0-0.1C28.3,89.4,28.3,89.4,28.3,89.5
	C28.3,89.5,28.3,89.5,28.3,89.5L28.3,89.5z M30.2,88.7c0.1,0,0.1-0.1,0.2-0.1c0.2-0.1,0.3,0,0.5,0.1v0
	C30.8,88.9,30.4,88.9,30.2,88.7L30.2,88.7z M24.5,59.7c0,0.1,0,0.1,0.1,0.2c0.1,0.3,0.4,0.1,0.6,0.4c0.1,0.1,0.1,0.2,0,0.3
	c-0.1,0-0.2-0.1-0.3-0.2c-0.1-0.2-0.4-0.2-0.4-0.4C24.5,59.9,24.5,59.8,24.5,59.7L24.5,59.7z M21.1,71.6c0.1,0.1,0.1,0.2,0.2,0.3h0
	c-0.2,0-0.3,0.3-0.3,0C21.1,71.8,21.1,71.7,21.1,71.6L21.1,71.6z M21.4,72l0.1,0.1h0C21.4,72.1,21.4,72.1,21.4,72L21.4,72z
	 M24.8,82.9c0.2,0.4,0.4,0.8,0.1,0.9c-0.1-0.1-0.7-0.1-0.5-0.4C24.5,83.2,24.6,83.1,24.8,82.9L24.8,82.9z M24,83.2
	c-0.1-0.2-0.2-0.4-0.3-0.5c0.1-0.2,0.1-0.3,0.3-0.3c0.2,0.1,0.6-0.1,0.4,0.2C24.4,82.7,24.2,83,24,83.2L24,83.2z M23.1,82.9
	c0,0.2,0.2,0.3,0.2,0.5c0,0.2,0,0.1-0.2,0l0,0l0,0l-0.1-0.1c0,0-0.1-0.1-0.1-0.1c-0.1,0-0.1-0.1-0.2-0.1c0,0-0.1,0-0.1-0.1
	c0.1,0,0.1,0,0.2-0.1C23,82.9,23.1,82.9,23.1,82.9L23.1,82.9z M23.9,85.1C24,85.1,24,85.1,23.9,85.1C24,85.1,23.9,85.1,23.9,85.1
	L23.9,85.1z M27.9,85.2c0-0.1,0-0.1,0.1-0.2c0.1-0.3,0.5-0.3,0.4-0.6c-0.1-0.2,0-0.5,0.2-0.6c0.1,0.1,0.1,0.1,0.2,0.1
	c0.1,0,0.3-0.1,0.4-0.2c0.1,0.1,0.2,0.1,0.3,0.2c0,0.1-0.1,0.2-0.1,0.3c-0.1,0.5-0.4,0.7-0.8,0.7C28.3,85,28.1,85.1,27.9,85.2
	L27.9,85.2z M30,83.8L30,83.8c0.3,0.1,0.5,0.1,0.7-0.1c-0.1-0.1-0.1-0.2-0.3-0.2C30.2,83.7,29.8,83.5,30,83.8L30,83.8z M30,86.5
	c0.1-0.1,0.2-0.1,0.3-0.2c0.2-0.1,0.3,0,0.4,0c-0.1,0-0.2,0.1-0.3,0.1C30.3,86.5,30.2,86.5,30,86.5L30,86.5z M30.3,86.9
	C30.2,87,30,87,29.9,87.1C30,87,30.1,86.9,30.3,86.9L30.3,86.9z M21.1,76.6C21.1,76.6,21.2,76.6,21.1,76.6c0.3,0,0.3,0.1,0.4,0.2
	C21.4,76.8,21.2,76.8,21.1,76.6L21.1,76.6z M21.9,76.9c0.1,0,0.1-0.1,0.2-0.1c0.2,0.2,0.1,0.4,0.1,0.4S22.1,76.9,21.9,76.9
	L21.9,76.9z M23.8,77.2c0.1,0.1,0.1,0.1,0.2,0.2c0.3,0.3,0.5,0.4,0.5,0.6c-0.1,0-0.1,0-0.3,0c-0.4,0-0.8-0.3-0.9-0.6
	C23.3,77.2,23.6,77.2,23.8,77.2L23.8,77.2z M23.8,73.9H24c0.3,0.1,0.3-0.3,0.5,0c0.1,0.2,0.1,0.3,0.1,0.4
	C24.3,74.2,23.9,74.1,23.8,73.9L23.8,73.9z M20.9,86.2c-0.2-0.1-0.4-0.5-0.1-0.4c0.4,0.1,0.4,0.3,0.7,0.4c0.1,0,0.3,0.1,0.3,0
	c0,0-0.1,0-0.1,0.1C21.4,86.4,21.3,86.1,20.9,86.2L20.9,86.2z M22,86.2L22,86.2c0-0.1,0-0.1,0-0.1C22,86.1,22,86.1,22,86.2L22,86.2z
	 M43.2,88.4c0.1,0,0.1-0.1,0.2,0c0.1,0,0.1,0.1,0,0.1C43.4,88.4,43.2,88.4,43.2,88.4L43.2,88.4z M43.4,88.5c0,0-0.1,0.1-0.1,0.1
	l-0.1-0.1C43.2,88.5,43.3,88.5,43.4,88.5L43.4,88.5z M38,81.1C38,81.1,38,81.1,38,81.1V81c0.1,0,0.1-0.1,0.2-0.2
	c0-0.1,0-0.1,0.1-0.1c0.1,0,0.2,0.1,0.2,0.1c0,0,0,0.1,0.1,0.1C38.4,81,38.2,81,38,81.1L38,81.1z M40.3,55.6
	c0.1,0.1,0.1,0.2,0.2,0.3v0c0-0.1,0.1-0.1,0.1-0.2c0-0.1-0.1-0.1-0.1-0.2C40.5,55.6,40.4,55.6,40.3,55.6
	C40.4,55.6,40.3,55.6,40.3,55.6L40.3,55.6z M40.5,56C40.5,56,40.5,56,40.5,56L40.5,56C40.5,56,40.5,56,40.5,56L40.5,56z M41.6,56.4
	L41.6,56.4L41.6,56.4L41.6,56.4z M55.9,87.6c0,0,0,0.1,0,0.1c0,0.2,0,0.3,0.1,0.3c0,0,0,0.1,0,0.1c-0.1,0.1-0.4,0.1-0.6,0.1
	c0.1-0.1,0.2-0.3,0.3-0.4C55.7,87.7,55.8,87.6,55.9,87.6L55.9,87.6z M56.4,87.6C56.5,87.6,56.5,87.6,56.4,87.6c0.1,0,0.2,0,0.2,0v0
	C56.6,87.6,56.5,87.6,56.4,87.6L56.4,87.6z M59.7,83.8L59.7,83.8c-0.3,0.4-0.2,0.3-0.6,0.4c-0.3,0.1-0.3,0.1-0.7,0.3
	c-0.2,0.1-0.3,0.3-0.5,0.4c-0.1,0-0.2,0-0.3,0l-0.1,0l0,0c0-0.1-0.1-0.1-0.1-0.1c0.1,0.1,0.4-0.1,0.7-0.4c0.4-0.3,0.2-0.2,0.6-0.2
	c0.4-0.1,0.3-0.5,0.7-0.4C59.5,83.7,59.6,83.7,59.7,83.8L59.7,83.8z M57.5,84.5c0-0.1-0.1-0.3-0.1-0.4
	C57.5,84.2,57.5,84.3,57.5,84.5L57.5,84.5z M56.6,84C56.6,84,56.5,84,56.6,84c-0.4-0.3-0.6-0.1-0.5,0.4c0,0.1,0,0.2,0,0.4
	c-0.3,0-0.7,0.1-1,0.4c0-0.1,0-0.2,0-0.3c0.1-0.1,0.2-0.2,0.1-0.3c0-0.1,0-0.1,0-0.1c0.1-0.2,0.2-0.4,0.2-0.7h0.1c0.1,0,0.3,0,0.5,0
	c0.4,0,0.1,0.2,0.5,0.1c0.4-0.2,0.5-0.2,0.3,0.1C56.8,83.9,56.6,84,56.6,84L56.6,84z M53.5,84.5c-0.1,0.1-0.1,0.3-0.3,0.4
	C53,85,52.6,85,52.7,84.8c0.1-0.2,0.3-0.3,0.1-0.4c-0.3-0.1-0.1-0.3-0.3-0.7c0-0.1,0-0.1,0-0.2c0.1,0.1,0.1,0.1,0.1,0.2
	c0.2,0.3,0.6,0.6,0.6,0.3s0.1-0.4,0.1-0.9c0-0.1,0-0.1,0-0.2l0,0c0.2,0.1,0.4,0,0.4-0.2c0.1,0.1,0.2,0.1,0.3,0.1h0
	c-0.2,0.1-0.1,0.4,0.1,0.5c0.2,0.2,0.1,0.4-0.2,0.3c-0.3-0.1-0.5-0.3-0.6-0.1c-0.2,0.3,0.3,0.5,0.3,0.7
	C53.5,84.4,53.5,84.5,53.5,84.5L53.5,84.5z M61.3,83.2l-0.1-0.2c0,0,0-0.1,0-0.1c0.1-0.1,0.1-0.1,0.1-0.2c0.1-0.2,0.3-0.3,0.3-0.4
	c0.4,0,0.9,0.1,0.8-0.2c0.1,0,0.2,0,0.3,0c0.1,0,0.1,0.1,0.2,0.1c-0.1,0-0.1,0-0.2,0C62.5,82.3,61.7,83,61.3,83.2L61.3,83.2z
	 M57.8,80.6c-0.1-0.1-0.1-0.2-0.2-0.1l-0.1,0.1c-0.1,0-0.3-0.1-0.3,0c-0.2-0.1-0.3,0-0.4,0.1c0,0,0,0.1,0,0.1
	c-0.2-0.1-0.2,0-0.4,0.1c0,0-0.1,0-0.1,0.1c0,0-0.1,0-0.1,0c-0.3,0.1-0.1,0.3-0.6,0.4c-0.2,0.1-0.4,0-0.6-0.1h0.1
	c0.6-0.1,0.4-0.3,0.1-0.5c0,0-0.1-0.1-0.1-0.1c0.1,0,0.3,0,0.4,0c0.6-0.1,0.3-0.2,0.8-0.3c0.5-0.1,1-0.1,1.3-0.1
	C58,80.2,58,80.6,57.8,80.6L57.8,80.6z M57.1,81L57.1,81l-0.2,0l0,0C57,81,57,81,57.1,81L57.1,81z M56.6,81.2c-0.1,0-0.1,0-0.1-0.1
	C56.5,81.2,56.5,81.2,56.6,81.2L56.6,81.2z M55,79c0.1,0,0.1-0.1,0.1-0.1c0,0,0,0.1,0,0.1c0,0,0.1,0.1,0.1,0.1
	C55.2,79.1,55.1,79.1,55,79L55,79z M57.8,77.2c0.1-0.2,0.3-0.1,0.5,0.2c-0.1-0.1-0.2-0.1-0.3-0.1C58,77.2,57.9,77.2,57.8,77.2
	L57.8,77.2z M59.2,77.3c-0.1-0.4-0.1-0.4,0.5-0.3c0.2,0.1,0.3,0.1,0.4,0c-0.1,0.1-0.1,0.1-0.3,0.2c0,0-0.1,0-0.1,0
	C59.5,77.2,59.3,77.2,59.2,77.3L59.2,77.3z M60.6,76.3c-0.1-0.1-0.3-0.1-0.5-0.1c0.3,0,0.5-0.1,0.5-0.1S60.6,76.3,60.6,76.3
	L60.6,76.3z M61.7,75.1L61.7,75.1c0.1-0.1,0.1-0.1,0.1-0.1s0.1,0,0.1,0c0.1,0,0.2,0,0.3,0c0,0,0.1,0.1,0.1,0.1
	c0.1,0.1,0.1,0.2,0.2,0.3C62.2,75.3,61.9,75.2,61.7,75.1L61.7,75.1z M63,75.4c0-0.1-0.1-0.2-0.2-0.4c0.5,0.1,1,0.1,1.5,0.1
	c0.2,0.3,0.5,0.4,0.8,0.5c-0.1,0.1-0.3,0.1-0.5,0.1C63.7,75.9,63.6,75.5,63,75.4L63,75.4z M63.2,68.1c-0.1,0.2-0.2,0.3-0.3,0.4h0
	c0,0-0.1,0-0.1-0.1c-0.1-0.1-0.1-0.1-0.2-0.1c0-0.1,0-0.1,0-0.1C62.9,68.4,63,68.3,63.2,68.1L63.2,68.1z M62.4,68.1
	c-0.1,0.1-0.2,0.1-0.3,0.2C62.2,68.2,62.3,68.1,62.4,68.1L62.4,68.1z M58.8,68.7C58.8,68.7,58.8,68.7,58.8,68.7c0-0.2,0-0.3,0-0.4
	c0.1,0.1,0.1,0.1,0.2,0.1C59,68.6,58.8,68.6,58.8,68.7L58.8,68.7z M58.7,68.3c-0.1,0-0.1,0-0.3,0.1c-0.1,0.1-0.2,0.1-0.3,0.1l0-0.1
	c0.1-0.1,0.1-0.1,0.3-0.2C58.5,68.2,58.6,68.2,58.7,68.3L58.7,68.3z M58.4,66.2c0.2,0,0.4,0,0.4,0c0.1,0.1,0.1,0.2,0.2,0.4
	c-0.1-0.1-0.2-0.1-0.3-0.2C58.7,66.3,58.5,66.3,58.4,66.2L58.4,66.2z M59.7,66.6c-0.2-0.3-0.4-0.3-0.3-0.6c0,0,0-0.1,0-0.1
	c0,0.1,0.2,0.1,0.4,0.1c0.1,0.1,0.1,0.2,0.2,0.3c0.1,0.2,0.2,0.3,0.3,0.3c-0.1,0-0.1,0-0.1,0C60,66.6,60,66.5,59.7,66.6L59.7,66.6z
	 M61.6,55.4l-0.1,0.1c-0.2,0.2-0.2,0-0.3-0.2l0-0.1c0,0,0.1-0.1,0.1-0.1C61.3,55.3,61.4,55.3,61.6,55.4L61.6,55.4z M60.6,55.8
	L60.6,55.8C60.5,55.8,60.5,55.8,60.6,55.8L60.6,55.8L60.6,55.8z M59.5,56.2c0-0.1-0.1-0.2-0.1-0.4c-0.1-0.3-0.3,0.2-0.6,0.5
	c-0.3,0.3-0.9,0.4-0.3-0.2c0.6-0.6,0.6-0.4,0.8-0.9c0.1-0.3-0.1-0.3-0.3-0.3c0.1-0.2,0.3,0.1,0.6-0.1c0.4-0.2,0.1-0.2-0.1-0.5
	c-0.1-0.2-0.2-0.2,0-0.3c0,0,0,0,0.1,0c0.6,0,1.1-0.1,0.6-0.3l-0.1,0c0.3-0.1,0.5-0.2,0.7-0.3c0.1,0,0.1,0,0.2,0
	c0.4,0,0.4-0.1,0.2-0.3c0.1-0.1,0.1-0.1-0.1-0.1c-0.1-0.1-0.2-0.1-0.3-0.2c-0.1-0.1-0.3-0.2-0.4-0.2c0.1,0,0.1-0.1,0.3-0.1
	c0.1,0,0.1,0,0.2,0c0,0.1,0.1,0.2,0.2,0.2c0.2,0,0.5,0,0.9,0.2c0.4,0.1,0,0.2-0.3,0.2c-0.2,0-0.3,0-0.3,0.3c0,0.3,0.3,0.2,0.6,0.2
	c0.3,0,0.1,0.4,0,0.4c-0.1-0.1-0.5-0.1-0.6,0.1c-0.1,0.1-0.2,0.2-0.4,0c-0.1-0.1-0.3-0.1-0.5,0.1c-0.2,0.2,0,0.2,0.4,0.3
	c0,0.1,0,0.1,0.1,0.1l0.1,0.1c-0.1,0.1-0.2,0.1-0.3,0.1c-0.1,0.1-0.2,0.2-0.2,0.3c-0.1,0.1-0.1,0.2-0.3,0.3c-0.2,0-0.1,0.2,0,0.3
	c-0.2-0.1-0.3-0.1-0.3-0.2c-0.1-0.1-0.2,0-0.4,0.2C59.4,56,59.6,56,59.5,56.2L59.5,56.2z M62.6,49.8l0.1,0c0,0.1,0.1,0.1,0.1,0.2
	C62.8,49.9,62.7,49.9,62.6,49.8L62.6,49.8z M54.5,82.4c0.1,0,0.1,0,0.2,0c-0.1-0.1-0.2-0.2-0.3-0.4c-0.1-0.1-0.2-0.1-0.3-0.1
	C54.2,82.1,54.3,82.3,54.5,82.4L54.5,82.4z M62.1,87.3c0.1,0,0.2-0.1,0.3-0.1C62.3,87.3,62.2,87.3,62.1,87.3L62.1,87.3z M63.6,86.6
	L63.6,86.6c0.1-0.1,0.1-0.3,0.1-0.4c-0.2,0-0.4,0-0.5,0.1c0,0,0,0,0,0.1s0,0.1,0,0.1c0,0,0,0,0,0.1C63.3,86.6,63.5,86.6,63.6,86.6
	L63.6,86.6z M59.3,87.4c0-0.1,0-0.1,0-0.1c-0.2-0.2-0.5-0.4-0.8,0h0v0.1c0.2,0.1,0.4,0.2,0.5,0.3C59.1,87.6,59.2,87.5,59.3,87.4
	L59.3,87.4z M59.7,68.2c0.1-0.1,0.1-0.3-0.1-0.2c0,0-0.1,0.1-0.1,0.1L59.7,68.2z M65.5,46c-0.1-0.1-0.2-0.1-0.3-0.1h-0.1
	C65.3,46,65.5,46,65.5,46L65.5,46z M67.8,30.5c0.1-0.1,0.1-0.2,0.1-0.3l0-0.1C67.8,30.2,67.8,30.3,67.8,30.5L67.8,30.5z M67.7,29
	c0.2-0.5,0.2-0.8,0.1-1v0.1C67.7,28.6,67.6,28.8,67.7,29L67.7,29z M70,47.2C70,47.3,70,47.4,70,47.2C70,47.3,70,47.3,70,47.2
	L70,47.2z M75.9,65.8c-0.2,0.1-0.4,0.1-0.5,0.2l0.1,0c0.2-0.1,0.4-0.1,0.6-0.1c0,0,0.1-0.1,0.1-0.1C76.1,65.8,76,65.8,75.9,65.8
	L75.9,65.8z M77.2,66.6c0.1-0.1,0.2-0.1,0.3-0.1l-0.1,0C77.2,66.3,77.1,66.4,77.2,66.6L77.2,66.6z M79.9,76c0.1,0,0.1,0,0.2,0.1
	C80,76,80,76,79.9,76L79.9,76z M76.2,88.1c-0.1-0.3-0.4-0.3-0.7-0.2c-0.1,0.1-0.2,0.1-0.3,0.1c0.1,0.1,0.3,0.1,0.4,0.1
	C75.8,88.1,76,88.1,76.2,88.1L76.2,88.1z M73.8,89.1c-0.2,0.1-0.3,0.3-0.2,0.7C73.8,89.6,73.9,89.5,73.8,89.1L73.8,89.1z M70.4,88.5
	c-0.1-0.1-0.2-0.3-0.5-0.4c-0.1-0.1-0.3-0.1-0.4-0.2c0,0.4,0.1,0.3-0.1,0.4c-0.1,0.1-0.5-0.1-0.5-0.1v0l0,0c0,0,0.3,0.2,0.3,0.4
	c0,0.2,0.3,0.2,0.6,0C69.9,88.6,70.2,88.6,70.4,88.5L70.4,88.5z M65.1,47.9c0.1,0,0.3,0,0.3,0.1c0.1,0.1,0.2,0,0.2-0.2
	c-0.3-0.3-0.5-0.6-0.6-0.3C65,47.8,65,47.9,65.1,47.9L65.1,47.9z M65.1,41.2c0,0.1,0,0.2,0.1,0.2c0,0,0.1,0.1,0.1,0.1l0,0
	c0.3,0.1,0.3-0.1,0.4,0.3c0,0.1,0.1,0.2,0.1,0.2c0-0.1,0.1-0.1,0.1-0.2c0.2-0.2,0.1-0.3-0.2-0.4C65.5,41.1,65.2,41.1,65.1,41.2
	L65.1,41.2z M66.2,42.2c0.1,0.1,0.2,0.3,0.4,0.5c0.2,0.3,0.2,0,0.1-0.4c0,0,0-0.1,0-0.1C66.4,42,66.3,42,66.2,42.2L66.2,42.2z
	 M71.9,54.1c0.1-0.1,0.3-0.2,0.4,0c0.3,0.2,0.1,0.6,0.6,0.3h0c0.1-0.1,0.2-0.1,0.3-0.2c0.2-0.1,0.4-0.2,0.5-0.3c-0.1,0-0.2,0-0.3,0
	c-0.6,0.1-0.4-0.4-1.2-0.2C72.1,53.9,72,54,71.9,54.1L71.9,54.1z M74,54C74.1,54,74.1,54.1,74,54C74.2,54.1,74.1,54,74,54L74,54z
	 M72.6,54.8c-0.1,0-0.1,0-0.1,0C72.4,54.9,72.5,54.9,72.6,54.8L72.6,54.8z M72.9,67.2c-0.1,0.2-0.1,0.4-0.4,0.5
	c-0.3,0.1-0.5,0-0.7,0c-0.1,0.1-0.1,0.1-0.1,0.1c-0.2,0.1-0.2,0.1-0.2-0.1c-0.1,0-0.2,0.1-0.3,0.2C71.1,67.9,71,68,71,68.1
	c0.3-0.2,0.6-0.2,0.8,0.1c0.1,0.1,0.1,0.1,0.2,0.2c0.1,0,0.2-0.1,0.3-0.1l0.1,0c0.2-0.1,0.3-0.2,0.6-0.4c0.6-0.5,0.6,0.2,0.8,0
	C73.9,67.7,73.7,67.3,72.9,67.2L72.9,67.2z M70.8,73.4c0.1,0,0.1,0,0.2,0c0.2-0.1,0.4-0.4,0.5-0.3c0.1,0.1,0.2,0.2,0.1,0.3
	c0.2-0.1,0.4-0.1,0.6,0c0.4,0.1,0.7-0.4,0.4-0.3c-0.3,0.1-0.1-0.4-0.5-0.3C71.6,72.9,71.2,72.9,70.8,73.4L70.8,73.4z M71.6,74.3
	c0.1,0,0.1-0.1,0.1-0.1c0.1-0.1,0.1-0.1,0.1-0.2C71.8,74.1,71.7,74.2,71.6,74.3C71.6,74.3,71.6,74.3,71.6,74.3L71.6,74.3z
	 M74.6,73.5L74.6,73.5c0.2,0.1,0.5,0,0.8,0c0-0.1,0-0.1,0-0.1c-0.1-0.2-0.4-0.1-0.6,0.1C74.8,73.5,74.7,73.5,74.6,73.5L74.6,73.5z
	 M72.6,84.8c0.5-0.2,1.1-0.2,1.7,0c-0.1-0.3-0.2-0.5-0.8-0.5c-0.8-0.1-1,0-1.9-0.2C71.8,84.3,72.2,84.6,72.6,84.8L72.6,84.8z
	 M76,76.2c0-0.1,0-0.2,0.1-0.3c-0.3,0.2-0.7,0.3-1.4,0.1c-0.6-0.2-0.9-0.3-1.3-0.3c0.4,0.2,0.6,0.6,0.7,1.1c0.3,0.1,0.4,0.1,1,0.3
	c0.9,0.2-0.1-0.6,0.5-0.7C75.8,76.3,75.8,76.3,76,76.2L76,76.2z M73.8,74.3L73.8,74.3c-0.1,0-0.1,0-0.2-0.1
	c-0.2,0.2-0.5,0.3-0.7,0.4c0,0.1-0.1,0.1-0.1,0.1c0.1,0,0.3,0,0.4-0.1C73.4,74.7,73.6,74.5,73.8,74.3L73.8,74.3z M65.3,79.3l0.3-0.1
	C65.4,79.2,65.4,79.2,65.3,79.3L65.3,79.3z M67,69.3l-0.9-0.7c0,0,0,0.1,0,0.1l0.2,1.3c0.2,0,0.3,0.1,0.4,0.1c0.1,0,0.1-0.1,0.4-0.2
	C67.3,69.8,67.3,69.6,67,69.3L67,69.3z M68.3,54.2l0,0.4l0,0c0.3-0.3,0.6-0.4,0.9-0.6c0.1,0,0.1,0,0.2,0c0.1-0.1,0.1-0.1,0.2-0.1
	c0-0.4-0.5-0.5-0.7-0.2C68.8,53.8,68.5,54.1,68.3,54.2L68.3,54.2z M71.5,49.6L71.5,49.6L71.5,49.6L71.5,49.6z M71.4,48.3
	c-0.1-0.1-0.1-0.1-0.1-0.2c-0.4,0-0.7-0.1-0.9-0.3c-0.2,0-0.3,0.2-0.6,0.5c-0.3,0.2-0.3,0.4-0.3,0.5c0.3-0.2,0.6-0.3,0.9-0.3
	l0.1-0.1C70.7,48,70.8,48.3,71.4,48.3L71.4,48.3z M66.4,85.8c0.2,0.1,0.4,0.3,0.5,0.4c0.2-0.3,0.3-0.6,0-0.6
	C66.6,85.7,66.5,85.7,66.4,85.8L66.4,85.8z M66,87.2c0-0.1-0.1-0.3-0.2-0.4c-0.2,0.1-0.4,0.2-0.8,0.4c-0.2,0.1-0.4,0.2-0.7,0.3
	c-0.1,0.1-0.1,0.2-0.1,0.2c0,0.1,0,0.4,0.4,0.1c0.2-0.2,0.5-0.3,0.7-0.3C65.6,87.4,65.8,87.3,66,87.2L66,87.2z M75.7,86.4
	c-0.1,0.1-0.2,0.1-0.4-0.1c-0.3-0.2-0.5-0.1-0.8-0.1c0,0,0.1,0.1,0.1,0.1C75.3,86.8,76.4,86.8,75.7,86.4L75.7,86.4z M72.5,76.7
	c-0.2,0-0.3-0.1-0.3,0.1c0,0,0,0.1,0,0.1l0.1-0.1C72.3,76.9,72.4,76.8,72.5,76.7L72.5,76.7z M72.1,77c-0.1,0-0.3-0.1-0.3,0.1
	C71.9,77.1,72,77.1,72.1,77L72.1,77z M70.7,77.4c-0.1,0-0.2-0.1-0.2-0.1C70.5,77.4,70.6,77.5,70.7,77.4L70.7,77.4z M66.3,81.4
	c-0.1-0.1-0.1,0.1-0.4-0.1c-0.1-0.1-0.1-0.1-0.1-0.1c-0.1-0.1-0.3-0.2-0.4-0.3c-0.1,0.1-0.1,0.2-0.2,0.3c0.1,0.1,0.3,0.2,0.1,0.4
	c-0.1,0.2-0.2,0.3-0.3,0.4c0,0.3-0.1,0.4-0.3,0.1c-0.1,0-0.2,0.1-0.3,0c-0.1,0-0.1,0-0.2,0c-0.1,0.3,0.2,0.6,0.4,0.6
	c0.2,0,0.4,0.1,0.5,0.2c0.4-0.1,0.4-0.7,0.7-0.9C66.1,81.8,66.2,81.6,66.3,81.4L66.3,81.4z M66.1,74.9c0,0-0.1,0-0.1-0.1
	c-0.2-0.1-0.4-0.2-0.5-0.2c0.1-0.1,0.2-0.1,0.8-0.1C66.2,74.5,66.3,74.7,66.1,74.9L66.1,74.9z M69.8,50.1c-0.2,0.1-0.2,0.4-0.2,0.4
	c0,0.1,0.1,0.4,0,0.5c-0.2,0-0.4,0-0.6,0c0-0.3,0.2-0.5,0.5-0.8c0.3-0.3,0.4-0.4,0.4-0.4S69.8,50,69.8,50.1L69.8,50.1z M69.9,55.2
	c0.1,0,0.1,0,0.1-0.1c0.2-0.2,0-0.4,0.2-0.3c0.2,0.1,0.4,0.3,0.2,0.5c-0.2,0.2-0.3,0.1-0.4,0.2C70,55.5,70,55.3,69.9,55.2L69.9,55.2
	z M68.4,62.2c-0.1-0.3-0.2-0.7,0.7-0.8c0.9-0.1,1.6,0.2,1.7-0.3c0.1-0.5,0.1-1.2,0.4-1.3c0.3-0.1,0.4,0.2,0.1,0.7
	c-0.3,0.5,0.1,1.4-0.6,1.3c-0.7-0.1-0.9,0.8-1.2,0.3C69.1,61.6,68.7,62,68.4,62.2L68.4,62.2z M69.3,60.9c0,0-0.1-1.4,0.3-1.6
	c0.4-0.3,0.6-0.1,1.2-0.4c0.6-0.4,1.8-1.1,1.7-0.6c0,0.5-1.3,0.5-1.4,0.9c-0.1,0.4-0.8,0.1-0.9,0.5c-0.1,0.4,0.1,0.8-0.3,1.1
	C69.5,61,69.3,60.9,69.3,60.9L69.3,60.9z M53.3,55.1C53.3,55.1,53.4,55.1,53.3,55.1c0.3-0.1,0.4-0.2,0.6-0.2h0l0,0l0,0h0l0,0
	c0.1,0,0.3,0.1,0.2,0.2c-0.1,0.3,0.1,0.4,0.2,0.5c-0.1,0.1-0.2,0.1-0.3,0.1c-0.3,0.1-0.1-0.1-0.3-0.3C53.7,55.4,53.5,55.2,53.3,55.1
	L53.3,55.1z M55.2,55.4c0.1-0.1,0.3-0.1,0.5,0.1c-0.1,0.2-0.3,0.3-0.4,0C55.2,55.5,55.2,55.4,55.2,55.4L55.2,55.4z M57.8,45.1
	c-0.1-0.1-0.1-0.1-0.1-0.2c0.1-0.1,0.3-0.1,0.4-0.1C58.1,44.9,57.9,45,57.8,45.1L57.8,45.1z M53.3,24c-0.1,0-0.1-0.1,0.1-0.2h0
	C53.4,23.9,53.4,23.9,53.3,24C53.3,24,53.3,24,53.3,24L53.3,24z M49.7,16.3C49.6,16.3,49.6,16.4,49.7,16.3c-0.2,0.2-0.4,0.1-0.6,0.2
	c-0.2,0.1-0.1,0.3-0.3,0.4c0,0-0.1,0-0.1,0h0c0.3-0.1-0.1-0.3-0.1-0.6c-0.1-0.3,0.3-0.2,0.8,0C49.6,16.3,49.6,16.3,49.7,16.3
	L49.7,16.3z M45.1,18C45.1,18,45.1,18,45.1,18c-0.3,0.1-0.4-0.3-0.8-0.5c0.3-0.2,0.4-0.1,0.5,0.1C44.9,17.8,45,17.9,45.1,18L45.1,18
	z M33,48.9c0.1,0,0.3,0.1,0.4,0.1c0,0.1-0.1,0.1-0.2,0C33.1,48.9,33,48.9,33,48.9L33,48.9z M37.3,52.8c0.1,0.1,0,0.1-0.2,0.1
	c0,0,0,0,0,0C37.2,52.9,37.3,52.8,37.3,52.8L37.3,52.8z M36.6,53c-0.1,0-0.2,0.1-0.3,0c-0.4-0.1-0.1-0.3-0.2-0.5
	c0.2-0.1,0.3,0,0.4,0.1C36.4,52.7,36.5,52.8,36.6,53L36.6,53z M47.8,25.9L47.8,25.9c0.6-0.6,0.8-1,1.1-0.7c0.1,0.1,0.3,0.2,0.4,0.1
	c0.3-0.1-0.1-0.4,0.2-0.6c0.2-0.2,0.3-0.6,0.3-0.8c-0.3,0.4-0.7,0.1-0.8,0.4c-0.1,0.3-0.3-0.1-0.5,0.1c-0.2,0.2,0,0.3-0.2,0.7
	C48.1,25.4,48,25.6,47.8,25.9L47.8,25.9z M50.3,32.4l-0.1,0c-0.1,0-0.1,0.1-0.2,0.1c-0.1,0.1-0.1,0.3-0.3,0.3h0
	c-0.2,0.3-0.2,0.5,0,0.6c0.2,0.1,0.1,0.2,0,0.4c0.1-0.1,0.3-0.1,0.3-0.2c0.2-0.3,0-0.3,0.3-0.6C50.4,32.8,50.5,32.5,50.3,32.4
	L50.3,32.4z M51.1,48.9C51.1,48.9,51.1,48.8,51.1,48.9c0.1-0.4,0-0.8,0.2-0.9c0.2,0,0.3-0.1,0.3-0.3c0,0,0,0,0-0.1
	c-0.3,0.2-0.5,0.4-0.5,0.8C51,48.6,51,48.7,51.1,48.9L51.1,48.9z M51.7,47.6c0.1,0,0.1,0,0.1,0.1c0,0.3-0.1,0.5,0.1,0.3
	c0.2-0.2,0.1-0.6,0.3-0.6c0.2,0,0.2,0.1,0.1,0.4c-0.1,0.3,0.2,0.3,0.1,0.6c-0.1,0.2-0.3,0.3-0.2,0.4c0.1,0.1,0.4-0.2,0.5,0
	c0,0.1,0.2,0,0.3-0.1c0-0.2,0-0.3,0.1-0.3v0c0-0.3,0.2-0.3,0.4-0.3c0.2,0,0.3-0.1,0.3-0.1c0,0,0,0-0.1-0.1c-0.2-0.2-0.2-0.4-0.1-0.6
	c0.1-0.1,0.1-0.4,0-0.6c0,0.3,0.1,0.7-0.2,0.5l-0.1,0c0,0.1-0.1,0.3-0.2,0.3c-0.2,0.1-0.5-0.3-0.8-0.5l0,0c-0.1,0.2-0.1,0.3-0.4,0.2
	h-0.1C51.8,47.4,51.8,47.5,51.7,47.6L51.7,47.6z M46.8,36.5c0-0.1,0-0.2,0-0.2c0-0.3,0.2-0.3,0.3-0.5c0,0.1,0.1,0.1,0.1,0.1
	c0.5,0.5,0.4,1,0.1,1.2C47.2,37.3,47.2,36.5,46.8,36.5L46.8,36.5z M46.5,20.8v0.5c0.1,0,0.2,0.1,0.3,0.2h0l0,0
	c0.1-0.4,0.1-0.6,0.3-0.6c0.2,0,0.3-0.2,0.3-0.3c-0.4-0.3-0.5-0.2-0.7,0.1C46.7,20.6,46.6,20.7,46.5,20.8L46.5,20.8z M44.2,56.5
	c-0.3,0.2-0.6,0.5-0.8,0.6c-0.3,0.3,0.4,0.5,0.6,0.2c0.1-0.2,0.1-0.5,0.3-0.5L44.2,56.5z M50.3,75.1c0.2,0.1,0.4,0.2,0.5,0.1
	C50.9,75,51,75,51.1,75c-0.1-0.1-0.3-0.2-0.4-0.2C50.5,74.8,50.4,74.9,50.3,75.1L50.3,75.1z M51.3,75.1c0.1,0.1,0.2,0.3,0.2,0.5
	c0,0.6,0.6,0.3,0.8,0.1c0.1-0.1,0.2-0.2,0.4-0.2c0.1-0.1,0.1-0.1,0.1-0.2c0.1-0.1,0.1-0.3,0.1-0.4c0,0,0,0-0.1,0c-0.1,0-0.1,0-0.2,0
	s-0.1,0-0.1,0c-0.2,0.2-0.4-0.1-0.4-0.3L52,74.4c0,0.2,0,0.6-0.1,0.7c-0.1,0.2-0.2-0.2-0.3-0.6c-0.1-0.4-0.4,0-0.3,0.4
	C51.4,75.1,51.4,75.1,51.3,75.1L51.3,75.1z M47.8,64.2c-0.2,0.2,0,0.8,0,1.3c0.1,0.1,0.3,0.2,0.4,0.3c0.2,0.1,0.3,0.1,0.4,0.1
	c0.1-0.1,0.1-0.1,0.2-0.1c0.1-0.2-0.1-0.5-0.1-0.7c-0.1-0.3,0.3-0.5,0.5-0.5c0.2,0,0.4-0.3,0.3-0.5c-0.1-0.1-0.1-0.2-0.1-0.3
	c-0.1,0-0.3,0.1-0.4,0.3c-0.4,0.5,0,0.2-0.2,0.5C48.7,64.8,47.9,64.5,47.8,64.2L47.8,64.2z"/>
</svg>
