<?xml version="1.0" encoding="utf-8"?>
<!-- Generator: Adobe Illustrator 25.3.1, SVG Export Plug-In . SVG Version: 6.00 Build 0)  -->
<svg version="1.1" id="katman_1" xmlns="http://www.w3.org/2000/svg" xmlns:xlink="http://www.w3.org/1999/xlink" x="0px" y="0px"
	 viewBox="0 0 100 100" style="enable-background:new 0 0 100 100;" xml:space="preserve">
<style type="text/css">
	.st0{fill:#FFFFFF;}
</style>
<g>
	<path class="st0" d="M23.3,97.6H9.8c-2.3,0-4.2-1.9-4.2-4.2V28.9c0-2.3,1.9-4.2,4.2-4.2h13.5c2.3,0,4.2,1.9,4.2,4.2v64.5
		C27.5,95.8,25.6,97.6,23.3,97.6z M9.8,27.9c-0.6,0-1.1,0.5-1.1,1.1v64.5c0,0.6,0.5,1.1,1.1,1.1h13.5c0.6,0,1.1-0.5,1.1-1.1V28.9
		c0-0.6-0.5-1.1-1.1-1.1H9.8z"/>
	<path class="st0" d="M46.1,97.6H28.5c-2.3,0-4.2-1.9-4.2-4.2V16.8c0-2.3,1.9-4.2,4.2-4.2h17.5c2.3,0,4.2,1.9,4.2,4.2v76.6
		C50.3,95.8,48.4,97.6,46.1,97.6z M28.5,15.7c-0.6,0-1.1,0.5-1.1,1.1v76.6c0,0.6,0.5,1.1,1.1,1.1h17.5c0.6,0,1.1-0.5,1.1-1.1V16.8
		c0-0.6-0.5-1.1-1.1-1.1H28.5z"/>
	<path class="st0" d="M59.4,97.6h-8.1c-2.3,0-4.2-1.9-4.2-4.2V20.9c0-2.3,1.9-4.2,4.2-4.2h8.1c2.3,0,4.2,1.9,4.2,4.2v72.6
		C63.6,95.8,61.8,97.6,59.4,97.6z M51.3,19.8c-0.6,0-1.1,0.5-1.1,1.1v72.6c0,0.6,0.5,1.1,1.1,1.1h8.1c0.6,0,1.1-0.5,1.1-1.1V20.9
		c0-0.6-0.5-1.1-1.1-1.1H51.3z"/>
	<path class="st0" d="M79.5,97.6H64.7c-2.3,0-4.2-1.9-4.2-4.2v-82c0-2.3,1.9-4.2,4.2-4.2h14.8c2.3,0,4.2,1.9,4.2,4.2v82
		C83.8,95.8,81.9,97.6,79.5,97.6z M64.7,10.4c-0.6,0-1.1,0.5-1.1,1.1v82c0,0.6,0.5,1.1,1.1,1.1h14.8c0.6,0,1.1-0.5,1.1-1.1v-82
		c0-0.6-0.5-1.1-1.1-1.1H64.7z"/>
	<path class="st0" d="M90.2,97.6h-5.4c-2.3,0-4.2-1.9-4.2-4.2V16.8c0-2.3,1.9-4.2,4.2-4.2h5.4c2.3,0,4.2,1.9,4.2,4.2v8.7
		c0,0.9-0.7,1.6-1.6,1.6c-0.9,0-1.6-0.7-1.6-1.6v-8.7c0-0.6-0.5-1.1-1.1-1.1h-5.4c-0.6,0-1.1,0.5-1.1,1.1v76.6
		c0,0.6,0.5,1.1,1.1,1.1h5.4c0.6,0,1.1-0.5,1.1-1.1V34.9c0-0.9,0.7-1.6,1.6-1.6c0.9,0,1.6,0.7,1.6,1.6v58.5
		C94.4,95.8,92.5,97.6,90.2,97.6z"/>
	<path class="st0" d="M25.9,47.9H7.1c-0.9,0-1.6-0.7-1.6-1.6v-5.4c0-0.9,0.7-1.6,1.6-1.6h18.8c0.9,0,1.6,0.7,1.6,1.6v5.4
		C27.5,47.2,26.8,47.9,25.9,47.9z M8.7,44.7h15.6v-2.2H8.7V44.7z"/>
	<path class="st0" d="M25.9,58.3H7.1c-0.9,0-1.6-0.7-1.6-1.6v-5.4c0-0.9,0.7-1.6,1.6-1.6h18.8c0.9,0,1.6,0.7,1.6,1.6v5.4
		C27.5,57.6,26.8,58.3,25.9,58.3z M8.7,55.2h15.6v-2.2H8.7V55.2z"/>
	<path class="st0" d="M19.3,83.6h-5.5c-0.9,0-1.6-0.7-1.6-1.6c0-0.9,0.7-1.6,1.6-1.6h5.5c0.9,0,1.6,0.7,1.6,1.6
		C20.8,82.9,20.1,83.6,19.3,83.6z"/>
	<path class="st0" d="M19.3,78.1h-5.5c-0.9,0-1.6-0.7-1.6-1.6c0-0.9,0.7-1.6,1.6-1.6h5.5c0.9,0,1.6,0.7,1.6,1.6
		C20.8,77.4,20.1,78.1,19.3,78.1z"/>
	<path class="st0" d="M40.1,83.6h-5.5c-0.9,0-1.6-0.7-1.6-1.6c0-0.9,0.7-1.6,1.6-1.6h5.5c0.9,0,1.6,0.7,1.6,1.6
		C41.6,82.9,40.9,83.6,40.1,83.6z"/>
	<path class="st0" d="M40.1,78.1h-5.5c-0.9,0-1.6-0.7-1.6-1.6c0-0.9,0.7-1.6,1.6-1.6h5.5c0.9,0,1.6,0.7,1.6,1.6
		C41.6,77.4,40.9,78.1,40.1,78.1z"/>
	<path class="st0" d="M39.9,61.9h-5.2c-2.3,0-4.2-1.9-4.2-4.2v-24c0-2.3,1.9-4.2,4.2-4.2h5.2c2.3,0,4.2,1.9,4.2,4.2v24
		C44.2,60,42.3,61.9,39.9,61.9z M34.7,32.6c-0.6,0-1.1,0.5-1.1,1.1v24c0,0.6,0.5,1.1,1.1,1.1h5.2c0.6,0,1.1-0.5,1.1-1.1v-24
		c0-0.6-0.5-1.1-1.1-1.1H34.7z"/>
	<path class="st0" d="M62.1,81.1h-6.7c-0.9,0-1.6-0.7-1.6-1.6c0-0.9,0.7-1.6,1.6-1.6h6.7c0.9,0,1.6,0.7,1.6,1.6
		C63.6,80.4,62.9,81.1,62.1,81.1z"/>
	<path class="st0" d="M62.1,34.4h-7.2c-0.9,0-1.6-0.7-1.6-1.6c0-0.9,0.7-1.6,1.6-1.6h7.2c0.9,0,1.6,0.7,1.6,1.6
		C63.6,33.7,62.9,34.4,62.1,34.4z"/>
	<path class="st0" d="M82.2,27.9H62.1c-0.9,0-1.6-0.7-1.6-1.6v-5.2c0-0.9,0.7-1.6,1.6-1.6h20.1c0.9,0,1.6,0.7,1.6,1.6v5.2
		C83.8,27.2,83.1,27.9,82.2,27.9z M63.6,24.7h17v-2h-17V24.7z"/>
	<path class="st0" d="M82.2,53.5H62.1c-0.9,0-1.6-0.7-1.6-1.6v-5.2c0-0.9,0.7-1.6,1.6-1.6h20.1c0.9,0,1.6,0.7,1.6,1.6v5.2
		C83.8,52.8,83.1,53.5,82.2,53.5z M63.6,50.3h17v-2h-17V50.3z"/>
	<path class="st0" d="M82.2,79.1H62.1c-0.9,0-1.6-0.7-1.6-1.6v-5.2c0-0.9,0.7-1.6,1.6-1.6h20.1c0.9,0,1.6,0.7,1.6,1.6v5.2
		C83.8,78.4,83.1,79.1,82.2,79.1z M63.6,76h17v-2h-17V76z"/>
	<path class="st0" d="M76.5,89.2h-8.8c-0.9,0-1.6-0.7-1.6-1.6c0-0.9,0.7-1.6,1.6-1.6h8.8c0.9,0,1.6,0.7,1.6,1.6
		C78.1,88.5,77.4,89.2,76.5,89.2z"/>
	<path class="st0" d="M87.5,89.2c-0.9,0-1.6-0.7-1.6-1.6v-4c0-0.9,0.7-1.6,1.6-1.6c0.9,0,1.6,0.7,1.6,1.6v4
		C89.1,88.5,88.4,89.2,87.5,89.2z"/>
	<path class="st0" d="M87.5,79.1c-0.9,0-1.6-0.7-1.6-1.6V66.3c0-0.9,0.7-1.6,1.6-1.6c0.9,0,1.6,0.7,1.6,1.6v11.2
		C89.1,78.4,88.4,79.1,87.5,79.1z"/>
	<path class="st0" d="M87.5,32.3c-0.9,0-1.6-0.7-1.6-1.6v-7.8c0-0.9,0.7-1.6,1.6-1.6c0.9,0,1.6,0.7,1.6,1.6v7.8
		C89.1,31.6,88.4,32.3,87.5,32.3z"/>
	<path class="st0" d="M96.7,97.6H3.3c-0.9,0-1.6-0.7-1.6-1.6c0-0.9,0.7-1.6,1.6-1.6h93.4c0.9,0,1.6,0.7,1.6,1.6
		C98.3,96.9,97.5,97.6,96.7,97.6z"/>
</g>
</svg>
