<?xml version="1.0" encoding="utf-8"?>
<!-- Generator: Adobe Illustrator 25.3.1, SVG Export Plug-In . SVG Version: 6.00 Build 0)  -->
<svg version="1.1" id="katman_1" xmlns="http://www.w3.org/2000/svg" xmlns:xlink="http://www.w3.org/1999/xlink" x="0px" y="0px"
	 viewBox="0 0 100 100" style="enable-background:new 0 0 100 100;" xml:space="preserve">
<style type="text/css">
	.st0{fill:#FFFFFF;}
</style>
<g>
	<path class="st0" d="M43.3,92.7c0.5,0.1,1.1,0.1,1.8,0.2c0.7,0.1,1.4,0.1,2.1,0.1c0.4,0,0.7,0,1.1,0c0.3,0,0.7,0,1,0
		c0.7,0,1.3,0,1.8-0.1c0.5,0,1-0.1,1.3-0.1c0.3,0,0.5-0.1,0.5-0.1s-0.2,0-0.5,0c-0.3,0-0.7,0-1.3-0.1c-1.1,0-2.5-0.1-3.9-0.1
		c-1.4,0-2.8-0.1-3.9-0.1c-0.5,0-1,0-1.3,0c-0.3,0-0.5,0-0.5,0s0.2,0,0.5,0.1C42.3,92.5,42.8,92.6,43.3,92.7z"/>
	<path class="st0" d="M46.4,96.6c0.5,0,0.9,0,1.4,0c0.5,0,0.9,0,1.3,0c0.9,0,1.7,0,2.4-0.1c0.7,0,1.3-0.1,1.7-0.1
		c0.4,0,0.6-0.1,0.6-0.1s-0.2,0-0.6,0c-0.4,0-1,0-1.7,0c-0.7,0-1.5,0-2.3-0.1c-0.9,0-1.8-0.1-2.7-0.1c-0.9,0-1.8-0.1-2.7-0.1
		c-0.9,0-1.7-0.1-2.3-0.1c-1.4-0.1-2.3-0.1-2.3-0.1s0.2,0,0.6,0.1c0.4,0.1,1,0.2,1.6,0.2c0.7,0.1,1.5,0.2,2.3,0.2
		C44.6,96.5,45.5,96.6,46.4,96.6z"/>
	<path class="st0" d="M94.3,71.6c0-0.1,0-0.2,0-0.3c0-0.6-0.5-1.1-1.1-1.1L78.7,35.1v-4.5v-4.3c0.3-0.1,0.6-0.1,0.7-0.1
		c1.7-0.5,2.3-1.2,2.5-1.4c0.4-0.6,0.3-1.4-0.3-1.8c-0.2-0.2-1-0.7-2.5-0.7c-0.1,0-0.2,0-0.2,0c-1.3,0-16.3,2-25.2,3.3v-1.2
		c0-1-0.4-1.9-0.7-2.5c0.2-0.2,0.3-0.5,0.3-0.8c0-0.6-0.2-1.1-0.5-1.4c0.1-1.2,0.4-3.6,0.4-5.3c0-1.5-0.2-3-0.3-3.9
		C52.9,10,53,9.5,53.1,9c0-0.2,0-0.4-0.1-0.5c0-0.1,0.1-0.3,0.1-0.4c0-0.4-0.1-0.8-0.4-1.2c0.3-0.4,0.8-1,0.8-2.1
		c0-2.1-1.6-3.5-3.9-3.5c-2.3,0-3.9,1.4-3.9,3.5c0,1.1,0.5,1.8,0.8,2.1c-0.3,0.4-0.4,0.9-0.4,1.2c0,0.1,0,0.3,0.1,0.4
		c-0.1,0.2-0.1,0.4-0.1,0.5c0,0.5,0.2,1,0.4,1.3c-0.1,0.9-0.3,2.4-0.3,3.9c0,1.7,0.2,4.1,0.4,5.3c-0.3,0.3-0.5,0.8-0.5,1.4
		c0,0.3,0.1,0.6,0.3,0.8c-0.3,0.6-0.7,1.5-0.7,2.5v2.4c-8.8,1.4-24.7,4.1-26,4.5c-1.7,0.5-2.3,1.2-2.5,1.4c-0.4,0.6-0.3,1.4,0.3,1.8
		c0.2,0.2,1,0.7,2.5,0.7c0,0,0.1,0,0.1,0v4.2v4.5L5.5,78.9c-0.6,0-1.1,0.5-1.1,1.1c0,0.1,0,0.2,0,0.3c-1,0.2-2,0.5-2,1.7
		c0,1.4,0.7,2,2.4,3.3c2.1,1.6,6.4,2.2,14.8,2.2c8.3,0,12.6-0.6,14.8-2.2c1.7-1.3,2.4-1.8,2.4-3.3c0-1.5-1.6-1.7-2.9-1.8
		c0-0.1,0-0.1,0-0.2c0-0.6-0.5-1.1-1-1.1L21,43.7v-4.5v-4.2c3.4-0.4,16.6-2.1,24.7-3.3v2.8c-0.6,0.1-1.1,0.6-1.1,1.3v1.1
		c0,0.3,0.1,0.7,0.4,0.9l0.2,0.2v44.4c-0.4,0.3-0.7,0.8-0.7,1.3c0,0.5,0.3,1,0.6,1.3c-0.3,2.6-1.6,3.4-2.9,4.1
		c-0.6,0.3-1.4,0.7-1.8,1.4c-0.9,0.4-1.6,1.1-1.6,2.2c0,0.5-0.3,0.6-0.4,0.7c-0.7,0-1.4,0.5-1.7,1.7c-0.1,0.5-0.1,1-0.1,1.5
		c0,2.3,3.4,2.3,5,2.3h7.9h7.9c1.6,0,5,0,5-2.3c0-0.5,0-1-0.1-1.5c-0.2-1.2-1-1.6-1.7-1.7c-0.1,0-0.4-0.2-0.4-0.7
		c0-1.1-0.7-1.8-1.6-2.2c-0.4-0.7-1.1-1.1-1.8-1.4c-1.2-0.7-2.6-1.4-2.9-4.1c0.4-0.3,0.6-0.8,0.6-1.3c0-0.5-0.3-1-0.7-1.3V37.9
		l0.2-0.2c0.2-0.2,0.4-0.6,0.4-0.9v-1.1c0-0.7-0.5-1.2-1.1-1.3v-4c7.5-1.2,19.9-3.3,24.3-4.1v4.2v4.5l-12,35.2c-0.6,0-1,0.5-1,1.1
		c0,0.1,0,0.2,0,0.2c-1.2,0.1-2.5,0.4-2.5,1.7c0,1.4,0.7,2,2.4,3.3c2.1,1.6,6.4,2.2,14.8,2.2c8.3,0,12.6-0.6,14.8-2.2
		c1.7-1.3,2.4-1.8,2.4-3.3C96.7,72.1,95.5,71.7,94.3,71.6z M38,96.4c0-0.4,0-0.9,0.1-1.2c5.7,0.8,11.5,1,17.3,0.6
		c0.2,0.6,0.2,1.3,0.1,1.7c-2.5,0-5.9,0-5.9,0s-6.1,0-7.9,0C39.9,97.4,38,97.3,38,96.4z M45.8,36.8v-1.1h0H47h4.4v0.9
		c0,0-0.1,0-0.1,0c-0.6,0-1.3,0-2.1,0.1c-1.5,0-3.1,0.1-3.1,0.1s1.5,0.1,3.1,0.1c0.8,0,1.5,0.1,2.1,0.1c0,0,0,0,0,0l-0.2,0.3h-4.7
		L45.8,36.8z M20,32.4c1.2-0.3,16.7-3,25.6-4.4v1.3c-0.5,0.1-1.1,0.2-1.6,0.2c-1.8,0.3-3.6,0.6-5.3,0.8c-0.8,0.1-1.6,0.3-2.4,0.4
		c-0.8,0.1-1.5,0.2-2.3,0.3c-1.6,0.2-3,0.4-4.4,0.6c-2.7,0.4-5,0.7-6.6,0.9c-0.8,0.1-1.4,0.2-1.8,0.3c-0.4,0.1-0.7,0.1-0.7,0.1
		s0.2,0,0.7,0c0.4,0,1.1,0,1.9,0c0.4,0,0.8,0,1.3,0c-0.6,0.1-1.2,0.2-1.7,0.3c-0.8,0.2-1.4,0.3-1.9,0.4c-0.4,0.1-0.7,0.1-0.7,0.1
		c-0.1,0-0.1,0-0.2,0c-1.2,0-1.8-0.4-1.8-0.4S18.7,32.7,20,32.4z M47,24.3c0-0.8,0.3-1.5,0.6-2c0.6,0.1,1.4,0.2,2.2,0.2
		c0,0,0,0.1,0,0.1c0,0.3,0.1,0.8,0.1,1.3c0,0.3,0,0.6-0.1,0.9c0,0.3,0,0.7-0.1,1c0,0.7,0,1.5-0.1,2.2c0,0.4,0,0.8,0,1.1
		c0,0.4,0,0.7,0,1.1c0,0.7,0.1,1.4,0.1,1.9c0.1,1.1,0.2,1.9,0.2,1.9s0.1-0.8,0.2-1.9c0-0.6,0.1-1.2,0.1-1.9c0-0.4,0-0.7,0-1.1
		c0-0.4,0-0.7,0-1.1c0-1.5-0.1-3-0.2-4.1c-0.1-0.6-0.2-1-0.3-1.4c0,0,0,0,0-0.1c0.2,0,0.4,0,0.6,0c0.2,0.5,0.3,1,0.3,1.6
		c0,1.1,0,8.5,0,10.7H47C47,32.2,47,25.4,47,24.3z M47,3.9c0-0.1,0.1-0.3,0.2-0.5c0.2-0.3,0.5-0.7,1-0.9c0.2-0.1,0.5-0.2,0.7-0.2
		c0.2,0,0.5-0.1,0.7-0.1c0.5,0,1,0.1,1.5,0.3c0.4,0.2,0.8,0.5,1,0.9c0.1,0.2,0.1,0.3,0.2,0.5c0,0.2,0,0.3,0,0.4c0,0.1,0,0.2,0,0.2
		c0,0.1,0,0.1,0,0.1s0,0,0-0.1c0-0.1,0-0.1,0-0.2c0-0.1-0.1-0.2-0.1-0.4c-0.1-0.1-0.1-0.3-0.2-0.4c-0.2-0.3-0.5-0.5-0.9-0.7
		c-0.2-0.1-0.4-0.1-0.6-0.2c0.9,0.7,1.4,2.7-0.2,3.6h-2.3C47.5,5.9,47,5.7,47,4.7c0,0,0,0,0-0.1c0-0.1,0-0.1,0-0.2
		C46.9,4.2,46.9,4.1,47,3.9z M79,23.4c1.2,0,1.8,0.4,1.8,0.4s-0.4,0.6-1.8,1c0,0-0.2,0-0.7,0.1c-0.4,0-1.1,0.1-1.9,0.2
		c-0.5,0.1-1.1,0.1-1.8,0.2c0.5-0.1,0.9-0.3,1.3-0.4c0.8-0.2,1.4-0.4,1.8-0.6c0.4-0.1,0.6-0.2,0.6-0.2s-0.2,0-0.6,0.1
		c-0.4,0.1-1,0.2-1.8,0.3c-1.6,0.3-3.8,0.6-6.5,1.1c-1.4,0.2-2.8,0.5-4.4,0.8c-0.7,0.1-1.5,0.3-2.2,0.4c-0.8,0.1-1.6,0.2-2.4,0.3
		c-1.7,0.2-3.5,0.5-5.3,0.8c-0.5,0.1-1,0.2-1.5,0.2v-1.3c9-1.3,24.1-3.3,25.3-3.3C78.9,23.4,78.9,23.4,79,23.4z M50.2,7.4l-0.4,1
		c-0.2,0-0.5,0-0.7,0.1C48.5,8.4,48,8.5,48,8.5s0.6,0.1,1.1,0.1c0.3,0,0.5,0.1,0.7,0.1l0.5,1.1h-2.4l0,0c-0.5,0-0.5-0.8-0.5-0.8
		l0.5-0.5L47.4,8c0-0.5,0.2-0.6,0.4-0.7H50.2z M51.9,12.1c0.1,0.8,0.3,1.9,0.2,2.9c0,1.1-0.2,2.1-0.3,2.9c-0.1,0.4-0.1,0.7-0.2,0.9
		c0,0.2-0.1,0.4-0.1,0.4s0-0.1,0-0.4c0-0.2,0-0.6,0-1c0-0.4,0-0.9,0.1-1.4c0-0.5,0.1-1,0.1-1.5c0-1,0-2.1,0-2.9c0-0.3,0-0.6,0-0.8
		c0,0,0.1,0,0.1,0C51.8,11.5,51.9,11.8,51.9,12.1z M47.4,21c0-0.7,0.6-0.8,0.6-0.8h2c0.1,0.2,0.3,0.5,0.4,0.8h-2.5H47.4z M51.2,7.3
		C51.2,7.3,51.2,7.3,51.2,7.3c-0.1-0.1-0.1-0.1-0.1-0.1c0,0.1,0.2,0.1,0.2,0.1c0.1,0,0.2,0.1,0.3,0.1c0.1,0.1,0.2,0.2,0.2,0.3
		c0,0.1,0.1,0.2,0.1,0.3l0,0.1l-0.1,0.1c-0.1,0.1-0.2,0.2-0.3,0.3c0.1,0.1,0.2,0.2,0.3,0.3L52,8.9l0,0.1c0,0.1,0,0.2-0.1,0.3
		c0,0.1-0.1,0.2-0.1,0.3c-0.1,0.1-0.1,0.2-0.2,0.2c0,0-0.1,0-0.1,0.1c-0.1,0-0.1,0-0.1,0c0.1,0,0.2-0.1,0.2-0.1
		c0-0.1,0.1-0.1,0.1-0.2c0-0.1,0-0.2,0-0.2c0,0,0-0.1,0-0.1c-0.1-0.1-0.3-0.2-0.4-0.4L51,8.5l0.2-0.2c0.1-0.1,0.3-0.2,0.4-0.4
		c0-0.1,0-0.3-0.1-0.4c0-0.1-0.1-0.1-0.2-0.2C51.3,7.4,51.2,7.4,51.2,7.3z M50,11.2c0.1,0.7,0.3,1.8,0.3,3.5c0,2.2-0.3,3.8-0.5,4.6
		h-1.9c-0.1-1.2-0.4-3.5-0.4-5.1c0-1.2,0.1-2.4,0.2-3.3C48.4,11.1,49.2,11.1,50,11.2z M50.8,39c0,5.7,0,33,0,43.1h-0.5
		c0-2.2,0.1-4.6,0.1-7.2c0-1.5,0-3.1,0-4.7c0-1.6,0-3.2,0-4.8c0-1.6,0-3.2,0-4.8c0-1.6,0-3.2,0-4.7c0-3-0.1-5.9-0.1-8.3
		c0-2.4-0.1-4.4-0.2-5.9c-0.1-1.4-0.1-2.2-0.1-2.2s0,0.8-0.1,2.2c0,1.4-0.1,3.4-0.2,5.9c-0.1,2.4-0.1,5.2-0.1,8.3c0,1.5,0,3.1,0,4.7
		c0,1.6,0,3.2,0,4.8c0,1.6,0,3.2,0,4.8c0,1.6,0,3.2,0,4.7c0,2.6,0.1,5,0.1,7.2h-3.4c0-9,0-37,0-43.4C47.4,38.8,49.3,38.9,50.8,39z
		 M52.8,40.8c0,1.5,0,3.6,0.1,6.1c0,2.5,0,5.5,0.1,8.6c0,3.2,0,6.5,0,9.9c0,3.4,0,6.7,0,9.9c0,2.4,0,4.6-0.1,6.6h-0.3
		c0-2,0-4.3-0.1-6.6c0-3.2,0-6.5,0-9.9c0-3.4,0-6.7,0-9.9c0-3.2,0-6.1,0.1-8.6C52.7,44.4,52.7,42.3,52.8,40.8
		c-0.1-0.8-0.1-1.4-0.1-1.8c0,0,0,0,0,0C52.8,39.4,52.8,40,52.8,40.8z M52.7,32.5c0,0.6-0.1,1.1-0.1,1.5c0,0.4,0,0.6,0,0.6
		s0-0.2,0-0.6c0-0.4-0.1-0.9-0.1-1.5c0-0.6-0.1-1.3-0.1-2.1c0-0.8,0-1.6,0-2.4c0-0.8,0-1.6,0-2.4c0-0.4,0-0.8,0-1.1c0-0.3,0-0.7,0-1
		c-0.1-0.4-0.2-0.7-0.3-1c0.1,0,0.1,0,0.2,0c0.2,0.3,0.3,0.6,0.4,1c0.1,0.3,0.1,0.7,0.1,1c0,0.3,0,0.7,0,1.1c0,0.8,0,1.6,0,2.4
		c0,0.8,0,1.6,0,2.4C52.8,31.2,52.8,31.9,52.7,32.5z M45.4,83c0.1-0.1,0.3-0.2,0.5-0.2c0.2,0,0.3,0,0.5,0c0.3,0,0.7,0,1,0
		c0.7,0,1.4,0,2.2,0c0.7,0,1.5,0,2.2,0c0.4,0,0.7,0,1,0c0.2,0,0.3,0,0.5,0c0.2,0,0.3,0.1,0.5,0.2c0.2,0.2,0.3,0.5,0.3,0.8
		c0,0.3-0.2,0.4-0.3,0.5c-0.1,0.1-0.3,0.1-0.4,0.1c-0.1,0-0.1,0-0.1,0c0,0,0.2,0,0.5-0.2c0.1-0.1,0.2-0.3,0.2-0.5
		c0-0.2-0.1-0.4-0.3-0.6c-0.1-0.1-0.2-0.1-0.3-0.1c-0.1,0-0.3,0-0.5,0c-0.3,0-0.7,0-1,0c-0.2,0-0.4,0-0.6,0c0,0.1,0.1,0.3,0.1,0.6
		c0,0.4-0.1,0.6-0.1,0.8h-5c0,0,0,0-0.1,0c-0.1,0-0.2,0-0.4-0.1c-0.1-0.1-0.3-0.3-0.3-0.5C45.1,83.5,45.2,83.2,45.4,83z M53.5,87.4
		c0.4,0.9,1.1,1.6,1.7,2c0.6,0.4,1.1,0.7,1.5,0.9c0.3,0.2,0.5,0.3,0.5,0.3s-0.2-0.1-0.5-0.3c-0.3-0.2-0.9-0.4-1.5-0.9
		c-0.6-0.4-1.3-1.1-1.8-2c-0.2-0.4-0.4-1-0.5-1.5c0.1,0,0.1,0,0.2,0C53.2,86.5,53.3,86.9,53.5,87.4z M58.8,91.8
		c0.1,0.1,0.3,0.3,0.4,0.5c0,0.1,0,0.1,0.1,0.2l0,0.1c0,0.1,0,0.2,0,0.3c0.1,0.4,0.2,0.7,0.5,1c0.1,0.1,0.3,0.3,0.4,0.4
		c0.2,0.1,0.3,0.2,0.5,0.2c0.1,0,0.3,0,0.4,0.1c0.1,0.1,0.2,0.2,0.2,0.3c0.1,0.2,0.1,0.4,0.1,0.5c0,0.3,0,0.6,0,0.8
		c0,0.2,0,0.3,0,0.3s0-0.1,0-0.3c0-0.2-0.1-0.4-0.1-0.7c0-0.1-0.1-0.3-0.1-0.4c0-0.1-0.1-0.1-0.1-0.2c-0.1,0-0.1,0-0.2,0
		c-0.2,0-0.5-0.1-0.7-0.2c-0.2-0.1-0.4-0.3-0.5-0.4c-0.2-0.2-0.3-0.4-0.4-0.6c-0.1-0.2-0.1-0.4-0.2-0.6c0-0.1,0-0.2,0-0.3l0-0.1
		l0-0.1c0-0.1-0.1-0.3-0.2-0.4c-0.2-0.2-0.4-0.3-0.6-0.4c-0.2-0.1-0.3-0.1-0.3-0.1s0.1,0,0.3,0C58.2,91.5,58.5,91.6,58.8,91.8z
		 M46.2,85.5c0.9,0.1,2.3,0.2,3.6,0.3c0,0.2,0,0.4,0,0.5c0.1,1,0.3,1.8,0.5,2.5c0.2,0.7,0.4,1.2,0.6,1.5c0.2,0.3,0.3,0.5,0.3,0.5
		s-0.1-0.2-0.2-0.5c-0.1-0.4-0.3-0.9-0.5-1.6c-0.2-0.7-0.3-1.5-0.3-2.5c0-0.2,0-0.3,0-0.5c0.2,0,0.4,0,0.6,0c0.1,2.2,1,4.2,1.6,5.2
		c0.7,0,1.4,0,2,0c0.7,0,1.3,0,1.7,0c0.4,0,0.6,0,0.6,0s-0.2,0-0.6,0.1c-0.4,0-1,0.1-1.7,0.2c-0.7,0.1-1.5,0.1-2.4,0.2
		c-0.9,0-1.8,0.1-2.8,0.1c-0.9,0-1.9,0-2.8-0.1c-0.9,0-1.7-0.1-2.4-0.2c-0.6-0.1-1-0.1-1.4-0.2c-0.4,0-0.7-0.1-1.1-0.1
		C42.3,89.9,45.6,89.7,46.2,85.5z M41,91.6c4.1,0.5,8.3,0.7,12.5,0.4c0.4,0.4,0.7,1,0.7,1.7c0,0.5,0.2,0.9,0.3,1.2
		c0.5,0,1,0,1.5-0.1c1.8-0.1,3.1-0.2,3.1-0.2s-0.3,0-0.8,0.1c-0.5,0.1-1.3,0.2-2.2,0.3c-0.9,0.1-2,0.2-3.2,0.2
		c-1.2,0.1-2.4,0.1-3.6,0.1c-1.2,0-2.5-0.1-3.6-0.1c-1.2-0.1-2.2-0.2-3.2-0.3c-0.9-0.1-1.7-0.2-2.2-0.3c-0.5-0.1-0.8-0.1-0.8-0.1
		s0,0,0,0c-0.2,0-0.4,0-0.6-0.1c0.5-0.2,1.2-0.8,1.2-1.9C40.1,91.9,40.6,91.7,41,91.6z M32.2,80c0-0.1,0-0.2,0.1-0.3l0.2,0.5
		c0,0,0,0,0,0c-0.1,0-0.2,0-0.3,0C32.2,80.1,32.2,80,32.2,80z M3.8,82c0-0.5,2.5-0.6,8.8-0.6c1.4,0,3.1,0,4.9,0
		c-0.2,0.2-0.3,0.4-0.3,0.7c0,0,0,0,0,0c-0.3,0-0.5,0-0.8,0c-1.1,0-2.1,0-3.1,0c-2,0-3.9,0-5.5,0c-1.6,0-2.9,0-3.9-0.1
		C3.9,82,3.8,82,3.8,82C3.8,82,3.8,82,3.8,82z M6.2,80c0,0.1,0,0.1,0,0.2c-0.1,0-0.2,0-0.3,0c0,0,0,0,0,0l0.2-0.5
		C6.2,79.8,6.2,79.9,6.2,80z M17.7,82.1c0-0.2,0.1-0.4,0.3-0.5l0,0.5c0,0,0,0,0,0.1C17.9,82.1,17.8,82.1,17.7,82.1
		C17.7,82.1,17.7,82.1,17.7,82.1z M19,82.1c-0.1,0-0.2,0-0.2,0c0,0,0,0,0,0l0-0.5C19,81.7,19,81.9,19,82.1C19,82.1,19,82.1,19,82.1z
		 M4,82.3c0.9,0.2,2.3,0.4,3.9,0.6c0.8,0.1,1.7,0.2,2.6,0.2c0.9,0.1,1.9,0.1,2.9,0.2c1,0,2,0.1,3.1,0.1c1.1,0,2.1,0,3.2,0.1
		c1.1,0,2.1,0,3.2-0.1c1.1,0,2.1-0.1,3.1-0.1c1,0,2-0.1,2.9-0.2c0.9-0.1,1.8-0.1,2.6-0.2c0.6-0.1,1.2-0.1,1.8-0.2
		c-1.3,0.9-3.6,2.1-7.8,2.7c-0.2,0-0.4,0-0.6,0c-0.8,0-1.7,0-2.6,0c-0.9,0-1.8,0-2.7,0c-0.9,0-1.8,0-2.6,0c-0.9,0-1.7,0-2.6,0
		c-0.8,0-1.6,0-2.4-0.1c-0.8,0-1.5-0.1-2.1-0.2c-0.7-0.1-1.3-0.1-1.8-0.2c-0.5-0.1-1-0.2-1.3-0.3c-0.4-0.1-0.6-0.2-0.8-0.3
		c-0.2-0.1-0.3-0.1-0.3-0.1c-1.5-1.1-1.8-1.4-1.9-1.9C3.8,82.3,3.9,82.3,4,82.3z M35.5,82c-0.1,0-0.2,0-0.3,0
		c-0.9,0.1-2.3,0.1-3.9,0.1c-1.6,0-3.5,0-5.5,0c-1,0-2,0-3.1,0c-1,0-2.1,0-3.2,0c-0.1,0-0.1,0-0.2,0c0,0,0,0,0,0
		c0-0.3-0.1-0.5-0.3-0.7c0.1,0,0.3,0,0.4,0c2.7,0,5.1,0,7,0C33.1,81.4,35.5,81.4,35.5,82C35.5,82,35.5,82,35.5,82z M15.5,80.1
		c-1.1,0-2,0-2.9,0c-2.6,0-4.6,0-6,0.1c0,0,0-0.1,0-0.1c0-0.3-0.1-0.6-0.3-0.8L20,46.3l-1.9,33.8C17.2,80.1,16.3,80.1,15.5,80.1z
		 M4.9,80c0-0.3,0.2-0.6,0.5-0.6l-0.2,0.5c-0.1,0.1,0,0.3,0,0.4c-0.1,0-0.2,0-0.3,0C4.9,80.2,4.9,80.1,4.9,80z M33.6,80
		c0,0.1,0,0.1,0,0.2c-0.1,0-0.2,0-0.3,0c0-0.1,0.1-0.2,0-0.3l-0.2-0.5C33.4,79.5,33.6,79.7,33.6,80z M32.1,79.2
		c-0.2,0.2-0.4,0.5-0.4,0.8c0,0,0,0.1,0,0.1c-1.3,0-3,0-5.1,0c-0.9,0-1.9,0-2.9,0c-1.3,0-2.6,0-4.1,0c-0.2,0-0.5,0-0.7,0L20.9,46
		L32.1,79.2z M63.6,73.3c0-0.5,2.5-0.6,8.8-0.6c2,0,4.3,0,7,0c0,0,0,0,0,0c-0.2,0.2-0.3,0.4-0.3,0.7c0,0,0,0,0,0c-1,0-2,0-3,0
		c-1.1,0-2.1,0-3.1,0c-2,0-3.9,0-5.5,0c-1.6,0-2.9,0-3.9-0.1C63.8,73.4,63.7,73.4,63.6,73.3C63.6,73.4,63.6,73.3,63.6,73.3z
		 M95.4,73.4c-0.1,0-0.2,0-0.3,0c-0.9,0.1-2.3,0.1-3.9,0.1c-1.6,0-3.5,0-5.5,0c-1,0-2,0-3.1,0c-0.4,0-0.8,0-1.2,0c0,0,0,0,0,0
		c0-0.3-0.1-0.5-0.3-0.7c2,0,3.8,0,5.3,0C92.9,72.7,95.4,72.8,95.4,73.4C95.4,73.3,95.4,73.4,95.4,73.4z M79.7,73.4
		c0-0.2,0.1-0.4,0.2-0.5l0,0.5c0,0,0,0,0,0C79.9,73.5,79.8,73.5,79.7,73.4C79.7,73.5,79.7,73.4,79.7,73.4z M81.1,73.5
		c-0.1,0-0.2,0-0.3,0c0,0,0,0,0-0.1l0-0.5C81,73,81.1,73.2,81.1,73.5C81.1,73.4,81.1,73.5,81.1,73.5z M92.8,71.5c-0.1,0-0.2,0-0.2,0
		c0,0,0-0.1,0-0.1c0-0.1,0-0.2,0.1-0.3L92.8,71.5z M92.1,71.5c-1.4,0-3.2,0-5.6,0c-0.9,0-1.9,0-2.9,0c-0.9,0-1.9,0-2.9,0l-1.9-33.8
		l13.6,32.9c-0.2,0.2-0.3,0.5-0.3,0.8C92.1,71.4,92.1,71.4,92.1,71.5z M77.9,37.4l1.9,34.1c-0.1,0-0.2,0-0.3,0c-1.5,0-2.9,0-4.1,0
		c-1.1,0-2,0-2.9,0c-2.3,0-4.1,0-5.5,0c0,0,0-0.1,0-0.1c0-0.3-0.1-0.6-0.4-0.8L77.9,37.4z M66.3,71.5l0.2-0.5
		c0.1,0.1,0.1,0.2,0.1,0.4c0,0.1,0,0.1,0,0.1C66.5,71.5,66.4,71.5,66.3,71.5C66.3,71.5,66.3,71.5,66.3,71.5z M63.9,73.7
		c0.9,0.2,2.3,0.4,3.9,0.6c0.8,0.1,1.7,0.2,2.6,0.2c0.9,0.1,1.9,0.1,2.9,0.2c1,0,2,0.1,3.1,0.1c1.1,0,2.1,0,3.2,0.1
		c1.1,0,2.1,0,3.2-0.1c1.1,0,2.1-0.1,3.1-0.1c1,0,2-0.1,2.9-0.2c0.9-0.1,1.8-0.1,2.6-0.2c0.6-0.1,1.2-0.1,1.8-0.2
		c-1.3,0.9-3.6,2.1-7.8,2.7c-0.2,0-0.4,0-0.6,0c-0.8,0-1.7,0-2.6,0c-0.9,0-1.8,0-2.7,0c-0.9,0-1.8,0-2.6,0c-0.9,0-1.7,0-2.6,0
		c-0.8,0-1.6,0-2.4-0.1c-0.8,0-1.5-0.1-2.1-0.2c-0.7-0.1-1.3-0.1-1.8-0.2c-0.5-0.1-1-0.2-1.3-0.3c-0.4-0.1-0.6-0.2-0.8-0.3
		c-0.2-0.1-0.3-0.1-0.3-0.1c-1.5-1.1-1.8-1.4-1.9-1.9C63.7,73.6,63.8,73.6,63.9,73.7z M93.9,71.3c0,0.1,0,0.1,0,0.2
		c-0.1,0-0.2,0-0.3,0c0.1-0.1,0.1-0.2,0-0.4l-0.2-0.5C93.7,70.8,93.9,71,93.9,71.3z M65.2,71.3c0-0.3,0.2-0.5,0.4-0.6l-0.2,0.5
		c0,0.1,0,0.2,0,0.3c-0.1,0-0.2,0-0.2,0C65.2,71.5,65.2,71.4,65.2,71.3z"/>
	<path class="st0" d="M69.1,75.3c1,0.1,2.1,0.3,3.3,0.3c0.6,0,1.2,0.1,1.9,0.1c0.6,0,1.3,0,2,0.1c0.7,0,1.3,0,2,0c0.6,0,1.3,0,1.9,0
		c0.6,0,1.2,0,1.8-0.1c0.6,0,1.1-0.1,1.6-0.1c1-0.1,1.8-0.2,2.4-0.2c0.6-0.1,0.9-0.1,0.9-0.1s-1.3,0-3.3,0.1c-0.5,0-1,0-1.6,0
		c-0.6,0-1.2,0-1.8,0c-0.6,0-1.2,0-1.9,0c-0.6,0-1.3,0-1.9,0c-0.7,0-1.3,0-1.9,0c-0.6,0-1.3,0-1.9-0.1c-1.2-0.1-2.4-0.1-3.3-0.2
		c-1-0.1-1.8-0.1-2.4-0.2c-0.6-0.1-0.9-0.1-0.9-0.1s0.3,0.1,0.9,0.2C67.4,75.1,68.2,75.2,69.1,75.3z"/>
	<path class="st0" d="M9.4,84c1,0.1,2.1,0.3,3.3,0.3c0.6,0,1.2,0.1,1.9,0.1c0.6,0,1.3,0,2,0.1c0.7,0,1.3,0,2,0c0.6,0,1.3,0,1.9,0
		c0.6,0,1.2,0,1.8-0.1c0.6,0,1.1-0.1,1.6-0.1c1-0.1,1.8-0.2,2.4-0.2c0.6-0.1,0.9-0.1,0.9-0.1s-1.3,0-3.3,0.1c-0.5,0-1,0-1.6,0
		c-0.6,0-1.2,0-1.8,0c-0.6,0-1.2,0-1.9,0c-0.6,0-1.3,0-1.9,0c-0.7,0-1.3,0-1.9,0c-0.6,0-1.3,0-1.9-0.1c-1.2-0.1-2.4-0.1-3.3-0.2
		c-1-0.1-1.8-0.1-2.4-0.2c-0.6-0.1-0.9-0.1-0.9-0.1s0.3,0.1,0.9,0.2C7.6,83.7,8.5,83.9,9.4,84z"/>
</g>
</svg>
