<svg id="Group_724" data-name="Group 724" xmlns="http://www.w3.org/2000/svg" xmlns:xlink="http://www.w3.org/1999/xlink" width="135" height="135" viewBox="0 0 135 135">
  <defs>
    <clipPath id="clip-path">
      <rect id="Rectangle_457" data-name="Rectangle 457" width="135" height="135" fill="none"/>
    </clipPath>
  </defs>
  <g id="Group_723" data-name="Group 723" clip-path="url(#clip-path)">
    <path id="Path_955" data-name="Path 955" d="M135,67.5a67.5,67.5,0,1,0-78.047,66.68V87.012H39.814V67.5H56.953V52.629c0-16.917,10.078-26.262,25.5-26.262a103.76,103.76,0,0,1,15.11,1.319V44.3H89.047c-8.385,0-11,5.2-11,10.541V67.5H96.768L93.775,87.012H78.047V134.18A67.517,67.517,0,0,0,135,67.5" fill="#4676ed"/>
    <path id="Path_956" data-name="Path 956" d="M93.775,87.012,96.768,67.5H78.047V54.838c0-5.338,2.615-10.541,11-10.541h8.512V27.686a103.76,103.76,0,0,0-15.11-1.319c-15.418,0-25.5,9.345-25.5,26.262V67.5H39.815V87.012H56.953V134.18a68.238,68.238,0,0,0,21.094,0V87.012Z" fill="#fff"/>
  </g>
</svg>
