<?xml version="1.0" encoding="utf-8"?>
<!-- Generator: Adobe Illustrator 25.3.1, SVG Export Plug-In . SVG Version: 6.00 Build 0)  -->
<svg version="1.0" id="katman_1" xmlns="http://www.w3.org/2000/svg" xmlns:xlink="http://www.w3.org/1999/xlink" x="0px" y="0px"
	 viewBox="0 0 500 400" style="enable-background:new 0 0 500 400;" xml:space="preserve">
<style type="text/css">
	.st0{fill:#FFFFFF;}
</style>
<g>
	<path class="st0" d="M405.11,88.41H154.93c-2.32-23.76-22.4-42.39-46.76-42.39c-25.91,0-47,21.08-47,47v257.15
		c0,25.91,21.08,46.99,47,46.99h345.23V136.7L405.11,88.41z M407.82,104.15L437.67,134h-29.85V104.15z M70.4,93.02
		c0-20.83,16.95-37.78,37.78-37.78c20.83,0,37.77,16.95,37.77,37.78V315.8c-7.32-7.7-18.35-12.61-30.68-12.61h-7.1
		c-15.49,0-29.21,7.57-37.78,19.16V93.02z M145.95,338.07c0,14.15-13.76,25.67-30.68,25.67h-2.49V312.4h2.49
		C132.19,312.4,145.95,323.92,145.95,338.07z M108.18,387.95c-20.83,0-37.78-16.95-37.78-37.77c0-19.25,14.53-35,33.17-37.31v60.09
		h11.71c22,0,39.89-15.65,39.89-34.89c0-0.56-0.07-1.1-0.1-1.65h0.1V97.63H398.6v45.59h45.59v244.73H108.18z"/>
	<path class="st0" d="M407.82,354.79V166.08L219.11,354.79H407.82z M398.6,223.91h-8.95v9.22h8.95v18.46h-8.95v9.22h8.95v18.46
		h-8.95v9.22h8.95v18.46h-8.95v9.22h8.95v29.4h-29.4v-8.95h-9.22v8.95h-18.46v-8.95h-9.22v8.95h-18.46v-8.95h-9.22v8.95h-18.46
		v-8.95h-9.22v8.95h-35.57L398.6,188.34V223.91z"/>
	<path class="st0" d="M369.2,252.56l-63.61,63.61h63.61V252.56z M359.98,306.95h-32.13l32.13-32.13V306.95z"/>
	<path class="st0" d="M226.72,277.28l9.56,28.22l8.73-2.96l-26.79-79.06c4.07-2.91,6.75-7.64,6.75-13.01
		c0-7.22-4.83-13.27-11.41-15.26v-9.23h-9.22v9.23c-6.58,1.99-11.41,8.04-11.41,15.26c0,5.39,2.7,10.14,6.79,13.05l-26.84,79.02
		l8.73,2.96l9.58-28.22c5.73,1.54,11.69,2.36,17.79,2.36C215.04,279.64,220.98,278.82,226.72,277.28z M208.94,203.66
		c3.75,0,6.8,3.05,6.8,6.8c0,3.75-3.05,6.8-6.8,6.8s-6.8-3.05-6.8-6.8C202.14,206.71,205.19,203.66,208.94,203.66z M194.21,268.36
		l14.24-41.93c0.17,0.01,0.32,0.05,0.49,0.05c0.19,0,0.36-0.05,0.54-0.06l14.21,41.92C214.07,270.83,203.79,270.82,194.21,268.36z"
		/>
	<path class="st0" d="M261.49,233.07h9.22v-14.13h19.54v14.13h9.22v-14.13h24.16l4.61-4.61v-33.25h21v-9.22h-21v-28.64h46.61V134
		h-46.61v-14.13h-9.22V134h-19.55v-14.13h-9.22V134h-19.54v-14.13h-9.22V134h-21v9.22h21v28.64h-21v9.22h21V233.07z M270.71,209.71
		v-28.64h19.54v28.64H270.71z M319.02,209.71h-19.55v-28.64h19.55V209.71z M319.02,143.22v28.64h-19.55v-28.64H319.02z
		 M270.71,143.22h19.54v28.64h-19.54V143.22z"/>
	<path class="st0" d="M217.07,66.43h194.58c17.53,0,31.8-14.27,31.8-31.8c0-17.54-14.27-31.8-31.8-31.8H217.07l-1.85,0.38
		L153.07,30.4v8.45l62.15,27.19L217.07,66.43z M407.04,57.21h-10.4V12.05h10.4V57.21z M387.42,57.21H221.68V39.24h165.75V57.21z
		 M387.42,30.02H221.68V12.05h165.75V30.02z M212.46,54.78l-23.07-10.09v-20.1l23.07-10.09V54.78z M434.23,34.63
		c0,10.87-7.73,19.97-17.98,22.1V12.53C426.5,14.66,434.23,23.76,434.23,34.63z M180.17,28.61v12.04l-13.76-6.02L180.17,28.61z"/>
</g>
</svg>
