<svg xmlns="http://www.w3.org/2000/svg" xmlns:xlink="http://www.w3.org/1999/xlink" width="348.153" height="480.331" viewBox="0 0 348.153 480.331">
  <defs>
    <filter id="Path_879" x="37.929" y="127.83" width="283.495" height="214.76" filterUnits="userSpaceOnUse">
      <feOffset dy="3" input="SourceAlpha"/>
      <feGaussianBlur stdDeviation="3" result="blur"/>
      <feFlood flood-color="#041230" flood-opacity="0.557"/>
      <feComposite operator="in" in2="blur"/>
      <feComposite in="SourceGraphic"/>
    </filter>
    <filter id="Path_2" x="87.112" y="345.304" width="165.563" height="53.451" filterUnits="userSpaceOnUse">
      <feOffset dy="3" input="SourceAlpha"/>
      <feGaussianBlur stdDeviation="3" result="blur-2"/>
      <feFlood flood-color="#041230" flood-opacity="0.557"/>
      <feComposite operator="in" in2="blur-2"/>
      <feComposite in="SourceGraphic"/>
    </filter>
    <filter id="Path_1" x="2.901" y="396.883" width="332.208" height="83.448" filterUnits="userSpaceOnUse">
      <feOffset dy="3" input="SourceAlpha"/>
      <feGaussianBlur stdDeviation="3" result="blur-3"/>
      <feFlood flood-color="#041230" flood-opacity="0.557"/>
      <feComposite operator="in" in2="blur-3"/>
      <feComposite in="SourceGraphic"/>
    </filter>
    <filter id="Path_880" x="0" y="97.701" width="348.153" height="287.658" filterUnits="userSpaceOnUse">
      <feOffset dy="3" input="SourceAlpha"/>
      <feGaussianBlur stdDeviation="3" result="blur-4"/>
      <feFlood flood-color="#041230" flood-opacity="0.557"/>
      <feComposite operator="in" in2="blur-4"/>
      <feComposite in="SourceGraphic"/>
    </filter>
  </defs>
  <g id="Group_1" data-name="Group 1" transform="translate(-1305.001 -336)">
    <path id="Path_4" data-name="Path 4" d="M3.94-3.331h8.937A3.094,3.094,0,0,0,15.6-4.517l8.273-12.006a3.548,3.548,0,0,1,1.551-1.337,5.68,5.68,0,0,1,2.131-.353H34.97L24.076-3.356A7.284,7.284,0,0,1,22.865-2.02a7.629,7.629,0,0,1-1.286.883,6.493,6.493,0,0,1,1.753.971,6.41,6.41,0,0,1,1.45,1.652l11.1,17.051H28.263a6.628,6.628,0,0,1-1.249-.1,3.2,3.2,0,0,1-.9-.3,2.577,2.577,0,0,1-.656-.492,4.879,4.879,0,0,1-.53-.668L16.61,4.185a2.507,2.507,0,0,0-1.148-1,4.976,4.976,0,0,0-1.879-.29H3.94Z" transform="translate(1467.126 370.609)" fill="#eee"/>
    <path id="FARUK_ÇELİK" data-name="FARUK ÇELİK" d="M11.35-30.4v10.025H24.4v5.9H11.35V0H3.8V-36.275H26.9V-30.4Zm36.9,16.625-3.925-11.1q-.35-.875-.737-2.05t-.738-2.55q-.35,1.4-.737,2.587t-.737,2.063l-3.9,11.05ZM60.85,0H55.025a2.564,2.564,0,0,1-1.588-.463,2.8,2.8,0,0,1-.912-1.187l-2.45-6.925H35.625L33.175-1.65A2.854,2.854,0,0,1,32.3-.512,2.4,2.4,0,0,1,30.725,0H24.85L39.025-36.275H46.7Zm14.7-19.1a9.582,9.582,0,0,0,3.15-.462,5.917,5.917,0,0,0,2.175-1.275,4.955,4.955,0,0,0,1.25-1.912,6.973,6.973,0,0,0,.4-2.4,4.916,4.916,0,0,0-1.713-4A8.024,8.024,0,0,0,75.6-30.575H71.7V-19.1ZM93.125,0H86.35A2.944,2.944,0,0,1,83.6-1.45L76.7-12.575a2.915,2.915,0,0,0-.938-.95,3.049,3.049,0,0,0-1.512-.3H71.7V0H64.2V-36.275H75.6a23.429,23.429,0,0,1,6.5.787A12.494,12.494,0,0,1,86.525-33.3a8.377,8.377,0,0,1,2.525,3.337,11.064,11.064,0,0,1,.8,4.263,11.2,11.2,0,0,1-.512,3.413A10.06,10.06,0,0,1,87.85-19.35,10.723,10.723,0,0,1,85.45-17a12.413,12.413,0,0,1-3.25,1.65,7.244,7.244,0,0,1,1.35.962,6.6,6.6,0,0,1,1.125,1.338ZM111.2-6a8.344,8.344,0,0,0,3.275-.612,6.733,6.733,0,0,0,2.45-1.737,7.616,7.616,0,0,0,1.525-2.725,11.515,11.515,0,0,0,.525-3.6v-21.6h7.5v21.6a16.754,16.754,0,0,1-1.062,6.062,13.673,13.673,0,0,1-3.038,4.763,13.847,13.847,0,0,1-4.8,3.125A17.109,17.109,0,0,1,111.2.4a17.207,17.207,0,0,1-6.388-1.125A13.823,13.823,0,0,1,100-3.85a13.673,13.673,0,0,1-3.037-4.763A16.754,16.754,0,0,1,95.9-14.675v-21.6h7.5v21.6a11.515,11.515,0,0,0,.525,3.6A7.616,7.616,0,0,0,105.45-8.35a6.733,6.733,0,0,0,2.45,1.737A8.412,8.412,0,0,0,111.2-6Zm29.925-15.3H142.6a3.066,3.066,0,0,0,2.675-1.15l9.175-12.275a3.615,3.615,0,0,1,1.425-1.212,4.755,4.755,0,0,1,1.9-.337h6.5L152.725-21.4a7.335,7.335,0,0,1-2.325,2.075,6.133,6.133,0,0,1,1.575.913,7.2,7.2,0,0,1,1.35,1.488L165.175,0H158.5a5.341,5.341,0,0,1-1.113-.1,3.44,3.44,0,0,1-.812-.275,2.142,2.142,0,0,1-.6-.437,4.1,4.1,0,0,1-.475-.612l-9.325-13.05a2.732,2.732,0,0,0-1.125-.962,4.637,4.637,0,0,0-1.825-.288h-2.1V0h-7.5V-36.275h7.5Zm67.85,16a14.027,14.027,0,0,1-4.75,3.925,17.167,17.167,0,0,1-6.6,1.7l-.3,1.075a9.576,9.576,0,0,1,1.975.662,4.877,4.877,0,0,1,1.288.862,2.834,2.834,0,0,1,.7,1.05,3.434,3.434,0,0,1,.213,1.2,2.734,2.734,0,0,1-.463,1.562,3.769,3.769,0,0,1-1.3,1.163,7.293,7.293,0,0,1-2.013.737,11.941,11.941,0,0,1-2.6.263,15.242,15.242,0,0,1-1.913-.113,11.817,11.817,0,0,1-1.762-.363l.625-2.125a.723.723,0,0,1,.775-.6,2.313,2.313,0,0,1,.75.138,3.3,3.3,0,0,0,1.05.137,1.779,1.779,0,0,0,1.1-.275.809.809,0,0,0,.35-.65q0-.625-.837-.913a16.634,16.634,0,0,0-2.687-.562L193.7.3a17.415,17.415,0,0,1-6.5-1.863,15.808,15.808,0,0,1-4.887-3.95,17.293,17.293,0,0,1-3.075-5.662,22.164,22.164,0,0,1-1.062-6.975,21.861,21.861,0,0,1,.587-5.138,18.088,18.088,0,0,1,1.712-4.487,17.342,17.342,0,0,1,2.713-3.7,16.361,16.361,0,0,1,3.587-2.812,17.245,17.245,0,0,1,4.363-1.775,20.01,20.01,0,0,1,5.037-.612,19.689,19.689,0,0,1,3.788.35,18.319,18.319,0,0,1,3.338.975,15.317,15.317,0,0,1,2.863,1.513,16.011,16.011,0,0,1,2.362,1.938L206-28.45a2.355,2.355,0,0,1-.575.575,1.606,1.606,0,0,1-.95.25,2.122,2.122,0,0,1-1.213-.425q-.613-.425-1.5-.95a10.861,10.861,0,0,0-2.225-.95,11.379,11.379,0,0,0-3.387-.425,10.371,10.371,0,0,0-4.175.825,9.069,9.069,0,0,0-3.262,2.388,11,11,0,0,0-2.113,3.837,16.5,16.5,0,0,0-.75,5.175,15.522,15.522,0,0,0,.813,5.212,11.442,11.442,0,0,0,2.225,3.863,9.367,9.367,0,0,0,3.3,2.387,10.1,10.1,0,0,0,4.037.813A19.452,19.452,0,0,0,198.537-6a9.58,9.58,0,0,0,1.925-.425,8.506,8.506,0,0,0,1.675-.775,10.325,10.325,0,0,0,1.587-1.2,3.09,3.09,0,0,1,.575-.375,1.433,1.433,0,0,1,.65-.15,1.387,1.387,0,0,1,1.05.45ZM220.75-30.4v9.325h12.1V-15.4h-12.1v9.525H236.3V0H213.2V-36.275h23.1V-30.4ZM263.425-6.1V0H241.9V-36.275h7.5V-6.1ZM275.55,0H268V-36.275h7.55Zm.375-42.425a3.6,3.6,0,0,1-.325,1.513,4.072,4.072,0,0,1-.9,1.263,4.242,4.242,0,0,1-1.337.862,4.211,4.211,0,0,1-1.613.312,3.724,3.724,0,0,1-1.512-.312,4.1,4.1,0,0,1-1.263-.862,4.286,4.286,0,0,1-.875-1.263,3.6,3.6,0,0,1-.325-1.513,3.832,3.832,0,0,1,.325-1.562,4.193,4.193,0,0,1,.875-1.288,4.286,4.286,0,0,1,1.263-.875,3.6,3.6,0,0,1,1.512-.325,4.07,4.07,0,0,1,1.613.325,4.426,4.426,0,0,1,1.337.875,3.989,3.989,0,0,1,.9,1.288A3.832,3.832,0,0,1,275.925-42.425ZM290.65-21.3h1.475a3.066,3.066,0,0,0,2.675-1.15l9.175-12.275a3.615,3.615,0,0,1,1.425-1.212,4.756,4.756,0,0,1,1.9-.337h6.5L302.25-21.4a7.335,7.335,0,0,1-2.325,2.075,6.132,6.132,0,0,1,1.575.913,7.2,7.2,0,0,1,1.35,1.488L314.7,0h-6.675a5.341,5.341,0,0,1-1.112-.1,3.441,3.441,0,0,1-.812-.275,2.142,2.142,0,0,1-.6-.437,4.1,4.1,0,0,1-.475-.612L295.7-14.475a2.732,2.732,0,0,0-1.125-.962,4.637,4.637,0,0,0-1.825-.288h-2.1V0h-7.5V-36.275h7.5Z" transform="translate(1324.333 388.725)" fill="#eee"/>
    <path id="Path_2-2" data-name="Path 2" d="M3141.735-728.263h-37.657v68.734h172.2" transform="translate(-1788.078 1065.263)" fill="none" stroke="#7bc377" stroke-linecap="round" stroke-linejoin="round" stroke-width="2"/>
    <path id="Path_3" data-name="Path 3" d="M3.94-3.331h8.937A3.094,3.094,0,0,0,15.6-4.517l8.273-12.006a3.548,3.548,0,0,1,1.551-1.337,5.68,5.68,0,0,1,2.131-.353H34.97L24.076-3.356A7.284,7.284,0,0,1,22.865-2.02a7.629,7.629,0,0,1-1.286.883,6.493,6.493,0,0,1,1.753.971,6.41,6.41,0,0,1,1.45,1.652l11.1,17.051H28.263a6.628,6.628,0,0,1-1.249-.1,3.2,3.2,0,0,1-.9-.3,2.577,2.577,0,0,1-.656-.492,4.879,4.879,0,0,1-.53-.668L16.61,4.185a2.507,2.507,0,0,0-1.148-1,4.976,4.976,0,0,0-1.879-.29H3.94Z" transform="translate(1461.108 370.609)" fill="#7bc377"/>
    <g transform="matrix(1, 0, 0, 1, 1305, 336)" filter="url(#Path_879)">
      <path id="Path_879-2" data-name="Path 879" d="M71.832-58.48a71.8,71.8,0,0,1,24.19,3.9,54.4,54.4,0,0,1,18.77,11.038,49.961,49.961,0,0,1,12.161,17.184,55.515,55.515,0,0,1,4.362,22.339,59.523,59.523,0,0,1-3.106,19.564,81.341,81.341,0,0,1-8.328,17.184,115.7,115.7,0,0,1-12.227,15.862q-7.006,7.667-14.673,15.6L49.889,108.206a104.4,104.4,0,0,1,12.425-2.842,72.342,72.342,0,0,1,11.632-.991h49.041a11.631,11.631,0,0,1,8.394,2.974,10.386,10.386,0,0,1,3.106,7.865v19.563H3.36V123.937a18.932,18.932,0,0,1,1.388-6.874,19.175,19.175,0,0,1,4.428-6.609l58.03-58.162q7.27-7.4,13.02-14.144A95.439,95.439,0,0,0,89.876,24.8a60.97,60.97,0,0,0,5.948-13.42A49.5,49.5,0,0,0,97.873-2.962a33.957,33.957,0,0,0-1.983-12.1,23.694,23.694,0,0,0-5.684-8.79,23.859,23.859,0,0,0-8.79-5.354,34.406,34.406,0,0,0-11.434-1.785q-11.765,0-19.365,5.948a31.159,31.159,0,0,0-10.642,16q-1.454,5.023-4.362,7.2a12,12,0,0,1-7.4,2.181,26.7,26.7,0,0,1-4.362-.4L6.665-3.094a70.888,70.888,0,0,1,7.667-24.124,57.845,57.845,0,0,1,14.21-17.316A58.86,58.86,0,0,1,48.1-54.977a78.019,78.019,0,0,1,23.732-3.5ZM241.295,62.734h24.058v18.9a6.6,6.6,0,0,1-1.718,4.56,6.4,6.4,0,0,1-5.023,1.917H241.295v46.662H212.742V88.114H132.109a9.188,9.188,0,0,1-8.989-7.138l-3.3-16.523L210.363-56.5H241.3ZM212.742.211q0-4.23.264-9.121t.925-10.178l-59.35,81.822h58.162Z" transform="translate(45.32 194.07)" fill="#eee" stroke="#7bc377" stroke-linecap="round" stroke-linejoin="round" stroke-width="3.5"/>
    </g>
    <g transform="matrix(1, 0, 0, 1, 1305, 336)" filter="url(#Path_2)">
      <path id="Path_2-3" data-name="Path 2" d="M19.33-13.769V0H12.74V-13.769L-.172-35.427H5.635a2.065,2.065,0,0,1,1.36.416,3.509,3.509,0,0,1,.845,1.054l6.492,11.833q.563,1.054.98,2t.76,1.85q.319-.931.723-1.874t.968-1.972l6.443-11.833a3.273,3.273,0,0,1,.809-1,2.024,2.024,0,0,1,1.372-.465h5.831ZM43.071,0H36.456V-35.427h6.615ZM57.624-5.439H71.81V0H51.034V-35.427h6.59Zm25.333,0H97.143V0H76.367V-35.427h6.59ZM109.123,0h-6.615V-35.427h6.615ZM123.9-20.58h1.544a4.008,4.008,0,0,0,1.543-.257,2.612,2.612,0,0,0,1.054-.821l9.775-12.373a3.548,3.548,0,0,1,1.286-1.09,4.124,4.124,0,0,1,1.7-.306h5.684L134.554-20.7a10.8,10.8,0,0,1-1.078,1.152,4.921,4.921,0,0,1-1.1.759,4.868,4.868,0,0,1,1.458.833,7.693,7.693,0,0,1,1.262,1.372L147.392,0h-5.831a3.618,3.618,0,0,1-1.752-.331,2.744,2.744,0,0,1-.968-.968l-10.02-13.083a2.969,2.969,0,0,0-1.1-.919,4.281,4.281,0,0,0-1.74-.282H123.9V0h-6.59V-35.451h6.59Z" transform="translate(96.28 386.76)" fill="#eee"/>
    </g>
    <g transform="matrix(1, 0, 0, 1, 1305, 336)" filter="url(#Path_1)">
      <path id="Path_1-2" data-name="Path 1" d="M41.94-52.056V-44.1H26.28V0H16.6V-44.1H.864v-7.956Zm38.988,0v7.7H57.852v14.436h18.18v7.452H57.852V-7.74H80.928V0H48.1V-52.056ZM125.1-12.276a1.816,1.816,0,0,1,1.368.612l3.816,4.14a20.958,20.958,0,0,1-7.794,6.012A26.859,26.859,0,0,1,111.384.576,26.243,26.243,0,0,1,100.962-1.4a22.971,22.971,0,0,1-7.9-5.508,24.113,24.113,0,0,1-5.022-8.424,31.621,31.621,0,0,1-1.746-10.692,28.779,28.779,0,0,1,1.944-10.746,24.625,24.625,0,0,1,5.472-8.406,24.766,24.766,0,0,1,8.442-5.49A29.024,29.024,0,0,1,113-52.632a25.628,25.628,0,0,1,10.134,1.854,23.683,23.683,0,0,1,7.434,4.914l-3.24,4.5a2.939,2.939,0,0,1-.738.756,2.092,2.092,0,0,1-1.242.324,2.831,2.831,0,0,1-1.692-.648,20.948,20.948,0,0,0-2.2-1.4,17.9,17.9,0,0,0-3.366-1.4,17.321,17.321,0,0,0-5.166-.648,17.433,17.433,0,0,0-6.75,1.278,15,15,0,0,0-5.292,3.654,16.812,16.812,0,0,0-3.456,5.778,22.192,22.192,0,0,0-1.242,7.65,22.8,22.8,0,0,0,1.242,7.812,17.175,17.175,0,0,0,3.366,5.76,14.373,14.373,0,0,0,5,3.582A15.468,15.468,0,0,0,112-7.632a26.973,26.973,0,0,0,3.582-.216,15.206,15.206,0,0,0,2.952-.684,13.105,13.105,0,0,0,2.556-1.206,15.97,15.97,0,0,0,2.394-1.818,3.413,3.413,0,0,1,.756-.522A1.9,1.9,0,0,1,125.1-12.276Zm22.5-8.064V0h-9.684V-52.056h15.876a33.16,33.16,0,0,1,9.126,1.1,17.389,17.389,0,0,1,6.228,3.078,11.883,11.883,0,0,1,3.564,4.734,15.784,15.784,0,0,1,1.134,6.066,15.719,15.719,0,0,1-.774,4.968,14.377,14.377,0,0,1-2.232,4.248,15.043,15.043,0,0,1-3.6,3.348,18.871,18.871,0,0,1-4.878,2.3,9.6,9.6,0,0,1,3.168,2.988L178.56,0h-8.712a4.253,4.253,0,0,1-2.142-.5,4.379,4.379,0,0,1-1.494-1.44L155.268-18.612a3.841,3.841,0,0,0-1.35-1.332,4.73,4.73,0,0,0-2.178-.4Zm0-6.948h6.048a14.988,14.988,0,0,0,4.77-.684,9.221,9.221,0,0,0,3.348-1.89,7.59,7.59,0,0,0,1.962-2.862,9.9,9.9,0,0,0,.648-3.636,7.393,7.393,0,0,0-2.61-6.084q-2.61-2.124-7.974-2.124H147.6ZM203.868-7.812a12.789,12.789,0,0,0,5.022-.936,10.465,10.465,0,0,0,3.744-2.628,11.476,11.476,0,0,0,2.34-4.1,16.9,16.9,0,0,0,.81-5.4V-52.056h9.684V-20.88a24.035,24.035,0,0,1-1.494,8.586,19.4,19.4,0,0,1-4.3,6.8,19.624,19.624,0,0,1-6.8,4.464,24.007,24.007,0,0,1-9,1.6,24.007,24.007,0,0,1-9-1.6,19.438,19.438,0,0,1-6.786-4.464,19.536,19.536,0,0,1-4.284-6.8A24.035,24.035,0,0,1,182.3-20.88V-52.056h9.684v31.14a16.9,16.9,0,0,0,.81,5.4,11.814,11.814,0,0,0,2.322,4.122,10.192,10.192,0,0,0,3.726,2.646A12.789,12.789,0,0,0,203.868-7.812Zm-2.952-52.2a4.355,4.355,0,0,1-.4,1.836,4.841,4.841,0,0,1-1.08,1.512,4.955,4.955,0,0,1-1.584,1.008,5.089,5.089,0,0,1-1.908.36,4.5,4.5,0,0,1-1.782-.36,4.691,4.691,0,0,1-1.494-1.008,4.886,4.886,0,0,1-1.026-1.512,4.53,4.53,0,0,1-.378-1.836,4.658,4.658,0,0,1,.378-1.854,5.05,5.05,0,0,1,1.026-1.548,5.06,5.06,0,0,1,1.494-1.062,4.154,4.154,0,0,1,1.782-.4,4.685,4.685,0,0,1,1.908.4,5.32,5.32,0,0,1,1.584,1.062,5,5,0,0,1,1.08,1.548A4.476,4.476,0,0,1,200.916-60.012Zm15.552,0a4.53,4.53,0,0,1-.378,1.836,4.886,4.886,0,0,1-1.026,1.512,4.591,4.591,0,0,1-1.53,1.008,4.953,4.953,0,0,1-1.89.36,4.859,4.859,0,0,1-1.854-.36,4.8,4.8,0,0,1-1.548-1.008,4.737,4.737,0,0,1-1.044-1.512,4.53,4.53,0,0,1-.378-1.836,4.658,4.658,0,0,1,.378-1.854,4.893,4.893,0,0,1,1.044-1.548,5.153,5.153,0,0,1,1.548-1.062,4.476,4.476,0,0,1,1.854-.4,4.561,4.561,0,0,1,1.89.4,4.926,4.926,0,0,1,1.53,1.062,5.05,5.05,0,0,1,1.026,1.548A4.658,4.658,0,0,1,216.468-60.012ZM235.332,0V-52.056H253.3a34.033,34.033,0,0,1,8.73.972,16.645,16.645,0,0,1,5.94,2.772,10.754,10.754,0,0,1,3.4,4.356,14.669,14.669,0,0,1,1.08,5.76,11.362,11.362,0,0,1-.54,3.51,10.154,10.154,0,0,1-1.674,3.132,12.541,12.541,0,0,1-2.88,2.646,17.412,17.412,0,0,1-4.158,2.016Q273.924-24.48,273.924-15.3a14.776,14.776,0,0,1-1.26,6.12,13.5,13.5,0,0,1-3.672,4.842,17.544,17.544,0,0,1-5.94,3.186A25.953,25.953,0,0,1,254.988,0Zm9.684-22.824V-7.56h9.828a13.584,13.584,0,0,0,4.518-.648,7.843,7.843,0,0,0,2.916-1.728,6.33,6.33,0,0,0,1.584-2.52,9.505,9.505,0,0,0,.486-3.06,8.131,8.131,0,0,0-.54-3.042,5.705,5.705,0,0,0-1.692-2.3,7.911,7.911,0,0,0-2.952-1.458,16.335,16.335,0,0,0-4.356-.5Zm0-6.7h7.74q4.932,0,7.488-1.8t2.556-5.724q0-4.068-2.3-5.8t-7.2-1.728h-8.28Zm70.056-22.536v7.7H292v14.436h18.18v7.452H292V-7.74h23.076V0H282.24V-52.056Z" transform="translate(11.04 467.76)" fill="#7bc377"/>
    </g>
    <g transform="matrix(1, 0, 0, 1, 1305, 336)" filter="url(#Path_880)">
      <path id="Path_880-2" data-name="Path 880" d="M10674.1-466.866h-70.139V-732.524h326.153v265.658h-66.634" transform="translate(-10592.96 838.23)" fill="none" stroke="#7bc377" stroke-linecap="round" stroke-linejoin="round" stroke-width="4"/>
    </g>
  </g>
</svg>
