<svg xmlns="http://www.w3.org/2000/svg" xmlns:xlink="http://www.w3.org/1999/xlink" width="116" height="116" viewBox="0 0 116 116">
  <defs>
    <filter id="Path_774" x="0" y="0" width="116" height="116" filterUnits="userSpaceOnUse">
      <feOffset input="SourceAlpha"/>
      <feGaussianBlur stdDeviation="5" result="blur"/>
      <feFlood flood-color="#041230" flood-opacity="0.259"/>
      <feComposite operator="in" in2="blur"/>
      <feComposite in="SourceGraphic"/>
    </filter>
  </defs>
  <g id="Group_691" data-name="Group 691" transform="translate(15 15)">
    <g transform="matrix(1, 0, 0, 1, -15, -15)" filter="url(#Path_774)">
      <path id="Path_774-2" data-name="Path 774" d="M534.33,245.4a43,43,0,1,1-43-43,43,43,0,0,1,43,43" transform="translate(-433.33 -187.4)" fill="#da0000"/>
    </g>
    <path id="Path_775" data-name="Path 775" d="M526.965,244.671A7.179,7.179,0,0,0,521.9,239.6c-4.471-1.2-22.4-1.2-22.4-1.2s-17.929,0-22.4,1.2a7.179,7.179,0,0,0-5.069,5.069c-1.2,4.471-1.2,13.8-1.2,13.8s0,9.329,1.2,13.8a7.181,7.181,0,0,0,5.069,5.07c4.471,1.2,22.4,1.2,22.4,1.2s17.929,0,22.4-1.2a7.181,7.181,0,0,0,5.069-5.07c1.2-4.471,1.2-13.8,1.2-13.8s0-9.329-1.2-13.8m-33.2,22.4v-17.2l14.9,8.6Z" transform="translate(-456.497 -215.471)" fill="#fff"/>
  </g>
</svg>
