<?xml version="1.0" encoding="utf-8"?>
<!-- Generator: Adobe Illustrator 25.3.1, SVG Export Plug-In . SVG Version: 6.00 Build 0)  -->
<svg version="1.1" id="katman_1" xmlns:serif="http://www.serif.com/"
	 xmlns="http://www.w3.org/2000/svg" xmlns:xlink="http://www.w3.org/1999/xlink" x="0px" y="0px" viewBox="0 0 153.5 24.1"
	 style="enable-background:new 0 0 153.5 24.1;" xml:space="preserve">
<style type="text/css">
	.st0{fill:none;}
	.st1{fill:#D40000;}
	.st2{fill:none;stroke:#115528;stroke-width:0.75;stroke-miterlimit:10;}
	.st3{fill:#000033;}
</style>
<rect id="Artboard1" x="-0.6" y="-7.8" class="st0" width="70.7" height="39.8"/>
<g>
	<path class="st1" d="M12.1-0.2c0.1,0,0.3,0,0.5,0c0.2,0.2,0.3,0.4,0.2,0.6c0,0.3-0.1,0.7-0.2,1.2c-0.1,0.3-0.2,0.5-0.2,0.8
		c-0.1,0.3-0.1,0.5-0.2,0.8C12.1,3.5,12.1,3.7,12,4c-0.1,0.3-0.2,0.5-0.2,0.8c-0.1,0.3-0.2,0.6-0.3,0.9s-0.2,0.6-0.2,0.8l-0.5,1.9
		c-0.1,0.2-0.1,0.4-0.2,0.7c-0.1,0.4-0.2,0.8-0.3,1.2l-0.6,2.4c-0.1,0.3-0.1,0.6-0.2,0.9c-0.3,0.2-0.4,0.5-0.5,0.8
		c0,0.2-0.1,0.5-0.2,0.7c-0.1,0.2-0.1,0.5-0.2,0.7c0,0.1-0.1,0.2,0,0.2h0.1c0.3-0.7,0.7-1.4,1.1-2.2c0.2-0.3,0.3-0.7,0.5-1
		s0.3-0.6,0.5-1c0.5-0.8,1-1.7,1.5-2.7c0.1-0.3,0.3-0.5,0.4-0.8c0.2-0.2,0.3-0.5,0.5-0.8c0.5-0.8,0.9-1.5,1.4-2.3
		C14.7,5,14.9,4.8,15,4.6c0.1-0.2,0.3-0.4,0.4-0.6c0.1-0.2,0.3-0.4,0.4-0.7c0.1-0.2,0.3-0.4,0.4-0.6s0.2-0.3,0.4-0.5
		c0.1-0.1,0.2-0.3,0.3-0.5c0.1-0.1,0.2-0.3,0.3-0.4c0.1-0.1,0.3-0.3,0.4-0.4c0.2-0.2,0.4-0.4,0.7-0.5c0.1,0,0.3,0.1,0.4,0.2
		C18.9,0.8,19,1,19.1,1.2c0,0.1,0,0.1,0.1,0.2c0,0.1,0,0.1,0,0.2c-0.1,0.7-0.2,1.3-0.4,2c-0.1,0.3-0.2,0.7-0.3,1
		c-0.1,0.3-0.2,0.7-0.3,1c-0.1,0.3-0.2,0.6-0.3,0.9c-0.1,0.3-0.2,0.6-0.3,0.9l-0.3,1.1l-0.5,1.9l-0.2,0.7c-0.1,0.2-0.1,0.4-0.2,0.6
		c-0.1,0.2-0.1,0.4-0.2,0.6c0,0,0,0,0,0.1l0.1-0.1l0.1-0.1l0.9-1.3l0.5-0.7l0.6-0.9l0.5-0.7l0.4-0.5c0.1-0.1,0.2-0.3,0.3-0.5
		c0.6-0.7,1.2-1.5,1.8-2.2s1.2-1.4,1.8-2.1c0.3-0.4,0.6-0.7,0.9-1l0.5-0.6l0.6-0.6c0.1-0.1,0.2-0.2,0.2-0.2c0.1-0.1,0.1-0.2,0.2-0.3
		C25.8,0.4,26,0.2,26.2,0s0.4-0.4,0.7-0.6c0.1-0.1,0.2-0.2,0.4-0.2c0.2-0.1,0.3-0.1,0.5,0.1C28-0.6,28-0.4,28.1-0.1
		c0,0.3,0,0.6-0.1,1c-0.1,0.6-0.3,1.1-0.4,1.5L27,4l-0.5,1.3l-0.3,1l-0.3,1c-0.1,0.2-0.1,0.4-0.2,0.6c-0.1,0.2-0.1,0.4-0.2,0.6
		l-0.4,1.3c-0.1,0.3-0.2,0.6-0.3,0.9c-0.1,0.3-0.2,0.6-0.3,0.9c-0.1,0.3-0.2,0.7-0.3,1c-0.1,0.3-0.2,0.7-0.3,1l-0.6,2.2
		c-0.1,0.3-0.1,0.6-0.2,0.8c-0.1,0.3-0.2,0.6-0.3,0.9c-0.2,0.9-0.5,1.9-0.8,2.9l-0.4,1.8c0,0.3-0.1,0.5-0.2,0.8s-0.1,0.5-0.1,0.8
		v0.1V24c0,0,0,0.1,0,0.2c-0.1,0-0.1,0-0.1,0l0,0c0,0,0,0-0.1,0s-0.2-0.1-0.3-0.1c-0.1-0.1-0.2-0.1-0.3-0.2c0,0,0,0-0.1-0.1
		s-0.1-0.3-0.1-0.5l0.2-1.3c0-0.2,0.1-0.3,0.1-0.5s0.1-0.3,0.1-0.5c0.1-0.5,0.2-1,0.3-1.5c0.1-0.5,0.2-1,0.3-1.5
		c0.1-0.4,0.2-0.8,0.3-1.3c0.1-0.4,0.2-0.8,0.3-1.3c0.2-0.8,0.4-1.6,0.7-2.4l0.6-2.3c0.1-0.2,0.1-0.4,0.2-0.6
		c0.1-0.2,0.1-0.4,0.2-0.6c0.1-0.2,0.1-0.3,0.2-0.5s0.1-0.3,0.2-0.5c0.1-0.3,0.2-0.7,0.4-1c0.1-0.3,0.3-0.7,0.4-1s0.2-0.6,0.4-0.9
		c0.1-0.3,0.3-0.6,0.4-0.9l0.6-1.4c0.1-0.3,0.2-0.6,0.3-0.8c0.1-0.3,0.2-0.5,0.3-0.8C26.9,1.5,27,1.2,27,1c0.1-0.2,0.2-0.5,0.3-0.7
		c0,0,0,0,0-0.1h-0.1c-0.1,0.1-0.2,0.2-0.3,0.3c-0.1,0.1-0.2,0.2-0.3,0.3c-0.1,0.1-0.3,0.2-0.4,0.3S26,1.3,25.8,1.5
		c-0.1,0.2-0.3,0.3-0.5,0.5c-0.1,0.1-0.2,0.3-0.4,0.4c0.1,0.6,0,0.7-0.2,0.9c-0.2,0.2-0.3,0.4-0.5,0.5c-0.1,0.2-0.3,0.4-0.5,0.5
		c-0.4,0.4-0.8,0.9-1.1,1.3c-0.4,0.4-0.7,0.9-1.1,1.3c-0.2,0.2-0.3,0.4-0.5,0.6c-0.2,0.2-0.3,0.4-0.5,0.6c-0.1,0.1-0.2,0.2-0.3,0.4
		c-0.1,0.1-0.2,0.2-0.3,0.4c-0.1,0.1-0.2,0.2-0.2,0.3c-0.1,0.1-0.2,0.2-0.3,0.4c0,0.1-0.1,0.1-0.1,0.2c-0.1,0.1-0.1,0.1-0.2,0.2
		l-1,1.5c-0.1,0.2-0.3,0.4-0.4,0.7l-0.6,1l-1,1.6c-0.1,0.1-0.2,0.3-0.4,0.5c-0.2-0.1-0.3-0.1-0.4-0.2c-0.1-0.1-0.3-0.2-0.4-0.3
		c-0.1-0.1-0.1-0.1-0.1-0.2s0-0.1,0-0.2s0-0.2,0-0.3c0.1-0.3,0.1-0.7,0.2-1c0.1-0.3,0.1-0.7,0.2-1c0.1-0.4,0.2-0.7,0.3-1
		c0-0.3,0.1-0.5,0.2-0.8l0.5-1.7c0.1-0.3,0.2-0.6,0.3-0.9c0.1-0.4,0.2-0.7,0.3-1c0.1-0.3,0.2-0.7,0.3-1c0.1-0.3,0.2-0.6,0.3-0.8
		c0.1-0.3,0.2-0.5,0.2-0.8c0.1-0.4,0.3-0.8,0.4-1.3c0,0,0-0.1,0.1-0.2c0-0.1,0-0.2,0-0.3c-0.1,0-0.1,0-0.1,0
		c-0.1,0.1-0.2,0.2-0.3,0.3c-0.1,0.1-0.2,0.2-0.3,0.4c-0.1,0.1-0.2,0.2-0.2,0.3c-0.1,0.1-0.2,0.2-0.3,0.3c-0.1,0.1-0.1,0.2-0.2,0.3
		c0,0.1-0.1,0.2-0.1,0.2L16,5c-0.1,0.2-0.2,0.4-0.4,0.6c-0.1,0.2-0.2,0.4-0.4,0.5C15,6.4,14.8,6.7,14.6,7c-0.2,0.3-0.4,0.6-0.5,0.9
		c-0.2,0.3-0.4,0.6-0.5,0.9c-0.2,0.3-0.3,0.6-0.5,0.9c-0.2,0.3-0.3,0.5-0.5,0.8s-0.3,0.6-0.5,0.9l-1.4,2.7c-0.3,0.6-0.6,1.3-0.9,1.8
		c-0.1,0.2-0.2,0.5-0.3,0.7l-0.9,1.9L8,20c-0.2,0.5-0.4,0.9-0.5,1.4c-0.1,0.3-0.2,0.6-0.3,0.9c-0.1,0.3-0.2,0.6-0.3,0.9
		c0,0.1-0.1,0.2-0.2,0.2c-0.1-0.3-0.3-0.3-0.4-0.4c-0.2,0-0.3-0.2-0.4-0.3v-0.1v-0.1c0.1-0.4,0.2-0.9,0.4-1.4
		c0.1-0.5,0.2-0.9,0.3-1.4c0.2-0.7,0.3-1.4,0.5-2c0.2-0.7,0.3-1.4,0.5-2.1c0.1-0.4,0.2-0.8,0.3-1.1c0.1-0.4,0.2-0.8,0.3-1.1
		c0.2-0.7,0.4-1.4,0.5-2.1c0.1-0.4,0.2-0.8,0.3-1.2s0.2-0.8,0.3-1.2s0.2-0.8,0.3-1.3c0.3-0.5,0.4-0.9,0.5-1.3
		c0.1-0.3,0.1-0.6,0.2-0.8c0.1-0.3,0.2-0.5,0.3-0.8s0.2-0.5,0.2-0.8C11,3.6,11,3.3,11.1,3.1c0.1-0.3,0.2-0.6,0.3-0.9
		s0.2-0.6,0.3-0.9l0.3-1C12.1,0.1,12.1-0.1,12.1-0.2z"/>
</g>
<g>
	<path d="M39.6,3.9c0.1,0.1,0.2,0.2,0.3,0.4l0,0l0,0c-0.1,0-0.3,0-0.5,0h-0.1h-0.1c-0.1,0-0.1,0-0.1,0h-0.3c-0.1,0-0.2,0-0.2,0h-0.1
		c-0.2,0-0.4,0-0.7,0c-0.2,0-0.5,0-0.7,0.1c0,0,0,0-0.1,0c0,0,0,0.1-0.1,0.2l-0.2,0.6l-0.2,0.9l-0.1,0.2c0,0.2-0.1,0.4-0.1,0.6
		c0,0.2-0.1,0.4-0.2,0.6c0,0.1-0.1,0.2-0.1,0.3s0,0.2-0.1,0.3c-0.1,0.6-0.3,1.2-0.4,1.8c-0.1,0.6-0.3,1.2-0.4,1.7L35,12.9
		c0,0.1,0,0.2-0.1,0.3c0,0.1,0,0.2,0,0.3v0.1c0,0,0,0,0,0.1l0,0c-0.1,0-0.1,0-0.2-0.1c-0.1,0-0.1-0.1-0.2-0.1c0,0-0.1-0.1-0.1,0
		c-0.1,0-0.1-0.1-0.1-0.2v-0.1c0-0.1,0-0.3,0-0.4c0-0.1,0-0.3,0.1-0.4c0-0.2,0.1-0.3,0.1-0.5s0.1-0.3,0.1-0.5c0-0.1,0-0.1,0-0.2
		c0-0.1,0-0.1,0.1-0.2c0-0.2,0.1-0.3,0.1-0.5s0.1-0.4,0.1-0.5C35,9.7,35,9.4,35.1,9.1l0.6-2.6l0.2-0.9l0.2-0.8V4.7
		c0-0.1,0-0.1,0-0.2l0,0c-0.1,0-0.3,0-0.4,0c-0.1,0-0.3,0-0.4,0c-0.1,0-0.1,0.1-0.2,0.2c0,0.1-0.1,0.1-0.1,0.2c0.1,0.1,0,0.2,0,0.2
		c0,0.1-0.1,0.1-0.1,0.2l-0.1,0.1l-0.4,0.7c-0.1,0.1-0.1,0.2-0.2,0.3C34.1,6.5,34,6.6,34,6.7c-0.1,0.1-0.2,0.3-0.3,0.4
		c-0.1,0.1-0.2,0.3-0.3,0.4c-0.1,0.1-0.2,0.2-0.2,0.4C33.1,8.1,33,8.2,33,8.3l-0.5,0.8l0,0c0,0,0,0,0,0.1s0.1,0.1,0.1,0.1
		s0,0.1,0.1,0.1l0.1,0.1c0.1,0.1,0.1,0.3,0.1,0.4c0,0.3,0,0.7-0.1,1c-0.1,0.2-0.2,0.4-0.3,0.6c-0.1,0.1-0.1,0.2-0.2,0.3
		C32.2,11.9,32.1,12,32,12c-0.1,0-0.2,0.1-0.3,0.2c0,0-0.1,0-0.2,0.1c-0.1,0-0.1,0-0.2,0c0,0,0,0-0.1,0s-0.2-0.1-0.3-0.1
		c-0.1,0-0.1-0.1-0.2-0.2c-0.1-0.1-0.2-0.2-0.2-0.4c0-0.1,0.1-0.3,0.1-0.5c0-0.1,0.1-0.3,0.1-0.4c0.1-0.1,0.1-0.2,0.2-0.4
		c0.1-0.1,0.1-0.2,0.2-0.4c0.1-0.1,0.1-0.2,0.2-0.4L31.6,9l0,0c0,0,0,0,0-0.1c-0.1,0-0.1,0-0.1,0c-0.1,0-0.2-0.1-0.3-0.1
		c-0.2,0-0.3-0.1-0.5-0.2l-0.2-0.1c0,0.1-0.1,0.1-0.1,0.2c0,0.1-0.1,0.1-0.1,0.2L30.2,9c0,0.1-0.1,0.1-0.1,0.2
		C30,9.3,30,9.3,29.9,9.4c0,0.1-0.1,0.1-0.1,0.2l-0.4,0.6l-0.3,0.4l-0.3,0.3C28.7,11,28.7,11,28.6,11h-0.1l0,0c0,0,0,0-0.1,0
		s-0.1,0-0.1-0.1l-0.1-0.1L28,10.7c0-0.1,0-0.2,0-0.3c0-0.2,0-0.3,0.1-0.4c0-0.1,0.1-0.3,0.1-0.4V9.5c0,0,0,0-0.1,0
		C28,9.6,28,9.7,27.9,9.8c0.1,0.2,0,0.3,0,0.3c-0.1,0.2-0.2,0.3-0.4,0.4l-0.1,0.1c-0.1,0-0.1,0-0.2,0c-0.2-0.1-0.3-0.2-0.4-0.3
		s-0.2-0.2-0.2-0.4s0-0.4,0.1-0.6c0-0.2,0.1-0.4,0.1-0.6c0-0.2,0.1-0.4,0.1-0.6C27,8,27,7.8,27.1,7.6V7.5V7.4c0-0.1,0.1-0.1,0.1-0.1
		h0.1l0.1,0.1l0,0l0,0c0.1,0,0.1,0.1,0.1,0.2l-0.3,1.3c0,0.1-0.1,0.3-0.1,0.4c0,0.1,0,0.3-0.1,0.4c0,0,0,0,0,0.1h0.1
		c0.1-0.1,0.1-0.1,0.2-0.2c0.1-0.1,0.1-0.2,0.2-0.2c0,0,0-0.1,0.1-0.1l0.1-0.1c0.1-0.1,0.2-0.2,0.2-0.3C28,8.8,28,8.7,28.1,8.5
		s0.2-0.4,0.3-0.6c0.1-0.2,0.2-0.4,0.3-0.6c0.2,0,0.3-0.1,0.3-0.2L29.1,7h0.1c0.1,0,0.1,0.1,0.1,0.1l0.2,0.2
		c0.1,0.1,0.1,0.2,0.1,0.3s0,0.1-0.1,0.1v0.1c0,0.2-0.1,0.3-0.1,0.5s-0.1,0.3-0.2,0.5c0,0.2-0.1,0.4-0.2,0.6c0,0.1,0,0.2-0.1,0.3
		c0,0.1-0.1,0.2-0.1,0.3c0,0,0,0,0,0.1l0,0l0,0l0.6-0.8c0.1-0.1,0.1-0.2,0.2-0.3s0.1-0.2,0.2-0.3c0,0,0,0,0-0.1c0,0,0,0,0-0.1
		L30,8.3V8.1c0-0.1,0-0.3,0.1-0.4c0.1-0.2,0.3-0.4,0.5-0.6c0.2-0.3,0.5-0.5,0.7-0.6c0.1,0,0.1-0.1,0.2-0.1s0.1,0,0.2,0.1l0,0
		l0.1,0.1l0.1,0.1c0,0,0,0,0,0.1c0,0,0,0,0,0.1S31.8,7,31.8,7C32,7,32,7.1,31.9,7.2s-0.1,0.1-0.2,0.2c-0.1,0.1-0.2,0.3-0.3,0.4
		c-0.1,0.1-0.2,0.3-0.3,0.4l-0.2,0.3H31c0.1,0,0.1,0,0.2,0.1c0.1,0,0.1,0,0.2,0c0.2,0.1,0.4,0.1,0.6,0.2c0,0,0,0,0.1,0l0.1-0.1
		c0.1-0.3,0.3-0.6,0.5-0.9c-0.1-0.2,0.1-0.4,0.3-0.7c0.1-0.1,0.1-0.2,0.2-0.3c0.1-0.1,0.1-0.2,0.2-0.3l0.4-0.7
		c0.1-0.1,0.2-0.2,0.3-0.4c0.1-0.1,0.2-0.2,0.2-0.4c0,0,0-0.1,0.1-0.1c0,0,0-0.1,0.1-0.1c0,0,0,0-0.1,0s-0.1,0-0.2,0
		c-0.1,0-0.1,0-0.2,0h-0.2h-0.1c0,0,0,0-0.1,0s-0.1,0-0.1,0h-0.1h-0.2h-0.1c0,0,0,0-0.1,0s-0.2,0-0.2,0c-0.1,0-0.2,0-0.2,0.1L32.3,5
		l-0.4,0.1c-0.1,0-0.1,0-0.2,0s-0.1,0-0.2,0s-0.1,0-0.2,0C31.1,5.1,31,5,31,4.8c0-0.1,0-0.1,0.1-0.1l0.4-0.1
		c0.2-0.1,0.4-0.1,0.7-0.2c0.1,0,0.1,0,0.2,0c0.1,0,0.1,0,0.2,0l0.3-0.1h0.2c0.1,0,0.1,0,0.2,0h0.1c0,0,0,0,0.1,0c0,0,0,0,0.1,0
		s0.1,0,0.2,0c0.1,0,0.1,0,0.1,0s0,0,0.1,0s0.2,0,0.3,0s0.2,0,0.3-0.1H35c0.1,0,0.1,0,0.2,0l0.1-0.1c0-0.1,0.1-0.1,0.1-0.2
		s0.1-0.1,0.1-0.2s0.1-0.1,0.1-0.2s0.1-0.1,0.1-0.2l0.2-0.2C36,3,36,2.9,36.1,2.9l0.3-0.8l0.3-0.4l0.1-0.1c0,0,0.1,0,0.1-0.1
		c0.1,0,0.1,0,0.2,0c0.1,0,0.1,0.1,0.2,0.1c0.1,0.1,0.2,0.3,0.2,0.4v0.1c0,0.2,0,0.4-0.1,0.6c0,0.2,0,0.3-0.1,0.4
		c0,0.1-0.1,0.3-0.1,0.4s0,0.1,0,0.1c0.1,0,0.1,0,0.1,0h0.2h0.1h0.1c0.1,0,0.1,0,0.1,0h0.5h0.1c0,0,0,0,0.1,0H39c0.1,0,0.3,0,0.5,0
		C39.5,3.8,39.6,3.8,39.6,3.9L39.6,3.9z M32.2,9.9V9.8l0,0l-0.3,0.3c0,0.1-0.1,0.2-0.1,0.3c-0.2,0.4-0.4,0.8-0.5,1.2
		c0,0.1,0,0.1-0.1,0.2c0,0.1,0,0.1,0,0.2l0,0c0,0,0.1,0,0.1-0.1c0,0,0.1,0,0.1-0.1c0,0,0-0.1,0.1-0.1c0,0,0-0.1,0.1-0.1
		c0.2-0.3,0.4-0.6,0.5-0.9C32.1,10.4,32.1,10.1,32.2,9.9z M36.4,3.9c0,0,0.1-0.1,0.1-0.2s0.1-0.2,0.1-0.4c0-0.1,0.1-0.3,0.1-0.4
		s0.1-0.2,0.1-0.2l0,0h-0.1l-0.5,0.6c-0.1,0.1-0.1,0.2-0.2,0.3c-0.1,0.1-0.1,0.2-0.2,0.3c0,0,0,0-0.1,0.1c0.1,0,0.1,0,0.1,0
		L36.4,3.9L36.4,3.9z"/>
	<path d="M38.5,10.3c-0.2,0.2-0.3,0.4-0.5,0.4s-0.3,0-0.5,0c-0.1,0-0.3-0.1-0.4-0.1c-0.1,0-0.1-0.1-0.2-0.2c0-0.1-0.1-0.2-0.1-0.2
		s0-0.1,0-0.2V9.9V9.8c0-0.1,0-0.3,0-0.4c0-0.1,0.1-0.3,0.1-0.4c0.1-0.2,0.2-0.5,0.3-0.7s0.1-0.3,0.2-0.5c0.1-0.2,0.2-0.3,0.3-0.5
		c0-0.1,0.1-0.1,0.1-0.2c0-0.1,0.1-0.1,0.1-0.2c0.2-0.3,0.3-0.5,0.5-0.7c0.1-0.1,0.1-0.2,0.2-0.3c0.1-0.1,0.2-0.2,0.3-0.3
		c0.1-0.1,0.2-0.2,0.3-0.2c0.2-0.1,0.4-0.1,0.6,0c0.1,0,0.2,0.1,0.3,0.2c0,0,0,0,0.1,0.1h0.1V5.6c0,0,0-0.1,0.1-0.1
		c0-0.1,0.1-0.1,0.2-0.1h0.1h0.1c0.1,0,0.1,0,0.2,0.1c0.1,0.1,0.1,0.1,0.1,0.1s0.1,0.1,0.1,0.2c0,0,0,0.1,0,0.2
		c-0.1,0.1-0.1,0.3-0.2,0.4c0,0.1-0.1,0.3-0.1,0.4c0,0.1-0.1,0.2-0.1,0.4l-0.3,1.2c0,0.1-0.1,0.3-0.1,0.4c0,0.1,0,0.3,0,0.4v0.5v0.1
		v0.1c0,0.1,0.1,0.1,0.2,0c0.1-0.1,0.2-0.1,0.2-0.2c0.1-0.1,0.1-0.1,0.2-0.2l0.1-0.1l0.1-0.1c0-0.1,0.1-0.1,0.1-0.2
		c0-0.1,0.1-0.1,0.1-0.2c0.2-0.3,0.4-0.6,0.7-0.9c0.2-0.3,0.4-0.6,0.6-0.9c0.1-0.1,0.2-0.2,0.2-0.2c0-0.1,0.1-0.1,0.1-0.1
		c0.1,0,0.1,0,0.2,0c0.1,0,0.1,0,0.2,0.1c0,0,0,0,0.1,0.1l-0.1,0.3c-0.1,0.1-0.2,0.3-0.3,0.4C43,7.8,42.9,8,42.8,8.1
		c-0.2,0.3-0.4,0.5-0.6,0.8c-0.2,0.3-0.4,0.5-0.5,0.8l-0.4,0.5c-0.1,0.1-0.3,0.2-0.5,0.3h-0.1c-0.2,0-0.4,0-0.6,0
		c-0.1,0-0.1,0-0.1,0c-0.1,0-0.2-0.1-0.3-0.2c-0.1-0.1-0.2-0.3-0.2-0.4c0-0.1,0-0.2,0-0.2c0-0.1,0-0.2,0-0.2s0,0,0-0.1s0-0.2,0-0.4
		l0,0l0,0l0,0l-0.2,0.3l0-0.2l-0.2,0.3c0,0.1-0.1,0.1-0.1,0.2c0,0.1-0.1,0.1-0.1,0.2c0,0.1-0.1,0.2-0.2,0.2
		C38.6,10.1,38.5,10.2,38.5,10.3z M39.8,6.7c0-0.1,0-0.2,0-0.3s0-0.2,0-0.3V6V5.9c0,0,0,0,0-0.1h-0.1c-0.1,0.1-0.2,0.2-0.3,0.3
		c-0.1,0.1-0.2,0.3-0.3,0.4C39,6.6,38.9,6.8,38.8,7s-0.2,0.4-0.3,0.6c-0.1,0.2-0.2,0.4-0.3,0.6c-0.1,0.2-0.1,0.3-0.2,0.5
		c-0.1,0.2-0.1,0.3-0.2,0.5c0,0.1,0,0.2-0.1,0.3c0,0.1,0,0.2,0,0.3v0.1c0,0.1,0,0.1,0.1,0c0-0.1,0.1-0.1,0.2-0.2
		c0.1-0.1,0.1-0.1,0.2-0.2c0.1-0.1,0.2-0.2,0.3-0.3s0.2-0.2,0.2-0.4c0-0.1,0.1-0.1,0.1-0.1c0-0.1,0-0.1,0.1-0.2
		c0-0.1,0.1-0.1,0.1-0.2c0,0,0-0.1,0.1-0.1V8.1c0-0.1,0.1-0.2,0.2-0.3c0.1-0.1,0.1-0.2,0.2-0.3c0.1-0.1,0.1-0.2,0.2-0.4
		c0.1-0.1,0.1-0.3,0.2-0.4c0-0.1,0.1-0.2,0.1-0.2C39.7,6.9,39.7,6.8,39.8,6.7C39.8,6.8,39.8,6.8,39.8,6.7z"/>
	<path d="M47.3-0.6c0.1,0.2,0.2,0.3,0.2,0.5c0,0,0,0.1,0,0.2c0,0.1,0,0.1,0,0.2c-0.1,0.3-0.2,0.6-0.3,0.9l-0.3,0.9l0,0
		c-0.1,0.1-0.1,0.3-0.2,0.4c-0.1,0.1-0.1,0.3-0.2,0.4c-0.1,0.1-0.1,0.3-0.2,0.4c-0.1,0.1-0.2,0.3-0.2,0.4C46,3.8,46,3.9,45.9,4
		c-0.1,0.1-0.1,0.2-0.2,0.3l-0.1,0.1c0,0.1-0.1,0.1-0.1,0.2s-0.1,0.1-0.2,0.2c-0.1,0.1-0.1,0.2-0.2,0.3S45,5.3,44.9,5.4l-0.1,0.1
		l-0.1,0.1c-0.1,0.1-0.1,0.2-0.2,0.3c-0.1,0.2-0.2,0.4-0.2,0.6L44,7.1h0.1l1-0.3c0.2-0.1,0.4-0.2,0.6-0.2c0.2-0.1,0.4-0.2,0.6-0.2
		c0.1-0.1,0.3-0.1,0.4-0.2C46.8,6.1,47,6.1,47.1,6c0.1,0,0.2-0.1,0.2-0.1c0.1,0,0.2-0.1,0.2-0.1h0.1l0.1,0.1L47.8,6
		c0,0.1,0,0.1,0,0.2l-0.1,0.1c-0.1,0-0.2,0.1-0.3,0.2c-0.1,0.1-0.2,0.1-0.3,0.1c-0.1,0.1-0.3,0.1-0.4,0.2c-0.1,0.1-0.2,0.1-0.4,0.2
		c-0.1,0-0.1,0.1-0.2,0.1c-0.1,0-0.1,0-0.2,0.1s0.2-0.1,0.1-0.1c0,0-0.1,0-0.1,0.1c-0.2,0.1-0.4,0.2-0.6,0.3
		c-0.2,0.1-0.4,0.2-0.6,0.2h-0.1h-0.1h-0.1h-0.1h-0.1c-0.1,0-0.2,0.1-0.4,0.1c-0.1,0.1-0.1,0.2,0,0.4L44,8.6c0,0,0,0.1,0.1,0.1
		c0,0,0,0.1,0.1,0.2c0,0.1,0,0.1,0.1,0.2c0,0.1,0,0.1,0,0.2c0,0,0,0,0,0.1s0.1,0.2,0.1,0.3s0,0.2,0,0.3s0,0.1,0,0.1
		c0,0.1,0,0.2,0,0.3v0.1c0,0.2-0.1,0.4-0.1,0.5c0,0.2-0.1,0.3-0.1,0.5c0,0.1-0.1,0.2-0.1,0.3S44,12,44,12.1c0,0-0.1,0.1-0.1,0.2
		c0,0.1-0.1,0.2-0.2,0.3c-0.1,0.1-0.1,0.2-0.2,0.3c-0.1,0.1-0.1,0.2-0.2,0.2c-0.1,0.1-0.2,0.2-0.3,0.3s-0.2,0.1-0.3,0l-0.5-0.2
		c-0.3-0.1-0.4-0.3-0.5-0.6c0-0.1,0-0.3,0-0.5s0-0.4,0.1-0.6c0-0.2,0.1-0.4,0.1-0.6c0.1-0.2,0.1-0.4,0.2-0.6c0-0.2,0.1-0.4,0.2-0.6
		l0.3-0.9c0-0.1,0-0.2,0.1-0.3l0.2-0.6c0-0.1,0.1-0.3,0.1-0.4l0-0.2l0.1-0.4c0.1-0.2,0.1-0.4,0.2-0.6c0.1-0.2,0.1-0.4,0.2-0.6
		c0.1-0.2,0.2-0.5,0.3-0.7s0.2-0.5,0.3-0.7l0.3-0.6c0.1-0.1,0.1-0.2,0.1-0.3c0-0.1,0.1-0.2,0.1-0.3l0.3-0.6c0-0.2,0.1-0.3,0.1-0.4
		c0.1-0.1,0.1-0.2,0.2-0.3c0.1-0.1,0.1-0.2,0.2-0.3l0.1-0.4c0.1-0.2,0.2-0.4,0.3-0.5c0.1-0.2,0.2-0.4,0.3-0.5c0-0.1,0.1-0.2,0.1-0.2
		c0.1-0.1,0.1-0.1,0.1-0.2c0.1-0.1,0.2-0.1,0.2-0.2c0.1-0.1,0.2-0.1,0.3-0.2c0,0,0.1,0,0.2,0C47.2-0.7,47.3-0.7,47.3-0.6z M43.7,9.9
		V9.4V9.3c0,0,0-0.1-0.1-0.1V9h-0.1c0,0,0,0,0,0.1L43,10.9c-0.1,0.3-0.1,0.5-0.2,0.8c-0.1,0.3-0.1,0.5-0.2,0.8c0,0.1,0,0.1,0,0.2
		c0,0,0,0,0,0.1l0,0l0.1-0.1l0.1-0.1c0.1-0.2,0.3-0.5,0.4-0.7c0.1-0.1,0.1-0.2,0.1-0.3s0.1-0.2,0.1-0.3c0-0.2,0.1-0.3,0.1-0.5
		c0-0.1,0.1-0.3,0-0.5l0,0c0,0,0,0,0-0.1v-0.1C43.7,10,43.7,9.9,43.7,9.9z M47,0.2c0-0.1,0-0.1,0-0.1h-0.1c-0.1,0.1-0.1,0.1-0.1,0.2
		l-0.3,0.4c-0.1,0.1-0.1,0.2-0.1,0.3c0,0,0,0,0,0.1l0,0c0,0.1-0.1,0.2-0.1,0.3s-0.1,0.2-0.2,0.3c0,0.1-0.1,0.1-0.1,0.2
		C46,2,46,2,45.9,2.1s-0.1,0.3-0.2,0.4s-0.1,0.3-0.2,0.4V3c-0.1,0.1-0.1,0.2-0.2,0.3c0,0.1-0.1,0.2-0.1,0.4l0,0l0,0
		c0,0,0-0.1,0.1-0.1l0.1-0.1c0.1-0.1,0.2-0.3,0.3-0.4s0.2-0.3,0.3-0.4c0-0.3,0.1-0.4,0.1-0.6c0.1-0.1,0.1-0.3,0.2-0.4l0.2-0.5
		c0-0.1,0.1-0.2,0.1-0.3s0.1-0.2,0.1-0.3s0.1-0.1,0.1-0.2C46.9,0.3,47,0.2,47,0.2z"/>
	<path d="M48.3,9.3c-0.2,0.2-0.3,0.4-0.5,0.4s-0.3,0-0.5,0c-0.1,0-0.3-0.1-0.4-0.1c-0.1,0-0.1-0.1-0.2-0.2c0-0.1-0.1-0.2-0.1-0.2
		s0-0.1,0-0.2V8.9V8.8c0-0.1,0-0.3,0-0.4c0-0.1,0.1-0.3,0.1-0.4c0.1-0.2,0.2-0.5,0.3-0.7s0.1-0.3,0.2-0.5c0.1-0.2,0.2-0.3,0.3-0.5
		c0-0.1,0.1-0.1,0.1-0.2c0-0.1,0.1-0.1,0.1-0.2c0.2-0.3,0.3-0.5,0.5-0.7c0.1-0.1,0.1-0.2,0.2-0.3c0.1-0.1,0.2-0.2,0.3-0.3
		c0.1-0.1,0.2-0.2,0.3-0.2c0.2-0.1,0.4-0.1,0.6,0c0.1,0,0.2,0.1,0.3,0.2c0,0,0,0,0.1,0.1h0.1V4.6c0,0,0-0.1,0.1-0.1
		c0-0.1,0.1-0.1,0.2-0.1h0.1h0.1c0.1,0,0.1,0,0.2,0.1c0.2,0,0.2,0,0.3,0.1c0,0,0.1,0.1,0.1,0.2c0,0,0,0.1,0,0.2
		C51.1,5,51,5.2,51,5.3s-0.1,0.3-0.1,0.4s-0.1,0.2-0.1,0.4l-0.3,1.2c0,0.1-0.1,0.3-0.1,0.4c0,0.1,0,0.3,0,0.4v0.5v0.1v0.1
		c0,0.1,0.1,0.1,0.2,0c0.1-0.1,0.2-0.1,0.2-0.2c0.1-0.1,0.1-0.1,0.2-0.2l0.1-0.1l0.1-0.1c0-0.1,0.1-0.1,0.1-0.2
		c0-0.1,0.1-0.1,0.1-0.2c0.2-0.3,0.4-0.6,0.7-0.9c0.2-0.3,0.4-0.6,0.6-0.9c0.1-0.1,0.2-0.2,0.2-0.2c0-0.1,0.1-0.1,0.1-0.1
		c0.1,0,0.1,0,0.2,0c0.1,0,0.1,0,0.2,0.1c0,0,0,0,0.1,0.1l-0.1,0.3c-0.1,0.1-0.2,0.3-0.3,0.4C53,6.7,52.9,6.9,52.8,7
		c-0.2,0.3-0.4,0.5-0.6,0.8c-0.2,0.3-0.4,0.5-0.5,0.8l-0.4,0.5c-0.1,0.1-0.3,0.2-0.5,0.3h-0.1c-0.2,0-0.4,0-0.6,0
		c-0.1,0-0.1,0-0.1,0c-0.1,0-0.2-0.1-0.3-0.2c-0.1-0.1-0.2-0.3-0.2-0.4c0-0.1,0-0.2,0-0.2c0-0.1,0-0.2,0-0.2s0,0,0-0.1s0-0.2,0-0.4
		l0,0l0,0l0,0l-0.2,0.3l-0.2,0.3l-0.2,0.3c0,0.1-0.1,0.1-0.1,0.2c0,0.1-0.1,0.1-0.1,0.2c0,0.1-0.1,0.2-0.2,0.2
		C48.5,9.1,48.4,9.2,48.3,9.3L48.3,9.3z M49.6,5.8c0-0.1,0-0.2,0-0.3c0-0.1,0-0.2,0-0.3V5.1V5c0,0,0,0,0-0.1h-0.1
		c-0.1,0.1-0.2,0.2-0.3,0.3c-0.1,0.1-0.2,0.3-0.3,0.4s-0.2,0.3-0.3,0.5s-0.2,0.4-0.3,0.6c-0.1,0.2-0.2,0.4-0.3,0.6
		c-0.1,0.2-0.1,0.3-0.2,0.5c-0.1,0.2-0.1,0.3-0.2,0.5c0,0.1,0,0.2-0.1,0.3c0,0.1,0,0.2,0,0.3V9c0,0.1,0,0.1,0.1,0
		c0-0.1,0.1-0.1,0.2-0.2c0.1-0.1,0.1-0.1,0.2-0.2c0.1-0.1,0.2-0.2,0.3-0.3s0.2-0.2,0.2-0.4c0-0.1,0.1-0.1,0.1-0.1
		c0-0.1,0-0.1,0.1-0.2c0-0.1,0.1-0.1,0.1-0.2c0,0,0-0.1,0.1-0.1V7.2c0-0.1,0.1-0.2,0.2-0.3c-0.1,0.2,0,0.1,0,0
		c0.1-0.1,0.1-0.2,0.2-0.4c0.1-0.1,0.1-0.3,0.2-0.4c0-0.1,0.1-0.2,0.1-0.2C49.6,5.9,49.6,5.9,49.6,5.8L49.6,5.8z"/>
</g>
<image style="overflow:visible;enable-background:new    ;" width="125" height="105" xlink:href="231116F.png"  transform="matrix(0.1102 0 0 0.1212 55.4629 0)">
</image>
<line class="st2" x1="84.9" y1="19.7" x2="84.9" y2="6.2"/>
<g>
	<path class="st1" d="M98.9,8.8V18h-2.5v-3.7h-3.1V18h-2.6V8.8h2.6v3.4h3.1V8.8C96.4,8.8,98.9,8.8,98.9,8.8z"/>
	<path d="M105.3,11.3c0.5,0.3,0.8,0.8,1,1.4v-1.8h1.2V18h-1.2v-1.8c-0.2,0.6-0.5,1-1,1.4c-0.5,0.3-1.1,0.5-1.8,0.5
		c-0.6,0-1.2-0.1-1.7-0.4s-0.9-0.7-1.2-1.3c-0.3-0.6-0.4-1.2-0.4-1.9c0-0.7,0.1-1.4,0.4-2s0.7-1,1.2-1.3s1.1-0.4,1.7-0.4
		C104.2,10.8,104.8,10.9,105.3,11.3z M102.1,12.5c-0.4,0.5-0.7,1.1-0.7,1.9s0.2,1.5,0.7,1.9c0.4,0.5,1,0.7,1.7,0.7
		c0.5,0,0.9-0.1,1.3-0.3c0.4-0.2,0.7-0.5,0.9-0.9s0.3-0.9,0.3-1.4s-0.1-1-0.3-1.4c-0.2-0.4-0.5-0.7-0.9-0.9s-0.8-0.3-1.3-0.3
		C103.1,11.8,102.5,12,102.1,12.5z"/>
	<path d="M113.2,18l-2.7-3.2V18h-1.2V8.4h1.2V14l2.7-3.1h1.4l-3.2,3.5l3.3,3.6H113.2z"/>
	<path d="M119.7,18l-2.7-3.2V18h-1.2V8.4h1.2V14l2.7-3.1h1.4l-3.2,3.5l3.3,3.6H119.7z"/>
	<path d="M123.5,10.9V18h-1.2v-7.1C122.3,10.9,123.5,10.9,123.5,10.9z"/>
	<path d="M131.3,11.5c0.5,0.5,0.8,1.3,0.8,2.3v4.1h-1.2v-4c0-0.7-0.2-1.3-0.5-1.6c-0.4-0.4-0.9-0.6-1.5-0.6c-0.7,0-1.2,0.2-1.6,0.6
		c-0.4,0.4-0.6,1-0.6,1.8v3.8h-1.2v-7.1h1.2v1.7c0.2-0.6,0.5-1,1-1.3s1-0.5,1.6-0.5C130.1,10.7,130.8,11,131.3,11.5z"/>
	<path d="M138.6,11.3c0.5,0.3,0.8,0.8,1,1.4V8.4h1.2V18h-1.2v-1.8c-0.2,0.6-0.5,1-1,1.4c-0.5,0.3-1.1,0.5-1.8,0.5
		c-0.6,0-1.2-0.1-1.7-0.4s-0.9-0.7-1.2-1.3c-0.3-0.6-0.4-1.2-0.4-1.9c0-0.7,0.1-1.4,0.4-2c0.3-0.6,0.7-1,1.2-1.3s1.1-0.4,1.7-0.4
		C137.5,10.8,138.1,10.9,138.6,11.3z M135.4,12.5c-0.4,0.5-0.7,1.1-0.7,1.9s0.2,1.5,0.7,1.9c0.4,0.5,1,0.7,1.7,0.7
		c0.5,0,0.9-0.1,1.3-0.3c0.4-0.2,0.7-0.5,0.9-0.9s0.3-0.9,0.3-1.4s-0.1-1-0.3-1.4s-0.5-0.7-0.9-0.9s-0.8-0.3-1.3-0.3
		C136.4,11.8,135.8,12,135.4,12.5z"/>
	<path d="M147.3,11.3c0.5,0.3,0.8,0.8,1,1.4v-1.8h1.2V18h-1.2v-1.8c-0.2,0.6-0.5,1-1,1.4c-0.5,0.3-1.1,0.5-1.8,0.5
		c-0.6,0-1.2-0.1-1.7-0.4s-0.9-0.7-1.2-1.3c-0.3-0.6-0.4-1.2-0.4-1.9c0-0.7,0.1-1.4,0.4-2c0.3-0.6,0.7-1,1.2-1.3s1.1-0.4,1.7-0.4
		C146.3,10.8,146.8,10.9,147.3,11.3z M144.2,12.5c-0.4,0.5-0.7,1.1-0.7,1.9s0.2,1.5,0.7,1.9c0.4,0.5,1,0.7,1.7,0.7
		c0.5,0,0.9-0.1,1.3-0.3c0.4-0.2,0.7-0.5,0.9-0.9s0.3-0.9,0.3-1.4s-0.1-1-0.3-1.4s-0.5-0.7-0.9-0.9s-0.8-0.3-1.3-0.3
		C145.2,11.8,144.6,12,144.2,12.5z"/>
</g>
<g>
	<path class="st3" d="M32.7,21.7c-0.4,0.7-0.9,1.2-1.7,1.6c-0.7,0.4-1.6,0.6-2.6,0.6H25v-9.2h3.5c1,0,1.8,0.2,2.6,0.6
		c0.7,0.4,1.3,0.9,1.7,1.6c0.4,0.7,0.6,1.5,0.6,2.4S33.1,21,32.7,21.7z M30.3,21.2c0.5-0.5,0.7-1.1,0.7-1.9s-0.2-1.5-0.7-1.9
		c-0.5-0.5-1.2-0.7-2-0.7h-1.1V22h1.1C29.2,21.9,29.9,21.7,30.3,21.2z"/>
	<path class="st3" d="M36.7,14.7V20c0,0.6,0.1,1.1,0.4,1.4c0.3,0.3,0.7,0.5,1.2,0.5s0.9-0.2,1.2-0.5s0.4-0.8,0.4-1.4v-5.3h2.2V20
		c0,0.9-0.2,1.6-0.5,2.2s-0.8,1-1.4,1.3s-1.2,0.4-2,0.4c-0.7,0-1.4-0.1-1.9-0.4c-0.6-0.3-1-0.7-1.3-1.3c-0.3-0.6-0.5-1.3-0.5-2.2
		v-5.3C34.5,14.7,36.7,14.7,36.7,14.7z M36.3,12.3c0.2-0.2,0.4-0.3,0.7-0.3s0.5,0.1,0.7,0.3S38,12.7,38,13s-0.1,0.5-0.3,0.7
		S37.3,14,37,14s-0.5-0.1-0.7-0.3S36,13.3,36,13C36.1,12.7,36.2,12.5,36.3,12.3z M39,12.3c0.2-0.2,0.4-0.3,0.7-0.3s0.5,0.1,0.7,0.3
		s0.3,0.4,0.3,0.7s-0.1,0.5-0.3,0.7S40,14,39.7,14s-0.5-0.1-0.7-0.3s-0.3-0.4-0.3-0.7C38.7,12.7,38.8,12.5,39,12.3z"/>
	<path class="st3" d="M51.8,23.9h-2.2l-3.7-5.6v5.6h-2.2v-9.2h2.2l3.7,5.7v-5.7h2.2V23.9z"/>
	<path class="st3" d="M61,21.7c-0.4,0.7-0.9,1.2-1.7,1.6c-0.7,0.4-1.6,0.6-2.6,0.6h-3.5v-9.2h3.5c1,0,1.8,0.2,2.6,0.6
		c0.7,0.4,1.3,0.9,1.7,1.6s0.6,1.5,0.6,2.4S61.4,21,61,21.7z M58.6,21.2c0.5-0.5,0.7-1.1,0.7-1.9s-0.2-1.5-0.7-1.9
		c-0.5-0.5-1.2-0.7-2-0.7h-1.1V22h1.1C57.5,21.9,58.1,21.7,58.6,21.2z"/>
	<path class="st3" d="M68.5,22.2h-3.4l-0.6,1.7h-2.3l3.4-9.1h2.6l3.4,9.1h-2.4L68.5,22.2z M68,20.6l-1.1-3.4l-1.2,3.4H68z"/>
	<path class="st3" d="M77.1,23.9l-2-3.5h-0.5v3.5h-2.2v-9.2h3.8c0.7,0,1.3,0.1,1.8,0.4s0.9,0.6,1.1,1c0.3,0.4,0.4,0.9,0.4,1.5
		c0,0.7-0.2,1.2-0.6,1.7s-0.9,0.8-1.6,1l2.2,3.6H77.1z M74.6,18.9H76c0.4,0,0.8-0.1,1-0.3c0.2-0.2,0.3-0.5,0.3-0.9s-0.1-0.6-0.3-0.9
		c-0.2-0.2-0.5-0.3-1-0.3h-1.4V18.9z"/>
</g>
</svg>
