<?xml version="1.0" encoding="utf-8"?>
<!-- Generator: Adobe Illustrator 25.3.1, SVG Export Plug-In . SVG Version: 6.00 Build 0)  -->
<svg version="1.1" id="katman_1" xmlns="http://www.w3.org/2000/svg" xmlns:xlink="http://www.w3.org/1999/xlink" x="0px" y="0px"
	 viewBox="0 0 100 100" style="enable-background:new 0 0 100 100;" xml:space="preserve">
<style type="text/css">
	.st0{fill:#FFFFFF;}
</style>
<path class="st0" d="M78,99.8h14.9c0.3,0,0.5-0.1,0.7-0.3c0.2-0.2,0.3-0.4,0.3-0.7l-0.1-1.2c-0.2-4.3-1.6-7.4-4.1-9.4
	c-2.1-1.7-4.4-2.1-6-2.1l-0.2,0L83.4,86c-2-3.9-0.4-8.6,2.1-15.7l0.5-1.4c1.8-5.2,3.9-11.1,5.2-17.8c3-15.8-5.6-31.6-8.3-36.1
	c-0.2-0.4-0.3-0.8-0.1-1.2C84,10.9,85.6,5.6,84.2,3c-0.4-0.7-1.2-1.2-2-1.2c-0.6,0-1.2,0.2-1.7,0.7c-2.6,2.2-5.6,3.7-6.8,4.2l-0.1,0
	l-0.1,0c-1.8-0.4-5.5-0.7-9.4,1.5c-3.6,2-8.5,2.9-9.5,3.1c-1.1,0.2-1.9,1-2.1,2.1c-1.2,5.9-0.1,13.5,6.3,16.9l0.2,0.1l-0.1,0.8
	c-0.5,1.9-3,7.1-16.6,15.4C36.4,50,31.9,55.5,28.9,63l-1.1,2.7l0.5-2.9c1.1-6.2,2.8-12.4,4.4-17.8c2.2-7.5,3.7-13,2.8-16.3
	c-1.2-4.3-5.2-6.7-10.2-6.2c-6.1,0.7-12.4,5.7-12.7,13.9c0,1.2,0.9,2.1,2,2.2c1.2,0,2.1-0.9,2.2-2c0.2-5.8,4.7-9.4,9.1-9.9
	c0.3,0,0.6-0.1,1-0.1c1.6,0,4,0.5,4.7,3.2c0.6,2.2-1.1,8.2-2.8,14C24.4,58.7,17.9,81.1,31,94.6c0.1,0.1,0.3,0.2,0.5,0.4l0.1,0
	c3.6,3.3,8.3,5.1,13.2,5.1h19.8c0.6,0,1.1-0.4,1.2-1l0.1-0.6c0.1-0.4,0.9-4.3-1.4-7.7c-1-1.5-2.5-2.7-4.4-3.5L59.7,87l0.2-0.3
	c3.4-4.8,10.8-16.9,7.5-25.4c-1.7-4.3-5.6-7-11.9-8c-1.1-0.2-2.1,0.5-2.4,1.5c-0.2,0.6-0.1,1.2,0.2,1.7c0.3,0.5,0.8,0.8,1.4,0.9
	c4.7,0.8,7.6,2.5,8.7,5.4c2.7,7.1-5.6,19.8-9,24.1l-1.5,1.8c-0.2,0.2-0.2,0.5-0.1,0.7c0.1,0.3,0.3,0.4,0.6,0.5l2.3,0.3
	c2.5,0.4,4.2,1.3,5.2,2.7c0.5,0.7,0.8,1.5,0.9,2.5l0,0.4H44.7c-4.5,0-8.7-1.9-11.7-5.3c-2.9-3.3-4.3-7.8-3.7-12.1
	c1.2-9.5,4.8-22.1,15.2-28.4c11-6.6,17.2-12.7,18.5-17.9c0.6-2.5-0.1-4-0.4-4.3l-0.2-0.3c-0.1-0.2-0.3-0.4-0.5-0.5l-0.3-0.1
	c-5.2-2.1-5.5-7.7-5.2-10.9c0-0.5,0.4-0.8,0.8-0.9c2.4-0.5,6-1.5,8.9-3.2c3.6-2,6.8-1,7-0.9l0.7,0.2l0.7-0.3c0.1,0,2.1-0.8,4.6-2.3
	c0.2-0.1,0.5-0.1,0.7,0C79.9,8.7,80,9,80,9.3c-0.4,1.4-0.9,2.9-1.6,4.6L78,14.5c-0.1,0.2-0.1,0.5,0.1,0.7l0.4,0.6
	c0.1,0.2,11.8,17.6,8.6,34.5c-1.2,6.4-3.2,12.1-5,17.1l-0.3,0.9c-3.1,8.6-5.5,15.5-1,21.2l0.3,0.4c0.3,0.4,0.8,0.6,1.2,0.5l0.5-0.1
	c0,0,2.5-0.4,4.3,1.2c1,0.8,1.7,2.1,2.1,3.7l0.1,0.4H78.1c-1.2,0-2.2,0.9-2.2,2c0,0.6,0.2,1.1,0.6,1.5C76.8,99.6,77.4,99.8,78,99.8z
	"/>
</svg>
