<?xml version="1.0" encoding="utf-8"?>
<!-- Generator: Adobe Illustrator 25.3.1, SVG Export Plug-In . SVG Version: 6.00 Build 0)  -->
<svg version="1.0" id="katman_1" xmlns="http://www.w3.org/2000/svg" xmlns:xlink="http://www.w3.org/1999/xlink" x="0px" y="0px"
	 viewBox="0 0 500 400" style="enable-background:new 0 0 500 400;" xml:space="preserve">
<style type="text/css">
	.st0{fill:#FFFFFF;}
</style>
<g>
	<path class="st0" d="M263.81,212.03c-0.89,0-1.78-0.01-2.68-0.04c-38.71-1.37-70.21-34.75-70.21-74.4V79.7
		c0-40.18,32.68-72.86,72.86-72.86c40.18,0,72.86,32.68,72.86,72.86v59.47c0,19.95-7.91,38.57-22.27,52.43
		C300.66,204.83,282.79,212.03,263.81,212.03z M263.78,20.13c-32.85,0-59.57,26.73-59.57,59.57v57.88c0,32.58,25.75,60,57.4,61.12
		c16.42,0.59,31.81-5.34,43.54-16.66c11.74-11.33,18.21-26.56,18.21-42.87V79.7C323.35,46.85,296.63,20.13,263.78,20.13z"/>
	<path class="st0" d="M282.09,78.74c-8.45,0-17.62-1.73-27.18-6.23c-32.73-15.43-51.13-7.09-51.31-7c-3.28,1.56-7.25,0.2-8.84-3.07
		c-1.6-3.27-0.31-7.19,2.94-8.83c0.95-0.48,23.78-11.54,62.88,6.88c32.19,15.17,59.91-9.97,60.19-10.22
		c2.69-2.49,6.89-2.33,9.39,0.36c2.49,2.69,2.33,6.9-0.36,9.39C328.72,61,309.14,78.74,282.09,78.74z"/>
	<path class="st0" d="M331.87,129.82c-1.06,0-2.1-0.12-3.12-0.31c-3.14-0.59-5.41-3.33-5.41-6.52l-0.09-44.85
		c-0.09-3.24,2.16-6.07,5.34-6.7c1.08-0.22,2.16-0.35,3.28-0.35c12.14,0,21.65,12.9,21.65,29.37
		C353.53,116.92,344.02,129.82,331.87,129.82z M336.63,87.62v25.47c2.12-2.9,3.61-7.43,3.61-12.64
		C340.24,95.14,338.69,90.52,336.63,87.62z"/>
	<path class="st0" d="M195.68,129.82c-12.14,0-21.65-12.9-21.65-29.37c0-16.47,9.51-29.37,21.65-29.37c1.12,0,2.2,0.13,3.28,0.35
		c3.17,0.63,5.43,3.46,5.34,6.7l-0.06,1.06l-0.03,43.8c0,3.19-2.27,5.93-5.41,6.52C197.78,129.7,196.74,129.82,195.68,129.82z
		 M190.92,87.62c-2.06,2.91-3.61,7.52-3.61,12.83c0,5.31,1.55,9.92,3.61,12.83V87.62z"/>
	<path class="st0" d="M265.53,252.96c-20.22,0-35.47-9.05-35.47-21.06v-32.45c0-2.27,1.15-4.38,3.06-5.6
		c1.91-1.22,4.3-1.38,6.36-0.44c7,3.23,14.44,5.02,22.11,5.28c10.29,0.39,20.59-1.95,29.7-6.7c2.06-1.07,4.53-1,6.52,0.21
		c1.99,1.2,3.2,3.36,3.2,5.68v34.01C301,243.91,285.75,252.96,265.53,252.96z M243.34,209.06v22.84c0,2,7.63,7.77,22.19,7.77
		c14.56,0,22.19-5.78,22.19-7.77v-23.92c-8.5,2.95-17.58,4.31-26.59,4.01C255.06,211.77,249.11,210.78,243.34,209.06z"/>
	<path class="st0" d="M400.33,400h-269.6c-2.02,0-3.92-0.92-5.19-2.49c-1.26-1.58-1.74-3.64-1.29-5.6l26.47-118.01
		c4.56-20.34,19.93-36.23,40.1-41.46l44.2-11.48c1.99-0.51,4.11-0.08,5.73,1.17c1.62,1.26,2.58,3.2,2.58,5.25v4.52
		c0,2,7.63,7.77,22.19,7.77c14.56,0,22.19-5.78,22.19-7.77v-4.52c0-2.06,0.95-4,2.58-5.25c1.63-1.26,3.75-1.69,5.73-1.17l44.2,11.48
		c20.17,5.23,35.53,21.12,40.1,41.46c0,0,26.47,118.01,26.47,118.01c0.44,1.97-0.04,4.03-1.29,5.6
		C404.25,399.08,402.35,400,400.33,400z M139.03,386.71h253L367.38,276.8c-3.47-15.45-15.15-27.53-30.48-31.51l-36.46-9.46
		c-2.93,10-16.96,17.13-34.91,17.13c-17.95,0-31.98-7.13-34.91-17.13l-36.46,9.46c-15.33,3.98-27.01,16.05-30.48,31.51
		L139.03,386.71z"/>
	<path class="st0" d="M335.05,400c-3.2,0-6.02-2.32-6.55-5.59l-10.57-65.46c-0.58-3.62,1.88-7.03,5.5-7.62
		c3.62-0.61,7.03,1.88,7.62,5.5l10.57,65.46c0.58,3.62-1.88,7.03-5.5,7.62C335.76,399.97,335.4,400,335.05,400z"/>
	<path class="st0" d="M196.02,400c-0.35,0-0.71-0.03-1.07-0.08c-3.62-0.58-6.08-4-5.5-7.62l10.56-65.46
		c0.58-3.63,4.02-6.09,7.61-5.5c3.62,0.58,6.09,4,5.5,7.62l-10.56,65.46C202.04,397.68,199.22,400,196.02,400z"/>
	<path class="st0" d="M265.53,382.52c-1.59,0-3.19-0.57-4.45-1.71l-16.92-15.25c-1.65-1.49-2.45-3.7-2.12-5.91l16.92-114.31
		c0.48-3.26,3.28-5.67,6.57-5.67c3.29,0,6.09,2.41,6.57,5.67l16.92,114.31c0.32,2.2-0.47,4.42-2.12,5.91l-16.92,15.25
		C268.72,381.95,267.12,382.52,265.53,382.52z M255.7,358.08l9.83,8.86l9.83-8.86l-9.83-66.4L255.7,358.08z"/>
	<path class="st0" d="M414.76,400H116.3c-3.67,0-6.64-2.97-6.64-6.64c0-3.67,2.97-6.64,6.64-6.64h298.46c3.67,0,6.64,2.97,6.64,6.64
		C421.4,397.03,418.43,400,414.76,400z"/>
</g>
</svg>
