<svg xmlns="http://www.w3.org/2000/svg" xmlns:xlink="http://www.w3.org/1999/xlink" width="116" height="116" viewBox="0 0 116 116">
  <defs>
    <linearGradient id="linear-gradient" x1="0.168" y1="0.137" x2="0.807" y2="0.873" gradientUnits="objectBoundingBox">
      <stop offset="0" stop-color="#fdbc53"/>
      <stop offset="0.503" stop-color="#bf279b"/>
      <stop offset="1" stop-color="#5c3fd1"/>
    </linearGradient>
    <filter id="Path_774" x="0" y="0" width="116" height="116" filterUnits="userSpaceOnUse">
      <feOffset input="SourceAlpha"/>
      <feGaussianBlur stdDeviation="5" result="blur"/>
      <feFlood flood-color="#041230" flood-opacity="0.259"/>
      <feComposite operator="in" in2="blur"/>
      <feComposite in="SourceGraphic"/>
    </filter>
    <clipPath id="clip-path">
      <rect id="Rectangle_456" data-name="Rectangle 456" width="43.606" height="43.211" fill="none"/>
    </clipPath>
  </defs>
  <g id="Group_691" data-name="Group 691" transform="translate(15 15)">
    <g transform="matrix(1, 0, 0, 1, -15, -15)" filter="url(#Path_774)">
      <path id="Path_774-2" data-name="Path 774" d="M534.33,245.4a43,43,0,1,1-43-43,43,43,0,0,1,43,43" transform="translate(-433.33 -187.4)" fill="url(#linear-gradient)"/>
    </g>
    <g id="Group_722" data-name="Group 722" transform="translate(21.197 21.395)">
      <path id="Path_951" data-name="Path 951" d="M22.462,41.568ZM43.31,4.648h0Z" transform="translate(-11.082 -2.294)" fill="none" stroke="#fff" stroke-miterlimit="10" stroke-width="1"/>
      <g id="Group_721" data-name="Group 721" transform="translate(0 0)">
        <g id="Group_720" data-name="Group 720" clip-path="url(#clip-path)">
          <path id="Path_952" data-name="Path 952" d="M30.369,42.985a13.006,13.006,0,1,0-13.007-13,13.019,13.019,0,0,0,13.007,13m-9.852-13a9.852,9.852,0,1,1,9.852,9.853,9.867,9.867,0,0,1-9.852-9.853" transform="translate(-8.567 -8.374)" fill="#fff"/>
          <path id="Path_953" data-name="Path 953" d="M34.776,43.211H8.831A8.841,8.841,0,0,1,0,34.38V8.831A8.841,8.841,0,0,1,8.831,0H34.776a8.841,8.841,0,0,1,8.83,8.831V34.38a8.841,8.841,0,0,1-8.83,8.831M8.831,3.222A5.616,5.616,0,0,0,3.222,8.831V34.38a5.616,5.616,0,0,0,5.609,5.608H34.776a5.615,5.615,0,0,0,5.608-5.608V8.831a5.615,5.615,0,0,0-5.608-5.609Z" transform="translate(0 0)" fill="#fff"/>
          <path id="Path_954" data-name="Path 954" d="M67.064,14.045A2.053,2.053,0,1,0,69.119,16.1a2.056,2.056,0,0,0-2.055-2.056" transform="translate(-32.077 -6.93)" fill="#fff"/>
        </g>
      </g>
    </g>
  </g>
</svg>
