<?xml version="1.0" encoding="utf-8"?>
<!-- Generator: Adobe Illustrator 25.3.1, SVG Export Plug-In . SVG Version: 6.00 Build 0)  -->
<svg version="1.1" id="Layer_1" xmlns="http://www.w3.org/2000/svg" xmlns:xlink="http://www.w3.org/1999/xlink" x="0px" y="0px"
	 viewBox="0 0 1323.9 1323.9" style="enable-background:new 0 0 1323.9 1323.9;" xml:space="preserve">
<style type="text/css">
	.st0{fill-rule:evenodd;clip-rule:evenodd;fill:#FFFFFF;}
</style>
<g>
	<path class="st0" d="M308.4,857.3c-39.9-21.8-52.9,9.5-80.9,54.7c-28.4,46-136.1,94.5-193.4,126.6c36.1,51.5,43.3,161,9.4,255.5
		l118.9-206c-6.4-9.4-7.3-22.1-1.2-32.6c8.5-14.7,27.2-19.7,41.9-11.2c14.7,8.5,19.7,27.2,11.2,41.9c-6.1,10.5-17.5,16.1-28.8,15.2
		l-118.9,206c10-1.6,32.4-9.9,62.2-20.9c71.5-26.4,187.1-69.1,250.3-66.4c22.2,0.9,36.4,8.1,35.6,25.6c-2,46.5,18.4,64,51,65.4
		c33.4,1.4,79.5-17.9,125.1-37c58.2-24.4,115.6-48.5,125.6-24.1c35.3,86.8,102.8,70.5,185.2,50.7l25.2-6c8.6-2,21.2-5.3,36.3-9.2
		c84-22,249.8-65.6,282.2-22c-31-68.6-279-9-289.5-6.2c-14.4,3.8-26.4,7-35.5,9l-25.5,6.1c-69,16.6-125.5,30.3-151.3-33.3
		c-21.1-51.8-92-22.1-163.9,8.1c-42.7,17.9-85.8,36-112.7,34.8c-14.9-0.6-24.1-10-23.1-35.2c1.6-38.5-23.8-54.2-63.6-55.9
		c-69.1-2.9-188,41-261.5,68.1l-4.9,1.8c59.4-49,129.9-77.4,178.7-73.1c-0.8-65.7-12.7-183.2,12.9-230.8
		c22.7-42.2,41.7-68.2,16.8-90.3c27.3-38.5,47-61.3,60.3-65.9c179.8-62,341.1-168.2,457.5-318.5c-46.8,23.8-97.7,38.5-150,43.2
		c144.7-64.3,268.7-167.4,358.4-297.9c-42.7,15.6-87.3,25.6-132.7,29.6c105.2-28,214.7-158.8,261.6-257.1
		c-145.2,94-205.4-5.3-329.6,92.8c22-33.6,47.8-64.6,76.9-92.4c-143.7,67.7-268.4,170-363,297.7c3.5-41.5,16.2-81.7,37.3-117.7
		C486,301.1,401.3,445.7,351.3,603.5c-11.3-20.4-18.4-43-20.7-66.2C302.9,619,299.2,706.9,320,790.6
		c130.8-194.6,286.6-371.1,463.5-525C602.7,443.7,443.3,642.3,308.4,857.3"/>
</g>
</svg>
