<?xml version="1.0" encoding="utf-8"?>
<!-- Generator: Adobe Illustrator 25.3.1, SVG Export Plug-In . SVG Version: 6.00 Build 0)  -->
<svg version="1.1" id="katman_1" xmlns="http://www.w3.org/2000/svg" xmlns:xlink="http://www.w3.org/1999/xlink" x="0px" y="0px"
	 viewBox="0 0 100 100" style="enable-background:new 0 0 100 100;" xml:space="preserve">
<style type="text/css">
	.st0{fill:#FFFFFF;}
</style>
<path class="st0" d="M91,82.8c1.4-1.7,2.3-3.9,2.3-6.3c0-4.8-3.4-8.8-7.8-9.7v-8.5c0-1.1-0.8-1.9-1.9-1.9H68.6v-9.9
	c0-3.8-2.5-7.1-6.1-8.1l-3.5-1c1.7-2.7,2.7-6,2.7-8.6c0-6.1-4.9-11.1-10.9-11.1c-6,0-10.9,5-10.9,11.1c0,2.7,1,5.9,2.7,8.6l-3.5,1
	c-3.6,1-6.1,4.3-6.1,8.1v9.9H17.8c-1,0-1.9,0.9-1.9,1.9v8.5C11.4,67.6,8,71.6,8,76.5c0,2.4,0.9,4.6,2.3,6.4
	c-5.1,2.8-8.4,8.2-8.4,14.3c0,1.1,0.8,1.9,1.9,1.9h28c1,0,1.9-0.9,1.9-1.9c0-6.1-3.4-11.5-8.5-14.3c1.4-1.7,2.3-3.9,2.3-6.3
	c0-4.8-3.4-8.8-7.8-9.7v-6.6h29.1v6.6c-4.5,0.9-7.9,4.9-7.9,9.7c0,2.4,0.9,4.6,2.3,6.4c-5.1,2.8-8.4,8.2-8.4,14.3
	c0,1.1,0.8,1.9,1.9,1.9h28c1,0,1.9-0.9,1.9-1.9c0-6.1-3.4-11.5-8.5-14.3c1.4-1.7,2.3-3.9,2.3-6.3c0-4.8-3.4-8.8-7.8-9.7v-6.6h29.1
	v6.6c-4.5,0.9-7.9,4.9-7.9,9.7c0,2.4,0.9,4.6,2.3,6.4c-5.1,2.8-8.4,8.2-8.4,14.3c0,1.1,0.8,1.9,1.9,1.9h28c1,0,1.9-0.9,1.9-1.9
	C99.5,91,96.1,85.6,91,82.8z M29.8,95.2H5.9c0.7-4.4,3.7-8.2,7.9-9.7c1.2,0.6,2.6,0.9,4,0.9c1.4,0,2.8-0.3,4-0.9
	C26,87,29.1,90.7,29.8,95.2z M23.7,76.5c0,3.3-2.7,6.1-6,6.1s-6-2.7-6-6.1c0-3.3,2.7-6.1,6-6.1S23.7,73.1,23.7,76.5z M62.7,95.2
	H38.8c0.7-4.4,3.7-8.2,7.9-9.7c1.2,0.6,2.6,0.9,4,0.9c1.4,0,2.8-0.3,4-0.9C58.9,87,62,90.7,62.7,95.2z M56.6,76.5
	c0,3.3-2.7,6.1-6,6.1c-3.3,0-6-2.7-6-6.1c0-3.3,2.7-6.1,6-6.1C54,70.4,56.6,73.1,56.6,76.5z M50.7,21.3c3.9,0,7.1,3.3,7.1,7.3
	c0,4.4-3.5,10.4-7.1,10.4c-3.6,0-7.1-5.9-7.1-10.4C43.6,24.6,46.8,21.3,50.7,21.3z M36.7,46.3c0-2.1,1.4-3.9,3.3-4.4l5.2-1.4
	c1.6,1.4,3.5,2.3,5.6,2.3c2.1,0,4-0.9,5.6-2.3l5.2,1.4c2,0.5,3.3,2.4,3.3,4.4v9.9H36.7V46.3z M83.6,70.4c3.3,0,6,2.7,6,6.1
	c0,3.3-2.7,6.1-6,6.1c-3.3,0-6-2.7-6-6.1C77.6,73.1,80.3,70.4,83.6,70.4z M71.7,95.2c0.7-4.4,3.7-8.2,7.9-9.7c1.2,0.6,2.6,0.9,4,0.9
	c1.4,0,2.8-0.3,4-0.9c4.2,1.5,7.3,5.2,8,9.7H71.7z"/>
</svg>
