<?xml version="1.0" encoding="utf-8"?>
<!-- Generator: Adobe Illustrator 25.3.1, SVG Export Plug-In . SVG Version: 6.00 Build 0)  -->
<svg version="1.1" id="katman_1" xmlns="http://www.w3.org/2000/svg" xmlns:xlink="http://www.w3.org/1999/xlink" x="0px" y="0px"
	 viewBox="0 0 100 100" style="enable-background:new 0 0 100 100;" xml:space="preserve">
<style type="text/css">
	.st0{fill:#FFFFFF;}
</style>
<g>
	<path class="st0" d="M90.8,99.4H74c-0.6,0-1.1-0.5-1.1-1.1V59.5H59.3c-0.6,0-1.1-0.5-1.1-1.1V10.1c0-0.6,0.5-1.1,1.1-1.1h31.5
		c0.6,0,1.1,0.5,1.1,1.1v88.3C91.9,99,91.4,99.4,90.8,99.4z M75.1,97.3h14.7V11.2H60.4v46.2H74c0.6,0,1.1,0.5,1.1,1.1L75.1,97.3
		L75.1,97.3z"/>
	<path class="st0" d="M74,99.4H40.4c-0.6,0-1.1-0.5-1.1-1.1V58.5c0-0.6,0.5-1.1,1.1-1.1H74c0.6,0,1.1,0.5,1.1,1.1v39.9
		C75.1,99,74.6,99.4,74,99.4z M41.5,97.3H73V59.5H41.5V97.3z"/>
	<path class="st0" d="M59.3,59.5H40.4c-0.6,0-1.1-0.5-1.1-1.1V36.4H25.7c-0.6,0-1.1-0.5-1.1-1.1V22.7c0-0.6,0.5-1.1,1.1-1.1h33.6
		c0.6,0,1.1,0.5,1.1,1.1v35.7C60.4,59,59.9,59.5,59.3,59.5z M41.5,57.4h16.8V23.8H26.7v10.5h13.7c0.6,0,1.1,0.5,1.1,1.1V57.4
		L41.5,57.4z"/>
	<path class="st0" d="M40.4,99.4H8.9c-0.6,0-1.1-0.5-1.1-1.1V35.3c0-0.6,0.5-1.1,1.1-1.1h31.5c0.6,0,1.1,0.5,1.1,1.1v63.1
		C41.5,99,41,99.4,40.4,99.4z M9.9,97.3h29.4v-61H9.9V97.3z"/>
	<path class="st0" d="M50.9,23.8H32c-0.6,0-1.1-0.5-1.1-1.1v-8.4c0-0.6,0.5-1.1,1.1-1.1h18.9c0.6,0,1.1,0.5,1.1,1.1v8.4
		C52,23.3,51.5,23.8,50.9,23.8z M33,21.7h16.8v-6.3H33V21.7z"/>
	<path class="st0" d="M44.6,15.4c-0.6,0-1.1-0.5-1.1-1.1V1.7c0-0.6,0.5-1.1,1.1-1.1c0.6,0,1.1,0.5,1.1,1.1v12.6
		C45.7,14.9,45.2,15.4,44.6,15.4z"/>
	<path class="st0" d="M38.3,15.4c-0.6,0-1.1-0.5-1.1-1.1V5.9c0-0.6,0.5-1.1,1.1-1.1c0.6,0,1.1,0.5,1.1,1.1v8.4
		C39.4,14.9,38.9,15.4,38.3,15.4z"/>
	<path class="st0" d="M95.1,99.4H4.7c-0.6,0-1.1-0.5-1.1-1.1c0-0.6,0.5-1.1,1.1-1.1h90.4c0.6,0,1.1,0.5,1.1,1.1
		C96.1,99,95.6,99.4,95.1,99.4z"/>
	<rect x="13.1" y="41.6" class="st0" width="4.2" height="8.4"/>
	<rect x="19.4" y="41.6" class="st0" width="4.2" height="8.4"/>
	<rect x="25.7" y="41.6" class="st0" width="4.2" height="8.4"/>
	<rect x="32" y="41.6" class="st0" width="4.2" height="8.4"/>
	<rect x="50.9" y="26.9" class="st0" width="4.2" height="4.2"/>
	<rect x="44.6" y="26.9" class="st0" width="4.2" height="4.2"/>
	<rect x="50.9" y="33.2" class="st0" width="4.2" height="4.2"/>
	<rect x="44.6" y="33.2" class="st0" width="4.2" height="4.2"/>
	<rect x="50.9" y="39.5" class="st0" width="4.2" height="4.2"/>
	<rect x="44.6" y="39.5" class="st0" width="4.2" height="4.2"/>
	<rect x="50.9" y="45.8" class="st0" width="4.2" height="4.2"/>
	<rect x="44.6" y="45.8" class="st0" width="4.2" height="4.2"/>
	<rect x="38.3" y="26.9" class="st0" width="4.2" height="4.2"/>
	<rect x="32" y="26.9" class="st0" width="4.2" height="4.2"/>
	<rect x="63.5" y="16.4" class="st0" width="4.2" height="35.7"/>
	<rect x="69.8" y="16.4" class="st0" width="4.2" height="35.7"/>
	<rect x="76.1" y="16.4" class="st0" width="4.2" height="35.7"/>
	<rect x="82.4" y="16.4" class="st0" width="4.2" height="65.2"/>
	<rect x="13.1" y="52.2" class="st0" width="4.2" height="8.4"/>
	<rect x="19.4" y="52.2" class="st0" width="4.2" height="8.4"/>
	<rect x="25.7" y="52.2" class="st0" width="4.2" height="8.4"/>
	<rect x="32" y="52.2" class="st0" width="4.2" height="8.4"/>
	<rect x="46.7" y="64.8" class="st0" width="21" height="4.2"/>
	<rect x="46.7" y="71.1" class="st0" width="21" height="4.2"/>
	<rect x="46.7" y="77.4" class="st0" width="21" height="4.2"/>
	<rect x="46.7" y="83.7" class="st0" width="21" height="4.2"/>
	<rect x="13.1" y="62.7" class="st0" width="4.2" height="8.4"/>
	<rect x="19.4" y="62.7" class="st0" width="4.2" height="8.4"/>
	<rect x="25.7" y="62.7" class="st0" width="4.2" height="8.4"/>
	<rect x="32" y="62.7" class="st0" width="4.2" height="8.4"/>
	<rect x="13.1" y="73.2" class="st0" width="4.2" height="8.4"/>
	<rect x="19.4" y="73.2" class="st0" width="4.2" height="8.4"/>
	<rect x="25.7" y="73.2" class="st0" width="4.2" height="8.4"/>
	<rect x="32" y="73.2" class="st0" width="4.2" height="8.4"/>
	<rect x="13.1" y="83.7" class="st0" width="4.2" height="8.4"/>
	<rect x="19.4" y="83.7" class="st0" width="4.2" height="8.4"/>
	<rect x="25.7" y="83.7" class="st0" width="4.2" height="8.4"/>
	<rect x="32" y="83.7" class="st0" width="4.2" height="8.4"/>
	<path class="st0" d="M84.5,11.2H65.6c-0.6,0-1.1-0.5-1.1-1.1V3.8c0-0.6,0.5-1.1,1.1-1.1h18.9c0.6,0,1.1,0.5,1.1,1.1v6.3
		C85.6,10.7,85.1,11.2,84.5,11.2z M66.7,9.1h16.8V4.9H66.7V9.1z"/>
</g>
</svg>
