<svg xmlns="http://www.w3.org/2000/svg" width="272.27" height="59.095" viewBox="0 0 272.27 59.095">
  <g id="Group_660" data-name="Group 660" transform="translate(-49 -39)">
    <path id="Path_4" data-name="Path 4" d="M3.94-5.851h7.423a2.57,2.57,0,0,0,2.263-.985L20.5-16.809a2.948,2.948,0,0,1,1.289-1.11,4.718,4.718,0,0,1,1.77-.293h6.16L20.666-5.872a6.051,6.051,0,0,1-1.006,1.11,6.337,6.337,0,0,1-1.069.733,5.393,5.393,0,0,1,1.456.807,5.325,5.325,0,0,1,1.2,1.372l9.219,14.163H24.144a5.505,5.505,0,0,1-1.037-.084,2.658,2.658,0,0,1-.744-.251,2.141,2.141,0,0,1-.545-.409,4.053,4.053,0,0,1-.44-.555L14.465.392a2.082,2.082,0,0,0-.953-.828,4.134,4.134,0,0,0-1.562-.24H3.94Z" transform="translate(176.528 71.003)" fill="#eee"/>
    <path id="FARUK_ÇELİK" data-name="FARUK ÇELİK" d="M9.534-25.536v8.421H20.5v4.956H9.534V0H3.192V-30.471H22.6v4.935Zm31,13.965-3.3-9.324q-.294-.735-.619-1.722t-.619-2.142q-.294,1.176-.62,2.174t-.619,1.733l-3.276,9.282ZM51.114,0H46.221a2.154,2.154,0,0,1-1.333-.389,2.353,2.353,0,0,1-.766-1L42.063-7.2H29.925L27.867-1.386a2.4,2.4,0,0,1-.735.956A2.018,2.018,0,0,1,25.809,0H20.874L32.781-30.471h6.447ZM63.462-16.044a8.049,8.049,0,0,0,2.646-.389A4.971,4.971,0,0,0,67.935-17.5a4.162,4.162,0,0,0,1.05-1.607,5.858,5.858,0,0,0,.336-2.016,4.129,4.129,0,0,0-1.438-3.36,6.74,6.74,0,0,0-4.379-1.2H60.228v9.639ZM78.225,0H72.534a2.473,2.473,0,0,1-2.31-1.218l-5.8-9.345a2.449,2.449,0,0,0-.788-.8,2.561,2.561,0,0,0-1.27-.252H60.228V0h-6.3V-30.471H63.5a19.681,19.681,0,0,1,5.46.661,10.5,10.5,0,0,1,3.717,1.837,7.037,7.037,0,0,1,2.121,2.8,9.293,9.293,0,0,1,.672,3.581,9.408,9.408,0,0,1-.43,2.866,8.45,8.45,0,0,1-1.25,2.468,9.008,9.008,0,0,1-2.016,1.974,10.427,10.427,0,0,1-2.73,1.386,6.085,6.085,0,0,1,1.134.808,5.541,5.541,0,0,1,.945,1.124ZM93.408-5.04a7.009,7.009,0,0,0,2.751-.514,5.656,5.656,0,0,0,2.058-1.46A6.4,6.4,0,0,0,99.5-9.3a9.673,9.673,0,0,0,.441-3.024V-30.471h6.3v18.144a14.074,14.074,0,0,1-.893,5.093,11.485,11.485,0,0,1-2.551,4A11.631,11.631,0,0,1,98.763-.609a14.372,14.372,0,0,1-5.355.945,14.454,14.454,0,0,1-5.366-.945A11.611,11.611,0,0,1,84-3.234a11.485,11.485,0,0,1-2.552-4,14.074,14.074,0,0,1-.892-5.093V-30.471h6.3v18.144A9.673,9.673,0,0,0,87.3-9.3a6.4,6.4,0,0,0,1.281,2.289,5.656,5.656,0,0,0,2.058,1.46A7.066,7.066,0,0,0,93.408-5.04Zm25.137-12.852h1.239a2.575,2.575,0,0,0,2.247-.966l7.707-10.311a3.037,3.037,0,0,1,1.2-1.018,4,4,0,0,1,1.6-.283h5.46l-9.7,12.495a6.161,6.161,0,0,1-1.953,1.743,5.151,5.151,0,0,1,1.323.766,6.047,6.047,0,0,1,1.134,1.25L138.747,0H133.14a4.486,4.486,0,0,1-.934-.084,2.89,2.89,0,0,1-.682-.231,1.8,1.8,0,0,1-.5-.368,3.443,3.443,0,0,1-.4-.515l-7.833-10.962a2.3,2.3,0,0,0-.945-.808,3.9,3.9,0,0,0-1.533-.242h-1.764V0h-6.3V-30.471h6.3Zm56.994,13.44a11.782,11.782,0,0,1-3.99,3.3A14.42,14.42,0,0,1,166.005.273l-.252.9a8.044,8.044,0,0,1,1.659.557,4.1,4.1,0,0,1,1.081.724,2.381,2.381,0,0,1,.588.882,2.885,2.885,0,0,1,.179,1.008,2.3,2.3,0,0,1-.389,1.312,3.166,3.166,0,0,1-1.092.977,6.126,6.126,0,0,1-1.691.619,10.031,10.031,0,0,1-2.184.221,12.8,12.8,0,0,1-1.606-.095,9.926,9.926,0,0,1-1.48-.3l.525-1.785a.608.608,0,0,1,.651-.5,1.943,1.943,0,0,1,.63.115,2.775,2.775,0,0,0,.882.115,1.494,1.494,0,0,0,.924-.231.679.679,0,0,0,.294-.546q0-.525-.7-.766A13.973,13.973,0,0,0,161.763,3l.945-2.751a14.628,14.628,0,0,1-5.46-1.565,13.279,13.279,0,0,1-4.105-3.318,14.526,14.526,0,0,1-2.583-4.756,18.618,18.618,0,0,1-.893-5.859,18.363,18.363,0,0,1,.493-4.316,15.2,15.2,0,0,1,1.438-3.769,14.568,14.568,0,0,1,2.279-3.108,13.743,13.743,0,0,1,3.014-2.363,14.485,14.485,0,0,1,3.664-1.491,16.808,16.808,0,0,1,4.232-.514,16.538,16.538,0,0,1,3.182.294,15.388,15.388,0,0,1,2.8.819,12.867,12.867,0,0,1,2.4,1.271,13.45,13.45,0,0,1,1.985,1.627l-2.121,2.9a1.978,1.978,0,0,1-.483.483,1.349,1.349,0,0,1-.8.21,1.782,1.782,0,0,1-1.018-.357q-.515-.357-1.26-.8a9.123,9.123,0,0,0-1.869-.8,9.558,9.558,0,0,0-2.845-.357,8.712,8.712,0,0,0-3.507.693,7.618,7.618,0,0,0-2.74,2.005,9.236,9.236,0,0,0-1.775,3.224,13.86,13.86,0,0,0-.63,4.347,13.039,13.039,0,0,0,.683,4.379,9.611,9.611,0,0,0,1.869,3.244,7.869,7.869,0,0,0,2.772,2.005,8.486,8.486,0,0,0,3.392.683,16.34,16.34,0,0,0,1.942-.105,8.047,8.047,0,0,0,1.617-.357,7.145,7.145,0,0,0,1.407-.651,8.674,8.674,0,0,0,1.333-1.008,2.6,2.6,0,0,1,.483-.315,1.2,1.2,0,0,1,.546-.126,1.165,1.165,0,0,1,.882.378Zm9.891-21.084V-17.7h10.164v4.767H185.43v8h13.062V0h-19.4V-30.471h19.4v4.935ZM221.277-5.124V0H203.2V-30.471h6.3V-5.124ZM231.462,0H225.12V-30.471h6.342Zm.315-35.637a3.026,3.026,0,0,1-.273,1.271,3.421,3.421,0,0,1-.756,1.061,3.563,3.563,0,0,1-1.123.724,3.537,3.537,0,0,1-1.355.263,3.128,3.128,0,0,1-1.27-.263,3.442,3.442,0,0,1-1.061-.724,3.6,3.6,0,0,1-.735-1.061,3.026,3.026,0,0,1-.273-1.271,3.219,3.219,0,0,1,.273-1.312,3.522,3.522,0,0,1,.735-1.081A3.6,3.6,0,0,1,227-38.766a3.026,3.026,0,0,1,1.27-.273,3.419,3.419,0,0,1,1.355.273,3.718,3.718,0,0,1,1.123.735,3.351,3.351,0,0,1,.756,1.081A3.219,3.219,0,0,1,231.777-35.637Zm12.369,17.745h1.239a2.575,2.575,0,0,0,2.247-.966l7.707-10.311a3.037,3.037,0,0,1,1.2-1.018,4,4,0,0,1,1.6-.283h5.46l-9.7,12.495a6.162,6.162,0,0,1-1.953,1.743,5.151,5.151,0,0,1,1.323.766,6.048,6.048,0,0,1,1.134,1.25L264.348,0h-5.607a4.486,4.486,0,0,1-.934-.084,2.889,2.889,0,0,1-.682-.231,1.8,1.8,0,0,1-.5-.368,3.444,3.444,0,0,1-.4-.515l-7.833-10.962a2.3,2.3,0,0,0-.945-.808,3.9,3.9,0,0,0-1.533-.242h-1.764V0h-6.3V-30.471h6.3Z" transform="translate(56.922 83.263)" fill="#eee"/>
    <path id="Path_2" data-name="Path 2" d="M3247.119-670.168H3104.078a1,1,0,0,1-1-1v-57.1a1,1,0,0,1,1-1h31.281a1,1,0,0,1,1,1,1,1,0,0,1-1,1h-30.281v55.1h142.041a1,1,0,0,1,1,1A1,1,0,0,1,3247.119-670.168Z" transform="translate(-3054.078 768.263)" fill="#7bc377"/>
    <path id="Path_3" data-name="Path 3" d="M3.94-5.851h7.423a2.57,2.57,0,0,0,2.263-.985L20.5-16.809a2.948,2.948,0,0,1,1.289-1.11,4.718,4.718,0,0,1,1.77-.293h6.16L20.666-5.872a6.051,6.051,0,0,1-1.006,1.11,6.337,6.337,0,0,1-1.069.733,5.393,5.393,0,0,1,1.456.807,5.325,5.325,0,0,1,1.2,1.372l9.219,14.163H24.144a5.505,5.505,0,0,1-1.037-.084,2.658,2.658,0,0,1-.744-.251,2.141,2.141,0,0,1-.545-.409,4.053,4.053,0,0,1-.44-.555L14.465.392a2.082,2.082,0,0,0-.953-.828,4.134,4.134,0,0,0-1.562-.24H3.94Z" transform="translate(171.528 71.003)" fill="#7bc377"/>
  </g>
</svg>
