<?xml version="1.0" encoding="utf-8"?>
<!-- Generator: Adobe Illustrator 25.3.1, SVG Export Plug-In . SVG Version: 6.00 Build 0)  -->
<svg version="1.1" id="katman_1" xmlns="http://www.w3.org/2000/svg" xmlns:xlink="http://www.w3.org/1999/xlink" x="0px" y="0px"
	 viewBox="0 0 100 100" style="enable-background:new 0 0 100 100;" xml:space="preserve">
<style type="text/css">
	.st0{clip-path:url(#SVGID_2_);}
	.st1{fill-rule:evenodd;clip-rule:evenodd;fill:#FFFFFF;stroke:#FFFFFF;stroke-width:0.7654;stroke-miterlimit:10;}
</style>
<g>
	<defs>
		<path id="SVGID_1_" d="M88,50.9c0.9-7.8,1.2-11.8-0.7-13.7c-1.9-1.9-4.3-1.5-6-0.5c-1.7,1-4.4,0.8-4.4,0.8s-2.4-1.7-5.8-2.9
			c-3.4-1.2-10.3-1-10.3-1l-1.6,0.1c0,0-3.2-4.2-3.4-5.2c-0.2-1,0.4-2.4,1.3-3.7c0.9-1.4,1.6-2.3,1.9-5.3c0.3-3.1-0.2-4.2-1.5-4.6
			c-1.2-0.4-2.6-0.8-2.8-1.7c-0.2-0.9-0.2-1.7,0-3.5c0.2-1.8-1-2.8-1-2.8s0-0.7-0.1-1.9c-0.1-1.2-1.1-1-0.9-0.8
			c0.2,0.2-0.6,2.3-0.6,2.3s-2.7,0.2-3.8,0.3C47.2,6.8,47,8.8,47,8.8s0.2,0.9,0.4,1.7c-0.1,0.7-0.3,1.5-0.4,1.9
			c-0.1,0.3,0.1,0.4,0.8,0.4c0,0.6,0.1,1.2,0.4,1.7c0.6,0.9,2.3,0.4,2.3,0.4l-0.3,0.8c0,0-1.3,0.1-2.3,0.3c-1,0.2-2.5-0.2-4.3-0.5
			c-1.8-0.2-5.2-2.4-6.5-2.6c-1.2-0.2-3.1-0.2-4.4-0.1c-1.4,0.1-3.3,0.3-3.6,0.8c-0.3,0.5,2.6,0.8,2.6,0.8s0.2,0.8,1.1,0.8
			c0.9,0,1.8,0.5,1.8,0.5s0.4-0.5,1.5-0.4c1.3,0.2,4.2,2.6,6.4,3.4c2.2,0.8,4.3,1.8,4.3,1.8l0.2,4.6c0,0-1,0-1.6,0.2
			c-0.6,0.2-1.6,0.1-2,0.3c-0.4,0.2-1.1,1.1-0.8,1.8c0.3,0.7,1.6,0.9,1.6,0.9l1.7,0.2l0.2,0.8l0.2,1.7c0,0-0.5,0.7-1.6,0.6
			c-1.1-0.1-2.7-0.8-4-3.2c-1.2-2.4-3.4-5.9-10.9-7.1c-7.5-1.2-10.8,6-10.8,6l-2.5-0.1l1.6,1.7c0,0,0,1.5,0.3,2.6
			c0.3,1.1,2,1.8,3.3,4.4c1.3,2.6,0.7,5.8,0.7,6.3c0,0.6,2,1,3.2,1.1c1.1,0.1,2.1-1.6,2.1-1.6s-0.6,1.5-0.6,2.5c0,1,0.1,3.3-1.1,3.5
			c-1.2,0.2-4.6-0.1-6.7-0.5c-2-0.3-2.9,1.7-2.9,1.7s-3.9,5.1-5.1,9.4c-1.3,4.3-0.5,5.7-0.5,5.7s1.4-0.7,1.9-0.9
			c0.6-0.2,1.4-1.5,1.5-2.5c0.1-1-0.4-2.3-0.4-2.3l3.6-6.3c0,0,1-0.7,1.9-0.6c0.9,0.1,2.3,0.4,6.3,2.3c4.1,1.8,5.4,1.5,5.4,1.5
			s-0.1,0.5-1.3,2.4c-1.1,1.9-1.9,3.4-4.6,7.8c-2.7,4.4-3.7,5.8-5.8,7.9c-1.1,1.2-2.4,2.5-3.4,3.5h-3.1l-2.4,6.8h-2V90h1.9v8.6h71.2
			V90h1.8v-6.3h-1.9l-2.4-6.8H50.3c0.5-0.8,1.1-1.7,1.3-1.9c0.4-0.3,1.8-0.6,2.8-1.6c1-1,8-6,9.3-7.1c1.2-1.1,0.7-2.7,0.7-5.8
			c0-3.1,2.1-6.3,2.1-6.3s0.9,1.4,2.8,2.8c1.9,1.5,5.4,3.5,6.1,4.3c0.7,0.8-4.4,4.9-6.4,7.7c-2.1,2.8,0.7,7.7,0.7,7.7
			s1.1-0.5,2.5-1.6c1.4-1.1,1.2-1.5,0.4-2.3c-0.8-0.8-0.8-2.1-0.3-3.4c0.5-1.2,5.7-6.1,6.9-7.6c1.3-1.5,0.1-2.4-1.2-3.2
			c-1.4-0.8-3.2-3.2-3.5-4.5c-0.3-1.4,1.6-3.7,2.9-7.1c1.4-3.4,0.7-7.2,0.7-7.2s1.6-0.4,2.5,0.5c0.9,0.9,1.9,2.4,2,9
			c0.1,6.7-1.3,17.6-1.3,17.6S87.1,58.7,88,50.9z M23.1,41.4c0,0,0.1-2.5-0.1-4.1c-0.2-1.6-2-4-3.2-5.1c-1.3-1.1-0.8-2.8-0.8-2.8
			c0.2,0.6,0.8,1.8,1.4,2.3c0.6,0.5,2.6,2.3,3.2,4.8C24.1,38.9,23.1,41.4,23.1,41.4z M48.8,25c0.8-0.2,2-0.2,2-0.2s0.8-2.2,1.7-2.9
			c0.8-0.8,1.3-1.7,1.3-2.6c0-0.9,1.6-2.7,1.6-2.7s-1.1,2.6-1.1,3.3c-0.1,0.8-0.7,1.7-1.4,2.4c-0.8,0.8-1,2.6-1.1,2.9
			c-0.2,0.3-0.8,0.3-1.6,0.3c-0.8,0-3.3,0.1-3.3,0.1S48,25.2,48.8,25z M59.1,64.8c-0.8,1.1-8.8,7.6-10.3,9c-0.8,0.8-2,2.1-2.9,3
			H21.4l0.3-0.4c0,0,0.8-2,1.6-3.1c0.8-1.1,1.9-2.1,3.1-3.3c1.2-1.2,2.2-3.5,4.8-7.3c2.6-3.7,5.9-6.3,5.9-6.3s2.4-0.1,3.3-0.5
			c0.9-0.3,0.8-1.5,2-1.8c1.2-0.3,1.9,0,7.2,0c5.3,0,9.2-2.5,9.2-2.5s-0.2,1.9,0,4.2c0.2,2.3,1.1,4,1.1,6
			C59.9,63.9,59.9,63.6,59.1,64.8z M66,51.9c-2.4-3.9-0.4-10.3-0.4-10.3s-0.3,4.5,0.4,7.9c0.8,3.3,6.2,8.5,6.2,8.5
			S68.4,55.7,66,51.9z"/>
	</defs>
	<use xlink:href="#SVGID_1_"  style="overflow:visible;fill:#FFFFFF;"/>
	<clipPath id="SVGID_2_">
		<use xlink:href="#SVGID_1_"  style="overflow:visible;"/>
	</clipPath>
	<g class="st0">
		<polygon class="st1" points="80.7,100 95.9,100 84.1,98.3 		"/>
		<polygon class="st1" points="95.9,100 107.4,100 106.2,98.9 		"/>
		<polygon class="st1" points="65.5,100 70.5,100 66.8,97.7 		"/>
		<polygon class="st1" points="65.5,100 66.8,97.7 65.6,97.1 		"/>
		<polygon class="st1" points="19.8,100 35,100 27.5,97.1 		"/>
		<polygon class="st1" points="35,100 34.9,99.4 27.5,97.1 		"/>
		<polygon class="st1" points="4.6,100 19.8,100 17.6,96.5 		"/>
		<polygon class="st1" points="84.1,98.3 95.9,100 89,96.5 		"/>
		<polygon class="st1" points="95.9,100 93.9,96.5 89,96.5 		"/>
		<polygon class="st1" points="35,100 50.2,100 34.9,99.4 		"/>
		<polygon class="st1" points="27.5,97.1 34.9,99.4 31.2,95.4 		"/>
		<polygon class="st1" points="-10.7,100 2.9,100 -2.1,95.4 		"/>
		<polygon class="st1" points="95.9,100 106.2,98.9 102.5,95.4 		"/>
		<polygon class="st1" points="93.9,96.5 95.9,100 102.5,95.4 		"/>
		<polygon class="st1" points="19.8,100 27.5,97.1 17.6,96.5 		"/>
		<polygon class="st1" points="93.9,96.5 102.5,95.4 98.8,94.8 		"/>
		<polygon class="st1" points="2.9,100 4.6,100 5.3,94.8 		"/>
		<polygon class="st1" points="-2.1,95.4 2.9,100 5.3,94.8 		"/>
		<polygon class="st1" points="4.6,100 17.6,96.5 5.3,94.8 		"/>
		<polygon class="st1" points="70.5,100 80.7,100 77.9,94.8 		"/>
		<polygon class="st1" points="66.8,97.7 70.5,100 77.9,94.8 		"/>
		<polygon class="st1" points="80.7,100 84.1,98.3 77.9,94.8 		"/>
		<polygon class="st1" points="50.2,100 65.5,100 65.6,97.1 		"/>
		<polygon class="st1" points="102.5,95.4 106.2,98.9 107.4,92.8 		"/>
		<polygon class="st1" points="-10.7,100 -2.1,95.4 -10.7,92.8 		"/>
		<polygon class="st1" points="-2.1,95.4 5.3,94.8 -2.1,93.6 		"/>
		<polygon class="st1" points="84.1,98.3 89,96.5 77.9,94.8 		"/>
		<polygon class="st1" points="65.6,97.1 66.8,97.7 74.2,92.5 		"/>
		<polygon class="st1" points="66.8,97.7 77.9,94.8 74.2,92.5 		"/>
		<polygon class="st1" points="29.9,93.1 31.2,95.4 31.2,92.5 		"/>
		<polygon class="st1" points="-2.1,95.4 -2.1,93.6 -10.7,92.8 		"/>
		<polygon class="st1" points="27.5,97.1 31.2,95.4 29.9,93.1 		"/>
		<polygon class="st1" points="89,96.5 93.9,96.5 93.9,91.9 		"/>
		<polygon class="st1" points="93.9,96.5 98.8,94.8 93.9,91.9 		"/>
		<polygon class="st1" points="-2.1,93.6 5.3,94.8 5.3,92.5 		"/>
		<polygon class="st1" points="50.2,100 65.6,97.1 57,91.3 		"/>
		<polygon class="st1" points="5.3,94.8 17.6,96.5 16.4,91.3 		"/>
		<polygon class="st1" points="74.2,92.5 77.9,94.8 76.7,91.3 		"/>
		<polygon class="st1" points="17.6,96.5 27.5,97.1 29.9,93.1 		"/>
		<polygon class="st1" points="93.9,91.9 98.8,94.8 95.1,90.7 		"/>
		<polygon class="st1" points="5.3,92.5 5.3,94.8 16.4,91.3 		"/>
		<polygon class="st1" points="17.6,96.5 29.9,93.1 16.4,91.3 		"/>
		<polygon class="st1" points="-10.7,92.8 -2.1,93.6 -10.7,91.9 		"/>
		<polygon class="st1" points="98.8,94.8 102.5,95.4 107.4,92.8 		"/>
		<polygon class="st1" points="106.2,98.9 107.4,100 107.4,92.8 		"/>
		<polygon class="st1" points="34.9,99.4 50.2,100 31.2,95.4 		"/>
		<polygon class="st1" points="74.2,92.5 76.7,91.3 74.2,89.6 		"/>
		<polygon class="st1" points="93.9,91.9 89,89 85.3,89 		"/>
		<polygon class="st1" points="76.7,91.3 77.9,94.8 85.3,89 		"/>
		<polygon class="st1" points="77.9,94.8 89,96.5 85.3,89 		"/>
		<polygon class="st1" points="89,96.5 93.9,91.9 85.3,89 		"/>
		<polygon class="st1" points="-10.7,91.9 -2.1,93.6 -4.5,89 		"/>
		<polygon class="st1" points="93.9,91.9 95.1,90.7 89,89 		"/>
		<polygon class="st1" points="98.8,94.8 107.4,92.8 95.1,90.7 		"/>
		<polygon class="st1" points="65.6,97.1 74.2,92.5 57,91.3 		"/>
		<polygon class="st1" points="29.9,93.1 31.2,92.5 25,88.4 		"/>
		<polygon class="st1" points="16.4,91.3 29.9,93.1 25,88.4 		"/>
		<polygon class="st1" points="-2.1,93.6 5.3,92.5 -4.5,89 		"/>
		<polygon class="st1" points="57,91.3 74.2,92.5 66.8,87.8 		"/>
		<polygon class="st1" points="74.2,92.5 74.2,89.6 66.8,87.8 		"/>
		<polygon class="st1" points="31.2,95.4 50.2,100 57,91.3 		"/>
		<polygon class="st1" points="31.2,92.5 31.2,95.4 57,91.3 		"/>
		<polygon class="st1" points="74.2,89.6 76.7,91.3 85.3,89 		"/>
		<polygon class="st1" points="-4.5,89 5.3,92.5 4.1,86.1 		"/>
		<polygon class="st1" points="95.1,90.7 107.4,92.8 107.4,85.7 		"/>
		<polygon class="st1" points="-10.7,91.9 -4.5,89 -10.7,85.7 		"/>
		<polygon class="st1" points="5.3,92.5 16.4,91.3 4.1,86.1 		"/>
		<polygon class="st1" points="25,88.4 31.2,92.5 26.2,86.7 		"/>
		<polygon class="st1" points="95.1,90.7 107.4,85.7 102.5,84.4 		"/>
		<polygon class="st1" points="64.4,83.8 66.8,87.8 66.8,83.8 		"/>
		<polygon class="st1" points="5.3,84.4 4.1,86.1 7.8,83.8 		"/>
		<polygon class="st1" points="57,91.3 66.8,87.8 55.8,83.2 		"/>
		<polygon class="st1" points="66.8,87.8 64.4,83.8 55.8,83.2 		"/>
		<polygon class="st1" points="4.1,86.1 16.4,91.3 7.8,83.8 		"/>
		<polygon class="st1" points="89,89 95.1,90.7 102.5,84.4 		"/>
		<polygon class="st1" points="102.5,84.4 107.4,85.7 105,82.6 		"/>
		<polygon class="st1" points="31.2,92.5 57,91.3 44.7,82.6 		"/>
		<polygon class="st1" points="57,91.3 55.8,83.2 44.7,82.6 		"/>
		<polygon class="st1" points="7.8,83.8 16.4,91.3 9,83.2 		"/>
		<polygon class="st1" points="-4.5,89 4.1,86.1 -10.7,85.7 		"/>
		<polygon class="st1" points="102.5,84.4 105,82.6 102.5,82 		"/>
		<polygon class="st1" points="55.8,83.2 64.4,83.8 58.2,82 		"/>
		<polygon class="st1" points="55.8,82.6 55.8,83.2 58.2,82 		"/>
		<polygon class="st1" points="26.2,86.7 31.2,92.5 44.7,82.6 		"/>
		<polygon class="st1" points="16.4,91.3 25,88.4 9,83.2 		"/>
		<polygon class="st1" points="25,88.4 26.2,86.7 9,83.2 		"/>
		<polygon class="st1" points="66.8,87.8 74.2,89.6 66.8,83.8 		"/>
		<polygon class="st1" points="66.8,83.8 74.2,89.6 70.5,81.5 		"/>
		<polygon class="st1" points="55.8,82.6 58.2,82 58.2,81.5 		"/>
		<polygon class="st1" points="9,83.2 26.2,84.9 11.5,82 		"/>
		<polygon class="st1" points="26.2,84.9 25,82.6 11.5,82 		"/>
		<polygon class="st1" points="26.2,84.9 26.2,86.7 44.7,82.6 		"/>
		<polygon class="st1" points="26.2,86.7 26.2,84.9 9,83.2 		"/>
		<polygon class="st1" points="85.3,89 89,89 84.1,80.3 		"/>
		<polygon class="st1" points="5.3,84.4 7.8,83.8 2.9,80.3 		"/>
		<polygon class="st1" points="7.8,83.8 9,83.2 2.9,80.3 		"/>
		<polygon class="st1" points="74.2,89.6 85.3,89 70.5,81.5 		"/>
		<polygon class="st1" points="55.8,83.2 55.8,82.6 44.7,82.6 		"/>
		<polygon class="st1" points="-10.7,85.7 4.1,86.1 5.3,84.4 		"/>
		<polygon class="st1" points="-10.7,85.7 5.3,84.4 -3.3,79.7 		"/>
		<polygon class="st1" points="5.3,84.4 2.9,80.3 -3.3,79.7 		"/>
		<polygon class="st1" points="44.7,82.6 55.8,82.6 53.3,79.7 		"/>
		<polygon class="st1" points="55.8,82.6 58.2,81.5 53.3,79.7 		"/>
		<polygon class="st1" points="70.5,81.5 85.3,89 84.1,80.3 		"/>
		<polygon class="st1" points="64.4,83.8 66.8,83.8 70.5,81.5 		"/>
		<polygon class="st1" points="58.2,82 64.4,83.8 58.2,81.5 		"/>
		<polygon class="st1" points="89,89 102.5,84.4 84.1,80.3 		"/>
		<polygon class="st1" points="9,83.2 11.5,82 2.9,80.3 		"/>
		<polygon class="st1" points="-10.7,85.7 -3.3,79.7 -10.7,78.5 		"/>
		<polygon class="st1" points="102.5,82 105,82.6 107.4,78.5 		"/>
		<polygon class="st1" points="53.3,79.7 58.2,81.5 59.5,79.1 		"/>
		<polygon class="st1" points="58.2,81.5 64.4,83.8 59.5,79.1 		"/>
		<polygon class="st1" points="102.5,84.4 102.5,82 84.1,80.3 		"/>
		<polygon class="st1" points="25,82.6 26.2,84.9 44.7,82.6 		"/>
		<polygon class="st1" points="64.4,83.8 70.5,81.5 59.5,79.1 		"/>
		<polygon class="st1" points="25,82.6 44.7,82.6 33.6,77.4 		"/>
		<polygon class="st1" points="70.5,81.5 84.1,80.3 82.8,78 		"/>
		<polygon class="st1" points="25,82.6 33.6,77.4 27.5,76.2 		"/>
		<polygon class="st1" points="84.1,80.3 102.5,82 91.5,76.2 		"/>
		<polygon class="st1" points="82.8,78 84.1,80.3 91.5,76.2 		"/>
		<polygon class="st1" points="105,82.6 107.4,85.7 107.4,78.5 		"/>
		<polygon class="st1" points="11.5,82 25,82.6 21.3,75.7 		"/>
		<polygon class="st1" points="25,82.6 27.5,76.2 21.3,75.7 		"/>
		<polygon class="st1" points="27.5,76.2 33.6,77.4 31.2,75.7 		"/>
		<polygon class="st1" points="59.5,79.1 70.5,81.5 61.9,76.2 		"/>
		<polygon class="st1" points="44.7,82.6 53.3,79.7 44.7,75.1 		"/>
		<polygon class="st1" points="33.6,77.4 44.7,82.6 44.7,75.1 		"/>
		<polygon class="st1" points="2.9,80.3 11.5,82 6.6,75.1 		"/>
		<polygon class="st1" points="82.8,78 91.5,76.2 89,74.5 		"/>
		<polygon class="st1" points="70.5,81.5 82.8,78 79.1,75.1 		"/>
		<polygon class="st1" points="102.5,82 107.4,78.5 91.5,76.2 		"/>
		<polygon class="st1" points="82.8,78 89,74.5 87.8,73.9 		"/>
		<polygon class="st1" points="21.3,75.7 27.5,76.2 21.3,75.1 		"/>
		<polygon class="st1" points="-3.3,79.7 2.9,80.3 6.6,75.1 		"/>
		<polygon class="st1" points="11.5,82 21.3,75.7 6.6,75.1 		"/>
		<polygon class="st1" points="53.3,79.7 59.5,79.1 61.9,76.2 		"/>
		<polygon class="st1" points="53.3,79.7 61.9,76.2 53.3,73.3 		"/>
		<polygon class="st1" points="44.7,75.1 53.3,79.7 53.3,73.3 		"/>
		<polygon class="st1" points="6.6,75.1 21.3,75.7 13.9,73.3 		"/>
		<polygon class="st1" points="21.3,75.7 21.3,75.1 13.9,73.3 		"/>
		<polygon class="st1" points="79.1,75.1 82.8,78 87.8,73.9 		"/>
		<polygon class="st1" points="61.9,76.2 79.1,75.1 66.8,72.8 		"/>
		<polygon class="st1" points="31.2,75.7 33.6,77.4 43.5,73.3 		"/>
		<polygon class="st1" points="33.6,77.4 44.7,75.1 43.5,73.3 		"/>
		<polygon class="st1" points="61.9,76.2 70.5,81.5 79.1,75.1 		"/>
		<polygon class="st1" points="43.5,73.3 44.7,75.1 53.3,73.3 		"/>
		<polygon class="st1" points="87.8,73.9 89,74.5 91.5,71 		"/>
		<polygon class="st1" points="6.6,75.1 13.9,73.3 6.6,70.4 		"/>
		<polygon class="st1" points="89,74.5 91.5,76.2 91.5,71 		"/>
		<polygon class="st1" points="91.5,76.2 107.4,78.5 107.4,71.3 		"/>
		<polygon class="st1" points="-10.7,78.5 -3.3,79.7 -10.7,71.3 		"/>
		<polygon class="st1" points="-3.3,79.7 6.6,75.1 -10.7,71.3 		"/>
		<polygon class="st1" points="53.3,73.3 61.9,76.2 66.8,72.8 		"/>
		<polygon class="st1" points="27.5,76.2 31.2,75.7 23.8,69.9 		"/>
		<polygon class="st1" points="21.3,75.1 27.5,76.2 23.8,69.9 		"/>
		<polygon class="st1" points="91.5,71 107.4,71.3 96.4,69.3 		"/>
		<polygon class="st1" points="13.9,73.3 21.3,75.1 23.8,69.9 		"/>
		<polygon class="st1" points="91.5,76.2 107.4,71.3 91.5,71 		"/>
		<polygon class="st1" points="96.4,69.3 107.4,71.3 98.8,68.7 		"/>
		<polygon class="st1" points="13.9,73.3 23.8,69.9 18.9,68.7 		"/>
		<polygon class="st1" points="31.2,75.7 43.5,73.3 42.2,69.9 		"/>
		<polygon class="st1" points="-10.7,71.3 6.6,75.1 6.6,70.4 		"/>
		<polygon class="st1" points="6.6,70.4 13.9,73.3 11.5,68.1 		"/>
		<polygon class="st1" points="13.9,73.3 18.9,68.7 11.5,68.1 		"/>
		<polygon class="st1" points="43.5,73.3 53.3,73.3 42.2,69.9 		"/>
		<polygon class="st1" points="31.2,75.7 42.2,69.9 31.2,67.5 		"/>
		<polygon class="st1" points="23.8,69.9 31.2,75.7 31.2,67.5 		"/>
		<polygon class="st1" points="26.2,68.1 23.8,69.9 31.2,67.5 		"/>
		<polygon class="st1" points="53.3,73.3 66.8,72.8 61.9,67 		"/>
		<polygon class="st1" points="18.9,68.7 23.8,69.9 23.8,67 		"/>
		<polygon class="st1" points="23.8,69.9 26.2,68.1 23.8,67 		"/>
		<polygon class="st1" points="11.5,68.1 18.9,68.7 15.2,66.4 		"/>
		<polygon class="st1" points="6.6,70.4 11.5,68.1 9,65.8 		"/>
		<polygon class="st1" points="9,65.8 15.2,66.4 10.3,65.2 		"/>
		<polygon class="st1" points="11.5,68.1 15.2,66.4 9,65.8 		"/>
		<polygon class="st1" points="79.1,75.1 87.8,73.9 91.5,71 		"/>
		<polygon class="st1" points="66.8,72.8 79.1,75.1 76.7,64.6 		"/>
		<polygon class="st1" points="79.1,75.1 91.5,71 76.7,64.6 		"/>
		<polygon class="st1" points="18.9,68.7 23.8,67 15.2,66.4 		"/>
		<polygon class="st1" points="26.2,68.1 31.2,67.5 23.8,67 		"/>
		<polygon class="st1" points="98.8,68.7 107.4,71.3 107.4,64.1 		"/>
		<polygon class="st1" points="100.1,64.6 98.8,68.7 107.4,64.1 		"/>
		<polygon class="st1" points="61.9,67 66.8,72.8 76.7,64.6 		"/>
		<polygon class="st1" points="42.2,69.9 53.3,73.3 61.9,67 		"/>
		<polygon class="st1" points="15.2,66.4 23.8,67 18.9,63.5 		"/>
		<polygon class="st1" points="96.4,69.3 98.8,68.7 100.1,64.6 		"/>
		<polygon class="st1" points="100.1,64.6 107.4,64.1 103.8,62.9 		"/>
		<polygon class="st1" points="23.8,67 31.2,67.5 32.4,63.5 		"/>
		<polygon class="st1" points="-10.7,71.3 6.6,70.4 -10.7,64.1 		"/>
		<polygon class="st1" points="61.9,67 76.7,64.6 73,62.3 		"/>
		<polygon class="st1" points="10.3,65.2 15.2,66.4 18.9,63.5 		"/>
		<polygon class="st1" points="31.2,67.5 42.2,69.9 32.4,63.5 		"/>
		<polygon class="st1" points="6.6,70.4 9,65.8 -10.7,64.1 		"/>
		<polygon class="st1" points="23.8,67 32.4,63.5 23.8,61.7 		"/>
		<polygon class="st1" points="18.9,63.5 23.8,67 23.8,61.7 		"/>
		<polygon class="st1" points="61.9,67 60.7,62.3 57,61.2 		"/>
		<polygon class="st1" points="48.4,61.2 61.9,67 57,61.2 		"/>
		<polygon class="st1" points="42.2,69.9 61.9,67 48.4,61.2 		"/>
		<polygon class="st1" points="32.4,63.5 42.2,69.9 48.4,61.2 		"/>
		<polygon class="st1" points="60.7,62.3 73,62.3 63.2,61.2 		"/>
		<polygon class="st1" points="73,62.3 76.7,64.6 76.7,61.2 		"/>
		<polygon class="st1" points="61.9,67 73,62.3 60.7,62.3 		"/>
		<polygon class="st1" points="91.5,71 96.4,69.3 76.7,64.6 		"/>
		<polygon class="st1" points="9,65.8 10.3,65.2 6.6,60 		"/>
		<polygon class="st1" points="76.7,61.2 76.7,64.6 85.3,60 		"/>
		<polygon class="st1" points="76.7,64.6 96.4,69.3 85.3,60 		"/>
		<polygon class="st1" points="96.4,69.3 100.1,64.6 85.3,60 		"/>
		<polygon class="st1" points="60.7,62.3 63.2,61.2 57,61.2 		"/>
		<polygon class="st1" points="57,61.2 63.2,61.2 58.2,58.8 		"/>
		<polygon class="st1" points="10.3,65.2 18.9,63.5 6.6,60 		"/>
		<polygon class="st1" points="-10.7,64.1 9,65.8 6.6,60 		"/>
		<polygon class="st1" points="18.9,63.5 23.8,61.7 17.6,57.7 		"/>
		<polygon class="st1" points="6.6,60 18.9,63.5 17.6,57.7 		"/>
		<polygon class="st1" points="76.7,61.2 85.3,60 76.7,58.3 		"/>
		<polygon class="st1" points="32.4,63.5 48.4,61.2 47.2,59.4 		"/>
		<polygon class="st1" points="32.4,63.5 47.2,59.4 39.8,57.1 		"/>
		<polygon class="st1" points="73,62.3 76.7,61.2 76.7,58.3 		"/>
		<polygon class="st1" points="85.3,60 100.1,64.6 86.5,58.8 		"/>
		<polygon class="st1" points="103.8,62.9 107.4,64.1 107.4,57 		"/>
		<polygon class="st1" points="100.1,64.6 103.8,62.9 100.1,57.1 		"/>
		<polygon class="st1" points="63.2,61.2 73,62.3 66.8,57.1 		"/>
		<polygon class="st1" points="6.6,60 17.6,57.7 9,57.7 		"/>
		<polygon class="st1" points="47.2,59.4 57,61.2 58.2,58.8 		"/>
		<polygon class="st1" points="48.4,61.2 57,61.2 47.2,59.4 		"/>
		<polygon class="st1" points="17.6,57.7 23.8,61.7 20.1,56.5 		"/>
		<polygon class="st1" points="100.1,57.1 103.8,62.9 107.4,57 		"/>
		<polygon class="st1" points="86.5,58.8 100.1,64.6 100.1,57.1 		"/>
		<polygon class="st1" points="58.2,58.8 63.2,61.2 66.8,57.1 		"/>
		<polygon class="st1" points="73,62.3 76.7,58.3 66.8,57.1 		"/>
		<polygon class="st1" points="85.3,60 86.5,58.8 76.7,58.3 		"/>
		<polygon class="st1" points="-10.7,64.1 6.6,60 -2.1,55.9 		"/>
		<polygon class="st1" points="-10.7,57 -10.7,64.1 -2.1,55.9 		"/>
		<polygon class="st1" points="58.2,58.8 66.8,57.1 63.2,55.9 		"/>
		<polygon class="st1" points="66.8,57.1 76.7,58.3 73,55.9 		"/>
		<polygon class="st1" points="23.8,61.7 32.4,63.5 31.2,55.9 		"/>
		<polygon class="st1" points="32.4,63.5 39.8,57.1 31.2,55.9 		"/>
		<polygon class="st1" points="6.6,60 9,57.7 2.9,55.4 		"/>
		<polygon class="st1" points="-2.1,55.9 6.6,60 2.9,55.4 		"/>
		<polygon class="st1" points="76.7,58.3 86.5,58.8 81.6,55.4 		"/>
		<polygon class="st1" points="20.1,56.5 23.8,61.7 31.2,55.9 		"/>
		<polygon class="st1" points="73,55.9 76.7,58.3 81.6,55.4 		"/>
		<polygon class="st1" points="100.1,57.1 107.4,57 106.2,53 		"/>
		<polygon class="st1" points="20.1,56.5 31.2,55.9 21.3,53.6 		"/>
		<polygon class="st1" points="31.2,55.9 31.2,54.2 21.3,53.6 		"/>
		<polygon class="st1" points="31.2,55.9 39.8,57.1 31.2,54.2 		"/>
		<polygon class="st1" points="76.7,51.9 81.6,55.4 80.4,51.9 		"/>
		<polygon class="st1" points="73,55.9 81.6,55.4 76.7,51.9 		"/>
		<polygon class="st1" points="66.8,57.1 73,55.9 63.2,53 		"/>
		<polygon class="st1" points="63.2,55.9 66.8,57.1 63.2,53 		"/>
		<polygon class="st1" points="-2.1,55.9 2.9,55.4 0.4,51.3 		"/>
		<polygon class="st1" points="86.5,58.8 100.1,57.1 95.1,51.3 		"/>
		<polygon class="st1" points="81.6,55.4 86.5,58.8 95.1,51.3 		"/>
		<polygon class="st1" points="100.1,57.1 106.2,53 95.1,51.3 		"/>
		<polygon class="st1" points="9,57.7 20.1,56.5 21.3,53.6 		"/>
		<polygon class="st1" points="9,57.7 17.6,57.7 20.1,56.5 		"/>
		<polygon class="st1" points="28.7,50.1 31.2,54.2 31.2,50.1 		"/>
		<polygon class="st1" points="21.3,53.6 31.2,54.2 28.7,50.1 		"/>
		<polygon class="st1" points="63.2,53 73,55.9 65.6,50.7 		"/>
		<polygon class="st1" points="73,55.9 76.7,51.9 65.6,50.7 		"/>
		<polygon class="st1" points="-10.7,57 -2.1,55.9 -10.7,49.8 		"/>
		<polygon class="st1" points="76.7,51.9 80.4,51.9 77.9,49.6 		"/>
		<polygon class="st1" points="21.3,53.6 28.7,50.1 20.1,49.6 		"/>
		<polygon class="st1" points="63.2,53 65.6,50.7 59.5,49.6 		"/>
		<polygon class="st1" points="47.2,59.4 63.2,53 59.5,49.6 		"/>
		<polygon class="st1" points="-2.1,55.9 0.4,51.3 -10.7,49.8 		"/>
		<polygon class="st1" points="95.1,51.3 106.2,53 107.4,49.8 		"/>
		<polygon class="st1" points="80.4,51.9 81.6,55.4 95.1,51.3 		"/>
		<polygon class="st1" points="47.2,59.4 58.2,58.8 63.2,53 		"/>
		<polygon class="st1" points="58.2,58.8 63.2,55.9 63.2,53 		"/>
		<polygon class="st1" points="2.9,55.4 9,57.7 21.3,53.6 		"/>
		<polygon class="st1" points="59.5,49.6 65.6,50.7 60.7,47.8 		"/>
		<polygon class="st1" points="80.4,51.9 95.1,51.3 90.2,47.8 		"/>
		<polygon class="st1" points="39.8,57.1 47.2,59.4 59.5,49.6 		"/>
		<polygon class="st1" points="77.9,49.6 80.4,51.9 84.1,47.2 		"/>
		<polygon class="st1" points="80.4,51.9 90.2,47.8 84.1,47.2 		"/>
		<polygon class="st1" points="65.6,50.7 76.7,51.9 77.9,49.6 		"/>
		<polygon class="st1" points="2.9,55.4 21.3,53.6 20.1,49.6 		"/>
		<polygon class="st1" points="0.4,51.3 2.9,55.4 20.1,49.6 		"/>
		<polygon class="st1" points="31.2,54.2 39.8,57.1 31.2,50.1 		"/>
		<polygon class="st1" points="59.5,49.6 60.7,47.8 57,46.7 		"/>
		<polygon class="st1" points="28.7,50.1 31.2,50.1 29.9,46.1 		"/>
		<polygon class="st1" points="61.9,45.5 60.7,47.8 68.1,45.5 		"/>
		<polygon class="st1" points="60.7,47.8 65.6,50.7 68.1,45.5 		"/>
		<polygon class="st1" points="65.6,50.7 70.5,45.5 68.1,45.5 		"/>
		<polygon class="st1" points="70.5,45.5 77.9,49.6 73,45.5 		"/>
		<polygon class="st1" points="57,46.7 60.7,47.8 61.9,45.5 		"/>
		<polygon class="st1" points="65.6,50.7 77.9,49.6 70.5,45.5 		"/>
		<polygon class="st1" points="84.1,47.2 90.2,47.8 89,45.5 		"/>
		<polygon class="st1" points="84.1,47.2 89,45.5 82.8,45.5 		"/>
		<polygon class="st1" points="77.9,49.6 84.1,47.2 82.8,45.5 		"/>
		<polygon class="st1" points="20.1,49.6 28.7,50.1 20.1,46.1 		"/>
		<polygon class="st1" points="28.7,50.1 29.9,46.1 20.1,46.1 		"/>
		<polygon class="st1" points="0.4,51.3 20.1,49.6 4.1,44.9 		"/>
		<polygon class="st1" points="73,45.5 77.9,49.6 82.8,45.5 		"/>
		<polygon class="st1" points="31.2,50.1 59.5,49.6 57,46.7 		"/>
		<polygon class="st1" points="31.2,50.1 39.8,57.1 59.5,49.6 		"/>
		<polygon class="st1" points="61.9,45.5 68.1,45.5 61.9,44.3 		"/>
		<polygon class="st1" points="20.1,49.6 20.1,46.1 4.1,44.9 		"/>
		<polygon class="st1" points="20.1,46.1 29.9,46.1 28.7,43.8 		"/>
		<polygon class="st1" points="57,46.7 61.9,45.5 61.9,44.3 		"/>
		<polygon class="st1" points="-10.7,49.8 0.4,51.3 4.1,44.9 		"/>
		<polygon class="st1" points="95.1,51.3 107.4,49.8 90.2,47.8 		"/>
		<polygon class="st1" points="-10.7,49.8 4.1,44.9 -10.7,42.5 		"/>
		<polygon class="st1" points="20.1,46.1 28.7,43.8 20.1,43.2 		"/>
		<polygon class="st1" points="82.8,45.5 89,45.5 89,43.2 		"/>
		<polygon class="st1" points="106.2,53 107.4,57 107.4,49.8 		"/>
		<polygon class="st1" points="90.2,47.8 107.4,49.8 107.4,42.5 		"/>
		<polygon class="st1" points="29.9,46.1 57,46.7 41,40.9 		"/>
		<polygon class="st1" points="82.8,45.5 89,43.2 84.1,40.9 		"/>
		<polygon class="st1" points="89,43.2 89,42.6 84.1,40.9 		"/>
		<polygon class="st1" points="61.9,44.3 68.1,45.5 65.6,40.9 		"/>
		<polygon class="st1" points="107.4,42.5 106.2,41.4 103.8,40.9 		"/>
		<polygon class="st1" points="70.5,45.5 73,45.5 73,40.9 		"/>
		<polygon class="st1" points="89,42.6 89,43.2 91.5,40.9 		"/>
		<polygon class="st1" points="89,45.5 90.2,47.8 107.4,42.5 		"/>
		<polygon class="st1" points="4.1,44.9 20.1,46.1 20.1,43.2 		"/>
		<polygon class="st1" points="31.2,50.1 57,46.7 29.9,46.1 		"/>
		<polygon class="st1" points="91.5,40.9 89,43.2 100.1,40.3 		"/>
		<polygon class="st1" points="89,43.2 89,45.5 100.1,40.3 		"/>
		<polygon class="st1" points="89,45.5 103.8,40.9 100.1,40.3 		"/>
		<polygon class="st1" points="68.1,45.5 70.5,45.5 68.1,40.3 		"/>
		<polygon class="st1" points="65.6,40.9 68.1,45.5 68.1,40.3 		"/>
		<polygon class="st1" points="70.5,45.5 73,40.9 68.1,40.3 		"/>
		<polygon class="st1" points="28.7,43.8 29.9,46.1 41,40.9 		"/>
		<polygon class="st1" points="89,45.5 107.4,42.5 103.8,40.9 		"/>
		<polygon class="st1" points="73,45.5 82.8,45.5 73,40.9 		"/>
		<polygon class="st1" points="68.1,40.3 73,40.9 70.5,39.7 		"/>
		<polygon class="st1" points="92.7,40.3 91.5,40.9 100.1,40.3 		"/>
		<polygon class="st1" points="4.1,44.9 20.1,43.2 16.4,40.3 		"/>
		<polygon class="st1" points="89,42.6 91.5,40.9 84.1,40.9 		"/>
		<polygon class="st1" points="73,40.9 82.8,45.5 84.1,40.9 		"/>
		<polygon class="st1" points="4.1,44.9 16.4,40.3 12.7,39.1 		"/>
		<polygon class="st1" points="84.1,40.9 91.5,40.9 86.5,38.5 		"/>
		<polygon class="st1" points="91.5,40.9 92.7,40.3 87.8,38 		"/>
		<polygon class="st1" points="86.5,38.5 91.5,40.9 87.8,38 		"/>
		<polygon class="st1" points="68.1,40.3 70.5,39.7 64.4,38 		"/>
		<polygon class="st1" points="65.6,40.9 68.1,40.3 64.4,38 		"/>
		<polygon class="st1" points="64.4,38 70.5,39.7 71.8,36.8 		"/>
		<polygon class="st1" points="70.5,39.7 73,40.9 71.8,36.8 		"/>
		<polygon class="st1" points="41,40.9 61.9,44.3 45.9,36.8 		"/>
		<polygon class="st1" points="57,46.7 61.9,44.3 41,40.9 		"/>
		<polygon class="st1" points="20.1,43.2 28.7,43.8 22.6,35.6 		"/>
		<polygon class="st1" points="16.4,40.3 20.1,43.2 22.6,35.6 		"/>
		<polygon class="st1" points="103.8,40.9 106.2,41.4 107.4,35.3 		"/>
		<polygon class="st1" points="61.9,44.3 65.6,40.9 64.4,38 		"/>
		<polygon class="st1" points="41,40.9 45.9,36.8 41,35.1 		"/>
		<polygon class="st1" points="100.1,40.3 103.8,40.9 107.4,35.3 		"/>
		<polygon class="st1" points="12.7,39.1 16.4,40.3 22.6,35.6 		"/>
		<polygon class="st1" points="73,40.9 84.1,40.9 71.8,36.8 		"/>
		<polygon class="st1" points="84.1,40.9 86.5,38.5 71.8,36.8 		"/>
		<polygon class="st1" points="61.9,44.3 64.4,38 45.9,36.8 		"/>
		<polygon class="st1" points="100.1,40.3 107.4,35.3 105,34.5 		"/>
		<polygon class="st1" points="87.8,38 92.7,40.3 91.5,34.5 		"/>
		<polygon class="st1" points="87.8,35.1 87.8,38 91.5,34.5 		"/>
		<polygon class="st1" points="86.5,38.5 87.8,38 87.8,35.1 		"/>
		<polygon class="st1" points="41,40.9 41,35.1 33.6,33.9 		"/>
		<polygon class="st1" points="28.7,43.8 41,40.9 33.6,33.9 		"/>
		<polygon class="st1" points="22.6,35.6 28.7,43.8 33.6,33.9 		"/>
		<polygon class="st1" points="41,35.1 45.9,36.8 42.2,33.9 		"/>
		<polygon class="st1" points="91.5,34.5 100.1,40.3 105,34.5 		"/>
		<polygon class="st1" points="92.7,40.3 100.1,40.3 91.5,34.5 		"/>
		<polygon class="st1" points="-10.7,42.5 12.7,39.1 -10.7,35.3 		"/>
		<polygon class="st1" points="-10.7,42.5 4.1,44.9 12.7,39.1 		"/>
		<polygon class="st1" points="26.2,32.7 33.6,33.9 32.4,32.7 		"/>
		<polygon class="st1" points="64.4,38 71.8,36.8 64.4,32.7 		"/>
		<polygon class="st1" points="22.6,35.6 33.6,33.9 26.2,32.7 		"/>
		<polygon class="st1" points="87.8,35.1 91.5,34.5 86.5,32.7 		"/>
		<polygon class="st1" points="71.8,36.8 86.5,38.5 87.8,35.1 		"/>
		<polygon class="st1" points="106.2,41.4 107.4,42.5 107.4,35.3 		"/>
		<polygon class="st1" points="71.8,36.8 87.8,35.1 81.6,31.6 		"/>
		<polygon class="st1" points="87.8,35.1 86.5,32.7 81.6,31.6 		"/>
		<polygon class="st1" points="41,35.1 42.2,33.9 33.6,33.9 		"/>
		<polygon class="st1" points="26.2,32.7 32.4,32.7 28.7,31 		"/>
		<polygon class="st1" points="45.9,36.8 64.4,38 64.4,32.7 		"/>
		<polygon class="st1" points="28.7,31 32.4,32.7 32.4,30.4 		"/>
		<polygon class="st1" points="86.5,32.7 91.5,34.5 90.2,30.4 		"/>
		<polygon class="st1" points="12.7,39.1 22.6,35.6 15.2,30.4 		"/>
		<polygon class="st1" points="28.7,31 32.4,30.4 32.4,29.8 		"/>
		<polygon class="st1" points="22.6,35.6 26.2,32.7 15.2,30.4 		"/>
		<polygon class="st1" points="91.5,34.5 105,34.5 103.8,31 		"/>
		<polygon class="st1" points="105,34.5 107.4,35.3 103.8,31 		"/>
		<polygon class="st1" points="33.6,33.9 42.2,33.9 32.4,32.7 		"/>
		<polygon class="st1" points="32.4,32.7 42.2,33.9 32.4,30.4 		"/>
		<polygon class="st1" points="81.6,31.6 86.5,32.7 90.2,30.4 		"/>
		<polygon class="st1" points="91.5,34.5 103.8,31 90.2,30.4 		"/>
		<polygon class="st1" points="64.4,32.7 71.8,36.8 81.6,31.6 		"/>
		<polygon class="st1" points="90.2,30.4 103.8,31 97.6,28.1 		"/>
		<polygon class="st1" points="91.5,28.7 90.2,30.4 97.6,28.1 		"/>
		<polygon class="st1" points="42.2,33.9 45.9,36.8 49.6,28.1 		"/>
		<polygon class="st1" points="45.9,36.8 64.4,32.7 49.6,28.1 		"/>
		<polygon class="st1" points="64.4,32.7 81.6,31.6 75.5,27.5 		"/>
		<polygon class="st1" points="81.6,31.6 79.1,28.1 75.5,27.5 		"/>
		<polygon class="st1" points="103.8,31 107.4,28.2 97.6,28.1 		"/>
		<polygon class="st1" points="81.6,31.6 90.2,30.4 79.1,28.1 		"/>
		<polygon class="st1" points="103.8,31 107.4,35.3 107.4,28.2 		"/>
		<polygon class="st1" points="32.4,30.4 42.2,33.9 32.4,29.8 		"/>
		<polygon class="st1" points="26.2,32.7 28.7,31 15.2,30.4 		"/>
		<polygon class="st1" points="-10.7,35.3 12.7,39.1 15.2,30.4 		"/>
		<polygon class="st1" points="15.2,30.4 28.7,31 21.3,25.8 		"/>
		<polygon class="st1" points="12.7,28.1 15.2,30.4 21.3,25.8 		"/>
		<polygon class="st1" points="-10.7,35.3 15.2,30.4 12.7,28.1 		"/>
		<polygon class="st1" points="32.4,29.8 42.2,33.9 49.6,28.1 		"/>
		<polygon class="st1" points="90.2,30.4 91.5,28.7 79.1,28.1 		"/>
		<polygon class="st1" points="-10.7,28.2 -10.7,35.3 12.7,28.1 		"/>
		<polygon class="st1" points="-10.7,28.2 12.7,28.1 -0.8,24.6 		"/>
		<polygon class="st1" points="64.4,32.7 75.5,27.5 66.8,24.6 		"/>
		<polygon class="st1" points="21.3,25.8 32.4,29.8 32.4,25.2 		"/>
		<polygon class="st1" points="28.7,31 32.4,29.8 21.3,25.8 		"/>
		<polygon class="st1" points="79.1,28.1 86.5,24 82.8,24 		"/>
		<polygon class="st1" points="79.1,28.1 91.5,28.7 86.5,24 		"/>
		<polygon class="st1" points="12.7,28.1 21.3,25.8 20.1,24.6 		"/>
		<polygon class="st1" points="91.5,28.7 97.6,28.1 93.9,23.5 		"/>
		<polygon class="st1" points="86.5,24 91.5,28.7 93.9,23.5 		"/>
		<polygon class="st1" points="75.5,27.5 79.1,28.1 82.8,24 		"/>
		<polygon class="st1" points="49.6,28.1 64.4,32.7 66.8,24.6 		"/>
		<polygon class="st1" points="32.4,29.8 49.6,28.1 32.4,25.2 		"/>
		<polygon class="st1" points="21.3,25.8 32.4,25.2 23.8,22.9 		"/>
		<polygon class="st1" points="20.1,24.6 21.3,25.8 23.8,22.9 		"/>
		<polygon class="st1" points="-0.8,24.6 12.7,28.1 9,22.3 		"/>
		<polygon class="st1" points="20.1,24.6 23.8,22.9 22.6,21.7 		"/>
		<polygon class="st1" points="12.7,28.1 20.1,24.6 9,22.3 		"/>
		<polygon class="st1" points="9,22.3 20.1,24.6 13.9,21.1 		"/>
		<polygon class="st1" points="-10.7,28.2 -0.8,24.6 -10.7,21 		"/>
		<polygon class="st1" points="97.6,28.1 107.4,28.2 107.4,21 		"/>
		<polygon class="st1" points="93.9,23.5 97.6,28.1 107.4,21 		"/>
		<polygon class="st1" points="20.1,24.6 22.6,21.7 13.9,21.1 		"/>
		<polygon class="st1" points="32.4,25.2 49.6,28.1 38.5,21.1 		"/>
		<polygon class="st1" points="66.8,24.6 75.5,27.5 82.8,24 		"/>
		<polygon class="st1" points="22.6,21.7 23.8,22.9 23.8,19.4 		"/>
		<polygon class="st1" points="13.9,21.1 22.6,21.7 20.1,18.2 		"/>
		<polygon class="st1" points="22.6,21.7 23.8,19.4 20.1,18.2 		"/>
		<polygon class="st1" points="38.5,21.1 49.6,28.1 41,19.4 		"/>
		<polygon class="st1" points="23.8,22.9 38.5,21.1 23.8,19.4 		"/>
		<polygon class="st1" points="23.8,22.9 32.4,25.2 38.5,21.1 		"/>
		<polygon class="st1" points="38.5,21.1 41,19.4 38.5,17.1 		"/>
		<polygon class="st1" points="41,19.4 49.6,28.1 47.2,17.1 		"/>
		<polygon class="st1" points="23.8,19.4 38.5,21.1 34.9,16.5 		"/>
		<polygon class="st1" points="38.5,21.1 38.5,17.1 34.9,16.5 		"/>
		<polygon class="st1" points="49.6,28.1 66.8,24.6 47.2,17.1 		"/>
		<polygon class="st1" points="82.8,24 86.5,24 89,15.9 		"/>
		<polygon class="st1" points="86.5,24 93.9,23.5 89,15.9 		"/>
		<polygon class="st1" points="41,19.4 47.2,17.1 38.5,17.1 		"/>
		<polygon class="st1" points="89,15.9 93.9,23.5 92.7,14.8 		"/>
		<polygon class="st1" points="93.9,23.5 101.3,14.8 92.7,14.8 		"/>
		<polygon class="st1" points="93.9,23.5 107.4,21 101.3,14.8 		"/>
		<polygon class="st1" points="-0.8,24.6 9,22.3 -10.7,21 		"/>
		<polygon class="st1" points="89,15.9 92.7,14.8 90.2,14.2 		"/>
		<polygon class="st1" points="101.3,14.8 107.4,21 107.4,13.8 		"/>
		<polygon class="st1" points="20.1,18.2 23.8,19.4 26.2,13.6 		"/>
		<polygon class="st1" points="21.3,14.2 20.1,18.2 26.2,13.6 		"/>
		<polygon class="st1" points="23.8,19.4 34.9,16.5 26.2,13.6 		"/>
		<polygon class="st1" points="92.7,14.8 101.3,14.8 95.1,13.6 		"/>
		<polygon class="st1" points="9,22.3 13.9,21.1 10.3,13 		"/>
		<polygon class="st1" points="13.9,21.1 20.1,18.2 10.3,13 		"/>
		<polygon class="st1" points="9,22.3 10.3,13 5.3,12.4 		"/>
		<polygon class="st1" points="-10.7,21 9,22.3 5.3,12.4 		"/>
		<polygon class="st1" points="-10.7,13.8 -10.7,21 5.3,12.4 		"/>
		<polygon class="st1" points="89,15.9 90.2,14.2 86.5,12.4 		"/>
		<polygon class="st1" points="38.5,17.1 47.2,17.1 44.7,12.4 		"/>
		<polygon class="st1" points="20.1,18.2 21.3,14.2 10.3,13 		"/>
		<polygon class="st1" points="90.2,14.2 92.7,14.8 95.1,13.6 		"/>
		<polygon class="st1" points="44.7,12.4 47.2,17.1 54.5,11.3 		"/>
		<polygon class="st1" points="47.2,17.1 66.8,24.6 54.5,11.3 		"/>
		<polygon class="st1" points="34.9,16.5 38.5,17.1 44.7,12.4 		"/>
		<polygon class="st1" points="66.8,24.6 82.8,24 89,15.9 		"/>
		<polygon class="st1" points="95.1,13.6 101.3,14.8 97.6,9.5 		"/>
		<polygon class="st1" points="5.3,12.4 10.3,13 10.3,9.5 		"/>
		<polygon class="st1" points="-10.7,13.8 5.3,12.4 -5.7,9.5 		"/>
		<polygon class="st1" points="90.2,14.2 95.1,13.6 86.5,12.4 		"/>
		<polygon class="st1" points="44.7,12.4 54.5,11.3 48.4,9 		"/>
		<polygon class="st1" points="101.3,14.8 107.4,13.8 100.1,9 		"/>
		<polygon class="st1" points="97.6,9.5 101.3,14.8 100.1,9 		"/>
		<polygon class="st1" points="66.8,24.6 89,15.9 86.5,12.4 		"/>
		<polygon class="st1" points="100.1,9 107.4,13.8 103.8,8.4 		"/>
		<polygon class="st1" points="86.5,12.4 95.1,13.6 87.8,9 		"/>
		<polygon class="st1" points="95.1,13.6 97.6,9.5 87.8,9 		"/>
		<polygon class="st1" points="10.3,9.5 21.3,14.2 13.9,7.8 		"/>
		<polygon class="st1" points="10.3,13 21.3,14.2 10.3,9.5 		"/>
		<polygon class="st1" points="66.8,24.6 86.5,12.4 54.5,11.3 		"/>
		<polygon class="st1" points="26.2,13.6 34.9,16.5 44.7,12.4 		"/>
		<polygon class="st1" points="103.8,8.4 107.4,13.8 107.4,6.6 		"/>
		<polygon class="st1" points="-10.7,13.8 -5.7,9.5 -10.7,6.6 		"/>
		<polygon class="st1" points="45.9,6.1 48.4,9 48.4,6.1 		"/>
		<polygon class="st1" points="21.3,14.2 26.2,13.6 22.6,6.1 		"/>
		<polygon class="st1" points="13.9,7.8 21.3,14.2 22.6,6.1 		"/>
		<polygon class="st1" points="54.5,11.3 86.5,12.4 70.5,5.5 		"/>
		<polygon class="st1" points="63.2,6.1 54.5,11.3 70.5,5.5 		"/>
		<polygon class="st1" points="-5.7,9.5 5.3,12.4 10.3,9.5 		"/>
		<polygon class="st1" points="10.3,9.5 13.9,7.8 10.3,4.9 		"/>
		<polygon class="st1" points="6.6,4.9 10.3,9.5 10.3,4.9 		"/>
		<polygon class="st1" points="13.9,7.8 15.2,4.9 10.3,4.9 		"/>
		<polygon class="st1" points="-5.7,9.5 10.3,9.5 6.6,4.9 		"/>
		<polygon class="st1" points="13.9,7.8 22.6,6.1 18.9,4.9 		"/>
		<polygon class="st1" points="15.2,4.9 13.9,7.8 18.9,4.9 		"/>
		<polygon class="st1" points="86.5,12.4 87.8,9 70.5,5.5 		"/>
		<polygon class="st1" points="48.4,9 63.2,6.1 48.4,6.1 		"/>
		<polygon class="st1" points="44.7,12.4 48.4,9 45.9,6.1 		"/>
		<polygon class="st1" points="48.4,9 54.5,11.3 63.2,6.1 		"/>
		<polygon class="st1" points="-10.7,6.6 -5.7,9.5 -5.7,3.2 		"/>
		<polygon class="st1" points="26.2,13.6 45.9,6.1 22.6,6.1 		"/>
		<polygon class="st1" points="26.2,13.6 44.7,12.4 45.9,6.1 		"/>
		<polygon class="st1" points="63.2,6.1 70.5,5.5 63.2,2.6 		"/>
		<polygon class="st1" points="-5.7,9.5 6.6,4.9 -5.7,3.2 		"/>
		<polygon class="st1" points="45.9,6.1 48.4,6.1 49.6,2 		"/>
		<polygon class="st1" points="63.2,2.6 70.5,5.5 65.6,2 		"/>
		<polygon class="st1" points="71.8,1.4 70.5,5.5 73,1.4 		"/>
		<polygon class="st1" points="70.5,5.5 87.8,9 84.1,1.4 		"/>
		<polygon class="st1" points="65.6,2 70.5,5.5 71.8,1.4 		"/>
		<polygon class="st1" points="22.6,6.1 45.9,6.1 36.1,1.4 		"/>
		<polygon class="st1" points="63.2,6.1 63.2,2.6 49.6,2 		"/>
		<polygon class="st1" points="48.4,6.1 63.2,6.1 49.6,2 		"/>
		<polygon class="st1" points="45.9,6.1 49.6,2 36.1,1.4 		"/>
		<polygon class="st1" points="63.2,2.6 65.6,2 65.5,1 		"/>
		<polygon class="st1" points="65.6,2 71.8,1.4 65.5,1 		"/>
		<polygon class="st1" points="71.8,1.4 73,1.4 65.5,1 		"/>
		<polygon class="st1" points="87.8,9 97.6,9.5 95.9,1 		"/>
		<polygon class="st1" points="97.6,9.5 100.1,9 95.9,1 		"/>
		<polygon class="st1" points="103.8,8.4 107.4,6.6 95.9,1 		"/>
		<polygon class="st1" points="100.1,9 103.8,8.4 95.9,1 		"/>
		<polygon class="st1" points="84.1,1.4 87.8,9 95.9,1 		"/>
		<polygon class="st1" points="73,1.4 70.5,5.5 80.7,1 		"/>
		<polygon class="st1" points="70.5,5.5 84.1,1.4 80.7,1 		"/>
		<polygon class="st1" points="65.5,1 73,1.4 80.7,1 		"/>
		<polygon class="st1" points="84.1,1.4 95.9,1 80.7,1 		"/>
		<polygon class="st1" points="-10.7,6.6 -5.7,3.2 -10.7,1 		"/>
		<polygon class="st1" points="-10.7,1 -5.7,3.2 4.6,1 		"/>
		<polygon class="st1" points="-5.7,3.2 6.6,4.9 4.6,1 		"/>
		<polygon class="st1" points="6.6,4.9 10.3,4.9 4.6,1 		"/>
		<polygon class="st1" points="18.9,4.9 22.6,6.1 19.8,1 		"/>
		<polygon class="st1" points="15.2,4.9 18.9,4.9 19.8,1 		"/>
		<polygon class="st1" points="4.6,1 10.3,4.9 19.8,1 		"/>
		<polygon class="st1" points="10.3,4.9 15.2,4.9 19.8,1 		"/>
		<polygon class="st1" points="19.8,1 22.6,6.1 35,1 		"/>
		<polygon class="st1" points="22.6,6.1 36.1,1.4 35,1 		"/>
		<polygon class="st1" points="63.2,2.6 65.5,1 50.2,1 		"/>
		<polygon class="st1" points="49.6,2 63.2,2.6 50.2,1 		"/>
		<polygon class="st1" points="35,1 36.1,1.4 50.2,1 		"/>
		<polygon class="st1" points="36.1,1.4 49.6,2 50.2,1 		"/>
		<polygon class="st1" points="95.9,1 107.4,6.6 107.4,1 		"/>
	</g>
	<use xlink:href="#SVGID_1_"  style="overflow:visible;fill:none;stroke:#FFFFFF;stroke-miterlimit:10;"/>
</g>
</svg>
