<?xml version="1.0" encoding="utf-8"?>
<!-- Generator: Adobe Illustrator 25.3.1, SVG Export Plug-In . SVG Version: 6.00 Build 0)  -->
<svg version="1.1" id="katman_1" xmlns="http://www.w3.org/2000/svg" xmlns:xlink="http://www.w3.org/1999/xlink" x="0px" y="0px"
	 viewBox="0 0 100 100" style="enable-background:new 0 0 100 100;" xml:space="preserve">
<style type="text/css">
	.st0{fill:#FFFFFF;}
</style>
<g>
	<path class="st0" d="M55.9,56.7c0.5-0.1,1.2-0.4,1.9-0.8c0.4-0.3,0.9-0.6,1.3-1c1.1-1,2-2.5,2-4.5h-1.3h-0.6h-0.7
		c0,0.3,0,0.5-0.1,0.7c-0.1,0.5-0.3,0.9-0.6,1.3c-0.4,0.5-0.9,0.9-1.3,1.1c-0.5,0.3-0.9,0.4-1.1,0.5h-2.5h-2.5v1.3v0.2v1.2h5.2
		C55.7,56.8,55.8,56.8,55.9,56.7z"/>
	<path class="st0" d="M70.6,71.3c-0.6-2-2.7-3.1-4.7-2.5l-0.2,0.1l-1.3-4.9V45.5h4.7c0.7,0,1.3-0.6,1.3-1.3V31.1c0-2.4-1.1-4.5-3-6
		c-1.9-1.4-4.3-1.9-6.5-1.2l-6.8,1.9l-1.1-0.9c1.8-3.2,2.7-6.8,2.7-10.5v-1.7c0-6.2-5.1-11.3-11.3-11.3c-6.2,0-11.3,5.1-11.3,11.3
		v4.5c0,4.8,3.7,8.8,8.4,9.2l1.6,3.7L33.8,34c-4.2,1.7-6.9,5.8-6.9,10.3v12.6c0,0.7,0.6,1.3,1.3,1.3h10.1v5.4L36,66.9
		c-2.4,3.5-3.8,7.6-4.1,11.9l-1.9,0.5c0,0,0,0,0,0c-1,0.3-1.8,1-2.2,1.9c-0.5,0.9-0.6,1.9-0.3,2.9c0.8,2.4,2.8,4,5.2,4.3l2.1,7.8
		c0,0,0,0.1,0,0.1c0,0,0,0.1,0,0.1c0,0,0,0.1,0.1,0.1c0,0,0,0.1,0.1,0.1c0,0,0,0.1,0.1,0.1c0,0,0,0.1,0.1,0.1c0,0,0.1,0.1,0.1,0.1
		c0,0,0,0,0.1,0.1c0,0,0.1,0,0.1,0.1c0,0,0.1,0,0.1,0.1c0,0,0.1,0,0.1,0.1c0,0,0.1,0,0.1,0c0,0,0.1,0,0.1,0c0,0,0.1,0,0.1,0
		c0.1,0,0.1,0,0.2,0h29c0.7,0,1.2-0.5,1.3-1.1l1.4-9.6c0.4-2.6,0.4-5.3,0.1-7.9c1-0.6,1.8-1.4,2.3-2.5C71,74.5,71.1,72.9,70.6,71.3z
		 M66.2,76.4c-0.1,0.1-0.3,0.1-0.4,0.2L65,76.8l0,0l-14.2,4.3l0.4,1.3l0.4,1.3l13.8-4.2c0,0.4,0.1,0.9,0.1,1.3c0,0.4,0,0.9,0,1.3
		c0,0.9,0,1.8-0.1,2.7c0,0.4-0.1,0.9-0.2,1.3L64,94.5H37.2h-0.1l-1.7-6.4l0.4-0.1l8.6-2.3L44,84.5l-0.3-1.3l-8.4,2.2l-0.5,0.1
		l-0.1,0c0,0,0,0-0.1,0c-0.2,0.1-0.4,0.1-0.6,0.1c-0.1,0-0.2,0-0.3,0c0,0,0,0,0,0c-0.3,0-0.7,0-1-0.1c-1.1-0.3-2.1-1.2-2.5-2.4
		C30,83,30,82.7,30.2,82.4c0.1-0.3,0.4-0.5,0.7-0.6l1.1-0.3l1.3-0.4l1.3-0.4l29.3-8.6l1.3-0.4l1.3-0.4l0.3-0.1c0,0,0,0,0,0
		c0.6-0.2,1.2,0.1,1.4,0.7c0.3,0.9,0.2,1.9-0.2,2.7c-0.1,0.3-0.3,0.5-0.5,0.7C67.1,75.9,66.7,76.2,66.2,76.4z M40.7,64.8
		c0.2-0.2,0.2-0.5,0.2-0.8v-5.8v-1.3v-0.6c0.9,0.3,2,0.5,3,0.5H47v-1.2v-1.5h-1.3h-1.7c-1.1,0-2.1-0.2-3-0.6
		c-0.5-0.2-0.9-0.5-1.3-0.8c-0.3-0.2-0.6-0.5-0.9-0.8c-1.4-1.3-2.2-3.2-2.2-5.3V45v-1.3h-1.3h0h-1.3v3.1c0,3.5,1.8,6.5,4.4,8.3v0.6
		h-8.8V44.3c0-3.5,2.1-6.6,5.3-7.9l10.7-4.4c0.3-0.1,0.6-0.4,0.7-0.7c0.1-0.3,0.1-0.7,0-1l-2.5-5.7c-0.2-0.5-0.7-0.8-1.2-0.8
		c-3.7,0-6.6-3-6.6-6.6v-4.5c0-4.8,3.9-8.7,8.7-8.7c4.8,0,8.7,3.9,8.7,8.7v1.7c0,3.6-1,7-2.9,10c-0.4,0.6-0.2,1.3,0.3,1.7l2.5,2.1
		c0.3,0.3,0.8,0.4,1.2,0.3l7.4-2.1c1.5-0.4,3-0.1,4.2,0.8c1.2,0.9,1.9,2.3,1.9,3.9v11.7h-3.3v-5.6h-1.3h0h-1.3V38v4.8v1.3v1.3v18.6
		c0,0.1,0,0.2,0,0.3l1.3,5.2L34.7,78c0.4-3.4,1.6-6.7,3.5-9.6L40.7,64.8z"/>
</g>
</svg>
