<svg xmlns="http://www.w3.org/2000/svg" width="27.264" height="23.157" viewBox="0 0 27.264 23.157">
  <g id="Group_670" data-name="Group 670" transform="translate(0)">
    <path id="Path_486" data-name="Path 486" d="M842.748,865.081c-.043.067-.086.136-.131.2a6.117,6.117,0,0,1-.442.591c-.075.009-.154.017-.231.025-.135.015-.269.031-.409.045.071-.132.138-.274.205-.419.089-.192.175-.392.255-.6.014-.039.03-.079.044-.12.251-.026.494-.058.737-.091.019-.255.04-.529.064-.844q-.251.031-.506.056l.04-.143q-.347-.007-.7-.029c-.018.078-.036.158-.055.235-.2.013-.408.021-.612.031-.147.008-.292.018-.441.023.024-.125.048-.253.072-.383q-.326-.039-.654-.089c-.016.136-.031.268-.047.4,0,.029-.007.059-.011.088h0c-.119,0-.239,0-.357,0l-.331,0H839.2c-.025-.206-.05-.421-.075-.641-.236-.048-.471-.1-.706-.158.046.271.094.533.142.782-.081,0-.158-.01-.239-.014-.234-.011-.468-.024-.7-.041l-.116-.007c-.078-.309-.152-.636-.22-.977,0-.02-.008-.04-.012-.059q-.4-.126-.807-.271c.02.09.041.18.062.268.08.338.167.663.259.973l-.268-.032q-.387-.046-.762-.1l-.09-.013c-.14-.312-.271-.643-.393-.989-.079-.222-.152-.452-.223-.685q-.491-.226-.968-.482c.012.043.026.084.038.127.089.3.184.6.287.885q.188.519.4,1c-.11-.021-.216-.044-.323-.067-.2-.043-.4-.088-.6-.136a12.764,12.764,0,0,1-.906-1.937c-.032-.086-.066-.171-.1-.259l.134.044q.436.147.9.275l.058.016a15.314,15.314,0,0,1-2.358-1.583l-.073-.033c-.224-.1-.439-.2-.641-.306-.087-.044-.169-.088-.25-.134-.048-.174-.092-.351-.131-.529a12.414,12.414,0,0,1-1.077-1.26c.025.217.053.433.088.646q.037.227.082.45l-.057-.049a4.607,4.607,0,0,1-.7-.707,11.022,11.022,0,0,1-.148-1.459,11.355,11.355,0,0,1-.815-1.719,11.494,11.494,0,0,0,.084,3.249q.068.4.164.794.115.476.267.933a11.369,11.369,0,0,0,1.565,3.068c.034.049.072.092.107.14a11.393,11.393,0,0,0,4.319,3.546,12.179,12.179,0,0,0,2.076.721,11.578,11.578,0,0,0,1.651.342c.121.016.242.03.364.043.182.018.366.031.551.042.161.008.323.013.485.016l.138,0c.123,0,.244-.008.365-.012l.091,0a11.813,11.813,0,0,0,7.417-3.041,11.31,11.31,0,0,0,1.427-1.567,40.66,40.66,0,0,1-6.336,3.584c.043-.667.075-1.145.111-1.648m-12.224-3.01c-.067-.044-.133-.089-.193-.133a10.942,10.942,0,0,1-1.288-3.043,5.9,5.9,0,0,0,.657.63c.039.032.076.065.117.1.068.255.146.5.229.749.1.307.221.6.345.895.153.357.315.7.5,1.033-.132-.076-.25-.152-.362-.228m1.281,1.749c-.24-.248-.472-.5-.688-.772.107.065.22.127.338.189.144.215.295.418.449.616.09.116.18.231.272.341-.128-.12-.249-.248-.371-.374m.7-.811c-.116-.04-.229-.081-.339-.123a12.158,12.158,0,0,1-1.241-2.533c.252.141.524.274.806.4.053.025.1.05.158.073.039.123.083.243.125.364.106.3.219.6.343.892.155.362.321.71.5,1.042-.12-.038-.238-.077-.352-.117m1.719,2.234-.022-.007a9.666,9.666,0,0,1-1.039-1.023c-.047-.053-.093-.11-.139-.165s-.109-.126-.162-.192l.07.024c.154.055.31.109.472.16.061.093.124.183.187.272a9.4,9.4,0,0,0,.773.963l.018.02c-.056-.017-.107-.034-.159-.051m1.426.388c-.059-.051-.116-.108-.174-.163a8.209,8.209,0,0,1-.98-1.121c.109.026.224.049.336.073.145.033.286.067.434.1.018.033.037.064.056.1a8.787,8.787,0,0,0,.6.916c.03.039.059.079.088.117l.056.071c-.143-.027-.282-.053-.416-.083m1.393.236-.11-.013a6.593,6.593,0,0,1-.427-.571c-.132-.192-.259-.4-.382-.615.193.029.395.052.593.077l.212.028.152.02c.016.042.031.087.048.129.1.266.21.512.324.745.043.088.084.18.129.263-.184-.019-.363-.04-.539-.062m.933.951c.067.007.134.014.2.019a2.939,2.939,0,0,0,.213.233,3.662,3.662,0,0,1-.417-.252m.2-.839a9,9,0,0,1-.428-1.122c.322.025.653.044.985.055q.1.432.19.8c.023.092.045.181.068.266l.012.045h-.017c-.146,0-.286-.014-.43-.021-.127-.006-.256-.01-.38-.019m.772,1.153c-.046-.043-.094-.09-.143-.145-.032-.033-.062-.072-.094-.111.181.011.365.016.55.02.033.095.063.181.093.256-.136,0-.273-.011-.407-.02m.606-.23V866.9h0Zm.11-.874h-.217c-.043-.323-.092-.692-.145-1.1.083,0,.168,0,.251,0s.17,0,.255,0c-.035.276-.07.53-.1.766-.015.117-.03.231-.044.337m.641.959a1.7,1.7,0,0,1-.157.157c-.131.006-.26.009-.393.009.028-.074.058-.159.092-.256.187,0,.368-.01.55-.019-.03.038-.062.076-.092.109m.418.083a2.905,2.905,0,0,0,.21-.227c.067-.007.134-.014.2-.02a3.967,3.967,0,0,1-.411.247m.208-1.081c-.156.009-.316.014-.475.02-.116,0-.231.011-.349.015.031-.114.062-.235.093-.36.058-.232.117-.482.176-.751q.5-.016.985-.053a9.252,9.252,0,0,1-.43,1.128" transform="translate(-827.823 -844.611)" fill="#7bc377"/>
    <path id="Path_466" data-name="Path 466" d="M851.612,818.881a11.254,11.254,0,0,0,.06-1.163A11.542,11.542,0,0,0,849.514,811a11.362,11.362,0,0,0-2.8-2.753,11.6,11.6,0,0,0-10.275-1.544,12.488,12.488,0,0,0-1.662.612,11.122,11.122,0,0,0-1.452.816,1.838,1.838,0,0,0-.368.213.931.931,0,0,0-.2.185,11.546,11.546,0,0,0-1.591,1.456,11.331,11.331,0,0,0-.818,1.015,10.945,10.945,0,0,0-.824,1.333c-.043-.1-.084-.207-.125-.311a14.648,14.648,0,0,1-.882-3.373,15.086,15.086,0,0,0-.211,3.3c.437,8.69,9.146,12.63,15.692,12.571-.093,1.178-.134,1.768-.211,2.947a40.817,40.817,0,0,0,10.834-7.178c.279-.255.557-.514.833-.779a27.571,27.571,0,0,1-3.843-.628m-1.271-4.313a10.97,10.97,0,0,1,.416,2.208c.011.122.024.242.03.366a3.338,3.338,0,0,1-.659.666c0-.03,0-.06,0-.09a12.974,12.974,0,0,0-.261-2.614,3,3,0,0,0,.375-.4c.035-.045.067-.09.1-.136m-1.183-2.651a11.043,11.043,0,0,1,1.049,2.23l-.055.078c-.017.023-.041.045-.06.068a2.333,2.333,0,0,1-.333.321,12.537,12.537,0,0,0-.848-2.4c.024-.024.044-.049.067-.073a2.106,2.106,0,0,0,.18-.222M847.6,813.07c.229-.111.442-.226.638-.346.015.034.028.07.042.1A12.2,12.2,0,0,1,849,815.1c-.029.016-.062.031-.092.046-.231.12-.481.236-.754.348a14.67,14.67,0,0,0-.557-2.427m-.462-3.581a11.052,11.052,0,0,1,1.725,1.971l.095.139a1.338,1.338,0,0,1-.207.205l-.026.023c-.039-.075-.08-.145-.119-.218-.049-.089-.1-.181-.147-.267a11.069,11.069,0,0,0-1.328-1.84Zm-.534.538a11.643,11.643,0,0,1,1.246,1.9c.056.106.114.21.168.319-.07.033-.145.066-.22.1-.124.055-.253.108-.388.16a13.132,13.132,0,0,0-1.052-2.21l-.009-.016c-.015-.024-.028-.05-.042-.073.1-.059.2-.12.3-.183m-1.094,2.649a15.663,15.663,0,0,0-.623-1.9q.383-.113.732-.249c.058.1.112.2.167.308a13.155,13.155,0,0,1,.85,1.944c-.062.019-.129.037-.193.056-.249.074-.509.145-.782.212l-.053.014c-.031-.129-.065-.254-.1-.381m.342,1.583c-.028-.165-.057-.33-.089-.492.379-.113.739-.234,1.072-.365.037.128.07.258.1.388a15.072,15.072,0,0,1,.387,2.008l-.032.01c-.263.085-.542.165-.828.241-.128.034-.254.069-.387.1-.047-.647-.125-1.279-.228-1.891m-.893-5.846a9.29,9.29,0,0,1,1.27,1.172,2.284,2.284,0,0,1-.256.114,9.327,9.327,0,0,0-1.117-1.345c-.025-.025-.049-.051-.075-.076.059.042.118.09.177.135m-1.74-.644c.192.141.386.3.58.472a8.392,8.392,0,0,1,1.456,1.7l-.179.047c-.07.018-.141.036-.213.053-.09.022-.18.043-.273.063q-.237-.5-.5-.945l-.024-.042a8.454,8.454,0,0,0-.577-.841c-.125-.166-.255-.321-.386-.464l.12-.039m-.077,4.023c-.042-.211-.085-.419-.131-.621.4-.058.779-.127,1.144-.21q.095.254.182.52a17.13,17.13,0,0,1,.471,1.752l-.132.024c-.258.049-.525.095-.8.137-.153.023-.305.048-.463.069q-.114-.871-.272-1.67m-.671-3.835a6.377,6.377,0,0,1,.516.675,8.922,8.922,0,0,1,.522.874c.122.231.241.473.353.729-.117.018-.239.035-.361.052-.225.032-.454.061-.69.086-.136-.494-.284-.956-.446-1.379a9.366,9.366,0,0,0-.423-.954c.178-.023.354-.051.529-.083m-1.281,3.392c.37-.019.732-.049,1.086-.086.04.216.078.439.114.666q.123.779.213,1.631l-.07.005c-.261.026-.529.045-.8.063-.086.006-.168.015-.255.02-.055-.551-.118-1.079-.186-1.583-.033-.244-.067-.484-.1-.715m.363,3.157c.385-.027.76-.063,1.127-.107.06.738.1,1.507.118,2.3-.264.026-.538.043-.81.062-.107.007-.209.018-.317.024-.012-.538-.039-1.059-.07-1.57-.015-.237-.028-.477-.047-.707m.231-5.311c.116.382.226.8.325,1.241-.095.007-.195.01-.291.016-.222.014-.444.028-.673.037l-.1.005c-.054-.309-.11-.6-.166-.882-.11-.549-.222-1.041-.33-1.462.282-.009.561-.023.836-.048.087.2.17.416.25.646.05.144.1.292.145.447m-1.806,5.365c.25,0,.5,0,.742-.012.041.728.071,1.486.085,2.267-.266.007-.535.008-.805,0h-.047q-.447,0-.887-.016c.009-.5.026-.984.047-1.461.012-.269.023-.538.038-.8.273.009.55.016.829.016m-.774-.883q.055-.787.123-1.513c.024-.269.05-.533.076-.787.141.005.282.007.425.009.215,0,.428,0,.638-.011.025.242.049.493.073.747q.069.747.126,1.56h-.05c-.211,0-.422.008-.637.008l-.155,0c-.208,0-.415,0-.62-.011m2.383-6.533h-.01c-.065,0-.129.01-.195.014l-.049-.059a3.118,3.118,0,0,0-.231-.255,4.071,4.071,0,0,1,.485.3m-1.081-.391a1.425,1.425,0,0,1,.178.174c.023.025.046.053.069.082.045.054.089.111.134.174-.2.008-.4.014-.6.017-.029-.091-.056-.174-.082-.251s-.052-.146-.076-.208c.127,0,.252.005.378.011m-.573.26c.007.058.016.124.023.189h-.044c.009-.065.016-.131.021-.189m.016,1.148.131,0c.03.231.063.482.1.751.062.478.129,1.014.2,1.6h-.251l-.292,0c-.113,0-.224,0-.334-.005h0v0c.1-.916.208-1.708.292-2.348l.161,0m-.765-1.234.014-.015a1.7,1.7,0,0,1,.15-.148c.13-.009.261-.016.391-.02-.02.052-.041.112-.063.175-.029.084-.061.176-.094.28-.2-.005-.4-.01-.6-.017a2.669,2.669,0,0,1,.2-.256m-.572,0c.052-.03.1-.062.155-.087-.026.025-.053.055-.079.083-.067.071-.133.146-.2.229l-.2-.014c.113-.08.221-.149.327-.21m-.439,1.98c.1-.295.2-.567.307-.812.274.025.551.039.834.05-.061.242-.125.509-.189.8-.1.464-.207.981-.306,1.546H838.8c-.209-.008-.414-.018-.618-.03-.144-.009-.286-.017-.426-.028.1-.443.206-.857.323-1.239.029-.1.059-.191.089-.283m-.745,5.5c.291.035.586.065.887.087-.056.728-.1,1.488-.117,2.272-.255-.015-.5-.035-.752-.055-.125-.009-.253-.015-.376-.026.012-.491.035-.97.062-1.443.017-.288.034-.576.057-.855,0,0,0-.006,0-.008.078.01.159.018.238.027m-.16-.863q.079-.753.186-1.447c.043-.284.088-.564.138-.832.353.035.718.063,1.086.083-.11.707-.208,1.475-.288,2.29-.236-.014-.462-.037-.692-.058-.143-.012-.29-.021-.431-.036m-.388-4.913a6.127,6.127,0,0,1,.522-.68c.173.033.349.061.525.085a9.445,9.445,0,0,0-.424.957c-.161.423-.311.883-.445,1.377q-.268-.027-.527-.061t-.524-.075a9.945,9.945,0,0,1,.787-1.471c.029-.043.056-.089.085-.132m-3.094,7.553c-.238-.055-.468-.114-.691-.175-.191-.052-.379-.106-.559-.163.061-.51.148-1.007.254-1.49q.076-.34.165-.67c.027-.1.054-.206.083-.307q.246.094.508.184t.563.179a20.075,20.075,0,0,0-.324,2.441m-.056-3.284c-.169-.046-.334-.093-.492-.141a13.514,13.514,0,0,1,.541-1.327c.1-.222.213-.435.326-.643.047-.085.091-.173.14-.256.117.045.237.088.36.13s.246.081.374.119a15.882,15.882,0,0,0-.713,2.254c-.184-.044-.361-.089-.534-.136m1.05,1.991c.034-.264.072-.525.115-.782.008-.049.016-.1.024-.147.247.061.5.117.766.17.221.044.445.087.675.125-.077.751-.13,1.534-.155,2.337-.252-.03-.5-.064-.741-.1-.281-.041-.557-.085-.824-.134.03-.5.078-.991.14-1.47m1.674-1.446c-.222-.031-.438-.064-.651-.1-.253-.042-.5-.086-.74-.134.1-.471.222-.924.353-1.359q.119-.4.254-.77c.014-.037.026-.076.04-.113q.284.063.583.116.276.049.561.09c-.16.705-.294,1.467-.4,2.27m-.386-5.2c.2-.178.395-.337.589-.482.041.016.081.028.118.041a5.984,5.984,0,0,0-.393.471,9.754,9.754,0,0,0-1.106,1.826c-.111-.023-.221-.048-.328-.074s-.227-.058-.336-.088a9.426,9.426,0,0,1,.719-.95,7.316,7.316,0,0,1,.737-.744m-.98.037a9.3,9.3,0,0,0-1.192,1.417c-.044-.017-.088-.035-.128-.053l-.007,0c-.04-.016-.077-.034-.114-.052l-.006,0a9.027,9.027,0,0,1,1.447-1.307m-2.124,2.14c.094-.127.188-.255.285-.375.04.027.083.051.124.077s.075.048.113.069a.718.718,0,0,0,.067.035,12.864,12.864,0,0,0-1.089,2.274c-.139-.051-.269-.1-.394-.157-.074-.031-.148-.063-.218-.095a12.133,12.133,0,0,1,.764-1.328q.17-.258.349-.5m-1.565.547a10.884,10.884,0,0,1,1.218-1.325,11.161,11.161,0,0,0-1.208,1.7c-.1.161-.183.328-.271.5a1.8,1.8,0,0,1-.208-.181l-.011-.012-.009-.011c.153-.23.318-.452.488-.67m-1.382,2.375-.018-.033c.049-.112.1-.225.15-.335s.123-.244.186-.364c.12-.227.244-.451.38-.668a.2.2,0,0,0,.013.017,2.1,2.1,0,0,0,.227.253,12.424,12.424,0,0,0-.639,1.65c-.1-.169-.2-.343-.3-.52m1.138,1.713c-.071-.089-.144-.175-.214-.267q.131-.548.308-1.07c.06-.178.123-.354.191-.527s.126-.32.2-.475c.07.042.145.083.22.124.133.073.271.145.418.215a14.83,14.83,0,0,0-.569,2.494c-.076-.03-.143-.064-.214-.1-.114-.129-.225-.262-.334-.4m1.854,1.821c-.111-.086-.221-.173-.33-.264.113.04.226.08.342.117.235.075.474.146.723.213,0,.151-.006.3-.008.457-.249-.164-.49-.341-.727-.524m2.394,1.446c-.113-.052-.224-.106-.336-.161-.156-.076-.31-.157-.462-.24,0-.067,0-.132,0-.2,0-.15,0-.3.006-.447,0-.041,0-.082,0-.122q.4.086.816.159c.25.044.5.084.763.12,0,.1,0,.192,0,.291,0,.315.007.626.015.935q-.405-.155-.8-.334m2.007.734c-.112-.032-.223-.066-.334-.1-.005-.187-.006-.379-.009-.569,0-.222-.01-.442-.01-.667v-.183c.369.039.746.071,1.128.1v.088c0,.524.014,1.035.033,1.539q-.408-.091-.809-.2m2.6.5q-.467-.052-.928-.128-.014-.473-.022-.957c0-.251-.01-.5-.01-.755,0-.016,0-.03,0-.046q.439.016.888.019c.291,0,.58,0,.868-.009v.035c0,.653-.016,1.286-.038,1.907q-.38-.026-.759-.068m2,.109c-.127,0-.253,0-.381,0q.031-.639.042-1.3c0-.214.01-.425.01-.643v-.074c.383-.024.76-.056,1.128-.1,0,.058,0,.115,0,.173,0,.659-.02,1.3-.049,1.934q-.376.014-.752.015m2.675-2.352c-.079.7-.142,1.3-.234,2.2-.236.03-.473.054-.71.075l-.115.009q.04-.746.048-1.517c0-.122.006-.242.006-.365,0-.1,0-.19,0-.286.1-.016.2-.035.306-.052.016-.136.032-.278.05-.429q.284.163.569.318l.09-.019c0,.022,0,.043-.007.064m.134-1.148c-.01.088-.02.172-.03.254-.131.024-.261.048-.4.069-.24.039-.484.076-.733.109-.018-.579-.054-1.141-.1-1.693-.017-.209-.032-.422-.053-.627.5-.083.987-.181,1.445-.293.032.18.06.362.087.546.067.46.119.933.157,1.415.01.131.021.262.029.394l-.072.013c-.112-.062-.224-.124-.335-.188m1.352.729c.429-.123.838-.258,1.221-.4.024.327.036.659.039.993q-.634-.276-1.26-.591m2.3,1.015-.165-.064c0-.043,0-.085,0-.128,0-.416-.017-.824-.047-1.228-.008-.117-.014-.235-.025-.352l.133-.063a8.385,8.385,0,0,0,.74-.408c.009.059.017.119.026.179.046.309.08.623.1.942s.033.615.029.929c0,.161,0,.32-.009.479-.263-.091-.525-.187-.785-.287m1.641.564c0-.006,0-.012,0-.017a4.433,4.433,0,0,0,.693-.695c0,.3-.016.6-.041.9q-.328-.09-.653-.189" transform="translate(-828.191 -806.13)" fill="#7bc377"/>
  </g>
</svg>
