<?xml version="1.0" encoding="utf-8"?>
<!-- Generator: Adobe Illustrator 25.3.1, SVG Export Plug-In . SVG Version: 6.00 Build 0)  -->
<svg version="1.1" id="katman_1" xmlns="http://www.w3.org/2000/svg" xmlns:xlink="http://www.w3.org/1999/xlink" x="0px" y="0px"
	 viewBox="0 0 100 100" style="enable-background:new 0 0 100 100;" xml:space="preserve">
<style type="text/css">
	.st0{fill:#FFFFFF;}
</style>
<g>
	<path class="st0" d="M90.7,69.5c-0.1-2.7-0.9-5.3-4.4-7.6h0.1c-1.7-3.9-3.4-7.8-5.1-11.8c-1.1-1.7-2.7-2.7-5-2.8
		c-6.9,0-13.8,0-20.8,0c-6.9,0-13.8,0-20.8,0c-2.4,0-3.9,1.1-5,2.8c-1.7,3.9-3.4,7.9-5.1,11.8h0.1c-3.5,2.3-4.3,4.9-4.5,7.6
		c0,6.2,0,10.4,0,16.6c11.7,0,23.5,0,35.2,0c11.7,0,23.5,0,35.2,0C90.7,79.9,90.7,75.7,90.7,69.5z M30.2,61.3
		c0.4-1.9,0.9-3.8,1.3-5.6c0.4-1.7,0.8-3.4,1.2-5c0.1-0.5,0.6-0.9,1.2-0.9c7.2,0,14.3,0,21.5,0c7.1,0,14.3,0,21.5,0
		c0.5,0,1.1,0.4,1.2,0.9c0.4,1.6,0.8,3.3,1.2,5c0.4,1.8,0.9,3.7,1.3,5.6c0.1,0.6-0.2,1.1-0.9,1.1c-8.1,0-16.2,0-24.4,0
		c-8.1,0-16.2,0-24.4,0C30.5,62.4,30.1,61.9,30.2,61.3z M38,73.7c0,0.6-0.5,1.1-1.2,1.1H26.4c-5.5,0-3.6-9.8,0-8.1l9.9,4.8
		c0.8,0.4,1.6,0.7,1.6,1.5V73.7z M68.1,81.8c0,0.8-0.7,1.5-1.5,1.5H44.3c-0.8,0-1.5-0.7-1.5-1.5v-1.6c0-0.8,0.7-1.5,1.5-1.5h22.3
		c0.8,0,1.5,0.7,1.5,1.5V81.8z M81.3,74.8H71c-0.7,0-1.2-0.5-1.2-1.1v-0.7c0-0.8,0.8-1.1,1.6-1.5l9.9-4.8
		C84.9,65,86.9,74.8,81.3,74.8z"/>
	<path class="st0" d="M82.4,93h6.9c0.7,0,1.3-0.6,1.3-1.4v-4.3h-9.6v4.3C81.1,92.4,81.7,93,82.4,93z"/>
	<path class="st0" d="M95.9,40l2.6-3.9L72.3,18.5c-0.2,1.7-0.7,3.3-1.4,4.8L95.9,40z"/>
	<path class="st0" d="M55,18.7h1.3c2.9,0,4.6-1.8,4.6-4.8c0-3.1-1.7-4.8-4.6-4.8h-4.1v14.3H55V18.7z M55,11.7h1.2
		c1.1,0,1.7,0.7,1.7,2.1c0,1.4-0.6,2.1-1.7,2.1H55V11.7z"/>
	<path class="st0" d="M55.5,32c8.7,0,15.8-7.1,15.8-15.9c0-8.8-7.1-15.9-15.8-15.9c-8.7,0-15.8,7.1-15.8,15.9
		C39.7,24.9,46.7,32,55.5,32z M55.5,4.1c6.5,0,11.9,5.4,11.9,12c0,6.6-5.3,12-11.9,12c-6.6,0-11.9-5.4-11.9-12
		C43.6,9.5,48.9,4.1,55.5,4.1z"/>
	<path class="st0" d="M5.7,95V47.1l34.6-23.2c-0.8-1.4-1.3-3-1.6-4.6L2.1,43.8L1,44.5v1.3v51.5v2.4h2.4H99V95H5.7z"/>
	<path class="st0" d="M93.9,60.8v-2.3c0-0.7-0.6-1.2-1.3-1.2h-4.3c-0.9,0-1.7,0.4-2.2,1l1.3,3c0.4,0.3,0.8,0.6,1.1,0.9h4.2
		C93.4,62.1,93.9,61.5,93.9,60.8z"/>
	<path class="st0" d="M23.5,61.2l1.3-3c-0.5-0.6-1.3-1-2.2-1h-4.4c-0.7,0-1.3,0.5-1.3,1.2v2.3c0,0.7,0.6,1.2,1.3,1.2h4.2
		C22.8,61.8,23.1,61.5,23.5,61.2z"/>
	<path class="st0" d="M21.5,93h6.9c0.7,0,1.3-0.6,1.3-1.4v-4.3h-9.6v4.3C20.2,92.4,20.8,93,21.5,93z"/>
</g>
</svg>
