<svg xmlns="http://www.w3.org/2000/svg" xmlns:xlink="http://www.w3.org/1999/xlink" width="36.33" height="39.384" viewBox="0 0 36.33 39.384">
  <defs>
    <filter id="Path_498" x="5.869" y="0" width="24.594" height="27.903" filterUnits="userSpaceOnUse">
      <feOffset dy="2" input="SourceAlpha"/>
      <feGaussianBlur stdDeviation="2" result="blur"/>
      <feFlood flood-color="#041230" flood-opacity="0.557"/>
      <feComposite operator="in" in2="blur"/>
      <feComposite in="SourceGraphic"/>
    </filter>
    <filter id="Path_491" x="0" y="16.779" width="36.33" height="22.606" filterUnits="userSpaceOnUse">
      <feOffset dy="2" input="SourceAlpha"/>
      <feGaussianBlur stdDeviation="2" result="blur-2"/>
      <feFlood flood-color="#041230" flood-opacity="0.557"/>
      <feComposite operator="in" in2="blur-2"/>
      <feComposite in="SourceGraphic"/>
    </filter>
  </defs>
  <g id="Group_574" data-name="Group 574" transform="translate(6 4)">
    <g transform="matrix(1, 0, 0, 1, -6, -4)" filter="url(#Path_498)">
      <path id="Path_498-2" data-name="Path 498" d="M661.284,220.964c1.291,3.07,3.752,4.741,5.393,4.741,1.612,0,3.872-1.615,5.181-4.645a14.109,14.109,0,0,0,.784-2.6,10.335,10.335,0,0,0,.332-2.858,6.318,6.318,0,0,0-12.594,0,13.716,13.716,0,0,0,.146,2.135,12.514,12.514,0,0,0,.756,3.223" transform="translate(-648.51 -205.8)" fill="#eee"/>
    </g>
    <g transform="matrix(1, 0, 0, 1, -6, -4)" filter="url(#Path_491)">
      <path id="Path_491-2" data-name="Path 491" d="M660.1,280.555c-1.259-1.346-4.8-1.009-6.547-1.933-.778,1.455-.788,3.846-2.08,3.846a1.11,1.11,0,0,1-.173-.013c-1.946-.292-.973-5.254-2.335-5.254s-.389,4.963-2.335,5.254a1.108,1.108,0,0,1-.173.013c-1.291,0-1.3-2.391-2.079-3.846-1.749.925-5.288.587-6.542,1.933-.682.729-1.036,5.244-1.036,7.251h24.33c0-2.006-.352-6.521-1.03-7.251" transform="translate(-630.8 -256.42)" fill="#eee"/>
    </g>
  </g>
</svg>
