<?xml version="1.0" encoding="utf-8"?>
<!-- Generator: Adobe Illustrator 25.3.1, SVG Export Plug-In . SVG Version: 6.00 Build 0)  -->
<svg version="1.1" id="katman_1" xmlns="http://www.w3.org/2000/svg" xmlns:xlink="http://www.w3.org/1999/xlink" x="0px" y="0px"
	 viewBox="0 0 100 100" style="enable-background:new 0 0 100 100;" xml:space="preserve">
<style type="text/css">
	.st0{fill:#FFFFFF;}
</style>
<g>
	<g>
		<path class="st0" d="M46,73.7c0,0-1.9-8-14-4.9c0,0,5.7,11,14.1,6.9c0,0-4.9-4.8-8.9-5.6C37.2,70,43.7,70.8,46,73.7z"/>
		<path class="st0" d="M38.6,22.3c0,0-3.2-6.8-6.9-9.1c0,0,6.3,3.3,7.6,7c0,0,1.1-8.9-12.4-10.3C26.9,10,28.5,23.3,38.6,22.3z"/>
		<path class="st0" d="M24.1,41.2c0,0-2.8-4.4-5.9-6.4c1.7,1,5.2,3.2,6.3,5.5c0,0,1.2-8.9-11.8-8.3C12.7,32,15.6,43.2,24.1,41.2z"/>
		<path class="st0" d="M69.9,31.5c-8.4,2.8-6.4,8.3-6.4,8.3c0.3-2.6,3.8-5.6,3.8-5.6c-2,2-3.1,6.8-3.1,6.8
			C70.8,40.2,69.9,31.5,69.9,31.5z"/>
		<path class="st0" d="M70.3,5.8c-4.2,3.5-7.6,10.9-7.6,10.9C78.5,16,77.4,0.9,77.4,0.9c-19,3.3-15.5,14.4-15.5,14.4
			C63.1,11.6,68.1,7.5,70.3,5.8z"/>
		<path class="st0" d="M42.9,26.7c0.6-1.9,3.2-4,4.3-4.8c-2.2,1.7-3.9,5.5-3.9,5.5c8.1-0.4,7.5-8,7.5-8
			C41.1,21.1,42.9,26.7,42.9,26.7z M47.7,21.5c-0.1,0-0.1,0.1-0.2,0.1C47.6,21.6,47.7,21.5,47.7,21.5z"/>
		<path class="st0" d="M71.1,91.4c-3.7-6.2-6.1-0.1-9.4-5c-2.4-3.5-6.2-4.5-8.4-4.7c0.1-3.6-0.1-7.1-0.8-10.5
			c5.2-15.6,13.2-15.8,13.2-15.8c-3.2,1.1-7.2,5.5-7.2,5.5c8.4,6.5,13.9-6.7,13.9-6.7c-10.2-2.3-16.3,5.8-19.2,11.4
			c0.9-4.1,2.5-8.1,4.7-11.8c1.2-2,2.6-4,4.1-5.8c1.5-1.8,3.1-3.6,4.9-5.1c0.1-0.1,0.3-0.3,0.4-0.4c-4.3,4.6-4.5,8.7-4.5,8.7
			c16.9-1.6,15.7-16.6,15.7-16.6c-4.3,2.1-8.4,4.6-12.2,7.6c-0.8,0.6-1.6,1.3-2.3,2c-1.2,1-1.6,1.5-1.6,1.5l0.1-0.1
			c-0.5,0.5-1,1-1.5,1.5c1.4-3.5,2-8.2-1.9-11.9c0,0-5.2,7.7,1.3,9.9c0,0,1-3.7,0.4-5.8c0,0,2.3,3.6-2.2,10.6c-0.8,1-1.6,2-2.3,3
			c-2.4,3.5-4.3,7.5-5.6,11.6c-0.1-0.4-0.3-0.8-0.4-1.3c-0.3-1.1-0.8-2.2-1.2-3.3c-0.4-1.1-0.8-2.1-1.2-3.2l-1.1-3.1l-0.3-0.8
			l-0.2-0.8l-0.5-1.6c-0.3-1.1-0.6-2.1-0.9-3.2c-0.1-0.2-0.1-0.5-0.2-0.7c0,0,0-0.1,0-0.1c0-0.2,0-0.4,0.1-0.6
			c0.1-0.4,0.1-0.8,0.2-1.3c0.2-0.8,0.4-1.7,0.6-2.5c0.5-1.7,1.1-3.3,1.9-4.9c1.6-3.2,3.7-6.1,6.2-8.7c1.3-1.3,2.6-2.5,4.1-3.6
			c1.5-1.1,3-2.2,4.5-3.1c0.8-0.5,1.6-0.9,2.4-1.4c-4.4,2.9-8.1,7.3-8.1,7.3c17,2.1,20.7-10.7,20.7-10.7c-4.8-1.1-11.5,1.8-14.6,3.4
			c-0.3,0.1-0.7,0.3-1,0.5c-1.7,0.8-3.3,1.7-4.9,2.7c-0.4,0.3-0.9,0.6-1.3,0.9c0.7-1.4,1.3-2.8,1.9-4.3c5.9-11.6-0.9-18.7-0.9-18.7
			c-9.7,11.4-3.4,18.6-3.4,18.6c3.5-2.7,5.2-8.7,5.6-10.4c0,0.1,0,0.2,0,0.2c0,1.1-0.1,2.1-0.3,3.2c-0.4,2.1-1,4.1-1.9,6
			c-0.9,1.9-1.9,3.7-3.1,5.5c-1,1.5-2.1,2.9-3.3,4.2c-2.1,2-3.9,4.3-5.5,6.8c-0.6,1-1.2,2.1-1.7,3.2c-0.4-2.6-0.7-5.2-0.8-7.8
			c-0.3-4.4-0.1-8.9,0.5-13.3c0.1-0.6,0.1-1.1,0.2-1.7l0.3-1.6c0-0.2,0.1-0.3,0.1-0.5c1,0.5,2.1,0.7,3.2,0.6
			c-0.1-0.7-0.4-1.4-0.7-2.1c1.6-0.8,3-2,3.8-3.2c-0.6-0.1-1.2-0.2-1.9-0.2c0.9-0.6,1.6-1.5,2-2.3c-0.9-0.2-1.9-0.1-2.8,0.2
			c0,0,0,0,0,0c0.9-0.9,1.4-2,1.4-3.2c-0.6,0-1.2,0.1-1.8,0.3c0.4-0.8,0.5-1.7,0.4-2.5c-1.2,0.1-2.3,0.7-3,1.7
			c-0.1,0.2-0.2,0.3-0.3,0.5c-0.3-0.4-0.7-0.8-1.2-1.1c-0.5,1-0.6,2.1-0.3,3.3c-0.7-0.6-1.4-1-2.2-1.2c-0.2,1.3,0,2.6,0.7,3.9
			c-0.5-0.1-0.9-0.1-1.4-0.1c0.1,0.8,0.4,1.6,0.8,2.3l1,0.6c-0.7,0.6-1.4,1.3-1.8,2c0.9,0.2,2,0.3,3,0.2c0,0.2-0.1,0.3-0.1,0.5
			l-0.5,1.6c-0.1,0.6-0.3,1.1-0.4,1.7l-0.4,1.7c-0.1,0.6-0.2,1.1-0.3,1.7c-0.2,1.1-0.4,2.3-0.5,3.4c-0.1,1.1-0.3,2.3-0.4,3.4
			c-0.1,1.2-0.1,2.3-0.2,3.5c0,0.9,0,1.9,0,2.8c-0.1-0.1-0.1-0.2-0.2-0.3c-1.1-1.6-2.4-3-3.8-4.4c-1.4-1.4-2.8-2.6-4.4-3.7
			c-0.8-0.6-1.6-1.1-2.4-1.6c-0.4-0.2-0.8-0.5-1.3-0.7l-0.6-0.3c-0.2-0.1-0.4-0.2-0.5-0.7c0-0.1-0.1-0.3-0.1-0.4
			c-0.3-0.6-1-0.8-1.6-0.5c-0.6,0.3-0.9,1-0.5,1.6c0.3,0.6,1.1,0.8,1.7,0.5c0.4-0.2,0.6-0.1,0.8,0l0.6,0.4c0.4,0.2,0.8,0.5,1.2,0.8
			c0.8,0.5,1.5,1.1,2.2,1.7c1.4,1.2,2.8,2.5,3.9,3.9c1.2,1.4,2.2,2.9,3.1,4.5c0.9,1.5,1.6,3.1,2.3,4.7c0.6,6.4,2,12.8,4.1,18.9
			l0.6,2c-1.7-2-3.6-3.8-5.7-5.5c-0.1-0.1-0.2-0.1-0.2-0.2c-12-11.9-10.9-18.6-10.9-18.6c2.3,7.4,3.8,8.9,3.8,8.9
			c7.8-5.8-4.2-15.7-4.2-15.7c-2.1,9.5,1.6,16.5,5,20.7c-14.5-9.5-24.1-5.6-24.1-5.6s4.3,2.4,11.4,10.2c7.1,7.8,15,2.3,15,2.3
			c-3.8-4.4-10.1-8.5-12.3-9.9c2.1,0.8,4.2,1.7,6.1,2.8c1.6,0.9,3.2,1.9,4.7,3.1c1.5,1.1,2.9,2.4,4.2,3.7c2.6,2.6,4.9,5.6,6.8,8.7
			c1,1.6,1.8,3.2,2.5,4.9c0.3,0.6,0.5,1.2,0.8,1.9c0.8,3.4,1.1,6.7,0.9,9.7c-3,1.5-5.7,6.3-9.4,5.7c-3.7-0.6-6.1,2.7-7.1,4.4
			c-10.1,0.3-21.6,0.8-25.2,1C0.4,93,31.7,93.9,25.8,95C20,96,33.9,94.8,43.4,95c9.4,0.2-2,2.3-6.4,3c-7.7,1.3,24.3,1,24.3,1
			c-7.5-1.7-2.2-1,11.3-1.5c13.5-0.5-3.6-1.2-12.4-2.3c-8.8-1.1,24.8-1.8,35.6-2.7C102.2,92,86.4,91.6,71.1,91.4z M43.9,8.5
			C43.9,8.5,43.9,8.5,43.9,8.5C43.8,8.5,43.8,8.5,43.9,8.5C43.8,8.4,43.9,8.5,43.9,8.5z"/>
	</g>
</g>
</svg>
