<?xml version="1.0" encoding="utf-8"?>
<!-- Generator: Adobe Illustrator 25.3.1, SVG Export Plug-In . SVG Version: 6.00 Build 0)  -->
<svg version="1.1" id="katman_1" xmlns="http://www.w3.org/2000/svg" xmlns:xlink="http://www.w3.org/1999/xlink" x="0px" y="0px"
	 viewBox="0 0 100 100" style="enable-background:new 0 0 100 100;" xml:space="preserve">
<style type="text/css">
	.st0{fill:#FFFFFF;}
</style>
<g>
	<path class="st0" d="M65.5,99.3c-0.2,0-0.5-0.1-0.6-0.2c-0.3-0.2-0.4-0.5-0.4-0.9V52.9c0-0.5,0.3-0.9,0.8-1l29.8-8.5
		c0.3-0.1,0.7,0,0.9,0.2c0.3,0.2,0.4,0.5,0.4,0.9v45.4c0,0.5-0.3,0.9-0.8,1l-29.8,8.5C65.7,99.3,65.6,99.3,65.5,99.3z M66.5,53.7
		v43.2l27.6-7.9V45.8L66.5,53.7z M95.2,89.7L95.2,89.7L95.2,89.7z"/>
	<path class="st0" d="M4.5,99.3c-0.2,0-0.5-0.1-0.6-0.2c-0.3-0.2-0.4-0.5-0.4-0.9V52.9c0-0.5,0.3-0.9,0.8-1L34,43.3
		c0.3-0.1,0.7,0,0.9,0.2c0.3,0.2,0.4,0.5,0.4,0.9v45.4c0,0.5-0.3,0.9-0.8,1L4.8,99.3C4.7,99.3,4.6,99.3,4.5,99.3z M5.6,53.7v43.2
		l27.6-7.9V45.8L5.6,53.7z M34.3,89.7L34.3,89.7L34.3,89.7z"/>
	<path class="st0" d="M65.5,99.3c-0.1,0-0.2,0-0.3,0L34,90.8c-0.5-0.1-0.8-0.5-0.8-1V44.4c0-0.3,0.2-0.6,0.4-0.8
		c0.3-0.2,0.6-0.3,0.9-0.2l31.2,8.5c0.5,0.1,0.8,0.5,0.8,1v45.4c0,0.3-0.2,0.6-0.4,0.8C65.9,99.2,65.7,99.3,65.5,99.3z M35.3,88.9
		l29.1,7.9V53.7l-29.1-7.9V88.9z"/>
	<path class="st0" d="M65.5,73.8c-0.5,0-0.9-0.3-1-0.8c-0.2-0.6,0.2-1.2,0.7-1.3l29.8-8.5c0.6-0.2,1.2,0.2,1.3,0.7
		c0.2,0.6-0.2,1.2-0.7,1.3l-29.8,8.5C65.7,73.8,65.6,73.8,65.5,73.8z"/>
	<path class="st0" d="M77.3,83.1c-0.5,0-0.9-0.3-1-0.8c-0.2-0.6,0.2-1.2,0.7-1.3l17.9-5.1c0.6-0.2,1.2,0.2,1.3,0.7
		c0.2,0.6-0.2,1.2-0.7,1.3l-17.9,5.1C77.5,83.1,77.4,83.1,77.3,83.1z"/>
	<path class="st0" d="M77.3,95.9c-0.6,0-1.1-0.5-1.1-1.1V69.3c0-0.6,0.5-1.1,1.1-1.1c0.6,0,1.1,0.5,1.1,1.1v25.5
		C78.4,95.4,77.9,95.9,77.3,95.9z"/>
	<path class="st0" d="M4.5,85.1c-0.5,0-0.9-0.3-1-0.8c-0.2-0.6,0.2-1.2,0.7-1.3L34,74.5c0.6-0.2,1.2,0.2,1.3,0.7
		c0.2,0.6-0.2,1.2-0.7,1.3L4.8,85.1C4.7,85.1,4.6,85.1,4.5,85.1z"/>
	<path class="st0" d="M16.3,66.2c-0.5,0-0.9-0.3-1-0.8c-0.2-0.6,0.2-1.2,0.7-1.3l18-5.1c0.6-0.2,1.2,0.2,1.3,0.7
		c0.2,0.6-0.2,1.2-0.7,1.3l-18,5.1C16.5,66.2,16.4,66.2,16.3,66.2z"/>
	<path class="st0" d="M16.3,95.9c-0.6,0-1.1-0.5-1.1-1.1V49.5c0-0.6,0.5-1.1,1.1-1.1c0.6,0,1.1,0.5,1.1,1.1v45.3
		C17.3,95.4,16.9,95.9,16.3,95.9z"/>
	<path class="st0" d="M49.9,83.9c-0.3,0-0.5-0.1-0.8-0.3L27.1,61.5c-12.6-12.6-12.6-33,0-45.6c12.6-12.6,33-12.6,45.6,0
		c6.1,6.1,9.4,14.2,9.4,22.8c0,8.6-3.4,16.7-9.4,22.8L50.6,83.6C50.4,83.8,50.1,83.9,49.9,83.9z M49.9,8.6c-7.7,0-15.4,2.9-21.3,8.8
		c-11.7,11.7-11.7,30.9,0,42.6l21.3,21.3L71.2,60c5.7-5.7,8.8-13.3,8.8-21.3c0-8-3.1-15.6-8.8-21.3C65.3,11.5,57.6,8.6,49.9,8.6z"/>
	<path class="st0" d="M61.2,55.4H38.5c-0.5,0-0.9-0.3-1-0.8l-5.7-19.8c-0.1-0.3,0-0.7,0.2-0.9c0.2-0.3,0.5-0.4,0.8-0.4h34
		c0.3,0,0.6,0.2,0.8,0.4c0.2,0.3,0.3,0.6,0.2,0.9l-5.7,19.8C62.1,55,61.7,55.4,61.2,55.4z M39.3,53.2h21.1l5.1-17.7H34.3L39.3,53.2z
		"/>
	<path class="st0" d="M54.1,55.4h-8.5c-0.5,0-1-0.4-1.1-0.9l-2.1-19.8c0-0.3,0.1-0.6,0.3-0.8c0.2-0.2,0.5-0.4,0.8-0.4h12.8
		c0.3,0,0.6,0.1,0.8,0.4c0.2,0.2,0.3,0.5,0.3,0.8l-2.1,19.8C55.1,54.9,54.7,55.4,54.1,55.4z M46.6,53.2h6.6l1.9-17.7H44.7L46.6,53.2
		z"/>
	<path class="st0" d="M35.7,35.5c-0.2,0-0.3,0-0.5-0.1c-0.5-0.3-0.8-0.9-0.5-1.4l4.7-9.9c0.3-0.5,0.9-0.8,1.4-0.5
		c0.5,0.3,0.8,0.9,0.5,1.4l-4.7,9.9C36.5,35.3,36.1,35.5,35.7,35.5z"/>
	<path class="st0" d="M64,35.5c-0.4,0-0.8-0.2-1-0.6L58.4,25c-0.3-0.5,0-1.2,0.5-1.4c0.5-0.3,1.2,0,1.4,0.5L65,34
		c0.3,0.5,0,1.2-0.5,1.4C64.3,35.5,64.2,35.5,64,35.5z"/>
	<path class="st0" d="M18.7,17.1H13c-0.6,0-1.1-0.5-1.1-1.1c0-0.6,0.5-1.1,1.1-1.1h5.7c0.6,0,1.1,0.5,1.1,1.1
		C19.7,16.6,19.3,17.1,18.7,17.1z"/>
	<path class="st0" d="M15.8,19.9c-0.6,0-1.1-0.5-1.1-1.1v-5.7c0-0.6,0.5-1.1,1.1-1.1c0.6,0,1.1,0.5,1.1,1.1v5.7
		C16.9,19.4,16.4,19.9,15.8,19.9z"/>
	<path class="st0" d="M83.9,11.4h-5.7c-0.6,0-1.1-0.5-1.1-1.1c0-0.6,0.5-1.1,1.1-1.1h5.7c0.6,0,1.1,0.5,1.1,1.1
		C84.9,10.9,84.5,11.4,83.9,11.4z"/>
	<path class="st0" d="M81,14.2c-0.6,0-1.1-0.5-1.1-1.1V7.5c0-0.6,0.5-1.1,1.1-1.1c0.6,0,1.1,0.5,1.1,1.1v5.7
		C82.1,13.8,81.6,14.2,81,14.2z"/>
	<path class="st0" d="M92.4,28.4h-5.7c-0.6,0-1.1-0.5-1.1-1.1c0-0.6,0.5-1.1,1.1-1.1h5.7c0.6,0,1.1,0.5,1.1,1.1
		C93.5,27.9,93,28.4,92.4,28.4z"/>
	<path class="st0" d="M89.6,31.3c-0.6,0-1.1-0.5-1.1-1.1v-5.7c0-0.6,0.5-1.1,1.1-1.1c0.6,0,1.1,0.5,1.1,1.1v5.7
		C90.6,30.8,90.1,31.3,89.6,31.3z"/>
	<path class="st0" d="M10.2,41.2H4.5c-0.6,0-1.1-0.5-1.1-1.1c0-0.6,0.5-1.1,1.1-1.1h5.7c0.6,0,1.1,0.5,1.1,1.1
		C11.2,40.7,10.7,41.2,10.2,41.2z"/>
	<path class="st0" d="M7.3,44c-0.6,0-1.1-0.5-1.1-1.1v-5.7c0-0.6,0.5-1.1,1.1-1.1s1.1,0.5,1.1,1.1v5.7C8.4,43.5,7.9,44,7.3,44z"/>
</g>
</svg>
