<?xml version="1.0" encoding="UTF-8" standalone="no"?><!DOCTYPE svg PUBLIC "-//W3C//DTD SVG 1.1//EN" "http://www.w3.org/Graphics/SVG/1.1/DTD/svg11.dtd"><svg width="100%" height="100%" viewBox="0 0 1146 423" version="1.1" xmlns="http://www.w3.org/2000/svg" xmlns:xlink="http://www.w3.org/1999/xlink" xml:space="preserve" xmlns:serif="http://www.serif.com/" style="fill-rule:evenodd;clip-rule:evenodd;stroke-linejoin:round;stroke-miterlimit:2;"><rect id="Artboard1" x="0" y="0" width="1145.76" height="422.454" style="fill:none;"/><rect x="64.302" y="153.293" width="435.638" height="133.028" style="fill:url(#_Linear1);"/><g><path d="M157.296,216.624c0,6.819 -1.344,12.714 -4.034,17.687c-2.69,4.973 -6.646,8.789 -11.87,11.447c-5.223,2.659 -11.525,3.988 -18.906,3.988l-19.985,-0l-0,-66.149l19.985,-0c11.134,-0 19.72,2.924 25.756,8.773c6.036,5.848 9.054,13.933 9.054,24.254Zm-35.279,27.211c9.32,-0 16.42,-2.393 21.299,-7.178c4.879,-4.785 7.319,-11.463 7.319,-20.033c-0,-8.569 -2.44,-15.247 -7.319,-20.032c-4.879,-4.785 -11.979,-7.178 -21.299,-7.178l-12.855,0l0,54.421l12.855,-0Z" style="fill:#fff;fill-rule:nonzero;"/><path d="M175.499,183.597l0,40.065c0,7.068 1.548,12.26 4.645,15.575c3.096,3.315 7.334,4.973 12.713,4.973c5.38,0 9.587,-1.658 12.62,-4.973c3.034,-3.315 4.551,-8.507 4.551,-15.575l0,-40.065l6.568,-0l-0,40.065c-0,8.945 -2.158,15.638 -6.474,20.079c-4.316,4.441 -10.102,6.662 -17.358,6.662c-7.257,-0 -13.043,-2.221 -17.359,-6.662c-4.316,-4.441 -6.474,-11.134 -6.474,-20.079l0,-40.065l6.568,-0Zm5.817,-11.541c0,-1.189 0.391,-2.174 1.173,-2.956c0.782,-0.782 1.767,-1.173 2.956,-1.173c1.126,0 2.095,0.391 2.909,1.173c0.813,0.782 1.219,1.767 1.219,2.956c0,1.126 -0.406,2.095 -1.219,2.909c-0.814,0.813 -1.783,1.219 -2.909,1.219c-1.189,0 -2.174,-0.406 -2.956,-1.219c-0.782,-0.814 -1.173,-1.783 -1.173,-2.909Zm14.732,-0c-0,-1.189 0.391,-2.174 1.172,-2.956c0.782,-0.782 1.736,-1.173 2.862,-1.173c1.189,0 2.174,0.391 2.956,1.173c0.782,0.782 1.173,1.767 1.173,2.956c-0,1.126 -0.391,2.095 -1.173,2.909c-0.782,0.813 -1.767,1.219 -2.956,1.219c-1.126,0 -2.08,-0.406 -2.862,-1.219c-0.781,-0.814 -1.172,-1.783 -1.172,-2.909Z" style="fill:#fff;fill-rule:nonzero;"/><path d="M280.024,249.746l-6.662,-0l-36.218,-55.265l0,55.265l-6.661,-0l-0,-66.055l6.661,-0l36.218,55.358l0,-55.358l6.662,-0l0,66.055Z" style="fill:#fff;fill-rule:nonzero;"/><path d="M349.082,216.624c-0,6.819 -1.345,12.714 -4.035,17.687c-2.69,4.973 -6.646,8.789 -11.869,11.447c-5.223,2.659 -11.525,3.988 -18.907,3.988l-19.985,-0l-0,-66.149l19.985,-0c11.135,-0 19.72,2.924 25.756,8.773c6.037,5.848 9.055,13.933 9.055,24.254Zm-35.28,27.211c9.321,-0 16.42,-2.393 21.299,-7.178c4.879,-4.785 7.319,-11.463 7.319,-20.033c-0,-8.569 -2.44,-15.247 -7.319,-20.032c-4.879,-4.785 -11.978,-7.178 -21.299,-7.178l-12.854,0l-0,54.421l12.854,-0Z" style="fill:#fff;fill-rule:nonzero;"/><path d="M399.28,233.607l-30.119,0l-6.005,16.139l-7.037,-0l24.395,-64.648l7.413,0l24.395,64.648l-7.131,-0l-5.911,-16.139Zm-1.97,-5.254l-13.043,-35.655l-13.229,35.655l26.272,0Z" style="fill:#fff;fill-rule:nonzero;"/><path d="M456.985,249.746l-18.109,-27.586l-10.697,0l0,27.586l-6.662,-0l0,-66.149l20.267,-0c7.444,-0 12.996,1.751 16.655,5.254c3.659,3.503 5.489,8.226 5.489,14.168c-0,5.505 -1.548,9.884 -4.645,13.136c-3.096,3.253 -7.584,5.192 -13.464,5.818l18.672,27.773l-7.506,-0Zm-28.806,-32.559l13.136,0c10.634,0 15.951,-4.597 15.951,-13.792c0,-9.383 -5.317,-14.075 -15.951,-14.075l-13.136,0l0,27.867Z" style="fill:#fff;fill-rule:nonzero;"/></g><g><path d="M149.538,42.097c0.559,-0.022 1.342,-0.054 2.348,-0.094c0.935,0.971 1.257,2.022 0.966,3.154c-0.269,1.691 -0.755,3.558 -1.457,5.602c-0.51,1.253 -0.937,2.502 -1.279,3.747c-0.342,1.246 -0.769,2.495 -1.279,3.747c-0.398,1.248 -0.824,2.497 -1.278,3.747c-0.455,1.251 -0.879,2.556 -1.272,3.915c-0.506,1.364 -0.984,2.728 -1.434,4.09c-0.449,1.361 -0.871,2.722 -1.265,4.082l-3,9.024c-0.296,1.02 -0.643,2.154 -1.041,3.402c-0.702,2.044 -1.295,4.027 -1.779,5.951l-3.578,11.399c-0.389,1.471 -0.806,2.944 -1.252,4.418c-0.445,1.473 -0.918,2.948 -1.419,4.424c-0.291,1.132 -0.609,2.293 -0.954,3.482c-0.344,1.19 -0.718,2.353 -1.121,3.489c-0.201,0.568 -0.297,0.964 -0.288,1.188c0.219,-0.121 0.328,-0.181 0.328,-0.181c1.768,-3.431 3.647,-6.866 5.638,-10.305c0.832,-1.601 1.693,-3.176 2.584,-4.723c0.89,-1.548 1.754,-3.066 2.59,-4.556c2.416,-4.016 4.991,-8.263 7.725,-12.74c0.734,-1.261 1.498,-2.468 2.292,-3.619c0.794,-1.152 1.614,-2.361 2.459,-3.627c2.434,-3.569 4.868,-7.138 7.302,-10.707c0.631,-1.033 1.32,-2.013 2.067,-2.938c0.747,-0.926 1.436,-1.906 2.067,-2.939c0.743,-1.038 1.485,-2.075 2.228,-3.113c0.743,-1.037 1.488,-2.019 2.235,-2.945c0.639,-0.809 1.254,-1.562 1.842,-2.257c0.588,-0.696 1.146,-1.446 1.674,-2.251c0.533,-0.693 1.121,-1.389 1.765,-2.087c0.644,-0.697 1.291,-1.339 1.939,-1.925c1.074,-1.163 2.217,-1.992 3.429,-2.489c0.68,0.197 1.313,0.62 1.899,1.269c0.818,0.863 1.36,1.794 1.623,2.791c0.014,0.336 0.141,0.723 0.383,1.161c0.013,0.335 0.029,0.727 0.046,1.174c-0.434,3.154 -1.202,6.376 -2.302,9.668c-0.609,1.593 -1.161,3.211 -1.655,4.854c-0.495,1.644 -0.99,3.26 -1.487,4.848c-0.501,1.476 -1.003,2.924 -1.507,4.344c-0.503,1.42 -1.008,2.812 -1.514,4.176l-1.631,5.442l-2.987,9.359l-1.202,3.576c-0.295,1.02 -0.59,2.04 -0.886,3.059c-0.295,1.02 -0.646,2.042 -1.053,3.066c-0,0 0.06,0.11 0.181,0.329c0.214,-0.232 0.373,-0.463 0.476,-0.691c0.103,-0.228 0.264,-0.402 0.483,-0.523l4.456,-6.226l2.55,-3.462l3.195,-4.159l2.557,-3.294l2.093,-2.267c0.645,-0.698 1.231,-1.45 1.759,-2.255c2.997,-3.479 6.027,-6.848 9.089,-10.106c3.063,-3.258 6.151,-6.573 9.264,-9.946c1.611,-1.744 3.118,-3.26 4.523,-4.548l2.584,-2.623l3.241,-2.985c0.434,-0.354 0.84,-0.706 1.218,-1.057c0.378,-0.351 0.726,-0.757 1.043,-1.218c1.083,-0.939 2.167,-1.85 3.252,-2.733c1.084,-0.883 2.226,-1.741 3.425,-2.573c0.546,-0.358 1.204,-0.72 1.973,-1.086c0.881,-0.372 1.617,-0.177 2.207,0.584c0.702,0.756 1.076,1.693 1.12,2.811c0.058,1.454 -0.157,3.086 -0.644,4.898c-0.676,2.715 -1.475,5.155 -2.397,7.32l-3.054,7.682l-2.604,6.32l-1.826,4.777l-1.658,4.77c-0.412,0.912 -0.794,1.852 -1.148,2.818c-0.353,0.966 -0.733,1.961 -1.141,2.985l-2.268,6.307c-0.613,1.48 -1.171,2.959 -1.672,4.435c-0.501,1.476 -1.002,2.952 -1.503,4.428c-0.609,1.592 -1.162,3.182 -1.658,4.77c-0.497,1.588 -1.05,3.178 -1.658,4.77l-3.605,10.728c-0.394,1.36 -0.816,2.721 -1.265,4.083c-0.45,1.362 -0.928,2.725 -1.433,4.089c-1.392,4.424 -2.829,9.129 -4.31,14.116l-2.504,8.836c-0.287,1.244 -0.601,2.488 -0.943,3.734c-0.343,1.246 -0.601,2.488 -0.776,3.727c0.009,0.224 0.018,0.447 0.027,0.671c0.009,0.224 -0.038,0.45 -0.141,0.678c-0,-0 0.011,0.279 0.033,0.838c-0.34,-0.098 -0.566,-0.145 -0.677,-0.141c-0.005,-0.111 -0.064,-0.193 -0.178,-0.245c-0.114,-0.051 -0.227,-0.075 -0.339,-0.07c-0.568,-0.201 -1.053,-0.434 -1.456,-0.698c-0.402,-0.264 -0.834,-0.555 -1.295,-0.873c0,0 -0.116,-0.107 -0.349,-0.322c-0.362,-0.657 -0.507,-1.491 -0.435,-2.502l1.088,-6.428c0.192,-0.792 0.385,-1.583 0.577,-2.375c0.193,-0.792 0.387,-1.528 0.584,-2.207c0.685,-2.492 1.344,-4.926 1.977,-7.303c0.633,-2.378 1.295,-4.756 1.984,-7.136c0.591,-2.039 1.209,-4.08 1.856,-6.122c0.647,-2.042 1.265,-4.082 1.856,-6.122c1.191,-3.856 2.437,-7.713 3.739,-11.573l3.598,-10.896c0.3,-0.908 0.627,-1.845 0.98,-2.811c0.354,-0.966 0.678,-1.959 0.973,-2.979c0.305,-0.796 0.609,-1.593 0.913,-2.389c0.305,-0.796 0.607,-1.648 0.906,-2.556c0.609,-1.592 1.274,-3.187 1.994,-4.784c0.72,-1.596 1.441,-3.193 2.161,-4.79c0.613,-1.48 1.282,-2.963 2.007,-4.448c0.725,-1.485 1.394,-2.968 2.007,-4.448l3.255,-6.85c0.617,-1.369 1.236,-2.709 1.856,-4.022c0.619,-1.313 1.24,-2.598 1.862,-3.854c0.403,-1.137 0.835,-2.246 1.296,-3.328c0.461,-1.083 0.948,-2.194 1.463,-3.335c-0,0 0.049,-0.17 0.148,-0.509c-0.121,-0.22 -0.345,-0.211 -0.671,0.026c-0.546,0.358 -1.063,0.743 -1.551,1.154c-0.487,0.411 -1.002,0.852 -1.543,1.322c-0.653,0.474 -1.277,0.975 -1.872,1.502c-0.595,0.528 -1.217,1.085 -1.866,1.671c-0.756,0.702 -1.565,1.462 -2.429,2.281c-0.644,0.697 -1.261,1.366 -1.852,2.005c-0.59,0.64 -1.266,1.255 -2.026,1.845c-0.864,0.819 -1.67,1.663 -2.42,2.533c-0.749,0.87 -1.555,1.714 -2.419,2.532c-2.049,1.986 -3.985,3.995 -5.808,6.028c-1.823,2.033 -3.701,4.095 -5.633,6.189c-0.859,0.93 -1.69,1.859 -2.493,2.787c-0.804,0.928 -1.579,1.855 -2.326,2.781c-0.537,0.581 -1.047,1.133 -1.53,1.657c-0.483,0.523 -0.937,1.073 -1.362,1.65c-0.425,0.577 -0.851,1.126 -1.278,1.647c-0.428,0.521 -0.91,1.072 -1.447,1.654c-0.21,0.344 -0.448,0.69 -0.714,1.036c-0.267,0.347 -0.561,0.695 -0.883,1.043l-5.093,7.092c-0.743,1.037 -1.486,2.075 -2.228,3.113l-3,4.823l-5.074,7.595c-0.421,0.689 -1.116,1.5 -2.087,2.435c-0.796,-0.304 -1.511,-0.668 -2.144,-1.091c-0.632,-0.422 -1.295,-0.9 -1.989,-1.432c-0.349,-0.323 -0.476,-0.709 -0.382,-1.161c-0.013,-0.336 0,-0.7 0.04,-1.094c0.041,-0.394 0.108,-0.816 0.202,-1.268c0.385,-1.583 0.741,-3.194 1.068,-4.831c0.326,-1.637 0.682,-3.247 1.067,-4.83c0.492,-1.7 0.987,-3.344 1.484,-4.932c0.286,-1.243 0.656,-2.49 1.111,-3.74l2.708,-7.92c0.448,-1.418 0.922,-2.865 1.423,-4.341c0.604,-1.704 1.21,-3.38 1.816,-5.029c0.606,-1.648 1.214,-3.268 1.822,-4.86c0.506,-1.365 0.985,-2.7 1.437,-4.006c0.452,-1.306 0.875,-2.639 1.268,-3.999c0.712,-1.82 1.466,-3.978 2.263,-6.474c0.102,-0.228 0.202,-0.54 0.298,-0.936c0.096,-0.396 0.192,-0.819 0.286,-1.271c-0.323,0.349 -0.484,0.523 -0.484,0.523c-0.541,0.47 -1.053,0.966 -1.536,1.489c-0.483,0.524 -0.938,1.074 -1.363,1.651c-0.425,0.577 -0.851,1.126 -1.278,1.647c-0.427,0.521 -0.856,1.014 -1.285,1.479c-0.318,0.461 -0.61,0.864 -0.876,1.211c-0.266,0.346 -0.56,0.694 -0.882,1.043l-3.195,4.159c-0.635,0.922 -1.243,1.814 -1.825,2.677c-0.582,0.864 -1.192,1.7 -1.832,2.509c-0.953,1.382 -1.907,2.737 -2.862,4.063c-0.956,1.326 -1.854,2.678 -2.695,4.055c-0.953,1.382 -1.877,2.791 -2.772,4.227c-0.894,1.435 -1.818,2.844 -2.771,4.226c-0.846,1.266 -1.662,2.559 -2.45,3.878c-0.787,1.319 -1.602,2.668 -2.443,4.046l-7.382,12.894c-1.669,3.091 -3.235,5.953 -4.698,8.588c-0.515,1.14 -1.058,2.254 -1.631,3.341l-4.759,9.178l-3.251,6.934c-1.032,2.225 -2.008,4.42 -2.93,6.584c-0.618,1.369 -1.207,2.737 -1.769,4.103c-0.561,1.367 -1.095,2.732 -1.601,4.096c-0.201,0.568 -0.467,0.915 -0.798,1.04c-0.796,-0.304 -1.591,-0.581 -2.385,-0.829c-0.794,-0.248 -1.489,-0.809 -2.083,-1.681c0.103,-0.228 0.178,-0.455 0.225,-0.681c0.047,-0.226 0.122,-0.453 0.224,-0.681c0.699,-2.156 1.367,-4.367 2.004,-6.632c0.638,-2.266 1.304,-4.532 1.997,-6.8c0.989,-3.288 1.952,-6.546 2.887,-9.775c0.935,-3.23 1.895,-6.544 2.88,-9.943c0.488,-1.812 1.003,-3.625 1.547,-5.438c0.544,-1.814 1.116,-3.629 1.715,-5.445c1.092,-3.516 2.081,-6.803 2.967,-9.862c0.707,-1.933 1.357,-3.891 1.95,-5.874c0.593,-1.984 1.243,-3.942 1.95,-5.874c0.591,-2.04 1.239,-4.054 1.944,-6.042c0.705,-1.988 1.408,-4.004 2.111,-6.048c0.394,-1.36 0.817,-2.693 1.269,-3.999c0.452,-1.306 0.933,-2.585 1.443,-3.838c0.398,-1.247 0.852,-2.498 1.362,-3.75c0.51,-1.252 0.965,-2.503 1.363,-3.75c0.613,-1.481 1.172,-2.903 1.678,-4.267c0.506,-1.365 1.009,-2.785 1.51,-4.261l1.819,-4.944c0.412,-0.913 0.551,-1.646 0.417,-2.201Z" style="fill-rule:nonzero;"/><path d="M337.359,75.606c1.257,0.622 2.033,1.823 2.328,3.603c0,0 -0.051,0.114 -0.154,0.342c-0.228,-0.102 -0.342,-0.154 -0.342,-0.154c-1.025,-0.407 -2.431,-0.575 -4.221,-0.504c-0.228,-0.103 -0.454,-0.15 -0.677,-0.141c-0.224,0.009 -0.504,0.02 -0.839,0.034c-0.564,-0.09 -0.901,-0.132 -1.013,-0.128l-2.684,0.107c-0.895,0.036 -1.512,0.004 -1.852,-0.094c-0.112,0.004 -0.447,0.018 -1.006,0.04c-1.906,-0.036 -3.865,-0.014 -5.878,0.066c-2.013,0.08 -4.026,0.16 -6.038,0.241c-0,-0 -0.278,0.067 -0.832,0.201c-0.215,0.232 -0.421,0.689 -0.618,1.369l-1.792,5.615l-2.531,8.165l-0.604,1.704c-0.488,1.812 -1.004,3.625 -1.547,5.438c-0.544,1.814 -1.116,3.629 -1.716,5.445c-0.304,0.796 -0.58,1.591 -0.829,2.385c-0.248,0.794 -0.468,1.587 -0.661,2.378c-1.472,5.211 -2.975,10.367 -4.508,15.468c-1.532,5.102 -3.037,10.202 -4.514,15.301l-2.927,10.869c-0.295,1.02 -0.536,2.009 -0.722,2.969c-0.186,0.959 -0.372,1.891 -0.56,2.794c-0.103,0.228 -0.15,0.454 -0.141,0.678c0.008,0.224 -0.041,0.393 -0.148,0.51c-0.219,0.121 -0.329,0.181 -0.329,0.181c-0.456,-0.206 -0.913,-0.44 -1.372,-0.701c-0.458,-0.262 -0.92,-0.608 -1.385,-1.037c-0.237,-0.327 -0.468,-0.486 -0.691,-0.477c-0.685,-0.309 -1.045,-0.91 -1.08,-1.805c-0.014,-0.335 -0.02,-0.503 -0.02,-0.503c0.062,-1.235 0.209,-2.472 0.44,-3.714c0.23,-1.241 0.491,-2.427 0.782,-3.559c0.389,-1.472 0.725,-2.885 1.007,-4.24c0.282,-1.356 0.62,-2.713 1.014,-4.073c0.085,-0.675 0.228,-1.297 0.429,-1.865c0.202,-0.568 0.401,-1.192 0.598,-1.872c0.389,-1.471 0.776,-2.999 1.161,-4.582c0.385,-1.584 0.77,-3.167 1.155,-4.75c0.689,-2.38 1.423,-5.041 2.202,-7.985l6.498,-22.435l2.538,-7.998l2.423,-6.648c0.098,-0.34 0.25,-0.738 0.456,-1.195c0.206,-0.456 0.356,-0.91 0.45,-1.362c-0.228,-0.103 -0.342,-0.154 -0.342,-0.154c-1.123,-0.067 -2.27,-0.05 -3.442,0.053c-1.172,0.103 -2.319,0.121 -3.442,0.053c-0.546,0.358 -1.139,0.942 -1.778,1.751c-0.425,0.577 -0.824,1.125 -1.195,1.644c-0.371,0.519 -0.772,1.011 -1.201,1.476c-0.318,0.46 -0.609,0.892 -0.873,1.295c-0.264,0.402 -0.557,0.778 -0.879,1.127l-3.979,5.534c-0.748,0.926 -1.44,1.822 -2.077,2.687c-0.638,0.866 -1.274,1.759 -1.91,2.68c-0.845,1.266 -1.692,2.504 -2.54,3.714c-0.848,1.21 -1.75,2.45 -2.708,3.72c-0.742,1.038 -1.485,2.075 -2.228,3.113c-0.742,1.037 -1.483,2.131 -2.221,3.28l-4.772,6.743c-0.107,0.116 -0.185,0.259 -0.234,0.429c-0.05,0.17 -0.182,0.371 -0.396,0.604c0.246,0.55 0.427,0.879 0.543,0.986c0.13,0.443 0.342,0.855 0.637,1.235c0.295,0.38 0.508,0.792 0.637,1.235c0.492,1.1 0.821,2.319 0.986,3.656c0.116,2.908 -0.491,5.956 -1.82,9.145c-0.707,1.933 -1.59,3.648 -2.651,5.146c-0.523,0.917 -1.134,1.753 -1.832,2.509c-0.698,0.756 -1.483,1.431 -2.355,2.026c-0.658,0.362 -1.425,0.785 -2.302,1.268c-0.438,0.241 -0.937,0.373 -1.496,0.396c-0.559,0.022 -1.062,0.042 -1.51,0.06c-0.223,0.009 -0.393,-0.041 -0.509,-0.148c-0.797,-0.304 -1.539,-0.667 -2.228,-1.087c-0.689,-0.421 -1.27,-0.958 -1.744,-1.611c-0.939,-1.082 -1.324,-2.299 -1.154,-3.65c0.179,-1.127 0.627,-2.545 1.343,-4.254c0.398,-1.248 0.856,-2.414 1.373,-3.498c0.516,-1.085 1.09,-2.144 1.721,-3.177c0.519,-1.029 1.066,-2.059 1.641,-3.09c0.575,-1.031 1.178,-2.063 1.809,-3.096l2.523,-4.133c0.107,-0.116 0.186,-0.259 0.235,-0.429c0.049,-0.17 0.183,-0.315 0.403,-0.436c-0.457,-0.206 -0.685,-0.309 -0.685,-0.309c-1.136,-0.402 -2.156,-0.698 -3.059,-0.886c-1.36,-0.394 -2.728,-1.011 -4.106,-1.852l-1.892,-1.101c-0.429,0.465 -0.859,0.93 -1.288,1.395c-0.43,0.466 -0.803,0.928 -1.121,1.389c-0.434,0.353 -0.81,0.76 -1.128,1.221c-0.317,0.461 -0.635,0.921 -0.952,1.382c-0.537,0.582 -1.018,1.161 -1.443,1.738c-0.425,0.577 -0.848,1.21 -1.269,1.898l-3.832,5.025l-2.704,3.804l-2.577,2.791c-0.541,0.469 -1.145,0.774 -1.812,0.912l-0.684,-0.309c-0.116,-0.107 -0.233,-0.214 -0.349,-0.322c-0.116,-0.107 -0.288,-0.212 -0.516,-0.315c-0.457,-0.206 -0.887,-0.469 -1.292,-0.789c-0.405,-0.32 -0.782,-0.641 -1.13,-0.963l-1.396,-1.288c-0.156,-1.114 -0.138,-2.067 0.054,-2.858c0.171,-1.351 0.4,-2.62 0.689,-3.808c0.288,-1.188 0.632,-2.405 1.03,-3.653l0.289,-1.188c-0.228,-0.103 -0.394,-0.04 -0.497,0.188c-0.528,0.805 -1.084,1.611 -1.667,2.419c-0.584,0.807 -1.198,1.559 -1.843,2.257c-1.172,1.503 -2.301,2.668 -3.388,3.495c-0.322,0.349 -0.705,0.588 -1.148,0.718c-0.55,0.246 -1.111,0.212 -1.684,-0.101c-1.373,-0.729 -2.639,-1.575 -3.797,-2.537c-1.038,-0.742 -1.42,-1.903 -1.147,-3.482c0.152,-1.798 0.418,-3.573 0.796,-5.324c0.378,-1.751 0.813,-3.477 1.306,-5.176c0.492,-1.7 1.012,-3.401 1.561,-5.103c0.548,-1.702 1.124,-3.405 1.728,-5.109c0.098,-0.34 0.226,-0.653 0.383,-0.939c0.156,-0.286 0.284,-0.599 0.382,-0.939c0.206,-0.456 0.584,-0.808 1.134,-1.053c0.34,0.098 0.654,0.253 0.943,0.466c0.288,0.212 0.551,0.482 0.788,0.809c0.116,0.107 0.234,0.242 0.352,0.406c0.119,0.163 0.236,0.298 0.352,0.406c0.466,0.429 0.602,1.04 0.409,1.831l-3.088,11.044c-0.398,1.248 -0.74,2.493 -1.027,3.737c-0.286,1.243 -0.573,2.487 -0.859,3.73c-0,0 0.011,0.28 0.033,0.839c0.331,-0.125 0.497,-0.188 0.497,-0.188c0.649,-0.586 1.268,-1.198 1.859,-1.838c0.59,-0.64 1.096,-1.304 1.516,-1.993c0.211,-0.344 0.477,-0.691 0.799,-1.039c0.322,-0.349 0.588,-0.696 0.799,-1.04c0.859,-0.931 1.631,-1.913 2.318,-2.949c0.687,-1.035 1.402,-2.072 2.144,-3.109c1.168,-1.615 2.251,-3.254 3.248,-4.918c0.998,-1.664 1.969,-3.298 2.913,-4.904c0.528,-0.805 1.056,-1.61 1.584,-2.415c0.21,-0.345 0.481,-0.58 0.812,-0.705c0.326,-0.237 0.606,-0.248 0.839,-0.033c0.577,0.425 0.984,0.801 1.221,1.127l1.402,1.456c0.697,0.645 0.899,1.477 0.603,2.496c-0.206,0.457 -0.385,0.884 -0.537,1.282c-0.152,0.398 -0.275,0.823 -0.369,1.275c-0.506,1.364 -1.009,2.784 -1.51,4.26c-0.502,1.476 -1.061,2.898 -1.678,4.267c-0.497,1.588 -1.048,3.234 -1.652,4.938c-0.188,0.904 -0.433,1.781 -0.735,2.633c-0.302,0.852 -0.603,1.732 -0.903,2.64c0.005,0.112 -0.04,0.394 -0.134,0.846l0.175,0.161c0.214,-0.233 0.322,-0.349 0.322,-0.349l5.435,-6.937c0.64,-0.809 1.279,-1.647 1.916,-2.512c0.638,-0.866 1.332,-1.705 2.084,-2.519c0.103,-0.228 0.236,-0.402 0.399,-0.52c0.164,-0.119 0.297,-0.292 0.4,-0.52l1.449,-1.57l-0.06,-1.51c-0.049,-1.23 0.237,-2.473 0.859,-3.73c1.047,-1.834 2.488,-3.627 4.322,-5.38c2.264,-2.219 4.489,-3.987 6.677,-5.307c0.658,-0.362 1.32,-0.612 1.986,-0.751c0.671,-0.027 1.239,0.175 1.704,0.604l0.342,0.155c0.354,0.434 0.735,0.866 1.144,1.298c0.409,0.432 0.735,0.867 0.976,1.305c0.116,0.108 0.235,0.271 0.356,0.49c0.004,0.112 0.127,0.387 0.369,0.825c-0.43,0.466 -0.645,0.698 -0.645,0.698c-0.532,0.693 -1.093,1.36 -1.684,1.999c-0.591,0.64 -1.21,1.253 -1.859,1.838c-1.19,1.056 -2.267,2.135 -3.231,3.237c-0.964,1.103 -1.983,2.235 -3.057,3.398l-2.087,2.435c0.345,0.211 0.517,0.316 0.517,0.316c0.568,0.201 1.136,0.403 1.704,0.604c0.568,0.201 1.134,0.347 1.697,0.436c1.816,0.6 3.413,1.32 4.791,2.162c-0,-0 0.226,0.047 0.677,0.141c0.323,-0.349 0.539,-0.526 0.651,-0.53c1.468,-2.523 3.023,-4.965 4.665,-7.326c1.642,-2.362 3.257,-4.694 4.845,-6.998c0.631,-1.033 1.292,-2.011 1.983,-2.935c0.691,-0.923 1.41,-1.848 2.158,-2.774l4.295,-6.051c0.854,-1.042 1.681,-2.083 2.479,-3.123c0.799,-1.04 1.569,-2.079 2.312,-3.116c0.21,-0.345 0.422,-0.661 0.634,-0.95c0.213,-0.288 0.426,-0.549 0.641,-0.781c-0.121,-0.22 -0.349,-0.322 -0.684,-0.309c-0.559,0.022 -1.119,0.017 -1.681,-0.017c-0.561,-0.034 -1.117,0.072 -1.667,0.318l-2.097,0.084c-0.391,0.015 -0.808,0.088 -1.251,0.218c0.004,0.112 -0.217,0.176 -0.665,0.194c-0.447,0.018 -0.866,0.035 -1.258,0.05c-0.391,0.016 -0.752,0.086 -1.083,0.212l-1.845,0.073c-0.336,0.013 -0.669,0.083 -1,0.208c-0.108,0.116 -0.273,0.179 -0.497,0.188c-0.671,0.026 -1.367,0.11 -2.09,0.251c-0.722,0.141 -1.473,0.283 -2.251,0.426l-3.013,0.288l-3.502,0.643c-0.555,0.134 -1.172,0.103 -1.852,-0.094c-0.55,0.246 -1.106,0.352 -1.667,0.319c-0.562,-0.034 -1.122,-0.04 -1.681,-0.017c-1.36,-0.394 -2.292,-1.309 -2.797,-2.745c0.089,-0.564 0.465,-0.971 1.127,-1.221l3.321,-0.972c1.888,-0.412 3.943,-0.83 6.167,-1.254c0.554,-0.134 1.083,-0.211 1.586,-0.231c0.504,-0.02 1.033,-0.098 1.587,-0.232l3,-0.623l2.177,-0.171c0.669,-0.083 1.336,-0.193 2.003,-0.332l1.006,-0.04c0.224,-0.009 0.446,-0.046 0.668,-0.11c0.221,-0.065 0.444,-0.102 0.667,-0.111c0.448,-0.018 0.895,-0.036 1.342,-0.054c0.448,-0.017 0.893,-0.091 1.336,-0.221c-0,0 0.333,-0.069 0.999,-0.208c0.783,-0.031 1.623,-0.036 2.52,-0.016c0.897,0.02 1.732,-0.097 2.506,-0.352l3.69,-0.147c0.671,-0.027 1.145,-0.074 1.422,-0.141c0.278,-0.067 0.627,-0.445 1.047,-1.133c0.318,-0.461 0.664,-0.923 1.037,-1.386c0.374,-0.463 0.775,-0.927 1.205,-1.392c0.429,-0.465 0.83,-0.957 1.201,-1.476c0.371,-0.519 0.77,-1.066 1.195,-1.643l1.768,-2.003c0.534,-0.637 1.068,-1.302 1.6,-1.996l4.497,-5.219l3.066,-3.146c0.215,-0.233 0.487,-0.44 0.816,-0.621c0.328,-0.181 0.656,-0.39 0.983,-0.627c0.545,-0.358 1.107,-0.324 1.684,0.101c0.577,0.425 1.098,0.852 1.563,1.282c0.827,1.087 1.44,2.406 1.838,3.958c0.009,0.224 0.02,0.504 0.033,0.839c-0.264,1.803 -0.645,3.498 -1.141,5.086c-0.282,1.355 -0.596,2.628 -0.94,3.817c-0.345,1.19 -0.716,2.409 -1.115,3.657c-0.089,0.564 -0.074,0.955 0.047,1.174c0.452,0.094 0.678,0.141 0.678,0.141l1.845,-0.073c0.228,0.103 0.482,0.148 0.761,0.137c0.28,-0.011 0.588,-0.023 0.923,-0.036c0.452,0.094 0.79,0.136 1.013,0.127l4.026,-0.16c0.335,-0.014 0.673,0.029 1.013,0.127c0.112,-0.004 0.28,-0.011 0.503,-0.02l4.543,0.155c1.234,0.063 2.753,0.227 4.555,0.491c0.564,0.089 1.132,0.291 1.704,0.604Zm-69.605,49.311l-0.04,-1.006l-0.168,0.006l-1.815,2.929c-0.472,0.803 -0.916,1.604 -1.333,2.405c-2.107,3.332 -3.872,6.819 -5.295,10.459c-0.206,0.457 -0.412,0.913 -0.617,1.369c-0.206,0.456 -0.356,0.91 -0.45,1.362c0.223,-0.009 0.335,-0.013 0.335,-0.013c0.331,-0.125 0.605,-0.276 0.822,-0.453c0.217,-0.177 0.489,-0.384 0.816,-0.621c0.21,-0.344 0.421,-0.66 0.634,-0.949c0.212,-0.288 0.426,-0.549 0.641,-0.781c2.129,-2.773 3.758,-5.47 4.885,-8.091c0.824,-1.825 1.352,-4.03 1.585,-6.616Zm40.822,-50.684c0.214,-0.233 0.525,-0.861 0.933,-1.885c0.407,-1.025 0.811,-2.133 1.211,-3.325c0.401,-1.192 0.778,-2.271 1.131,-3.237c0.354,-0.966 0.582,-1.563 0.685,-1.791c-0,-0 -0.06,-0.11 -0.181,-0.329c-0.327,0.237 -0.49,0.355 -0.49,0.355l-4.335,5.045c-0.644,0.698 -1.26,1.423 -1.846,2.174c-0.586,0.751 -1.199,1.532 -1.838,2.341c-0,0 -0.213,0.289 -0.638,0.866c0.452,0.094 0.817,0.135 1.097,0.124l3.523,-0.14c0.279,-0.012 0.529,-0.077 0.748,-0.198Z" style="fill-rule:nonzero;"/><path d="M323.65,132.098c-1.611,1.744 -3.241,2.985 -4.892,3.723c-1.556,0.286 -2.93,0.257 -4.119,-0.088c-1.19,-0.344 -2.355,-0.774 -3.496,-1.288c-0.689,-0.421 -1.159,-0.99 -1.412,-1.708c-0.253,-0.718 -0.504,-1.408 -0.755,-2.07c-0.004,-0.112 0.034,-0.562 0.115,-1.349c-0.014,-0.335 0.003,-0.616 0.05,-0.842c0.047,-0.226 0.066,-0.45 0.057,-0.674c0.068,-1.123 0.247,-2.25 0.538,-3.382c0.29,-1.131 0.579,-2.319 0.866,-3.562c0.707,-1.933 1.579,-3.927 2.617,-5.985c0.725,-1.485 1.478,-2.971 2.259,-4.458c0.78,-1.487 1.645,-2.978 2.594,-4.471c0.425,-0.577 0.85,-1.154 1.275,-1.731c0.425,-0.577 0.794,-1.152 1.107,-1.725c1.584,-2.415 3.295,-4.443 5.134,-6.084c0.635,-0.922 1.358,-1.762 2.167,-2.523c0.81,-0.76 1.649,-1.493 2.517,-2.2c0.756,-0.702 1.74,-1.301 2.952,-1.798c1.767,-0.63 3.561,-0.59 5.381,0.122c1.136,0.403 2.053,0.926 2.751,1.57c0.004,0.112 0.295,0.38 0.872,0.806c0.34,0.098 0.615,-0.025 0.825,-0.369c0.099,-0.34 0.252,-0.71 0.46,-1.111c0.208,-0.4 0.417,-0.772 0.628,-1.117c0.42,-0.689 0.968,-0.99 1.644,-0.905c0.34,0.098 0.649,0.142 0.929,0.131c0.279,-0.011 0.589,0.032 0.929,0.131c0.676,0.085 1.246,0.342 1.711,0.771c0.581,0.537 0.96,0.914 1.137,1.131c0.177,0.217 0.448,0.71 0.815,1.48c0.009,0.223 -0.141,0.677 -0.45,1.362c-0.622,1.257 -1.16,2.51 -1.614,3.76c-0.454,1.25 -0.939,2.446 -1.453,3.586c-0.407,1.024 -0.787,2.048 -1.138,3.07l-3.205,10.208c-0.403,1.136 -0.694,2.267 -0.873,3.395c-0.179,1.127 -0.358,2.254 -0.537,3.381l-0.343,4.046c0.013,0.335 0.026,0.643 0.037,0.923c0.011,0.279 0.079,0.584 0.204,0.915c0.031,0.783 0.485,0.933 1.362,0.45c0.761,-0.59 1.493,-1.179 2.198,-1.767c0.704,-0.589 1.381,-1.176 2.03,-1.761c0.434,-0.354 0.839,-0.734 1.214,-1.141c0.376,-0.407 0.725,-0.785 1.047,-1.134c0.43,-0.465 0.858,-0.958 1.285,-1.479c0.428,-0.521 0.8,-1.012 1.118,-1.472c2.134,-2.662 4.27,-5.267 6.408,-7.816c2.139,-2.549 4.219,-5.152 6.242,-7.809c0.751,-0.814 1.451,-1.514 2.1,-2.1c0.318,-0.46 0.702,-0.644 1.154,-0.55c0.564,0.09 1.072,0.209 1.526,0.359c0.454,0.15 0.91,0.328 1.366,0.534c-0,-0 0.232,0.215 0.697,0.644l-1.255,2.234c-0.961,1.159 -1.865,2.371 -2.711,3.636c-0.845,1.266 -1.749,2.478 -2.711,3.637c-1.816,2.2 -3.606,4.371 -5.369,6.514c-1.762,2.142 -3.496,4.311 -5.2,6.507l-3.879,3.851c-0.971,0.935 -2.391,1.831 -4.261,2.69c-0.327,0.237 -0.658,0.362 -0.993,0.375c-2.013,0.081 -3.643,-0.078 -4.891,-0.477c-0.685,-0.308 -1.083,-0.461 -1.195,-0.456c-1.015,-0.184 -1.822,-0.768 -2.422,-1.752c-0.948,-1.306 -1.448,-2.63 -1.502,-3.972c-0.027,-0.671 -0.053,-1.342 -0.08,-2.013c-0.027,-0.671 0.056,-1.402 0.249,-2.194c0.107,-0.116 0.1,-0.284 -0.021,-0.503c-0.031,-0.783 0.095,-1.852 0.377,-3.207c-0.005,-0.112 -0.065,-0.222 -0.181,-0.329c-0.112,0.005 -0.222,0.065 -0.329,0.181l-0.161,0.175l-1.913,2.596l-1.745,2.59l-1.912,2.596c-0.43,0.465 -0.83,0.957 -1.202,1.476c-0.371,0.519 -0.713,1.064 -1.026,1.637c-0.421,0.688 -1.012,1.328 -1.772,1.918c-0.537,0.582 -1.179,1.335 -1.926,2.261Zm13.377,-31.11c0.076,-0.899 0.208,-1.8 0.396,-2.704c0.188,-0.903 0.211,-1.744 0.068,-2.523c-0.009,-0.223 -0.047,-0.474 -0.114,-0.751c-0.067,-0.277 -0.105,-0.528 -0.114,-0.752c-0,0 -0.007,-0.167 -0.02,-0.503c-0.126,-0.331 -0.461,-0.317 -1.007,0.04c-1.203,0.72 -2.286,1.659 -3.248,2.818c-1.069,1.274 -2.11,2.548 -3.124,3.82c-1.013,1.273 -1.94,2.598 -2.781,3.975c-1.056,1.611 -2.082,3.275 -3.077,4.995c-0.996,1.72 -1.905,3.492 -2.729,5.317c-0.724,1.485 -1.394,2.94 -2.01,4.364c-0.615,1.425 -1.173,2.875 -1.674,4.351c-0.3,0.908 -0.545,1.786 -0.735,2.634c-0.191,0.847 -0.382,1.667 -0.575,2.459c0.005,0.111 0.076,0.501 0.215,1.167c0.018,0.447 0.244,0.494 0.678,0.141c0.429,-0.465 0.915,-0.932 1.456,-1.402c0.541,-0.47 1.024,-0.993 1.449,-1.57c0.859,-0.93 1.689,-1.887 2.49,-2.871c0.801,-0.984 1.573,-1.995 2.315,-3.032c0.43,-0.466 0.698,-0.756 0.806,-0.873c0.201,-0.568 0.488,-1.083 0.862,-1.546c0.374,-0.463 0.719,-0.925 1.037,-1.385c0.215,-0.233 0.429,-0.465 0.644,-0.698c0.215,-0.233 0.374,-0.463 0.476,-0.691c0.417,-0.801 0.918,-1.577 1.504,-2.328c0.586,-0.751 1.141,-1.586 1.664,-2.502c0.631,-1.034 1.289,-2.096 1.973,-3.187c0.685,-1.092 1.34,-2.21 1.967,-3.355c0.42,-0.688 0.731,-1.317 0.933,-1.885c-0.014,-0.335 0.003,-0.616 0.05,-0.842c0.047,-0.226 0.122,-0.453 0.225,-0.681Z" style="fill-rule:nonzero;"/><path d="M407.849,40.036c0.845,1.534 1.292,2.916 1.341,4.147c0.013,0.335 0.038,0.95 0.073,1.845c0.023,0.559 -0.062,1.234 -0.255,2.026c-0.788,2.719 -1.694,5.276 -2.718,7.669l-3.732,7.541l-0.161,0.174c-0.734,1.261 -1.441,2.493 -2.121,3.697c-0.68,1.203 -1.389,2.379 -2.127,3.528c-0.627,1.145 -1.31,2.265 -2.051,3.358c-0.74,1.094 -1.482,2.159 -2.224,3.197c-0.64,0.81 -1.224,1.617 -1.752,2.422c-0.528,0.805 -1.17,1.559 -1.926,2.261c-0.322,0.349 -0.534,0.637 -0.637,0.865c-0.425,0.577 -0.852,1.126 -1.279,1.647c-0.427,0.521 -0.911,1.017 -1.453,1.486c-0.639,0.81 -1.308,1.592 -2.006,2.348c-0.698,0.756 -1.369,1.483 -2.013,2.18c-0.434,0.354 -0.839,0.734 -1.215,1.141c-0.376,0.407 -0.837,0.789 -1.382,1.147c-0.653,0.474 -1.237,1.281 -1.752,2.422c-0.931,1.941 -1.696,3.82 -2.295,5.636l-1.96,5.622c0.348,0.322 0.744,0.418 1.187,0.289l9.307,-2.555c1.99,-0.64 3.954,-1.25 5.891,-1.831c1.937,-0.581 3.845,-1.189 5.723,-1.824c1.217,-0.385 2.406,-0.768 3.567,-1.15c1.161,-0.383 2.293,-0.764 3.398,-1.144c0.779,-0.143 1.498,-0.368 2.157,-0.674c0.66,-0.306 1.377,-0.587 2.151,-0.842l1.194,0.457c0.242,0.438 0.482,0.849 0.721,1.231c0.24,0.383 0.422,0.739 0.547,1.07c0.358,0.546 0.266,1.054 -0.275,1.523c-0.439,0.242 -0.712,0.421 -0.819,0.537c-0.993,0.376 -1.957,0.778 -2.892,1.207c-0.935,0.43 -1.901,0.776 -2.899,1.04c-1.216,0.384 -2.348,0.793 -3.395,1.227c-1.047,0.434 -2.122,0.841 -3.227,1.221c-0.551,0.246 -1.075,0.435 -1.574,0.567c-0.499,0.131 -0.969,0.262 -1.412,0.392c-0.443,0.129 -0.83,0.257 -1.161,0.382c-0.331,0.125 -0.716,0.309 -1.154,0.55c-1.87,0.859 -3.743,1.633 -5.62,2.324c-1.876,0.691 -3.812,1.3 -5.807,1.828c-0.224,0.009 -0.669,0.082 -1.335,0.221c-0.331,0.125 -0.637,0.193 -0.916,0.204c-0.28,0.011 -0.585,0.08 -0.916,0.205c-0.224,0.009 -0.474,0.047 -0.752,0.114c-0.277,0.067 -0.527,0.105 -0.751,0.114c-1.118,0.044 -2.225,0.368 -3.321,0.972c-0.748,0.926 -0.924,2.109 -0.531,3.549l1.328,3.812c0.13,0.442 0.259,0.885 0.389,1.328c0.129,0.443 0.261,0.942 0.395,1.496c0.139,0.667 0.333,1.331 0.584,1.993c0.25,0.662 0.333,1.331 0.248,2.006c0.009,0.224 0.015,0.392 0.02,0.504c0.375,0.993 0.583,1.992 0.623,2.999c0.041,1.006 0.081,2.013 0.121,3.019c0.018,0.448 -0.025,0.785 -0.128,1.013c-0.197,0.68 -0.271,1.635 -0.222,2.865c0.014,0.336 -0.033,0.562 -0.141,0.678c-0.385,1.583 -0.716,3.109 -0.993,4.576c-0.278,1.467 -0.723,2.941 -1.336,4.421c-0.305,0.796 -0.636,1.621 -0.994,2.476c-0.358,0.854 -0.745,1.681 -1.161,2.482c-0.322,0.349 -0.633,0.977 -0.933,1.885c-0.411,0.913 -0.933,1.886 -1.564,2.919c-0.527,0.805 -1.057,1.582 -1.587,2.331c-0.53,0.749 -1.119,1.417 -1.768,2.003c-0.752,0.814 -1.729,1.581 -2.932,2.301c-0.765,0.478 -1.604,0.511 -2.516,0.1l-4.267,-1.678c-2.389,-0.913 -3.637,-2.711 -3.744,-5.395c-0.044,-1.119 0.014,-2.465 0.175,-4.039c0.265,-1.803 0.585,-3.608 0.961,-5.415c0.376,-1.807 0.81,-3.56 1.302,-5.26c0.604,-1.704 1.179,-3.435 1.725,-5.193c0.546,-1.758 1.121,-3.489 1.725,-5.193l2.867,-8.178c0.192,-0.792 0.441,-1.586 0.745,-2.382l2.128,-5.629c0.402,-1.136 0.807,-2.216 1.215,-3.241l1.805,-5.28l1.376,-3.415c0.604,-1.704 1.237,-3.381 1.9,-5.032c0.662,-1.65 1.297,-3.271 1.906,-4.864c0.922,-2.164 1.819,-4.244 2.691,-6.239c0.873,-1.995 1.772,-4.019 2.699,-6.072l2.644,-5.313c0.523,-0.917 0.991,-1.832 1.403,-2.744c0.411,-0.913 0.823,-1.825 1.235,-2.738l2.973,-5.494c0.617,-1.369 1.19,-2.456 1.718,-3.261c0.519,-1.029 1.04,-2.001 1.564,-2.918c0.523,-0.917 1.103,-1.836 1.738,-2.758l1.718,-3.26c0.949,-1.494 1.924,-3.017 2.926,-4.569c1.002,-1.552 2.034,-3.077 3.094,-4.575c0.42,-0.689 0.872,-1.295 1.355,-1.819c0.484,-0.523 0.935,-1.129 1.356,-1.818c0.761,-0.59 1.52,-1.208 2.278,-1.854c0.758,-0.647 1.578,-1.155 2.46,-1.527c0.442,-0.129 0.892,-0.091 1.348,0.115c1.033,0.631 1.735,1.387 2.107,2.268Zm-37.695,91.217l-0.167,-4.193c-0.014,-0.336 -0.084,-0.697 -0.211,-1.084c-0.128,-0.387 -0.256,-0.802 -0.386,-1.245l-0.248,-2.006c-0.331,0.125 -0.496,0.188 -0.496,0.188c-0.108,0.116 -0.211,0.344 -0.309,0.684l-5.075,15.995c-0.805,2.272 -1.525,4.597 -2.158,6.974c-0.633,2.378 -1.239,4.754 -1.816,7.129c-0.197,0.68 -0.287,1.243 -0.269,1.691c0.116,0.107 0.235,0.27 0.356,0.489c0.112,-0.004 0.167,-0.006 0.167,-0.006c0.323,-0.349 0.645,-0.698 0.967,-1.047c0.322,-0.349 0.588,-0.695 0.798,-1.04c1.378,-1.959 2.645,-3.913 3.799,-5.863c0.523,-0.917 1.019,-1.833 1.486,-2.747c0.468,-0.915 0.905,-1.885 1.313,-2.909c0.393,-1.36 0.788,-2.691 1.184,-3.995c0.397,-1.304 0.621,-2.685 0.675,-4.143c-0.004,-0.112 0.019,-0.225 0.071,-0.339c0.051,-0.114 0.073,-0.283 0.064,-0.507c0.098,-0.34 0.141,-0.677 0.127,-1.013c-0.013,-0.335 0.03,-0.673 0.128,-1.013Zm34.252,-84.864c0.205,-0.456 0.134,-0.845 -0.215,-1.167c-0.438,0.241 -0.658,0.362 -0.658,0.362c-0.541,0.47 -0.969,0.963 -1.285,1.479l-2.54,3.714c-0.532,0.693 -0.95,1.438 -1.255,2.234c-0.103,0.228 -0.208,0.4 -0.315,0.516c-0.108,0.117 -0.215,0.233 -0.322,0.349c-0.412,0.913 -0.854,1.77 -1.326,2.573c-0.472,0.803 -0.97,1.663 -1.493,2.58c-0.318,0.46 -0.607,0.92 -0.869,1.378c-0.262,0.459 -0.493,0.972 -0.695,1.54c-0.622,1.257 -1.246,2.458 -1.872,3.603c-0.627,1.145 -1.195,2.343 -1.705,3.596c-0.099,0.34 -0.253,0.682 -0.463,1.026c-0.636,0.922 -1.157,1.895 -1.564,2.919c-0.407,1.024 -0.868,2.106 -1.383,3.247c-0.107,0.116 -0.047,0.226 0.181,0.329c0.112,-0.005 0.224,-0.009 0.336,-0.014c0.21,-0.344 0.476,-0.691 0.799,-1.039c0.322,-0.349 0.588,-0.696 0.798,-1.04c0.846,-1.266 1.721,-2.477 2.627,-3.633c0.906,-1.156 1.726,-2.365 2.46,-3.626c0.846,-1.266 1.635,-2.53 2.369,-3.791c0.734,-1.261 1.468,-2.522 2.201,-3.784l2.195,-3.951c0.412,-0.913 0.824,-1.797 1.238,-2.654c0.414,-0.856 0.825,-1.797 1.232,-2.821c0.313,-0.572 0.596,-1.2 0.849,-1.882c0.253,-0.682 0.478,-1.363 0.675,-2.043Z" style="fill-rule:nonzero;"/><path d="M411.713,128.589c-1.61,1.744 -3.241,2.985 -4.892,3.723c-1.556,0.286 -2.929,0.257 -4.119,-0.088c-1.19,-0.344 -2.355,-0.774 -3.496,-1.289c-0.688,-0.42 -1.159,-0.989 -1.412,-1.707c-0.252,-0.718 -0.504,-1.408 -0.754,-2.07c-0.005,-0.112 0.033,-0.562 0.114,-1.349c-0.013,-0.335 0.003,-0.616 0.05,-0.842c0.047,-0.226 0.066,-0.451 0.058,-0.674c0.067,-1.123 0.246,-2.25 0.537,-3.382c0.291,-1.131 0.579,-2.319 0.866,-3.562c0.707,-1.933 1.579,-3.928 2.618,-5.985c0.724,-1.485 1.477,-2.971 2.258,-4.458c0.781,-1.487 1.645,-2.978 2.594,-4.472c0.425,-0.577 0.85,-1.154 1.275,-1.731c0.425,-0.576 0.794,-1.151 1.107,-1.724c1.584,-2.415 3.295,-4.443 5.134,-6.084c0.635,-0.922 1.358,-1.763 2.168,-2.523c0.809,-0.76 1.648,-1.494 2.516,-2.2c0.756,-0.702 1.74,-1.302 2.952,-1.798c1.767,-0.63 3.561,-0.59 5.382,0.122c1.136,0.402 2.052,0.926 2.75,1.57c0.005,0.112 0.295,0.38 0.872,0.805c0.34,0.099 0.615,-0.024 0.826,-0.369c0.098,-0.34 0.251,-0.71 0.459,-1.11c0.208,-0.4 0.418,-0.773 0.628,-1.117c0.42,-0.689 0.968,-0.991 1.644,-0.906c0.34,0.099 0.65,0.143 0.929,0.131c0.28,-0.011 0.589,0.033 0.929,0.131c0.676,0.086 1.246,0.343 1.711,0.772c0.582,0.537 0.961,0.914 1.137,1.131c0.177,0.217 0.449,0.71 0.815,1.48c0.009,0.223 -0.141,0.677 -0.449,1.362c-0.622,1.256 -1.16,2.51 -1.615,3.76c-0.454,1.25 -0.938,2.446 -1.453,3.586c-0.407,1.024 -0.786,2.047 -1.138,3.069l-3.205,10.209c-0.403,1.136 -0.694,2.267 -0.873,3.394c-0.179,1.128 -0.358,2.255 -0.537,3.382l-0.343,4.046c0.014,0.335 0.026,0.643 0.037,0.922c0.011,0.28 0.079,0.585 0.205,0.916c0.031,0.783 0.485,0.933 1.361,0.45c0.761,-0.59 1.494,-1.18 2.198,-1.768c0.705,-0.588 1.381,-1.175 2.03,-1.761c0.434,-0.353 0.839,-0.733 1.215,-1.14c0.375,-0.407 0.724,-0.785 1.046,-1.134c0.43,-0.465 0.858,-0.958 1.286,-1.479c0.427,-0.521 0.799,-1.012 1.117,-1.473c2.134,-2.661 4.27,-5.266 6.409,-7.815c2.138,-2.55 4.219,-5.153 6.241,-7.809c0.751,-0.814 1.452,-1.514 2.1,-2.1c0.318,-0.461 0.703,-0.644 1.154,-0.55c0.564,0.09 1.073,0.209 1.527,0.359c0.454,0.15 0.909,0.328 1.365,0.534c0,-0 0.233,0.215 0.698,0.644l-1.255,2.234c-0.962,1.158 -1.866,2.371 -2.712,3.636c-0.845,1.266 -1.749,2.478 -2.711,3.636c-1.816,2.201 -3.606,4.372 -5.368,6.515c-1.763,2.142 -3.497,4.311 -5.201,6.507l-3.879,3.851c-0.971,0.934 -2.391,1.831 -4.261,2.69c-0.326,0.237 -0.657,0.362 -0.993,0.375c-2.013,0.08 -3.643,-0.079 -4.891,-0.477c-0.684,-0.309 -1.083,-0.461 -1.194,-0.456c-1.016,-0.184 -1.823,-0.768 -2.422,-1.752c-0.948,-1.306 -1.449,-2.63 -1.503,-3.972c-0.026,-0.671 -0.053,-1.342 -0.08,-2.013c-0.027,-0.671 0.056,-1.402 0.249,-2.194c0.107,-0.116 0.1,-0.284 -0.02,-0.503c-0.031,-0.783 0.094,-1.852 0.376,-3.207c-0.004,-0.112 -0.065,-0.222 -0.181,-0.329c-0.112,0.004 -0.222,0.065 -0.329,0.181l-0.161,0.174l-1.913,2.597l-1.744,2.589l-1.913,2.597c-0.43,0.465 -0.83,0.957 -1.201,1.476c-0.372,0.518 -0.714,1.064 -1.027,1.637c-0.421,0.688 -1.011,1.328 -1.772,1.918c-0.537,0.582 -1.179,1.335 -1.926,2.261Zm13.377,-31.11c0.076,-0.899 0.208,-1.8 0.396,-2.704c0.188,-0.904 0.211,-1.744 0.068,-2.523c-0.009,-0.223 -0.047,-0.474 -0.114,-0.751c-0.067,-0.278 -0.105,-0.528 -0.114,-0.752c-0,0 -0.007,-0.167 -0.02,-0.503c-0.125,-0.331 -0.461,-0.318 -1.007,0.04c-1.203,0.72 -2.286,1.659 -3.247,2.818c-1.07,1.274 -2.111,2.548 -3.124,3.82c-1.014,1.273 -1.941,2.598 -2.782,3.975c-1.056,1.61 -2.082,3.275 -3.077,4.995c-0.996,1.72 -1.905,3.492 -2.728,5.317c-0.725,1.485 -1.395,2.94 -2.01,4.364c-0.616,1.425 -1.174,2.875 -1.675,4.351c-0.3,0.908 -0.545,1.786 -0.735,2.633c-0.19,0.848 -0.382,1.668 -0.574,2.459c0.004,0.112 0.076,0.501 0.214,1.168c0.018,0.447 0.244,0.494 0.678,0.141c0.429,-0.465 0.915,-0.933 1.456,-1.402c0.541,-0.47 1.025,-0.993 1.45,-1.57c0.859,-0.93 1.688,-1.887 2.489,-2.871c0.801,-0.984 1.573,-1.995 2.316,-3.033c0.429,-0.465 0.697,-0.755 0.805,-0.872c0.201,-0.568 0.489,-1.083 0.862,-1.546c0.374,-0.463 0.719,-0.925 1.037,-1.386c0.215,-0.232 0.43,-0.465 0.644,-0.697c0.215,-0.233 0.374,-0.463 0.477,-0.691c0.416,-0.801 0.917,-1.577 1.503,-2.328c0.586,-0.752 1.141,-1.586 1.664,-2.503c0.631,-1.033 1.289,-2.095 1.973,-3.186c0.685,-1.092 1.34,-2.21 1.967,-3.355c0.42,-0.689 0.731,-1.317 0.933,-1.885c-0.014,-0.336 0.003,-0.616 0.05,-0.842c0.047,-0.226 0.122,-0.453 0.225,-0.681Z" style="fill-rule:nonzero;"/></g><g><path d="M103.326,265.933c-0,-1.94 0.485,-3.737 1.455,-5.391c0.97,-1.654 2.277,-2.97 3.921,-3.951c1.644,-0.98 3.436,-1.47 5.376,-1.47c1.941,0 3.743,0.49 5.407,1.47c1.663,0.981 2.98,2.297 3.95,3.951c0.97,1.654 1.456,3.451 1.456,5.391c-0,1.941 -0.486,3.738 -1.456,5.392c-0.97,1.653 -2.287,2.96 -3.95,3.92c-1.664,0.961 -3.466,1.441 -5.407,1.441c-1.96,0 -3.762,-0.465 -5.406,-1.396c-1.643,-0.931 -2.945,-2.218 -3.906,-3.861c-0.96,-1.644 -1.44,-3.476 -1.44,-5.496Zm1.485,0.03c-0,1.683 0.416,3.238 1.247,4.664c0.832,1.425 1.951,2.559 3.357,3.401c1.406,0.841 2.95,1.262 4.634,1.262c1.703,0 3.272,-0.416 4.708,-1.248c1.435,-0.831 2.569,-1.965 3.401,-3.401c0.832,-1.435 1.247,-3.005 1.247,-4.708c0,-1.703 -0.42,-3.272 -1.262,-4.708c-0.842,-1.436 -1.975,-2.579 -3.401,-3.431c-1.426,-0.851 -2.98,-1.277 -4.664,-1.277c-1.703,0 -3.267,0.431 -4.693,1.292c-1.426,0.862 -2.544,2.015 -3.356,3.461c-0.812,1.445 -1.218,3.01 -1.218,4.693Z" style="fill:#fff;fill-rule:nonzero;"/><path d="M132.287,276.686c-0.753,0 -1.48,-0.129 -2.183,-0.386c-0.703,-0.257 -1.273,-0.654 -1.708,-1.188l0.653,-0.921c0.396,0.416 0.872,0.748 1.426,0.995c0.554,0.248 1.129,0.371 1.723,0.371c0.752,0 1.386,-0.173 1.901,-0.519c0.515,-0.347 0.772,-0.887 0.772,-1.619c0,-0.515 -0.138,-0.926 -0.416,-1.233c-0.277,-0.307 -0.594,-0.535 -0.95,-0.683c-0.357,-0.149 -0.931,-0.352 -1.723,-0.609c-0.931,-0.317 -1.649,-0.718 -2.154,-1.203c-0.505,-0.485 -0.757,-1.134 -0.757,-1.946c-0,-0.95 0.332,-1.718 0.995,-2.302c0.663,-0.584 1.51,-0.876 2.54,-0.876c1.426,-0 2.584,0.436 3.475,1.307l-0.624,0.98c-0.297,-0.396 -0.688,-0.683 -1.173,-0.861c-0.485,-0.179 -0.975,-0.278 -1.47,-0.297c-0.594,-0 -1.134,0.163 -1.619,0.49c-0.485,0.327 -0.728,0.787 -0.728,1.381c0,0.614 0.218,1.074 0.654,1.381c0.435,0.307 1.099,0.619 1.99,0.936c1.089,0.356 1.921,0.757 2.495,1.203c0.574,0.445 0.861,1.124 0.861,2.035c0,1.069 -0.341,1.93 -1.025,2.584c-0.683,0.653 -1.668,0.98 -2.955,0.98Z" style="fill:#fff;fill-rule:nonzero;"/><path d="M154.921,264.507c1.09,0 1.961,0.317 2.614,0.951c0.654,0.634 1,1.475 1.04,2.525l-0,8.465l-1.396,0l-0,-8.168c-0.04,-0.713 -0.272,-1.307 -0.698,-1.782c-0.426,-0.476 -1.045,-0.733 -1.857,-0.773c-0.772,0 -1.485,0.198 -2.138,0.594c-0.654,0.396 -1.184,0.926 -1.59,1.59c-0.405,0.663 -0.628,1.391 -0.668,2.183l0,6.356l-1.396,0l0,-8.168c-0.04,-0.713 -0.277,-1.307 -0.713,-1.782c-0.435,-0.476 -1.059,-0.733 -1.871,-0.773c-0.772,0 -1.495,0.198 -2.169,0.594c-0.673,0.396 -1.208,0.941 -1.604,1.634c-0.396,0.693 -0.594,1.446 -0.594,2.258l0,6.237l-1.396,0l0,-11.614l1.218,0l0.119,2.555c0.436,-0.891 1.089,-1.594 1.96,-2.109c0.872,-0.515 1.822,-0.773 2.852,-0.773c0.931,0 1.733,0.253 2.406,0.758c0.673,0.505 1.069,1.153 1.188,1.946c0.456,-0.852 1.104,-1.515 1.946,-1.991c0.841,-0.475 1.757,-0.713 2.747,-0.713Z" style="fill:#fff;fill-rule:nonzero;"/><path d="M175.18,264.834l-0,11.614l-1.397,0l0,-2.465c-0.455,0.753 -1.148,1.391 -2.079,1.916c-0.931,0.525 -1.941,0.787 -3.03,0.787c-1.109,0 -2.114,-0.252 -3.015,-0.757c-0.901,-0.505 -1.614,-1.218 -2.138,-2.139c-0.525,-0.921 -0.787,-1.975 -0.787,-3.163c-0,-1.268 0.272,-2.362 0.816,-3.283c0.545,-0.921 1.297,-1.629 2.258,-2.124c0.96,-0.495 2.045,-0.742 3.252,-0.742c0.951,-0 1.862,0.267 2.733,0.802c0.872,0.534 1.535,1.228 1.99,2.079l0.149,-2.525l1.248,0Zm-6.209,10.664c1.307,-0 2.416,-0.406 3.327,-1.218c0.911,-0.812 1.406,-1.851 1.485,-3.119l0,-1.663c-0.237,-1.089 -0.811,-2 -1.722,-2.733c-0.911,-0.733 -1.951,-1.099 -3.119,-1.099c-0.891,-0 -1.703,0.203 -2.436,0.609c-0.733,0.406 -1.312,0.98 -1.738,1.723c-0.425,0.742 -0.638,1.599 -0.638,2.569c-0,0.891 0.217,1.713 0.653,2.466c0.436,0.752 1.025,1.351 1.768,1.797c0.742,0.445 1.549,0.668 2.42,0.668Z" style="fill:#fff;fill-rule:nonzero;"/><path d="M186.705,264.507c1.069,0 1.94,0.322 2.614,0.966c0.673,0.643 1.029,1.48 1.069,2.51l-0,8.465l-1.426,0l0,-8.079c-0.039,-0.772 -0.287,-1.401 -0.742,-1.886c-0.456,-0.485 -1.109,-0.738 -1.961,-0.758c-0.792,0 -1.52,0.188 -2.183,0.565c-0.664,0.376 -1.198,0.906 -1.604,1.589c-0.406,0.683 -0.609,1.46 -0.609,2.332l-0,6.237l-1.396,0l-0,-11.614l1.218,0l0.119,2.584c0.376,-0.891 1.014,-1.599 1.915,-2.123c0.901,-0.525 1.897,-0.788 2.986,-0.788Z" style="fill:#fff;fill-rule:nonzero;"/><path d="M207.141,264.834l0,11.793c0,1.584 -0.52,2.896 -1.559,3.935c-1.04,1.04 -2.619,1.56 -4.738,1.56c-1.01,-0 -1.941,-0.183 -2.792,-0.55c-0.852,-0.366 -1.723,-0.975 -2.614,-1.826l0.831,-0.951c0.792,0.772 1.555,1.312 2.288,1.619c0.732,0.307 1.475,0.46 2.227,0.46c1.703,0 2.941,-0.386 3.713,-1.158c0.773,-0.772 1.179,-1.812 1.218,-3.119l0.03,-2.733c-0.515,0.852 -1.243,1.535 -2.183,2.05c-0.941,0.515 -1.966,0.772 -3.075,0.772c-1.089,0 -2.084,-0.267 -2.985,-0.802c-0.901,-0.535 -1.619,-1.267 -2.153,-2.198c-0.535,-0.931 -0.802,-1.96 -0.802,-3.089c-0,-1.169 0.277,-2.218 0.831,-3.149c0.555,-0.931 1.307,-1.658 2.258,-2.183c0.95,-0.525 2,-0.787 3.148,-0.787c1.01,-0 1.981,0.252 2.911,0.757c0.931,0.505 1.624,1.174 2.08,2.005l0.118,-2.406l1.248,0Zm-6.297,10.664c0.851,-0 1.638,-0.193 2.361,-0.579c0.723,-0.386 1.312,-0.906 1.768,-1.56c0.455,-0.653 0.713,-1.356 0.772,-2.109l-0,-1.723c-0.238,-1.128 -0.817,-2.054 -1.738,-2.777c-0.921,-0.723 -1.975,-1.084 -3.163,-1.084c-0.911,-0 -1.743,0.208 -2.495,0.624c-0.753,0.416 -1.342,0.995 -1.768,1.737c-0.426,0.743 -0.638,1.59 -0.638,2.54c-0,0.891 0.217,1.713 0.653,2.466c0.436,0.752 1.03,1.351 1.782,1.797c0.753,0.445 1.575,0.668 2.466,0.668Z" style="fill:#fff;fill-rule:nonzero;"/><path d="M223.746,264.834l-0,11.614l-1.397,0l0,-2.465c-0.455,0.753 -1.148,1.391 -2.079,1.916c-0.931,0.525 -1.94,0.787 -3.03,0.787c-1.109,0 -2.114,-0.252 -3.015,-0.757c-0.901,-0.505 -1.613,-1.218 -2.138,-2.139c-0.525,-0.921 -0.787,-1.975 -0.787,-3.163c-0,-1.268 0.272,-2.362 0.816,-3.283c0.545,-0.921 1.298,-1.629 2.258,-2.124c0.96,-0.495 2.045,-0.742 3.253,-0.742c0.95,-0 1.861,0.267 2.732,0.802c0.872,0.534 1.535,1.228 1.99,2.079l0.149,-2.525l1.248,0Zm-6.209,10.664c1.307,-0 2.416,-0.406 3.327,-1.218c0.911,-0.812 1.406,-1.851 1.485,-3.119l0,-1.663c-0.237,-1.089 -0.811,-2 -1.722,-2.733c-0.911,-0.733 -1.951,-1.099 -3.119,-1.099c-0.891,-0 -1.703,0.203 -2.436,0.609c-0.733,0.406 -1.312,0.98 -1.738,1.723c-0.425,0.742 -0.638,1.599 -0.638,2.569c-0,0.891 0.218,1.713 0.653,2.466c0.436,0.752 1.025,1.351 1.768,1.797c0.742,0.445 1.549,0.668 2.42,0.668Z" style="fill:#fff;fill-rule:nonzero;"/><path d="M229.835,275.26l7.218,0l-0,1.188l-9.594,0l7.366,-10.455l-5.495,-0c-1.188,-0 -1.782,-0.565 -1.782,-1.693l-0,-0.565l1.099,0l-0,0.357c-0,0.495 0.336,0.742 1.01,0.742l7.515,0l-7.337,10.426Z" style="fill:#fff;fill-rule:nonzero;"/><path d="M242.429,264.834l0,11.614l-1.396,0l0,-11.614l1.396,0Zm-1.693,-4.277c0,-0.277 0.104,-0.51 0.312,-0.698c0.208,-0.188 0.451,-0.282 0.728,-0.282c0.277,-0 0.515,0.094 0.713,0.282c0.198,0.188 0.297,0.421 0.297,0.698c-0,0.297 -0.099,0.539 -0.297,0.728c-0.198,0.188 -0.436,0.282 -0.713,0.282c-0.277,-0 -0.52,-0.099 -0.728,-0.297c-0.208,-0.198 -0.312,-0.436 -0.312,-0.713Z" style="fill:#fff;fill-rule:nonzero;"/><path d="M265.45,265.725c1.267,0.377 2.292,1.01 3.074,1.901c0.783,0.892 1.174,1.961 1.174,3.208c-0,1.208 -0.307,2.238 -0.921,3.09c-0.614,0.851 -1.426,1.485 -2.436,1.901c-1.01,0.416 -2.109,0.623 -3.297,0.623l-5.495,0l-0,-21.089l4.663,-0c4.278,-0 6.416,1.782 6.416,5.346c0,1.169 -0.272,2.194 -0.817,3.075c-0.544,0.881 -1.331,1.529 -2.361,1.945Zm-6.446,-0.505l3.891,0c1.426,0 2.491,-0.386 3.194,-1.158c0.703,-0.772 1.054,-1.802 1.054,-3.089c0,-1.446 -0.426,-2.51 -1.277,-3.193c-0.852,-0.684 -2.05,-1.025 -3.594,-1.025l-3.268,-0l0,8.465Zm3.981,9.892c1.505,-0 2.752,-0.367 3.742,-1.099c0.99,-0.733 1.485,-1.773 1.485,-3.119c0,-1.426 -0.529,-2.495 -1.589,-3.208c-1.059,-0.713 -2.302,-1.07 -3.728,-1.07l-3.891,0l0,8.496l3.981,-0Z" style="fill:#fff;fill-rule:nonzero;"/><path d="M279.441,275.468c1.247,0 2.376,-0.425 3.386,-1.277l0.713,1.01c-0.575,0.455 -1.223,0.817 -1.946,1.084c-0.723,0.267 -1.45,0.401 -2.183,0.401c-1.188,0 -2.253,-0.267 -3.193,-0.802c-0.941,-0.535 -1.674,-1.262 -2.198,-2.183c-0.525,-0.921 -0.788,-1.956 -0.788,-3.104c0,-1.109 0.278,-2.134 0.832,-3.075c0.555,-0.94 1.307,-1.688 2.258,-2.242c0.95,-0.555 1.99,-0.832 3.119,-0.832c1.346,0 2.495,0.396 3.445,1.188c0.951,0.792 1.644,1.862 2.08,3.208l-9.922,3.832c0.377,0.832 0.956,1.505 1.738,2.02c0.782,0.515 1.668,0.772 2.659,0.772Zm-0.09,-9.832c-0.871,0 -1.673,0.218 -2.406,0.654c-0.732,0.435 -1.307,1.025 -1.722,1.767c-0.416,0.743 -0.624,1.569 -0.624,2.48c-0,0.416 0.039,0.783 0.119,1.099l8.554,-3.356c-0.376,-0.792 -0.901,-1.431 -1.574,-1.916c-0.673,-0.485 -1.455,-0.728 -2.347,-0.728Z" style="fill:#fff;fill-rule:nonzero;"/><rect x="288.827" y="253.873" width="1.396" height="22.575" style="fill:#fff;fill-rule:nonzero;"/><path d="M300.59,275.468c1.247,0 2.376,-0.425 3.386,-1.277l0.713,1.01c-0.574,0.455 -1.223,0.817 -1.946,1.084c-0.722,0.267 -1.45,0.401 -2.183,0.401c-1.188,0 -2.252,-0.267 -3.193,-0.802c-0.941,-0.535 -1.673,-1.262 -2.198,-2.183c-0.525,-0.921 -0.787,-1.956 -0.787,-3.104c-0,-1.109 0.277,-2.134 0.831,-3.075c0.555,-0.94 1.307,-1.688 2.258,-2.242c0.95,-0.555 1.99,-0.832 3.119,-0.832c1.346,0 2.495,0.396 3.445,1.188c0.951,0.792 1.644,1.862 2.08,3.208l-9.921,3.832c0.376,0.832 0.955,1.505 1.737,2.02c0.783,0.515 1.669,0.772 2.659,0.772Zm-0.089,-9.832c-0.872,0 -1.674,0.218 -2.406,0.654c-0.733,0.435 -1.307,1.025 -1.723,1.767c-0.416,0.743 -0.624,1.569 -0.624,2.48c0,0.416 0.04,0.783 0.119,1.099l8.555,-3.356c-0.377,-0.792 -0.901,-1.431 -1.575,-1.916c-0.673,-0.485 -1.455,-0.728 -2.346,-0.728Z" style="fill:#fff;fill-rule:nonzero;"/><path d="M321.383,253.873l-0,22.575l-1.426,0l-0,-2.406c-0.535,0.793 -1.268,1.431 -2.198,1.916c-0.931,0.486 -1.941,0.728 -3.03,0.728c-1.089,0 -2.084,-0.262 -2.985,-0.787c-0.901,-0.525 -1.609,-1.258 -2.124,-2.198c-0.515,-0.941 -0.772,-1.985 -0.772,-3.134c-0,-1.208 0.267,-2.277 0.802,-3.208c0.534,-0.931 1.257,-1.644 2.168,-2.139c0.911,-0.495 1.931,-0.742 3.059,-0.742c1.01,-0 1.986,0.247 2.926,0.742c0.941,0.495 1.669,1.149 2.184,1.961l-0,-13.308l1.396,0Zm-6.298,21.595c1.327,0 2.446,-0.416 3.357,-1.247c0.911,-0.832 1.416,-1.882 1.515,-3.149l-0,-1.485c-0.218,-1.129 -0.787,-2.07 -1.708,-2.822c-0.921,-0.753 -1.975,-1.129 -3.164,-1.129c-0.891,0 -1.703,0.208 -2.435,0.624c-0.733,0.416 -1.317,0.995 -1.753,1.738c-0.436,0.742 -0.653,1.589 -0.653,2.539c-0,0.892 0.217,1.713 0.653,2.466c0.436,0.752 1.025,1.351 1.767,1.797c0.743,0.445 1.55,0.668 2.421,0.668Z" style="fill:#fff;fill-rule:nonzero;"/><path d="M328.066,264.834l0,11.614l-1.396,0l-0,-11.614l1.396,0Zm-1.693,-4.277c-0,-0.277 0.104,-0.51 0.312,-0.698c0.208,-0.188 0.45,-0.282 0.728,-0.282c0.277,-0 0.514,0.094 0.712,0.282c0.198,0.188 0.297,0.421 0.297,0.698c0,0.297 -0.099,0.539 -0.297,0.728c-0.198,0.188 -0.435,0.282 -0.712,0.282c-0.278,-0 -0.52,-0.099 -0.728,-0.297c-0.208,-0.198 -0.312,-0.436 -0.312,-0.713Z" style="fill:#fff;fill-rule:nonzero;"/><path d="M343.364,264.834l-7.486,17.199l-1.455,-0l2.495,-5.703l-5.377,-11.496l1.575,0l4.515,9.892l4.366,-9.892l1.367,0Z" style="fill:#fff;fill-rule:nonzero;"/><path d="M351.77,275.468c1.247,0 2.376,-0.425 3.386,-1.277l0.713,1.01c-0.574,0.455 -1.223,0.817 -1.946,1.084c-0.722,0.267 -1.45,0.401 -2.183,0.401c-1.188,0 -2.252,-0.267 -3.193,-0.802c-0.941,-0.535 -1.673,-1.262 -2.198,-2.183c-0.525,-0.921 -0.787,-1.956 -0.787,-3.104c-0,-1.109 0.277,-2.134 0.831,-3.075c0.555,-0.94 1.307,-1.688 2.258,-2.242c0.95,-0.555 1.99,-0.832 3.119,-0.832c1.346,0 2.495,0.396 3.445,1.188c0.951,0.792 1.644,1.862 2.08,3.208l-9.921,3.832c0.376,0.832 0.955,1.505 1.737,2.02c0.783,0.515 1.669,0.772 2.659,0.772Zm-0.089,-9.832c-0.872,0 -1.674,0.218 -2.406,0.654c-0.733,0.435 -1.307,1.025 -1.723,1.767c-0.416,0.743 -0.624,1.569 -0.624,2.48c0,0.416 0.04,0.783 0.119,1.099l8.555,-3.356c-0.377,-0.792 -0.901,-1.431 -1.575,-1.916c-0.673,-0.485 -1.455,-0.728 -2.346,-0.728Z" style="fill:#fff;fill-rule:nonzero;"/><path d="M378.89,265.725c1.267,0.377 2.292,1.01 3.074,1.901c0.782,0.892 1.173,1.961 1.173,3.208c0,1.208 -0.307,2.238 -0.921,3.09c-0.613,0.851 -1.425,1.485 -2.435,1.901c-1.01,0.416 -2.109,0.623 -3.297,0.623l-5.496,0l0,-21.089l4.664,-0c4.277,-0 6.416,1.782 6.416,5.346c-0,1.169 -0.272,2.194 -0.817,3.075c-0.545,0.881 -1.332,1.529 -2.361,1.945Zm-6.446,-0.505l3.891,0c1.426,0 2.49,-0.386 3.193,-1.158c0.703,-0.772 1.055,-1.802 1.055,-3.089c-0,-1.446 -0.426,-2.51 -1.278,-3.193c-0.851,-0.684 -2.049,-1.025 -3.594,-1.025l-3.267,-0l-0,8.465Zm3.98,9.892c1.505,-0 2.753,-0.367 3.743,-1.099c0.99,-0.733 1.485,-1.773 1.485,-3.119c0,-1.426 -0.53,-2.495 -1.589,-3.208c-1.06,-0.713 -2.302,-1.07 -3.728,-1.07l-3.891,0l-0,8.496l3.98,-0Z" style="fill:#fff;fill-rule:nonzero;"/><path d="M399.118,264.834l0,11.614l-1.396,0l-0,-2.465c-0.456,0.753 -1.149,1.391 -2.079,1.916c-0.931,0.525 -1.941,0.787 -3.03,0.787c-1.109,0 -2.114,-0.252 -3.015,-0.757c-0.901,-0.505 -1.614,-1.218 -2.139,-2.139c-0.525,-0.921 -0.787,-1.975 -0.787,-3.163c0,-1.268 0.272,-2.362 0.817,-3.283c0.544,-0.921 1.297,-1.629 2.257,-2.124c0.961,-0.495 2.045,-0.742 3.253,-0.742c0.951,-0 1.861,0.267 2.733,0.802c0.871,0.534 1.534,1.228 1.99,2.079l0.148,-2.525l1.248,0Zm-6.208,10.664c1.307,-0 2.416,-0.406 3.327,-1.218c0.911,-0.812 1.406,-1.851 1.485,-3.119l-0,-1.663c-0.238,-1.089 -0.812,-2 -1.723,-2.733c-0.911,-0.733 -1.95,-1.099 -3.119,-1.099c-0.891,-0 -1.703,0.203 -2.436,0.609c-0.732,0.406 -1.311,0.98 -1.737,1.723c-0.426,0.742 -0.639,1.599 -0.639,2.569c0,0.891 0.218,1.713 0.654,2.466c0.435,0.752 1.024,1.351 1.767,1.797c0.743,0.445 1.55,0.668 2.421,0.668Z" style="fill:#fff;fill-rule:nonzero;"/><path d="M407.584,278.142c0.99,-0 1.762,0.212 2.317,0.638c0.554,0.426 0.831,1.035 0.831,1.827c0,0.832 -0.331,1.46 -0.995,1.886c-0.663,0.426 -1.51,0.639 -2.54,0.639c-0.594,-0 -1.133,-0.084 -1.618,-0.253c-0.486,-0.168 -0.887,-0.391 -1.203,-0.668l0.505,-0.713c0.514,0.515 1.237,0.772 2.168,0.772c0.713,0 1.297,-0.143 1.753,-0.43c0.455,-0.287 0.683,-0.688 0.683,-1.203c-0,-0.495 -0.188,-0.901 -0.565,-1.218c-0.376,-0.317 -0.94,-0.475 -1.693,-0.475c-0.317,-0 -0.683,0.044 -1.099,0.133c-0.416,0.089 -0.742,0.183 -0.98,0.282l-0.446,-0.742l1.753,-1.961c-0.634,-0.059 -1.233,-0.217 -1.797,-0.475c-0.565,-0.257 -1.035,-0.614 -1.411,-1.069l0.653,-0.921c0.396,0.416 0.872,0.748 1.426,0.995c0.555,0.248 1.129,0.371 1.723,0.371c0.752,0 1.386,-0.173 1.901,-0.519c0.515,-0.347 0.772,-0.887 0.772,-1.619c0,-0.515 -0.138,-0.926 -0.416,-1.233c-0.277,-0.307 -0.594,-0.535 -0.95,-0.683c-0.357,-0.149 -0.931,-0.352 -1.723,-0.609c-0.931,-0.317 -1.648,-0.718 -2.153,-1.203c-0.505,-0.485 -0.758,-1.134 -0.758,-1.946c0,-0.95 0.332,-1.718 0.995,-2.302c0.664,-0.584 1.51,-0.876 2.54,-0.876c1.426,-0 2.584,0.436 3.475,1.307l-0.624,0.98c-0.297,-0.396 -0.688,-0.683 -1.173,-0.861c-0.485,-0.179 -0.975,-0.278 -1.47,-0.297c-0.594,-0 -1.134,0.163 -1.619,0.49c-0.485,0.327 -0.728,0.787 -0.728,1.381c0,0.614 0.218,1.074 0.654,1.381c0.435,0.307 1.099,0.619 1.99,0.936c1.089,0.356 1.921,0.757 2.495,1.203c0.574,0.445 0.861,1.124 0.861,2.035c0,0.99 -0.292,1.802 -0.876,2.435c-0.584,0.634 -1.421,1 -2.51,1.099l-1.307,1.604c0.337,-0.079 0.723,-0.118 1.159,-0.118Z" style="fill:#fff;fill-rule:nonzero;"/><path d="M418.693,270.092l-1.961,1.723l0,4.633l-1.396,0l0,-22.575l1.396,0l0,16.427l6.506,-5.703l0.861,0.742l-4.456,3.921l5.169,7.188l-1.634,0l-4.485,-6.356Z" style="fill:#fff;fill-rule:nonzero;"/><path d="M439.961,264.834l0,11.614l-1.396,0l-0,-2.465c-0.456,0.753 -1.149,1.391 -2.079,1.916c-0.931,0.525 -1.941,0.787 -3.03,0.787c-1.109,0 -2.114,-0.252 -3.015,-0.757c-0.901,-0.505 -1.614,-1.218 -2.139,-2.139c-0.525,-0.921 -0.787,-1.975 -0.787,-3.163c0,-1.268 0.272,-2.362 0.817,-3.283c0.544,-0.921 1.297,-1.629 2.257,-2.124c0.961,-0.495 2.045,-0.742 3.253,-0.742c0.951,-0 1.861,0.267 2.733,0.802c0.871,0.534 1.534,1.228 1.99,2.079l0.148,-2.525l1.248,0Zm-6.208,10.664c1.307,-0 2.416,-0.406 3.327,-1.218c0.911,-0.812 1.406,-1.851 1.485,-3.119l-0,-1.663c-0.238,-1.089 -0.812,-2 -1.723,-2.733c-0.911,-0.733 -1.95,-1.099 -3.119,-1.099c-0.891,-0 -1.703,0.203 -2.436,0.609c-0.732,0.406 -1.311,0.98 -1.737,1.723c-0.426,0.742 -0.639,1.599 -0.639,2.569c0,0.891 0.218,1.713 0.654,2.466c0.435,0.752 1.024,1.351 1.767,1.797c0.743,0.445 1.55,0.668 2.421,0.668Z" style="fill:#fff;fill-rule:nonzero;"/><path d="M451.486,264.507c1.07,0 1.941,0.322 2.614,0.966c0.673,0.643 1.03,1.48 1.069,2.51l0,8.465l-1.425,0l-0,-8.079c-0.04,-0.772 -0.287,-1.401 -0.743,-1.886c-0.455,-0.485 -1.109,-0.738 -1.96,-0.758c-0.793,0 -1.52,0.188 -2.184,0.565c-0.663,0.376 -1.198,0.906 -1.604,1.589c-0.406,0.683 -0.609,1.46 -0.609,2.332l0,6.237l-1.396,0l0,-11.614l1.218,0l0.119,2.584c0.376,-0.891 1.015,-1.599 1.916,-2.123c0.901,-0.525 1.896,-0.788 2.985,-0.788Z" style="fill:#fff;fill-rule:nonzero;"/><rect x="460.457" y="264.834" width="1.396" height="11.614" style="fill:#fff;fill-rule:nonzero;"/></g><g><path d="M701.329,176.191c-0.529,0 -1.154,-0.024 -1.876,-0.072c-0.721,-0.048 -1.25,-0.096 -1.586,-0.144l-2.525,17.31l-13.559,-0l7.14,-50.415c1.924,-0.673 4.292,-1.214 7.104,-1.623c2.813,-0.409 5.662,-0.613 8.547,-0.613c2.597,-0 4.977,0.433 7.14,1.298c2.164,0.866 4.003,2.032 5.518,3.498c1.515,1.467 2.693,3.198 3.534,5.193c0.841,1.996 1.262,4.123 1.262,6.383c0,2.693 -0.553,5.205 -1.659,7.537c-1.106,2.332 -2.596,4.364 -4.471,6.095c-1.876,1.731 -4.063,3.089 -6.564,4.075c-2.5,0.985 -5.169,1.478 -8.005,1.478Zm-1.876,-11.756c0.337,0.096 0.806,0.156 1.407,0.18c0.601,0.024 1.118,0.036 1.55,0.036c0.914,0 1.767,-0.192 2.561,-0.577c0.793,-0.384 1.49,-0.901 2.091,-1.55c0.601,-0.649 1.07,-1.395 1.407,-2.236c0.336,-0.842 0.505,-1.719 0.505,-2.633c-0,-1.394 -0.397,-2.56 -1.19,-3.498c-0.794,-0.937 -2.008,-1.406 -3.643,-1.406c-0.384,-0 -0.877,0.036 -1.478,0.108c-0.601,0.072 -1.142,0.204 -1.623,0.397l-1.587,11.179Z" style="fill-rule:nonzero;"/><path d="M738.328,159.747l-0.433,3.462c0.337,-0.385 0.794,-0.854 1.371,-1.407c0.577,-0.553 1.238,-1.081 1.983,-1.586c0.746,-0.505 1.563,-0.938 2.452,-1.299c0.89,-0.36 1.84,-0.54 2.849,-0.54c0.962,-0 1.828,0.096 2.597,0.288c0.769,0.192 1.442,0.433 2.019,0.721c0.577,0.289 1.046,0.577 1.407,0.866c0.36,0.288 0.589,0.505 0.685,0.649l-6.78,10.241c-0.192,-0.24 -0.601,-0.54 -1.226,-0.901c-0.625,-0.361 -1.707,-0.541 -3.245,-0.541c-0.722,-0 -1.383,0.144 -1.984,0.433c-0.601,0.288 -1.142,0.649 -1.623,1.082c-0.48,0.432 -0.889,0.877 -1.226,1.334c-0.336,0.457 -0.601,0.853 -0.793,1.19l-2.741,19.546l-12.766,-0l4.688,-33.538l12.766,-0Z" style="fill-rule:nonzero;"/><path d="M749.94,178.499c0,-2.693 0.577,-5.253 1.731,-7.681c1.154,-2.428 2.729,-4.568 4.724,-6.419c1.996,-1.851 4.34,-3.318 7.032,-4.4c2.693,-1.082 5.578,-1.622 8.655,-1.622c2.597,-0 4.953,0.42 7.068,1.262c2.116,0.841 3.931,1.995 5.446,3.462c1.514,1.466 2.68,3.173 3.498,5.12c0.817,1.948 1.226,4.027 1.226,6.239c-0,2.741 -0.589,5.325 -1.767,7.754c-1.178,2.428 -2.777,4.555 -4.796,6.383c-2.02,1.827 -4.388,3.269 -7.105,4.327c-2.716,1.058 -5.613,1.587 -8.69,1.587c-2.597,-0 -4.941,-0.421 -7.033,-1.262c-2.091,-0.842 -3.87,-1.984 -5.337,-3.426c-1.466,-1.443 -2.608,-3.138 -3.426,-5.085c-0.817,-1.947 -1.226,-4.027 -1.226,-6.239Zm12.838,-1.082c0,1.924 0.589,3.45 1.767,4.58c1.178,1.13 2.537,1.695 4.075,1.695c0.962,0 1.912,-0.204 2.849,-0.613c0.938,-0.409 1.767,-0.986 2.489,-1.731c0.721,-0.745 1.31,-1.623 1.767,-2.632c0.456,-1.01 0.685,-2.116 0.685,-3.318c-0,-1.875 -0.577,-3.366 -1.731,-4.472c-1.154,-1.106 -2.501,-1.659 -4.039,-1.659c-0.962,0 -1.911,0.193 -2.849,0.577c-0.938,0.385 -1.779,0.938 -2.524,1.659c-0.746,0.721 -1.347,1.587 -1.804,2.597c-0.456,1.009 -0.685,2.115 -0.685,3.317Z" style="fill-rule:nonzero;"/><path d="M797.037,159.675l12.766,-0l-6.996,49.693l-12.766,0l6.996,-49.693Zm1.082,-12.189c0,-1.01 0.204,-1.96 0.613,-2.849c0.409,-0.89 0.974,-1.683 1.695,-2.38c0.721,-0.697 1.575,-1.25 2.56,-1.659c0.986,-0.409 2.056,-0.613 3.21,-0.613c1.971,-0 3.498,0.577 4.58,1.731c1.082,1.154 1.623,2.548 1.623,4.183c-0,1.01 -0.205,1.959 -0.613,2.849c-0.409,0.889 -0.974,1.683 -1.695,2.38c-0.722,0.697 -1.575,1.238 -2.561,1.623c-0.985,0.384 -2.079,0.577 -3.281,0.577c-1.924,-0 -3.426,-0.565 -4.508,-1.695c-1.082,-1.13 -1.623,-2.512 -1.623,-4.147Z" style="fill-rule:nonzero;"/><path d="M842.331,190.544c-0.481,0.336 -1.106,0.733 -1.875,1.19c-0.769,0.457 -1.671,0.889 -2.705,1.298c-1.033,0.409 -2.199,0.757 -3.498,1.046c-1.298,0.288 -2.716,0.433 -4.255,0.433c-2.5,-0 -4.796,-0.409 -6.888,-1.226c-2.091,-0.818 -3.895,-1.936 -5.409,-3.354c-1.515,-1.419 -2.693,-3.114 -3.534,-5.085c-0.842,-1.971 -1.262,-4.111 -1.262,-6.419c-0,-2.885 0.613,-5.554 1.839,-8.006c1.226,-2.452 2.837,-4.568 4.832,-6.347c1.995,-1.779 4.255,-3.173 6.78,-4.183c2.524,-1.01 5.084,-1.514 7.681,-1.514c2.26,-0 4.315,0.36 6.167,1.081c1.851,0.722 3.449,1.683 4.796,2.885c1.346,1.202 2.38,2.597 3.101,4.184c0.721,1.586 1.082,3.245 1.082,4.976c-0,1.25 -0.18,2.392 -0.541,3.426c-0.361,1.034 -0.769,1.959 -1.226,2.777c-0.457,0.817 -0.926,1.514 -1.406,2.091c-0.481,0.577 -0.842,1.034 -1.082,1.371l-19.474,-0c0.673,0.913 1.599,1.562 2.777,1.947c1.178,0.385 2.464,0.577 3.859,0.577c1.009,0 2.091,-0.132 3.245,-0.397c1.154,-0.264 1.996,-0.541 2.524,-0.829l4.472,8.078Zm-9.448,-21.349c-1.154,0 -2.344,0.229 -3.57,0.685c-1.226,0.457 -2.272,1.214 -3.138,2.272l11.684,0l0.217,-0.793c0.096,-0.721 -0.373,-1.262 -1.407,-1.623c-1.033,-0.361 -2.296,-0.541 -3.786,-0.541Z" style="fill-rule:nonzero;"/><path d="M859.929,137.244l12.766,0l-5.914,42.048l0,0.073l-0.144,1.009c-0.144,0.962 -0.072,1.767 0.216,2.417c0.289,0.649 0.914,0.973 1.876,0.973c1.394,0 2.548,-0.264 3.462,-0.793l2.596,8.294c-0.288,0.241 -0.733,0.541 -1.334,0.902c-0.601,0.36 -1.323,0.709 -2.164,1.045c-0.841,0.337 -1.815,0.638 -2.921,0.902c-1.106,0.264 -2.308,0.397 -3.606,0.397c-1.731,-0 -3.354,-0.205 -4.869,-0.613c-1.514,-0.409 -2.788,-1.154 -3.822,-2.236c-1.034,-1.082 -1.767,-2.561 -2.2,-4.436c-0.433,-1.875 -0.409,-4.303 0.072,-7.284l0.072,-1.01l5.914,-41.688Z" style="fill-rule:nonzero;"/><path d="M910.056,190.544c-0.481,0.336 -1.106,0.733 -1.876,1.19c-0.769,0.457 -1.67,0.889 -2.704,1.298c-1.034,0.409 -2.2,0.757 -3.498,1.046c-1.298,0.288 -2.717,0.433 -4.256,0.433c-2.5,-0 -4.796,-0.409 -6.887,-1.226c-2.092,-0.818 -3.895,-1.936 -5.41,-3.354c-1.514,-1.419 -2.692,-3.114 -3.534,-5.085c-0.841,-1.971 -1.262,-4.111 -1.262,-6.419c0,-2.885 0.613,-5.554 1.839,-8.006c1.226,-2.452 2.837,-4.568 4.833,-6.347c1.995,-1.779 4.255,-3.173 6.779,-4.183c2.525,-1.01 5.085,-1.514 7.681,-1.514c2.26,-0 4.316,0.36 6.167,1.081c1.851,0.722 3.45,1.683 4.796,2.885c1.347,1.202 2.38,2.597 3.102,4.184c0.721,1.586 1.081,3.245 1.081,4.976c0,1.25 -0.18,2.392 -0.54,3.426c-0.361,1.034 -0.77,1.959 -1.227,2.777c-0.456,0.817 -0.925,1.514 -1.406,2.091c-0.481,0.577 -0.841,1.034 -1.082,1.371l-19.473,-0c0.673,0.913 1.598,1.562 2.776,1.947c1.178,0.385 2.465,0.577 3.859,0.577c1.01,0 2.092,-0.132 3.246,-0.397c1.154,-0.264 1.995,-0.541 2.524,-0.829l4.472,8.078Zm-9.449,-21.349c-1.154,0 -2.344,0.229 -3.57,0.685c-1.226,0.457 -2.272,1.214 -3.137,2.272l11.684,0l0.216,-0.793c0.097,-0.721 -0.372,-1.262 -1.406,-1.623c-1.034,-0.361 -2.296,-0.541 -3.787,-0.541Z" style="fill-rule:nonzero;"/><path d="M937.102,159.747l-0.432,3.462c0.336,-0.385 0.793,-0.854 1.37,-1.407c0.577,-0.553 1.238,-1.081 1.983,-1.586c0.746,-0.505 1.563,-0.938 2.452,-1.299c0.89,-0.36 1.84,-0.54 2.849,-0.54c0.962,-0 1.828,0.096 2.597,0.288c0.769,0.192 1.442,0.433 2.019,0.721c0.577,0.289 1.046,0.577 1.407,0.866c0.36,0.288 0.589,0.505 0.685,0.649l-6.78,10.241c-0.192,-0.24 -0.601,-0.54 -1.226,-0.901c-0.625,-0.361 -1.707,-0.541 -3.245,-0.541c-0.722,-0 -1.383,0.144 -1.984,0.433c-0.601,0.288 -1.142,0.649 -1.623,1.082c-0.48,0.432 -0.889,0.877 -1.226,1.334c-0.336,0.457 -0.601,0.853 -0.793,1.19l-2.741,19.546l-12.766,-0l4.688,-33.538l12.766,-0Z" style="fill-rule:nonzero;"/></g><g><path d="M689.337,227.692l13.559,-0l-3.029,21.421l16.516,-0l3.101,-21.421l13.56,-0l-7.285,51.424l-13.559,0l2.596,-18.463l-16.516,-0l-2.669,18.463l-13.559,0l7.285,-51.424Z" style="fill-rule:nonzero;"/><path d="M756.628,276.087c-1.49,1.106 -3.161,2.092 -5.012,2.957c-1.851,0.866 -3.835,1.298 -5.95,1.298c-1.731,0 -3.306,-0.408 -4.725,-1.226c-1.418,-0.817 -2.632,-1.887 -3.642,-3.209c-1.01,-1.323 -1.779,-2.861 -2.308,-4.616c-0.529,-1.755 -0.793,-3.57 -0.793,-5.446c-0,-3.029 0.505,-5.866 1.514,-8.51c1.01,-2.645 2.489,-4.941 4.436,-6.888c1.947,-1.947 4.303,-3.474 7.068,-4.58c2.765,-1.106 5.926,-1.659 9.485,-1.659c1.779,0 3.546,0.217 5.301,0.649c1.755,0.433 3.353,0.986 4.796,1.659c1.442,0.673 2.705,1.395 3.786,2.164c1.082,0.769 1.864,1.49 2.344,2.164l-3.966,28.272l-12.766,0l0.432,-3.029Zm-4.616,-6.707c0.626,-0 1.251,-0.133 1.876,-0.397c0.625,-0.265 1.214,-0.613 1.767,-1.046c0.553,-0.433 1.046,-0.902 1.478,-1.406c0.433,-0.505 0.77,-0.998 1.01,-1.479l1.154,-8.222c-0.337,-0.192 -0.853,-0.529 -1.551,-1.01c-0.697,-0.481 -1.622,-0.721 -2.776,-0.721c-1.058,-0 -2.056,0.192 -2.994,0.577c-0.937,0.385 -1.767,0.938 -2.488,1.659c-0.721,0.721 -1.286,1.635 -1.695,2.741c-0.408,1.105 -0.613,2.38 -0.613,3.822c0,1.731 0.409,3.077 1.226,4.039c0.818,0.962 2.02,1.443 3.606,1.443Z" style="fill-rule:nonzero;"/><path d="M789.805,279.116l-12.765,0l7.861,-56.04l12.766,-0l-4.688,33.105l-0.144,1.298l0.072,0l0.721,-1.298l8.943,-10.675l15.94,0l-14.497,14.57l10.025,19.04l-14.93,0l-7.068,-16.011l-2.236,16.011Z" style="fill-rule:nonzero;"/><path d="M832.142,279.116l-12.766,0l7.862,-56.04l12.766,-0l-4.688,33.105l-0.144,1.298l0.072,0l0.721,-1.298l8.943,-10.675l15.94,0l-14.497,14.57l10.025,19.04l-14.93,0l-7.068,-16.011l-2.236,16.011Z" style="fill-rule:nonzero;"/><path d="M866.329,245.506l12.766,0l-4.76,33.61l-12.766,0l4.76,-33.61Z" style="fill-rule:nonzero;"/><path d="M918.403,279.116l-12.766,0l2.668,-18.896c0.048,-0.577 0.036,-1.166 -0.036,-1.767c-0.072,-0.601 -0.252,-1.154 -0.541,-1.659c-0.288,-0.505 -0.697,-0.914 -1.226,-1.226c-0.529,-0.313 -1.226,-0.469 -2.091,-0.469c-1.395,-0 -2.645,0.252 -3.751,0.757c-1.106,0.505 -1.947,0.95 -2.524,1.335l-3.101,21.925l-12.766,0l3.822,-27.479c1.202,-0.962 2.657,-1.887 4.364,-2.777c1.707,-0.889 3.498,-1.683 5.373,-2.38c1.875,-0.697 3.738,-1.25 5.59,-1.659c1.851,-0.408 3.546,-0.613 5.084,-0.613c1.876,0 3.763,0.277 5.662,0.83c1.899,0.553 3.594,1.406 5.085,2.56c1.49,1.154 2.62,2.621 3.39,4.4c0.769,1.779 0.985,3.918 0.649,6.419l-2.885,20.699Z" style="fill-rule:nonzero;"/><path d="M945.882,244.208c1.298,0 2.524,0.193 3.678,0.577c1.154,0.385 2.188,0.842 3.102,1.371l3.245,-23.08l12.838,-0l-7.212,50.703l-0.361,0.433c-0.769,0.673 -1.803,1.358 -3.101,2.055c-1.298,0.698 -2.765,1.359 -4.4,1.984c-1.634,0.625 -3.353,1.13 -5.156,1.514c-1.804,0.385 -3.595,0.577 -5.374,0.577c-2.837,0 -5.313,-0.408 -7.428,-1.226c-2.116,-0.817 -3.871,-1.935 -5.266,-3.353c-1.394,-1.419 -2.452,-3.078 -3.173,-4.977c-0.721,-1.899 -1.082,-3.931 -1.082,-6.095c0,-2.74 0.481,-5.349 1.443,-7.825c0.961,-2.476 2.308,-4.652 4.039,-6.527c1.731,-1.875 3.798,-3.366 6.202,-4.472c2.404,-1.106 5.073,-1.659 8.006,-1.659Zm5.265,12.91c-0.481,-0.577 -1.154,-1.057 -2.019,-1.442c-0.866,-0.385 -1.779,-0.577 -2.741,-0.577c-2.02,-0 -3.727,0.709 -5.121,2.128c-1.394,1.418 -2.092,3.426 -2.092,6.022c0,1.971 0.481,3.51 1.443,4.616c0.962,1.106 2.26,1.659 3.895,1.659c1.202,-0 2.187,-0.12 2.957,-0.361c0.769,-0.24 1.394,-0.457 1.875,-0.649l0.216,-0.144l1.587,-11.252Z" style="fill-rule:nonzero;"/><path d="M991.537,276.087c-1.491,1.106 -3.162,2.092 -5.013,2.957c-1.851,0.866 -3.835,1.298 -5.95,1.298c-1.731,0 -3.306,-0.408 -4.724,-1.226c-1.419,-0.817 -2.633,-1.887 -3.643,-3.209c-1.009,-1.323 -1.779,-2.861 -2.308,-4.616c-0.529,-1.755 -0.793,-3.57 -0.793,-5.446c-0,-3.029 0.505,-5.866 1.515,-8.51c1.009,-2.645 2.488,-4.941 4.435,-6.888c1.948,-1.947 4.304,-3.474 7.068,-4.58c2.765,-1.106 5.927,-1.659 9.485,-1.659c1.779,0 3.546,0.217 5.301,0.649c1.755,0.433 3.354,0.986 4.796,1.659c1.443,0.673 2.705,1.395 3.787,2.164c1.081,0.769 1.863,1.49 2.344,2.164l-3.967,28.272l-12.766,0l0.433,-3.029Zm-4.616,-6.707c0.625,-0 1.25,-0.133 1.875,-0.397c0.625,-0.265 1.214,-0.613 1.767,-1.046c0.553,-0.433 1.046,-0.902 1.478,-1.406c0.433,-0.505 0.77,-0.998 1.01,-1.479l1.154,-8.222c-0.336,-0.192 -0.853,-0.529 -1.55,-1.01c-0.698,-0.481 -1.623,-0.721 -2.777,-0.721c-1.058,-0 -2.056,0.192 -2.993,0.577c-0.938,0.385 -1.767,0.938 -2.489,1.659c-0.721,0.721 -1.286,1.635 -1.695,2.741c-0.408,1.105 -0.613,2.38 -0.613,3.822c0,1.731 0.409,3.077 1.226,4.039c0.818,0.962 2.02,1.443 3.607,1.443Z" style="fill-rule:nonzero;"/></g><path d="M652.514,253.372c-13.87,16.789 -34.911,27.611 -58.388,27.611c-23.476,0 -44.521,-10.822 -58.391,-27.611c3.28,0 2.796,-0.608 4.987,1.824c13.38,14.235 32.357,23.111 53.404,23.111c21.284,0 40.508,-9.123 53.77,-23.599c1.821,-1.944 1.944,-1.336 4.618,-1.336Zm-57.78,-85.031c2.309,-0 4.135,1.825 4.135,4.136c-0,2.189 -1.826,4.135 -4.135,4.135c-2.313,-0 -4.136,-1.946 -4.136,-4.135c-0,-2.311 1.823,-4.136 4.136,-4.136Zm0,-9.246c7.414,0 13.38,5.962 13.38,13.382c0,7.298 -5.966,13.381 -13.38,13.381c-7.422,-0 -13.382,-6.083 -13.382,-13.381c-0,-7.42 5.96,-13.382 13.382,-13.382Zm-2.554,-17.033l4.983,-0l0.245,0.249l0,17.027c-0.85,-0.121 -1.823,-0.243 -2.674,-0.243c-0.977,0 -1.827,0.122 -2.678,0.243l0,-17.027l0.124,-0.249Zm2.554,51.826l-25.061,73.595l16.06,-85.154c1.701,1.583 3.769,2.678 6.078,3.163l0.369,0l0,0.123l0.727,-0l-0,0.122l1.705,0l-0,0.121l0.242,-0l0,-0.121l1.583,0l0.121,-0.122l0.73,-0l-0,-0.123l0.24,0c2.438,-0.485 4.502,-1.58 6.207,-3.163l16.056,85.154l-25.057,-73.595Z"/><defs><linearGradient id="_Linear1" x1="0" y1="0" x2="1" y2="0" gradientUnits="userSpaceOnUse" gradientTransform="matrix(435.638,0,0,133.028,64.3016,219.807)"><stop offset="0" style="stop-color:#fff;stop-opacity:1"/><stop offset="0.1" style="stop-color:#9a9aae;stop-opacity:1"/><stop offset="0.21" style="stop-color:#31315a;stop-opacity:1"/><stop offset="0.5" style="stop-color:#003;stop-opacity:1"/><stop offset="0.81" style="stop-color:#2b2b56;stop-opacity:1"/><stop offset="0.91" style="stop-color:#9292a8;stop-opacity:1"/><stop offset="1" style="stop-color:#fff;stop-opacity:1"/></linearGradient></defs></svg>