<svg xmlns="http://www.w3.org/2000/svg" xmlns:xlink="http://www.w3.org/1999/xlink" width="495.938" height="71.095" viewBox="0 0 495.938 71.095">
  <defs>
    <filter id="Path_4" x="131.469" y="13.79" width="38.531" height="42.526" filterUnits="userSpaceOnUse">
      <feOffset dy="2" input="SourceAlpha"/>
      <feGaussianBlur stdDeviation="2" result="blur"/>
      <feFlood flood-color="#041230" flood-opacity="0.561"/>
      <feComposite operator="in" in2="blur"/>
      <feComposite in="SourceGraphic"/>
    </filter>
    <filter id="Path_946" x="11.114" y="5.224" width="273.156" height="58.515" filterUnits="userSpaceOnUse">
      <feOffset dy="2" input="SourceAlpha"/>
      <feGaussianBlur stdDeviation="2" result="blur-2"/>
      <feFlood flood-color="#041230" flood-opacity="0.561"/>
      <feComposite operator="in" in2="blur-2"/>
      <feComposite in="SourceGraphic"/>
    </filter>
    <filter id="Path_2" x="0" y="0" width="157.041" height="71.095" filterUnits="userSpaceOnUse">
      <feOffset dy="2" input="SourceAlpha"/>
      <feGaussianBlur stdDeviation="2" result="blur-3"/>
      <feFlood flood-color="#041230" flood-opacity="0.561"/>
      <feComposite operator="in" in2="blur-3"/>
      <feComposite in="SourceGraphic"/>
    </filter>
    <filter id="Path_3" x="126.469" y="13.79" width="38.531" height="42.526" filterUnits="userSpaceOnUse">
      <feOffset dy="2" input="SourceAlpha"/>
      <feGaussianBlur stdDeviation="2" result="blur-4"/>
      <feFlood flood-color="#041230" flood-opacity="0.561"/>
      <feComposite operator="in" in2="blur-4"/>
      <feComposite in="SourceGraphic"/>
    </filter>
    <filter id="Path_947" x="295.178" y="14.26" width="200.76" height="41.56" filterUnits="userSpaceOnUse">
      <feOffset dy="2" input="SourceAlpha"/>
      <feGaussianBlur stdDeviation="2" result="blur-5"/>
      <feFlood flood-color="#041230" flood-opacity="0.557"/>
      <feComposite operator="in" in2="blur-5"/>
      <feComposite in="SourceGraphic"/>
    </filter>
  </defs>
  <g id="Group_715" data-name="Group 715" transform="translate(1709.5 1331)">
    <g id="Group_714" data-name="Group 714" transform="translate(-1752.5 -1366)">
      <g transform="matrix(1, 0, 0, 1, 43, 35)" filter="url(#Path_4)">
        <path id="Path_4-2" data-name="Path 4" d="M3.94-5.851h7.423a2.57,2.57,0,0,0,2.263-.985L20.5-16.809a2.948,2.948,0,0,1,1.289-1.11,4.718,4.718,0,0,1,1.77-.293h6.16L20.666-5.872a6.051,6.051,0,0,1-1.006,1.11,6.337,6.337,0,0,1-1.069.733,5.393,5.393,0,0,1,1.456.807,5.325,5.325,0,0,1,1.2,1.372l9.219,14.163H24.144a5.505,5.505,0,0,1-1.037-.084,2.658,2.658,0,0,1-.744-.251,2.141,2.141,0,0,1-.545-.409,4.053,4.053,0,0,1-.44-.555L14.465.392a2.082,2.082,0,0,0-.953-.828A4.134,4.134,0,0,0,11.95-.676H3.94Z" transform="translate(133.53 36)" fill="#262424"/>
      </g>
      <g transform="matrix(1, 0, 0, 1, 43, 35)" filter="url(#Path_946)">
        <path id="Path_946-2" data-name="Path 946" d="M9.534-25.536v8.421H20.5v4.956H9.534V0H3.192V-30.471H22.6v4.935Zm31,13.965-3.3-9.324q-.294-.735-.619-1.722t-.619-2.142q-.294,1.176-.62,2.174t-.619,1.733l-3.276,9.282ZM51.114,0H46.221a2.154,2.154,0,0,1-1.333-.389,2.353,2.353,0,0,1-.766-1L42.063-7.2H29.925L27.867-1.386a2.4,2.4,0,0,1-.735.956A2.018,2.018,0,0,1,25.809,0H20.874L32.781-30.471h6.447ZM63.462-16.044a8.049,8.049,0,0,0,2.646-.389A4.971,4.971,0,0,0,67.935-17.5a4.162,4.162,0,0,0,1.05-1.607,5.858,5.858,0,0,0,.336-2.016,4.129,4.129,0,0,0-1.438-3.36,6.74,6.74,0,0,0-4.379-1.2H60.228v9.639ZM78.225,0H72.534a2.473,2.473,0,0,1-2.31-1.218l-5.8-9.345a2.449,2.449,0,0,0-.788-.8,2.561,2.561,0,0,0-1.27-.252H60.228V0h-6.3V-30.471H63.5a19.681,19.681,0,0,1,5.46.661,10.5,10.5,0,0,1,3.717,1.837,7.037,7.037,0,0,1,2.121,2.8,9.293,9.293,0,0,1,.672,3.581,9.408,9.408,0,0,1-.43,2.866,8.45,8.45,0,0,1-1.25,2.468,9.008,9.008,0,0,1-2.016,1.974,10.427,10.427,0,0,1-2.73,1.386,6.085,6.085,0,0,1,1.134.808,5.541,5.541,0,0,1,.945,1.124ZM93.408-5.04a7.009,7.009,0,0,0,2.751-.514,5.656,5.656,0,0,0,2.058-1.46A6.4,6.4,0,0,0,99.5-9.3a9.673,9.673,0,0,0,.441-3.024V-30.471h6.3v18.144a14.074,14.074,0,0,1-.893,5.093,11.485,11.485,0,0,1-2.551,4A11.631,11.631,0,0,1,98.763-.609a14.372,14.372,0,0,1-5.355.945,14.454,14.454,0,0,1-5.366-.945A11.611,11.611,0,0,1,84-3.234a11.485,11.485,0,0,1-2.552-4,14.074,14.074,0,0,1-.892-5.093V-30.471h6.3v18.144A9.673,9.673,0,0,0,87.3-9.3a6.4,6.4,0,0,0,1.281,2.289,5.656,5.656,0,0,0,2.058,1.46A7.066,7.066,0,0,0,93.408-5.04Zm25.137-12.852h1.239a2.575,2.575,0,0,0,2.247-.966l7.707-10.311a3.037,3.037,0,0,1,1.2-1.018,4,4,0,0,1,1.6-.283h5.46l-9.7,12.495a6.161,6.161,0,0,1-1.953,1.743,5.151,5.151,0,0,1,1.323.766,6.047,6.047,0,0,1,1.134,1.25L138.747,0H133.14a4.486,4.486,0,0,1-.934-.084,2.89,2.89,0,0,1-.682-.231,1.8,1.8,0,0,1-.5-.368,3.443,3.443,0,0,1-.4-.515l-7.833-10.962a2.3,2.3,0,0,0-.945-.808,3.9,3.9,0,0,0-1.533-.242h-1.764V0h-6.3V-30.471h6.3Zm56.994,13.44a11.782,11.782,0,0,1-3.99,3.3A14.42,14.42,0,0,1,166.005.273l-.252.9a8.044,8.044,0,0,1,1.659.557,4.1,4.1,0,0,1,1.081.724,2.381,2.381,0,0,1,.588.882,2.885,2.885,0,0,1,.179,1.008,2.3,2.3,0,0,1-.389,1.312,3.166,3.166,0,0,1-1.092.977,6.126,6.126,0,0,1-1.691.619,10.031,10.031,0,0,1-2.184.221,12.8,12.8,0,0,1-1.606-.095,9.926,9.926,0,0,1-1.48-.3l.525-1.785a.608.608,0,0,1,.651-.5,1.943,1.943,0,0,1,.63.115,2.775,2.775,0,0,0,.882.115,1.494,1.494,0,0,0,.924-.231.679.679,0,0,0,.294-.546q0-.525-.7-.766A13.973,13.973,0,0,0,161.763,3l.945-2.751a14.628,14.628,0,0,1-5.46-1.565,13.279,13.279,0,0,1-4.105-3.318,14.526,14.526,0,0,1-2.583-4.756,18.618,18.618,0,0,1-.893-5.859,18.363,18.363,0,0,1,.493-4.316,15.2,15.2,0,0,1,1.438-3.769,14.568,14.568,0,0,1,2.279-3.108,13.743,13.743,0,0,1,3.014-2.363,14.485,14.485,0,0,1,3.664-1.491,16.808,16.808,0,0,1,4.232-.514,16.538,16.538,0,0,1,3.182.294,15.388,15.388,0,0,1,2.8.819,12.867,12.867,0,0,1,2.4,1.271,13.45,13.45,0,0,1,1.985,1.627l-2.121,2.9a1.978,1.978,0,0,1-.483.483,1.349,1.349,0,0,1-.8.21,1.782,1.782,0,0,1-1.018-.357q-.515-.357-1.26-.8a9.123,9.123,0,0,0-1.869-.8,9.558,9.558,0,0,0-2.845-.357,8.712,8.712,0,0,0-3.507.693,7.618,7.618,0,0,0-2.74,2.005,9.236,9.236,0,0,0-1.775,3.224,13.86,13.86,0,0,0-.63,4.347,13.039,13.039,0,0,0,.683,4.379,9.611,9.611,0,0,0,1.869,3.244,7.869,7.869,0,0,0,2.772,2.005,8.486,8.486,0,0,0,3.392.683,16.34,16.34,0,0,0,1.942-.105,8.047,8.047,0,0,0,1.617-.357,7.145,7.145,0,0,0,1.407-.651,8.674,8.674,0,0,0,1.333-1.008,2.6,2.6,0,0,1,.483-.315,1.2,1.2,0,0,1,.546-.126,1.165,1.165,0,0,1,.882.378Zm9.891-21.084V-17.7h10.164v4.767H185.43v8h13.062V0h-19.4V-30.471h19.4v4.935ZM221.277-5.124V0H203.2V-30.471h6.3V-5.124ZM231.462,0H225.12V-30.471h6.342Zm.315-35.637a3.026,3.026,0,0,1-.273,1.271,3.421,3.421,0,0,1-.756,1.061,3.563,3.563,0,0,1-1.123.724,3.537,3.537,0,0,1-1.355.263,3.128,3.128,0,0,1-1.27-.263,3.442,3.442,0,0,1-1.061-.724,3.6,3.6,0,0,1-.735-1.061,3.026,3.026,0,0,1-.273-1.271,3.219,3.219,0,0,1,.273-1.312,3.522,3.522,0,0,1,.735-1.081A3.6,3.6,0,0,1,227-38.766a3.026,3.026,0,0,1,1.27-.273,3.419,3.419,0,0,1,1.355.273,3.718,3.718,0,0,1,1.123.735,3.351,3.351,0,0,1,.756,1.081A3.219,3.219,0,0,1,231.777-35.637Zm12.369,17.745h1.239a2.575,2.575,0,0,0,2.247-.966l7.707-10.311a3.037,3.037,0,0,1,1.2-1.018,4,4,0,0,1,1.6-.283h5.46l-9.7,12.495a6.162,6.162,0,0,1-1.953,1.743,5.151,5.151,0,0,1,1.323.766,6.048,6.048,0,0,1,1.134,1.25L264.348,0h-5.607a4.486,4.486,0,0,1-.934-.084,2.889,2.889,0,0,1-.682-.231,1.8,1.8,0,0,1-.5-.368,3.444,3.444,0,0,1-.4-.515l-7.833-10.962a2.3,2.3,0,0,0-.945-.808,3.9,3.9,0,0,0-1.533-.242h-1.764V0h-6.3V-30.471h6.3Z" transform="translate(13.92 48.26)" fill="#262424"/>
      </g>
      <g transform="matrix(1, 0, 0, 1, 43, 35)" filter="url(#Path_2)">
        <path id="Path_2-2" data-name="Path 2" d="M3135.359-728.263h-31.281v57.095h143.041" transform="translate(-3097.08 733.26)" fill="none" stroke="#7bc377" stroke-linecap="round" stroke-linejoin="round" stroke-width="2"/>
      </g>
      <g transform="matrix(1, 0, 0, 1, 43, 35)" filter="url(#Path_3)">
        <path id="Path_3-2" data-name="Path 3" d="M3.94-5.851h7.423a2.57,2.57,0,0,0,2.263-.985L20.5-16.809a2.948,2.948,0,0,1,1.289-1.11,4.718,4.718,0,0,1,1.77-.293h6.16L20.666-5.872a6.051,6.051,0,0,1-1.006,1.11,6.337,6.337,0,0,1-1.069.733,5.393,5.393,0,0,1,1.456.807,5.325,5.325,0,0,1,1.2,1.372l9.219,14.163H24.144a5.505,5.505,0,0,1-1.037-.084,2.658,2.658,0,0,1-.744-.251,2.141,2.141,0,0,1-.545-.409,4.053,4.053,0,0,1-.44-.555L14.465.392a2.082,2.082,0,0,0-.953-.828A4.134,4.134,0,0,0,11.95-.676H3.94Z" transform="translate(128.53 36)" fill="#7bc377"/>
      </g>
    </g>
    <rect id="Rectangle_454" data-name="Rectangle 454" width="3" height="37" rx="1" transform="translate(-1423 -1316)" fill="#7bc377"/>
    <g transform="matrix(1, 0, 0, 1, -1709.5, -1331)" filter="url(#Path_947)">
      <path id="Path_947-2" data-name="Path 947" d="M8.48-10.18V0H3.1V-28.92h9.42a16.5,16.5,0,0,1,5.02.68,9.662,9.662,0,0,1,3.5,1.9,7.441,7.441,0,0,1,2.04,2.92,10.194,10.194,0,0,1,.66,3.72,10.276,10.276,0,0,1-.7,3.85,7.989,7.989,0,0,1-2.1,3.01,9.773,9.773,0,0,1-3.5,1.96,15.584,15.584,0,0,1-4.92.7Zm0-4.2h4.04a8.105,8.105,0,0,0,2.58-.37,4.793,4.793,0,0,0,1.82-1.06A4.346,4.346,0,0,0,18-17.49a6.43,6.43,0,0,0,.36-2.21A5.832,5.832,0,0,0,18-21.8a4.151,4.151,0,0,0-1.08-1.6,4.8,4.8,0,0,0-1.82-1.01,8.534,8.534,0,0,0-2.58-.35H8.48Zm25,3.08V0H28.1V-28.92h8.82a18.422,18.422,0,0,1,5.07.61,9.661,9.661,0,0,1,3.46,1.71,6.6,6.6,0,0,1,1.98,2.63,8.769,8.769,0,0,1,.63,3.37,8.733,8.733,0,0,1-.43,2.76,7.987,7.987,0,0,1-1.24,2.36,8.357,8.357,0,0,1-2,1.86,10.484,10.484,0,0,1-2.71,1.28,5.33,5.33,0,0,1,1.76,1.66L50.68,0H45.84a2.363,2.363,0,0,1-1.19-.28,2.433,2.433,0,0,1-.83-.8l-6.08-9.26a2.134,2.134,0,0,0-.75-.74,2.628,2.628,0,0,0-1.21-.22Zm0-3.86h3.36a8.327,8.327,0,0,0,2.65-.38,5.123,5.123,0,0,0,1.86-1.05,4.217,4.217,0,0,0,1.09-1.59,5.5,5.5,0,0,0,.36-2.02,4.107,4.107,0,0,0-1.45-3.38,6.936,6.936,0,0,0-4.43-1.18H33.48Zm47.42.7a16.03,16.03,0,0,1-1.06,5.89,13.954,13.954,0,0,1-2.98,4.69A13.494,13.494,0,0,1,72.24-.79,15.585,15.585,0,0,1,66.26.32,15.661,15.661,0,0,1,60.27-.79a13.578,13.578,0,0,1-4.64-3.09,13.875,13.875,0,0,1-2.99-4.69,16.03,16.03,0,0,1-1.06-5.89,16.03,16.03,0,0,1,1.06-5.89,13.875,13.875,0,0,1,2.99-4.69,13.578,13.578,0,0,1,4.64-3.09,15.661,15.661,0,0,1,5.99-1.11,15.463,15.463,0,0,1,5.98,1.12,13.687,13.687,0,0,1,4.62,3.09,13.845,13.845,0,0,1,2.98,4.68A16.03,16.03,0,0,1,80.9-14.46Zm-5.52,0a13.466,13.466,0,0,0-.63-4.27,9.032,9.032,0,0,0-1.81-3.21,7.793,7.793,0,0,0-2.87-2.02,9.874,9.874,0,0,0-3.81-.7,9.95,9.95,0,0,0-3.82.7,7.866,7.866,0,0,0-2.89,2.02,9.068,9.068,0,0,0-1.83,3.21,13.273,13.273,0,0,0-.64,4.27,13.273,13.273,0,0,0,.64,4.27,8.964,8.964,0,0,0,1.83,3.2,7.922,7.922,0,0,0,2.89,2.01,9.95,9.95,0,0,0,3.82.7,9.874,9.874,0,0,0,3.81-.7,7.847,7.847,0,0,0,2.87-2.01,8.929,8.929,0,0,0,1.81-3.2A13.466,13.466,0,0,0,75.38-14.46Zm21.4,4.18a15.007,15.007,0,0,1-.6,4.4,9.134,9.134,0,0,1-1.79,3.34A7.815,7.815,0,0,1,91.42-.42a10.724,10.724,0,0,1-4.14.74A17.077,17.077,0,0,1,85.16.19a19.082,19.082,0,0,1-2.18-.41l.28-3.2a1.064,1.064,0,0,1,.33-.71,1.2,1.2,0,0,1,.85-.27,3.792,3.792,0,0,1,.89.14,5.762,5.762,0,0,0,1.39.14,5.73,5.73,0,0,0,2.02-.33A3.419,3.419,0,0,0,90.21-5.5a4.838,4.838,0,0,0,.89-1.87,11.2,11.2,0,0,0,.3-2.79V-28.92h5.38Zm24.08-18.64v4.28H108.04v8.02h10.1v4.14h-10.1V-4.3h12.82V0H102.62V-28.92ZM130.9-4.44h11.58V0H125.52V-28.92h5.38Zm33.54-24.48v4.28H151.62v8.02h10.1v4.14h-10.1V-4.3h12.82V0H146.2V-28.92ZM174.66-11.3V0h-5.38V-28.92h8.82a18.422,18.422,0,0,1,5.07.61,9.661,9.661,0,0,1,3.46,1.71,6.6,6.6,0,0,1,1.98,2.63,8.769,8.769,0,0,1,.63,3.37,8.733,8.733,0,0,1-.43,2.76,7.988,7.988,0,0,1-1.24,2.36,8.357,8.357,0,0,1-2,1.86,10.484,10.484,0,0,1-2.71,1.28,5.33,5.33,0,0,1,1.76,1.66L191.86,0h-4.84a2.363,2.363,0,0,1-1.19-.28,2.433,2.433,0,0,1-.83-.8l-6.08-9.26a2.134,2.134,0,0,0-.75-.74,2.628,2.628,0,0,0-1.21-.22Zm0-3.86h3.36a8.327,8.327,0,0,0,2.65-.38,5.123,5.123,0,0,0,1.86-1.05,4.217,4.217,0,0,0,1.09-1.59,5.5,5.5,0,0,0,.36-2.02,4.107,4.107,0,0,0-1.45-3.38,6.936,6.936,0,0,0-4.43-1.18h-3.44Z" transform="translate(298.08 47.5)" fill="#262424"/>
    </g>
  </g>
</svg>
