<?xml version="1.0" encoding="utf-8"?>
<!-- Generator: Adobe Illustrator 25.3.1, SVG Export Plug-In . SVG Version: 6.00 Build 0)  -->
<svg version="1.1" id="katman_1" xmlns="http://www.w3.org/2000/svg" xmlns:xlink="http://www.w3.org/1999/xlink" x="0px" y="0px"
	 viewBox="0 0 200 100" style="enable-background:new 0 0 200 100;" xml:space="preserve">
<style type="text/css">
	.st0{opacity:0.2;fill:#221F20;}
	.st1{fill:#FFFFFF;}
	.st2{fill:#CD1F45;}
	.st3{fill:#A2192B;}
</style>
<g>
	<path class="st0" d="M8.1,52L86.5,9.4v25.1l112.4-6.3l-20.1,26.6l20.1,26.6L86.5,74.9V100L8.2,57.3c0,0,0,0,0,0
		c-1.2-0.7-1.9-1.6-1.9-2.6C6.2,53.7,6.9,52.7,8.1,52C8.1,52.1,8.1,52.1,8.1,52z"/>
	<g>
		<path class="st1" d="M1.9,44.1C1.9,44.1,1.9,44.1,1.9,44.1L80.3,1.4v25.1l112.4-6.3l-20.1,26.6l20.1,26.6L80.3,66.9V92L1.9,49.3
			c0,0,0,0,0,0C0.7,48.6,0,47.7,0,46.7C0,45.7,0.7,44.7,1.9,44.1z"/>
		<path class="st2" d="M76.3,6.9v22.3L186,23.1l-17.8,23.6H76.3v0H4c0-0.2,0.2-0.5,0.5-0.6L76.3,6.9z"/>
		<path class="st3" d="M38.6,46.7h129.5L186,70.3L76.3,64.1v22.4L4.5,47.3C4.2,47.1,4,46.9,4,46.7L38.6,46.7L38.6,46.7z"/>
	</g>
</g>
</svg>
