<?xml version="1.0" encoding="utf-8"?>
<!-- Generator: Adobe Illustrator 25.3.1, SVG Export Plug-In . SVG Version: 6.00 Build 0)  -->
<svg version="1.1" id="katman_1" xmlns:serif="http://www.serif.com/"
	 xmlns="http://www.w3.org/2000/svg" xmlns:xlink="http://www.w3.org/1999/xlink" x="0px" y="0px" viewBox="0 0 177.9 35.9"
	 style="enable-background:new 0 0 177.9 35.9;" xml:space="preserve">
<style type="text/css">
	.st0{fill:none;stroke:#115528;stroke-width:0.75;stroke-miterlimit:10;}
	.st1{fill:none;}
	.st2{fill:#D40000;}
	.st3{fill:#000033;}
	.st4{fill:#D40005;}
</style>
<line class="st0" x1="82" y1="27.4" x2="82" y2="15.9"/>
<rect id="Artboard1" x="-4.6" y="-0.9" class="st1" width="70.7" height="39.8"/>
<g>
	<path class="st2" d="M8.1,6.7c0.1,0,0.3,0,0.5,0C8.8,6.8,8.8,7,8.8,7.3S8.7,8,8.6,8.5C8.4,8.7,8.4,8.9,8.3,9.2
		C8.2,9.5,8.2,9.7,8.1,10C8,10.3,8,10.5,7.9,10.8c-0.1,0.3-0.2,0.5-0.2,0.8c-0.1,0.3-0.2,0.6-0.3,0.9c-0.1,0.3-0.2,0.6-0.2,0.8
		l-0.5,1.9c-0.1,0.2-0.1,0.4-0.2,0.7c-0.1,0.4-0.2,0.8-0.3,1.2l-0.6,2.4c-0.1,0.3-0.1,0.6-0.2,0.9C5.2,20.7,5.1,21,5,21.3
		c0,0.2-0.1,0.5-0.2,0.7s-0.1,0.5-0.2,0.7c0,0.1-0.1,0.2,0,0.2h0.1c0.3-0.7,0.7-1.4,1.1-2.2c0.2-0.3,0.3-0.7,0.5-1s0.3-0.6,0.5-1
		c0.5-0.8,1-1.7,1.5-2.7c0.1-0.3,0.3-0.5,0.4-0.8C8.9,15,9,14.7,9.2,14.4c0.5-0.8,0.9-1.5,1.4-2.3c0.1-0.2,0.3-0.4,0.4-0.6
		c0.1-0.2,0.3-0.4,0.4-0.6c0.1-0.2,0.3-0.4,0.4-0.7c0.1-0.2,0.3-0.4,0.4-0.6c0.1-0.2,0.2-0.3,0.4-0.5c0.1-0.1,0.2-0.3,0.3-0.5
		c0.1-0.1,0.2-0.3,0.3-0.4c0.1-0.1,0.3-0.3,0.4-0.4c0.2-0.2,0.4-0.4,0.7-0.5c0.1,0,0.3,0.1,0.4,0.2c0.2,0.2,0.3,0.4,0.4,0.6
		c0,0.1,0,0.1,0.1,0.2c0,0.1,0,0.1,0,0.2c-0.1,0.7-0.2,1.3-0.4,2c-0.1,0.3-0.2,0.7-0.3,1s-0.2,0.7-0.3,1s-0.2,0.6-0.3,0.9
		c-0.1,0.3-0.2,0.6-0.3,0.9l-0.3,1.1l-0.5,1.9L12.6,18c-0.1,0.2-0.1,0.4-0.2,0.6c-0.1,0.2-0.1,0.4-0.2,0.6c0,0,0,0,0,0.1l0.1-0.1
		l0.1-0.1l0.9-1.3l0.5-0.7l0.6-0.9l0.5-0.7l0.4-0.5c0.1-0.1,0.2-0.3,0.3-0.5c0.6-0.7,1.2-1.5,1.8-2.2s1.2-1.4,1.8-2.1
		c0.3-0.4,0.6-0.7,0.9-1l0.5-0.6L21.2,8c0.1-0.1,0.2-0.2,0.2-0.2c0.1-0.1,0.1-0.2,0.2-0.3c0.2-0.2,0.4-0.4,0.6-0.6s0.4-0.4,0.7-0.6
		c0.1-0.1,0.2-0.2,0.4-0.2C23.5,6,23.6,6,23.8,6.2C24,6.3,24,6.5,24.1,6.8c0,0.3,0,0.6-0.1,1c-0.1,0.6-0.3,1.1-0.4,1.5L23,10.9
		l-0.5,1.3l-0.3,1l-0.3,1c-0.1,0.2-0.1,0.4-0.2,0.6c-0.1,0.2-0.1,0.4-0.2,0.6l-0.4,1.3c-0.1,0.3-0.2,0.6-0.3,0.9
		c-0.1,0.3-0.2,0.6-0.3,0.9c-0.1,0.3-0.2,0.7-0.3,1c-0.1,0.3-0.2,0.7-0.3,1l-0.6,2.2c-0.1,0.3-0.1,0.6-0.2,0.8S19,24.7,18.9,25
		c-0.2,0.9-0.5,1.9-0.8,2.9l-0.4,1.8c0,0.3-0.1,0.5-0.2,0.8s-0.1,0.5-0.1,0.8v0.1v0.1c0,0,0,0.1,0,0.2c-0.1,0-0.1,0-0.1,0l0,0
		c0,0,0,0-0.1,0s-0.2-0.1-0.3-0.1c-0.1-0.1-0.2-0.1-0.3-0.2c0,0,0,0-0.1-0.1s-0.1-0.3-0.1-0.5l0.2-1.3c0-0.2,0.1-0.3,0.1-0.5
		s0.1-0.3,0.1-0.5c0.1-0.5,0.2-1,0.3-1.5c0.1-0.5,0.2-1,0.3-1.5c0.1-0.4,0.2-0.8,0.3-1.3c0.1-0.4,0.2-0.8,0.3-1.3
		c0.2-0.8,0.4-1.6,0.7-2.4l0.6-2.3c0.1-0.2,0.1-0.4,0.2-0.6s0.1-0.4,0.2-0.6s0.1-0.3,0.2-0.5s0.1-0.3,0.2-0.5c0.1-0.3,0.2-0.7,0.4-1
		c0.1-0.3,0.3-0.7,0.4-1s0.2-0.6,0.4-0.9c0.1-0.3,0.3-0.6,0.4-0.9l0.6-1.4c0.1-0.3,0.2-0.6,0.3-0.8c0.1-0.3,0.2-0.5,0.3-0.8
		C23,8.9,23,8.6,23.1,8.4c0.1-0.2,0.2-0.5,0.3-0.7c0,0,0,0,0-0.1h-0.1c-0.1,0.1-0.2,0.2-0.3,0.3c-0.1,0.1-0.2,0.2-0.3,0.3
		c-0.1,0.1-0.3,0.2-0.4,0.3s-0.2,0.2-0.4,0.4c-0.1,0.2-0.3,0.3-0.5,0.5c-0.1,0.1-0.2,0.3-0.4,0.4c-0.1,0.1-0.2,0.3-0.4,0.4
		c-0.2,0.2-0.3,0.4-0.5,0.5c-0.1,0.2-0.3,0.4-0.5,0.5c-0.4,0.4-0.8,0.9-1.1,1.3c-0.4,0.4-0.7,0.9-1.1,1.3c-0.2,0.2-0.3,0.4-0.5,0.6
		c-0.2,0.2-0.3,0.4-0.5,0.6c-0.1,0.1-0.2,0.2-0.3,0.4c-0.1,0.1-0.2,0.2-0.3,0.4c-0.1,0.1-0.2,0.2-0.2,0.3c-0.1,0.1-0.2,0.2-0.3,0.4
		c0,0.1-0.1,0.1-0.1,0.2c-0.1,0.1-0.1,0.1-0.2,0.2l-1,1.5c-0.1,0.2-0.3,0.4-0.4,0.7l-0.6,1l-1,1.6c-0.1,0.1-0.2,0.3-0.4,0.5
		c-0.2-0.1-0.3-0.1-0.4-0.2c-0.1-0.1-0.3-0.2-0.4-0.3c-0.1-0.1-0.1-0.1-0.1-0.2s0-0.1,0-0.2s0-0.2,0-0.3c0.1-0.3,0.1-0.7,0.2-1
		c0.1-0.3,0.1-0.7,0.2-1c0.1-0.4,0.2-0.7,0.3-1c0-0.3,0.1-0.5,0.2-0.8l0.5-1.7c0.1-0.3,0.2-0.6,0.3-0.9c0.1-0.4,0.2-0.7,0.3-1
		s0.2-0.7,0.3-1s0.2-0.6,0.3-0.8c0.1-0.3,0.2-0.5,0.2-0.8c0.1-0.4,0.3-0.8,0.4-1.3c0,0,0-0.1,0.1-0.2c0-0.1,0-0.2,0-0.3
		c0-0.1,0,0,0,0c-0.1,0.1-0.2,0.2-0.3,0.3s-0.2,0.2-0.3,0.4c-0.1,0.1-0.2,0.2-0.2,0.3c-0.1,0.1-0.2,0.2-0.3,0.3s-0.1,0.2-0.2,0.3
		c-0.1,0.1-0.1,0.1-0.2,0.2l-0.6,0.9c-0.1,0.2-0.2,0.4-0.4,0.6c-0.1,0.2-0.2,0.4-0.4,0.5c-0.2,0.3-0.4,0.6-0.6,0.9
		c-0.2,0.3-0.4,0.6-0.5,0.9c0,0.2-0.2,0.5-0.4,0.8s-0.3,0.6-0.5,0.9S8.8,17,8.6,17.3s-0.3,0.6-0.5,0.9l-1.4,2.7
		c-0.3,0.6-0.6,1.3-0.9,1.8c-0.1,0.2-0.2,0.5-0.3,0.7l-0.9,1.9L4,26.8c-0.2,0.5-0.4,0.9-0.5,1.4c-0.1,0.3-0.2,0.6-0.3,0.9
		S3,29.7,2.9,30c0,0.1-0.1,0.2-0.2,0.2C2.6,30,2.4,30,2.3,29.9c-0.2,0-0.3-0.2-0.4-0.3v-0.1v-0.1C2,29,2.1,28.5,2.3,28
		c0.1-0.5,0.2-0.9,0.3-1.4c0.2-0.7,0.3-1.4,0.5-2c0.2-0.7,0.3-1.4,0.5-2.1c0.1-0.4,0.2-0.8,0.3-1.1C4,21,4.1,20.6,4.2,20.3
		c0.2-0.7,0.4-1.4,0.5-2.1C4.8,17.8,4.9,17.4,5,17c0.1-0.4,0.2-0.8,0.3-1.2c0.1-0.4,0.2-0.8,0.3-1.3c0.3-0.5,0.4-1,0.5-1.4
		c0.1-0.3,0.1-0.6,0.2-0.8c0.1-0.3,0.2-0.5,0.3-0.8c0.1-0.3,0.2-0.5,0.2-0.8C6.9,10.4,7,10.2,7,9.9C7.2,9.6,7.3,9.3,7.4,9
		s0.2-0.6,0.3-0.9l0.3-1C8.1,6.9,8.1,6.8,8.1,6.7z"/>
</g>
<g>
	<path d="M35.6,10.7c0.1,0.1,0.2,0.2,0.3,0.4l0,0l0,0c-0.1,0-0.3,0-0.5,0h-0.1h-0.1c-0.1,0-0.1,0-0.1,0h-0.3c-0.1,0-0.2,0-0.2,0
		h-0.1c-0.2,0-0.4,0-0.7,0c-0.2,0-0.5,0-0.7,0.1c0,0,0,0-0.1,0c0,0,0,0.1-0.1,0.2L32.7,12l-0.1,1l-0.1,0.2c0,0.2-0.1,0.4-0.1,0.6
		c0,0.2-0.1,0.4-0.2,0.6c0,0.1-0.1,0.2-0.1,0.3s0,0.2-0.1,0.3c-0.1,0.6-0.3,1.2-0.4,1.8s-0.3,1.2-0.4,1.7L31,19.8
		c0,0.1,0,0.2-0.1,0.3c0,0.1,0,0.2,0,0.3v0.1c0,0,0,0,0,0.1l0,0c-0.1,0-0.1,0-0.2-0.1c-0.1,0-0.1-0.1-0.2-0.1c0,0-0.1-0.1-0.1,0
		c-0.1,0-0.1-0.1-0.1-0.2v-0.1c0-0.1,0-0.3,0-0.4s0-0.3,0.1-0.4c0-0.2,0.1-0.3,0.1-0.5s0.1-0.3,0.1-0.5c0-0.1,0-0.1,0-0.2
		s0-0.1,0.1-0.2c0-0.2,0.1-0.3,0.1-0.5s0.1-0.4,0.1-0.5c0.1-0.3,0.1-0.6,0.2-0.9l0.6-2.6l0.2-0.9l0.2-0.8v-0.1c0-0.1,0-0.1,0-0.2
		l0,0c-0.1,0-0.3,0-0.4,0s-0.3,0-0.4,0s-0.1,0.1-0.2,0.2c0,0.1-0.1,0.1-0.1,0.2c0,0.1-0.1,0.1-0.1,0.2c0,0.1-0.1,0.1-0.1,0.2
		l-0.1,0.1l-0.4,0.6c-0.1,0.1-0.1,0.2-0.2,0.3s-0.1,0.2-0.2,0.3s-0.2,0.3-0.3,0.4c-0.1,0.1-0.2,0.3-0.3,0.4
		c-0.1,0.1-0.2,0.2-0.2,0.4c0,0.2-0.1,0.3-0.1,0.5L28.5,16l0,0c0,0,0,0,0,0.1s0.1,0.1,0.1,0.1s0,0.1,0.1,0.1l0.1,0.1
		c0.1,0.1,0.1,0.3,0.1,0.4c0,0.3,0,0.7-0.1,1c-0.1,0.2-0.2,0.4-0.3,0.6c-0.1,0.1-0.1,0.2-0.2,0.3C28.1,18.9,28,19,27.9,19
		s-0.2,0.1-0.3,0.2c0,0-0.1,0-0.2,0.1c-0.1,0-0.1,0-0.2,0c0,0,0,0-0.1,0s-0.2-0.1-0.3-0.1c-0.1,0-0.1-0.1-0.2-0.2s-0.2-0.2-0.2-0.4
		c0-0.1,0.1-0.3,0.1-0.5c0-0.1,0.1-0.3,0.1-0.4c0.1-0.1,0.1-0.2,0.2-0.4c0.1-0.1,0.1-0.2,0.2-0.4c0.1-0.1,0.1-0.2,0.2-0.4l0.3-0.5
		l0,0c0,0,0,0,0-0.1c-0.1,0-0.1,0-0.1,0c-0.1,0-0.2-0.1-0.3-0.1c-0.2,0-0.3-0.1-0.5-0.2l-0.2-0.1c0,0.1-0.1,0.1-0.1,0.2
		c0,0.1-0.1,0.1-0.1,0.2L26.1,16c0,0.1-0.1,0.1-0.1,0.2c-0.1,0.1-0.1,0.1-0.2,0.2c0,0.1-0.1,0.1-0.1,0.2l-0.4,0.6L25,17.6L24.9,18
		c-0.1,0.1-0.1,0.1-0.2,0.1h-0.1l0,0c0,0,0,0-0.1,0s-0.1,0-0.1-0.1l-0.1-0.1l-0.2-0.1c0-0.1,0-0.2,0-0.3c0-0.2,0-0.3,0.1-0.4
		c0-0.1,0.1-0.3,0.1-0.4v-0.1c0,0,0,0-0.1,0c-0.1,0.1-0.1,0.2-0.2,0.3c-0.1,0.1-0.1,0.2-0.2,0.3c-0.1,0.2-0.2,0.3-0.4,0.4l-0.1,0.1
		c-0.1,0-0.1,0-0.2,0c-0.2-0.1-0.3-0.2-0.4-0.3c-0.1-0.1-0.2-0.2-0.2-0.4c0-0.2,0-0.4,0.1-0.6c0-0.2,0.1-0.4,0.1-0.6
		c0-0.2,0.1-0.4,0.1-0.6c0.1-0.2,0.1-0.4,0.2-0.6v-0.1v-0.1c0-0.1,0.1-0.1,0.1-0.1h0.1l0.1,0.1l0,0l0,0c0.1,0,0.1,0.1,0.1,0.2
		l-0.3,1.3c0,0.1-0.1,0.3-0.1,0.4s0,0.3-0.1,0.4c0,0,0,0,0,0.1H23c0.1-0.1,0.1-0.1,0.2-0.2s0.1-0.2,0.2-0.2c0,0,0-0.1,0.1-0.1
		l0.1-0.1c0.1-0.1,0.2-0.2,0.2-0.3c0.1-0.1,0.1-0.2,0.2-0.4s0.2-0.4,0.3-0.6c0.1-0.2,0.2-0.4,0.3-0.6c0.1-0.1,0.1-0.2,0.2-0.3
		l0.1-0.1H25c0.1,0,0.1,0.1,0.1,0.1l0.2,0.2c0.1,0.1,0.1,0.2,0.1,0.3s0,0.1-0.1,0.1v0.1c0,0.2-0.1,0.3-0.1,0.5s-0.1,0.3-0.2,0.5
		c0,0.2-0.1,0.4-0.2,0.6c0,0.1,0,0.2-0.1,0.3c0,0.1-0.1,0.2-0.1,0.3c0,0,0,0,0,0.1l0,0l0,0l0.6-0.8c0.1-0.1,0.1-0.2,0.2-0.3
		s0.1-0.2,0.2-0.3c0,0,0,0,0-0.1c0,0,0,0,0-0.1l0.2-0.2V15c0-0.1,0-0.3,0.1-0.4c0.1-0.2,0.3-0.4,0.5-0.6c0.2-0.3,0.5-0.5,0.7-0.6
		c0.1,0,0.1-0.1,0.2-0.1s0.1,0,0.2,0.1l0,0l0.1,0.1l0.1,0.1c0,0,0,0,0,0.1c0,0,0,0,0,0.1s-0.1,0.1-0.1,0.1c0.4,0,0.4,0.1,0.3,0.1
		c-0.1,0.1-0.1,0.1-0.2,0.2c-0.1,0.1-0.2,0.3-0.3,0.4c-0.1,0.1-0.2,0.3-0.3,0.4l-0.2,0.3H27c0.1,0,0.1,0,0.2,0.1c0.1,0,0.1,0,0.2,0
		c0.2,0.1,0.4,0.1,0.6,0.2c0,0,0,0,0.1,0l0.1-0.1c0.1-0.3,0.3-0.6,0.5-0.9c0.2-0.3,0.3-0.5,0.5-0.8c0.1-0.1,0.1-0.2,0.2-0.3
		s0.1-0.2,0.2-0.3l0.4-0.7c0.1-0.1,0.2-0.2,0.3-0.4c0.1-0.1,0.2-0.2,0.2-0.4c0,0,0-0.1,0.1-0.1c0,0,0-0.1,0.1-0.1c0,0,0,0-0.1,0
		s-0.1,0-0.2,0s-0.1,0-0.2,0H30h-0.1c0,0,0,0-0.1,0s-0.1,0-0.1,0h-0.1h-0.2h-0.1c0,0,0,0-0.1,0s-0.2,0-0.2,0c-0.1,0-0.2,0-0.2,0.1
		L28.1,12l-0.4,0.1c-0.1,0-0.1,0-0.2,0s-0.1,0-0.2,0s-0.1,0-0.2,0c-0.2,0-0.3-0.1-0.3-0.3c0-0.1,0-0.1,0.1-0.1l0.4-0.1
		c0.2-0.1,0.4-0.1,0.7-0.2c0.1,0,0.1,0,0.2,0s0.1,0,0.2,0l0.3-0.1h0.2c0.1,0,0.1,0,0.2,0h0.1c0,0,0,0,0.1,0c0,0,0,0,0.1,0
		s0.1,0,0.2,0s0.1,0,0.1,0s0,0,0.1,0s0.2,0,0.3,0c0.1,0,0.2,0,0.3-0.1h0.4c0.1,0,0.1,0,0.2,0l0.1-0.1c0-0.1,0.1-0.1,0.1-0.2
		c0-0.1,0.1-0.1,0.1-0.2c0-0.1,0.1-0.1,0.1-0.2c0-0.1,0.1-0.1,0.1-0.2l0.2-0.2c0.1-0.1,0.1-0.2,0.2-0.2L32.3,9l0.3-0.4l0.1-0.1
		c0,0,0.1,0,0.1-0.1c0.1,0,0.1,0,0.2,0c0.1,0,0.1,0.1,0.2,0.1c0.1,0.1,0.2,0.3,0.2,0.4V9c0,0.2,0,0.4-0.1,0.6c0,0.2,0,0.3-0.1,0.4
		c0,0.1-0.1,0.3-0.1,0.4c0,0.1,0,0.1,0,0.1c0.1,0,0.1,0,0.1,0h0.2h0.1h0.1c0.1,0,0.1,0,0.1,0h0.5h0.1c0,0,0,0,0.1,0h0.5
		c0.1,0,0.3,0,0.5,0C35.5,10.7,35.6,10.7,35.6,10.7L35.6,10.7z M28.1,16.7v-0.1l0,0l-0.2,0.3c0,0.1-0.1,0.2-0.1,0.3
		c-0.2,0.4-0.4,0.8-0.5,1.2c0,0.1,0,0.1-0.1,0.2c0,0.1,0,0.1,0,0.2l0,0c0,0,0.1,0,0.1-0.1c0,0,0.1,0,0.1-0.1c0,0,0-0.1,0.1-0.1
		c0,0,0-0.1,0.1-0.1c0.2-0.3,0.4-0.6,0.5-0.9C28.1,17.3,28.1,17,28.1,16.7z M32.4,10.8c0,0,0.1-0.1,0.1-0.2c0-0.1,0.1-0.2,0.1-0.4
		c0-0.1,0.1-0.3,0.1-0.4c0-0.1,0.1-0.2,0.1-0.2l0,0h-0.1l-0.5,0.6c-0.1,0.1-0.1,0.2-0.2,0.3c-0.1,0.1-0.1,0.2-0.2,0.3
		c0,0,0,0-0.1,0.1c0.1,0,0.1,0,0.1,0L32.4,10.8C32.3,10.8,32.4,10.8,32.4,10.8z"/>
	<path d="M34.5,17.2c-0.2,0.2-0.3,0.4-0.5,0.4s-0.3,0-0.5,0c-0.1,0-0.3-0.1-0.4-0.1c-0.1,0-0.1-0.1-0.2-0.2c0-0.1-0.1-0.2-0.1-0.2
		s0-0.1,0-0.2v-0.1v-0.1c0-0.1,0-0.3,0-0.4s0.1-0.3,0.1-0.4c0.1-0.2,0.2-0.5,0.3-0.7s0.1-0.3,0.2-0.5c0.1-0.2,0.2-0.3,0.3-0.5
		c0-0.1,0.1-0.1,0.1-0.2c0-0.1,0.1-0.1,0.1-0.2c0.2-0.3,0.3-0.5,0.5-0.7c0.1-0.1,0.1-0.2,0.2-0.3c0.1-0.1,0.2-0.2,0.3-0.3
		s0.2-0.2,0.3-0.2c0.2-0.1,0.4-0.1,0.6,0c0.1,0,0.2,0.1,0.3,0.2c0,0,0,0,0.1,0.1h0.1v-0.1c0,0,0-0.1,0.1-0.1c0-0.1,0.1-0.1,0.2-0.1
		h0.1h0.1c0.1,0,0.1,0,0.2,0.1c0.1,0.1,0.1,0.1,0.1,0.1s0.1,0.1,0.1,0.2c0,0,0,0.1,0,0.2c-0.1,0.1-0.1,0.3-0.2,0.4
		c0,0.1-0.1,0.3-0.1,0.4c0,0.1-0.1,0.2-0.1,0.4l-0.3,1.2c0,0.1-0.1,0.3-0.1,0.4c0,0.1,0,0.3,0,0.4v0.5v0.1v0.1c0,0.1,0.1,0.1,0.2,0
		c0.1-0.1,0.2-0.1,0.2-0.2c0.1-0.1,0.1-0.1,0.2-0.2l0.1-0.1l0.1-0.1c0-0.1,0.1-0.1,0.1-0.2c0-0.1,0.1-0.1,0.1-0.2
		c0.2-0.3,0.4-0.6,0.7-0.9c0.2-0.3,0.4-0.6,0.6-0.9c0.1-0.1,0.2-0.2,0.2-0.2c0-0.1,0.1-0.1,0.1-0.1c0.1,0,0.1,0,0.2,0
		c0.1,0,0.1,0,0.2,0.1c0,0,0,0,0.1,0.1l-0.1,0.3c-0.1,0.1-0.2,0.3-0.3,0.4c-0.1,0.1-0.2,0.3-0.3,0.4c-0.2,0.3-0.4,0.5-0.6,0.8
		c-0.2,0.3-0.4,0.5-0.5,0.8l-0.4,0.5c-0.1,0.1-0.3,0.2-0.5,0.3h-0.1c-0.2,0-0.4,0-0.6,0c-0.1,0-0.1,0-0.1,0c-0.1,0-0.2-0.1-0.3-0.2
		s-0.2-0.3-0.2-0.4s0-0.2,0-0.2c0-0.1,0-0.2,0-0.2s0,0,0-0.1s0-0.2,0-0.4l0,0l0,0l0,0l-0.2,0.3l0-0.2l-0.2,0.3
		c0,0.1-0.1,0.1-0.1,0.2s-0.1,0.1-0.1,0.2s-0.1,0.2-0.2,0.2C34.6,17,34.5,17.1,34.5,17.2z M35.8,13.6c0-0.1,0-0.2,0-0.3s0-0.2,0-0.3
		v-0.1v-0.1c0,0,0,0,0-0.1h-0.1c-0.1,0.1-0.2,0.2-0.3,0.3s-0.2,0.3-0.3,0.4c-0.1,0.1-0.2,0.3-0.3,0.5s-0.2,0.4-0.3,0.6
		c-0.1,0.2-0.2,0.4-0.3,0.6c-0.1,0.2-0.1,0.3-0.2,0.5c-0.1,0.2-0.1,0.3-0.2,0.5c0,0.1,0,0.2-0.1,0.3c0,0.1,0,0.2,0,0.3v0.1
		c0,0.1,0,0.1,0.1,0c0-0.1,0.1-0.1,0.2-0.2c0.1-0.1,0.1-0.1,0.2-0.2c0.1-0.1,0.2-0.2,0.3-0.3c0.1-0.1,0.2-0.2,0.2-0.4
		c0-0.1,0.1-0.1,0.1-0.1c0-0.1,0-0.1,0.1-0.2c0-0.1,0.1-0.1,0.1-0.2c0,0,0-0.1,0.1-0.1V15c0-0.1,0.1-0.2,0.2-0.3
		c0.1-0.1,0.1-0.2,0.2-0.3c0.1-0.1,0.1-0.2,0.2-0.4c0.1-0.1,0.1-0.3,0.2-0.4c0-0.1,0.1-0.2,0.1-0.2C35.7,13.7,35.7,13.7,35.8,13.6
		C35.7,13.6,35.7,13.6,35.8,13.6z"/>
	<path d="M43.3,6.3c0.1,0.2,0.2,0.3,0.2,0.5c0,0,0,0.1,0,0.2s0,0.1,0,0.2c-0.1,0.3-0.2,0.6-0.3,0.9L42.8,9l0,0
		c-0.1,0.1-0.1,0.3-0.2,0.4c-0.1,0.1-0.1,0.3-0.2,0.4c-0.1,0.1-0.1,0.3-0.2,0.4c-0.1,0.1-0.2,0.3-0.2,0.4c-0.1,0.1-0.1,0.2-0.2,0.3
		c-0.1,0.1-0.1,0.2-0.2,0.3l-0.1,0.1c0,0.1-0.1,0.1-0.1,0.2c0,0.1-0.1,0.1-0.2,0.2c-0.1,0.1-0.1,0.2-0.2,0.3s-0.1,0.2-0.2,0.3
		l-0.1,0.1l-0.1,0.1c-0.1,0.1-0.1,0.2-0.2,0.3c-0.1,0.2-0.2,0.4-0.2,0.6L40,14h0.1l1-0.3c0.2-0.1,0.4-0.2,0.6-0.2
		c0.2-0.1,0.4-0.2,0.6-0.2c0.1-0.1,0.3-0.1,0.4-0.2c0.1-0.1,0.3-0.1,0.4-0.2c0.1,0,0.2-0.1,0.2-0.1c0.1,0,0.2-0.1,0.2-0.1h0.1
		l0.1,0.1l0.1,0.1c0,0.1,0,0.1,0,0.2l-0.1,0.1c-0.1,0-0.2,0.1-0.3,0.2c-0.1,0.1-0.2,0.1-0.3,0.1c-0.1,0.1-0.3,0.1-0.4,0.2
		c-0.1,0.1-0.2,0.1-0.4,0.2c-0.1,0-0.1,0.1-0.2,0.1c-0.1,0-0.1,0-0.2,0.1S42,14,42,14s-0.1,0-0.1,0.1c-0.2,0.1-0.4,0.2-0.6,0.3
		c-0.2,0.1-0.4,0.2-0.6,0.2h-0.1h-0.1h-0.1h-0.1h-0.1c-0.1,0-0.2,0.1-0.4,0.1c-0.1,0.1-0.1,0.2,0,0.4l0.2,0.4c0,0,0,0.1,0.1,0.1
		c0,0,0,0.1,0.1,0.2c0,0.1,0,0.1,0.1,0.2c0,0.1,0,0.1,0,0.2c0,0,0,0,0,0.1s0.1,0.2,0.1,0.3c0,0.1,0,0.2,0,0.3c0,0.1,0,0.1,0,0.1
		c0,0.1,0,0.2,0,0.3v0.1c0,0.2-0.1,0.4-0.1,0.5c0,0.2-0.1,0.3-0.1,0.5c0,0.1-0.1,0.2-0.1,0.3c0,0.1-0.1,0.2-0.1,0.3
		c0,0-0.1,0.1-0.1,0.2s-0.1,0.2-0.2,0.3c-0.1,0.1-0.1,0.2-0.2,0.3c-0.1,0.1-0.1,0.2-0.2,0.2c-0.1,0.1-0.2,0.2-0.3,0.3
		c-0.1,0.1-0.2,0.1-0.3,0l-0.5-0.2c-0.3-0.1-0.4-0.3-0.5-0.6c0-0.1,0-0.3,0-0.5s0-0.4,0.1-0.6c0-0.2,0.1-0.4,0.1-0.6
		c0.1-0.2,0.1-0.4,0.2-0.6c0-0.2,0.1-0.4,0.2-0.6l0.3-0.9c0-0.1,0-0.2,0.1-0.3l0.2-0.6c0-0.1,0.1-0.3,0.1-0.4l0.2-0.6l0.1-0.4
		c0.1-0.2,0.1-0.4,0.2-0.6c0.1-0.2,0.1-0.4,0.2-0.6c0.1-0.2,0.2-0.5,0.3-0.7s0.2-0.5,0.3-0.7l0.3-0.6c0.1-0.1,0.1-0.2,0.1-0.3
		s0.1-0.2,0.1-0.3L41.1,9c-0.2,0.2-0.2,0.1-0.1,0s0.1-0.2,0.2-0.3c0.1-0.1,0.1-0.2,0.2-0.3L41.5,8c0.1-0.2,0.2-0.4,0.3-0.5
		C41.9,7.3,42,7.1,42.1,7c0-0.1,0.1-0.2,0.1-0.2c0.1-0.1,0.1-0.1,0.1-0.2c0.1-0.1,0.2-0.1,0.2-0.2c0.1-0.1,0.2-0.1,0.3-0.2
		c0,0,0.1,0,0.2,0C43.2,6.1,43.3,6.2,43.3,6.3z M39.7,16.8v-0.5v-0.1c0,0,0-0.1-0.1-0.1v-0.2h-0.1c0,0,0,0,0,0.1L39,17.8
		c-0.1,0.3-0.1,0.5-0.2,0.8c-0.1,0.3-0.1,0.5-0.2,0.8c0,0.1,0,0.1,0,0.2c0,0,0,0,0,0.1l0,0l0.1-0.1l0.1-0.1c0.1-0.2,0.3-0.5,0.4-0.7
		c0.1-0.1,0.1-0.2,0.1-0.3c0-0.1,0.1-0.2,0.1-0.3c0-0.2,0.1-0.3,0.1-0.5c0-0.1,0.1-0.3,0-0.5l0,0c0,0,0,0,0-0.1V17
		C39.7,16.9,39.7,16.8,39.7,16.8z M43,7C43,6.9,43,6.9,43,7L43,7c-0.2,0-0.2,0-0.2,0.1l-0.3,0.4c-0.1,0.1-0.1,0.2-0.1,0.3
		c0,0,0,0,0,0.1l0,0c0,0.1-0.1,0.2-0.1,0.3c0,0.1-0.1,0.2-0.2,0.3c0,0.1-0.1,0.1-0.1,0.2c0,0.1,0,0.1-0.1,0.2
		c-0.1,0.1-0.1,0.3-0.2,0.4c-0.1,0.1-0.1,0.3-0.2,0.4v0.1c-0.1,0.1-0.1,0.2-0.2,0.3c0,0.1-0.1,0.2-0.1,0.4l0,0l0,0
		c0,0,0-0.1,0.1-0.1l0.1-0.1c0.1-0.1,0.2-0.3,0.3-0.4c0.1-0.1,0.2-0.3,0.3-0.4c0-0.2,0.1-0.3,0.1-0.5c0.1-0.1,0.1-0.3,0.2-0.4
		l0.2-0.5c0-0.1,0.1-0.2,0.1-0.3c0-0.1,0.1-0.2,0.1-0.3c0-0.1,0.1-0.1,0.1-0.2C42.9,7.2,42.9,7.1,43,7z"/>
	<path d="M44.3,16.2c-0.2,0.2-0.3,0.4-0.5,0.4s-0.3,0-0.5,0c-0.1,0-0.3-0.1-0.4-0.1c-0.1,0-0.1-0.1-0.2-0.2c0-0.1-0.1-0.2-0.1-0.2
		s0-0.1,0-0.2v-0.1v-0.1c0-0.1,0-0.3,0-0.4c0-0.1,0.1-0.3,0.1-0.4c0.1-0.2,0.2-0.5,0.3-0.7s0.1-0.3,0.2-0.5c0.1-0.2,0.2-0.3,0.3-0.5
		c0-0.1,0.1-0.1,0.1-0.2c0-0.1,0.1-0.1,0.1-0.2c0.2-0.3,0.3-0.5,0.5-0.7c0.1-0.1,0.1-0.2,0.2-0.3c0.1-0.1,0.2-0.2,0.3-0.3
		s0.2-0.2,0.3-0.2c0.2-0.1,0.4-0.1,0.6,0c0.1,0,0.2,0.1,0.3,0.2c0,0,0,0,0.1,0.1h0.1v-0.1c0,0,0-0.1,0.1-0.1c0-0.1,0.1-0.1,0.2-0.1
		h0.1h0.1c0.1,0,0.1,0,0.2,0.1c0.1,0.1,0.1,0.1,0.1,0.1s0.1,0.1,0.1,0.2c0,0,0,0.1,0,0.2c0.1,0,0,0.1,0,0.3c0,0.1-0.1,0.3-0.1,0.4
		c0,0.1-0.1,0.2-0.1,0.4l-0.3,1.2c0,0.1-0.1,0.3-0.1,0.4c0,0.1,0,0.3,0,0.4v0.5v0.1v0.1c0,0.1,0.1,0.1,0.2,0
		c0.1-0.1,0.2-0.1,0.2-0.2c0.1-0.1,0.1-0.1,0.2-0.2l0.1-0.1l0.1-0.1c0-0.1,0.1-0.1,0.1-0.2c0-0.1,0.1-0.1,0.1-0.2
		c0.2-0.3,0.4-0.6,0.7-0.9c0.2-0.3,0.4-0.6,0.6-0.9c0.1-0.1,0.2-0.2,0.2-0.2c0-0.1,0.1-0.1,0.1-0.1c0.1,0,0.1,0,0.2,0
		c0.1,0,0.1,0,0.2,0.1c0,0,0,0,0.1,0.1l-0.1,0.3c-0.1,0.1-0.2,0.3-0.3,0.4c-0.1,0.1-0.2,0.3-0.3,0.4c-0.2,0.3-0.4,0.5-0.6,0.8
		c-0.2,0.3-0.4,0.5-0.5,0.8L47.3,16c-0.1,0.1-0.3,0.2-0.5,0.3h-0.1c-0.2,0-0.4,0-0.6,0c-0.1,0-0.1,0-0.1,0c-0.1,0-0.2-0.1-0.3-0.2
		s-0.2-0.3-0.2-0.4c0-0.1,0-0.2,0-0.2c0-0.1,0-0.2,0-0.2s0,0,0-0.1s0-0.2,0-0.4l0,0l0,0l0,0l-0.2,0.3l-0.2,0.3l-0.2,0.3
		c0,0.1-0.1,0.1-0.1,0.2c0,0.1-0.1,0.1-0.1,0.2s-0.1,0.2-0.2,0.2C44.5,16,44.4,16.1,44.3,16.2L44.3,16.2z M45.6,12.6
		c0-0.1,0-0.2,0-0.3s0-0.2,0-0.3v-0.1v-0.1c0,0,0,0,0-0.1h-0.1c-0.1,0.1-0.2,0.2-0.3,0.3s-0.2,0.3-0.3,0.4c-0.1,0.1-0.2,0.3-0.3,0.5
		s-0.2,0.4-0.3,0.6c-0.1,0.2-0.2,0.4-0.3,0.6c-0.1,0.2-0.1,0.3-0.2,0.5c-0.1,0.2-0.1,0.3-0.2,0.5c0,0.1,0,0.2-0.1,0.3
		c0,0.1,0,0.2,0,0.3v0.1c0,0.1,0,0.1,0.1,0c0-0.1,0.1-0.1,0.2-0.2c0.1-0.1,0.1-0.1,0.2-0.2c0.1-0.1,0.2-0.2,0.3-0.3s0.2-0.2,0.2-0.4
		c0-0.1,0.1-0.1,0.1-0.1c0-0.1,0-0.1,0.1-0.2c0-0.1,0.1-0.1,0.1-0.2c0,0,0-0.1,0.1-0.1V14c0-0.1,0.1-0.2,0.2-0.3
		c0.1-0.1,0.1-0.2,0.2-0.3c0.1-0.1,0.1-0.2,0.2-0.4c0.1-0.1,0.1-0.3,0.2-0.4c0-0.1,0.1-0.2,0.1-0.2C45.6,12.8,45.6,12.7,45.6,12.6
		C45.6,12.7,45.6,12.7,45.6,12.6z"/>
</g>
<image style="overflow:visible;enable-background:new    ;" width="125" height="105" xlink:href="FCD6676E.png"  transform="matrix(0.1102 0 0 0.1212 51.4535 6.9109)">
</image>
<g>
	<path class="st3" d="M28.7,28.6c-0.4,0.7-0.9,1.2-1.7,1.6c-0.7,0.4-1.6,0.6-2.6,0.6H21v-9.2h3.5c1,0,1.8,0.2,2.6,0.6
		c0.7,0.4,1.3,0.9,1.7,1.6c0.4,0.7,0.6,1.5,0.6,2.4S29.1,27.9,28.7,28.6z M26.3,28.1c0.5-0.5,0.7-1.1,0.7-1.9s-0.2-1.5-0.7-1.9
		c-0.5-0.5-1.2-0.7-2-0.7h-1.1v5.3h1.1C25.2,28.8,25.8,28.6,26.3,28.1z"/>
	<path class="st3" d="M32.7,21.6v5.3c0,0.6,0.1,1.1,0.4,1.4c0.3,0.3,0.7,0.5,1.2,0.5s0.9-0.2,1.2-0.5s0.4-0.8,0.4-1.4v-5.3h2.2v5.3
		c0,0.9-0.2,1.6-0.5,2.2s-0.8,1-1.4,1.3s-1.2,0.4-2,0.4c-0.7,0-1.4-0.1-1.9-0.4c-0.6-0.3-1-0.7-1.3-1.3c-0.3-0.6-0.5-1.3-0.5-2.2
		v-5.3C30.5,21.6,32.7,21.6,32.7,21.6z M32.3,19.2c0.2-0.2,0.4-0.3,0.7-0.3s0.5,0.1,0.7,0.3c0.2,0.2,0.3,0.4,0.3,0.7
		c0,0.3-0.1,0.5-0.3,0.7s-0.4,0.3-0.7,0.3s-0.5-0.1-0.7-0.3S32,20.2,32,19.9C32.1,19.6,32.2,19.4,32.3,19.2z M35,19.2
		c0.2-0.2,0.4-0.3,0.7-0.3s0.5,0.1,0.7,0.3c0.2,0.2,0.3,0.4,0.3,0.7c0,0.3-0.1,0.5-0.3,0.7s-0.4,0.3-0.7,0.3s-0.5-0.1-0.7-0.3
		s-0.3-0.4-0.3-0.7S34.8,19.4,35,19.2z"/>
	<path class="st3" d="M47.8,30.8h-2.2l-3.7-5.6v5.6h-2.2v-9.2h2.2l3.7,5.7v-5.7h2.2V30.8z"/>
	<path class="st3" d="M57,28.6c-0.4,0.7-0.9,1.2-1.7,1.6c-0.7,0.4-1.6,0.6-2.6,0.6h-3.5v-9.2h3.5c1,0,1.8,0.2,2.6,0.6
		c0.7,0.4,1.3,0.9,1.7,1.6s0.6,1.5,0.6,2.4S57.4,27.9,57,28.6z M54.6,28.1c0.5-0.5,0.7-1.1,0.7-1.9s-0.2-1.5-0.7-1.9
		c-0.5-0.5-1.2-0.7-2-0.7h-1.1v5.3h1.1C53.5,28.8,54.1,28.6,54.6,28.1z"/>
	<path class="st3" d="M64.5,29.1h-3.4l-0.6,1.7h-2.3l3.4-9.1h2.6l3.4,9.1h-2.4L64.5,29.1z M64,27.4L62.8,24l-1.2,3.4H64z"/>
	<path class="st3" d="M73.1,30.8l-2-3.5h-0.5v3.5h-2.2v-9.2h3.8c0.7,0,1.3,0.1,1.8,0.4s0.9,0.6,1.1,1c0.3,0.4,0.4,0.9,0.4,1.5
		c0,0.7-0.2,1.2-0.6,1.7s-0.9,0.8-1.6,1l2.2,3.6H73.1z M70.6,25.8H72c0.4,0,0.8-0.1,1-0.3c0.2-0.2,0.3-0.5,0.3-0.9S73.2,24,73,23.7
		c-0.2-0.2-0.5-0.3-1-0.3h-1.4V25.8z"/>
</g>
<g>
	<path class="st4" d="M104.3,26.9c-0.6,0.9-1.4,1.6-2.4,2.2c-1.1,0.5-2.4,0.8-3.9,0.8c-2.3,0-4.2-0.6-5.7-1.7s-2.3-2.7-2.4-4.7h5.3
		c0.1,0.8,0.4,1.4,0.8,1.8c0.5,0.4,1.1,0.7,1.8,0.7c0.6,0,1.1-0.2,1.5-0.5s0.6-0.8,0.6-1.4c0-0.5-0.2-1-0.5-1.3s-0.8-0.6-1.3-0.9
		c-0.5-0.2-1.2-0.5-2.1-0.8c-1.3-0.4-2.4-0.9-3.2-1.3c-0.8-0.4-1.5-1-2.1-1.9c-0.6-0.8-0.9-1.9-0.9-3.2c0-1.2,0.3-2.3,0.9-3.2
		s1.5-1.6,2.6-2c1.1-0.5,2.3-0.7,3.8-0.7c2.3,0,4.1,0.5,5.4,1.6s2.1,2.6,2.3,4.5h-5.4c-0.1-0.7-0.3-1.2-0.7-1.6
		c-0.4-0.4-0.9-0.6-1.6-0.6c-0.6,0-1,0.2-1.4,0.5s-0.5,0.8-0.5,1.4c0,0.5,0.2,0.9,0.5,1.2c0.3,0.3,0.7,0.6,1.2,0.8s1.2,0.5,2.1,0.8
		c1.3,0.4,2.4,0.9,3.2,1.3c0.8,0.4,1.5,1.1,2.1,1.9s0.9,1.9,0.9,3.2C105.1,25,104.8,26,104.3,26.9z"/>
</g>
<g>
	<path class="st4" d="M112.2,12.5c0.5,0.3,0.9,0.7,1.2,1.2c0.3,0.5,0.4,1.1,0.4,1.8c0,0.7-0.1,1.3-0.4,1.8s-0.7,0.9-1.2,1.2
		s-1.1,0.4-1.7,0.4s-1.2-0.1-1.7-0.4s-0.9-0.7-1.2-1.2s-0.4-1.1-0.4-1.8s0.1-1.3,0.4-1.8s0.7-0.9,1.2-1.2s1.1-0.4,1.7-0.4
		C111.1,12.1,111.7,12.2,112.2,12.5z M109.3,14.1c-0.3,0.3-0.5,0.8-0.5,1.4c0,0.6,0.2,1.1,0.5,1.4s0.7,0.5,1.2,0.5s0.9-0.2,1.2-0.5
		s0.5-0.8,0.5-1.4s-0.2-1.1-0.5-1.4s-0.7-0.5-1.2-0.5S109.6,13.7,109.3,14.1z"/>
	<path class="st4" d="M119.3,12.7c0.5,0.4,0.8,1,0.9,1.6h-1.6c-0.1-0.3-0.2-0.6-0.4-0.8c-0.2-0.2-0.5-0.3-0.9-0.3
		c-0.3,0-0.5,0.1-0.7,0.2s-0.2,0.3-0.2,0.6c0,0.2,0.1,0.3,0.2,0.4s0.3,0.2,0.5,0.3s0.5,0.1,0.8,0.2c0.5,0.1,0.9,0.2,1.2,0.4
		s0.6,0.3,0.8,0.6c0.2,0.3,0.3,0.6,0.3,1.1c0,0.6-0.2,1-0.7,1.4c-0.4,0.4-1,0.5-1.8,0.5c-0.9,0-1.6-0.2-2.1-0.6s-0.8-0.9-0.9-1.7
		h1.6c0,0.3,0.2,0.6,0.4,0.8c0.2,0.2,0.6,0.3,1,0.3c0.3,0,0.5-0.1,0.7-0.2s0.2-0.3,0.2-0.5s-0.1-0.3-0.2-0.5
		c-0.1-0.1-0.3-0.2-0.5-0.3c-0.2-0.1-0.5-0.1-0.8-0.2c-0.5-0.1-0.9-0.2-1.2-0.3c-0.3-0.1-0.6-0.3-0.8-0.6c-0.2-0.3-0.3-0.6-0.3-1.1
		c0-0.6,0.2-1,0.7-1.4c0.4-0.4,1-0.5,1.8-0.5C118.2,12.1,118.8,12.3,119.3,12.7z"/>
	<path class="st4" d="M122.7,12.2l1.8,4.5l1.7-4.5h1.9L124,22h-1.9l1.5-3.4l-2.8-6.5L122.7,12.2L122.7,12.2z"/>
	<path class="st4" d="M132.9,12.5c0.4,0.3,0.7,0.6,0.9,1.1v-1.4h1.7v6.6h-1.7v-1.4c-0.2,0.4-0.5,0.8-0.9,1.1
		c-0.4,0.3-0.9,0.4-1.4,0.4c-0.6,0-1.1-0.1-1.5-0.4s-0.8-0.7-1.1-1.2s-0.4-1.1-0.4-1.8s0.1-1.3,0.4-1.8c0.3-0.5,0.6-0.9,1.1-1.2
		c0.4-0.3,1-0.4,1.5-0.4C132,12.1,132.5,12.2,132.9,12.5z M130.7,14.1c-0.3,0.3-0.5,0.8-0.5,1.4c0,0.6,0.2,1.1,0.5,1.4
		s0.7,0.5,1.3,0.5c0.5,0,0.9-0.2,1.3-0.5c0.3-0.3,0.5-0.8,0.5-1.4s-0.2-1.1-0.5-1.4c-0.3-0.3-0.8-0.5-1.3-0.5
		C131.4,13.6,131,13.7,130.7,14.1z"/>
	<path class="st4" d="M138.6,9.9v8.9h-1.7V9.9H138.6z"/>
</g>
<g>
	<path d="M117,23.2c0.5,0.5,0.7,1.2,0.7,2.1v3.8h-1.1v-3.7c0-0.6-0.2-1.1-0.5-1.5s-0.8-0.5-1.3-0.5c-0.6,0-1,0.2-1.4,0.6
		c-0.3,0.4-0.5,0.9-0.5,1.7v3.5h-1.1v-3.7c0-0.6-0.2-1.1-0.5-1.5c-0.3-0.3-0.8-0.5-1.3-0.5c-0.6,0-1,0.2-1.4,0.6
		c-0.3,0.4-0.5,0.9-0.5,1.7v3.5H107v-6.6h1.1V24c0.2-0.5,0.4-0.9,0.9-1.2c0.4-0.3,0.9-0.4,1.4-0.4c0.6,0,1,0.1,1.5,0.4
		c0.4,0.3,0.7,0.7,0.9,1.3c0.2-0.5,0.5-1,0.9-1.2c0.4-0.3,0.9-0.4,1.5-0.4C115.9,22.4,116.5,22.7,117,23.2z"/>
	<path d="M125.4,26.1h-5.3c0,0.8,0.2,1.3,0.6,1.7c0.4,0.4,0.9,0.6,1.5,0.6c0.5,0,1-0.1,1.3-0.4c0.4-0.3,0.6-0.6,0.7-1.1h1.2
		c-0.1,0.5-0.3,0.9-0.5,1.2c-0.3,0.4-0.6,0.6-1.1,0.8c-0.4,0.2-0.9,0.3-1.5,0.3s-1.2-0.1-1.7-0.4s-0.9-0.7-1.1-1.2
		c-0.3-0.5-0.4-1.1-0.4-1.8c0-0.7,0.1-1.3,0.4-1.8s0.7-0.9,1.1-1.2c0.5-0.3,1-0.4,1.7-0.4c0.6,0,1.2,0.1,1.7,0.4s0.8,0.6,1.1,1.1
		s0.4,1,0.4,1.5C125.5,25.7,125.4,25.9,125.4,26.1z M124.1,24.3c-0.2-0.3-0.4-0.6-0.8-0.7s-0.7-0.2-1-0.2c-0.6,0-1.1,0.2-1.5,0.6
		s-0.6,0.9-0.7,1.6h4.2C124.4,25,124.3,24.6,124.1,24.3z"/>
	<path d="M131.2,22.9c0.4,0.3,0.8,0.7,0.9,1.3v-4h1.1v8.9h-1.1v-1.7c-0.2,0.5-0.5,1-0.9,1.3s-1,0.5-1.6,0.5s-1.1-0.1-1.6-0.4
		c-0.5-0.3-0.8-0.7-1.1-1.2c-0.3-0.5-0.4-1.1-0.4-1.8c0-0.7,0.1-1.3,0.4-1.8s0.6-0.9,1.1-1.2c0.5-0.3,1-0.4,1.6-0.4
		C130.2,22.4,130.8,22.6,131.2,22.9z M128.3,24.1c-0.4,0.4-0.6,1-0.6,1.8s0.2,1.3,0.6,1.8c0.4,0.4,0.9,0.6,1.6,0.6
		c0.4,0,0.8-0.1,1.2-0.3s0.6-0.5,0.8-0.8c0.2-0.4,0.3-0.8,0.3-1.3s-0.1-0.9-0.3-1.3s-0.5-0.7-0.8-0.8c-0.3-0.2-0.7-0.3-1.2-0.3
		C129.2,23.4,128.7,23.6,128.3,24.1z"/>
	<path d="M135.4,22.5l2.1,5.2l2-5.2h1.2l-3.9,9.7h-1.2L137,29l-2.8-6.5H135.4z"/>
	<path d="M146.1,22.9c0.4,0.3,0.8,0.7,0.9,1.3v-1.7h1.1v6.6H147v-1.7c-0.2,0.5-0.5,1-0.9,1.3s-1,0.5-1.6,0.5s-1.1-0.1-1.6-0.4
		s-0.8-0.7-1.1-1.2s-0.4-1.1-0.4-1.8c0-0.7,0.1-1.3,0.4-1.8c0.3-0.5,0.6-0.9,1.1-1.2c0.5-0.3,1-0.4,1.6-0.4
		C145.1,22.4,145.6,22.6,146.1,22.9z M143.1,24.1c-0.4,0.4-0.6,1-0.6,1.8s0.2,1.3,0.6,1.8c0.4,0.4,0.9,0.6,1.6,0.6
		c0.4,0,0.8-0.1,1.2-0.3s0.6-0.5,0.8-0.8c0.2-0.4,0.3-0.8,0.3-1.3s-0.1-0.9-0.3-1.3s-0.5-0.7-0.8-0.8c-0.3-0.2-0.7-0.3-1.2-0.3
		C144.1,23.4,143.5,23.6,143.1,24.1z"/>
</g>
</svg>
