<svg xmlns="http://www.w3.org/2000/svg" xmlns:xlink="http://www.w3.org/1999/xlink" width="597.598" height="71.095" viewBox="0 0 597.598 71.095">
  <defs>
    <filter id="Path_4" x="131.469" y="13.79" width="38.531" height="42.526" filterUnits="userSpaceOnUse">
      <feOffset dy="2" input="SourceAlpha"/>
      <feGaussianBlur stdDeviation="2" result="blur"/>
      <feFlood flood-color="#041230" flood-opacity="0.561"/>
      <feComposite operator="in" in2="blur"/>
      <feComposite in="SourceGraphic"/>
    </filter>
    <filter id="Path_946" x="11.114" y="5.224" width="273.156" height="58.515" filterUnits="userSpaceOnUse">
      <feOffset dy="2" input="SourceAlpha"/>
      <feGaussianBlur stdDeviation="2" result="blur-2"/>
      <feFlood flood-color="#041230" flood-opacity="0.561"/>
      <feComposite operator="in" in2="blur-2"/>
      <feComposite in="SourceGraphic"/>
    </filter>
    <filter id="Path_2" x="0" y="0" width="157.041" height="71.095" filterUnits="userSpaceOnUse">
      <feOffset dy="2" input="SourceAlpha"/>
      <feGaussianBlur stdDeviation="2" result="blur-3"/>
      <feFlood flood-color="#041230" flood-opacity="0.561"/>
      <feComposite operator="in" in2="blur-3"/>
      <feComposite in="SourceGraphic"/>
    </filter>
    <filter id="Path_3" x="126.469" y="13.79" width="38.531" height="42.526" filterUnits="userSpaceOnUse">
      <feOffset dy="2" input="SourceAlpha"/>
      <feGaussianBlur stdDeviation="2" result="blur-4"/>
      <feFlood flood-color="#041230" flood-opacity="0.561"/>
      <feComposite operator="in" in2="blur-4"/>
      <feComposite in="SourceGraphic"/>
    </filter>
    <filter id="Path_949" x="292.798" y="14.26" width="304.8" height="41.56" filterUnits="userSpaceOnUse">
      <feOffset dy="2" input="SourceAlpha"/>
      <feGaussianBlur stdDeviation="2" result="blur-5"/>
      <feFlood flood-color="#041230" flood-opacity="0.557"/>
      <feComposite operator="in" in2="blur-5"/>
      <feComposite in="SourceGraphic"/>
    </filter>
  </defs>
  <g id="Group_715" data-name="Group 715" transform="translate(1709.5 1331)">
    <g id="Group_714" data-name="Group 714" transform="translate(-1752.5 -1366)">
      <g transform="matrix(1, 0, 0, 1, 43, 35)" filter="url(#Path_4)">
        <path id="Path_4-2" data-name="Path 4" d="M3.94-5.851h7.423a2.57,2.57,0,0,0,2.263-.985L20.5-16.809a2.948,2.948,0,0,1,1.289-1.11,4.718,4.718,0,0,1,1.77-.293h6.16L20.666-5.872a6.051,6.051,0,0,1-1.006,1.11,6.337,6.337,0,0,1-1.069.733,5.393,5.393,0,0,1,1.456.807,5.325,5.325,0,0,1,1.2,1.372l9.219,14.163H24.144a5.505,5.505,0,0,1-1.037-.084,2.658,2.658,0,0,1-.744-.251,2.141,2.141,0,0,1-.545-.409,4.053,4.053,0,0,1-.44-.555L14.465.392a2.082,2.082,0,0,0-.953-.828A4.134,4.134,0,0,0,11.95-.676H3.94Z" transform="translate(133.53 36)" fill="#262424"/>
      </g>
      <g transform="matrix(1, 0, 0, 1, 43, 35)" filter="url(#Path_946)">
        <path id="Path_946-2" data-name="Path 946" d="M9.534-25.536v8.421H20.5v4.956H9.534V0H3.192V-30.471H22.6v4.935Zm31,13.965-3.3-9.324q-.294-.735-.619-1.722t-.619-2.142q-.294,1.176-.62,2.174t-.619,1.733l-3.276,9.282ZM51.114,0H46.221a2.154,2.154,0,0,1-1.333-.389,2.353,2.353,0,0,1-.766-1L42.063-7.2H29.925L27.867-1.386a2.4,2.4,0,0,1-.735.956A2.018,2.018,0,0,1,25.809,0H20.874L32.781-30.471h6.447ZM63.462-16.044a8.049,8.049,0,0,0,2.646-.389A4.971,4.971,0,0,0,67.935-17.5a4.162,4.162,0,0,0,1.05-1.607,5.858,5.858,0,0,0,.336-2.016,4.129,4.129,0,0,0-1.438-3.36,6.74,6.74,0,0,0-4.379-1.2H60.228v9.639ZM78.225,0H72.534a2.473,2.473,0,0,1-2.31-1.218l-5.8-9.345a2.449,2.449,0,0,0-.788-.8,2.561,2.561,0,0,0-1.27-.252H60.228V0h-6.3V-30.471H63.5a19.681,19.681,0,0,1,5.46.661,10.5,10.5,0,0,1,3.717,1.837,7.037,7.037,0,0,1,2.121,2.8,9.293,9.293,0,0,1,.672,3.581,9.408,9.408,0,0,1-.43,2.866,8.45,8.45,0,0,1-1.25,2.468,9.008,9.008,0,0,1-2.016,1.974,10.427,10.427,0,0,1-2.73,1.386,6.085,6.085,0,0,1,1.134.808,5.541,5.541,0,0,1,.945,1.124ZM93.408-5.04a7.009,7.009,0,0,0,2.751-.514,5.656,5.656,0,0,0,2.058-1.46A6.4,6.4,0,0,0,99.5-9.3a9.673,9.673,0,0,0,.441-3.024V-30.471h6.3v18.144a14.074,14.074,0,0,1-.893,5.093,11.485,11.485,0,0,1-2.551,4A11.631,11.631,0,0,1,98.763-.609a14.372,14.372,0,0,1-5.355.945,14.454,14.454,0,0,1-5.366-.945A11.611,11.611,0,0,1,84-3.234a11.485,11.485,0,0,1-2.552-4,14.074,14.074,0,0,1-.892-5.093V-30.471h6.3v18.144A9.673,9.673,0,0,0,87.3-9.3a6.4,6.4,0,0,0,1.281,2.289,5.656,5.656,0,0,0,2.058,1.46A7.066,7.066,0,0,0,93.408-5.04Zm25.137-12.852h1.239a2.575,2.575,0,0,0,2.247-.966l7.707-10.311a3.037,3.037,0,0,1,1.2-1.018,4,4,0,0,1,1.6-.283h5.46l-9.7,12.495a6.161,6.161,0,0,1-1.953,1.743,5.151,5.151,0,0,1,1.323.766,6.047,6.047,0,0,1,1.134,1.25L138.747,0H133.14a4.486,4.486,0,0,1-.934-.084,2.89,2.89,0,0,1-.682-.231,1.8,1.8,0,0,1-.5-.368,3.443,3.443,0,0,1-.4-.515l-7.833-10.962a2.3,2.3,0,0,0-.945-.808,3.9,3.9,0,0,0-1.533-.242h-1.764V0h-6.3V-30.471h6.3Zm56.994,13.44a11.782,11.782,0,0,1-3.99,3.3A14.42,14.42,0,0,1,166.005.273l-.252.9a8.044,8.044,0,0,1,1.659.557,4.1,4.1,0,0,1,1.081.724,2.381,2.381,0,0,1,.588.882,2.885,2.885,0,0,1,.179,1.008,2.3,2.3,0,0,1-.389,1.312,3.166,3.166,0,0,1-1.092.977,6.126,6.126,0,0,1-1.691.619,10.031,10.031,0,0,1-2.184.221,12.8,12.8,0,0,1-1.606-.095,9.926,9.926,0,0,1-1.48-.3l.525-1.785a.608.608,0,0,1,.651-.5,1.943,1.943,0,0,1,.63.115,2.775,2.775,0,0,0,.882.115,1.494,1.494,0,0,0,.924-.231.679.679,0,0,0,.294-.546q0-.525-.7-.766A13.973,13.973,0,0,0,161.763,3l.945-2.751a14.628,14.628,0,0,1-5.46-1.565,13.279,13.279,0,0,1-4.105-3.318,14.526,14.526,0,0,1-2.583-4.756,18.618,18.618,0,0,1-.893-5.859,18.363,18.363,0,0,1,.493-4.316,15.2,15.2,0,0,1,1.438-3.769,14.568,14.568,0,0,1,2.279-3.108,13.743,13.743,0,0,1,3.014-2.363,14.485,14.485,0,0,1,3.664-1.491,16.808,16.808,0,0,1,4.232-.514,16.538,16.538,0,0,1,3.182.294,15.388,15.388,0,0,1,2.8.819,12.867,12.867,0,0,1,2.4,1.271,13.45,13.45,0,0,1,1.985,1.627l-2.121,2.9a1.978,1.978,0,0,1-.483.483,1.349,1.349,0,0,1-.8.21,1.782,1.782,0,0,1-1.018-.357q-.515-.357-1.26-.8a9.123,9.123,0,0,0-1.869-.8,9.558,9.558,0,0,0-2.845-.357,8.712,8.712,0,0,0-3.507.693,7.618,7.618,0,0,0-2.74,2.005,9.236,9.236,0,0,0-1.775,3.224,13.86,13.86,0,0,0-.63,4.347,13.039,13.039,0,0,0,.683,4.379,9.611,9.611,0,0,0,1.869,3.244,7.869,7.869,0,0,0,2.772,2.005,8.486,8.486,0,0,0,3.392.683,16.34,16.34,0,0,0,1.942-.105,8.047,8.047,0,0,0,1.617-.357,7.145,7.145,0,0,0,1.407-.651,8.674,8.674,0,0,0,1.333-1.008,2.6,2.6,0,0,1,.483-.315,1.2,1.2,0,0,1,.546-.126,1.165,1.165,0,0,1,.882.378Zm9.891-21.084V-17.7h10.164v4.767H185.43v8h13.062V0h-19.4V-30.471h19.4v4.935ZM221.277-5.124V0H203.2V-30.471h6.3V-5.124ZM231.462,0H225.12V-30.471h6.342Zm.315-35.637a3.026,3.026,0,0,1-.273,1.271,3.421,3.421,0,0,1-.756,1.061,3.563,3.563,0,0,1-1.123.724,3.537,3.537,0,0,1-1.355.263,3.128,3.128,0,0,1-1.27-.263,3.442,3.442,0,0,1-1.061-.724,3.6,3.6,0,0,1-.735-1.061,3.026,3.026,0,0,1-.273-1.271,3.219,3.219,0,0,1,.273-1.312,3.522,3.522,0,0,1,.735-1.081A3.6,3.6,0,0,1,227-38.766a3.026,3.026,0,0,1,1.27-.273,3.419,3.419,0,0,1,1.355.273,3.718,3.718,0,0,1,1.123.735,3.351,3.351,0,0,1,.756,1.081A3.219,3.219,0,0,1,231.777-35.637Zm12.369,17.745h1.239a2.575,2.575,0,0,0,2.247-.966l7.707-10.311a3.037,3.037,0,0,1,1.2-1.018,4,4,0,0,1,1.6-.283h5.46l-9.7,12.495a6.162,6.162,0,0,1-1.953,1.743,5.151,5.151,0,0,1,1.323.766,6.048,6.048,0,0,1,1.134,1.25L264.348,0h-5.607a4.486,4.486,0,0,1-.934-.084,2.889,2.889,0,0,1-.682-.231,1.8,1.8,0,0,1-.5-.368,3.444,3.444,0,0,1-.4-.515l-7.833-10.962a2.3,2.3,0,0,0-.945-.808,3.9,3.9,0,0,0-1.533-.242h-1.764V0h-6.3V-30.471h6.3Z" transform="translate(13.92 48.26)" fill="#262424"/>
      </g>
      <g transform="matrix(1, 0, 0, 1, 43, 35)" filter="url(#Path_2)">
        <path id="Path_2-2" data-name="Path 2" d="M3135.359-728.263h-31.281v57.095h143.041" transform="translate(-3097.08 733.26)" fill="none" stroke="#7bc377" stroke-linecap="round" stroke-linejoin="round" stroke-width="2"/>
      </g>
      <g transform="matrix(1, 0, 0, 1, 43, 35)" filter="url(#Path_3)">
        <path id="Path_3-2" data-name="Path 3" d="M3.94-5.851h7.423a2.57,2.57,0,0,0,2.263-.985L20.5-16.809a2.948,2.948,0,0,1,1.289-1.11,4.718,4.718,0,0,1,1.77-.293h6.16L20.666-5.872a6.051,6.051,0,0,1-1.006,1.11,6.337,6.337,0,0,1-1.069.733,5.393,5.393,0,0,1,1.456.807,5.325,5.325,0,0,1,1.2,1.372l9.219,14.163H24.144a5.505,5.505,0,0,1-1.037-.084,2.658,2.658,0,0,1-.744-.251,2.141,2.141,0,0,1-.545-.409,4.053,4.053,0,0,1-.44-.555L14.465.392a2.082,2.082,0,0,0-.953-.828A4.134,4.134,0,0,0,11.95-.676H3.94Z" transform="translate(128.53 36)" fill="#7bc377"/>
      </g>
    </g>
    <rect id="Rectangle_454" data-name="Rectangle 454" width="3" height="37" rx="1" transform="translate(-1423 -1316)" fill="#7bc377"/>
    <g transform="matrix(1, 0, 0, 1, -1709.5, -1331)" filter="url(#Path_949)">
      <path id="Path_949-2" data-name="Path 949" d="M18.42-23.66a1.484,1.484,0,0,1-.51.62,1.282,1.282,0,0,1-.69.18,1.754,1.754,0,0,1-.9-.31q-.5-.31-1.18-.69a9.635,9.635,0,0,0-1.59-.69,6.683,6.683,0,0,0-2.15-.31,6.32,6.32,0,0,0-1.95.27,4.128,4.128,0,0,0-1.4.75,3,3,0,0,0-.85,1.15,3.775,3.775,0,0,0-.28,1.47,2.556,2.556,0,0,0,.57,1.7A4.759,4.759,0,0,0,9-18.36a14.013,14.013,0,0,0,2.14.86q1.2.38,2.45.81a23.594,23.594,0,0,1,2.45,1,8.491,8.491,0,0,1,2.14,1.44,6.526,6.526,0,0,1,1.51,2.13,7.4,7.4,0,0,1,.57,3.06,9.97,9.97,0,0,1-.67,3.67,8.467,8.467,0,0,1-1.96,2.98,9.232,9.232,0,0,1-3.15,2,11.6,11.6,0,0,1-4.26.73A13.736,13.736,0,0,1,7.5.05,14.318,14.318,0,0,1,4.93-.72a13.419,13.419,0,0,1-2.3-1.2A11.318,11.318,0,0,1,.72-3.48L2.28-6.06a1.991,1.991,0,0,1,.53-.47,1.294,1.294,0,0,1,.69-.19,1.908,1.908,0,0,1,1.08.41q.58.41,1.37.91a10.513,10.513,0,0,0,1.86.91,7.191,7.191,0,0,0,2.57.41,5.275,5.275,0,0,0,3.56-1.09A3.914,3.914,0,0,0,15.2-8.3a2.906,2.906,0,0,0-.57-1.86,4.6,4.6,0,0,0-1.51-1.21,11.274,11.274,0,0,0-2.14-.83q-1.2-.34-2.44-.74A21.041,21.041,0,0,1,6.1-13.9a7.9,7.9,0,0,1-2.14-1.46,6.643,6.643,0,0,1-1.51-2.25,8.575,8.575,0,0,1-.57-3.33,7.882,7.882,0,0,1,.63-3.08,7.885,7.885,0,0,1,1.84-2.66,9.083,9.083,0,0,1,2.97-1.86,10.812,10.812,0,0,1,4.02-.7,13.49,13.49,0,0,1,4.72.8,10.656,10.656,0,0,1,3.68,2.24Zm33.7,9.2a16.03,16.03,0,0,1-1.06,5.89,13.954,13.954,0,0,1-2.98,4.69A13.494,13.494,0,0,1,43.46-.79,15.585,15.585,0,0,1,37.48.32,15.661,15.661,0,0,1,31.49-.79a13.578,13.578,0,0,1-4.64-3.09,13.875,13.875,0,0,1-2.99-4.69,16.03,16.03,0,0,1-1.06-5.89,16.03,16.03,0,0,1,1.06-5.89,13.875,13.875,0,0,1,2.99-4.69,13.578,13.578,0,0,1,4.64-3.09,15.661,15.661,0,0,1,5.99-1.11,15.463,15.463,0,0,1,5.98,1.12,13.686,13.686,0,0,1,4.62,3.09,13.844,13.844,0,0,1,2.98,4.68A16.03,16.03,0,0,1,52.12-14.46Zm-5.52,0a13.467,13.467,0,0,0-.63-4.27,9.032,9.032,0,0,0-1.81-3.21,7.793,7.793,0,0,0-2.87-2.02,9.875,9.875,0,0,0-3.81-.7,9.95,9.95,0,0,0-3.82.7,7.866,7.866,0,0,0-2.89,2.02,9.068,9.068,0,0,0-1.83,3.21,13.273,13.273,0,0,0-.64,4.27,13.273,13.273,0,0,0,.64,4.27,8.965,8.965,0,0,0,1.83,3.2,7.922,7.922,0,0,0,2.89,2.01,9.95,9.95,0,0,0,3.82.7,9.875,9.875,0,0,0,3.81-.7,7.847,7.847,0,0,0,2.87-2.01,8.929,8.929,0,0,0,1.81-3.2A13.467,13.467,0,0,0,46.6-14.46Zm25.26-9.2a1.484,1.484,0,0,1-.51.62,1.282,1.282,0,0,1-.69.18,1.754,1.754,0,0,1-.9-.31q-.5-.31-1.18-.69a9.635,9.635,0,0,0-1.59-.69,6.683,6.683,0,0,0-2.15-.31,6.32,6.32,0,0,0-1.95.27,4.128,4.128,0,0,0-1.4.75,3,3,0,0,0-.85,1.15,3.775,3.775,0,0,0-.28,1.47,2.556,2.556,0,0,0,.57,1.7,4.759,4.759,0,0,0,1.51,1.16,14.013,14.013,0,0,0,2.14.86q1.2.38,2.45.81a23.593,23.593,0,0,1,2.45,1,8.491,8.491,0,0,1,2.14,1.44,6.526,6.526,0,0,1,1.51,2.13,7.4,7.4,0,0,1,.57,3.06,9.97,9.97,0,0,1-.67,3.67,8.467,8.467,0,0,1-1.96,2.98,9.232,9.232,0,0,1-3.15,2,11.6,11.6,0,0,1-4.26.73A13.736,13.736,0,0,1,60.94.05a14.318,14.318,0,0,1-2.57-.77,13.419,13.419,0,0,1-2.3-1.2,11.318,11.318,0,0,1-1.91-1.56l1.56-2.58a1.991,1.991,0,0,1,.53-.47,1.294,1.294,0,0,1,.69-.19,1.908,1.908,0,0,1,1.08.41q.58.41,1.37.91a10.513,10.513,0,0,0,1.86.91,7.191,7.191,0,0,0,2.57.41,5.275,5.275,0,0,0,3.56-1.09A3.914,3.914,0,0,0,68.64-8.3a2.906,2.906,0,0,0-.57-1.86,4.6,4.6,0,0,0-1.51-1.21,11.275,11.275,0,0,0-2.14-.83q-1.2-.34-2.44-.74a21.04,21.04,0,0,1-2.44-.96,7.9,7.9,0,0,1-2.14-1.46,6.643,6.643,0,0,1-1.51-2.25,8.575,8.575,0,0,1-.57-3.33,7.882,7.882,0,0,1,.63-3.08,7.885,7.885,0,0,1,1.84-2.66,9.083,9.083,0,0,1,2.97-1.86,10.812,10.812,0,0,1,4.02-.7,13.49,13.49,0,0,1,4.72.8,10.656,10.656,0,0,1,3.68,2.24ZM90.68-11.24V0H85.3V-11.24L74.76-28.92H79.5a1.686,1.686,0,0,1,1.11.34,2.865,2.865,0,0,1,.69.86l5.3,9.66q.46.86.8,1.63t.62,1.51q.26-.76.59-1.53t.79-1.61l5.26-9.66a2.672,2.672,0,0,1,.66-.82,1.652,1.652,0,0,1,1.12-.38h4.76ZM125.78,0h-4.16a1.818,1.818,0,0,1-1.15-.35,1.99,1.99,0,0,1-.65-.87l-2.16-5.9H105.68l-2.16,5.9a1.893,1.893,0,0,1-.63.84,1.77,1.77,0,0,1-1.15.38H97.56l11.36-28.92h5.5ZM107.06-10.92h9.22l-3.52-9.62q-.24-.64-.53-1.51t-.57-1.89q-.28,1.02-.55,1.9t-.53,1.54Zm27.08,6.48h11.58V0H128.76V-28.92h5.38ZM171.68-12q.34.64.63,1.33t.57,1.39q.28-.72.58-1.42t.64-1.34l8.56-16.02a2.222,2.222,0,0,1,.33-.48,1.021,1.021,0,0,1,.38-.26,1.677,1.677,0,0,1,.47-.1q.26-.02.62-.02h4.06V0h-4.74V-18.68q0-.52.03-1.14t.09-1.26l-8.74,16.4a2.3,2.3,0,0,1-.78.87,2.018,2.018,0,0,1-1.12.31h-.74a2.018,2.018,0,0,1-1.12-.31,2.3,2.3,0,0,1-.78-.87l-8.86-16.46q.08.66.11,1.29t.03,1.17V0h-4.74V-28.92h4.06q.36,0,.62.02a1.677,1.677,0,0,1,.47.1,1.112,1.112,0,0,1,.39.26,2.019,2.019,0,0,1,.34.48ZM212.6-28.92v4.28H199.78v8.02h10.1v4.14h-10.1V-4.3H212.6V0H194.36V-28.92Zm30.34,14.46a15.639,15.639,0,0,1-1.06,5.84,13.415,13.415,0,0,1-2.98,4.58,13.332,13.332,0,0,1-4.62,2.98A16.234,16.234,0,0,1,228.3,0H217.26V-28.92H228.3a16.1,16.1,0,0,1,5.98,1.07,13.526,13.526,0,0,1,4.62,2.98,13.309,13.309,0,0,1,2.98,4.57A15.639,15.639,0,0,1,242.94-14.46Zm-5.5,0a13.273,13.273,0,0,0-.64-4.27,9.047,9.047,0,0,0-1.82-3.2,7.847,7.847,0,0,0-2.87-2.01,9.875,9.875,0,0,0-3.81-.7h-5.62V-4.28h5.62a9.875,9.875,0,0,0,3.81-.7,7.847,7.847,0,0,0,2.87-2.01,9.047,9.047,0,0,0,1.82-3.2A13.273,13.273,0,0,0,237.44-14.46Zm20.98,3.22V0h-5.38V-11.24L242.5-28.92h4.74a1.686,1.686,0,0,1,1.11.34,2.865,2.865,0,0,1,.69.86l5.3,9.66q.46.86.8,1.63t.62,1.51q.26-.76.59-1.53t.79-1.61l5.26-9.66a2.672,2.672,0,0,1,.66-.82,1.652,1.652,0,0,1,1.12-.38h4.76ZM293.52,0h-4.16a1.818,1.818,0,0,1-1.15-.35,1.99,1.99,0,0,1-.65-.87l-2.16-5.9H273.42l-2.16,5.9a1.893,1.893,0,0,1-.63.84,1.77,1.77,0,0,1-1.15.38H265.3l11.36-28.92h5.5ZM274.8-10.92h9.22l-3.52-9.62q-.24-.64-.53-1.51t-.57-1.89q-.28,1.02-.55,1.9t-.53,1.54Z" transform="translate(298.08 47.5)" fill="#262424"/>
    </g>
  </g>
</svg>
