<?xml version="1.0" encoding="utf-8"?>
<!-- Generator: Adobe Illustrator 25.3.1, SVG Export Plug-In . SVG Version: 6.00 Build 0)  -->
<svg version="1.1" id="katman_1" xmlns="http://www.w3.org/2000/svg" xmlns:xlink="http://www.w3.org/1999/xlink" x="0px" y="0px"
	 viewBox="0 0 100 100" style="enable-background:new 0 0 100 100;" xml:space="preserve">
<style type="text/css">
	.st0{fill:#FFFFFF;}
</style>
<g>
	<path class="st0" d="M15.9,89.3C15.9,89.3,15.9,89.3,15.9,89.3l-11.3,0l0-19.1l1,0c1.1,0,2-1,2-2.1c0-1.1-0.9-2-2.1-2L3,66.1
		c-1.4,0-2.5,1.1-2.5,2.5l0,22.2c0,1.4,1.1,2.5,2.5,2.5l12.9,0c1.1,0,2-0.9,2-2C18,90.2,17.1,89.3,15.9,89.3z"/>
	<path class="st0" d="M89.7,73C89.7,73,89.7,73,89.7,73l-0.5,0c0-0.3,0.1-0.6,0.1-0.9c0-2.7-2.2-4.9-4.9-4.9c0,0,0,0,0,0l-13.3,0
		c1.1-1.5,1.3-2.6,1.2-3.4c0.1-1.8-1-2.8-1.8-3.6c-3.1-3.1-8.2,1-9.9,2.4c-2.3,1.8-8.9,4.4-13.2,5.9c-0.3-0.8-1-1.3-1.9-1.3
		c0,0,0,0,0,0c-1.1,0-2,0.9-2,2l0,1.8c0,0.1,0,0.3,0,0.4l0,0.3c0,0.1,0,0.3,0,0.6l0,0.2l0,1l0,0.4c0,0,0,0.2,0,0.3l0,0
		c0,0,0,0.1,0,0.1l0,13.5c0,0.1,0,0.3,0,0.5c0,0.1,0,0.1,0,0.2l0,0.4v0.4l-11.2,0c-1.1,0-2,0.9-2,2c0,1.1,0.9,2,2,2c0,0,0,0,0,0
		l12.7,0c1.3,0,2.4-1,2.5-2.4c2.1,0.2,4.3,0.6,6.4,1.4c4.2,1.5,9.3,2,9.5,2c0.1,0,0.1,0,0.2,0c0,0,0,0,0,0l11,0
		c2.2,0,5.2-1.6,6.8-3.7c0.1-0.1,0.1-0.2,0.2-0.2c0.3-0.5,0.5-1.2,0.5-1.8l0.6,0c2.1,0,6.1-1.6,7.4-4.1c0.3-0.7,0.4-1.3,0.4-2
		c2.2-0.6,4.2-2.4,4.2-4.7C94.6,75.1,92.4,73,89.7,73z M88.9,78.7l-19.5,0.1c-1.1,0-2,0.9-2,2c0,1.1,0.9,2,2,2c0,0,0,0,0,0l4.7,0
		c0,0,0,0,0,0c0,0,0,0,0,0l12.2,0c0,0,0,0,0,0.1c-0.3,0.7-2.7,1.8-3.7,1.8l-3.4,0c-0.2,0-0.4-0.1-0.7-0.1c0,0,0,0,0,0l-6.3,0l-0.1,0
		c0,0,0,0,0,0c0,0,0,0,0,0l-2.8,0c-1.1,0-2,0.9-2,2c0,1.1,0.9,2,2,2c0,0,0,0,0,0l2.8,0l5.6,0c-1,1-2.5,1.7-3.2,1.7l-10.9,0
		c-0.7-0.1-5-0.5-8.4-1.8c-2.5-0.9-5.1-1.5-7.7-1.7l0-13.5l0-0.6c3.6-1.2,12.4-4.4,15.7-7c3.4-2.8,4.6-2.6,4.5-2.6
		c0.2,0.2,0.5,0.5,0.5,0.5c0,0.2,0,0.4,0,0.6c-0.1,0.3-0.8,1.3-3.3,3l-1.4,0c-1.1,0-2,0.9-2,2c0,1.1,0.9,2,2,2c0,0,0,0,0,0l1.9,0
		c0,0,0,0,0,0l2.7,0c0,0,0,0,0,0c0,0,0,0,0,0l16.2,0c0,0,0,0,0,0c0.5,0,0.8,0.4,0.8,0.9c0,0.5-0.1,0.7-0.1,0.8l-9.5,0h-1.3
		c0,0,0,0,0,0l-4.9,0c-1.1,0-2,0.9-2,2c0,1.1,0.9,2,2,2c0,0,0,0,0,0l6.3,0H85c0.1,0,0.1,0,0.2,0l4.5,0h0c0.5,0,0.8,0.4,0.8,0.8
		C90.4,78.1,89.6,78.7,88.9,78.7z"/>
	<path class="st0" d="M99.5,11.4c0-1.4-1.1-2.5-2.5-2.5l-9.6,0c-1.1,0-2,0.9-2,2c0,1.1,0.9,2,2,2h0l8.1,0l0,19.8
		c-0.3,0.4-0.5,0.8-0.5,1.3c0,1.1,0.9,2,2,2c1.4,0,2.5-1.1,2.5-2.5L99.5,11.4z"/>
	<path class="st0" d="M9.9,28.1C9.9,28.2,9.9,28.2,9.9,28.1C9.9,28.2,9.9,28.2,9.9,28.1C9.9,28.2,9.9,28.2,9.9,28.1
		c0.1,0,0.1,0.1,0.1,0.1c0.9,0.7,1.9,1,3,1l0.5,0c0,0.3,0,0.6,0,0.9c0,2.7,2.2,4.9,4.9,4.9l13.3,0c-1.1,1.5-1.3,2.6-1.2,3.4
		c-0.1,1.8,1,2.8,1.7,3.5l0.1,0.1c0.4,0.4,1,0.8,1.5,0.9c0.4,0.1,0.9,0.2,1.4,0.2c1.9,0,4.1-1.1,7-3.5c2.3-1.9,9.4-4.6,13.7-6.1
		c0.4,0.4,0.9,0.7,1.5,0.7c0,0,0,0,0,0c1.1,0,2-0.9,2-2l0-1.3v-2.6c0,0,0-0.2,0-0.2l0-0.3l0-13.5c0-0.3,0-0.8,0-1v-0.4l9.9,0
		c1.1,0,2-0.9,2-2c0-1.1-0.9-2-2-2h0l-11.5,0c-1.3,0-2.4,1-2.5,2.4c-2.1-0.2-4.3-0.6-6.3-1.4c-4.2-1.5-9.3-2-9.5-2
		c-0.1,0-0.1,0-0.2,0h-11c-1.1,0-2.4,0.4-3.7,1.1c-1.2,0.7-2.3,1.6-3.1,2.6c-0.1,0.1-0.1,0.2-0.2,0.2c-0.3,0.5-0.5,1.2-0.6,1.8
		l-0.6,0c-1.1,0-2.6,0.4-3.9,1.1c-1.2,0.6-2.7,1.5-3.4,3c-0.3,0.7-0.4,1.4-0.4,2c-0.9,0.2-1.7,0.7-2.4,1.2c0,0,0,0,0,0
		c-1.1,0.9-1.8,2.2-1.8,3.5C8.1,25.9,8.8,27.2,9.9,28.1z M28.5,23.5L28.5,23.5l4.7,0c1.1,0,2-0.9,2-2c0-1.1-0.9-2-2-2c0,0,0,0,0,0
		l-4.7,0l0,0l-12.2,0c0,0,0,0,0-0.1c0.1-0.2,0.6-0.6,1.5-1.1c0.9-0.4,1.8-0.7,2.1-0.7l3.4,0c0.2,0,0.4,0.1,0.7,0.1l9.2,0
		c1.1,0,2-0.9,2-2c0-1.1-0.9-2-2-2c0,0,0,0,0,0l-2.7,0c0,0,0,0-0.1,0l-5.6,0c0.4-0.4,0.9-0.8,1.5-1.1c0.8-0.4,1.4-0.6,1.7-0.6h10.9
		c0.6,0.1,5,0.5,8.4,1.8c2.5,0.9,5.1,1.5,7.7,1.7l0,12.4c0,0.2,0,0.3,0,0.6v1.1c-3.6,1.2-12.4,4.4-15.7,7c-3,2.4-4.2,2.6-4.5,2.6
		l0,0c-0.2-0.2-0.4-0.4-0.5-0.5c0-0.2,0-0.4,0-0.6c0.1-0.2,0.4-0.6,1.2-1.4c0,0,0,0,0,0c0.5-0.5,1.2-1,2.1-1.6l1.4,0
		c1.1,0,2-0.9,2-2c0-1.1-0.9-2-2-2c0,0,0,0,0,0l-4.9,0h0l-16,0c-0.5,0-0.8-0.4-0.8-0.9c0-0.5,0.1-0.8,0.1-0.8l10.7,0h0.1h0l4.9,0
		c1.1,0,2-0.9,2-2c0-1.1-0.9-2-2-2c0,0,0,0,0,0l-5.1,0H17.6c-0.1,0-0.3,0-0.4,0l-4.3,0c-0.2,0-0.4-0.1-0.5-0.2c0,0,0,0,0,0
		c0,0,0,0,0,0c-0.2-0.2-0.3-0.4-0.3-0.6c0,0,0.1-0.2,0.3-0.4c0,0,0,0,0,0c0,0,0,0,0,0c0.4-0.4,1-0.5,1.3-0.5L28.5,23.5z"/>
	<path class="st0" d="M11.2,17.7c1.1,0,2-0.9,2-2V6.8l19.8,0c0.4,0.3,0.8,0.5,1.3,0.5c1.1,0,2-0.9,2-2c0-1.4-1.1-2.5-2.5-2.5
		l-22.2,0c-1.4,0-2.5,1.1-2.5,2.5v10.4C9.1,16.8,10,17.7,11.2,17.7z"/>
	<path class="st0" d="M30.4,88.7c1.3,0,2.5-0.5,3.5-1.4c0.9-0.9,1.4-2.2,1.4-3.5l0-13.3c1,0.8,2,1.2,2.9,1.2c0.2,0,0.3,0,0.4,0
		c0.1,0,0.1,0,0.2,0c1.7,0,2.7-1,3.4-1.8c0.2-0.2,0.5-0.5,0.6-0.7c1.7-2.8-0.9-6.6-2.9-9.1c-1.9-2.4-4.6-9.5-6.1-13.8
		c0.3-0.3,0.4-0.7,0.5-1.1c0.1-1.1-0.7-2.1-1.9-2.2l-1.1-0.1c-0.1,0-0.1,0-0.2,0l-2.6,0c0,0,0,0,0,0l-14.9,0h-0.4l0-11.1
		c0-1.1-0.9-2-2-2c0,0,0,0,0,0c-1.1,0-2,0.9-2,2l0,12.7c0,1.3,1,2.4,2.4,2.5c-0.2,2.1-0.6,4.2-1.4,6.4c-1.5,4.2-2,9.3-2,9.5
		c0,0.1,0,0.1,0,0.2v11c0,1.4,0.6,2.8,1.1,3.7c0.7,1.2,1.6,2.3,2.6,3.1c0.1,0.1,0.2,0.1,0.2,0.2c0.5,0.3,1.2,0.5,1.8,0.6l0,0.6
		c0,1.1,0.4,2.6,1.1,4c0.6,1.1,1.5,2.7,3,3.4c0.7,0.3,1.3,0.4,2,0.4c0.3,1.1,0.9,2.1,1.7,2.9c0,0,0,0,0,0c0,0,0,0,0,0
		c0.9,0.8,1.9,1.2,3,1.2c1,0,2-0.4,2.9-1c0.1-0.1,0.2-0.1,0.3-0.2c1.1-0.9,1.7-2.3,1.7-3.7l0-0.5C29.8,88.7,30.1,88.7,30.4,88.7z
		 M19.6,85.8c-0.2-0.1-0.6-0.6-1.1-1.5c-0.5-1-0.7-1.9-0.7-2.2l0-3.4c0-0.2,0.1-0.5,0.1-0.7l0-6.1v-0.4c0,0,0,0,0,0l0-2.8
		c0-1.1-0.9-2-2-2c0,0,0,0,0,0c-1.1,0-2,0.9-2,2l0,3.1l0,5.3c-0.4-0.4-0.8-0.9-1.1-1.5c-0.4-0.8-0.6-1.4-0.6-1.7V63.1
		c0.1-0.6,0.5-5,1.8-8.4c0.9-2.5,1.5-5.1,1.7-7.7l14.1,0c1.2,3.6,4.4,12.4,7,15.7c2.5,3.1,2.6,4.3,2.6,4.5c-0.2,0.2-0.4,0.5-0.5,0.5
		c-0.2,0-0.4,0-0.6,0c-0.2-0.1-0.5-0.3-1.1-0.9c-0.6-0.6-1.2-1.4-1.9-2.4v-1.4c0-1.1-0.9-2-2-2c-1.1,0-2,0.9-2,2v2v0c0,0,0,0,0,0
		c0,0,0,0,0,0l0,18.9c0,0.3-0.1,0.5-0.2,0.6c-0.1,0.1-0.3,0.2-0.6,0.2c-0.5,0-0.8-0.1-0.8-0.1l0-10.7v-0.1c0,0,0,0,0,0l0-4.9
		c0-1.1-0.9-2-2-2c0,0,0,0,0,0c-1.1,0-2,0.9-2,2l0,5.1v10.7c0,0.1,0,0.3,0,0.4l0,4.3c0,0,0,0.1,0,0.1l-1.5,0
		c-0.2-0.3-0.3-0.7-0.3-0.9l0-14.8v0l0,0l0-4.7c0-1.1-0.9-2-2-2h0c-1.1,0-2,0.9-2,2l0,4.7l0,0L19.6,85.8
		C19.7,85.8,19.7,85.8,19.6,85.8z"/>
	<path class="st0" d="M91.3,85.8C91.2,85.8,91.2,85.8,91.3,85.8c-1.1,0-2,0.9-2,2l0,7.3l-20.6,0c-1.1,0-2,0.9-2,2c0,1.1,0.9,2,2,2
		c0,0,0,0,0,0l22.2,0c1.4,0,2.5-1.1,2.5-2.5l0-8.8C93.3,86.7,92.4,85.8,91.3,85.8z"/>
	<path class="st0" d="M67.1,18.1l0,13.3c-1.5-1.2-2.6-1.3-3.4-1.2c-1.8-0.1-2.8,1-3.6,1.8c-3.1,3.1,1,8.2,2.4,9.9
		c1.8,2.3,4.4,8.9,5.9,13.2c-0.8,0.3-1.3,1-1.3,1.9c0,1.1,0.9,2,2,2.1l2,0c0.1,0,0.1,0,0.2,0c0,0,0.1,0,0.1,0l0.2,0
		c0.1,0,0.3,0,0.5,0c0,0,0.1,0,0.2,0l0.9,0l0.7,0c0,0,0.2,0,0.2,0l0.3,0c1.9,0,4.5,0,7,0l5.8,0c0,0,0,0,0.1,0l0.3,0
		c0.1,0,0.2,0,0.3,0c0.1,0,0.2,0,0.3,0c0.1,0,0.3,0,0.4,0h0.3h0h0.4l0,10c0,1.1,0.9,2,2,2h0c1.1,0,2-0.9,2-2l0-11.5
		c0-1.3-1-2.4-2.4-2.5c0.2-2.1,0.6-4.3,1.4-6.4c1.5-4.2,2-9.3,2-9.5c0,0,0-0.1,0-0.1c0,0,0,0,0-0.1l0-11c0-2.2-1.6-5.2-3.7-6.8
		c-0.1-0.1-0.2-0.1-0.2-0.2c-0.5-0.3-1.2-0.5-1.8-0.5l0-0.6c0-2.1-1.6-6.1-4.1-7.4c-0.7-0.3-1.3-0.4-2-0.4c-0.6-2.2-2.4-4.2-4.7-4.2
		c0,0,0,0,0,0c-1.3,0-2.5,0.5-3.4,1.4c-0.9,0.9-1.4,2.2-1.4,3.5l0,0.5c-0.3,0-0.6-0.1-0.9-0.1c0,0,0,0,0,0
		C69.3,13.2,67.1,15.4,67.1,18.1z M72.1,17.3c0.5,0,0.7,0.1,0.8,0.1l0,9.5v1.3c0,0,0,0,0,0l0,4.9c0,1.1,0.9,2,2,2c0,0,0,0,0,0
		c1.1,0,2-0.9,2-2l0-6.3v-9.5c0-0.1,0-0.1,0-0.2l0-4.5c0-0.3,0.2-0.5,0.2-0.6c0.1-0.1,0.3-0.2,0.6-0.2c0.3,0.1,0.9,0.9,0.9,1.6
		l0,19.5c0,1.1,0.9,2,2,2c0,0,0,0,0,0c1.1,0,2-0.9,2-2l0-4.6c0,0,0,0,0,0l0-12.2c0,0,0,0,0.1,0c0.7,0.3,1.8,2.7,1.8,3.7l0,3.4
		c0,0.2-0.1,0.4-0.1,0.7l0,6.3l0,0.1c0,0,0,0,0,0l0,2.8c0,1.1,0.9,2,2,2c0,0,0,0,0,0c1.1,0,2-0.9,2-2l0-2.8l0-5.6
		c1,1,1.7,2.5,1.7,3.2l0,10.9c-0.1,0.7-0.5,4.9-1.8,8.4c-0.9,2.5-1.5,5.1-1.7,7.7l-13.5,0l-0.7,0c-1.2-3.6-4.4-12.4-7-15.7
		c-2.8-3.5-2.6-4.5-2.6-4.5c0.2-0.2,0.5-0.5,0.5-0.5c0.2,0,0.4,0,0.6,0c0.3,0.1,1.3,0.8,3,3.3l0,1.4c0,1.1,0.9,2,2,2c0,0,0,0,0,0
		c1.1,0,2-0.9,2-2l0-4.9c0,0,0,0,0,0c0,0,0,0,0,0l0-16C71.2,17.6,71.5,17.3,72.1,17.3z"/>
</g>
</svg>
