<?xml version="1.0" encoding="utf-8"?>
<!-- Generator: Adobe Illustrator 25.3.1, SVG Export Plug-In . SVG Version: 6.00 Build 0)  -->
<svg version="1.1" id="katman_1" xmlns="http://www.w3.org/2000/svg" xmlns:xlink="http://www.w3.org/1999/xlink" x="0px" y="0px"
	 viewBox="0 0 100 100" style="enable-background:new 0 0 100 100;" xml:space="preserve">
<style type="text/css">
	.st0{fill:#FFFFFF;stroke:#FFFFFF;stroke-miterlimit:10;}
</style>
<g>
	<path class="st0" d="M52.1,33.3c-0.5-0.9-2.7-5-3.3-5.8c-0.6-0.8-2-2.7-2.2-3.4c-0.3-0.7-1.4-3.8-3.9-4.9c-2.5-1.1-3.8-2-4.7-2.5
		c-0.4-0.2-2.1-0.6-2.1-1s0.6-1.6,0.6-1.6s0.9-0.3,1.3-0.8c0.5-0.5,0.6-1.7,0.4-2.2c-0.1-0.3-0.5-0.5-0.5-0.5s0.2-0.7,0.3-1.5
		c0.2-0.1,0.3-0.3,0.3-0.5l0.1-1.3c0-0.3-0.2-0.5-0.5-0.5c0-0.1,0-0.3-0.3-0.7c0-0.1-0.1-0.2-0.1-0.3c0.2,0.1,0.5,0.2,0.5,0.2
		l-0.5-0.8l0.5,0.3c0,0-0.6-0.8-1.6-1.5c0.2,0,0.8,0.3,0.8,0.3S36.8,4,36,3.6c-0.8-0.4-2.4-0.3-2.4-0.3s0.3,0,0.3-0.4
		c0,0.1-1,0.1-2,0.7C32,3.1,32.4,3.1,32.6,3c-1.9-0.2-3.4,0.8-3.6,1c-0.8,0.5-1.7,1.6-0.9,2.7c-0.2,0-0.3,0.1-0.3,0.3l0,0.7
		c0,0.1,0,0.1,0,0.2c-0.1,0.2-1.1,1.8-1.4,2.8c0,0.1,0.3,0.2,0.9,0.2c-0.1,0.2-0.2,0.4-0.2,0.6c0.1,0.9,0.3,1.3,0.5,1.5
		c0.1,0.1,0.5,0.7,0.8,0.8c0.1,0.4,0.2,0.6,0.3,0.9c0.1,0.7,0.7,1.2,0.7,1.2l0.5,1.3c0,0-2.3,1.2-3.4,1.5c-1,0.4-4.3,0.6-5.3,3.7
		c-0.4,1.3-0.9,8.6-0.8,9.3c0.1,0.7-1.1,1.4-1.4,3.8c-0.2,1.6-1.2,3.4-1.2,3.4s-1.6,0.7-1.8,0.9c-0.2,0.2-1,1.9-1,2.5
		c0,0.6,0.5,1.8,0.5,1.8s1,1.5,1.9,1.5c0.8,0,2.1-0.9,2.2-1.3c0-0.2,0.2-1.7-0.3-1.7c0-0.6,0.2-1.2,0.2-1.2s1.1-1.9,1.9-2.9
		c0.8-1.1,1.9-3.1,2.1-3.7c0.6-1.8,1.1-4.4,1.1-4.4s0.4,1.1,0.6,1.8c0.2,0.7,0,6.8-0.2,7.3c-0.1,0.5-0.5,3.9-0.5,3.9s-1,2.7-1.5,4
		c-1.5,3.5-2.1,7.4-1.9,11.8c0,0.2,0.5,0.8,0.5,1c-0.1,1.1-0.1,1.9-0.1,2.4c0.2,2.6,0.8,7.6,0.8,7.6s-0.5,4.2-0.3,6.5
		c0.3,2.3,2.9,9,3.5,10.5c0.6,1.5,1.3,4.1,1.3,4.7c0,0.6-1,2.6-1.5,3c-0.5,0.4-1.7,1.2-2,1.7c-0.3,0.5-0.2,1.1-0.2,1.1
		s1.7,0.5,4,0.3c2.4-0.2,1.1-0.7,2.3-0.7c1.1,0,1.7,0,1.8-0.2c0.1-0.2,0.1-1.3-0.2-2.2c-0.3-0.9-0.9-3-0.9-3s-1.1-3.3-1.3-4.3
		s0.1-7.4,0-8.9c-0.2-1.8-1.5-5.6-1.5-5.6c0.1,0.3,0.9-5.1,1.1-7.3s0.7-4.5,0.7-4.5l0.5-0.4l0.9-1.2l0.6,1.6l0.3,0.2
		c0,0-0.7,4.5-0.8,5.4c-0.1,0.9-0.3,6.3-0.2,6.8c0.1,0.6,1.1,3.1,2,3.2c0.9,0.1,3.4-1.5,4-2.9c0.5-1.1,0.8-2,1.3-3.7
		c0.5-1.6,0.6-2.7,0.9-3.5c0.5-1.1,1.1-0.8,1.3-1.3c0.2-0.5,0.1-1,0.1-1.4c0-0.4-0.7-0.7-0.7-0.7l-0.6-0.3c0,0,0.2-1.8,0.6-2.8
		c0.2-0.1,0.3,0,0.5-0.2c0.7-0.9,1.6-3.7,1.8-4.8c0.3-1.3,0.7-2.6,0.7-2.6s1.8-0.7,2.3-1.5c0.5-0.7,0.7-3.1,1.1-3.9
		c0.4-0.7,3.4-4.7,4.4-6.2c1-1.4,2-4.3,2.4-5C52.6,35.4,52.5,34.1,52.1,33.3z M46.5,38.6c-0.3,0.7-2.6,6.2-2.6,6.2l-1.3,0.9l0.2-1.6
		c0,0,0.1-3.1-0.2-4c-0.3-0.9,0.1-3,0.2-4.2c0-1.2,0.7-7.3,0.7-7.3s1.5,2.7,2.3,3.8c0.8,1.1,2.6,2.9,2.6,2.9S47.1,37.2,46.5,38.6z"
		/>
	<path class="st0" d="M41.6,32.2c0,0-0.2,1.9-1.3,2.6c-1.1,0.8-5,0.5-5.4,0.5c-0.4,0-1.5-0.4-1.5-0.4s-2.5,0.2-2.3,0.3
		c0.2,0.1,6.1,2,5.9,4c0,0.6,0.5,4.7,0.5,4.7l3.1,2c0,0,2.3-9.8,1.7-13L41.6,32.2z"/>
	<path class="st0" d="M24.7,30c0,0-0.2-2.3-0.5-2.6c-0.1,1.8-0.7,4.2-1,4.8s0.1,1.2,0.1,1.2l0.3,1.3c0,0,0.9-3,1.1-4.5L24.7,30z"/>
	<path class="st0" d="M30.7,36.5c0,0,3.2,1,3.4,3.1s-0.7,3.5-0.7,3.5S30.5,38.7,30.7,36.5z"/>
</g>
<path class="st0" d="M20.1,52.8c-7.9-1-12.1-20.5-0.5-26c11.1-5.2,20.8,3.6,27.8,11c6.6,7.1,17.9,9,23.7,1.8
	c6-7.5,3.1-16.4,3.1-16.4s1,10.3-4.4,15.3C63.8,44.1,54.7,42,48,34c-6.5-7.8-15.5-17.8-29.8-12.5C3.4,27,3.6,45.2,8.4,53.1
	c5.3,8.9,12.1,10.8,12.1,10.8s-0.8-1.8-0.8-5.3C19.7,55.8,20.1,52.8,20.1,52.8z"/>
<path class="st0" d="M49.9,44.1c0,0,9.3,5.1,18.7,2.5c9.4-2.7,13.7-12,13.7-12s-2.1,8.3-12.6,13.3c-11.5,5.6-21.4-0.3-21.4-0.3
	S47.2,44.9,49.9,44.1z"/>
<path class="st0" d="M46.8,53.6c0,0,5.9,4.9,18.5,3.3c-13.6,3-19.7-2.1-19.7-2.1S45.1,53.7,46.8,53.6z"/>
<path class="st0" d="M20.3,68.2c0,0-6.4-1.5-12.8-9.6C4.4,54.8,1.9,47,2.7,40.1c0,0-0.1,10.3,5.3,17.2c5.7,7.2,12.7,8.8,12.7,8.8
	S21.2,67.7,20.3,68.2z"/>
<path class="st0" d="M78.9,34.8c0,0-0.7-7,2.8-13.5c3.5-6.5,10-8.9,10-8.9s-6.5,3.4-9.2,10.3C79.9,29.5,82.7,30.5,78.9,34.8z"/>
<path class="st0" d="M77.7,16.7c0,0,0.5-4.5-2.8-7.5c2,3,2,4.8,1.9,7.4C76.8,17.8,77.8,17.3,77.7,16.7z"/>
<path class="st0" d="M15.4,49.5c-0.6,0-10.4-19.2,6.4-26.2C32.2,18.9,41.7,28,41.7,28s-9.6-9-20.2-5.2C4.8,28.9,14,48.2,15.4,49.5z"
	/>
<path class="st0" d="M20,61.1C14,59.6,5.6,49.6,5.8,37.5C5.5,50.5,12,59,20.1,62.3C19.9,61.9,20,61.1,20,61.1z"/>
<ellipse transform="matrix(0.9248 -0.3805 0.3805 0.9248 -10.425 7.0902)" class="st0" cx="12.7" cy="29.9" rx="2" ry="2"/>
<polygon class="st0" points="20.7,26.1 21.3,25 20.9,26.3 22.1,25.9 21,26.5 22.1,27.1 20.9,26.8 21.3,28 20.7,26.9 20,28 
	20.4,26.8 19.2,27.1 20.3,26.5 19.2,25.9 20.4,26.3 20,25 "/>
</svg>
