<?xml version="1.0" encoding="utf-8"?>
<!-- Generator: Adobe Illustrator 25.3.1, SVG Export Plug-In . SVG Version: 6.00 Build 0)  -->
<svg version="1.1" id="Layer_1" xmlns="http://www.w3.org/2000/svg" xmlns:xlink="http://www.w3.org/1999/xlink" x="0px" y="0px"
	 viewBox="0 0 566.9 566.9" style="enable-background:new 0 0 566.9 566.9;" xml:space="preserve">
<style type="text/css">
	.st0{fill:#FFFFFF;}
</style>
<g>
	<g>
		<path class="st0" d="M458.1,385.1c-1.2,0-2.4-0.3-3.5-0.8c-4.1-2-5.9-6.9-4-11l27.3-58c6-12.6,18.8-20.8,32.8-20.8h17.5l5.4-14.4
			h-20.2c-18.3,0-35.1,10.7-42.8,27.2l-34.1,73c-1.3,2.7-3.9,4.5-6.8,4.7c-3,0.3-5.8-1.1-7.5-3.5l-31-44.5
			c-25.1-34.9-65.9-55.8-108.9-55.8H31.2l8.8,15.4h235.3c41.4,0,80.2,20.3,103.8,54.3c0.1,0.1,0.1,0.1,0.1,0.2l13.7,21.1
			c2.5,3.8,1.4,9-2.5,11.5c-3.8,2.5-9,1.4-11.5-2.5l-13.6-21c-20.5-29.5-54.2-47.1-90.1-47.1H35.2c-3,0-5.7-1.6-7.2-4.2l-18.3-32
			c-1.5-2.6-1.5-5.7,0-8.3c1.5-2.6,4.2-4.1,7.2-4.1h265.5c48.4,0,94.2,23.5,122.4,62.8c0,0,0,0.1,0.1,0.1l22.8,32.8l28-59.9
			c10.5-22.3,33.1-36.8,57.8-36.8h32.3c2.7,0,5.3,1.3,6.8,3.6c1.5,2.2,1.9,5.1,0.9,7.7l-11.7,31c-1.2,3.2-4.3,5.4-7.8,5.4h-23.2
			c-7.6,0-14.6,4.4-17.8,11.3l-27.3,58C464.2,383.4,461.2,385.1,458.1,385.1z"/>
		<path class="st0" d="M382.6,559.5c-4.6,0-8.3-3.7-8.3-8.3V476c0-5.3,0.6-10.6,1.7-15.8c3.6-16.6,12.9-31.7,26.1-42.4
			c13.2-10.7,29.9-16.6,46.9-16.6h79l5.8-16.5l-502.8,1l8.9,15.5h227.5c30.7,0,57.9,18.4,69.4,46.8l2.3,5.8
			c3.6,8.9,5.4,18.3,5.4,27.9v69.4c0,4.6-3.7,8.3-8.3,8.3c-4.6,0-8.3-3.7-8.3-8.3v-69.4c0-7.5-1.4-14.8-4.2-21.7l-2.3-5.8
			c-8.9-22.1-30.1-36.4-54-36.4H35.2c-3,0-5.7-1.6-7.2-4.2l-18.3-32c-1.5-2.6-1.5-5.7,0-8.3c1.5-2.6,4.2-4.1,7.2-4.1l528.9-1.1
			c0,0,0,0,0,0c2.7,0,5.2,1.3,6.8,3.5c1.6,2.2,1.9,5,1,7.6l-11.7,33.1c-1.2,3.3-4.3,5.5-7.8,5.5h-84.9c-27.2,0-51.1,19.3-56.9,45.9
			c-0.9,4-1.3,8.2-1.3,12.3v75.1C390.9,555.8,387.2,559.5,382.6,559.5z"/>
		<path class="st0" d="M474.9,295.3h-71.4c-4.6,0-8.3-3.7-8.3-8.3c0-4.6,3.7-8.3,8.3-8.3h71.4c4.6,0,8.3,3.7,8.3,8.3
			C483.1,291.6,479.4,295.3,474.9,295.3z"/>
		<path class="st0" d="M117.5,348.8H62.9c-4.6,0-8.3-3.7-8.3-8.3c0-4.6,3.7-8.3,8.3-8.3h54.6c4.6,0,8.3,3.7,8.3,8.3
			C125.8,345.1,122.1,348.8,117.5,348.8z"/>
		<path class="st0" d="M281.7,454.7H62.9c-4.6,0-8.3-3.7-8.3-8.3c0-4.6,3.7-8.3,8.3-8.3h218.8c4.6,0,8.3,3.7,8.3,8.3
			C290,451,286.2,454.7,281.7,454.7z"/>
		<path class="st0" d="M518.7,454.7h-85.4c-4.6,0-8.3-3.7-8.3-8.3c0-4.6,3.7-8.3,8.3-8.3h85.4c4.6,0,8.3,3.7,8.3,8.3
			C527,451,523.3,454.7,518.7,454.7z"/>
		<path class="st0" d="M453.5,329.5h-27.3c-4.6,0-8.3-3.7-8.3-8.3c0-4.6,3.7-8.3,8.3-8.3h27.3c4.6,0,8.3,3.7,8.3,8.3
			C461.8,325.8,458.1,329.5,453.5,329.5z"/>
		<path class="st0" d="M551.7,560.8H18.6c-4.6,0-8.3-3.7-8.3-8.3s3.7-8.3,8.3-8.3h533.2c4.6,0,8.3,3.7,8.3,8.3
			S556.3,560.8,551.7,560.8z"/>
		<path class="st0" d="M62.3,383.4c-4.6,0-8.3-3.7-8.3-8.3v-69.5c0-4.6,3.7-8.3,8.3-8.3s8.3,3.7,8.3,8.3v69.5
			C70.5,379.7,66.8,383.4,62.3,383.4z"/>
		<path class="st0" d="M117.5,384.5c-4.6,0-8.3-3.7-8.3-8.3v-69.5c0-4.6,3.7-8.3,8.3-8.3c4.6,0,8.3,3.7,8.3,8.3v69.5
			C125.8,380.8,122.1,384.5,117.5,384.5z"/>
		<path class="st0" d="M62.3,558.3c-4.6,0-8.3-3.7-8.3-8.3V410.3c0-4.6,3.7-8.3,8.3-8.3s8.3,3.7,8.3,8.3V550
			C70.5,554.6,66.8,558.3,62.3,558.3z"/>
		<path class="st0" d="M519,558.3c-4.6,0-8.3-3.7-8.3-8.3V410.3c0-4.6,3.7-8.3,8.3-8.3c4.6,0,8.3,3.7,8.3,8.3V550
			C527.3,554.6,523.6,558.3,519,558.3z"/>
		<path class="st0" d="M519,381.1c-4.6,0-8.3-3.7-8.3-8.3v-68.4c0-4.6,3.7-8.3,8.3-8.3c4.6,0,8.3,3.7,8.3,8.3v68.4
			C527.3,377.4,523.6,381.1,519,381.1z"/>
		<path class="st0" d="M460.5,559.6c-4.6,0-8.3-3.7-8.3-8.3v-42.8c0-4.6,3.7-8.3,8.3-8.3h56.6c4.6,0,8.3,3.7,8.3,8.3
			c0,4.6-3.7,8.3-8.3,8.3h-48.3v34.5C468.8,555.9,465.1,559.6,460.5,559.6z"/>
		<path class="st0" d="M272.6,559.6c-4.6,0-8.3-3.7-8.3-8.3v-34.5h-97.7v34.5c0,4.6-3.7,8.3-8.3,8.3c-4.6,0-8.3-3.7-8.3-8.3v-42.8
			c0-4.6,3.7-8.3,8.3-8.3h114.3c4.6,0,8.3,3.7,8.3,8.3v42.8C280.9,555.9,277.1,559.6,272.6,559.6z"/>
		<path class="st0" d="M109.5,559.6c-4.6,0-8.3-3.7-8.3-8.3v-34.5H64c-4.6,0-8.3-3.7-8.3-8.3c0-4.6,3.7-8.3,8.3-8.3h45.5
			c4.6,0,8.3,3.7,8.3,8.3v42.8C117.7,555.9,114,559.6,109.5,559.6z"/>
	</g>
	<g>
		<path class="st0" d="M282.5,96.5c-4.6,0-8.3-3.7-8.3-8.3v-5c0-4.6,3.7-8.3,8.3-8.3c4.6,0,8.3,3.7,8.3,8.3v5
			C290.8,92.8,287.1,96.5,282.5,96.5z"/>
		<path class="st0" d="M282.5,196.5c-4.6,0-8.3-3.7-8.3-8.3v-71.4c0-4.6,3.7-8.3,8.3-8.3c4.6,0,8.3,3.7,8.3,8.3v71.4
			C290.8,192.8,287.1,196.5,282.5,196.5z"/>
		<path class="st0" d="M46.5,167.1c-1.9,0-3.9-0.7-5.5-2l-0.7-0.6c-3.5-3-3.8-8.3-0.8-11.7c3-3.5,8.3-3.8,11.7-0.8l0.7,0.6
			c3.5,3,3.8,8.3,0.8,11.7C51.1,166.1,48.8,167.1,46.5,167.1z"/>
		<path class="st0" d="M117.5,229c-1.9,0-3.9-0.7-5.4-2l-48.7-42.4c-3.5-3-3.8-8.2-0.8-11.7c3-3.5,8.2-3.8,11.7-0.8l48.7,42.4
			c3.5,3,3.8,8.2,0.8,11.7C122.1,228.1,119.8,229,117.5,229z"/>
		<path class="st0" d="M451.4,222.8c-2.3,0-4.7-1-6.3-2.9c-3-3.5-2.6-8.7,0.9-11.7l71.4-61c3.5-3,8.7-2.6,11.7,0.9
			c3,3.5,2.6,8.7-0.9,11.7l-71.4,61C455.3,222.1,453.4,222.8,451.4,222.8z"/>
		<path class="st0" d="M376.7,178.1c-1.3,0-2.6-0.3-3.8-0.9c-4.1-2.1-5.7-7.1-3.6-11.2l32.4-63.4c2.1-4.1,7.1-5.7,11.2-3.6
			c4.1,2.1,5.7,7.1,3.6,11.2l-32.4,63.4C382.6,176.4,379.7,178.1,376.7,178.1z"/>
		<path class="st0" d="M362.1,207.6c-1.3,0-2.5-0.3-3.7-0.9c-4.1-2.1-5.7-7-3.7-11.1l1-2c2.1-4.1,7.1-5.7,11.1-3.7
			c4.1,2.1,5.7,7,3.7,11.1l-1,2C368.1,205.9,365.2,207.6,362.1,207.6z"/>
		<path class="st0" d="M185.6,180.9c-3,0-5.9-1.6-7.4-4.5l-32.6-63.4c-2.1-4.1-0.5-9.1,3.6-11.2c4.1-2.1,9.1-0.5,11.2,3.6l32.6,63.4
			c2.1,4.1,0.5,9.1-3.6,11.2C188.2,180.6,186.9,180.9,185.6,180.9z"/>
		<path class="st0" d="M201.5,210.3c-3,0-5.9-1.6-7.4-4.5l-1.6-3c-2.1-4.1-0.5-9.1,3.5-11.2c4.1-2.1,9.1-0.5,11.2,3.5l1.6,3
			c2.1,4.1,0.5,9.1-3.5,11.2C204.1,210,202.8,210.3,201.5,210.3z"/>
	</g>
</g>
</svg>
