<?xml version="1.0" encoding="utf-8"?>
<!-- Generator: Adobe Illustrator 25.3.1, SVG Export Plug-In . SVG Version: 6.00 Build 0)  -->
<svg version="1.0" id="katman_1" xmlns="http://www.w3.org/2000/svg" xmlns:xlink="http://www.w3.org/1999/xlink" x="0px" y="0px"
	 viewBox="0 0 500 400" style="enable-background:new 0 0 500 400;" xml:space="preserve">
<style type="text/css">
	.st0{fill:#FFFFFF;}
</style>
<g>
	<path class="st0" d="M164.13,170.08c-23.04,0-41.79-18.75-41.79-41.79c0-23.04,18.75-41.79,41.79-41.79
		c23.04,0,41.78,18.75,41.78,41.79C205.92,151.33,187.17,170.08,164.13,170.08z M164.13,99.84c-15.69,0-28.45,12.77-28.45,28.45
		c0,15.69,12.77,28.45,28.45,28.45s28.45-12.77,28.45-28.45C192.58,112.6,179.82,99.84,164.13,99.84z"/>
	<path class="st0" d="M298.66,170.08h-61.91c-3.68,0-6.67-2.99-6.67-6.67c0-3.68,2.98-6.67,6.67-6.67h61.91
		c3.68,0,6.67,2.98,6.67,6.67C305.33,167.09,302.34,170.08,298.66,170.08z"/>
	<path class="st0" d="M270.09,212.34h-138.1c-3.68,0-6.67-2.99-6.67-6.67c0-3.68,2.98-6.67,6.67-6.67h138.1
		c3.68,0,6.67,2.99,6.67,6.67C276.76,209.36,273.77,212.34,270.09,212.34z"/>
	<path class="st0" d="M233.18,252.23h-101.2c-3.68,0-6.67-2.99-6.67-6.67c0-3.68,2.98-6.67,6.67-6.67h101.2
		c3.68,0,6.67,2.99,6.67,6.67C239.85,249.24,236.87,252.23,233.18,252.23z"/>
	<path class="st0" d="M220.09,292.11h-88.1c-3.68,0-6.67-2.99-6.67-6.67c0-3.68,2.98-6.67,6.67-6.67h88.1
		c3.68,0,6.67,2.99,6.67,6.67C226.75,289.12,223.77,292.11,220.09,292.11z"/>
	<path class="st0" d="M220.09,331.99h-88.1c-3.68,0-6.67-2.99-6.67-6.67c0-3.68,2.98-6.67,6.67-6.67h88.1
		c3.68,0,6.67,2.99,6.67,6.67C226.75,329.01,223.77,331.99,220.09,331.99z"/>
	<path class="st0" d="M298.66,137.94h-61.91c-3.68,0-6.67-2.98-6.67-6.67c0-3.68,2.98-6.67,6.67-6.67h61.91
		c3.68,0,6.67,2.99,6.67,6.67C305.33,134.95,302.34,137.94,298.66,137.94z"/>
	<path class="st0" d="M298.66,105.79h-61.91c-3.68,0-6.67-2.99-6.67-6.67c0-3.68,2.98-6.67,6.67-6.67h61.91
		c3.68,0,6.67,2.99,6.67,6.67C305.33,102.81,302.34,105.79,298.66,105.79z"/>
	<path class="st0" d="M361.04,398.07h-42.35c-3.68,0-6.67-2.98-6.67-6.67v-19.95c-1.34-0.52-2.68-1.08-4.02-1.68l-14.12,14.12
		c-2.6,2.6-6.82,2.6-9.43,0l-29.94-29.94c-1.25-1.25-1.95-2.95-1.95-4.71c0-1.77,0.7-3.46,1.95-4.71l14.12-14.12
		c-0.61-1.33-1.17-2.68-1.68-4.02H247c-3.68,0-6.67-2.98-6.67-6.67v-42.34c0-3.68,2.98-6.67,6.67-6.67h19.95
		c0.52-1.34,1.08-2.68,1.68-4.02l-14.12-14.12c-1.25-1.25-1.95-2.95-1.95-4.71c0-1.77,0.7-3.46,1.95-4.71l29.94-29.94
		c1.25-1.25,2.95-1.95,4.71-1.95c1.77,0,3.46,0.7,4.71,1.95l14.12,14.12c1.33-0.6,2.68-1.17,4.02-1.68v-19.95
		c0-3.68,2.98-6.67,6.67-6.67h42.35c3.68,0,6.67,2.99,6.67,6.67v19.95c1.34,0.52,2.68,1.08,4.02,1.68l14.12-14.12
		c2.6-2.6,6.82-2.6,9.43,0l29.94,29.94c2.61,2.6,2.61,6.82,0,9.43l-14.12,14.12c0.6,1.33,1.17,2.67,1.68,4.02h19.95
		c3.68,0,6.67,2.99,6.67,6.67v42.34c0,3.68-2.99,6.67-6.67,6.67h-19.95c-0.52,1.34-1.08,2.68-1.68,4.02l14.12,14.12
		c2.61,2.6,2.61,6.82,0,9.43l-29.94,29.94c-2.6,2.6-6.82,2.6-9.43,0l-14.12-14.12c-1.33,0.6-2.67,1.17-4.01,1.68v19.95
		C367.71,395.08,364.72,398.07,361.04,398.07z M325.36,384.73h29.01v-18.02c0-2.92,1.9-5.5,4.69-6.37c3.63-1.13,7.3-2.66,10.9-4.56
		c2.59-1.36,5.76-0.88,7.82,1.19l12.77,12.77l20.51-20.51l-12.77-12.77c-2.07-2.07-2.55-5.24-1.18-7.82c1.9-3.6,3.43-7.27,4.56-10.9
		c0.87-2.79,3.45-4.69,6.37-4.69h18.02v-29.01h-18.02c-2.92,0-5.5-1.9-6.37-4.69c-1.13-3.64-2.66-7.31-4.56-10.9
		c-1.36-2.59-0.88-5.76,1.18-7.82l12.77-12.77l-20.51-20.51l-12.77,12.77c-2.07,2.06-5.24,2.55-7.83,1.18
		c-3.59-1.89-7.26-3.43-10.9-4.56c-2.79-0.87-4.69-3.45-4.69-6.37v-18.02h-29.01v18.02c0,2.92-1.9,5.5-4.69,6.37
		c-3.64,1.13-7.31,2.66-10.9,4.56c-2.59,1.37-5.77,0.88-7.83-1.18l-12.77-12.77l-20.52,20.51l12.77,12.77
		c2.07,2.07,2.55,5.23,1.19,7.82c-1.9,3.6-3.43,7.27-4.56,10.9c-0.87,2.79-3.45,4.69-6.37,4.69h-18.02v29.01h18.02
		c2.92,0,5.5,1.9,6.37,4.69c1.13,3.63,2.66,7.3,4.56,10.9c1.36,2.59,0.88,5.76-1.19,7.82l-12.77,12.77l20.52,20.51l12.77-12.77
		c2.06-2.07,5.23-2.55,7.82-1.19c3.6,1.9,7.27,3.43,10.9,4.56c2.79,0.87,4.69,3.45,4.69,6.37V384.73z"/>
	<path class="st0" d="M339.87,351.93c-29.44,0-53.4-23.95-53.4-53.4c0-29.44,23.95-53.4,53.4-53.4c29.44,0,53.4,23.95,53.4,53.4
		C393.26,327.98,369.31,351.93,339.87,351.93z M339.87,258.47c-22.09,0-40.06,17.97-40.06,40.06c0,22.09,17.97,40.06,40.06,40.06
		c22.09,0,40.06-17.97,40.06-40.06C379.93,276.44,361.96,258.47,339.87,258.47z"/>
	<path class="st0" d="M386.76,195.67c-3.68,0-6.67-2.99-6.67-6.67V14.27H154.13v12.56h206.74c3.68,0,6.67,2.99,6.67,6.67V177.1
		c0,3.68-2.99,6.67-6.67,6.67c-3.68,0-6.67-2.99-6.67-6.67V40.16H147.46c-3.68,0-6.67-2.99-6.67-6.67V7.6
		c0-3.68,2.98-6.67,6.67-6.67h239.3c3.68,0,6.67,2.99,6.67,6.67V189C393.43,192.69,390.44,195.67,386.76,195.67z"/>
	<path class="st0" d="M334.97,183.78c-3.68,0-6.67-2.99-6.67-6.67V66.06H121.57c-3.68,0-6.67-2.99-6.67-6.67V33.5
		c0-3.68,2.98-6.67,6.67-6.67h239.3c3.68,0,6.67,2.99,6.67,6.67v139.44c0,3.68-2.99,6.67-6.67,6.67c-3.68,0-6.67-2.99-6.67-6.67
		V40.16H128.24v12.56h206.74c3.68,0,6.67,2.99,6.67,6.67v117.72C341.64,180.79,338.65,183.78,334.97,183.78z"/>
	<path class="st0" d="M274.85,400H95.67c-3.68,0-6.67-2.98-6.67-6.67V59.39c0-3.68,2.98-6.67,6.67-6.67h239.3
		c3.68,0,6.67,2.99,6.67,6.67v117.72c0,3.68-2.99,6.67-6.67,6.67c-3.68,0-6.67-2.99-6.67-6.67V66.06H102.34v320.61h172.51
		c3.68,0,6.67,2.98,6.67,6.67S278.53,400,274.85,400z"/>
</g>
</svg>
