<?xml version="1.0" encoding="UTF-8" standalone="no"?>
<!DOCTYPE svg PUBLIC "-//W3C//DTD SVG 1.1//EN" "http://www.w3.org/Graphics/SVG/1.1/DTD/svg11.dtd">
<svg width="100%" height="100%" viewBox="0 0 5788 2300" version="1.1" xmlns="http://www.w3.org/2000/svg" xmlns:xlink="http://www.w3.org/1999/xlink" xml:space="preserve" xmlns:serif="http://www.serif.com/" style="fill-rule:evenodd;clip-rule:evenodd;stroke-linejoin:round;stroke-miterlimit:2;">
    <g id="katman-1" serif:id="katman 1" transform="matrix(1,0,0,1,0,-286.831)">
        <g transform="matrix(1.86197,0,0,1.86197,-2050.32,-1359.55)">
            <g opacity="0.3">
                <g transform="matrix(1,0,0,1,3328.57,930.953)">
                    <path d="M0,346.918C-1.458,346.12 -2.107,345.104 -1.942,343.874C7.205,345.918 11.212,332.785 11.409,332.785C24.882,333.865 29.368,317.849 23.935,307.558C35.918,306.994 39.249,295.633 35.769,285.64C44.719,283.761 50.583,276.062 50.583,266.984C71.921,278.275 111.01,283.926 118.529,251.989C131.098,257.853 145.119,255.895 155.08,245.997C162.263,238.867 163.759,246.348 172.901,249.009C182.531,251.771 192.972,250.44 201.922,246.05C207.754,243.188 212.996,239.032 217.104,233.961C225.75,223.404 222.026,224.867 235.674,224.532C249.445,224.17 261.796,216.619 264.126,202.385C299.06,212.729 328.89,188.284 316.752,151.403C346.753,146.045 368.618,128.671 373.737,96.313C378.228,68.026 358.971,35.338 334.233,22.269C319.828,14.687 303.849,15.048 289.482,22.535C279.707,27.585 283.362,25.308 276.844,18.544C270.794,12.26 263.179,7.482 254.948,4.491C222.424,-7.311 197.548,13.984 192.626,45.911C187.752,41.638 180.919,39.377 174.449,39.744C175.05,32.944 174.497,26.409 171.288,20.306C166.004,10.297 155.745,2.214 145.917,-3.107C124.366,-14.713 96.579,-11.557 79.573,6.556C69.84,16.895 65.402,31.129 64.519,45.049C64.072,52.163 64.535,59.347 65.887,66.334C60.246,67.664 54.947,70.255 50.285,73.597C27.819,89.944 23.562,119.545 39.031,142.171C7.322,144.448 6.987,189.715 20.518,209.553C13.559,210.963 7.833,215.954 5.108,222.403C-2.325,220.126 -10.291,221.626 -16.762,225.665C-34.364,236.77 -34.098,260.747 -19.22,274.199C-28.181,279.574 -30.011,291.946 -25.552,300.805C-23.179,305.546 -19.05,309.069 -13.984,310.601C-4.837,313.395 -11.105,316.918 -9.163,325.299C-24.44,320.014 -31.395,343.725 -16.16,348.312C-13.883,356.959 7.354,361.631 0,346.918C-0.542,345.854 2.81,352.601 0,346.918" style="fill:rgb(129,147,153);fill-rule:nonzero;"/>
                </g>
            </g>
        </g>
        <g transform="matrix(1.86197,0,0,1.86197,-2050.32,-1359.55)">
            <g opacity="0.6">
                <g transform="matrix(1,0,0,1,3493.97,1220.86)">
                    <path d="M0,-218.289C1.384,-215.618 3.262,-213.372 5.672,-211.542C-2.262,-211.675 -4.156,-213.904 0,-218.289C1.362,-215.682 -0.665,-216.996 0,-218.289M115.501,-164.849C108.248,-164.184 106.253,-166.876 109.467,-172.963C111.26,-170.101 113.255,-167.376 115.501,-164.849C113.17,-165.679 113.255,-167.376 115.501,-164.849M61.092,-124.626C50.349,-123.727 53.643,-117.826 47.343,-129.5C53.541,-127.686 76.273,-129.799 77.008,-126.786C71.649,-128.117 65.95,-127.319 61.092,-124.626C57.5,-124.344 65.53,-127.106 61.092,-124.626M19.342,-204.938C18.406,-201.9 16.926,-202.23 14.867,-205.891C16.347,-205.571 17.826,-205.258 19.342,-204.938C18.938,-204.294 17.81,-205.092 19.342,-204.938M-163.689,63.903C-163.253,61.295 -164.222,59.432 -166.531,58.305C-159.614,53.643 -158.384,44.565 -151.951,42.437C-134.636,36.818 -148.588,18.428 -141.405,11.91C-145.949,15.533 -138.744,9.68 -137.743,8.419C-131.443,0.634 -135.338,-1.591 -126.293,-4.485C-109.813,-9.742 -110.925,-28.398 -106.136,-41.169C-104.869,-35.215 -104.64,-29.031 -106.253,-23.109C-98.622,-20.15 -90.226,-19.32 -82.191,-20.916C-66.993,-23.844 -53.776,-34.996 -49.386,-49.981C-40.552,-43.697 -23.227,-41.669 -13.553,-47.118C-3.177,-52.907 -7.152,-53.205 5.454,-51.641C13.138,-50.715 21.034,-51.71 28.25,-54.568C33.789,-56.765 38.892,-60.043 43.202,-64.183C50.785,-71.446 48.39,-77.433 58.15,-74.059C75.826,-67.94 93.168,-80.844 95.296,-98.67C128.123,-76.619 161.061,-120.949 136.818,-149.753C182.095,-132.06 216.582,-185.138 200.421,-224.744C180.914,-272.501 106.721,-265.413 100.102,-212.787C95.132,-219.343 88.113,-224.111 80.467,-226.974C101.267,-242.203 102.065,-278.982 70.67,-280.366C44.501,-281.515 27.936,-246.592 44.894,-227.239C42.037,-226.159 39.307,-224.744 36.748,-223.014C37.051,-239.478 17.261,-249.29 4.358,-239.478C3.874,-256.335 0.399,-274.427 -15.761,-282.973C-30.347,-290.689 -51.179,-293.419 -64.12,-281.515C-75.976,-270.538 -85.437,-249.636 -79.067,-233.922C-76.125,-226.654 -62.471,-229.07 -55.106,-227.255C-46.012,-225.01 -36.913,-221.152 -30.049,-214.633C-39.175,-210.541 -35.95,-206.12 -44.927,-213.106C-50.418,-217.411 -56.766,-220.556 -63.519,-222.349C-76.572,-225.877 -91.886,-224.775 -104.157,-219.024C-127.602,-208.083 -132.327,-178.487 -123.297,-156.383C-119.173,-146.39 -105.391,-150.349 -95.595,-146.975C-83.425,-142.734 -72.251,-135.183 -64.482,-124.839C-58.298,-126.169 -52.382,-128.617 -47.055,-132.023C-42.836,-126.951 -37.626,-122.615 -31.842,-119.353C-35.567,-110.807 -32.092,-107.848 -41.351,-105.486C-49.449,-103.426 -56.468,-97.738 -60.757,-90.624C-67.462,-96.424 -67.313,-109.258 -73.017,-117.358C-82.01,-130.096 -97.308,-138.243 -113.085,-136.333C-128.421,-134.486 -141.256,-123.796 -143.969,-108.344C-145.082,-102.293 -144.65,-96.009 -143.182,-90.054C-140.872,-80.844 -129.964,-80.413 -123.147,-73.66C-130.597,-74.522 -142.735,-69.584 -147.854,-64.55C-150.302,-62.204 -152.148,-59.495 -153.462,-56.42C-158.23,-58.894 -163.754,-59.458 -168.894,-57.877C-190.79,-51.248 -189.827,-20.784 -173.082,-9.141C-185.288,-9.077 -193.201,5.923 -186.421,15.9C-185.671,16.997 -162.971,30.901 -171.187,33.561C-179.238,36.201 -185.054,52.185 -178.121,58.204C-176.641,59.534 -166.148,75.13 -163.689,63.903" style="fill:white;fill-rule:nonzero;"/>
                </g>
            </g>
        </g>
        <g transform="matrix(1.86197,0,0,1.86197,-2050.32,-1359.55)">
            <g opacity="0.6">
                <g transform="matrix(1,0,0,1,3625.94,967.051)">
                    <path d="M0,151.121C18.039,140.878 14.596,116.917 3.89,102.783C26.42,113.107 52.578,101.836 58.698,77.391C77.184,53.148 61.29,22.051 37.227,9.881C-9.381,-13.766 -42.67,60.199 -11.025,92.355C-16.729,90.694 -22.849,90.928 -28.505,92.759C-9.647,46.545 -75.342,11.079 -105.045,50.222C-116.368,65.153 -122.019,88.066 -108.652,103.614C-95.483,118.896 -66.663,125.931 -48.938,114.953C-55.808,142.341 -24.249,164.887 0,151.121C12.75,143.906 -9.844,156.692 0,151.121" style="fill:white;fill-rule:nonzero;"/>
                </g>
            </g>
        </g>
        <g transform="matrix(1.86197,0,0,1.86197,4586.62,421.744)">
            <path d="M0,37.285C25.972,34.173 25.574,-1.325 -0.633,-3.257C-26.441,-1.756 -26.904,40.542 0,37.285C3.709,36.854 -3.544,37.732 0,37.285" style="fill:white;fill-rule:nonzero;"/>
        </g>
        <g transform="matrix(1.86197,0,0,1.86197,-2050.32,-1359.55)">
            <g opacity="0.4">
                <g transform="matrix(1,0,0,1,3509.17,948.513)">
                    <path d="M0,210.995C16.533,212.011 29.335,198.724 35.306,184.528C51.498,200.805 78.323,190.876 82.744,169.442C87.815,144.917 55.872,120.972 34.907,138.367C25.441,120.737 -2.208,113.804 -20.066,120.775C-17.209,109.632 -17.522,97.574 -21.646,86.783C-5.986,102.299 20.689,91.838 20.87,69.558C20.955,61.859 12.973,49.503 7.221,44.751C3.959,42.09 0.282,40.457 -3.874,39.893C-13.766,38.563 -8.397,37.78 -13.883,30.283C-24.392,16.017 -31.326,-1.064 -53.823,6.636C-74.209,13.601 -78.7,38.328 -67.659,55.138C-94.264,55.138 -125.09,80.233 -118.805,109.1C-112.606,137.749 -76.252,172.619 -45.81,155.724C-49.183,183.16 -27.569,209.281 0,210.995C16.682,212.059 -15.58,210.032 0,210.995" style="fill:white;fill-rule:nonzero;"/>
                </g>
            </g>
        </g>
        <g transform="matrix(1.86197,0,0,1.86197,-2050.32,-1359.55)">
            <g opacity="0.7">
                <g transform="matrix(1,0,0,1,3390.68,1123.42)">
                    <path d="M0,-0.096C-0.016,-0.133 0.117,0.037 0,-0.096" style="fill:white;fill-rule:nonzero;"/>
                </g>
                <g transform="matrix(1,0,0,1,3340.11,1087.01)">
                    <path d="M0,175.444C9.264,174.449 13.755,163.089 7.072,156.091C19.172,148.024 23.429,130.714 13.34,119.62C26.606,125.042 42.803,117.012 46.528,103.162C77.173,130.145 111.808,106.37 113.287,69.404C117.544,89.609 148.125,90.391 151.301,69.074C155.058,43.698 116.033,38.227 113.042,63.354C110.813,45.395 96.36,35.354 79.301,33.29C78.184,20.072 75.677,3.326 58.985,1.261C40.893,-0.979 23.599,16.198 30.698,34.721C31.581,37.046 40.675,49.338 40.824,49.168C34.97,55.835 31.41,64.514 31.145,73.433C17.778,65.866 -0.282,75.257 -3.411,89.843C-12.904,86.9 -24.706,92.45 -26.638,102.811C-27.851,109.595 -25.537,116.597 -20.104,121.051C-24.36,126.804 -26.904,134.823 -24.61,141.905C-23.961,149.887 -18.459,156.735 -10.824,159.167C-14.181,166.914 -9.031,176.423 0,175.444C2.878,175.146 -6.035,176.093 0,175.444" style="fill:white;fill-rule:nonzero;"/>
                </g>
            </g>
        </g>
        <g transform="matrix(1.86197,0,0,1.86197,4127.46,989.619)">
            <path d="M0,17.337C-0.963,17.555 4.906,15.309 6.007,11.633C12.771,16.773 21.534,6.38 15.053,0.607C11.594,-3.512 5.007,-2.517 3.081,2.874C1.549,1.709 -2.113,-0.457 -3.305,-0.569C-15.831,-1.649 -14.266,20.849 0,17.337C-2.959,18.039 -2.464,17.938 0,17.337" style="fill:white;fill-rule:nonzero;"/>
        </g>
        <g transform="matrix(1.86197,0,0,1.86197,4144.46,1023.14)">
            <path d="M0,1.431C0.91,-2.826 -5.704,-4.289 -6.62,-0.001C-7.583,4.257 -0.963,5.72 0,1.431" style="fill:white;fill-rule:nonzero;"/>
        </g>
        <g transform="matrix(1.86197,0,0,1.86197,4529.78,699.529)">
            <path d="M0,42.936C8.545,34.922 12.154,23.732 10.472,12.174C9.956,8.748 9.69,-1.048 -2.565,-13.968C-2.831,-14.266 5.619,4.991 -4.624,20.407C-14.272,34.922 -28.718,36.184 -43.937,38.679C-64.072,41.904 -46.598,56.67 -34.907,56.904C-22.498,57.202 -8.982,51.349 0,42.936C17.092,26.925 -12.175,54.376 0,42.936" style="fill:white;fill-rule:nonzero;"/>
        </g>
        <g transform="matrix(1.86197,0,0,1.86197,4370.07,575.565)">
            <path d="M0,66.215C16.911,68.573 37.78,61.357 44.463,44.398C46.709,38.71 50.748,19.757 33.72,-1.848C33.305,-2.358 42.021,18.522 35.583,31.41C29.665,43.297 22.248,51.167 9.445,52.279C4.475,52.71 -23.594,41.573 -22.03,51.279C-20.402,61.559 -8.796,64.986 0,66.215C11.472,67.812 -9.062,64.949 0,66.215" style="fill:white;fill-rule:nonzero;"/>
        </g>
        <g transform="matrix(1.86197,0,0,1.86197,4204.28,765.337)">
            <path d="M0,79.892C2.346,71.713 1,63.827 -4.007,56.963C8.184,62.332 27.851,54.303 31.427,41.148C43.303,65.11 84.324,53.653 93.833,33.268C99.123,21.929 97.095,8.024 91.438,-2.799C88.996,-7.572 85.687,-11.93 81.594,-15.421C79.381,-17.283 67.063,-21.503 67.195,-21.375C79.647,-6.241 94.732,20.449 71.085,33.816C61.592,39.153 49.87,38.52 39.579,36.392C31.645,34.731 33.023,37.743 31.608,29.511C31.341,27.862 29.83,15.373 26.754,15.943C24.797,16.272 25.626,27.782 25.063,29.793C23.445,35.928 19.209,40.419 13.867,43.628C4.959,48.928 -9.248,50.695 -15.261,45.304C-22.061,39.222 -11.951,62.668 -11.654,63.561C-9.993,69.25 -9.812,75.087 -14.165,79.695C-16.81,82.505 -30.032,86.942 -30.378,90.135C-31.629,101.395 -2.677,89.22 0,79.892C2.777,70.314 -3.555,92.264 0,79.892" style="fill:white;fill-rule:nonzero;"/>
        </g>
        <g transform="matrix(-0.454033,-1.80576,-1.80576,0.454033,4315.43,578.243)">
            <path d="M-45.332,-21.026C-59.235,10.486 -21.929,30.372 3.601,28.056C-12.022,34.246 -32.611,32.904 -45.332,20.98C-57.511,9.486 -60.29,-10.423 -45.332,-21.026C-46.614,-18.097 -58.657,-11.569 -45.332,-21.026" style="fill:white;fill-rule:nonzero;"/>
        </g>
        <g transform="matrix(1.86197,0,0,1.86197,4670.18,603.187)">
            <path d="M0,-5.987C17.011,9.593 23.993,37.545 13.883,58.83C28.532,48.236 31.826,30.479 25.557,14.367C45.778,17.921 64.519,5.155 70.154,-14.405C72.581,-22.78 72.618,-32.146 69.638,-40.393C68.675,-43.086 52.163,-64.817 49.471,-55.905C48.688,-53.345 59.544,-40.707 60.246,-35.689C61.374,-27.304 59.597,-18.13 55.239,-10.829C50.365,-2.699 41.073,-0.304 32.177,0.031C20.252,0.494 10.908,-7.051 0,-5.987C3.874,-2.432 6.252,-6.62 0,-5.987" style="fill:white;fill-rule:nonzero;"/>
        </g>
        <g transform="matrix(0.80207,-1.68036,-1.68036,-0.80207,4574.17,576.191)">
            <path d="M23.72,4.12C27.278,-19.465 -2.366,-35.184 -22.694,-31.507C5.932,-60.905 53.06,-2.218 23.72,27.133C26.219,19.699 25.84,11.575 23.72,4.12C24.523,-1.27 25.942,11.978 23.72,4.12" style="fill:white;fill-rule:nonzero;"/>
        </g>
        <g transform="matrix(1.86197,0,0,1.86197,-2050.32,-1470.69)">
            <path d="M2495.34,1353.27C2485.05,1363.55 2479.91,1376.17 2479.91,1391.12L2479.91,1804.76C2479.91,1819.71 2485.05,1832.33 2495.34,1842.62C2505.63,1852.9 2518.26,1858.04 2533.23,1858.04C2547.73,1858.04 2560.24,1852.9 2570.77,1842.62C2581.29,1832.33 2586.55,1819.95 2586.55,1805.46L2586.55,1804.76C2617.89,1842.15 2656.95,1860.84 2703.72,1860.84C2750.96,1860.84 2791.3,1843.43 2824.74,1808.61C2858.19,1773.79 2874.91,1726.47 2874.91,1666.65L2874.91,1665.24C2874.91,1605.42 2858.07,1558.1 2824.39,1523.28C2790.72,1488.46 2750.49,1471.05 2703.72,1471.05C2655.54,1471.05 2616.49,1491.38 2586.55,1532.04L2586.55,1391.12C2586.55,1376.17 2581.41,1363.55 2571.12,1353.27C2560.83,1342.98 2548.2,1337.84 2533.23,1337.84C2518.26,1337.84 2505.63,1342.98 2495.34,1353.27ZM2611.11,1741.66C2593.8,1722.03 2585.15,1697.03 2585.15,1666.65L2585.15,1665.24C2585.15,1634.87 2593.92,1609.98 2611.46,1590.58C2629,1571.18 2650.63,1561.49 2676.36,1561.49C2702.08,1561.49 2723.83,1571.18 2741.61,1590.58C2759.38,1609.98 2768.27,1634.87 2768.27,1665.24L2768.27,1666.65C2768.27,1697.49 2759.38,1722.5 2741.61,1741.66C2723.83,1760.82 2702.08,1770.4 2676.36,1770.4C2650.63,1770.4 2628.88,1760.82 2611.11,1741.66ZM3473.35,1354.23C3463.06,1364.49 3457.91,1377.08 3457.91,1392L3457.91,1804.68C3457.91,1819.61 3463.06,1832.19 3473.35,1842.45C3483.64,1852.71 3496.28,1857.84 3511.25,1857.84C3526.22,1857.84 3538.86,1852.71 3549.15,1842.45C3559.45,1832.19 3564.59,1819.61 3564.59,1804.68L3564.59,1743.83L3607.41,1705.36L3700.75,1833.36C3712.45,1849.68 3727.89,1857.84 3747.08,1857.84C3760.64,1857.84 3772.34,1853.3 3782.17,1844.2C3792,1835.11 3796.91,1823.57 3796.91,1809.58C3796.91,1798.86 3792.46,1787.43 3783.57,1775.31L3683.21,1640.31L3767.43,1568.27C3783.81,1552.88 3792,1537.49 3792,1522.1C3792,1509.51 3787.67,1498.44 3779.01,1488.88C3770.35,1479.32 3759.01,1474.54 3744.97,1474.54C3730.47,1474.54 3714.79,1482.47 3697.95,1498.32L3564.59,1624.22L3564.59,1392C3564.59,1377.08 3559.45,1364.49 3549.15,1354.23C3538.86,1343.97 3526.22,1338.84 3511.25,1338.84C3496.28,1338.84 3483.64,1343.97 3473.35,1354.23ZM1846.53,1368.18C1826.41,1388.2 1816.35,1418.48 1816.35,1458.99L1816.35,1482.74L1812.13,1482.74C1799.97,1482.74 1789.55,1487.05 1780.89,1495.66C1772.24,1504.28 1767.91,1514.64 1767.91,1526.75C1767.91,1538.85 1772.24,1549.1 1780.89,1557.48C1789.55,1565.86 1799.97,1570.05 1812.13,1570.05L1816.35,1570.05L1816.35,1804.76C1816.35,1819.66 1821.49,1832.23 1831.79,1842.48C1842.09,1852.72 1854.72,1857.84 1869.7,1857.84C1884.68,1857.84 1897.31,1852.72 1907.61,1842.48C1917.9,1832.23 1923.05,1819.66 1923.05,1804.76L1923.05,1570.05L1967.98,1570.05C1980.15,1570.05 1990.56,1565.86 1999.22,1557.48C2007.88,1549.1 2012.21,1538.85 2012.21,1526.75C2012.21,1514.64 2007.88,1504.39 1999.22,1496.01C1990.56,1487.63 1980.15,1483.44 1967.98,1483.44L1921.65,1483.44L1921.65,1468.77C1921.65,1441.76 1934.52,1428.25 1960.26,1428.25L1969.38,1428.25C1981.09,1428.25 1991.26,1423.95 1999.92,1415.33C2008.58,1406.72 2012.91,1396.36 2012.91,1384.25C2012.91,1373.07 2009.28,1363.52 2002.03,1355.61C1994.77,1347.69 1986.23,1343.03 1976.4,1341.64C1965.64,1339.77 1951.13,1338.84 1932.88,1338.84C1894.97,1338.84 1866.19,1348.62 1846.53,1368.18ZM3300.53,1358.39C3294.78,1364.09 3291.91,1371.12 3291.91,1379.49L3291.91,1380.19C3291.91,1384.82 3292.79,1389.04 3294.54,1392.84L3267.91,1392.84C3265.7,1392.84 3263.91,1394.63 3263.91,1396.84L3263.91,1414.84C3263.91,1417.05 3265.7,1418.84 3267.91,1418.84L3285.51,1418.84L3249.91,1806.66C3249.91,1821.59 3251.76,1831.86 3265.77,1844.45C3279.79,1857.04 3305.84,1859.84 3320.41,1859.84C3334.98,1859.84 3360.71,1856.56 3375.04,1844.45C3389.37,1832.34 3390.91,1821.59 3390.91,1806.66L3358.79,1418.84L3373.91,1418.84C3376.12,1418.84 3377.91,1417.05 3377.91,1414.84L3377.91,1396.84C3377.91,1394.63 3376.12,1392.84 3373.91,1392.84L3349.28,1392.85C3351.03,1389.04 3351.91,1384.82 3351.91,1380.19L3351.91,1379.49C3351.91,1371.12 3349.03,1364.09 3343.29,1358.39C3337.54,1352.69 3330.41,1349.84 3321.91,1349.84C3313.4,1349.84 3306.28,1352.69 3300.53,1358.39ZM3905.99,1496.42C3897.6,1499.69 3890.71,1505.05 3885.35,1512.51C3879.98,1519.96 3877.3,1528.36 3877.3,1537.68C3877.3,1549.8 3881.62,1560.06 3890.25,1568.45C3898.88,1576.84 3909.26,1581.04 3921.39,1581.04C3926.05,1581.04 3931.18,1580.1 3936.78,1578.24C3959.18,1571.25 3983.67,1567.75 4010.26,1567.75C4063.91,1567.75 4090.74,1590.59 4090.74,1636.28L4090.74,1642.57C4060.88,1632.32 4030.32,1627.19 3999.07,1627.19C3952.88,1627.19 3916.14,1637.21 3888.85,1657.26C3861.55,1677.3 3847.91,1707.14 3847.91,1746.76L3847.91,1748.16C3847.91,1784.06 3860.16,1812.14 3884.65,1832.43C3909.14,1852.7 3939.82,1862.84 3976.67,1862.84C4023.79,1862.84 4061.58,1846.99 4090.04,1815.29L4090.04,1815.99C4090.04,1827.65 4094.82,1837.9 4104.39,1846.76C4113.95,1855.62 4126.19,1860.05 4141.12,1860.05C4155.59,1860.05 4167.83,1855.15 4177.86,1845.36C4187.89,1835.57 4192.91,1823.45 4192.91,1809L4192.91,1638.38C4192.91,1585.7 4179.38,1545.84 4152.32,1518.8C4124.33,1490.83 4082.11,1476.84 4025.66,1476.84C3980.87,1476.84 3940.98,1483.37 3905.99,1496.42ZM3966.87,1777.18C3956.14,1769.02 3950.78,1757.95 3950.78,1743.97L3950.78,1742.57C3950.78,1725.79 3957.31,1712.97 3970.37,1704.11C3983.44,1695.25 4001.4,1690.82 4024.26,1690.82C4049.45,1690.82 4072.08,1695.48 4092.14,1704.81L4092.14,1723.69C4092.14,1742.8 4084.44,1758.54 4069.05,1770.89C4053.65,1783.24 4033.59,1789.42 4008.86,1789.42C3991.6,1789.42 3977.6,1785.34 3966.87,1777.18ZM3090.23,1496.76C3077.59,1510.04 3067.06,1526.7 3058.63,1546.74L3058.63,1529.96C3058.63,1515.05 3053.48,1502.47 3043.19,1492.22C3032.89,1481.97 3020.25,1476.84 3005.27,1476.84C2990.29,1476.84 2977.65,1481.97 2967.36,1492.22C2957.06,1502.47 2951.91,1515.05 2951.91,1529.96L2951.91,1806.73C2951.91,1821.64 2957.06,1834.22 2967.36,1844.47C2977.65,1854.72 2990.29,1859.84 3005.27,1859.84C3020.25,1859.84 3032.89,1854.72 3043.19,1844.47C3053.48,1834.22 3058.63,1821.64 3058.63,1806.73L3058.63,1707.48C3058.63,1634.33 3086.72,1591.23 3142.89,1578.18C3154.59,1575.39 3164.19,1569.8 3171.68,1561.41C3179.16,1553.03 3182.91,1542.08 3182.91,1528.56C3182.91,1513.19 3178.34,1500.72 3169.22,1491.17C3160.09,1481.62 3147.34,1476.84 3130.95,1476.84C3116.44,1476.84 3102.87,1483.48 3090.23,1496.76ZM2100.99,1496.42C2092.6,1499.69 2085.71,1505.05 2080.35,1512.51C2074.98,1519.96 2072.3,1528.36 2072.3,1537.68C2072.3,1549.8 2076.61,1560.06 2085.25,1568.45C2093.88,1576.84 2104.26,1581.04 2116.39,1581.04C2121.05,1581.04 2126.18,1580.1 2131.78,1578.24C2154.18,1571.25 2178.67,1567.75 2205.26,1567.75C2258.91,1567.75 2285.74,1590.59 2285.74,1636.28L2285.74,1642.57C2255.88,1632.32 2225.32,1627.19 2194.06,1627.19C2147.88,1627.19 2111.14,1637.21 2083.85,1657.26C2056.55,1677.3 2042.91,1707.14 2042.91,1746.76L2042.91,1748.16C2042.91,1784.06 2055.15,1812.14 2079.65,1832.43C2104.14,1852.7 2134.82,1862.84 2171.67,1862.84C2218.79,1862.84 2256.58,1846.99 2285.04,1815.29L2285.04,1815.99C2285.04,1827.65 2289.82,1837.9 2299.39,1846.76C2308.95,1855.62 2321.2,1860.05 2336.12,1860.05C2350.59,1860.05 2362.83,1855.15 2372.86,1845.36C2382.89,1835.57 2387.91,1823.45 2387.91,1809L2387.91,1638.38C2387.91,1585.7 2374.38,1545.84 2347.32,1518.8C2319.33,1490.83 2277.11,1476.84 2220.66,1476.84C2175.87,1476.84 2135.98,1483.37 2100.99,1496.42ZM2161.88,1777.18C2151.14,1769.02 2145.78,1757.95 2145.78,1743.97L2145.78,1742.57C2145.78,1725.79 2152.31,1712.97 2165.37,1704.11C2178.44,1695.25 2196.4,1690.82 2219.26,1690.82C2244.45,1690.82 2267.08,1695.48 2287.14,1704.81L2287.14,1723.69C2287.14,1742.8 2279.44,1758.54 2264.05,1770.89C2248.65,1783.24 2228.59,1789.42 2203.86,1789.42C2186.6,1789.42 2172.61,1785.34 2161.88,1777.18Z" style="fill:white;fill-rule:nonzero;"/>
        </g>
        <g transform="matrix(1.86197,0,0,1.86197,-2050.32,-1048.02)">
            <path d="M1297.97,1347.27C1295.15,1350.23 1293.74,1353.76 1293.74,1357.86L1293.74,1612.82C1293.74,1616.93 1295.15,1620.46 1297.97,1623.41C1300.79,1626.37 1304.39,1627.84 1308.75,1627.84C1312.86,1627.84 1316.32,1626.43 1319.14,1623.61C1321.97,1620.78 1323.38,1617.19 1323.38,1612.82L1323.38,1511.92C1323.38,1493.43 1329.03,1478.41 1340.32,1466.86C1351.61,1455.3 1365.85,1449.53 1383.05,1449.53C1400.5,1449.53 1414.04,1454.85 1423.66,1465.51C1433.28,1476.16 1438.09,1490.86 1438.09,1509.61L1438.09,1612.82C1438.09,1616.93 1439.57,1620.46 1442.52,1623.41C1445.47,1626.37 1449,1627.84 1453.11,1627.84C1457.21,1627.84 1460.68,1626.37 1463.5,1623.41C1466.33,1620.46 1467.74,1616.93 1467.74,1612.82L1467.74,1502.29C1467.74,1478.15 1460.94,1458.83 1447.33,1444.33C1433.73,1429.82 1415.13,1422.57 1391.52,1422.57C1361.75,1422.57 1339.04,1435.53 1323.38,1461.47L1323.38,1357.86C1323.38,1353.76 1321.9,1350.23 1318.95,1347.27C1316,1344.32 1312.47,1342.84 1308.36,1342.84C1304.26,1342.84 1300.79,1344.32 1297.97,1347.27ZM1152.97,1370.26C1150.17,1373.21 1148.77,1376.73 1148.77,1380.83L1148.77,1427.71L1132.73,1427.71C1129.16,1427.71 1126.1,1428.99 1123.56,1431.56C1121.01,1434.12 1119.74,1437.19 1119.74,1440.78C1119.74,1444.11 1121.07,1447.12 1123.75,1449.81C1126.42,1452.5 1129.41,1453.85 1132.73,1453.85L1148.77,1453.85L1148.77,1573.74C1148.77,1592.95 1153.8,1607.11 1163.86,1616.2C1173.92,1625.3 1187.48,1629.84 1204.54,1629.84C1215.23,1629.84 1224.91,1628.05 1233.57,1624.46C1239.17,1622.41 1241.97,1618.57 1241.97,1612.93C1241.97,1609.61 1240.76,1606.66 1238.34,1604.1C1235.92,1601.53 1232.93,1600.25 1229.37,1600.25L1223.26,1601.79C1219.44,1602.56 1215.49,1602.94 1211.41,1602.94C1189.26,1602.94 1178.18,1591.93 1178.18,1569.89L1178.18,1453.85L1229.37,1453.85C1232.93,1453.85 1236.05,1452.56 1238.73,1450C1241.4,1447.44 1242.74,1444.37 1242.74,1440.78C1242.74,1437.19 1241.4,1434.12 1238.73,1431.56C1236.05,1428.99 1232.93,1427.71 1229.37,1427.71L1178.18,1427.71L1178.18,1380.83C1178.18,1376.73 1176.72,1373.21 1173.79,1370.26C1170.86,1367.32 1167.36,1365.84 1163.28,1365.84C1159.21,1365.84 1155.77,1367.32 1152.97,1370.26ZM1545.94,1452.89C1527.81,1472.92 1518.74,1497.44 1518.74,1526.46L1518.74,1527.23C1518.74,1557.53 1528.25,1582.37 1547.29,1601.76C1566.32,1621.15 1589.76,1630.84 1617.6,1630.84C1646.72,1630.84 1671.63,1620.83 1692.33,1600.8C1695.39,1598.23 1696.92,1595.02 1696.92,1591.17C1696.92,1587.57 1695.64,1584.56 1693.09,1582.12C1690.54,1579.68 1687.47,1578.46 1683.89,1578.46C1681.08,1578.46 1678.28,1579.61 1675.47,1581.92C1658.86,1597.33 1639.83,1605.04 1618.37,1605.04C1600.23,1605.04 1584.58,1599.07 1571.43,1587.12C1558.27,1575.18 1550.67,1558.68 1548.62,1537.63L1691.94,1537.63C1695.77,1537.63 1699.03,1536.28 1701.71,1533.59C1704.39,1530.89 1705.74,1527.61 1705.74,1523.76C1705.74,1496.03 1697.43,1472.28 1680.83,1452.5C1664.23,1432.73 1641.87,1422.84 1613.77,1422.84C1586.69,1422.84 1564.08,1432.86 1545.94,1452.89ZM1568.68,1466.88C1580.6,1454.19 1595.14,1447.84 1612.31,1447.84C1631.02,1447.84 1645.88,1454.19 1656.9,1466.88C1667.92,1479.57 1674.2,1495.56 1675.74,1514.84L1547.74,1514.84C1549.79,1495.56 1556.77,1479.57 1568.68,1466.88Z" style="fill:white;fill-rule:nonzero;"/>
        </g>
        <g transform="matrix(1.86197,0,0,1.86197,-2050.32,150.728)">
            <path d="M1635.51,1080.56C1634.4,1081.67 1633.85,1083.08 1633.85,1084.78L1633.85,1088.11C1633.85,1089.81 1634.4,1091.21 1635.51,1092.32C1636.62,1093.43 1638.03,1093.99 1639.73,1093.99C1641.42,1093.99 1642.86,1093.43 1644.04,1092.32C1645.21,1091.21 1645.8,1089.81 1645.8,1088.11L1645.8,1084.78C1645.8,1083.08 1645.21,1081.67 1644.04,1080.56C1642.86,1079.45 1641.42,1078.9 1639.73,1078.9C1638.03,1078.9 1636.62,1079.45 1635.51,1080.56ZM1561.91,1087.72C1561,1088.63 1560.54,1089.81 1560.54,1091.24L1560.54,1119.08L1549.76,1119.08C1548.59,1119.08 1547.54,1119.5 1546.62,1120.35C1545.71,1121.2 1545.25,1122.21 1545.25,1123.39C1545.25,1124.56 1545.71,1125.61 1546.62,1126.52C1547.54,1127.44 1548.59,1127.89 1549.76,1127.89L1560.54,1127.89L1560.54,1193.36C1560.54,1202.38 1563.15,1209.2 1568.38,1213.84C1573.61,1218.48 1580.34,1220.8 1588.57,1220.8C1593.14,1220.8 1597.85,1219.95 1602.68,1218.25C1604.77,1217.47 1605.82,1216.1 1605.82,1214.13C1605.82,1212.96 1605.36,1211.95 1604.45,1211.1C1603.53,1210.25 1602.55,1209.82 1601.51,1209.82L1597.23,1210.95C1595.04,1211.51 1592.67,1211.78 1590.14,1211.78C1576.81,1211.78 1570.15,1205.32 1570.15,1192.38L1570.15,1127.89L1601.51,1127.89C1602.68,1127.89 1603.73,1127.47 1604.64,1126.62C1605.56,1125.77 1606.01,1124.76 1606.01,1123.58C1606.01,1122.41 1605.56,1121.36 1604.64,1120.45C1603.73,1119.53 1602.68,1119.08 1601.51,1119.08L1570.15,1119.08L1570.15,1091.24C1570.15,1089.94 1569.65,1088.79 1568.68,1087.81C1567.69,1086.83 1566.55,1086.34 1565.24,1086.34C1563.94,1086.34 1562.83,1086.8 1561.91,1087.72ZM2454.3,1132.31C2444.37,1142.69 2439.41,1154.94 2439.41,1169.06L2439.41,1169.45C2439.41,1183.56 2444.34,1195.74 2454.2,1206C2464.07,1216.26 2476.12,1221.39 2490.37,1221.39C2504.87,1221.39 2517.74,1215.64 2528.98,1204.14C2529.76,1203.36 2530.15,1202.38 2530.15,1201.2C2530.15,1200.02 2529.66,1198.94 2528.68,1197.96C2527.7,1196.98 2526.62,1196.5 2525.45,1196.5C2524.4,1196.5 2523.36,1197.02 2522.31,1198.07C2512.77,1207.6 2502.32,1212.37 2490.95,1212.37C2479.45,1212.37 2469.72,1208.16 2461.75,1199.73C2453.78,1191.3 2449.79,1181.08 2449.79,1169.06L2449.8,1168.03C2449.93,1156.29 2453.82,1146.34 2461.45,1138.18C2469.23,1129.89 2478.8,1125.74 2490.17,1125.74C2500.89,1125.74 2511.21,1130.44 2521.14,1139.85L2521.3,1140C2522.07,1140.69 2523.13,1141.03 2524.47,1141.03C2525.78,1141.03 2526.92,1140.57 2527.9,1139.65C2528.88,1138.74 2529.37,1137.56 2529.37,1136.13C2529.37,1134.69 2528.91,1133.52 2528,1132.6C2516.63,1122.02 2504.09,1116.72 2490.37,1116.72C2476.25,1116.72 2464.23,1121.92 2454.3,1132.31ZM2335.72,1137.7L2335.72,1123.19C2335.72,1121.76 2335.26,1120.58 2334.35,1119.66C2333.43,1118.75 2332.26,1118.29 2330.82,1118.29C2329.51,1118.29 2328.4,1118.75 2327.49,1119.66C2326.57,1120.58 2326.12,1121.76 2326.12,1123.19L2326.12,1214.92C2326.12,1216.36 2326.57,1217.53 2327.49,1218.45C2328.4,1219.36 2329.58,1219.82 2331.02,1219.82C2332.45,1219.82 2333.6,1219.36 2334.45,1218.45C2335.3,1217.53 2335.72,1216.36 2335.72,1214.92L2335.72,1161.21C2335.72,1150.89 2339.02,1142.37 2345.62,1135.64C2352.22,1128.91 2360.48,1125.54 2370.41,1125.54C2380.35,1125.54 2388.12,1128.61 2393.74,1134.76C2399.36,1140.9 2402.16,1149.19 2402.16,1159.65L2402.16,1214.92C2402.16,1216.36 2402.62,1217.53 2403.54,1218.45C2404.45,1219.36 2405.63,1219.82 2407.07,1219.82C2408.5,1219.82 2409.65,1219.36 2410.49,1218.45C2411.34,1217.53 2411.77,1216.36 2411.77,1214.92L2411.77,1157.88C2411.77,1145.73 2408.21,1135.83 2401.09,1128.19C2393.97,1120.55 2384.2,1116.72 2371.78,1116.72C2355.71,1116.72 2343.69,1123.71 2335.72,1137.7ZM2218.41,1131.82C2209.33,1141.88 2204.79,1154.23 2204.79,1168.86L2204.8,1169.95C2204.94,1184.79 2209.74,1197.04 2219.2,1206.69C2228.8,1216.49 2240.34,1221.39 2253.79,1221.39C2268.95,1221.39 2281.95,1215.96 2292.8,1205.12C2293.84,1204.08 2294.37,1202.96 2294.37,1201.79C2294.37,1200.48 2293.91,1199.4 2292.99,1198.55C2292.08,1197.7 2290.97,1197.28 2289.66,1197.28C2288.49,1197.28 2287.44,1197.74 2286.53,1198.65L2286.05,1199.11C2276.76,1207.95 2266.14,1212.37 2254.18,1212.37C2243.99,1212.37 2235.14,1208.81 2227.63,1201.69C2220.11,1194.57 2215.9,1185 2214.99,1172.98L2293.39,1172.98C2294.56,1172.98 2295.64,1172.52 2296.62,1171.6C2297.6,1170.69 2298.09,1169.64 2298.09,1168.47C2298.09,1153.83 2293.87,1141.55 2285.45,1131.62C2277.02,1121.69 2265.94,1116.72 2252.22,1116.72C2238.76,1116.72 2227.5,1121.76 2218.41,1131.82ZM2226.74,1136.62C2233.67,1129.24 2242.03,1125.54 2251.83,1125.54C2262.68,1125.54 2271.17,1129.27 2277.31,1136.71C2283.45,1144.16 2286.92,1153.38 2287.7,1164.35L2214.99,1164.35C2215.9,1153.24 2219.82,1144 2226.74,1136.62ZM2090.33,1130.05C2080.66,1138.93 2075.82,1150.3 2075.82,1164.16L2075.83,1165.18C2075.97,1178.61 2080.81,1189.67 2090.33,1198.36C2100,1207.18 2111.17,1211.59 2123.85,1211.59C2140.96,1211.59 2154.88,1203.88 2165.59,1188.46L2165.59,1202.96C2165.59,1215.51 2162.03,1225.11 2154.91,1231.78C2147.79,1238.44 2138.28,1241.77 2126.39,1241.77C2112.28,1241.77 2099.48,1237.53 2087.98,1229.03C2086.93,1228.51 2086.02,1228.25 2085.23,1228.25C2083.93,1228.25 2082.78,1228.74 2081.8,1229.72C2080.82,1230.7 2080.33,1231.71 2080.33,1232.75C2080.33,1234.59 2081.05,1236.02 2082.49,1237.07C2095.56,1246.21 2110.12,1250.79 2126.2,1250.79C2141.49,1250.79 2153.57,1246.35 2162.46,1237.46C2170.95,1228.97 2175.2,1217.66 2175.2,1203.55L2175.2,1123.19C2175.2,1121.76 2174.71,1120.58 2173.73,1119.66C2172.75,1118.75 2171.6,1118.29 2170.3,1118.29C2168.99,1118.29 2167.88,1118.75 2166.97,1119.66C2166.05,1120.58 2165.59,1121.76 2165.59,1123.19L2165.59,1139.07C2155.14,1124.17 2141.22,1116.72 2123.85,1116.72C2111.17,1116.72 2100,1121.17 2090.33,1130.05ZM2097.58,1191.5C2090,1184.25 2086.21,1175.13 2086.21,1164.16L2086.22,1163.17C2086.34,1152.08 2090.07,1143.13 2097.38,1136.32C2104.83,1129.4 2113.98,1125.94 2124.82,1125.94C2135.8,1125.94 2145.44,1129.5 2153.73,1136.62C2162.03,1143.74 2166.18,1152.85 2166.18,1163.96L2166.18,1164.35C2166.18,1175.33 2162,1184.41 2153.64,1191.6C2145.27,1198.78 2135.67,1202.38 2124.82,1202.38C2114.24,1202.38 2105.16,1198.75 2097.58,1191.5ZM1803.29,1131.82C1794.2,1141.88 1789.66,1154.23 1789.66,1168.86L1789.67,1169.95C1789.82,1184.79 1794.62,1197.04 1804.07,1206.69C1813.67,1216.49 1825.2,1221.39 1838.67,1221.39C1853.82,1221.39 1866.82,1215.96 1877.67,1205.12C1878.71,1204.08 1879.24,1202.96 1879.24,1201.79C1879.24,1200.48 1878.78,1199.4 1877.87,1198.55C1876.95,1197.7 1875.84,1197.28 1874.53,1197.28C1873.36,1197.28 1872.31,1197.74 1871.4,1198.65L1870.92,1199.11C1861.63,1207.95 1851.01,1212.37 1839.06,1212.37C1828.86,1212.37 1820.01,1208.81 1812.5,1201.69C1804.99,1194.57 1800.77,1185 1799.86,1172.98L1878.26,1172.98C1879.43,1172.98 1880.51,1172.52 1881.49,1171.6C1882.47,1170.69 1882.96,1169.64 1882.96,1168.47C1882.96,1153.83 1878.75,1141.55 1870.32,1131.62C1861.89,1121.69 1850.82,1116.72 1837.1,1116.72C1823.64,1116.72 1812.37,1121.76 1803.29,1131.82ZM1811.62,1136.62C1818.54,1129.24 1826.9,1125.54 1836.7,1125.54C1847.55,1125.54 1856.04,1129.27 1862.18,1136.71C1868.33,1144.16 1871.79,1153.38 1872.57,1164.35L1799.86,1164.35C1800.77,1153.24 1804.69,1144 1811.62,1136.62ZM1335.04,1131.82C1325.96,1141.88 1321.42,1154.23 1321.42,1168.86L1321.42,1169.95C1321.57,1184.79 1326.37,1197.04 1335.83,1206.69C1345.43,1216.49 1356.96,1221.39 1370.42,1221.39C1385.58,1221.39 1398.58,1215.96 1409.42,1205.12C1410.47,1204.08 1410.99,1202.96 1410.99,1201.79C1410.99,1200.48 1410.54,1199.4 1409.62,1198.55C1408.7,1197.7 1407.6,1197.28 1406.29,1197.28C1405.11,1197.28 1404.07,1197.74 1403.15,1198.65L1402.68,1199.11C1393.38,1207.95 1382.76,1212.37 1370.81,1212.37C1360.62,1212.37 1351.77,1208.81 1344.26,1201.69C1336.74,1194.57 1332.53,1185 1331.61,1172.98L1410.01,1172.98C1411.19,1172.98 1412.27,1172.52 1413.25,1171.6C1414.23,1170.69 1414.72,1169.64 1414.72,1168.47C1414.72,1153.83 1410.5,1141.55 1402.07,1131.62C1393.65,1121.69 1382.57,1116.72 1368.85,1116.72C1355.39,1116.72 1344.12,1121.76 1335.04,1131.82ZM1343.37,1136.62C1350.3,1129.24 1358.66,1125.54 1368.46,1125.54C1379.31,1125.54 1387.8,1129.27 1393.94,1136.71C1400.08,1144.16 1403.54,1153.38 1404.33,1164.35L1331.61,1164.35C1332.53,1153.24 1336.45,1144 1343.37,1136.62ZM1146,1132.31C1136.07,1142.69 1131.11,1154.94 1131.11,1169.06L1131.11,1170.11C1131.26,1183.94 1136.19,1195.9 1145.9,1206C1155.77,1216.26 1167.82,1221.39 1182.07,1221.39C1196.57,1221.39 1209.44,1215.64 1220.68,1204.14C1221.46,1203.36 1221.85,1202.38 1221.85,1201.2C1221.85,1200.02 1221.36,1198.94 1220.38,1197.96C1219.4,1196.98 1218.32,1196.5 1217.15,1196.5C1216.1,1196.5 1215.06,1197.02 1214.01,1198.07C1204.48,1207.6 1194.02,1212.37 1182.65,1212.37C1171.15,1212.37 1161.42,1208.16 1153.45,1199.73C1145.48,1191.3 1141.49,1181.08 1141.49,1169.06L1141.5,1168.03C1141.63,1156.29 1145.52,1146.34 1153.15,1138.18C1160.93,1129.89 1170.5,1125.74 1181.87,1125.74C1192.58,1125.74 1202.9,1130.44 1212.84,1139.85L1213,1140C1213.77,1140.69 1214.83,1141.03 1216.17,1141.03C1217.48,1141.03 1218.62,1140.57 1219.6,1139.65C1220.58,1138.74 1221.07,1137.56 1221.07,1136.13C1221.07,1134.69 1220.61,1133.52 1219.7,1132.6C1208.33,1122.02 1195.79,1116.72 1182.07,1116.72C1167.95,1116.72 1155.93,1121.92 1146,1132.31ZM1973.12,1124.95C1971.29,1125.74 1970.38,1127.17 1970.38,1129.27C1970.38,1130.44 1970.83,1131.49 1971.75,1132.4C1972.66,1133.32 1973.71,1133.78 1974.88,1133.78C1975.54,1133.78 1976.26,1133.58 1977.04,1133.19L1977.82,1132.82C1986.84,1128.62 1996.06,1126.52 2005.46,1126.52C2015.91,1126.52 2024.02,1129.14 2029.77,1134.36C2035.51,1139.59 2038.39,1147.17 2038.39,1157.1L2038.39,1161.41C2027.54,1158.54 2016.5,1157.1 2005.27,1157.1C1992.07,1157.1 1981.48,1159.97 1973.51,1165.72C1965.54,1171.47 1961.56,1179.44 1961.56,1189.64L1961.56,1190.54C1961.69,1200.1 1965.58,1207.6 1973.22,1213.06C1980.99,1218.61 1989.98,1221.39 2000.17,1221.39C2016.63,1221.39 2029.37,1215.05 2038.39,1202.38L2038.39,1214.92C2038.39,1216.36 2038.81,1217.53 2039.66,1218.45C2040.51,1219.36 2041.66,1219.82 2043.09,1219.82C2044.53,1219.82 2045.67,1219.36 2046.52,1218.45C2047.37,1217.53 2047.8,1216.36 2047.8,1214.92L2047.8,1156.71C2047.8,1144.69 2044.4,1135.28 2037.6,1128.48C2030.29,1121.17 2019.77,1117.51 2006.05,1117.51C1995.33,1117.51 1984.36,1119.99 1973.12,1124.95ZM1980.28,1206.1C1974.59,1201.92 1971.75,1196.37 1971.75,1189.44L1971.75,1188.6C1971.87,1181.75 1974.75,1176.25 1980.37,1172.09C1986.12,1167.85 1994.22,1165.72 2004.68,1165.72C2015.52,1165.72 2026.83,1167.23 2038.59,1170.23L2038.59,1181.6C2038.59,1190.48 2034.89,1197.83 2027.51,1203.65C2020.13,1209.46 2011.21,1212.37 2000.76,1212.37C1992.79,1212.37 1985.96,1210.28 1980.28,1206.1ZM1446.08,1124.95C1444.25,1125.74 1443.33,1127.17 1443.33,1129.27C1443.33,1130.44 1443.79,1131.49 1444.71,1132.4C1445.62,1133.32 1446.66,1133.78 1447.84,1133.78C1448.49,1133.78 1449.21,1133.58 1450,1133.19L1450.77,1132.82C1459.8,1128.62 1469.02,1126.52 1478.42,1126.52C1488.87,1126.52 1496.97,1129.14 1502.72,1134.36C1508.47,1139.59 1511.34,1147.17 1511.34,1157.1L1511.34,1161.41C1500.5,1158.54 1489.46,1157.1 1478.22,1157.1C1465.02,1157.1 1454.44,1159.97 1446.47,1165.72C1438.5,1171.47 1434.51,1179.44 1434.51,1189.64L1434.52,1190.54C1434.65,1200.1 1438.54,1207.6 1446.17,1213.06C1453.95,1218.61 1462.93,1221.39 1473.12,1221.39C1489.59,1221.39 1502.33,1215.05 1511.34,1202.38L1511.34,1214.92C1511.34,1216.36 1511.77,1217.53 1512.62,1218.45C1513.47,1219.36 1514.61,1219.82 1516.05,1219.82C1517.49,1219.82 1518.63,1219.36 1519.48,1218.45C1520.33,1217.53 1520.75,1216.36 1520.75,1214.92L1520.75,1156.71C1520.75,1144.69 1517.36,1135.28 1510.56,1128.48C1503.24,1121.17 1492.73,1117.51 1479.01,1117.51C1468.29,1117.51 1457.31,1119.99 1446.08,1124.95ZM1453.23,1206.1C1447.55,1201.92 1444.71,1196.37 1444.71,1189.44L1444.71,1188.6C1444.83,1181.75 1447.7,1176.25 1453.33,1172.09C1459.08,1167.85 1467.18,1165.72 1477.63,1165.72C1488.48,1165.72 1499.78,1167.23 1511.54,1170.23L1511.54,1181.6C1511.54,1190.48 1507.85,1197.83 1500.47,1203.65C1493.08,1209.46 1484.17,1212.37 1473.71,1212.37C1465.74,1212.37 1458.91,1210.28 1453.23,1206.1ZM1277.12,1125.54C1269.55,1130.9 1263.67,1138.22 1259.49,1147.49L1259.49,1123.19C1259.49,1121.76 1259.03,1120.58 1258.11,1119.66C1257.2,1118.75 1256.02,1118.29 1254.59,1118.29C1253.28,1118.29 1252.17,1118.75 1251.25,1119.66C1250.34,1120.58 1249.88,1121.76 1249.88,1123.19L1249.88,1214.92C1249.88,1216.36 1250.34,1217.53 1251.25,1218.45C1252.17,1219.36 1253.34,1219.82 1254.78,1219.82C1256.09,1219.82 1257.2,1219.36 1258.11,1218.45C1259.03,1217.53 1259.49,1216.36 1259.49,1214.92L1259.49,1178.07C1259.49,1162.91 1263.31,1151.06 1270.95,1142.5C1278.59,1133.94 1288.16,1129.14 1299.66,1128.09L1299.94,1128.07C1303.15,1127.73 1304.76,1125.98 1304.76,1122.8C1304.76,1121.36 1304.27,1120.12 1303.29,1119.08C1302.31,1118.03 1301.1,1117.51 1299.66,1117.51C1292.22,1117.51 1284.7,1120.19 1277.12,1125.54ZM2635.21,1121.82L2600.32,1208.45L2560.21,1121.94C2559.04,1119.51 2557.38,1118.29 2555.24,1118.29C2553.8,1118.29 2552.6,1118.75 2551.61,1119.66C2550.64,1120.58 2550.14,1121.76 2550.14,1123.19C2550.14,1123.85 2550.41,1124.82 2550.93,1126.13L2595.62,1218.45L2595.03,1219.82C2591.63,1227.53 2588.1,1233.15 2584.45,1236.67C2580.78,1240.2 2576.28,1241.97 2570.92,1241.97C2565.96,1241.97 2561.71,1241.31 2558.18,1240.01C2556.61,1239.49 2555.57,1239.22 2555.05,1239.22C2553.74,1239.22 2552.66,1239.65 2551.81,1240.5C2550.96,1241.35 2550.54,1242.42 2550.54,1243.73C2550.54,1245.82 2551.45,1247.19 2553.28,1247.85C2558.9,1249.94 2564.58,1250.98 2570.33,1250.98C2577.65,1250.98 2583.96,1248.79 2589.25,1244.42C2594.54,1240.04 2599.34,1232.75 2603.65,1222.56L2644.22,1125.74C2644.62,1124.69 2644.81,1123.85 2644.81,1123.19C2644.81,1121.76 2644.32,1120.58 2643.34,1119.66C2642.36,1118.75 2641.22,1118.29 2639.91,1118.29C2637.69,1118.29 2636.12,1119.47 2635.21,1121.82ZM1758.31,1121.82L1721.26,1208.26L1684.81,1122.21C1683.63,1119.6 1681.93,1118.29 1679.71,1118.29C1678.27,1118.29 1677.06,1118.75 1676.08,1119.66C1675.1,1120.58 1674.61,1121.76 1674.61,1123.19C1674.61,1123.85 1674.87,1124.82 1675.4,1126.13L1715.58,1216.29C1716.88,1219.04 1718.71,1220.41 1721.06,1220.41L1721.46,1220.41C1723.81,1220.41 1725.64,1219.04 1726.94,1216.29L1767.32,1125.74C1767.71,1124.69 1767.91,1123.85 1767.91,1123.19C1767.91,1121.76 1767.42,1120.58 1766.44,1119.66C1765.46,1118.75 1764.32,1118.29 1763.01,1118.29C1760.79,1118.29 1759.22,1119.47 1758.31,1121.82ZM1636.39,1119.66C1635.48,1120.58 1635.02,1121.76 1635.02,1123.19L1635.02,1214.92C1635.02,1216.36 1635.48,1217.53 1636.39,1218.45C1637.31,1219.36 1638.48,1219.82 1639.92,1219.82C1641.36,1219.82 1642.5,1219.36 1643.35,1218.45C1644.2,1217.53 1644.62,1216.36 1644.62,1214.92L1644.62,1123.19C1644.62,1121.76 1644.17,1120.58 1643.25,1119.66C1642.34,1118.75 1641.16,1118.29 1639.73,1118.29C1638.42,1118.29 1637.31,1118.75 1636.39,1119.66Z" style="fill:white;fill-rule:nonzero;"/>
        </g>
    </g>
</svg>
