<?xml version="1.0" encoding="utf-8"?>
<!-- Generator: Adobe Illustrator 25.3.1, SVG Export Plug-In . SVG Version: 6.00 Build 0)  -->
<svg version="1.0" id="katman_1" xmlns="http://www.w3.org/2000/svg" xmlns:xlink="http://www.w3.org/1999/xlink" x="0px" y="0px"
	 viewBox="0 0 500 400" style="enable-background:new 0 0 500 400;" xml:space="preserve">
<style type="text/css">
	.st0{fill:#FFFFFF;}
</style>
<g>
	<path class="st0" d="M222.06,79.59c-4.33,0-7.83-3.5-7.83-7.83v-34.4c0-4.33,3.5-7.83,7.83-7.83c4.33,0,7.83,3.5,7.83,7.83v34.4
		C229.89,76.09,226.38,79.59,222.06,79.59z"/>
	<path class="st0" d="M157.23,96.96c-2.71,0-5.34-1.4-6.79-3.91l-17.2-29.79c-2.16-3.75-0.88-8.53,2.87-10.69
		c3.73-2.16,8.52-0.89,10.69,2.87L164,85.22c2.16,3.75,0.88,8.53-2.87,10.69C159.9,96.63,158.56,96.96,157.23,96.96z"/>
	<path class="st0" d="M109.75,144.43c-1.33,0-2.68-0.34-3.91-1.05l-29.79-17.2c-3.75-2.16-5.03-6.95-2.87-10.69
		c2.16-3.75,6.96-5.03,10.69-2.87l29.79,17.2c3.75,2.16,5.03,6.95,2.87,10.69C115.08,143.02,112.45,144.43,109.75,144.43z"/>
	<path class="st0" d="M92.38,209.27h-34.4c-4.33,0-7.83-3.5-7.83-7.83c0-4.33,3.5-7.83,7.83-7.83h34.4c4.33,0,7.83,3.5,7.83,7.83
		C100.21,205.77,96.71,209.27,92.38,209.27z"/>
	<path class="st0" d="M79.97,291.31c-2.71,0-5.34-1.41-6.79-3.91c-2.16-3.75-0.88-8.53,2.87-10.69l29.79-17.2
		c3.73-2.16,8.52-0.87,10.69,2.87c2.16,3.75,0.88,8.53-2.87,10.69l-29.79,17.2C82.64,290.97,81.3,291.31,79.97,291.31z"/>
	<path class="st0" d="M140.01,351.37c-1.33,0-2.68-0.34-3.91-1.05c-3.75-2.16-5.03-6.95-2.87-10.69l17.2-29.79
		c2.16-3.75,6.96-5.03,10.69-2.87c3.75,2.16,5.03,6.95,2.87,10.69l-17.2,29.79C145.35,349.97,142.72,351.37,140.01,351.37z"/>
	<path class="st0" d="M222.06,373.36c-4.33,0-7.83-3.5-7.83-7.83v-34.4c0-4.33,3.5-7.83,7.83-7.83c4.33,0,7.83,3.5,7.83,7.83v34.4
		C229.89,369.85,226.38,373.36,222.06,373.36z"/>
	<path class="st0" d="M334.38,144.43c-2.71,0-5.34-1.41-6.79-3.91c-2.16-3.74-0.88-8.53,2.87-10.69l29.79-17.2
		c3.73-2.16,8.52-0.88,10.69,2.87c2.16,3.75,0.88,8.53-2.87,10.69l-29.79,17.2C337.05,144.09,335.71,144.43,334.38,144.43z"/>
	<path class="st0" d="M286.9,96.96c-1.33,0-2.68-0.34-3.91-1.05c-3.75-2.16-5.03-6.95-2.87-10.69l17.2-29.79
		c2.16-3.75,6.95-5.03,10.69-2.87s5.03,6.95,2.87,10.69l-17.2,29.79C292.23,95.56,289.6,96.96,286.9,96.96z"/>
	<path class="st0" d="M182.56,61.86c-3.45,0-6.61-2.3-7.55-5.79l-2.97-11.08c-1.12-4.18,1.35-8.47,5.53-9.59
		c4.13-1.12,8.46,1.35,9.58,5.53L190.12,52c1.12,4.18-1.35,8.47-5.53,9.59C183.92,61.77,183.23,61.86,182.56,61.86z"/>
	<path class="st0" d="M114.15,101.36c-2,0-4.01-0.76-5.53-2.29l-8.11-8.11c-3.06-3.06-3.06-8.01,0-11.07
		c3.06-3.06,8.01-3.06,11.07,0l8.11,8.11c3.06,3.06,3.06,8.01,0,11.07C118.15,100.59,116.15,101.36,114.15,101.36z"/>
	<path class="st0" d="M74.65,169.77c-0.67,0-1.35-0.08-2.03-0.27l-11.07-2.97c-4.17-1.11-6.65-5.41-5.53-9.58
		c1.12-4.17,5.43-6.66,9.58-5.53l11.08,2.97c4.17,1.11,6.65,5.41,5.53,9.58C81.27,167.46,78.11,169.77,74.65,169.77z"/>
	<path class="st0" d="M63.57,251.74c-3.45,0-6.62-2.31-7.55-5.8c-1.11-4.17,1.36-8.47,5.53-9.58l11.07-2.97
		c4.17-1.11,8.47,1.36,9.58,5.53c1.12,4.17-1.36,8.47-5.53,9.58l-11.08,2.97C64.92,251.66,64.24,251.74,63.57,251.74z"/>
	<path class="st0" d="M106.04,325.29c-2,0-4-0.76-5.53-2.29c-3.06-3.06-3.06-8.01,0-11.07l8.11-8.11c3.06-3.06,8.01-3.06,11.07,0
		c3.06,3.06,3.06,8.01,0,11.07l-8.11,8.11C110.04,324.53,108.04,325.29,106.04,325.29z"/>
	<path class="st0" d="M179.6,367.76c-0.67,0-1.36-0.08-2.03-0.27c-4.18-1.12-6.66-5.41-5.53-9.59l2.97-11.08
		c1.12-4.17,5.43-6.64,9.59-5.53c4.17,1.12,6.65,5.41,5.53,9.59l-2.97,11.08C186.21,365.46,183.05,367.76,179.6,367.76z"/>
	<path class="st0" d="M264.52,367.76c-3.45,0-6.61-2.3-7.55-5.79L254,350.89c-1.12-4.18,1.35-8.47,5.53-9.59
		c4.13-1.12,8.46,1.35,9.58,5.53l2.97,11.08c1.12,4.18-1.35,8.47-5.53,9.59C265.89,367.68,265.2,367.76,264.52,367.76z"/>
	<path class="st0" d="M329.98,101.36c-2,0-4.01-0.76-5.53-2.29c-3.06-3.06-3.06-8.01,0-11.07l8.11-8.11c3.06-3.06,8.01-3.06,11.07,0
		c3.06,3.06,3.06,8.01,0,11.07l-8.11,8.11C333.98,100.59,331.98,101.36,329.98,101.36z"/>
	<path class="st0" d="M261.57,61.86c-0.67,0-1.36-0.08-2.03-0.27c-4.18-1.12-6.66-5.41-5.53-9.59l2.97-11.07
		c1.12-4.17,5.43-6.64,9.59-5.53c4.17,1.12,6.65,5.41,5.53,9.59l-2.97,11.08C268.18,59.55,265.02,61.86,261.57,61.86z"/>
	<path class="st0" d="M222.06,400c-109.48,0-198.55-89.07-198.55-198.55S112.57,2.89,222.06,2.89
		c93.36,0,175.61,66.18,195.57,157.38c0.93,4.22-1.75,8.39-5.97,9.32c-4.23,0.89-8.4-1.74-9.32-5.97
		c-18.4-84.06-94.23-145.07-180.28-145.07c-100.85,0-182.9,82.05-182.9,182.9s82.05,182.9,182.9,182.9
		c27.43,0,53.79-5.92,78.37-17.59c3.91-1.84,8.58-0.19,10.43,3.71c1.86,3.91,0.19,8.57-3.72,10.43
		C280.45,393.57,251.82,400,222.06,400z"/>
	<path class="st0" d="M222.06,188.06c-4.33,0-7.83-3.5-7.83-7.83V120.8c0-4.33,3.5-7.83,7.83-7.83c4.33,0,7.83,3.5,7.83,7.83v59.44
		C229.89,184.56,226.38,188.06,222.06,188.06z"/>
	<path class="st0" d="M193.03,209.27h-35.81c-4.33,0-7.83-3.5-7.83-7.83c0-4.33,3.5-7.83,7.83-7.83h35.81c4.33,0,7.83,3.5,7.83,7.83
		C200.86,205.77,197.35,209.27,193.03,209.27z"/>
	<path class="st0" d="M392.59,247.25c-26.75,0-48.51-21.76-48.51-48.51s21.76-48.52,48.51-48.52s48.52,21.77,48.52,48.52
		S419.34,247.25,392.59,247.25z M392.59,165.87c-18.11,0-32.86,14.74-32.86,32.87c0,18.11,14.74,32.86,32.86,32.86
		c18.12,0,32.87-14.74,32.87-32.86C425.46,180.61,410.71,165.87,392.59,165.87z"/>
	<path class="st0" d="M445.06,389.83c-4.33,0-7.83-3.5-7.83-7.83v-72.65c0-4.33,3.5-7.83,7.83-7.83c4.33,0,7.83,3.5,7.83,7.83v72.65
		C452.89,386.33,449.39,389.83,445.06,389.83z"/>
	<path class="st0" d="M340.13,389.83c-4.33,0-7.83-3.5-7.83-7.83v-72.65c0-4.33,3.5-7.83,7.83-7.83c4.33,0,7.83,3.5,7.83,7.83v72.65
		C347.95,386.33,344.45,389.83,340.13,389.83z"/>
	<path class="st0" d="M481.09,393c-4.33,0-7.83-3.5-7.83-7.83v-72.01c0-23.43-18.54-42.62-41.73-43.66
		c-23.9,13.14-53.95,13.15-77.89,0c-23.18,1.04-41.72,20.23-41.72,43.66v72.01c0,4.33-3.5,7.83-7.83,7.83
		c-4.33,0-7.83-3.5-7.83-7.83v-72.01c0-32.73,26.63-59.36,59.36-59.36c1.39,0,2.76,0.37,3.96,1.08c20.11,11.78,45.91,11.78,65.99,0
		c1.2-0.7,2.57-1.08,3.96-1.08c32.74,0,59.37,26.63,59.37,59.36v72.01C488.91,389.5,485.41,393,481.09,393z"/>
</g>
</svg>
