<?xml version="1.0" encoding="utf-8"?>
<!-- Generator: Adobe Illustrator 25.3.1, SVG Export Plug-In . SVG Version: 6.00 Build 0)  -->
<svg version="1.1" id="katman_1" xmlns="http://www.w3.org/2000/svg" xmlns:xlink="http://www.w3.org/1999/xlink" x="0px" y="0px"
	 viewBox="0 0 335.62 62.21" enable-background="new 0 0 335.62 62.21" xml:space="preserve">
<polygon fill="#203B90" points="335.62,62.21 193.66,62.21 221.21,0 335.62,0 "/>
<line fill="none" stroke="#FFFFFF" stroke-miterlimit="10" x1="120.2" y1="42.21" x2="104.57" y2="48.65"/>
<g>
	
		<linearGradient id="SVGID_1_" gradientUnits="userSpaceOnUse" x1="-1825.9615" y1="-171.1355" x2="-1706.6444" y2="-233.5541" gradientTransform="matrix(-0.9815 -0.1915 -0.1915 0.9815 -2094.7444 -382.0382)">
		<stop  offset="0" style="stop-color:#098036"/>
		<stop  offset="1" style="stop-color:#E4E470"/>
	</linearGradient>
	<path fill="url(#SVGID_1_)" d="M21.21,31.7c0,0-1.19-0.61-6.15-0.48c-5.05,0.13-9-1.84-10.59-3.14c-1.59-1.29-5.81-4.58-3.83-11.07
		c0,0,3.33,2.43,10.81,2.97c12.93,0.92,12.04,8.87,12.04,8.87S19.73,24.26,8.52,23C19.55,26.48,21.21,31.7,21.21,31.7z"/>
	
		<linearGradient id="SVGID_2_" gradientUnits="userSpaceOnUse" x1="6.9277" y1="363.2541" x2="125.461" y2="301.2455" gradientTransform="matrix(0.972 -0.2349 0.2349 0.972 -39.9285 -337.7997)">
		<stop  offset="0" style="stop-color:#098036"/>
		<stop  offset="1" style="stop-color:#E4E470"/>
	</linearGradient>
	<path fill="url(#SVGID_2_)" d="M56.78,12.59c-22.03,5.23-26.04,16.92-26.04,16.92s2.4-1.22,12.38-0.94
		c10.18,0.29,18.13-3.68,21.34-6.28c3.21-2.6,11.73-9.21,7.78-22.28c0,0-6.72,4.89-21.79,5.94c-26.04,1.81-24.3,17.83-24.3,17.83
		S33.67,12.93,56.78,12.59z"/>
	<linearGradient id="SVGID_3_" gradientUnits="userSpaceOnUse" x1="21.9966" y1="62.0839" x2="156.8255" y2="-8.4494">
		<stop  offset="0" style="stop-color:#098036"/>
		<stop  offset="1" style="stop-color:#E4E470"/>
	</linearGradient>
	<path fill="url(#SVGID_3_)" d="M95.95,46.9c-9.77,2.71-19.72,6.35-30.21,7.18c-12.1,0.95-24.61-0.86-31.81-8.66
		C21.5,31.97,31.74,17.7,50.19,13.5c-12.44,1.92-21.87,7.06-25.33,15.11c-0.31,0.73-0.57,1.47-0.77,2.21
		c-3.11-4.05-8.38-5.56-8.38-5.56c5.06,2.65,7.07,6.11,7.87,8.23c-0.77,7.31,3.41,14.72,11.39,19.36c9.6,5.59,22.16,5.72,33.66,3.94
		c23.7-3.66,44.15-17.18,69.54-15.36C123.83,39.56,109.19,43.23,95.95,46.9z"/>
	<linearGradient id="SVGID_4_" gradientUnits="userSpaceOnUse" x1="43.4871" y1="96.4271" x2="178.1167" y2="25.9981">
		<stop  offset="0" style="stop-color:#098036"/>
		<stop  offset="1" style="stop-color:#E4E470"/>
	</linearGradient>
	<path fill="url(#SVGID_4_)" d="M45.95,60.94c19.86,1.71,38.7-4.25,56.14-10.46c15.95-5.68,34.35-8.2,51.81-5.06
		c10.51,1.89,21.74,7.05,27.8,12.9c-19.63-9.88-45.14-11.45-68.54-6.68c-10.74,2.19-20.65,6.11-31.46,8.25
		C70.16,62.18,57.66,63.21,45.95,60.94z"/>
</g>
<g>
	<path fill="#14152D" d="M103.88,6.31v12.79h-2.29V8.89l-5.57,10.2h-2.04L88.39,8.93v10.17H86.1V6.31h2.74l6.19,10.74l6.09-10.74
		H103.88z"/>
	<path fill="#14152D" d="M119.84,8.97v10.13h-2.29v-2.38c-0.35,0.82-0.98,1.45-1.88,1.89c-0.9,0.44-1.94,0.66-3.14,0.66
		c-1.6,0-2.89-0.38-3.88-1.13c-0.99-0.76-1.49-1.84-1.49-3.26v-5.9h2.29v5.74c0,1.01,0.35,1.79,1.06,2.33
		c0.7,0.55,1.66,0.82,2.87,0.82c1.26,0,2.27-0.3,3.02-0.89c0.76-0.6,1.13-1.47,1.13-2.61V8.97H119.84z"/>
	<path fill="#14152D" d="M131.61,9.73c0.95,0.6,1.52,1.4,1.72,2.41h-2.19c-0.1-0.6-0.44-1.1-1.02-1.48
		c-0.58-0.39-1.36-0.58-2.33-0.58c-0.82,0-1.46,0.14-1.93,0.43c-0.46,0.29-0.69,0.68-0.69,1.17c0,0.37,0.16,0.67,0.47,0.89
		s0.7,0.4,1.16,0.52c0.46,0.12,1.09,0.24,1.9,0.38c1.02,0.17,1.85,0.35,2.48,0.53c0.63,0.18,1.17,0.46,1.61,0.86
		c0.44,0.39,0.67,0.92,0.67,1.59c0,0.82-0.42,1.49-1.27,2.01c-0.85,0.52-1.98,0.77-3.39,0.77c-1.65,0-2.99-0.29-4.03-0.87
		c-1.04-0.58-1.65-1.38-1.84-2.42h2.22c0.08,0.62,0.45,1.11,1.1,1.49c0.65,0.38,1.5,0.57,2.56,0.57c0.79,0,1.41-0.15,1.85-0.44
		s0.67-0.68,0.67-1.16c0-0.39-0.16-0.71-0.48-0.94c-0.32-0.23-0.71-0.41-1.18-0.54c-0.47-0.12-1.12-0.25-1.94-0.39
		c-1.02-0.17-1.84-0.34-2.46-0.52c-0.61-0.17-1.13-0.45-1.56-0.82c-0.43-0.37-0.64-0.88-0.64-1.52c0-0.85,0.43-1.53,1.28-2.06
		c0.86-0.52,2.02-0.78,3.5-0.78C129.41,8.84,130.66,9.13,131.61,9.73z"/>
	<path fill="#14152D" d="M143.13,17.62v1.48h-1.71c-1.41,0-2.46-0.25-3.16-0.74c-0.7-0.49-1.05-1.32-1.05-2.47v-5.46h-2.06V8.97
		h2.06V6.44h2.32v2.53h3.58v1.46h-3.58v5.5c0,0.65,0.16,1.1,0.49,1.34c0.33,0.24,0.89,0.36,1.7,0.36H143.13z"/>
	<path fill="#14152D" d="M155.01,9.57c0.93,0.49,1.58,1.15,1.95,1.97V8.97h2.29v10.13h-2.29v-2.58c-0.37,0.82-1.02,1.48-1.95,1.97
		c-0.93,0.49-2.07,0.74-3.41,0.74c-1.23,0-2.32-0.21-3.27-0.63c-0.96-0.42-1.71-1.02-2.25-1.8c-0.55-0.78-0.82-1.7-0.82-2.76
		c0-1.06,0.27-1.98,0.82-2.77c0.55-0.79,1.3-1.39,2.25-1.81c0.96-0.42,2.05-0.63,3.27-0.63C152.94,8.84,154.07,9.08,155.01,9.57z
		 M148.86,11.32c-0.85,0.66-1.27,1.57-1.27,2.72c0,1.16,0.42,2.06,1.27,2.72c0.85,0.66,1.98,0.99,3.39,0.99
		c0.91,0,1.72-0.15,2.43-0.46c0.71-0.31,1.27-0.74,1.67-1.3c0.4-0.56,0.61-1.21,0.61-1.95c0-0.74-0.2-1.39-0.61-1.96
		c-0.4-0.57-0.96-1-1.67-1.3c-0.71-0.3-1.52-0.45-2.43-0.45C150.84,10.33,149.71,10.66,148.86,11.32z"/>
	<path fill="#14152D" d="M166.46,7.03c-0.48,0.32-0.72,0.87-0.72,1.66v0.28h3.27v1.48h-3.27v8.65h-2.29v-8.65h-1.99V8.97h1.99V8.56
		c0-2.42,1.86-3.58,5.57-3.47v1.48C167.79,6.55,166.94,6.71,166.46,7.03z"/>
	<path fill="#14152D" d="M180.59,9.57c0.93,0.49,1.58,1.15,1.95,1.97V8.97h2.29v10.13h-2.29v-2.58c-0.37,0.82-1.02,1.48-1.95,1.97
		c-0.93,0.49-2.07,0.74-3.41,0.74c-1.23,0-2.32-0.21-3.27-0.63c-0.96-0.42-1.71-1.02-2.25-1.8c-0.55-0.78-0.82-1.7-0.82-2.76
		c0-1.06,0.27-1.98,0.82-2.77c0.55-0.79,1.3-1.39,2.25-1.81c0.96-0.42,2.05-0.63,3.27-0.63C178.52,8.84,179.66,9.08,180.59,9.57z
		 M174.45,11.32c-0.85,0.66-1.27,1.57-1.27,2.72c0,1.16,0.42,2.06,1.27,2.72c0.85,0.66,1.98,0.99,3.39,0.99
		c0.91,0,1.72-0.15,2.43-0.46c0.71-0.31,1.27-0.74,1.67-1.3c0.4-0.56,0.61-1.21,0.61-1.95c0-0.74-0.2-1.39-0.61-1.96
		c-0.4-0.57-0.96-1-1.67-1.3c-0.71-0.3-1.52-0.45-2.43-0.45C176.42,10.33,175.29,10.66,174.45,11.32z"/>
	<path fill="#14152D" d="M100.64,38.09c-0.75,0.99-1.82,1.76-3.22,2.31c-1.4,0.55-3.05,0.83-4.95,0.83h-6.72V28.19h6.72
		c1.91,0,3.57,0.27,4.96,0.81c1.39,0.54,2.46,1.3,3.21,2.29c0.75,0.98,1.12,2.12,1.12,3.39C101.76,35.96,101.39,37.1,100.64,38.09z
		 M96.01,37.43c0.93-0.65,1.4-1.57,1.4-2.75c0-1.18-0.47-2.1-1.4-2.75c-0.93-0.65-2.24-0.98-3.92-0.98h-2.04v7.45h2.04
		C93.77,38.41,95.08,38.09,96.01,37.43z"/>
	<path fill="#14152D" d="M108.38,28.19v7.53c0,0.86,0.26,1.52,0.79,1.97c0.53,0.46,1.3,0.68,2.3,0.68c1.01,0,1.78-0.23,2.3-0.68
		c0.53-0.45,0.79-1.11,0.79-1.97v-7.53h4.31v7.53c0,1.23-0.33,2.27-0.98,3.11c-0.65,0.84-1.55,1.48-2.68,1.9
		c-1.13,0.42-2.41,0.64-3.84,0.64c-1.43,0-2.69-0.21-3.78-0.63c-1.09-0.42-1.95-1.05-2.57-1.9c-0.62-0.85-0.93-1.89-0.93-3.12v-7.53
		H108.38z M107.64,24.74c0.34-0.26,0.78-0.39,1.3-0.39c0.52,0,0.95,0.13,1.3,0.39c0.34,0.26,0.52,0.58,0.52,0.96
		c0,0.37-0.17,0.68-0.52,0.93c-0.34,0.25-0.78,0.38-1.3,0.38c-0.52,0-0.95-0.13-1.3-0.38c-0.34-0.25-0.52-0.56-0.52-0.93
		C107.12,25.32,107.3,25,107.64,24.74z M112.75,24.74c0.34-0.26,0.77-0.39,1.27-0.39c0.52,0,0.95,0.13,1.3,0.39
		c0.34,0.26,0.52,0.58,0.52,0.96c0,0.37-0.17,0.68-0.52,0.93c-0.34,0.25-0.78,0.38-1.3,0.38c-0.5,0-0.93-0.13-1.27-0.38
		c-0.34-0.25-0.52-0.56-0.52-0.93C112.24,25.32,112.41,25,112.75,24.74z"/>
	<path fill="#14152D" d="M137.57,41.24h-4.31l-7.2-8.01v8.01h-4.31V28.19h4.31l7.2,8.08v-8.08h4.31V41.24z"/>
	<path fill="#14152D" d="M155.44,38.09c-0.75,0.99-1.82,1.76-3.22,2.31c-1.4,0.55-3.05,0.83-4.95,0.83h-6.72V28.19h6.72
		c1.91,0,3.57,0.27,4.96,0.81c1.39,0.54,2.46,1.3,3.21,2.29c0.75,0.98,1.12,2.12,1.12,3.39C156.56,35.96,156.18,37.1,155.44,38.09z
		 M150.8,37.43c0.93-0.65,1.4-1.57,1.4-2.75c0-1.18-0.47-2.1-1.4-2.75c-0.93-0.65-2.24-0.98-3.92-0.98h-2.04v7.45h2.04
		C148.56,38.41,149.87,38.09,150.8,37.43z"/>
	<path fill="#14152D" d="M170.03,38.86h-6.67l-1.11,2.38h-4.53l6.52-12.95h4.96l6.52,12.95h-4.58L170.03,38.86z M168.92,36.46
		l-2.22-4.8l-2.24,4.8H168.92z"/>
	<path fill="#14152D" d="M186.52,41.24l-3.85-4.93h-0.98v4.93h-4.31V28.19h7.35c1.41,0,2.6,0.18,3.58,0.54
		c0.97,0.36,1.7,0.85,2.19,1.47c0.49,0.62,0.73,1.33,0.73,2.13c0,0.95-0.36,1.75-1.07,2.42c-0.71,0.66-1.75,1.12-3.11,1.37
		l4.23,5.13H186.52z M181.69,34.15h2.67c0.86,0,1.49-0.14,1.89-0.41c0.4-0.28,0.6-0.69,0.6-1.23c0-0.52-0.21-0.92-0.62-1.22
		c-0.41-0.3-1.04-0.44-1.88-0.44h-2.67V34.15z"/>
</g>
<g>
	<path fill="#FFFFFF" d="M239.41,16.67c0,0.22-0.02,0.51-0.09,0.68c-0.31-0.07-0.64-0.11-1.01-0.13c-0.37,2.57-3.28,5.98-5.79,6.62
		c-3.92-0.09-5.65-1.98-5.65-6.1c0-6.03,4.82-11.82,9.97-11.82c2,0,3.21,0.9,3.21,2.44c0,1.01-0.44,1.85-1.56,2.86
		c-0.68-0.2-1.23-0.77-1.34-1.43c1.01-0.75,1.36-1.25,1.36-2.11c0-0.66-0.44-1.01-1.21-1.01c-1.3,0-2.88,1.03-4.4,2.86
		c-2.18,2.6-3.12,5.26-3.12,8.71c0,2.55,1.1,4.36,2.49,4.49c1.87-0.42,3.94-3.21,4.18-5.33c-0.81,0.18-1.58,0.37-2.24,0.37
		c-0.88,0-1.58-0.46-1.83-1.23c1.03-0.57,4.42-1.39,5.81-1.39C238.95,15.18,239.41,15.73,239.41,16.67z"/>
	<path fill="#FFFFFF" d="M242.2,19.6c0,0.18-0.02,0.37-0.02,0.57c0,0.75,0.18,1.76,1.01,1.76c1.58,0,3.1-1.58,4.03-2.57
		c0.15,0.13,0.26,0.24,0.37,0.37c-1.32,1.74-3.01,2.99-4.4,3.3c-2.02-0.22-3.21-1.61-3.21-3.37c0-3.61,3.3-7.85,6.21-7.85
		c0.66,0.09,1.3,0.51,1.89,1.25C247.86,16.67,245.94,18.1,242.2,19.6z M242.38,18.76c2.33-1.17,4.07-2.97,4.18-4.97
		C244.95,14.01,243.08,16.03,242.38,18.76z"/>
	<path fill="#FFFFFF" d="M255.27,11.74c1.52,0,2.38,0.79,2.38,2.2c0,1.34-0.84,2.66-1.67,2.66c-0.35,0-0.75-0.24-0.99-0.59
		c0.99-0.9,1.47-1.72,1.47-2.44c0-0.42-0.18-0.64-0.51-0.64c-0.57,0-1.56,0.62-2.38,1.52c-1.25,1.41-1.94,3.17-1.94,5.04
		c0,1.19,0.26,1.89,0.79,2.13c0.86-0.11,2.44-0.88,3.81-1.89c0.11,0.09,0.22,0.31,0.22,0.44c-0.92,1.17-2.62,2.33-3.63,2.6
		c-0.46,0.66-0.88,1.36-1.08,1.85c0.55-0.29,1.65-0.57,2.2-0.57c0.26,0,1.28,0.86,1.28,1.08c0,0.59-3.52,3.65-4.22,3.65
		c-0.11,0-0.46-0.62-0.46-0.79c1.36-1.14,1.92-1.74,2.68-2.99c-0.48,0.09-1.85,0.51-2.55,0.77c-0.09-0.04-0.15-0.18-0.18-0.26
		c0.15-0.48,0.88-1.69,1.72-2.77c-1.72-0.44-3.01-2.31-3.01-4.42C249.2,14.98,252.19,11.74,255.27,11.74z"/>
	<path fill="#FFFFFF" d="M264.69,22.7c-0.64-0.26-1.14-0.79-1.34-1.54c0.31-1.83,0.97-3.87,2.77-6.45c-0.9,0.04-3.17,2.68-4.82,4.99
		c-1.08,1.52-1.83,2.82-2.13,3.01c-0.77-0.55-0.97-1.19-1.12-1.98c0.02-0.7,0.22-1.83,0.57-2.95c0.66-2.13,1.87-4.36,2.86-6.1
		c0.81,0.18,1.43,0.53,2.16,1.25c-0.57,1.8-2.79,4.11-3.12,6.53c1.67-2.35,4.67-6.6,6.56-6.6c0.73,0,1.72,0.57,1.78,0.75
		c-0.29,1.17-2.51,4.42-2.71,5.65c2.86-3.92,5.04-6.51,6.71-6.51c0.59,0,1.17,0.31,1.36,0.9c-0.53,1.74-2.73,5.24-2.75,7.33
		c0,0.62,0.18,0.75,0.51,0.75c0.35,0,0.68-0.2,0.84-0.2c0.18,0.11,0.18,0.33,0.18,0.46c-0.59,0.46-1.19,0.81-1.94,0.81
		c-1.39,0-1.83-1.01-1.83-2.22c0-2,1.21-3.98,1.78-5.19C269.59,15.53,266.1,20.99,264.69,22.7z"/>
	<path fill="#FFFFFF" d="M275.88,16.52c0.13-0.57,0.77-2.86,2.09-3.52c0.48,0.11,1.47,0.59,2.05,1.45c-1.34,1.5-1.74,3.06-2.49,4.99
		c-0.31,0.81-0.64,1.76-0.66,2.4c0,0.53,0,0.73-0.13,0.73c-0.22,0-1.61-0.57-1.61-1.87C275.14,20.19,275.31,19.16,275.88,16.52z
		 M279.41,10.75c-0.15-0.15-0.26-0.48-0.26-0.73c0-0.51,0.31-1.94,0.68-2.88c0.68,0,2.22,0.88,2.66,1.54
		c-0.66,0.62-2.27,2.57-2.49,3.06c-0.35-0.07-0.66-0.35-0.66-0.59C279.34,11.06,279.36,10.93,279.41,10.75z"/>
	<path fill="#FFFFFF" d="M286.73,15.95c-0.18-0.02-0.26-0.13-0.29-0.33c0-0.18,0.35-0.84,0.35-1.19c0-0.42-0.22-0.73-0.53-0.73
		c-1.17,0-1.8,1.52-1.8,4.33c0,0.18,0,0.22,0.02,0.26c0.62-0.02,1.08-0.04,1.54-0.04c0.02,0.04,0.02,0.07,0.02,0.18
		c0,0.11-0.04,0.24-0.09,0.29c-1.36,0.31-1.47,0.35-1.47,0.68c0,0.22,0.02,0.44,0.02,0.79c0,2.11-1.1,3.59-2.93,4.09
		c-0.42,0.62-0.79,1.25-0.99,1.72c0.55-0.29,1.65-0.57,2.2-0.57c0.26,0,1.28,0.86,1.28,1.08c0,0.59-3.52,3.65-4.22,3.65
		c-0.11,0-0.46-0.62-0.46-0.79c1.36-1.14,1.91-1.74,2.68-2.99c-0.48,0.09-1.85,0.51-2.55,0.77l-0.18-0.26
		c0.09-0.4,0.88-1.61,1.39-2.42c-0.84-0.07-1.85-0.9-2.09-1.72c0-2.24,1.98-4.14,4.53-4.31c0-1.5-0.68-2.77-0.68-4
		c0-1.56,1.36-3.26,2.9-3.59c0.66,0.18,2.35,1.89,2.53,2.57C287.85,14.54,287.19,15.95,286.73,15.95z M283.25,19.58
		c-1.14,0.15-3.04,2.07-3.04,3.08c0,0.33,0.15,0.59,0.44,0.79C282.07,22.88,283.25,21.1,283.25,19.58z"/>
	<path fill="#FFFFFF" d="M289.28,13.75c-0.13-0.18-0.29-0.9-0.29-1.3c0.77,0.04,1.47,0.11,2.07,0.13c0.88-1.74,2.16-3.63,2.64-3.89
		c0.59,0,2,0.46,2.29,0.79c-0.88,1.1-1.43,1.96-2.16,3.19c0.57,0,1.19-0.02,1.8-0.09c0.13,0.13,0.24,0.37,0.24,0.62
		c-0.7,0.26-1.61,0.42-2.62,0.44c-1.45,2.82-2.33,5.68-2.33,7.48c0,0.66,0.26,1.01,0.73,1.08c0.88-0.11,1.69-0.46,2.31-0.95
		c0.07,0.11,0.13,0.24,0.15,0.33c-0.33,0.51-1.91,1.56-2.4,1.61c-1.45-0.04-3.12-1.3-3.12-2.33c0-1.43,0.81-4.4,1.94-7.11H289.28z"
		/>
	<path fill="#FFFFFF" d="M297.73,19.6c0,0.18-0.02,0.37-0.02,0.57c0,0.75,0.18,1.76,1.01,1.76c1.58,0,3.1-1.58,4.03-2.57
		c0.15,0.13,0.26,0.24,0.37,0.37c-1.32,1.74-3.01,2.99-4.4,3.3c-2.02-0.22-3.21-1.61-3.21-3.37c0-3.61,3.3-7.85,6.21-7.85
		c0.66,0.09,1.3,0.51,1.89,1.25C303.38,16.67,301.47,18.1,297.73,19.6z M297.91,18.76c2.33-1.17,4.07-2.97,4.18-4.97
		C300.48,14.01,298.61,16.03,297.91,18.76z"/>
	<path fill="#FFFFFF" d="M310.01,13.61c-0.66,1.61-2.97,4.73-3.15,6.07c0.92-0.99,2.42-2.84,2.93-3.37
		c1.12-1.19,3.19-3.37,4.62-3.37c0.75,0,1.28,0.64,1.56,1.19c0,0.07-0.24,0.09-0.64,0.55c-0.79,1.03-2.29,3.94-2.29,5.74
		c0,0.73,0.2,0.86,0.55,0.86c0.31,0,0.73-0.22,0.92-0.22c0.11,0.07,0.2,0.31,0.2,0.44c-0.44,0.4-1.39,0.9-1.89,0.9
		c-1.69,0-2.09-1.03-2.09-2.33c0-0.73,0.2-1.63,1.21-3.96c-0.07,0-0.92,0.42-1.78,1.25c-1.36,1.32-2.4,2.53-3.54,4.11
		c-0.64,0.9-1.12,1.58-1.47,1.78c-0.62-0.35-0.88-1.06-1.01-1.72c0-1.1,0.66-3.56,1.65-5.83c1.12-2.57,2.16-4.11,2.4-4.22
		C308.95,11.74,309.7,12.65,310.01,13.61z"/>
	<path fill="#FFFFFF" d="M237.39,43.07c0,0.22-0.02,0.51-0.09,0.68c-0.31-0.07-0.64-0.11-1.01-0.13c-0.37,2.57-3.28,5.99-5.79,6.62
		c-3.92-0.09-5.65-1.98-5.65-6.09c0-6.03,4.82-11.82,9.97-11.82c2,0,3.21,0.9,3.21,2.44c0,1.01-0.44,1.85-1.56,2.86
		c-0.68-0.2-1.23-0.77-1.34-1.43c1.01-0.75,1.36-1.25,1.36-2.11c0-0.66-0.44-1.01-1.21-1.01c-1.3,0-2.88,1.03-4.4,2.86
		c-2.18,2.6-3.12,5.26-3.12,8.71c0,2.55,1.1,4.36,2.49,4.49c1.87-0.42,3.94-3.21,4.18-5.33c-0.81,0.18-1.58,0.37-2.24,0.37
		c-0.88,0-1.58-0.46-1.83-1.23c1.03-0.57,4.42-1.39,5.81-1.39C236.92,41.58,237.39,42.13,237.39,43.07z"/>
	<path fill="#FFFFFF" d="M243.46,46.31c0-0.33,0.04-0.59,0.11-0.79c-0.24-0.02-1.83,2.24-2.31,2.82c-0.37,0.4-0.75,0.66-0.95,0.68
		c-0.92-0.04-2.16-0.68-2.4-1.72c0-0.81,0.04-1.25,0.18-1.87c0.53-2.22,2.09-5.94,3.94-7.28c0.51,0,1.52,0.18,1.96,0.68
		c-0.26,0.29-1.47,1.96-2.79,5.08c-0.29,0.66-0.92,2.66-0.92,3.43c0,0.22,0.11,0.35,0.15,0.4c0.44-0.18,1.03-0.9,2.24-2.55
		c0.59-0.81,1.67-2.16,2.16-3.45c0.26-0.73,0.73-2,1.72-2.95c0.77,0,1.83,0.37,2.09,0.7c-1.08,2.57-2.77,5.04-2.77,7.35
		c0,1.25,0.48,1.74,0.48,2.02c0,0.07-0.09,0.09-0.09,0.09c-0.4,0-1.41-0.4-2.09-0.86C243.61,47.63,243.46,46.81,243.46,46.31z
		 M245.68,33.17c0.37,0.04,1.21,0.48,1.5,0.97c0,0.02-1.36,2.18-1.65,2.42c-0.62-0.26-0.99-0.77-1.12-1.3
		C244.4,34.36,244.58,33.24,245.68,33.17z M248.52,33.66c0.35,0.02,1.19,0.48,1.52,0.97c0,0.07-1.32,2.18-1.69,2.38
		c-0.57-0.22-0.9-0.75-1.06-1.25C247.29,34.82,247.46,33.7,248.52,33.66z"/>
	<path fill="#FFFFFF" d="M254.43,40.01c-0.66,1.61-2.97,4.73-3.15,6.07c0.92-0.99,2.42-2.84,2.93-3.37
		c1.12-1.19,3.19-3.37,4.62-3.37c0.75,0,1.28,0.64,1.56,1.19c0,0.07-0.24,0.09-0.64,0.55c-0.79,1.03-2.29,3.94-2.29,5.74
		c0,0.73,0.2,0.86,0.55,0.86c0.31,0,0.73-0.22,0.92-0.22c0.11,0.07,0.2,0.31,0.2,0.44c-0.44,0.4-1.39,0.9-1.89,0.9
		c-1.69,0-2.09-1.03-2.09-2.33c0-0.73,0.2-1.63,1.21-3.96c-0.07,0-0.92,0.42-1.78,1.25c-1.36,1.32-2.4,2.53-3.54,4.11
		c-0.64,0.9-1.12,1.58-1.47,1.78c-0.62-0.35-0.88-1.06-1.01-1.72c0-1.1,0.66-3.56,1.65-5.83c1.12-2.57,2.16-4.11,2.4-4.22
		C253.38,38.14,254.13,39.05,254.43,40.01z"/>
	<path fill="#FFFFFF" d="M266.21,46.31c0-0.33,0.04-0.59,0.11-0.79c-0.24-0.02-1.83,2.24-2.31,2.82c-0.37,0.4-0.75,0.66-0.95,0.68
		c-0.92-0.04-2.16-0.68-2.4-1.72c0-0.81,0.04-1.25,0.18-1.87c0.53-2.22,2.09-5.94,3.94-7.28c0.51,0,1.52,0.18,1.96,0.68
		c-0.26,0.29-1.47,1.96-2.79,5.08c-0.29,0.66-0.92,2.66-0.92,3.43c0,0.22,0.11,0.35,0.15,0.4c0.44-0.18,1.03-0.9,2.25-2.55
		c0.59-0.81,1.67-2.16,2.16-3.45c0.26-0.73,0.73-2,1.72-2.95c0.77,0,1.83,0.37,2.09,0.7c-1.08,2.57-2.77,5.04-2.77,7.35
		c0,1.25,0.48,1.74,0.48,2.02c0,0.07-0.09,0.09-0.09,0.09c-0.4,0-1.41-0.4-2.09-0.86C266.36,47.63,266.21,46.81,266.21,46.31z
		 M268.43,33.17c0.37,0.04,1.21,0.48,1.5,0.97c0,0.02-1.36,2.18-1.65,2.42c-0.62-0.26-0.99-0.77-1.12-1.3
		C267.15,34.36,267.33,33.24,268.43,33.17z M271.27,33.66c0.35,0.02,1.19,0.48,1.52,0.97c0,0.07-1.32,2.18-1.69,2.38
		c-0.57-0.22-0.9-0.75-1.06-1.25C270.03,34.82,270.21,33.7,271.27,33.66z"/>
	<path fill="#FFFFFF" d="M278.11,49.1c-0.64-0.26-1.14-0.79-1.34-1.54c0.31-1.83,0.97-3.87,2.77-6.45c-0.9,0.04-3.17,2.68-4.82,4.99
		c-1.08,1.52-1.83,2.82-2.13,3.01c-0.77-0.55-0.97-1.19-1.12-1.98c0.02-0.7,0.22-1.83,0.57-2.95c0.66-2.13,1.87-4.36,2.86-6.09
		c0.81,0.18,1.43,0.53,2.16,1.25c-0.57,1.8-2.79,4.11-3.12,6.53c1.67-2.35,4.67-6.6,6.56-6.6c0.73,0,1.72,0.57,1.78,0.75
		c-0.29,1.17-2.51,4.42-2.71,5.65c2.86-3.92,5.04-6.51,6.71-6.51c0.59,0,1.17,0.31,1.36,0.9c-0.53,1.74-2.73,5.24-2.75,7.33
		c0,0.62,0.18,0.75,0.51,0.75c0.35,0,0.68-0.2,0.84-0.2c0.18,0.11,0.18,0.33,0.18,0.46c-0.59,0.46-1.19,0.81-1.94,0.81
		c-1.39,0-1.83-1.01-1.83-2.22c0-2,1.21-3.98,1.78-5.19C283.01,41.93,279.51,47.38,278.11,49.1z"/>
	<path fill="#FFFFFF" d="M293.81,46.31c0-0.33,0.04-0.59,0.11-0.79c-0.24-0.02-1.83,2.24-2.31,2.82c-0.37,0.4-0.75,0.66-0.95,0.68
		c-0.92-0.04-2.16-0.68-2.4-1.72c0-0.81,0.04-1.25,0.18-1.87c0.53-2.22,2.09-5.94,3.94-7.28c0.51,0,1.52,0.18,1.96,0.68
		c-0.26,0.29-1.47,1.96-2.79,5.08c-0.29,0.66-0.92,2.66-0.92,3.43c0,0.22,0.11,0.35,0.15,0.4c0.44-0.18,1.03-0.9,2.24-2.55
		c0.59-0.81,1.67-2.16,2.16-3.45c0.26-0.73,0.73-2,1.72-2.95c0.77,0,1.83,0.37,2.09,0.7c-1.08,2.57-2.77,5.04-2.77,7.35
		c0,1.25,0.48,1.74,0.48,2.02c0,0.07-0.09,0.09-0.09,0.09c-0.4,0-1.41-0.4-2.09-0.86C293.97,47.63,293.81,46.81,293.81,46.31z
		 M296.04,33.17c0.37,0.04,1.21,0.48,1.5,0.97c0,0.02-1.36,2.18-1.65,2.42c-0.62-0.26-0.99-0.77-1.12-1.3
		C294.76,34.36,294.94,33.24,296.04,33.17z M298.88,33.66c0.35,0.02,1.19,0.48,1.52,0.97c0,0.07-1.32,2.18-1.69,2.38
		c-0.57-0.22-0.9-0.75-1.06-1.25C297.64,34.82,297.82,33.7,298.88,33.66z"/>
	<path fill="#FFFFFF" d="M305.98,41.09c-1.21-0.26-1.89-0.37-2.33-0.37c-0.86,0-1.5,0.22-2.13,0.75c-0.68-0.59-1.01-1.25-1.01-2.02
		c0-0.26,0-0.35,0.02-0.42c0.51-0.48,1.23-0.77,1.98-0.77c1.65,0,3.5,1.25,4.62,1.25c0.31,0,0.77-0.11,1.03-0.24
		c0.26,0.2,0.53,0.95,0.53,1.52c-1.83,0.7-5.39,3.78-7.06,6.09c0.31,0.13,0.73,0.2,1.25,0.2c1.34,0,2.91-0.48,3.67-1.14
		c0.66,0.42,1.03,1.12,1.03,1.94c0,0.22-0.02,0.35-0.04,0.55c-0.66,0.42-1.39,0.64-2.2,0.64c-1.61,0-3.21-0.75-4.31-0.75
		c-0.7,0-1.28,0.33-1.72,0.99c-0.37-0.15-0.66-0.57-0.7-1.03C298.61,47.3,302.15,43.84,305.98,41.09z"/>
	<path fill="#FFFFFF" d="M311.63,46c0,0.18-0.02,0.37-0.02,0.57c0,0.75,0.18,1.76,1.01,1.76c1.58,0,3.1-1.58,4.03-2.57
		c0.15,0.13,0.26,0.24,0.37,0.37c-1.32,1.74-3.01,2.99-4.4,3.3c-2.02-0.22-3.21-1.61-3.21-3.37c0-3.61,3.3-7.85,6.21-7.85
		c0.66,0.09,1.3,0.51,1.89,1.25C317.29,43.07,315.37,44.5,311.63,46z M311.81,45.16c2.33-1.17,4.07-2.97,4.18-4.97
		C314.38,40.41,312.51,42.43,311.81,45.16z"/>
</g>
</svg>
