<?xml version="1.0" encoding="utf-8"?>
<!-- Generator: Adobe Illustrator 25.3.1, SVG Export Plug-In . SVG Version: 6.00 Build 0)  -->
<svg version="1.0" id="katman_1" xmlns="http://www.w3.org/2000/svg" xmlns:xlink="http://www.w3.org/1999/xlink" x="0px" y="0px"
	 viewBox="0 0 500 400" style="enable-background:new 0 0 500 400;" xml:space="preserve">
<style type="text/css">
	.st0{fill:#FFFFFF;}
</style>
<path class="st0" d="M423.33,116.21V87.6h-64.67l-18.06,28.61H313.9V30.03h-26.82V5.35H95.55v24.68H68.72v364.62h240.6h4.58h143.23
	V116.21H423.33z M104.7,14.5h173.23v15.53H104.7V14.5z M212.22,295.02h-41.81v-7.21h41.81V295.02z M223.93,304.17v81.33H158.7
	v-81.33H223.93z M221.37,295.02v-16.36h-60.11v16.36h-11.71v90.48h-20.29V261.61h124.12V385.5h-20.29v-90.48H221.37z M153.42,91.3
	v24.91h-24.17V91.3H153.42z M286.69,252.46h-24.17v-24.91h24.17V252.46z M220.06,193.49v24.91h-24.16v-24.91H220.06z M195.89,184.34
	v-24.91h24.16v24.91H195.89z M229.21,193.49h24.17v24.91h-24.17V193.49z M229.21,184.34v-24.91h24.17v24.91H229.21z M229.21,150.27
	v-24.91h24.17v24.91H229.21z M220.06,150.27h-24.16v-24.91h24.16V150.27z M186.74,150.27h-24.17v-24.91h24.17V150.27z
	 M186.74,159.42v24.91h-24.17v-24.91H186.74z M186.74,193.49v24.91h-24.17v-24.91H186.74z M186.74,227.55v24.91h-24.17v-24.91
	H186.74z M195.89,227.55h24.16v24.91h-24.16V227.55z M229.21,227.55h24.17v24.91h-24.17V227.55z M286.69,218.4h-24.17v-24.91h24.17
	V218.4z M286.69,184.34h-24.17v-24.91h24.17V184.34z M286.69,150.27h-24.17v-24.91h24.17V150.27z M286.69,116.21h-24.17V91.3h24.17
	V116.21z M253.37,116.21h-24.17V91.3h24.17V116.21z M220.06,116.21h-24.16V91.3h24.16V116.21z M186.74,116.21h-24.17V91.3h24.17
	V116.21z M153.42,125.36v24.91h-24.17v-24.91H153.42z M153.42,159.42v24.91h-24.17v-24.91H153.42z M153.42,193.49v24.91h-24.17
	v-24.91H153.42z M153.42,227.55v24.91h-24.17v-24.91H153.42z M262.52,261.61h24.17V385.5h-24.17V261.61z M286.69,82.15H95.94V57.24
	h190.76V82.15z M95.94,91.3h24.17v24.91H95.94V91.3z M95.94,125.36h24.17v24.91H95.94V125.36z M95.94,159.42h24.17v24.91H95.94
	V159.42z M95.94,193.49h24.17v24.91H95.94V193.49z M95.94,227.55h24.17v24.91H95.94V227.55z M95.94,261.61h24.17V385.5H95.94V261.61
	z M304.75,385.5h-8.91V48.09H86.78V385.5h-8.91V39.18h226.88V385.5z M363.7,96.75h50.48v19.46h-62.76L363.7,96.75z M447.98,125.36
	v24.91H313.9v-24.91H447.98z M376.36,227.55v24.91h-26.65v-24.91H376.36z M349.71,218.4v-24.91h26.65v24.91H349.71z M376.36,261.61
	v24.91h-26.65v-24.91H376.36z M385.51,261.61h26.66v24.91h-26.66V261.61z M385.51,252.46v-24.91h26.66v24.91H385.51z M385.51,218.4
	v-24.91h26.66v24.91H385.51z M385.51,184.34v-24.91h26.66v24.91H385.51z M376.36,184.34h-26.65v-24.91h26.65V184.34z M340.56,184.34
	H313.9v-24.91h26.66V184.34z M340.56,193.49v24.91H313.9v-24.91H340.56z M340.56,227.55v24.91H313.9v-24.91H340.56z M340.56,261.61
	v24.91H313.9v-24.91H340.56z M340.56,295.68v24.91H313.9v-24.91H340.56z M349.71,295.68h26.65v24.91h-26.65V295.68z M376.36,329.74
	v55.76h-26.65v-55.76H376.36z M385.51,329.74h26.66v55.76h-26.66V329.74z M385.51,320.59v-24.91h26.66v24.91H385.51z M421.32,295.68
	h26.66v24.91h-26.66V295.68z M421.32,286.53v-24.91h26.66v24.91H421.32z M421.32,252.46v-24.91h26.66v24.91H421.32z M421.32,218.4
	v-24.91h26.66v24.91H421.32z M421.32,184.34v-24.91h26.66v24.91H421.32z M313.9,329.74h26.66v55.76H313.9V329.74z M421.32,385.5
	v-55.76h26.66v55.76H421.32z"/>
</svg>
