<?xml version="1.0" encoding="utf-8"?>
<!-- Generator: Adobe Illustrator 25.3.1, SVG Export Plug-In . SVG Version: 6.00 Build 0)  -->
<svg version="1.1" id="katman_1" xmlns="http://www.w3.org/2000/svg" xmlns:xlink="http://www.w3.org/1999/xlink" x="0px" y="0px"
	 viewBox="0 0 500 400" style="enable-background:new 0 0 500 400;" xml:space="preserve">
<style type="text/css">
	.st0{fill:#FFFFFF;}
	.st1{font-family:'Poppins-Bold';}
	.st2{font-size:57px;}
</style>
<g>
	<path class="st0" d="M398.3,373.1H146c-3.5,0-6.4-2.8-6.4-6.4s2.8-6.4,6.4-6.4h246v-340H188.2L152.3,55v111.2
		c0,3.5-2.8,6.4-6.4,6.4c-3.5,0-6.4-2.8-6.4-6.4V52.3c0-1.7,0.7-3.4,1.9-4.6l39.7-38.3c1.2-1.1,2.8-1.8,4.4-1.8h212.7
		c3.5,0,6.4,2.8,6.4,6.4v352.7C404.6,370.3,401.8,373.1,398.3,373.1z"/>
	<path class="st0" d="M185.6,58.7H146c-2.6,0-4.9-1.6-5.9-4c-1-2.4-0.4-5.2,1.5-6.9l39.7-38.3c1.8-1.8,4.6-2.3,6.9-1.3
		c2.3,1,3.9,3.3,3.9,5.8v38.3C192,55.8,189.1,58.7,185.6,58.7z M161.7,46h17.6V29L161.7,46z"/>
	<path class="st0" d="M418.5,392.2H166.2c-3.5,0-6.4-2.8-6.4-6.4v-19.1c0-3.5,2.8-6.4,6.4-6.4h225.8V33.1c0-3.5,2.8-6.4,6.4-6.4
		h20.2c3.5,0,6.4,2.8,6.4,6.4v352.7C424.8,389.3,422,392.2,418.5,392.2z M172.5,379.5h239.6v-340h-7.5v327.3c0,3.5-2.8,6.4-6.4,6.4
		H172.5V379.5z"/>
	<path class="st0" d="M319.5,63h-94.7c-3.5,0-6.4-2.8-6.4-6.4s2.8-6.4,6.4-6.4h94.7c3.5,0,6.4,2.8,6.4,6.4S323,63,319.5,63z"/>
	<path class="st0" d="M362.4,101.1h-42.9c-3.5,0-6.4-2.8-6.4-6.4s2.8-6.4,6.4-6.4h42.9c3.5,0,6.4,2.8,6.4,6.4
		S365.9,101.1,362.4,101.1z"/>
	<path class="st0" d="M216.5,101.1h-34.6c-3.5,0-6.4-2.8-6.4-6.4s2.8-6.4,6.4-6.4h34.6c3.5,0,6.4,2.8,6.4,6.4S220,101.1,216.5,101.1
		z"/>
	<path class="st0" d="M362.4,139.2h-4.7c-3.5,0-6.4-2.8-6.4-6.4c0-3.5,2.8-6.4,6.4-6.4h4.7c3.5,0,6.4,2.8,6.4,6.4
		C368.7,136.4,365.9,139.2,362.4,139.2z"/>
	<path class="st0" d="M187.8,139.2h-5.9c-3.5,0-6.4-2.8-6.4-6.4c0-3.5,2.8-6.4,6.4-6.4h5.9c3.5,0,6.4,2.8,6.4,6.4
		C194.2,136.4,191.3,139.2,187.8,139.2z"/>
	<path class="st0" d="M362.4,177.3h-2.2c-3.5,0-6.4-2.8-6.4-6.4c0-3.5,2.8-6.4,6.4-6.4h2.2c3.5,0,6.4,2.8,6.4,6.4
		C368.7,174.5,365.9,177.3,362.4,177.3z"/>
	<path class="st0" d="M362.4,215.4h-36.8c-3.5,0-6.4-2.8-6.4-6.4c0-3.5,2.8-6.4,6.4-6.4h36.8c3.5,0,6.4,2.8,6.4,6.4
		C368.7,212.6,365.9,215.4,362.4,215.4z"/>
	<path class="st0" d="M362.4,253.5h-73.7c-3.5,0-6.4-2.8-6.4-6.4c0-3.5,2.8-6.4,6.4-6.4h73.7c3.5,0,6.4,2.8,6.4,6.4
		C368.7,250.7,365.9,253.5,362.4,253.5z"/>
	<path class="st0" d="M156.4,350.8c-5,0-9.9-1.9-13.7-5.7l-63.3-63.3c-7.6-7.6-7.6-19.8,0-27.4L254.6,79.2c7.3-7.3,20.1-7.3,27.4,0
		l63.3,63.3c7.6,7.6,7.6,19.8,0,27.4L170.1,345.1C166.3,348.9,161.4,350.8,156.4,350.8z M268.3,86.3c-1.8,0-3.5,0.7-4.7,2
		L88.4,263.4c-2.6,2.6-2.6,6.8,0,9.4l63.3,63.3c2.6,2.6,6.8,2.6,9.4,0l175.2-175.2c2.6-2.6,2.6-6.8,0-9.4L273,88.2
		C271.8,86.9,270.1,86.3,268.3,86.3z"/>
	<text transform="matrix(0.7129 -0.7013 0.7013 0.7129 156.7755 261.6106)"><tspan x="0" y="0" class="st0 st1 st2">Tüm</tspan><tspan x="-36" y="50" class="st0 st1 st2">Yazılar</tspan></text>
</g>
</svg>
