<svg id="Group_733" data-name="Group 733" xmlns="http://www.w3.org/2000/svg" xmlns:xlink="http://www.w3.org/1999/xlink" width="135" height="135" viewBox="0 0 135 135">
  <defs>
    <clipPath id="clip-path">
      <rect id="Rectangle_461" data-name="Rectangle 461" width="135" height="135" fill="none"/>
    </clipPath>
  </defs>
  <g id="Group_732" data-name="Group 732" clip-path="url(#clip-path)">
    <path id="Path_961" data-name="Path 961" d="M135,67.5A67.5,67.5,0,1,1,67.5,0,67.5,67.5,0,0,1,135,67.5" fill="#5a99ec" fill-rule="evenodd"/>
    <path id="Path_962" data-name="Path 962" d="M53.861,106.375c32.968,0,51-27.313,51-51q0-1.164-.051-2.317a36.49,36.49,0,0,0,8.941-9.28A35.777,35.777,0,0,1,103.455,46.6a17.987,17.987,0,0,0,7.882-9.915,35.928,35.928,0,0,1-11.381,4.351A17.94,17.94,0,0,0,69.411,57.384,50.885,50.885,0,0,1,32.467,38.658a17.936,17.936,0,0,0,5.548,23.928A17.8,17.8,0,0,1,29.9,60.343c0,.075,0,.15,0,.229a17.933,17.933,0,0,0,14.38,17.572,17.907,17.907,0,0,1-8.094.307A17.944,17.944,0,0,0,52.923,90.9a35.963,35.963,0,0,1-22.261,7.672,36.385,36.385,0,0,1-4.276-.248,50.739,50.739,0,0,0,27.475,8.051" fill="#fff"/>
  </g>
</svg>
