<?xml version="1.0" encoding="utf-8"?>
<!-- Generator: Adobe Illustrator 25.3.1, SVG Export Plug-In . SVG Version: 6.00 Build 0)  -->
<svg version="1.1" id="katman_1" xmlns="http://www.w3.org/2000/svg" xmlns:xlink="http://www.w3.org/1999/xlink" x="0px" y="0px"
	 viewBox="0 0 100 100" style="enable-background:new 0 0 100 100;" xml:space="preserve">
<style type="text/css">
	.st0{fill:#FFFFFF;stroke:#010202;stroke-miterlimit:10;}
</style>
<g>
	<g>
		<path class="st0" d="M34.9,100c9.6-8.8,17.6-16.3,24.4-22.7c6.6-6.3,12.2-11.7,16.9-16.5c4.1-4.2,7.6-7.8,10.5-11.1
			c4.9-5.6,8.4-10.3,10.3-14.2c1.7-3.4,2.5-6.3,2.4-8.7c-0.2-4.5-2.9-7.8-6.4-10.4c-3.3-2.5-7.2-4.4-10.7-6.2
			c-3-1.5-5.6-2.8-7.1-4.1c-1.1-1-1.3-1.9,0-2.7c2.5-1.6,8.9-2.3,14.4-3.1c-2.8-0.1-5.6-0.2-8.5-0.3c-3.2,0.4-6.4,0.7-9.7,1.2
			c-3,0.5-5.8,1-7.7,1.8c-1.7,0.7-2.5,1.8-2.1,2.7c0.5,1.3,2.3,2.6,4.4,4.1c2.4,1.8,5,3.7,6.7,6.2c1.7,2.7,2.2,6.1-0.9,10.6
			c-1.8,2.6-4.8,5.6-9.2,9c-5.2,4.1-12.6,9.1-22.3,15c-5.9,3.6-12.7,7.6-20.6,12.1c-9.2,5.3-20,11.3-32.9,18.4
			c-9.9,5.5-21.3,11.7-34.3,18.7H34.9z"/>
		<g>
			<path class="st0" d="M-38.4,100c12.8-7.3,23.9-13.6,33.5-19.2c12.1-7,22.3-13,31-18.2c7.5-4.5,13.9-8.5,19.4-12
				c9.2-5.9,16.1-10.8,20.9-14.9c4.1-3.4,6.8-6.5,8.4-9c2.8-4.5,2-7.9,0.1-10.6c-1.8-2.5-4.6-4.5-7.1-6.2c-2.2-1.5-4-2.8-4.7-4.1
				c-0.5-0.9,0.1-2,1.8-2.7c4.1-1.7,10.8-2.3,17.1-3c-0.1,0-0.1,0-0.2,0c-6.3,0.7-13,1.3-17.2,3c-1.7,0.7-2.3,1.8-1.9,2.7
				c0.6,1.3,2.5,2.6,4.6,4.1c2.5,1.8,5.2,3.7,7,6.2c1.9,2.7,2.6,6.1-0.3,10.6c-1.6,2.5-4.4,5.6-8.6,9c-4.9,4.1-12,9-21.3,15
				c-5.6,3.6-12.1,7.5-19.7,12C15.9,67.9,5.6,73.9-6.7,80.9c-9.7,5.6-20.9,11.9-33.7,19.1H-38.4z"/>
		</g>
		<g>
			<path class="st0" d="M27.2,100c10-8.6,18.4-16,25.6-22.3C60,71.3,66,65.8,71.1,61c4.4-4.2,8.2-7.9,11.4-11.2
				c5.4-5.6,9.1-10.4,11.4-14.2c2-3.4,2.9-6.3,3-8.7c0.2-4.5-2.4-7.8-5.8-10.4c-3.2-2.5-6.9-4.4-10.3-6.2c-3-1.5-5.5-2.8-6.8-4.1
				c-1-1-1.1-1.9,0.2-2.7c2.7-1.6,9.1-2.3,14.7-3.1c-0.1,0-0.1,0-0.2,0C83,1,76.6,1.7,73.9,3.3c-1.3,0.8-1.2,1.8-0.2,2.7
				c1.3,1.3,3.8,2.6,6.7,4.1c3.4,1.8,7.1,3.7,10.2,6.2c3.3,2.6,5.8,5.9,5.6,10.4c-0.1,2.4-1.1,5.4-3.1,8.7
				c-2.3,3.9-6.2,8.6-11.7,14.3c-3.2,3.3-7.1,7.1-11.6,11.3c-5.2,4.8-11.3,10.3-18.6,16.7c-7.2,6.3-15.8,13.7-25.9,22.3H27.2z"/>
		</g>
		<g>
			<g>
				<path class="st0" d="M80.7,0.8c-1.1,0.2-2.2,0.3-3.3,0.5c-0.1,0-0.2,0-0.2,0c1.1-0.2,2.2-0.3,3.3-0.5
					C80.6,0.8,80.6,0.8,80.7,0.8z M74.3,1.8c-0.9,0.2-1.8,0.4-2.6,0.6c-0.1,0-0.2,0-0.3,0c0.8-0.2,1.7-0.4,2.6-0.6
					C74.2,1.8,74.3,1.8,74.3,1.8z M69.7,3.2c-0.5,0.3-0.9,0.6-1.2,0.9c-0.1,0-0.2,0-0.3,0c0.2-0.3,0.7-0.6,1.2-0.9
					C69.5,3.2,69.6,3.2,69.7,3.2z M68.3,5.1c0.1,0.4,0.3,0.8,0.7,1.2c-0.1,0-0.2,0-0.3,0C68.3,5.8,68,5.5,68,5.1
					C68.1,5.1,68.2,5.1,68.3,5.1z M70.6,7.6c0.7,0.5,1.5,1,2.4,1.6c-0.1,0-0.3,0-0.4,0c-0.9-0.5-1.7-1.1-2.4-1.6
					C70.4,7.6,70.5,7.6,70.6,7.6z M76.1,11c1.1,0.7,2.2,1.4,3.3,2.1c-0.1,0-0.3,0-0.4,0c-1.1-0.7-2.2-1.4-3.3-2.1
					C75.8,11,75.9,11,76.1,11z M82.5,15.6c1,0.9,1.9,1.9,2.6,3c-0.2,0-0.3,0-0.5,0c-0.7-1.1-1.6-2.1-2.6-3
					C82.2,15.6,82.4,15.6,82.5,15.6z M86.6,22.2c0.2,1.4,0.1,2.9-0.4,4.6c-0.2,0-0.4,0-0.7,0c0.6-1.7,0.7-3.2,0.5-4.6
					C86.2,22.2,86.4,22.2,86.6,22.2z M82.9,32.8c-1.8,2.5-4.4,5.3-7.8,8.5c-0.3,0-0.6,0-0.9,0c3.4-3.2,6.1-6,8-8.5
					C82.4,32.8,82.6,32.8,82.9,32.8z M59.9,54C52.3,59.9,42.6,67,30.5,75.6c-0.6,0-1.1,0.1-1.7,0.1C41.2,67,51,60,58.7,54.1
					C59.1,54.1,59.5,54.1,59.9,54z"/>
			</g>
			<g>
				<path class="st0" d="M85.6,0.2c-0.5,0.1-1,0.1-1.6,0.2c-0.1,0-0.1,0-0.2,0c0.5-0.1,1.1-0.1,1.6-0.2C85.4,0.2,85.5,0.2,85.6,0.2z
					"/>
			</g>
		</g>
	</g>
</g>
</svg>
