<?xml version="1.0" encoding="utf-8"?>
<!-- Generator: Adobe Illustrator 25.3.1, SVG Export Plug-In . SVG Version: 6.00 Build 0)  -->
<svg version="1.0" id="katman_1" xmlns="http://www.w3.org/2000/svg" xmlns:xlink="http://www.w3.org/1999/xlink" x="0px" y="0px"
	 viewBox="0 0 500 400" style="enable-background:new 0 0 500 400;" xml:space="preserve">
<style type="text/css">
	.st0{fill:#FFFFFF;}
</style>
<path class="st0" d="M453.82,118.71v-33.7h-7.7l-26.99-66.96V1.9h-92.47V15.7L138.46,85.01h-68.2v33.7h64.35v64
	c-7.7,2.08-13.4,9.05-13.4,17.39c0,8.34,5.71,15.31,13.4,17.38v17.4h4.65c3.75,0,6.8,3.02,6.8,6.74c0,3.72-3.05,6.75-6.8,6.75
	c-3.65,0-6.74-3.09-6.74-6.75h-9.3c0,5.66,2.96,10.61,7.39,13.47l-23.15,23.15H92.11v68.99h94.33v-68.99h-15.36l-23.14-23.14
	c4.46-2.86,7.44-7.82,7.44-13.48c0-7.24-4.84-13.37-11.46-15.36v-8.77c7.72-2.06,13.45-9.04,13.45-17.4
	c0-8.36-5.73-15.34-13.45-17.4v-63.99h182.73v240.02h-17.02l-16.3,38.73h159.09l-16.3-38.73h-17.02V118.71H453.82z M177.13,337.94
	h-75.72v-50.4h75.72V337.94z M120.62,278.24l18.65-18.65l18.65,18.65H120.62z M148.07,200.1c0,4.84-3.94,8.78-8.78,8.78
	c-4.84,0-8.77-3.94-8.77-8.78c0-4.84,3.93-8.78,8.77-8.78C144.13,191.32,148.07,195.26,148.07,200.1z M366.32,155.61l-30.36,30.33
	v-60.67L366.32,155.61z M342.54,118.71h60.71l-30.36,30.33L342.54,118.71z M372.89,162.18l35.01,34.98l-35.01,34.98l-35.01-34.98
	L372.89,162.18z M335.96,208.38l30.36,30.33l-30.36,30.33V208.38z M372.89,245.29l35.01,34.98l-35.01,34.98l-35.01-34.98
	L372.89,245.29z M366.32,321.82l-30.36,30.33v-60.66L366.32,321.82z M372.89,328.39l30.36,30.33h-60.71L372.89,328.39z
	 M379.47,321.82l30.36-30.33v60.66L379.47,321.82z M409.82,269.05l-30.36-30.33l30.36-30.33V269.05z M379.47,155.61l30.36-30.33
	v60.67L379.47,155.61z M436.1,85.01h-16.97v-42.1L436.1,85.01z M335.96,17.77l30.36,30.33l-30.36,30.33V17.77z M409.82,78.44
	l-30.36-30.33l30.36-30.33V78.44z M372.89,41.54L342.54,11.2h60.71L372.89,41.54z M372.89,54.68l30.36,30.33h-60.71L372.89,54.68z
	 M326.66,25.61v59.4H165.37L326.66,25.61z M79.57,94.31h364.95v15.1H79.57V94.31z M429.97,368.02l8.47,20.13h-131.1l8.47-20.13
	H429.97z"/>
</svg>
