<svg id="Group_735" data-name="Group 735" xmlns="http://www.w3.org/2000/svg" xmlns:xlink="http://www.w3.org/1999/xlink" width="135" height="135" viewBox="0 0 135 135">
  <defs>
    <clipPath id="clip-path">
      <rect id="Rectangle_462" data-name="Rectangle 462" width="135" height="135" fill="none"/>
    </clipPath>
  </defs>
  <g id="Group_734" data-name="Group 734" clip-path="url(#clip-path)">
    <path id="Path_963" data-name="Path 963" d="M135,67.5A67.5,67.5,0,1,1,67.5,0,67.5,67.5,0,0,1,135,67.5" fill="#da0000"/>
    <path id="Path_964" data-name="Path 964" d="M110.619,45.838a11.269,11.269,0,0,0-7.957-7.957C95.644,36,67.5,36,67.5,36s-28.144,0-35.162,1.881a11.269,11.269,0,0,0-7.957,7.957C22.5,52.856,22.5,67.5,22.5,67.5s0,14.644,1.881,21.662a11.269,11.269,0,0,0,7.957,7.957C39.356,99,67.5,99,67.5,99s28.144,0,35.162-1.881a11.269,11.269,0,0,0,7.957-7.957C112.5,82.144,112.5,67.5,112.5,67.5s0-14.644-1.881-21.662M58.5,81V54L81.882,67.5Z" fill="#fff"/>
  </g>
</svg>
