<?xml version="1.0" encoding="utf-8"?>
<!-- Generator: Adobe Illustrator 25.3.1, SVG Export Plug-In . SVG Version: 6.00 Build 0)  -->
<svg version="1.1" id="katman_1" xmlns="http://www.w3.org/2000/svg" xmlns:xlink="http://www.w3.org/1999/xlink" x="0px" y="0px"
	 viewBox="0 0 200 100" style="enable-background:new 0 0 200 100;" xml:space="preserve">
<style type="text/css">
	.st0{opacity:0.2;fill:#221F20;}
	.st1{fill:#FFFFFF;}
	.st2{fill:#CD1F45;}
	.st3{fill:#A2192B;}
</style>
<g>
	<path class="st0" d="M191.7,55.4l-80.3-42.7v25.1L-3.9,31.4L16.7,58L-3.9,84.6l115.2-6.3v25.1l80.3-42.7c0,0,0,0,0,0
		c1.2-0.7,1.9-1.6,1.9-2.6C193.6,57,192.9,56,191.7,55.4C191.7,55.4,191.7,55.4,191.7,55.4z"/>
	<g>
		<path class="st1" d="M198.1,47.4C198.1,47.4,198.1,47.4,198.1,47.4L117.7,4.7v25.1L2.5,23.4L23.1,50L2.5,76.6l115.2-6.3v25.1
			L198,52.6c0,0,0,0,0,0c1.2-0.7,1.9-1.6,1.9-2.6C200,49,199.3,48,198.1,47.4z"/>
		<path class="st2" d="M121.8,10.3v22.3L9.4,26.4L27.7,50h94.1v0h74.1c0-0.2-0.2-0.5-0.5-0.6L121.8,10.3z"/>
		<path class="st3" d="M160.4,50H27.7L9.4,73.6l112.4-6.2v22.4l73.6-39.1c0.3-0.2,0.5-0.4,0.5-0.6L160.4,50L160.4,50z"/>
	</g>
</g>
</svg>
