<?xml version="1.0" encoding="utf-8"?>
<!-- Generator: Adobe Illustrator 25.3.1, SVG Export Plug-In . SVG Version: 6.00 Build 0)  -->
<svg version="1.1" id="BACKGROUND" xmlns="http://www.w3.org/2000/svg" xmlns:xlink="http://www.w3.org/1999/xlink" x="0px" y="0px"
	 viewBox="0 0 750 500" enable-background="new 0 0 750 500" xml:space="preserve">
<g>
	<defs>
		<rect id="SVGID_1_" width="750" height="500"/>
	</defs>
	<clipPath id="SVGID_2_">
		<use xlink:href="#SVGID_1_"  overflow="visible"/>
	</clipPath>
	<g clip-path="url(#SVGID_2_)">
		<rect fill="#F2F2F2" width="750" height="500"/>
	</g>
	<g clip-path="url(#SVGID_2_)">
		
			<radialGradient id="SVGID_3_" cx="258.5925" cy="238.6701" r="502.6414" gradientTransform="matrix(0.9434 -0.3316 0.2074 0.5902 -48.804 164.3012)" gradientUnits="userSpaceOnUse">
			<stop  offset="0" style="stop-color:#CCCCCC"/>
			<stop  offset="0.0256" style="stop-color:#D0D0D0;stop-opacity:0.9744"/>
			<stop  offset="0.2044" style="stop-color:#E5E5E5;stop-opacity:0.7956"/>
			<stop  offset="0.4041" style="stop-color:#F4F4F4;stop-opacity:0.5959"/>
			<stop  offset="0.6396" style="stop-color:#FCFCFC;stop-opacity:0.3604"/>
			<stop  offset="1" style="stop-color:#FFFFFF;stop-opacity:0"/>
		</radialGradient>
		<path fill="url(#SVGID_3_)" d="M653.36-76.39c-185.82,363.48-772.12,349.6-808.69,348.26l18.13-384.19L653.36-76.39z"/>
		
			<radialGradient id="SVGID_4_" cx="258.9142" cy="238.5967" r="502.6438" gradientTransform="matrix(0.9959 -0.0903 0.0565 0.623 -87.1889 -10.7832)" gradientUnits="userSpaceOnUse">
			<stop  offset="0" style="stop-color:#CCCCCC"/>
			<stop  offset="0.0256" style="stop-color:#D0D0D0;stop-opacity:0.9744"/>
			<stop  offset="0.2044" style="stop-color:#E5E5E5;stop-opacity:0.7956"/>
			<stop  offset="0.4041" style="stop-color:#F4F4F4;stop-opacity:0.5959"/>
			<stop  offset="0.6396" style="stop-color:#FCFCFC;stop-opacity:0.3604"/>
			<stop  offset="1" style="stop-color:#FFFFFF;stop-opacity:0"/>
		</radialGradient>
		<path fill="url(#SVGID_4_)" d="M652.86-72.19C383.66,234.68-181.37,77.59-216.5,67.34l111.7-368.04L652.86-72.19z"/>
		
			<radialGradient id="SVGID_5_" cx="500.8506" cy="189.4386" r="313.0042" gradientTransform="matrix(0.8446 0.5355 -0.2986 0.4709 134.4127 -167.9587)" gradientUnits="userSpaceOnUse">
			<stop  offset="0" style="stop-color:#CCCCCC"/>
			<stop  offset="0.0597" style="stop-color:#D8D8D8;stop-opacity:0.9403"/>
			<stop  offset="0.1819" style="stop-color:#E9E9E9;stop-opacity:0.8181"/>
			<stop  offset="0.3302" style="stop-color:#F6F6F6;stop-opacity:0.6698"/>
			<stop  offset="0.5298" style="stop-color:#FDFDFD;stop-opacity:0.4702"/>
			<stop  offset="1" style="stop-color:#FFFFFF;stop-opacity:0"/>
		</radialGradient>
		<path fill="url(#SVGID_5_)" d="M281-49c22.58,37.76,210.79,341.84,532,356.38V-49H281z"/>
		
			<radialGradient id="SVGID_6_" cx="501.0323" cy="189.4843" r="226.3967" gradientTransform="matrix(0.4061 0.9138 -0.5095 0.2265 508.1009 -465.6363)" gradientUnits="userSpaceOnUse">
			<stop  offset="0" style="stop-color:#CCCCCC"/>
			<stop  offset="0.0256" style="stop-color:#D0D0D0;stop-opacity:0.9744"/>
			<stop  offset="0.2044" style="stop-color:#E5E5E5;stop-opacity:0.7956"/>
			<stop  offset="0.4041" style="stop-color:#F4F4F4;stop-opacity:0.5959"/>
			<stop  offset="0.6396" style="stop-color:#FCFCFC;stop-opacity:0.3604"/>
			<stop  offset="1" style="stop-color:#FFFFFF;stop-opacity:0"/>
		</radialGradient>
		<path fill="url(#SVGID_6_)" d="M564.21-285.2c-2.14,43.95-14.04,401.36,245.25,591.51L1007.01,9.69L564.21-285.2z"/>
		
			<radialGradient id="SVGID_7_" cx="232.4312" cy="310.4068" r="274.2914" gradientTransform="matrix(-0.722 -0.6919 0.4328 -0.4517 265.9073 611.4173)" gradientUnits="userSpaceOnUse">
			<stop  offset="0" style="stop-color:#CCCCCC"/>
			<stop  offset="0.0256" style="stop-color:#D0D0D0;stop-opacity:0.9744"/>
			<stop  offset="0.2044" style="stop-color:#E5E5E5;stop-opacity:0.7956"/>
			<stop  offset="0.4041" style="stop-color:#F4F4F4;stop-opacity:0.5959"/>
			<stop  offset="0.6396" style="stop-color:#FCFCFC;stop-opacity:0.3604"/>
			<stop  offset="1" style="stop-color:#FFFFFF;stop-opacity:0"/>
		</radialGradient>
		<path fill="url(#SVGID_7_)" d="M-48,117c201.78,63.14,352.5,221.64,389,414c5.79,30.51,8.35,59.97,8.48,88.07H-48V117z"/>
		
			<radialGradient id="SVGID_8_" cx="448.2817" cy="280.8092" r="371.8054" gradientTransform="matrix(-0.5515 0.8342 -0.2815 -0.1861 774.5571 -40.8755)" gradientUnits="userSpaceOnUse">
			<stop  offset="0" style="stop-color:#CCCCCC"/>
			<stop  offset="0.0824" style="stop-color:#D7D7D7;stop-opacity:0.8425"/>
			<stop  offset="0.2794" style="stop-color:#ECECEC;stop-opacity:0.4663"/>
			<stop  offset="0.4082" style="stop-color:#F4F4F4;stop-opacity:0.2201"/>
			<stop  offset="0.6371" style="stop-color:#FCFCFC;stop-opacity:0.135"/>
			<stop  offset="1" style="stop-color:#FFFFFF;stop-opacity:0"/>
		</radialGradient>
		<path fill="url(#SVGID_8_)" d="M265.49,639c23.56-81.16,146.61-475.02,509-622C818.31-0.77,861.45-13.24,903-21.7V639H265.49z"/>
		
			<radialGradient id="SVGID_9_" cx="448.2817" cy="280.8092" r="371.8054" gradientTransform="matrix(-0.5515 0.8342 -0.2815 -0.1861 774.5571 -40.8755)" gradientUnits="userSpaceOnUse">
			<stop  offset="0" style="stop-color:#CCCCCC"/>
			<stop  offset="0.0824" style="stop-color:#D7D7D7;stop-opacity:0.8425"/>
			<stop  offset="0.2794" style="stop-color:#ECECEC;stop-opacity:0.4663"/>
			<stop  offset="0.4082" style="stop-color:#F4F4F4;stop-opacity:0.2201"/>
			<stop  offset="0.6371" style="stop-color:#FCFCFC;stop-opacity:0.135"/>
			<stop  offset="1" style="stop-color:#FFFFFF;stop-opacity:0"/>
		</radialGradient>
		<path fill="url(#SVGID_9_)" d="M265.49,639c23.56-81.16,146.61-475.02,509-622C818.31-0.77,861.45-13.24,903-21.7V639H265.49z"/>
		
			<radialGradient id="SVGID_10_" cx="496.4726" cy="268.1936" r="154.5006" gradientTransform="matrix(1.593 -0.7792 0.2964 0.606 -307.4387 602.267)" gradientUnits="userSpaceOnUse">
			<stop  offset="0" style="stop-color:#EBEBEB"/>
			<stop  offset="0.5432" style="stop-color:#FAFAFA;stop-opacity:0.4568"/>
			<stop  offset="1" style="stop-color:#FFFFFF;stop-opacity:0"/>
		</radialGradient>
		<path opacity="0.8" fill="url(#SVGID_10_)" d="M812.05,262.06c25.29,51.71-64.39,147.53-200.32,214.01s-266.62,78.47-291.91,26.76
			c-25.29-51.71,64.39-147.53,200.32-214.01S786.76,210.35,812.05,262.06z"/>
		
			<radialGradient id="SVGID_11_" cx="459.6149" cy="2.7083" r="154.4952" gradientTransform="matrix(0.5739 -0.4614 0.4227 0.5258 239.4926 399.566)" gradientUnits="userSpaceOnUse">
			<stop  offset="0" style="stop-color:#EBEBEB"/>
			<stop  offset="1" style="stop-color:#FFFFFF;stop-opacity:0"/>
		</radialGradient>
		<path opacity="0.8" fill="url(#SVGID_11_)" d="M596.67,121.63c36.07,44.86,25.61,113.15-23.36,152.52s-117.9,34.92-153.97-9.94
			s-25.61-113.15,23.36-152.52C491.66,72.31,560.6,76.77,596.67,121.63z"/>
		
			<radialGradient id="SVGID_12_" cx="353.1516" cy="-365.028" r="154.5034" gradientTransform="matrix(1.7733 0 0 0.6746 -475.7244 358.4247)" gradientUnits="userSpaceOnUse">
			<stop  offset="0" style="stop-color:#EBEBEB"/>
			<stop  offset="0.5432" style="stop-color:#FAFAFA;stop-opacity:0.4568"/>
			<stop  offset="1" style="stop-color:#FFFFFF;stop-opacity:0"/>
		</radialGradient>
		<ellipse opacity="0.8" fill="url(#SVGID_12_)" cx="151.24" cy="117.54" rx="273.98" ry="104.23"/>
		
			<radialGradient id="SVGID_13_" cx="372.0803" cy="47.4996" r="154.5029" gradientTransform="matrix(1.7005 -0.503 0.1913 0.6469 -456.5813 527.3066)" gradientUnits="userSpaceOnUse">
			<stop  offset="0" style="stop-color:#EBEBEB"/>
			<stop  offset="0.5432" style="stop-color:#FAFAFA;stop-opacity:0.4568"/>
			<stop  offset="1" style="stop-color:#FFFFFF;stop-opacity:0"/>
		</radialGradient>
		<path opacity="0.8" fill="url(#SVGID_13_)" d="M450.16,298.11c16.33,55.2-88.07,134.74-233.17,177.66
			C71.9,518.68-58.97,508.72-75.29,453.52c-16.33-55.2,88.07-134.74,233.17-177.66S433.84,242.91,450.16,298.11z"/>
		
			<radialGradient id="SVGID_14_" cx="492.1625" cy="471.4352" r="371.8288" gradientTransform="matrix(-0.8559 0.517 -0.1745 -0.2889 1017.87 284.9269)" gradientUnits="userSpaceOnUse">
			<stop  offset="0" style="stop-color:#CCCCCC"/>
			<stop  offset="0.0824" style="stop-color:#D7D7D7;stop-opacity:0.8425"/>
			<stop  offset="0.2794" style="stop-color:#ECECEC;stop-opacity:0.4663"/>
			<stop  offset="0.4082" style="stop-color:#F4F4F4;stop-opacity:0.2201"/>
			<stop  offset="0.6371" style="stop-color:#FCFCFC;stop-opacity:0.135"/>
			<stop  offset="1" style="stop-color:#FFFFFF;stop-opacity:0"/>
		</radialGradient>
		<path fill="url(#SVGID_14_)" d="M195.61,648.34c56.09-63.21,336.2-366.21,726.6-343.54c47.2,2.74,91.52,9.98,132.68,20.16
			l-283.4,596.83L195.61,648.34z"/>
		
			<radialGradient id="SVGID_15_" cx="259.7096" cy="238.5444" r="502.6625" gradientTransform="matrix(0.8415 -0.5401 0.3379 0.5264 23.9112 320.3977)" gradientUnits="userSpaceOnUse">
			<stop  offset="0" style="stop-color:#CCCCCC"/>
			<stop  offset="0.0256" style="stop-color:#D0D0D0;stop-opacity:0.9744"/>
			<stop  offset="0.2044" style="stop-color:#E5E5E5;stop-opacity:0.7956"/>
			<stop  offset="0.4041" style="stop-color:#F4F4F4;stop-opacity:0.5959"/>
			<stop  offset="0.6396" style="stop-color:#FCFCFC;stop-opacity:0.3604"/>
			<stop  offset="1" style="stop-color:#FFFFFF;stop-opacity:0"/>
		</radialGradient>
		<path fill="url(#SVGID_15_)" d="M652.55-76.38c-97,396.53-670.71,518.21-706.6,525.34l-70.94-378.02L652.55-76.38z"/>
		
			<radialGradient id="SVGID_16_" cx="232.5266" cy="310.4649" r="274.294" gradientTransform="matrix(-0.3197 -0.9475 0.5927 -0.2 0.8207 704.9442)" gradientUnits="userSpaceOnUse">
			<stop  offset="0" style="stop-color:#CCCCCC"/>
			<stop  offset="0.0256" style="stop-color:#D0D0D0;stop-opacity:0.9744"/>
			<stop  offset="0.2044" style="stop-color:#E5E5E5;stop-opacity:0.7956"/>
			<stop  offset="0.4041" style="stop-color:#F4F4F4;stop-opacity:0.5959"/>
			<stop  offset="0.6396" style="stop-color:#FCFCFC;stop-opacity:0.3604"/>
			<stop  offset="1" style="stop-color:#FFFFFF;stop-opacity:0"/>
		</radialGradient>
		<path fill="url(#SVGID_16_)" d="M-48.56,121.28C101.07,270.66,161.3,480.91,104.61,668.32c-8.99,29.72-20.36,57.02-33.25,81.99
			l-352.33-183.99L-48.56,121.28z"/>
	</g>
</g>
</svg>
